<svg xmlns="http://www.w3.org/2000/svg" viewBox="0 0 960 500" font-family="-apple-system,BlinkMacSystemFont,Segoe UI,sans-serif">
<rect width="960" height="500" rx="10" fill="#0d1117"/>
<rect x="55" y="115" width="890" height="315" fill="#161b22" rx="4"/>
<line x1="55" y1="421.3" x2="945" y2="421.3" stroke="#21262d"/>
<text x="47" y="425.2731680745214" text-anchor="end" fill="#484f58" font-size="10">0µs</text>
<line x1="55" y1="412.5" x2="945" y2="412.5" stroke="#21262d"/>
<text x="47" y="416.46240077293646" text-anchor="end" fill="#484f58" font-size="10">0µs</text>
<line x1="55" y1="403.7" x2="945" y2="403.7" stroke="#21262d"/>
<text x="47" y="407.65163347135154" text-anchor="end" fill="#484f58" font-size="10">0µs</text>
<line x1="55" y1="392.0" x2="945" y2="392.0" stroke="#21262d"/>
<text x="47" y="396.00443263787156" text-anchor="end" fill="#484f58" font-size="10">0µs</text>
<line x1="55" y1="383.2" x2="945" y2="383.2" stroke="#21262d"/>
<text x="47" y="387.19366533628664" text-anchor="end" fill="#484f58" font-size="10">0µs</text>
<line x1="55" y1="374.4" x2="945" y2="374.4" stroke="#21262d"/>
<text x="47" y="378.3828980347018" text-anchor="end" fill="#484f58" font-size="10">0µs</text>
<line x1="55" y1="362.7" x2="945" y2="362.7" stroke="#21262d"/>
<text x="47" y="366.7356972012218" text-anchor="end" fill="#484f58" font-size="10">0µs</text>
<line x1="55" y1="353.9" x2="945" y2="353.9" stroke="#21262d"/>
<text x="47" y="357.92492989963694" text-anchor="end" fill="#484f58" font-size="10">0µs</text>
<line x1="55" y1="345.1" x2="945" y2="345.1" stroke="#21262d"/>
<text x="47" y="349.11416259805196" text-anchor="end" fill="#484f58" font-size="10">0µs</text>
<line x1="55" y1="333.5" x2="945" y2="333.5" stroke="#21262d"/>
<text x="47" y="337.466961764572" text-anchor="end" fill="#484f58" font-size="10">0µs</text>
<line x1="55" y1="324.7" x2="945" y2="324.7" stroke="#21262d"/>
<text x="47" y="328.65619446298706" text-anchor="end" fill="#484f58" font-size="10">0µs</text>
<line x1="55" y1="315.8" x2="945" y2="315.8" stroke="#21262d"/>
<text x="47" y="319.8454271614022" text-anchor="end" fill="#484f58" font-size="10">0µs</text>
<line x1="55" y1="304.2" x2="945" y2="304.2" stroke="#21262d"/>
<text x="47" y="308.19822632792216" text-anchor="end" fill="#484f58" font-size="10">0µs</text>
<line x1="55" y1="295.4" x2="945" y2="295.4" stroke="#21262d"/>
<text x="47" y="299.3874590263373" text-anchor="end" fill="#484f58" font-size="10">0µs</text>
<line x1="55" y1="286.6" x2="945" y2="286.6" stroke="#21262d"/>
<text x="47" y="290.5766917247524" text-anchor="end" fill="#484f58" font-size="10">0µs</text>
<line x1="55" y1="274.9" x2="945" y2="274.9" stroke="#21262d"/>
<text x="47" y="278.9294908912724" text-anchor="end" fill="#484f58" font-size="10">0µs</text>
<line x1="55" y1="266.1" x2="945" y2="266.1" stroke="#21262d"/>
<text x="47" y="270.1187235896875" text-anchor="end" fill="#484f58" font-size="10">0µs</text>
<line x1="55" y1="257.3" x2="945" y2="257.3" stroke="#21262d"/>
<text x="47" y="261.30795628810256" text-anchor="end" fill="#484f58" font-size="10">0µs</text>
<line x1="55" y1="245.7" x2="945" y2="245.7" stroke="#21262d"/>
<text x="47" y="249.6607554546226" text-anchor="end" fill="#484f58" font-size="10">0µs</text>
<line x1="55" y1="236.8" x2="945" y2="236.8" stroke="#21262d"/>
<text x="47" y="240.84998815303766" text-anchor="end" fill="#484f58" font-size="10">1µs</text>
<line x1="55" y1="228.0" x2="945" y2="228.0" stroke="#21262d"/>
<text x="47" y="232.03922085145277" text-anchor="end" fill="#484f58" font-size="10">2µs</text>
<line x1="55" y1="216.4" x2="945" y2="216.4" stroke="#21262d"/>
<text x="47" y="220.3920200179728" text-anchor="end" fill="#484f58" font-size="10">5µs</text>
<line x1="55" y1="207.6" x2="945" y2="207.6" stroke="#21262d"/>
<text x="47" y="211.58125271638787" text-anchor="end" fill="#484f58" font-size="10">10µs</text>
<line x1="55" y1="198.8" x2="945" y2="198.8" stroke="#21262d"/>
<text x="47" y="202.77048541480298" text-anchor="end" fill="#484f58" font-size="10">20µs</text>
<line x1="55" y1="187.1" x2="945" y2="187.1" stroke="#21262d"/>
<text x="47" y="191.123284581323" text-anchor="end" fill="#484f58" font-size="10">50µs</text>
<line x1="55" y1="178.3" x2="945" y2="178.3" stroke="#21262d"/>
<text x="47" y="182.31251727973807" text-anchor="end" fill="#484f58" font-size="10">100µs</text>
<line x1="55" y1="169.5" x2="945" y2="169.5" stroke="#21262d"/>
<text x="47" y="173.50174997815319" text-anchor="end" fill="#484f58" font-size="10">200µs</text>
<line x1="55" y1="157.9" x2="945" y2="157.9" stroke="#21262d"/>
<text x="47" y="161.8545491446732" text-anchor="end" fill="#484f58" font-size="10">500µs</text>
<line x1="55" y1="149.0" x2="945" y2="149.0" stroke="#21262d"/>
<text x="47" y="153.04378184308825" text-anchor="end" fill="#484f58" font-size="10">1ms</text>
<line x1="55" y1="140.2" x2="945" y2="140.2" stroke="#21262d"/>
<text x="47" y="144.2330145415034" text-anchor="end" fill="#484f58" font-size="10">2ms</text>
<line x1="55" y1="128.6" x2="945" y2="128.6" stroke="#21262d"/>
<text x="47" y="132.5858137080234" text-anchor="end" fill="#484f58" font-size="10">5ms</text>
<line x1="55" y1="119.8" x2="945" y2="119.8" stroke="#21262d"/>
<text x="47" y="123.77504640643848" text-anchor="end" fill="#484f58" font-size="10">10ms</text>
<line x1="84.7" y1="115" x2="84.7" y2="430" stroke="#30363d" stroke-width="1" stroke-dasharray="4,4"/>
<line x1="114.3" y1="115" x2="114.3" y2="430" stroke="#30363d" stroke-width="1" stroke-dasharray="4,4"/>
<line x1="144.0" y1="115" x2="144.0" y2="430" stroke="#30363d" stroke-width="1" stroke-dasharray="4,4"/>
<line x1="173.7" y1="115" x2="173.7" y2="430" stroke="#30363d" stroke-width="1" stroke-dasharray="4,4"/>
<line x1="203.3" y1="115" x2="203.3" y2="430" stroke="#30363d" stroke-width="1" stroke-dasharray="4,4"/>
<line x1="233.0" y1="115" x2="233.0" y2="430" stroke="#30363d" stroke-width="1" stroke-dasharray="4,4"/>
<line x1="262.7" y1="115" x2="262.7" y2="430" stroke="#30363d" stroke-width="1" stroke-dasharray="4,4"/>
<line x1="292.3" y1="115" x2="292.3" y2="430" stroke="#30363d" stroke-width="1" stroke-dasharray="4,4"/>
<line x1="322.0" y1="115" x2="322.0" y2="430" stroke="#30363d" stroke-width="1" stroke-dasharray="4,4"/>
<line x1="351.7" y1="115" x2="351.7" y2="430" stroke="#30363d" stroke-width="1" stroke-dasharray="4,4"/>
<line x1="381.3" y1="115" x2="381.3" y2="430" stroke="#30363d" stroke-width="1" stroke-dasharray="4,4"/>
<line x1="411.0" y1="115" x2="411.0" y2="430" stroke="#30363d" stroke-width="1" stroke-dasharray="4,4"/>
<line x1="440.7" y1="115" x2="440.7" y2="430" stroke="#30363d" stroke-width="1" stroke-dasharray="4,4"/>
<line x1="470.3" y1="115" x2="470.3" y2="430" stroke="#30363d" stroke-width="1" stroke-dasharray="4,4"/>
<line x1="500.0" y1="115" x2="500.0" y2="430" stroke="#30363d" stroke-width="1" stroke-dasharray="4,4"/>
<line x1="529.7" y1="115" x2="529.7" y2="430" stroke="#30363d" stroke-width="1" stroke-dasharray="4,4"/>
<line x1="559.3" y1="115" x2="559.3" y2="430" stroke="#30363d" stroke-width="1" stroke-dasharray="4,4"/>
<line x1="589.0" y1="115" x2="589.0" y2="430" stroke="#30363d" stroke-width="1" stroke-dasharray="4,4"/>
<line x1="618.7" y1="115" x2="618.7" y2="430" stroke="#30363d" stroke-width="1" stroke-dasharray="4,4"/>
<line x1="648.3" y1="115" x2="648.3" y2="430" stroke="#30363d" stroke-width="1" stroke-dasharray="4,4"/>
<line x1="678.0" y1="115" x2="678.0" y2="430" stroke="#30363d" stroke-width="1" stroke-dasharray="4,4"/>
<line x1="707.7" y1="115" x2="707.7" y2="430" stroke="#30363d" stroke-width="1" stroke-dasharray="4,4"/>
<line x1="737.3" y1="115" x2="737.3" y2="430" stroke="#30363d" stroke-width="1" stroke-dasharray="4,4"/>
<line x1="767.0" y1="115" x2="767.0" y2="430" stroke="#30363d" stroke-width="1" stroke-dasharray="4,4"/>
<line x1="796.7" y1="115" x2="796.7" y2="430" stroke="#30363d" stroke-width="1" stroke-dasharray="4,4"/>
<line x1="826.3" y1="115" x2="826.3" y2="430" stroke="#30363d" stroke-width="1" stroke-dasharray="4,4"/>
<line x1="856.0" y1="115" x2="856.0" y2="430" stroke="#30363d" stroke-width="1" stroke-dasharray="4,4"/>
<line x1="885.7" y1="115" x2="885.7" y2="430" stroke="#30363d" stroke-width="1" stroke-dasharray="4,4"/>
<line x1="915.3" y1="115" x2="915.3" y2="430" stroke="#30363d" stroke-width="1" stroke-dasharray="4,4"/>
<path d="M69.8,138.6 L99.5,138.2 L129.2,138.6 L158.8,177.0 L188.5,363.4 L218.2,137.8 L247.8,137.9 L277.5,137.9 L307.2,197.7 L336.8,384.4 L366.5,149.3 L396.2,149.3 L425.8,149.3 L455.5,214.8 L485.2,390.2 L514.8,150.1 L544.5,150.1 L574.2,150.1 L603.8,250.9 L633.5,425.5 L663.2,154.3 L692.8,154.3 L722.5,154.3 L752.2,227.0 L781.8,397.4 L811.5,137.1 L841.2,137.4 L870.8,137.3 L900.5,180.3 L930.2,367.5" fill="none" stroke="#58a6ff" stroke-width="8" stroke-linejoin="round" stroke-linecap="round" opacity="0.12"/>
<path d="M69.8,138.6 L99.5,138.2 L129.2,138.6 L158.8,177.0 L188.5,363.4 L218.2,137.8 L247.8,137.9 L277.5,137.9 L307.2,197.7 L336.8,384.4 L366.5,149.3 L396.2,149.3 L425.8,149.3 L455.5,214.8 L485.2,390.2 L514.8,150.1 L544.5,150.1 L574.2,150.1 L603.8,250.9 L633.5,425.5 L663.2,154.3 L692.8,154.3 L722.5,154.3 L752.2,227.0 L781.8,397.4 L811.5,137.1 L841.2,137.4 L870.8,137.3 L900.5,180.3 L930.2,367.5" fill="none" stroke="#58a6ff" stroke-width="3.5" stroke-linejoin="round" stroke-linecap="round"/>
<circle cx="69.8" cy="138.6" r="6" fill="#58a6ff" opacity="0.2"/>
<circle cx="69.8" cy="138.6" r="4" fill="#58a6ff" stroke="#0d1117" stroke-width="2.5"/>
<circle cx="99.5" cy="138.2" r="6" fill="#58a6ff" opacity="0.2"/>
<circle cx="99.5" cy="138.2" r="4" fill="#58a6ff" stroke="#0d1117" stroke-width="2.5"/>
<circle cx="129.2" cy="138.6" r="6" fill="#58a6ff" opacity="0.2"/>
<circle cx="129.2" cy="138.6" r="4" fill="#58a6ff" stroke="#0d1117" stroke-width="2.5"/>
<circle cx="158.8" cy="177.0" r="6" fill="#58a6ff" opacity="0.2"/>
<circle cx="158.8" cy="177.0" r="4" fill="#58a6ff" stroke="#0d1117" stroke-width="2.5"/>
<circle cx="188.5" cy="363.4" r="6" fill="#58a6ff" opacity="0.2"/>
<circle cx="188.5" cy="363.4" r="4" fill="#58a6ff" stroke="#0d1117" stroke-width="2.5"/>
<circle cx="218.2" cy="137.8" r="6" fill="#58a6ff" opacity="0.2"/>
<circle cx="218.2" cy="137.8" r="4" fill="#58a6ff" stroke="#0d1117" stroke-width="2.5"/>
<circle cx="247.8" cy="137.9" r="6" fill="#58a6ff" opacity="0.2"/>
<circle cx="247.8" cy="137.9" r="4" fill="#58a6ff" stroke="#0d1117" stroke-width="2.5"/>
<circle cx="277.5" cy="137.9" r="6" fill="#58a6ff" opacity="0.2"/>
<circle cx="277.5" cy="137.9" r="4" fill="#58a6ff" stroke="#0d1117" stroke-width="2.5"/>
<circle cx="307.2" cy="197.7" r="6" fill="#58a6ff" opacity="0.2"/>
<circle cx="307.2" cy="197.7" r="4" fill="#58a6ff" stroke="#0d1117" stroke-width="2.5"/>
<circle cx="336.8" cy="384.4" r="6" fill="#58a6ff" opacity="0.2"/>
<circle cx="336.8" cy="384.4" r="4" fill="#58a6ff" stroke="#0d1117" stroke-width="2.5"/>
<circle cx="366.5" cy="149.3" r="6" fill="#58a6ff" opacity="0.2"/>
<circle cx="366.5" cy="149.3" r="4" fill="#58a6ff" stroke="#0d1117" stroke-width="2.5"/>
<circle cx="396.2" cy="149.3" r="6" fill="#58a6ff" opacity="0.2"/>
<circle cx="396.2" cy="149.3" r="4" fill="#58a6ff" stroke="#0d1117" stroke-width="2.5"/>
<circle cx="425.8" cy="149.3" r="6" fill="#58a6ff" opacity="0.2"/>
<circle cx="425.8" cy="149.3" r="4" fill="#58a6ff" stroke="#0d1117" stroke-width="2.5"/>
<circle cx="455.5" cy="214.8" r="6" fill="#58a6ff" opacity="0.2"/>
<circle cx="455.5" cy="214.8" r="4" fill="#58a6ff" stroke="#0d1117" stroke-width="2.5"/>
<circle cx="485.2" cy="390.2" r="6" fill="#58a6ff" opacity="0.2"/>
<circle cx="485.2" cy="390.2" r="4" fill="#58a6ff" stroke="#0d1117" stroke-width="2.5"/>
<circle cx="514.8" cy="150.1" r="6" fill="#58a6ff" opacity="0.2"/>
<circle cx="514.8" cy="150.1" r="4" fill="#58a6ff" stroke="#0d1117" stroke-width="2.5"/>
<circle cx="544.5" cy="150.1" r="6" fill="#58a6ff" opacity="0.2"/>
<circle cx="544.5" cy="150.1" r="4" fill="#58a6ff" stroke="#0d1117" stroke-width="2.5"/>
<circle cx="574.2" cy="150.1" r="6" fill="#58a6ff" opacity="0.2"/>
<circle cx="574.2" cy="150.1" r="4" fill="#58a6ff" stroke="#0d1117" stroke-width="2.5"/>
<circle cx="603.8" cy="250.9" r="6" fill="#58a6ff" opacity="0.2"/>
<circle cx="603.8" cy="250.9" r="4" fill="#58a6ff" stroke="#0d1117" stroke-width="2.5"/>
<circle cx="633.5" cy="425.5" r="6" fill="#58a6ff" opacity="0.2"/>
<circle cx="633.5" cy="425.5" r="4" fill="#58a6ff" stroke="#0d1117" stroke-width="2.5"/>
<circle cx="663.2" cy="154.3" r="6" fill="#58a6ff" opacity="0.2"/>
<circle cx="663.2" cy="154.3" r="4" fill="#58a6ff" stroke="#0d1117" stroke-width="2.5"/>
<circle cx="692.8" cy="154.3" r="6" fill="#58a6ff" opacity="0.2"/>
<circle cx="692.8" cy="154.3" r="4" fill="#58a6ff" stroke="#0d1117" stroke-width="2.5"/>
<circle cx="722.5" cy="154.3" r="6" fill="#58a6ff" opacity="0.2"/>
<circle cx="722.5" cy="154.3" r="4" fill="#58a6ff" stroke="#0d1117" stroke-width="2.5"/>
<circle cx="752.2" cy="227.0" r="6" fill="#58a6ff" opacity="0.2"/>
<circle cx="752.2" cy="227.0" r="4" fill="#58a6ff" stroke="#0d1117" stroke-width="2.5"/>
<circle cx="781.8" cy="397.4" r="6" fill="#58a6ff" opacity="0.2"/>
<circle cx="781.8" cy="397.4" r="4" fill="#58a6ff" stroke="#0d1117" stroke-width="2.5"/>
<circle cx="811.5" cy="137.1" r="6" fill="#58a6ff" opacity="0.2"/>
<circle cx="811.5" cy="137.1" r="4" fill="#58a6ff" stroke="#0d1117" stroke-width="2.5"/>
<circle cx="841.2" cy="137.4" r="6" fill="#58a6ff" opacity="0.2"/>
<circle cx="841.2" cy="137.4" r="4" fill="#58a6ff" stroke="#0d1117" stroke-width="2.5"/>
<circle cx="870.8" cy="137.3" r="6" fill="#58a6ff" opacity="0.2"/>
<circle cx="870.8" cy="137.3" r="4" fill="#58a6ff" stroke="#0d1117" stroke-width="2.5"/>
<circle cx="900.5" cy="180.3" r="6" fill="#58a6ff" opacity="0.2"/>
<circle cx="900.5" cy="180.3" r="4" fill="#58a6ff" stroke="#0d1117" stroke-width="2.5"/>
<circle cx="930.2" cy="367.5" r="6" fill="#58a6ff" opacity="0.2"/>
<circle cx="930.2" cy="367.5" r="4" fill="#58a6ff" stroke="#0d1117" stroke-width="2.5"/>
<path d="M69.8,120.5 L99.5,120.5 L129.2,120.6 L158.8,187.0 L188.5,391.2 L218.2,120.2 L247.8,120.2 L277.5,120.2 L307.2,184.7 L336.8,389.2 L366.5,128.5 L396.2,128.7 L425.8,128.7 L455.5,185.6 L485.2,381.6 L514.8,128.9 L544.5,128.8 L574.2,128.8 L603.8,199.0 L633.5,394.8 L663.2,154.1 L692.8,154.0 L722.5,154.1 L752.2,199.5 L781.8,370.1 L811.5,120.7 L841.2,120.6 L870.8,120.7 L900.5,175.1 L930.2,379.1" fill="none" stroke="#FF9800" stroke-width="8" stroke-linejoin="round" stroke-linecap="round" opacity="0.12"/>
<path d="M69.8,120.5 L99.5,120.5 L129.2,120.6 L158.8,187.0 L188.5,391.2 L218.2,120.2 L247.8,120.2 L277.5,120.2 L307.2,184.7 L336.8,389.2 L366.5,128.5 L396.2,128.7 L425.8,128.7 L455.5,185.6 L485.2,381.6 L514.8,128.9 L544.5,128.8 L574.2,128.8 L603.8,199.0 L633.5,394.8 L663.2,154.1 L692.8,154.0 L722.5,154.1 L752.2,199.5 L781.8,370.1 L811.5,120.7 L841.2,120.6 L870.8,120.7 L900.5,175.1 L930.2,379.1" fill="none" stroke="#FF9800" stroke-width="3.5" stroke-linejoin="round" stroke-linecap="round"/>
<circle cx="69.8" cy="120.5" r="6" fill="#FF9800" opacity="0.2"/>
<circle cx="69.8" cy="120.5" r="4" fill="#FF9800" stroke="#0d1117" stroke-width="2.5"/>
<circle cx="99.5" cy="120.5" r="6" fill="#FF9800" opacity="0.2"/>
<circle cx="99.5" cy="120.5" r="4" fill="#FF9800" stroke="#0d1117" stroke-width="2.5"/>
<circle cx="129.2" cy="120.6" r="6" fill="#FF9800" opacity="0.2"/>
<circle cx="129.2" cy="120.6" r="4" fill="#FF9800" stroke="#0d1117" stroke-width="2.5"/>
<circle cx="158.8" cy="187.0" r="6" fill="#FF9800" opacity="0.2"/>
<circle cx="158.8" cy="187.0" r="4" fill="#FF9800" stroke="#0d1117" stroke-width="2.5"/>
<circle cx="188.5" cy="391.2" r="6" fill="#FF9800" opacity="0.2"/>
<circle cx="188.5" cy="391.2" r="4" fill="#FF9800" stroke="#0d1117" stroke-width="2.5"/>
<circle cx="218.2" cy="120.2" r="6" fill="#FF9800" opacity="0.2"/>
<circle cx="218.2" cy="120.2" r="4" fill="#FF9800" stroke="#0d1117" stroke-width="2.5"/>
<circle cx="247.8" cy="120.2" r="6" fill="#FF9800" opacity="0.2"/>
<circle cx="247.8" cy="120.2" r="4" fill="#FF9800" stroke="#0d1117" stroke-width="2.5"/>
<circle cx="277.5" cy="120.2" r="6" fill="#FF9800" opacity="0.2"/>
<circle cx="277.5" cy="120.2" r="4" fill="#FF9800" stroke="#0d1117" stroke-width="2.5"/>
<circle cx="307.2" cy="184.7" r="6" fill="#FF9800" opacity="0.2"/>
<circle cx="307.2" cy="184.7" r="4" fill="#FF9800" stroke="#0d1117" stroke-width="2.5"/>
<circle cx="336.8" cy="389.2" r="6" fill="#FF9800" opacity="0.2"/>
<circle cx="336.8" cy="389.2" r="4" fill="#FF9800" stroke="#0d1117" stroke-width="2.5"/>
<circle cx="366.5" cy="128.5" r="6" fill="#FF9800" opacity="0.2"/>
<circle cx="366.5" cy="128.5" r="4" fill="#FF9800" stroke="#0d1117" stroke-width="2.5"/>
<circle cx="396.2" cy="128.7" r="6" fill="#FF9800" opacity="0.2"/>
<circle cx="396.2" cy="128.7" r="4" fill="#FF9800" stroke="#0d1117" stroke-width="2.5"/>
<circle cx="425.8" cy="128.7" r="6" fill="#FF9800" opacity="0.2"/>
<circle cx="425.8" cy="128.7" r="4" fill="#FF9800" stroke="#0d1117" stroke-width="2.5"/>
<circle cx="455.5" cy="185.6" r="6" fill="#FF9800" opacity="0.2"/>
<circle cx="455.5" cy="185.6" r="4" fill="#FF9800" stroke="#0d1117" stroke-width="2.5"/>
<circle cx="485.2" cy="381.6" r="6" fill="#FF9800" opacity="0.2"/>
<circle cx="485.2" cy="381.6" r="4" fill="#FF9800" stroke="#0d1117" stroke-width="2.5"/>
<circle cx="514.8" cy="128.9" r="6" fill="#FF9800" opacity="0.2"/>
<circle cx="514.8" cy="128.9" r="4" fill="#FF9800" stroke="#0d1117" stroke-width="2.5"/>
<circle cx="544.5" cy="128.8" r="6" fill="#FF9800" opacity="0.2"/>
<circle cx="544.5" cy="128.8" r="4" fill="#FF9800" stroke="#0d1117" stroke-width="2.5"/>
<circle cx="574.2" cy="128.8" r="6" fill="#FF9800" opacity="0.2"/>
<circle cx="574.2" cy="128.8" r="4" fill="#FF9800" stroke="#0d1117" stroke-width="2.5"/>
<circle cx="603.8" cy="199.0" r="6" fill="#FF9800" opacity="0.2"/>
<circle cx="603.8" cy="199.0" r="4" fill="#FF9800" stroke="#0d1117" stroke-width="2.5"/>
<circle cx="633.5" cy="394.8" r="6" fill="#FF9800" opacity="0.2"/>
<circle cx="633.5" cy="394.8" r="4" fill="#FF9800" stroke="#0d1117" stroke-width="2.5"/>
<circle cx="663.2" cy="154.1" r="6" fill="#FF9800" opacity="0.2"/>
<circle cx="663.2" cy="154.1" r="4" fill="#FF9800" stroke="#0d1117" stroke-width="2.5"/>
<circle cx="692.8" cy="154.0" r="6" fill="#FF9800" opacity="0.2"/>
<circle cx="692.8" cy="154.0" r="4" fill="#FF9800" stroke="#0d1117" stroke-width="2.5"/>
<circle cx="722.5" cy="154.1" r="6" fill="#FF9800" opacity="0.2"/>
<circle cx="722.5" cy="154.1" r="4" fill="#FF9800" stroke="#0d1117" stroke-width="2.5"/>
<circle cx="752.2" cy="199.5" r="6" fill="#FF9800" opacity="0.2"/>
<circle cx="752.2" cy="199.5" r="4" fill="#FF9800" stroke="#0d1117" stroke-width="2.5"/>
<circle cx="781.8" cy="370.1" r="6" fill="#FF9800" opacity="0.2"/>
<circle cx="781.8" cy="370.1" r="4" fill="#FF9800" stroke="#0d1117" stroke-width="2.5"/>
<circle cx="811.5" cy="120.7" r="6" fill="#FF9800" opacity="0.2"/>
<circle cx="811.5" cy="120.7" r="4" fill="#FF9800" stroke="#0d1117" stroke-width="2.5"/>
<circle cx="841.2" cy="120.6" r="6" fill="#FF9800" opacity="0.2"/>
<circle cx="841.2" cy="120.6" r="4" fill="#FF9800" stroke="#0d1117" stroke-width="2.5"/>
<circle cx="870.8" cy="120.7" r="6" fill="#FF9800" opacity="0.2"/>
<circle cx="870.8" cy="120.7" r="4" fill="#FF9800" stroke="#0d1117" stroke-width="2.5"/>
<circle cx="900.5" cy="175.1" r="6" fill="#FF9800" opacity="0.2"/>
<circle cx="900.5" cy="175.1" r="4" fill="#FF9800" stroke="#0d1117" stroke-width="2.5"/>
<circle cx="930.2" cy="379.1" r="6" fill="#FF9800" opacity="0.2"/>
<circle cx="930.2" cy="379.1" r="4" fill="#FF9800" stroke="#0d1117" stroke-width="2.5"/>
<path d="M69.8,122.4 L99.5,122.4 L129.2,122.4 L158.8,189.5 L188.5,391.8 L218.2,122.0 L247.8,122.1 L277.5,122.0 L307.2,183.0 L336.8,385.5 L366.5,130.6 L396.2,130.5 L425.8,130.4 L455.5,190.0 L485.2,384.2 L514.8,129.9 L544.5,129.1 L574.2,129.4 L603.8,161.1 L633.5,356.7 L663.2,154.2 L692.8,148.2 L722.5,154.2 L752.2,153.6 L781.8,330.1 L811.5,122.1 L841.2,122.1 L870.8,122.2 L900.5,191.8 L930.2,394.3" fill="none" stroke="#4CAF50" stroke-width="8" stroke-linejoin="round" stroke-linecap="round" opacity="0.12"/>
<path d="M69.8,122.4 L99.5,122.4 L129.2,122.4 L158.8,189.5 L188.5,391.8 L218.2,122.0 L247.8,122.1 L277.5,122.0 L307.2,183.0 L336.8,385.5 L366.5,130.6 L396.2,130.5 L425.8,130.4 L455.5,190.0 L485.2,384.2 L514.8,129.9 L544.5,129.1 L574.2,129.4 L603.8,161.1 L633.5,356.7 L663.2,154.2 L692.8,148.2 L722.5,154.2 L752.2,153.6 L781.8,330.1 L811.5,122.1 L841.2,122.1 L870.8,122.2 L900.5,191.8 L930.2,394.3" fill="none" stroke="#4CAF50" stroke-width="3.5" stroke-linejoin="round" stroke-linecap="round"/>
<circle cx="69.8" cy="122.4" r="6" fill="#4CAF50" opacity="0.2"/>
<circle cx="69.8" cy="122.4" r="4" fill="#4CAF50" stroke="#0d1117" stroke-width="2.5"/>
<circle cx="99.5" cy="122.4" r="6" fill="#4CAF50" opacity="0.2"/>
<circle cx="99.5" cy="122.4" r="4" fill="#4CAF50" stroke="#0d1117" stroke-width="2.5"/>
<circle cx="129.2" cy="122.4" r="6" fill="#4CAF50" opacity="0.2"/>
<circle cx="129.2" cy="122.4" r="4" fill="#4CAF50" stroke="#0d1117" stroke-width="2.5"/>
<circle cx="158.8" cy="189.5" r="6" fill="#4CAF50" opacity="0.2"/>
<circle cx="158.8" cy="189.5" r="4" fill="#4CAF50" stroke="#0d1117" stroke-width="2.5"/>
<circle cx="188.5" cy="391.8" r="6" fill="#4CAF50" opacity="0.2"/>
<circle cx="188.5" cy="391.8" r="4" fill="#4CAF50" stroke="#0d1117" stroke-width="2.5"/>
<circle cx="218.2" cy="122.0" r="6" fill="#4CAF50" opacity="0.2"/>
<circle cx="218.2" cy="122.0" r="4" fill="#4CAF50" stroke="#0d1117" stroke-width="2.5"/>
<circle cx="247.8" cy="122.1" r="6" fill="#4CAF50" opacity="0.2"/>
<circle cx="247.8" cy="122.1" r="4" fill="#4CAF50" stroke="#0d1117" stroke-width="2.5"/>
<circle cx="277.5" cy="122.0" r="6" fill="#4CAF50" opacity="0.2"/>
<circle cx="277.5" cy="122.0" r="4" fill="#4CAF50" stroke="#0d1117" stroke-width="2.5"/>
<circle cx="307.2" cy="183.0" r="6" fill="#4CAF50" opacity="0.2"/>
<circle cx="307.2" cy="183.0" r="4" fill="#4CAF50" stroke="#0d1117" stroke-width="2.5"/>
<circle cx="336.8" cy="385.5" r="6" fill="#4CAF50" opacity="0.2"/>
<circle cx="336.8" cy="385.5" r="4" fill="#4CAF50" stroke="#0d1117" stroke-width="2.5"/>
<circle cx="366.5" cy="130.6" r="6" fill="#4CAF50" opacity="0.2"/>
<circle cx="366.5" cy="130.6" r="4" fill="#4CAF50" stroke="#0d1117" stroke-width="2.5"/>
<circle cx="396.2" cy="130.5" r="6" fill="#4CAF50" opacity="0.2"/>
<circle cx="396.2" cy="130.5" r="4" fill="#4CAF50" stroke="#0d1117" stroke-width="2.5"/>
<circle cx="425.8" cy="130.4" r="6" fill="#4CAF50" opacity="0.2"/>
<circle cx="425.8" cy="130.4" r="4" fill="#4CAF50" stroke="#0d1117" stroke-width="2.5"/>
<circle cx="455.5" cy="190.0" r="6" fill="#4CAF50" opacity="0.2"/>
<circle cx="455.5" cy="190.0" r="4" fill="#4CAF50" stroke="#0d1117" stroke-width="2.5"/>
<circle cx="485.2" cy="384.2" r="6" fill="#4CAF50" opacity="0.2"/>
<circle cx="485.2" cy="384.2" r="4" fill="#4CAF50" stroke="#0d1117" stroke-width="2.5"/>
<circle cx="514.8" cy="129.9" r="6" fill="#4CAF50" opacity="0.2"/>
<circle cx="514.8" cy="129.9" r="4" fill="#4CAF50" stroke="#0d1117" stroke-width="2.5"/>
<circle cx="544.5" cy="129.1" r="6" fill="#4CAF50" opacity="0.2"/>
<circle cx="544.5" cy="129.1" r="4" fill="#4CAF50" stroke="#0d1117" stroke-width="2.5"/>
<circle cx="574.2" cy="129.4" r="6" fill="#4CAF50" opacity="0.2"/>
<circle cx="574.2" cy="129.4" r="4" fill="#4CAF50" stroke="#0d1117" stroke-width="2.5"/>
<circle cx="603.8" cy="161.1" r="6" fill="#4CAF50" opacity="0.2"/>
<circle cx="603.8" cy="161.1" r="4" fill="#4CAF50" stroke="#0d1117" stroke-width="2.5"/>
<circle cx="633.5" cy="356.7" r="6" fill="#4CAF50" opacity="0.2"/>
<circle cx="633.5" cy="356.7" r="4" fill="#4CAF50" stroke="#0d1117" stroke-width="2.5"/>
<circle cx="663.2" cy="154.2" r="6" fill="#4CAF50" opacity="0.2"/>
<circle cx="663.2" cy="154.2" r="4" fill="#4CAF50" stroke="#0d1117" stroke-width="2.5"/>
<circle cx="692.8" cy="148.2" r="6" fill="#4CAF50" opacity="0.2"/>
<circle cx="692.8" cy="148.2" r="4" fill="#4CAF50" stroke="#0d1117" stroke-width="2.5"/>
<circle cx="722.5" cy="154.2" r="6" fill="#4CAF50" opacity="0.2"/>
<circle cx="722.5" cy="154.2" r="4" fill="#4CAF50" stroke="#0d1117" stroke-width="2.5"/>
<circle cx="752.2" cy="153.6" r="6" fill="#4CAF50" opacity="0.2"/>
<circle cx="752.2" cy="153.6" r="4" fill="#4CAF50" stroke="#0d1117" stroke-width="2.5"/>
<circle cx="781.8" cy="330.1" r="6" fill="#4CAF50" opacity="0.2"/>
<circle cx="781.8" cy="330.1" r="4" fill="#4CAF50" stroke="#0d1117" stroke-width="2.5"/>
<circle cx="811.5" cy="122.1" r="6" fill="#4CAF50" opacity="0.2"/>
<circle cx="811.5" cy="122.1" r="4" fill="#4CAF50" stroke="#0d1117" stroke-width="2.5"/>
<circle cx="841.2" cy="122.1" r="6" fill="#4CAF50" opacity="0.2"/>
<circle cx="841.2" cy="122.1" r="4" fill="#4CAF50" stroke="#0d1117" stroke-width="2.5"/>
<circle cx="870.8" cy="122.2" r="6" fill="#4CAF50" opacity="0.2"/>
<circle cx="870.8" cy="122.2" r="4" fill="#4CAF50" stroke="#0d1117" stroke-width="2.5"/>
<circle cx="900.5" cy="191.8" r="6" fill="#4CAF50" opacity="0.2"/>
<circle cx="900.5" cy="191.8" r="4" fill="#4CAF50" stroke="#0d1117" stroke-width="2.5"/>
<circle cx="930.2" cy="394.3" r="6" fill="#4CAF50" opacity="0.2"/>
<circle cx="930.2" cy="394.3" r="4" fill="#4CAF50" stroke="#0d1117" stroke-width="2.5"/>
<path d="M69.8,122.3 L99.5,122.4 L129.2,122.4 L158.8,190.3 L188.5,392.6 L218.2,121.6 L247.8,121.7 L277.5,121.7 L307.2,174.2 L336.8,377.1 L366.5,130.5 L396.2,130.4 L425.8,130.4 L455.5,188.0 L485.2,382.3 L514.8,130.4 L544.5,130.4 L574.2,130.4 L603.8,193.1 L633.5,387.4 L663.2,153.3 L692.8,153.0 L722.5,153.3 L752.2,193.6 L781.8,365.3 L811.5,122.1 L841.2,122.2 L870.8,122.2 L900.5,197.7 L930.2,400.2" fill="none" stroke="#BB86FC" stroke-width="8" stroke-linejoin="round" stroke-linecap="round" opacity="0.12"/>
<path d="M69.8,122.3 L99.5,122.4 L129.2,122.4 L158.8,190.3 L188.5,392.6 L218.2,121.6 L247.8,121.7 L277.5,121.7 L307.2,174.2 L336.8,377.1 L366.5,130.5 L396.2,130.4 L425.8,130.4 L455.5,188.0 L485.2,382.3 L514.8,130.4 L544.5,130.4 L574.2,130.4 L603.8,193.1 L633.5,387.4 L663.2,153.3 L692.8,153.0 L722.5,153.3 L752.2,193.6 L781.8,365.3 L811.5,122.1 L841.2,122.2 L870.8,122.2 L900.5,197.7 L930.2,400.2" fill="none" stroke="#BB86FC" stroke-width="3.5" stroke-linejoin="round" stroke-linecap="round"/>
<circle cx="69.8" cy="122.3" r="6" fill="#BB86FC" opacity="0.2"/>
<circle cx="69.8" cy="122.3" r="4" fill="#BB86FC" stroke="#0d1117" stroke-width="2.5"/>
<circle cx="99.5" cy="122.4" r="6" fill="#BB86FC" opacity="0.2"/>
<circle cx="99.5" cy="122.4" r="4" fill="#BB86FC" stroke="#0d1117" stroke-width="2.5"/>
<circle cx="129.2" cy="122.4" r="6" fill="#BB86FC" opacity="0.2"/>
<circle cx="129.2" cy="122.4" r="4" fill="#BB86FC" stroke="#0d1117" stroke-width="2.5"/>
<circle cx="158.8" cy="190.3" r="6" fill="#BB86FC" opacity="0.2"/>
<circle cx="158.8" cy="190.3" r="4" fill="#BB86FC" stroke="#0d1117" stroke-width="2.5"/>
<circle cx="188.5" cy="392.6" r="6" fill="#BB86FC" opacity="0.2"/>
<circle cx="188.5" cy="392.6" r="4" fill="#BB86FC" stroke="#0d1117" stroke-width="2.5"/>
<circle cx="218.2" cy="121.6" r="6" fill="#BB86FC" opacity="0.2"/>
<circle cx="218.2" cy="121.6" r="4" fill="#BB86FC" stroke="#0d1117" stroke-width="2.5"/>
<circle cx="247.8" cy="121.7" r="6" fill="#BB86FC" opacity="0.2"/>
<circle cx="247.8" cy="121.7" r="4" fill="#BB86FC" stroke="#0d1117" stroke-width="2.5"/>
<circle cx="277.5" cy="121.7" r="6" fill="#BB86FC" opacity="0.2"/>
<circle cx="277.5" cy="121.7" r="4" fill="#BB86FC" stroke="#0d1117" stroke-width="2.5"/>
<circle cx="307.2" cy="174.2" r="6" fill="#BB86FC" opacity="0.2"/>
<circle cx="307.2" cy="174.2" r="4" fill="#BB86FC" stroke="#0d1117" stroke-width="2.5"/>
<circle cx="336.8" cy="377.1" r="6" fill="#BB86FC" opacity="0.2"/>
<circle cx="336.8" cy="377.1" r="4" fill="#BB86FC" stroke="#0d1117" stroke-width="2.5"/>
<circle cx="366.5" cy="130.5" r="6" fill="#BB86FC" opacity="0.2"/>
<circle cx="366.5" cy="130.5" r="4" fill="#BB86FC" stroke="#0d1117" stroke-width="2.5"/>
<circle cx="396.2" cy="130.4" r="6" fill="#BB86FC" opacity="0.2"/>
<circle cx="396.2" cy="130.4" r="4" fill="#BB86FC" stroke="#0d1117" stroke-width="2.5"/>
<circle cx="425.8" cy="130.4" r="6" fill="#BB86FC" opacity="0.2"/>
<circle cx="425.8" cy="130.4" r="4" fill="#BB86FC" stroke="#0d1117" stroke-width="2.5"/>
<circle cx="455.5" cy="188.0" r="6" fill="#BB86FC" opacity="0.2"/>
<circle cx="455.5" cy="188.0" r="4" fill="#BB86FC" stroke="#0d1117" stroke-width="2.5"/>
<circle cx="485.2" cy="382.3" r="6" fill="#BB86FC" opacity="0.2"/>
<circle cx="485.2" cy="382.3" r="4" fill="#BB86FC" stroke="#0d1117" stroke-width="2.5"/>
<circle cx="514.8" cy="130.4" r="6" fill="#BB86FC" opacity="0.2"/>
<circle cx="514.8" cy="130.4" r="4" fill="#BB86FC" stroke="#0d1117" stroke-width="2.5"/>
<circle cx="544.5" cy="130.4" r="6" fill="#BB86FC" opacity="0.2"/>
<circle cx="544.5" cy="130.4" r="4" fill="#BB86FC" stroke="#0d1117" stroke-width="2.5"/>
<circle cx="574.2" cy="130.4" r="6" fill="#BB86FC" opacity="0.2"/>
<circle cx="574.2" cy="130.4" r="4" fill="#BB86FC" stroke="#0d1117" stroke-width="2.5"/>
<circle cx="603.8" cy="193.1" r="6" fill="#BB86FC" opacity="0.2"/>
<circle cx="603.8" cy="193.1" r="4" fill="#BB86FC" stroke="#0d1117" stroke-width="2.5"/>
<circle cx="633.5" cy="387.4" r="6" fill="#BB86FC" opacity="0.2"/>
<circle cx="633.5" cy="387.4" r="4" fill="#BB86FC" stroke="#0d1117" stroke-width="2.5"/>
<circle cx="663.2" cy="153.3" r="6" fill="#BB86FC" opacity="0.2"/>
<circle cx="663.2" cy="153.3" r="4" fill="#BB86FC" stroke="#0d1117" stroke-width="2.5"/>
<circle cx="692.8" cy="153.0" r="6" fill="#BB86FC" opacity="0.2"/>
<circle cx="692.8" cy="153.0" r="4" fill="#BB86FC" stroke="#0d1117" stroke-width="2.5"/>
<circle cx="722.5" cy="153.3" r="6" fill="#BB86FC" opacity="0.2"/>
<circle cx="722.5" cy="153.3" r="4" fill="#BB86FC" stroke="#0d1117" stroke-width="2.5"/>
<circle cx="752.2" cy="193.6" r="6" fill="#BB86FC" opacity="0.2"/>
<circle cx="752.2" cy="193.6" r="4" fill="#BB86FC" stroke="#0d1117" stroke-width="2.5"/>
<circle cx="781.8" cy="365.3" r="6" fill="#BB86FC" opacity="0.2"/>
<circle cx="781.8" cy="365.3" r="4" fill="#BB86FC" stroke="#0d1117" stroke-width="2.5"/>
<circle cx="811.5" cy="122.1" r="6" fill="#BB86FC" opacity="0.2"/>
<circle cx="811.5" cy="122.1" r="4" fill="#BB86FC" stroke="#0d1117" stroke-width="2.5"/>
<circle cx="841.2" cy="122.2" r="6" fill="#BB86FC" opacity="0.2"/>
<circle cx="841.2" cy="122.2" r="4" fill="#BB86FC" stroke="#0d1117" stroke-width="2.5"/>
<circle cx="870.8" cy="122.2" r="6" fill="#BB86FC" opacity="0.2"/>
<circle cx="870.8" cy="122.2" r="4" fill="#BB86FC" stroke="#0d1117" stroke-width="2.5"/>
<circle cx="900.5" cy="197.7" r="6" fill="#BB86FC" opacity="0.2"/>
<circle cx="900.5" cy="197.7" r="4" fill="#BB86FC" stroke="#0d1117" stroke-width="2.5"/>
<circle cx="930.2" cy="400.2" r="6" fill="#BB86FC" opacity="0.2"/>
<circle cx="930.2" cy="400.2" r="4" fill="#BB86FC" stroke="#0d1117" stroke-width="2.5"/>
<path d="M69.8,121.6 L99.5,121.7 L129.2,121.7 L158.8,186.1 L188.5,389.1 L218.2,121.2 L247.8,121.4 L277.5,121.4 L307.2,176.6 L336.8,379.9 L366.5,130.1 L396.2,130.0 L425.8,129.9 L455.5,187.4 L485.2,382.0 L514.8,130.2 L544.5,130.2 L574.2,130.2 L603.8,200.6 L633.5,395.1 L663.2,154.3 L692.8,152.2 L722.5,154.3 L752.2,169.0 L781.8,341.5 L811.5,121.9 L841.2,121.9 L870.8,121.9 L900.5,198.6 L930.2,401.4" fill="none" stroke="#F472B6" stroke-width="8" stroke-linejoin="round" stroke-linecap="round" opacity="0.12"/>
<path d="M69.8,121.6 L99.5,121.7 L129.2,121.7 L158.8,186.1 L188.5,389.1 L218.2,121.2 L247.8,121.4 L277.5,121.4 L307.2,176.6 L336.8,379.9 L366.5,130.1 L396.2,130.0 L425.8,129.9 L455.5,187.4 L485.2,382.0 L514.8,130.2 L544.5,130.2 L574.2,130.2 L603.8,200.6 L633.5,395.1 L663.2,154.3 L692.8,152.2 L722.5,154.3 L752.2,169.0 L781.8,341.5 L811.5,121.9 L841.2,121.9 L870.8,121.9 L900.5,198.6 L930.2,401.4" fill="none" stroke="#F472B6" stroke-width="3.5" stroke-linejoin="round" stroke-linecap="round"/>
<circle cx="69.8" cy="121.6" r="6" fill="#F472B6" opacity="0.2"/>
<circle cx="69.8" cy="121.6" r="4" fill="#F472B6" stroke="#0d1117" stroke-width="2.5"/>
<circle cx="99.5" cy="121.7" r="6" fill="#F472B6" opacity="0.2"/>
<circle cx="99.5" cy="121.7" r="4" fill="#F472B6" stroke="#0d1117" stroke-width="2.5"/>
<circle cx="129.2" cy="121.7" r="6" fill="#F472B6" opacity="0.2"/>
<circle cx="129.2" cy="121.7" r="4" fill="#F472B6" stroke="#0d1117" stroke-width="2.5"/>
<circle cx="158.8" cy="186.1" r="6" fill="#F472B6" opacity="0.2"/>
<circle cx="158.8" cy="186.1" r="4" fill="#F472B6" stroke="#0d1117" stroke-width="2.5"/>
<circle cx="188.5" cy="389.1" r="6" fill="#F472B6" opacity="0.2"/>
<circle cx="188.5" cy="389.1" r="4" fill="#F472B6" stroke="#0d1117" stroke-width="2.5"/>
<circle cx="218.2" cy="121.2" r="6" fill="#F472B6" opacity="0.2"/>
<circle cx="218.2" cy="121.2" r="4" fill="#F472B6" stroke="#0d1117" stroke-width="2.5"/>
<circle cx="247.8" cy="121.4" r="6" fill="#F472B6" opacity="0.2"/>
<circle cx="247.8" cy="121.4" r="4" fill="#F472B6" stroke="#0d1117" stroke-width="2.5"/>
<circle cx="277.5" cy="121.4" r="6" fill="#F472B6" opacity="0.2"/>
<circle cx="277.5" cy="121.4" r="4" fill="#F472B6" stroke="#0d1117" stroke-width="2.5"/>
<circle cx="307.2" cy="176.6" r="6" fill="#F472B6" opacity="0.2"/>
<circle cx="307.2" cy="176.6" r="4" fill="#F472B6" stroke="#0d1117" stroke-width="2.5"/>
<circle cx="336.8" cy="379.9" r="6" fill="#F472B6" opacity="0.2"/>
<circle cx="336.8" cy="379.9" r="4" fill="#F472B6" stroke="#0d1117" stroke-width="2.5"/>
<circle cx="366.5" cy="130.1" r="6" fill="#F472B6" opacity="0.2"/>
<circle cx="366.5" cy="130.1" r="4" fill="#F472B6" stroke="#0d1117" stroke-width="2.5"/>
<circle cx="396.2" cy="130.0" r="6" fill="#F472B6" opacity="0.2"/>
<circle cx="396.2" cy="130.0" r="4" fill="#F472B6" stroke="#0d1117" stroke-width="2.5"/>
<circle cx="425.8" cy="129.9" r="6" fill="#F472B6" opacity="0.2"/>
<circle cx="425.8" cy="129.9" r="4" fill="#F472B6" stroke="#0d1117" stroke-width="2.5"/>
<circle cx="455.5" cy="187.4" r="6" fill="#F472B6" opacity="0.2"/>
<circle cx="455.5" cy="187.4" r="4" fill="#F472B6" stroke="#0d1117" stroke-width="2.5"/>
<circle cx="485.2" cy="382.0" r="6" fill="#F472B6" opacity="0.2"/>
<circle cx="485.2" cy="382.0" r="4" fill="#F472B6" stroke="#0d1117" stroke-width="2.5"/>
<circle cx="514.8" cy="130.2" r="6" fill="#F472B6" opacity="0.2"/>
<circle cx="514.8" cy="130.2" r="4" fill="#F472B6" stroke="#0d1117" stroke-width="2.5"/>
<circle cx="544.5" cy="130.2" r="6" fill="#F472B6" opacity="0.2"/>
<circle cx="544.5" cy="130.2" r="4" fill="#F472B6" stroke="#0d1117" stroke-width="2.5"/>
<circle cx="574.2" cy="130.2" r="6" fill="#F472B6" opacity="0.2"/>
<circle cx="574.2" cy="130.2" r="4" fill="#F472B6" stroke="#0d1117" stroke-width="2.5"/>
<circle cx="603.8" cy="200.6" r="6" fill="#F472B6" opacity="0.2"/>
<circle cx="603.8" cy="200.6" r="4" fill="#F472B6" stroke="#0d1117" stroke-width="2.5"/>
<circle cx="633.5" cy="395.1" r="6" fill="#F472B6" opacity="0.2"/>
<circle cx="633.5" cy="395.1" r="4" fill="#F472B6" stroke="#0d1117" stroke-width="2.5"/>
<circle cx="663.2" cy="154.3" r="6" fill="#F472B6" opacity="0.2"/>
<circle cx="663.2" cy="154.3" r="4" fill="#F472B6" stroke="#0d1117" stroke-width="2.5"/>
<circle cx="692.8" cy="152.2" r="6" fill="#F472B6" opacity="0.2"/>
<circle cx="692.8" cy="152.2" r="4" fill="#F472B6" stroke="#0d1117" stroke-width="2.5"/>
<circle cx="722.5" cy="154.3" r="6" fill="#F472B6" opacity="0.2"/>
<circle cx="722.5" cy="154.3" r="4" fill="#F472B6" stroke="#0d1117" stroke-width="2.5"/>
<circle cx="752.2" cy="169.0" r="6" fill="#F472B6" opacity="0.2"/>
<circle cx="752.2" cy="169.0" r="4" fill="#F472B6" stroke="#0d1117" stroke-width="2.5"/>
<circle cx="781.8" cy="341.5" r="6" fill="#F472B6" opacity="0.2"/>
<circle cx="781.8" cy="341.5" r="4" fill="#F472B6" stroke="#0d1117" stroke-width="2.5"/>
<circle cx="811.5" cy="121.9" r="6" fill="#F472B6" opacity="0.2"/>
<circle cx="811.5" cy="121.9" r="4" fill="#F472B6" stroke="#0d1117" stroke-width="2.5"/>
<circle cx="841.2" cy="121.9" r="6" fill="#F472B6" opacity="0.2"/>
<circle cx="841.2" cy="121.9" r="4" fill="#F472B6" stroke="#0d1117" stroke-width="2.5"/>
<circle cx="870.8" cy="121.9" r="6" fill="#F472B6" opacity="0.2"/>
<circle cx="870.8" cy="121.9" r="4" fill="#F472B6" stroke="#0d1117" stroke-width="2.5"/>
<circle cx="900.5" cy="198.6" r="6" fill="#F472B6" opacity="0.2"/>
<circle cx="900.5" cy="198.6" r="4" fill="#F472B6" stroke="#0d1117" stroke-width="2.5"/>
<circle cx="930.2" cy="401.4" r="6" fill="#F472B6" opacity="0.2"/>
<circle cx="930.2" cy="401.4" r="4" fill="#F472B6" stroke="#0d1117" stroke-width="2.5"/>
<text x="69.8" y="448" text-anchor="end" fill="#8b949e" font-size="11" transform="rotate(-30,69.8,448)">push_back</text>
<text x="99.5" y="448" text-anchor="end" fill="#8b949e" font-size="11" transform="rotate(-30,99.5,448)">push_back_mean</text>
<text x="129.2" y="448" text-anchor="end" fill="#8b949e" font-size="11" transform="rotate(-30,129.2,448)">push_back_median</text>
<text x="158.8" y="448" text-anchor="end" fill="#8b949e" font-size="11" transform="rotate(-30,158.8,448)">push_back_stddev</text>
<text x="188.5" y="448" text-anchor="end" fill="#8b949e" font-size="11" transform="rotate(-30,188.5,448)">push_back_cv</text>
<text x="218.2" y="448" text-anchor="end" fill="#8b949e" font-size="11" transform="rotate(-30,218.2,448)">push_front</text>
<text x="247.8" y="448" text-anchor="end" fill="#8b949e" font-size="11" transform="rotate(-30,247.8,448)">push_front_mean</text>
<text x="277.5" y="448" text-anchor="end" fill="#8b949e" font-size="11" transform="rotate(-30,277.5,448)">push_front_median</text>
<text x="307.2" y="448" text-anchor="end" fill="#8b949e" font-size="11" transform="rotate(-30,307.2,448)">push_front_stddev</text>
<text x="336.8" y="448" text-anchor="end" fill="#8b949e" font-size="11" transform="rotate(-30,336.8,448)">push_front_cv</text>
<text x="366.5" y="448" text-anchor="end" fill="#8b949e" font-size="11" transform="rotate(-30,366.5,448)">insert_middle</text>
<text x="396.2" y="448" text-anchor="end" fill="#8b949e" font-size="11" transform="rotate(-30,396.2,448)">insert_middle_mean</text>
<text x="425.8" y="448" text-anchor="end" fill="#8b949e" font-size="11" transform="rotate(-30,425.8,448)">insert_middle_median</text>
<text x="455.5" y="448" text-anchor="end" fill="#8b949e" font-size="11" transform="rotate(-30,455.5,448)">insert_middle_stddev</text>
<text x="485.2" y="448" text-anchor="end" fill="#8b949e" font-size="11" transform="rotate(-30,485.2,448)">insert_middle_cv</text>
<text x="514.8" y="448" text-anchor="end" fill="#8b949e" font-size="11" transform="rotate(-30,514.8,448)">erase_middle</text>
<text x="544.5" y="448" text-anchor="end" fill="#8b949e" font-size="11" transform="rotate(-30,544.5,448)">erase_middle_mean</text>
<text x="574.2" y="448" text-anchor="end" fill="#8b949e" font-size="11" transform="rotate(-30,574.2,448)">erase_middle_median</text>
<text x="603.8" y="448" text-anchor="end" fill="#8b949e" font-size="11" transform="rotate(-30,603.8,448)">erase_middle_stddev</text>
<text x="633.5" y="448" text-anchor="end" fill="#8b949e" font-size="11" transform="rotate(-30,633.5,448)">erase_middle_cv</text>
<text x="663.2" y="448" text-anchor="end" fill="#8b949e" font-size="11" transform="rotate(-30,663.2,448)">iterate</text>
<text x="692.8" y="448" text-anchor="end" fill="#8b949e" font-size="11" transform="rotate(-30,692.8,448)">iterate_mean</text>
<text x="722.5" y="448" text-anchor="end" fill="#8b949e" font-size="11" transform="rotate(-30,722.5,448)">iterate_median</text>
<text x="752.2" y="448" text-anchor="end" fill="#8b949e" font-size="11" transform="rotate(-30,752.2,448)">iterate_stddev</text>
<text x="781.8" y="448" text-anchor="end" fill="#8b949e" font-size="11" transform="rotate(-30,781.8,448)">iterate_cv</text>
<text x="811.5" y="448" text-anchor="end" fill="#8b949e" font-size="11" transform="rotate(-30,811.5,448)">clear</text>
<text x="841.2" y="448" text-anchor="end" fill="#8b949e" font-size="11" transform="rotate(-30,841.2,448)">clear_mean</text>
<text x="870.8" y="448" text-anchor="end" fill="#8b949e" font-size="11" transform="rotate(-30,870.8,448)">clear_median</text>
<text x="900.5" y="448" text-anchor="end" fill="#8b949e" font-size="11" transform="rotate(-30,900.5,448)">clear_stddev</text>
<text x="930.2" y="448" text-anchor="end" fill="#8b949e" font-size="11" transform="rotate(-30,930.2,448)">clear_cv</text>
<text x="14" y="272.5" text-anchor="middle" fill="#484f58" font-size="11" transform="rotate(-90,14,272.5)">Time (ms)</text>
<circle cx="65" cy="69" r="5" fill="#58a6ff"/>
<text x="75" y="73" fill="#c9d1d9" font-size="12">RG::LIST</text>
<circle cx="220" cy="69" r="5" fill="#FF9800"/>
<text x="230" y="73" fill="#c9d1d9" font-size="12">std::list</text>
<circle cx="375" cy="69" r="5" fill="#4CAF50"/>
<text x="385" y="73" fill="#c9d1d9" font-size="12">std::forward_list</text>
<circle cx="530" cy="69" r="5" fill="#BB86FC"/>
<text x="540" y="73" fill="#c9d1d9" font-size="12">boost::list</text>
<circle cx="685" cy="69" r="5" fill="#F472B6"/>
<text x="695" y="73" fill="#c9d1d9" font-size="12">eastl::list</text>
<text x="480.0" y="20" text-anchor="middle" fill="#58a6ff" font-size="15" font-weight="700">RG::LIST Benchmark — 2026-04-15</text>
</svg>