<svg xmlns="http://www.w3.org/2000/svg" viewBox="0 0 960 500" font-family="-apple-system,BlinkMacSystemFont,Segoe UI,sans-serif">
<rect width="960" height="500" rx="10" fill="#0d1117"/>
<rect x="55" y="115" width="890" height="315" fill="#161b22" rx="4"/>
<line x1="55" y1="427.4" x2="945" y2="427.4" stroke="#21262d"/>
<text x="47" y="431.4016486012541" text-anchor="end" fill="#484f58" font-size="10">0µs</text>
<line x1="55" y1="418.4" x2="945" y2="418.4" stroke="#21262d"/>
<text x="47" y="422.36942325259713" text-anchor="end" fill="#484f58" font-size="10">0µs</text>
<line x1="55" y1="409.3" x2="945" y2="409.3" stroke="#21262d"/>
<text x="47" y="413.3371979039401" text-anchor="end" fill="#484f58" font-size="10">0µs</text>
<line x1="55" y1="397.4" x2="945" y2="397.4" stroke="#21262d"/>
<text x="47" y="401.3972454561966" text-anchor="end" fill="#484f58" font-size="10">0µs</text>
<line x1="55" y1="388.4" x2="945" y2="388.4" stroke="#21262d"/>
<text x="47" y="392.3650201075396" text-anchor="end" fill="#484f58" font-size="10">0µs</text>
<line x1="55" y1="379.3" x2="945" y2="379.3" stroke="#21262d"/>
<text x="47" y="383.3327947588826" text-anchor="end" fill="#484f58" font-size="10">0µs</text>
<line x1="55" y1="367.4" x2="945" y2="367.4" stroke="#21262d"/>
<text x="47" y="371.39284231113913" text-anchor="end" fill="#484f58" font-size="10">0µs</text>
<line x1="55" y1="358.4" x2="945" y2="358.4" stroke="#21262d"/>
<text x="47" y="362.3606169624821" text-anchor="end" fill="#484f58" font-size="10">0µs</text>
<line x1="55" y1="349.3" x2="945" y2="349.3" stroke="#21262d"/>
<text x="47" y="353.32839161382503" text-anchor="end" fill="#484f58" font-size="10">0µs</text>
<line x1="55" y1="337.4" x2="945" y2="337.4" stroke="#21262d"/>
<text x="47" y="341.3884391660816" text-anchor="end" fill="#484f58" font-size="10">0µs</text>
<line x1="55" y1="328.4" x2="945" y2="328.4" stroke="#21262d"/>
<text x="47" y="332.35621381742453" text-anchor="end" fill="#484f58" font-size="10">0µs</text>
<line x1="55" y1="319.3" x2="945" y2="319.3" stroke="#21262d"/>
<text x="47" y="323.32398846876754" text-anchor="end" fill="#484f58" font-size="10">0µs</text>
<line x1="55" y1="307.4" x2="945" y2="307.4" stroke="#21262d"/>
<text x="47" y="311.38403602102403" text-anchor="end" fill="#484f58" font-size="10">0µs</text>
<line x1="55" y1="298.4" x2="945" y2="298.4" stroke="#21262d"/>
<text x="47" y="302.35181067236704" text-anchor="end" fill="#484f58" font-size="10">0µs</text>
<line x1="55" y1="289.3" x2="945" y2="289.3" stroke="#21262d"/>
<text x="47" y="293.31958532371004" text-anchor="end" fill="#484f58" font-size="10">0µs</text>
<line x1="55" y1="277.4" x2="945" y2="277.4" stroke="#21262d"/>
<text x="47" y="281.37963287596654" text-anchor="end" fill="#484f58" font-size="10">0µs</text>
<line x1="55" y1="268.3" x2="945" y2="268.3" stroke="#21262d"/>
<text x="47" y="272.34740752730954" text-anchor="end" fill="#484f58" font-size="10">0µs</text>
<line x1="55" y1="259.3" x2="945" y2="259.3" stroke="#21262d"/>
<text x="47" y="263.31518217865255" text-anchor="end" fill="#484f58" font-size="10">0µs</text>
<line x1="55" y1="247.4" x2="945" y2="247.4" stroke="#21262d"/>
<text x="47" y="251.375229730909" text-anchor="end" fill="#484f58" font-size="10">0µs</text>
<line x1="55" y1="238.3" x2="945" y2="238.3" stroke="#21262d"/>
<text x="47" y="242.34300438225202" text-anchor="end" fill="#484f58" font-size="10">1µs</text>
<line x1="55" y1="229.3" x2="945" y2="229.3" stroke="#21262d"/>
<text x="47" y="233.310779033595" text-anchor="end" fill="#484f58" font-size="10">2µs</text>
<line x1="55" y1="217.4" x2="945" y2="217.4" stroke="#21262d"/>
<text x="47" y="221.3708265858515" text-anchor="end" fill="#484f58" font-size="10">5µs</text>
<line x1="55" y1="208.3" x2="945" y2="208.3" stroke="#21262d"/>
<text x="47" y="212.3386012371945" text-anchor="end" fill="#484f58" font-size="10">10µs</text>
<line x1="55" y1="199.3" x2="945" y2="199.3" stroke="#21262d"/>
<text x="47" y="203.30637588853747" text-anchor="end" fill="#484f58" font-size="10">20µs</text>
<line x1="55" y1="187.4" x2="945" y2="187.4" stroke="#21262d"/>
<text x="47" y="191.36642344079397" text-anchor="end" fill="#484f58" font-size="10">50µs</text>
<line x1="55" y1="178.3" x2="945" y2="178.3" stroke="#21262d"/>
<text x="47" y="182.33419809213694" text-anchor="end" fill="#484f58" font-size="10">100µs</text>
<line x1="55" y1="169.3" x2="945" y2="169.3" stroke="#21262d"/>
<text x="47" y="173.30197274347998" text-anchor="end" fill="#484f58" font-size="10">200µs</text>
<line x1="55" y1="157.4" x2="945" y2="157.4" stroke="#21262d"/>
<text x="47" y="161.36202029573647" text-anchor="end" fill="#484f58" font-size="10">500µs</text>
<line x1="55" y1="148.3" x2="945" y2="148.3" stroke="#21262d"/>
<text x="47" y="152.32979494707948" text-anchor="end" fill="#484f58" font-size="10">1ms</text>
<line x1="55" y1="139.3" x2="945" y2="139.3" stroke="#21262d"/>
<text x="47" y="143.29756959842246" text-anchor="end" fill="#484f58" font-size="10">2ms</text>
<line x1="55" y1="127.4" x2="945" y2="127.4" stroke="#21262d"/>
<text x="47" y="131.35761715067895" text-anchor="end" fill="#484f58" font-size="10">5ms</text>
<line x1="55" y1="118.3" x2="945" y2="118.3" stroke="#21262d"/>
<text x="47" y="122.32539180202194" text-anchor="end" fill="#484f58" font-size="10">10ms</text>
<line x1="84.7" y1="115" x2="84.7" y2="430" stroke="#30363d" stroke-width="1" stroke-dasharray="4,4"/>
<line x1="114.3" y1="115" x2="114.3" y2="430" stroke="#30363d" stroke-width="1" stroke-dasharray="4,4"/>
<line x1="144.0" y1="115" x2="144.0" y2="430" stroke="#30363d" stroke-width="1" stroke-dasharray="4,4"/>
<line x1="173.7" y1="115" x2="173.7" y2="430" stroke="#30363d" stroke-width="1" stroke-dasharray="4,4"/>
<line x1="203.3" y1="115" x2="203.3" y2="430" stroke="#30363d" stroke-width="1" stroke-dasharray="4,4"/>
<line x1="233.0" y1="115" x2="233.0" y2="430" stroke="#30363d" stroke-width="1" stroke-dasharray="4,4"/>
<line x1="262.7" y1="115" x2="262.7" y2="430" stroke="#30363d" stroke-width="1" stroke-dasharray="4,4"/>
<line x1="292.3" y1="115" x2="292.3" y2="430" stroke="#30363d" stroke-width="1" stroke-dasharray="4,4"/>
<line x1="322.0" y1="115" x2="322.0" y2="430" stroke="#30363d" stroke-width="1" stroke-dasharray="4,4"/>
<line x1="351.7" y1="115" x2="351.7" y2="430" stroke="#30363d" stroke-width="1" stroke-dasharray="4,4"/>
<line x1="381.3" y1="115" x2="381.3" y2="430" stroke="#30363d" stroke-width="1" stroke-dasharray="4,4"/>
<line x1="411.0" y1="115" x2="411.0" y2="430" stroke="#30363d" stroke-width="1" stroke-dasharray="4,4"/>
<line x1="440.7" y1="115" x2="440.7" y2="430" stroke="#30363d" stroke-width="1" stroke-dasharray="4,4"/>
<line x1="470.3" y1="115" x2="470.3" y2="430" stroke="#30363d" stroke-width="1" stroke-dasharray="4,4"/>
<line x1="500.0" y1="115" x2="500.0" y2="430" stroke="#30363d" stroke-width="1" stroke-dasharray="4,4"/>
<line x1="529.7" y1="115" x2="529.7" y2="430" stroke="#30363d" stroke-width="1" stroke-dasharray="4,4"/>
<line x1="559.3" y1="115" x2="559.3" y2="430" stroke="#30363d" stroke-width="1" stroke-dasharray="4,4"/>
<line x1="589.0" y1="115" x2="589.0" y2="430" stroke="#30363d" stroke-width="1" stroke-dasharray="4,4"/>
<line x1="618.7" y1="115" x2="618.7" y2="430" stroke="#30363d" stroke-width="1" stroke-dasharray="4,4"/>
<line x1="648.3" y1="115" x2="648.3" y2="430" stroke="#30363d" stroke-width="1" stroke-dasharray="4,4"/>
<line x1="678.0" y1="115" x2="678.0" y2="430" stroke="#30363d" stroke-width="1" stroke-dasharray="4,4"/>
<line x1="707.7" y1="115" x2="707.7" y2="430" stroke="#30363d" stroke-width="1" stroke-dasharray="4,4"/>
<line x1="737.3" y1="115" x2="737.3" y2="430" stroke="#30363d" stroke-width="1" stroke-dasharray="4,4"/>
<line x1="767.0" y1="115" x2="767.0" y2="430" stroke="#30363d" stroke-width="1" stroke-dasharray="4,4"/>
<line x1="796.7" y1="115" x2="796.7" y2="430" stroke="#30363d" stroke-width="1" stroke-dasharray="4,4"/>
<line x1="826.3" y1="115" x2="826.3" y2="430" stroke="#30363d" stroke-width="1" stroke-dasharray="4,4"/>
<line x1="856.0" y1="115" x2="856.0" y2="430" stroke="#30363d" stroke-width="1" stroke-dasharray="4,4"/>
<line x1="885.7" y1="115" x2="885.7" y2="430" stroke="#30363d" stroke-width="1" stroke-dasharray="4,4"/>
<line x1="915.3" y1="115" x2="915.3" y2="430" stroke="#30363d" stroke-width="1" stroke-dasharray="4,4"/>
<path d="M69.8,140.7 L99.5,140.6 L129.2,140.7 L158.8,207.2 L188.5,394.9 L218.2,140.8 L247.8,140.7 L277.5,140.7 L307.2,198.0 L336.8,385.6 L366.5,149.0 L396.2,149.0 L425.8,149.0 L455.5,246.0 L485.2,425.4 L514.8,148.7 L544.5,148.9 L574.2,148.9 L603.8,206.4 L633.5,385.9 L663.2,148.9 L692.8,149.0 L722.5,148.9 L752.2,206.2 L781.8,385.5 L811.5,141.2 L841.2,141.1 L870.8,141.1 L900.5,221.2 L930.2,408.4" fill="none" stroke="#58a6ff" stroke-width="8" stroke-linejoin="round" stroke-linecap="round" opacity="0.12"/>
<path d="M69.8,140.7 L99.5,140.6 L129.2,140.7 L158.8,207.2 L188.5,394.9 L218.2,140.8 L247.8,140.7 L277.5,140.7 L307.2,198.0 L336.8,385.6 L366.5,149.0 L396.2,149.0 L425.8,149.0 L455.5,246.0 L485.2,425.4 L514.8,148.7 L544.5,148.9 L574.2,148.9 L603.8,206.4 L633.5,385.9 L663.2,148.9 L692.8,149.0 L722.5,148.9 L752.2,206.2 L781.8,385.5 L811.5,141.2 L841.2,141.1 L870.8,141.1 L900.5,221.2 L930.2,408.4" fill="none" stroke="#58a6ff" stroke-width="3.5" stroke-linejoin="round" stroke-linecap="round"/>
<circle cx="69.8" cy="140.7" r="6" fill="#58a6ff" opacity="0.2"/>
<circle cx="69.8" cy="140.7" r="4" fill="#58a6ff" stroke="#0d1117" stroke-width="2.5"/>
<circle cx="99.5" cy="140.6" r="6" fill="#58a6ff" opacity="0.2"/>
<circle cx="99.5" cy="140.6" r="4" fill="#58a6ff" stroke="#0d1117" stroke-width="2.5"/>
<circle cx="129.2" cy="140.7" r="6" fill="#58a6ff" opacity="0.2"/>
<circle cx="129.2" cy="140.7" r="4" fill="#58a6ff" stroke="#0d1117" stroke-width="2.5"/>
<circle cx="158.8" cy="207.2" r="6" fill="#58a6ff" opacity="0.2"/>
<circle cx="158.8" cy="207.2" r="4" fill="#58a6ff" stroke="#0d1117" stroke-width="2.5"/>
<circle cx="188.5" cy="394.9" r="6" fill="#58a6ff" opacity="0.2"/>
<circle cx="188.5" cy="394.9" r="4" fill="#58a6ff" stroke="#0d1117" stroke-width="2.5"/>
<circle cx="218.2" cy="140.8" r="6" fill="#58a6ff" opacity="0.2"/>
<circle cx="218.2" cy="140.8" r="4" fill="#58a6ff" stroke="#0d1117" stroke-width="2.5"/>
<circle cx="247.8" cy="140.7" r="6" fill="#58a6ff" opacity="0.2"/>
<circle cx="247.8" cy="140.7" r="4" fill="#58a6ff" stroke="#0d1117" stroke-width="2.5"/>
<circle cx="277.5" cy="140.7" r="6" fill="#58a6ff" opacity="0.2"/>
<circle cx="277.5" cy="140.7" r="4" fill="#58a6ff" stroke="#0d1117" stroke-width="2.5"/>
<circle cx="307.2" cy="198.0" r="6" fill="#58a6ff" opacity="0.2"/>
<circle cx="307.2" cy="198.0" r="4" fill="#58a6ff" stroke="#0d1117" stroke-width="2.5"/>
<circle cx="336.8" cy="385.6" r="6" fill="#58a6ff" opacity="0.2"/>
<circle cx="336.8" cy="385.6" r="4" fill="#58a6ff" stroke="#0d1117" stroke-width="2.5"/>
<circle cx="366.5" cy="149.0" r="6" fill="#58a6ff" opacity="0.2"/>
<circle cx="366.5" cy="149.0" r="4" fill="#58a6ff" stroke="#0d1117" stroke-width="2.5"/>
<circle cx="396.2" cy="149.0" r="6" fill="#58a6ff" opacity="0.2"/>
<circle cx="396.2" cy="149.0" r="4" fill="#58a6ff" stroke="#0d1117" stroke-width="2.5"/>
<circle cx="425.8" cy="149.0" r="6" fill="#58a6ff" opacity="0.2"/>
<circle cx="425.8" cy="149.0" r="4" fill="#58a6ff" stroke="#0d1117" stroke-width="2.5"/>
<circle cx="455.5" cy="246.0" r="6" fill="#58a6ff" opacity="0.2"/>
<circle cx="455.5" cy="246.0" r="4" fill="#58a6ff" stroke="#0d1117" stroke-width="2.5"/>
<circle cx="485.2" cy="425.4" r="6" fill="#58a6ff" opacity="0.2"/>
<circle cx="485.2" cy="425.4" r="4" fill="#58a6ff" stroke="#0d1117" stroke-width="2.5"/>
<circle cx="514.8" cy="148.7" r="6" fill="#58a6ff" opacity="0.2"/>
<circle cx="514.8" cy="148.7" r="4" fill="#58a6ff" stroke="#0d1117" stroke-width="2.5"/>
<circle cx="544.5" cy="148.9" r="6" fill="#58a6ff" opacity="0.2"/>
<circle cx="544.5" cy="148.9" r="4" fill="#58a6ff" stroke="#0d1117" stroke-width="2.5"/>
<circle cx="574.2" cy="148.9" r="6" fill="#58a6ff" opacity="0.2"/>
<circle cx="574.2" cy="148.9" r="4" fill="#58a6ff" stroke="#0d1117" stroke-width="2.5"/>
<circle cx="603.8" cy="206.4" r="6" fill="#58a6ff" opacity="0.2"/>
<circle cx="603.8" cy="206.4" r="4" fill="#58a6ff" stroke="#0d1117" stroke-width="2.5"/>
<circle cx="633.5" cy="385.9" r="6" fill="#58a6ff" opacity="0.2"/>
<circle cx="633.5" cy="385.9" r="4" fill="#58a6ff" stroke="#0d1117" stroke-width="2.5"/>
<circle cx="663.2" cy="148.9" r="6" fill="#58a6ff" opacity="0.2"/>
<circle cx="663.2" cy="148.9" r="4" fill="#58a6ff" stroke="#0d1117" stroke-width="2.5"/>
<circle cx="692.8" cy="149.0" r="6" fill="#58a6ff" opacity="0.2"/>
<circle cx="692.8" cy="149.0" r="4" fill="#58a6ff" stroke="#0d1117" stroke-width="2.5"/>
<circle cx="722.5" cy="148.9" r="6" fill="#58a6ff" opacity="0.2"/>
<circle cx="722.5" cy="148.9" r="4" fill="#58a6ff" stroke="#0d1117" stroke-width="2.5"/>
<circle cx="752.2" cy="206.2" r="6" fill="#58a6ff" opacity="0.2"/>
<circle cx="752.2" cy="206.2" r="4" fill="#58a6ff" stroke="#0d1117" stroke-width="2.5"/>
<circle cx="781.8" cy="385.5" r="6" fill="#58a6ff" opacity="0.2"/>
<circle cx="781.8" cy="385.5" r="4" fill="#58a6ff" stroke="#0d1117" stroke-width="2.5"/>
<circle cx="811.5" cy="141.2" r="6" fill="#58a6ff" opacity="0.2"/>
<circle cx="811.5" cy="141.2" r="4" fill="#58a6ff" stroke="#0d1117" stroke-width="2.5"/>
<circle cx="841.2" cy="141.1" r="6" fill="#58a6ff" opacity="0.2"/>
<circle cx="841.2" cy="141.1" r="4" fill="#58a6ff" stroke="#0d1117" stroke-width="2.5"/>
<circle cx="870.8" cy="141.1" r="6" fill="#58a6ff" opacity="0.2"/>
<circle cx="870.8" cy="141.1" r="4" fill="#58a6ff" stroke="#0d1117" stroke-width="2.5"/>
<circle cx="900.5" cy="221.2" r="6" fill="#58a6ff" opacity="0.2"/>
<circle cx="900.5" cy="221.2" r="4" fill="#58a6ff" stroke="#0d1117" stroke-width="2.5"/>
<circle cx="930.2" cy="408.4" r="6" fill="#58a6ff" opacity="0.2"/>
<circle cx="930.2" cy="408.4" r="4" fill="#58a6ff" stroke="#0d1117" stroke-width="2.5"/>
<path d="M69.8,121.2 L99.5,121.1 L129.2,121.1 L158.8,182.0 L188.5,389.3 L218.2,121.0 L247.8,120.3 L277.5,120.6 L307.2,155.1 L336.8,363.2 L366.5,129.0 L396.2,128.8 L425.8,128.8 L455.5,182.9 L485.2,382.4 L514.8,129.1 L544.5,128.8 L574.2,128.6 L603.8,178.9 L633.5,378.5 L663.2,149.5 L692.8,144.6 L722.5,143.1 L752.2,161.6 L781.8,345.4 L811.5,121.0 L841.2,121.0 L870.8,121.0 L900.5,210.4 L930.2,417.7" fill="none" stroke="#FF9800" stroke-width="8" stroke-linejoin="round" stroke-linecap="round" opacity="0.12"/>
<path d="M69.8,121.2 L99.5,121.1 L129.2,121.1 L158.8,182.0 L188.5,389.3 L218.2,121.0 L247.8,120.3 L277.5,120.6 L307.2,155.1 L336.8,363.2 L366.5,129.0 L396.2,128.8 L425.8,128.8 L455.5,182.9 L485.2,382.4 L514.8,129.1 L544.5,128.8 L574.2,128.6 L603.8,178.9 L633.5,378.5 L663.2,149.5 L692.8,144.6 L722.5,143.1 L752.2,161.6 L781.8,345.4 L811.5,121.0 L841.2,121.0 L870.8,121.0 L900.5,210.4 L930.2,417.7" fill="none" stroke="#FF9800" stroke-width="3.5" stroke-linejoin="round" stroke-linecap="round"/>
<circle cx="69.8" cy="121.2" r="6" fill="#FF9800" opacity="0.2"/>
<circle cx="69.8" cy="121.2" r="4" fill="#FF9800" stroke="#0d1117" stroke-width="2.5"/>
<circle cx="99.5" cy="121.1" r="6" fill="#FF9800" opacity="0.2"/>
<circle cx="99.5" cy="121.1" r="4" fill="#FF9800" stroke="#0d1117" stroke-width="2.5"/>
<circle cx="129.2" cy="121.1" r="6" fill="#FF9800" opacity="0.2"/>
<circle cx="129.2" cy="121.1" r="4" fill="#FF9800" stroke="#0d1117" stroke-width="2.5"/>
<circle cx="158.8" cy="182.0" r="6" fill="#FF9800" opacity="0.2"/>
<circle cx="158.8" cy="182.0" r="4" fill="#FF9800" stroke="#0d1117" stroke-width="2.5"/>
<circle cx="188.5" cy="389.3" r="6" fill="#FF9800" opacity="0.2"/>
<circle cx="188.5" cy="389.3" r="4" fill="#FF9800" stroke="#0d1117" stroke-width="2.5"/>
<circle cx="218.2" cy="121.0" r="6" fill="#FF9800" opacity="0.2"/>
<circle cx="218.2" cy="121.0" r="4" fill="#FF9800" stroke="#0d1117" stroke-width="2.5"/>
<circle cx="247.8" cy="120.3" r="6" fill="#FF9800" opacity="0.2"/>
<circle cx="247.8" cy="120.3" r="4" fill="#FF9800" stroke="#0d1117" stroke-width="2.5"/>
<circle cx="277.5" cy="120.6" r="6" fill="#FF9800" opacity="0.2"/>
<circle cx="277.5" cy="120.6" r="4" fill="#FF9800" stroke="#0d1117" stroke-width="2.5"/>
<circle cx="307.2" cy="155.1" r="6" fill="#FF9800" opacity="0.2"/>
<circle cx="307.2" cy="155.1" r="4" fill="#FF9800" stroke="#0d1117" stroke-width="2.5"/>
<circle cx="336.8" cy="363.2" r="6" fill="#FF9800" opacity="0.2"/>
<circle cx="336.8" cy="363.2" r="4" fill="#FF9800" stroke="#0d1117" stroke-width="2.5"/>
<circle cx="366.5" cy="129.0" r="6" fill="#FF9800" opacity="0.2"/>
<circle cx="366.5" cy="129.0" r="4" fill="#FF9800" stroke="#0d1117" stroke-width="2.5"/>
<circle cx="396.2" cy="128.8" r="6" fill="#FF9800" opacity="0.2"/>
<circle cx="396.2" cy="128.8" r="4" fill="#FF9800" stroke="#0d1117" stroke-width="2.5"/>
<circle cx="425.8" cy="128.8" r="6" fill="#FF9800" opacity="0.2"/>
<circle cx="425.8" cy="128.8" r="4" fill="#FF9800" stroke="#0d1117" stroke-width="2.5"/>
<circle cx="455.5" cy="182.9" r="6" fill="#FF9800" opacity="0.2"/>
<circle cx="455.5" cy="182.9" r="4" fill="#FF9800" stroke="#0d1117" stroke-width="2.5"/>
<circle cx="485.2" cy="382.4" r="6" fill="#FF9800" opacity="0.2"/>
<circle cx="485.2" cy="382.4" r="4" fill="#FF9800" stroke="#0d1117" stroke-width="2.5"/>
<circle cx="514.8" cy="129.1" r="6" fill="#FF9800" opacity="0.2"/>
<circle cx="514.8" cy="129.1" r="4" fill="#FF9800" stroke="#0d1117" stroke-width="2.5"/>
<circle cx="544.5" cy="128.8" r="6" fill="#FF9800" opacity="0.2"/>
<circle cx="544.5" cy="128.8" r="4" fill="#FF9800" stroke="#0d1117" stroke-width="2.5"/>
<circle cx="574.2" cy="128.6" r="6" fill="#FF9800" opacity="0.2"/>
<circle cx="574.2" cy="128.6" r="4" fill="#FF9800" stroke="#0d1117" stroke-width="2.5"/>
<circle cx="603.8" cy="178.9" r="6" fill="#FF9800" opacity="0.2"/>
<circle cx="603.8" cy="178.9" r="4" fill="#FF9800" stroke="#0d1117" stroke-width="2.5"/>
<circle cx="633.5" cy="378.5" r="6" fill="#FF9800" opacity="0.2"/>
<circle cx="633.5" cy="378.5" r="4" fill="#FF9800" stroke="#0d1117" stroke-width="2.5"/>
<circle cx="663.2" cy="149.5" r="6" fill="#FF9800" opacity="0.2"/>
<circle cx="663.2" cy="149.5" r="4" fill="#FF9800" stroke="#0d1117" stroke-width="2.5"/>
<circle cx="692.8" cy="144.6" r="6" fill="#FF9800" opacity="0.2"/>
<circle cx="692.8" cy="144.6" r="4" fill="#FF9800" stroke="#0d1117" stroke-width="2.5"/>
<circle cx="722.5" cy="143.1" r="6" fill="#FF9800" opacity="0.2"/>
<circle cx="722.5" cy="143.1" r="4" fill="#FF9800" stroke="#0d1117" stroke-width="2.5"/>
<circle cx="752.2" cy="161.6" r="6" fill="#FF9800" opacity="0.2"/>
<circle cx="752.2" cy="161.6" r="4" fill="#FF9800" stroke="#0d1117" stroke-width="2.5"/>
<circle cx="781.8" cy="345.4" r="6" fill="#FF9800" opacity="0.2"/>
<circle cx="781.8" cy="345.4" r="4" fill="#FF9800" stroke="#0d1117" stroke-width="2.5"/>
<circle cx="811.5" cy="121.0" r="6" fill="#FF9800" opacity="0.2"/>
<circle cx="811.5" cy="121.0" r="4" fill="#FF9800" stroke="#0d1117" stroke-width="2.5"/>
<circle cx="841.2" cy="121.0" r="6" fill="#FF9800" opacity="0.2"/>
<circle cx="841.2" cy="121.0" r="4" fill="#FF9800" stroke="#0d1117" stroke-width="2.5"/>
<circle cx="870.8" cy="121.0" r="6" fill="#FF9800" opacity="0.2"/>
<circle cx="870.8" cy="121.0" r="4" fill="#FF9800" stroke="#0d1117" stroke-width="2.5"/>
<circle cx="900.5" cy="210.4" r="6" fill="#FF9800" opacity="0.2"/>
<circle cx="900.5" cy="210.4" r="4" fill="#FF9800" stroke="#0d1117" stroke-width="2.5"/>
<circle cx="930.2" cy="417.7" r="6" fill="#FF9800" opacity="0.2"/>
<circle cx="930.2" cy="417.7" r="4" fill="#FF9800" stroke="#0d1117" stroke-width="2.5"/>
<path d="M69.8,122.5 L99.5,122.4 L129.2,122.4 L158.8,191.0 L188.5,396.9 L218.2,122.3 L247.8,122.3 L277.5,122.3 L307.2,200.2 L336.8,406.2 L366.5,129.8 L396.2,130.0 L425.8,129.9 L455.5,184.0 L485.2,382.4 L514.8,129.2 L544.5,127.2 L574.2,127.4 L603.8,152.2 L633.5,353.3 L663.2,149.0 L692.8,145.7 L722.5,148.8 L752.2,158.7 L781.8,341.3 L811.5,122.3 L841.2,122.5 L870.8,122.5 L900.5,182.9 L930.2,388.8" fill="none" stroke="#4CAF50" stroke-width="8" stroke-linejoin="round" stroke-linecap="round" opacity="0.12"/>
<path d="M69.8,122.5 L99.5,122.4 L129.2,122.4 L158.8,191.0 L188.5,396.9 L218.2,122.3 L247.8,122.3 L277.5,122.3 L307.2,200.2 L336.8,406.2 L366.5,129.8 L396.2,130.0 L425.8,129.9 L455.5,184.0 L485.2,382.4 L514.8,129.2 L544.5,127.2 L574.2,127.4 L603.8,152.2 L633.5,353.3 L663.2,149.0 L692.8,145.7 L722.5,148.8 L752.2,158.7 L781.8,341.3 L811.5,122.3 L841.2,122.5 L870.8,122.5 L900.5,182.9 L930.2,388.8" fill="none" stroke="#4CAF50" stroke-width="3.5" stroke-linejoin="round" stroke-linecap="round"/>
<circle cx="69.8" cy="122.5" r="6" fill="#4CAF50" opacity="0.2"/>
<circle cx="69.8" cy="122.5" r="4" fill="#4CAF50" stroke="#0d1117" stroke-width="2.5"/>
<circle cx="99.5" cy="122.4" r="6" fill="#4CAF50" opacity="0.2"/>
<circle cx="99.5" cy="122.4" r="4" fill="#4CAF50" stroke="#0d1117" stroke-width="2.5"/>
<circle cx="129.2" cy="122.4" r="6" fill="#4CAF50" opacity="0.2"/>
<circle cx="129.2" cy="122.4" r="4" fill="#4CAF50" stroke="#0d1117" stroke-width="2.5"/>
<circle cx="158.8" cy="191.0" r="6" fill="#4CAF50" opacity="0.2"/>
<circle cx="158.8" cy="191.0" r="4" fill="#4CAF50" stroke="#0d1117" stroke-width="2.5"/>
<circle cx="188.5" cy="396.9" r="6" fill="#4CAF50" opacity="0.2"/>
<circle cx="188.5" cy="396.9" r="4" fill="#4CAF50" stroke="#0d1117" stroke-width="2.5"/>
<circle cx="218.2" cy="122.3" r="6" fill="#4CAF50" opacity="0.2"/>
<circle cx="218.2" cy="122.3" r="4" fill="#4CAF50" stroke="#0d1117" stroke-width="2.5"/>
<circle cx="247.8" cy="122.3" r="6" fill="#4CAF50" opacity="0.2"/>
<circle cx="247.8" cy="122.3" r="4" fill="#4CAF50" stroke="#0d1117" stroke-width="2.5"/>
<circle cx="277.5" cy="122.3" r="6" fill="#4CAF50" opacity="0.2"/>
<circle cx="277.5" cy="122.3" r="4" fill="#4CAF50" stroke="#0d1117" stroke-width="2.5"/>
<circle cx="307.2" cy="200.2" r="6" fill="#4CAF50" opacity="0.2"/>
<circle cx="307.2" cy="200.2" r="4" fill="#4CAF50" stroke="#0d1117" stroke-width="2.5"/>
<circle cx="336.8" cy="406.2" r="6" fill="#4CAF50" opacity="0.2"/>
<circle cx="336.8" cy="406.2" r="4" fill="#4CAF50" stroke="#0d1117" stroke-width="2.5"/>
<circle cx="366.5" cy="129.8" r="6" fill="#4CAF50" opacity="0.2"/>
<circle cx="366.5" cy="129.8" r="4" fill="#4CAF50" stroke="#0d1117" stroke-width="2.5"/>
<circle cx="396.2" cy="130.0" r="6" fill="#4CAF50" opacity="0.2"/>
<circle cx="396.2" cy="130.0" r="4" fill="#4CAF50" stroke="#0d1117" stroke-width="2.5"/>
<circle cx="425.8" cy="129.9" r="6" fill="#4CAF50" opacity="0.2"/>
<circle cx="425.8" cy="129.9" r="4" fill="#4CAF50" stroke="#0d1117" stroke-width="2.5"/>
<circle cx="455.5" cy="184.0" r="6" fill="#4CAF50" opacity="0.2"/>
<circle cx="455.5" cy="184.0" r="4" fill="#4CAF50" stroke="#0d1117" stroke-width="2.5"/>
<circle cx="485.2" cy="382.4" r="6" fill="#4CAF50" opacity="0.2"/>
<circle cx="485.2" cy="382.4" r="4" fill="#4CAF50" stroke="#0d1117" stroke-width="2.5"/>
<circle cx="514.8" cy="129.2" r="6" fill="#4CAF50" opacity="0.2"/>
<circle cx="514.8" cy="129.2" r="4" fill="#4CAF50" stroke="#0d1117" stroke-width="2.5"/>
<circle cx="544.5" cy="127.2" r="6" fill="#4CAF50" opacity="0.2"/>
<circle cx="544.5" cy="127.2" r="4" fill="#4CAF50" stroke="#0d1117" stroke-width="2.5"/>
<circle cx="574.2" cy="127.4" r="6" fill="#4CAF50" opacity="0.2"/>
<circle cx="574.2" cy="127.4" r="4" fill="#4CAF50" stroke="#0d1117" stroke-width="2.5"/>
<circle cx="603.8" cy="152.2" r="6" fill="#4CAF50" opacity="0.2"/>
<circle cx="603.8" cy="152.2" r="4" fill="#4CAF50" stroke="#0d1117" stroke-width="2.5"/>
<circle cx="633.5" cy="353.3" r="6" fill="#4CAF50" opacity="0.2"/>
<circle cx="633.5" cy="353.3" r="4" fill="#4CAF50" stroke="#0d1117" stroke-width="2.5"/>
<circle cx="663.2" cy="149.0" r="6" fill="#4CAF50" opacity="0.2"/>
<circle cx="663.2" cy="149.0" r="4" fill="#4CAF50" stroke="#0d1117" stroke-width="2.5"/>
<circle cx="692.8" cy="145.7" r="6" fill="#4CAF50" opacity="0.2"/>
<circle cx="692.8" cy="145.7" r="4" fill="#4CAF50" stroke="#0d1117" stroke-width="2.5"/>
<circle cx="722.5" cy="148.8" r="6" fill="#4CAF50" opacity="0.2"/>
<circle cx="722.5" cy="148.8" r="4" fill="#4CAF50" stroke="#0d1117" stroke-width="2.5"/>
<circle cx="752.2" cy="158.7" r="6" fill="#4CAF50" opacity="0.2"/>
<circle cx="752.2" cy="158.7" r="4" fill="#4CAF50" stroke="#0d1117" stroke-width="2.5"/>
<circle cx="781.8" cy="341.3" r="6" fill="#4CAF50" opacity="0.2"/>
<circle cx="781.8" cy="341.3" r="4" fill="#4CAF50" stroke="#0d1117" stroke-width="2.5"/>
<circle cx="811.5" cy="122.3" r="6" fill="#4CAF50" opacity="0.2"/>
<circle cx="811.5" cy="122.3" r="4" fill="#4CAF50" stroke="#0d1117" stroke-width="2.5"/>
<circle cx="841.2" cy="122.5" r="6" fill="#4CAF50" opacity="0.2"/>
<circle cx="841.2" cy="122.5" r="4" fill="#4CAF50" stroke="#0d1117" stroke-width="2.5"/>
<circle cx="870.8" cy="122.5" r="6" fill="#4CAF50" opacity="0.2"/>
<circle cx="870.8" cy="122.5" r="4" fill="#4CAF50" stroke="#0d1117" stroke-width="2.5"/>
<circle cx="900.5" cy="182.9" r="6" fill="#4CAF50" opacity="0.2"/>
<circle cx="900.5" cy="182.9" r="4" fill="#4CAF50" stroke="#0d1117" stroke-width="2.5"/>
<circle cx="930.2" cy="388.8" r="6" fill="#4CAF50" opacity="0.2"/>
<circle cx="930.2" cy="388.8" r="4" fill="#4CAF50" stroke="#0d1117" stroke-width="2.5"/>
<path d="M69.8,122.2 L99.5,122.0 L129.2,122.1 L158.8,180.4 L188.5,386.7 L218.2,121.3 L247.8,121.0 L277.5,121.1 L307.2,165.1 L336.8,372.5 L366.5,129.9 L396.2,129.9 L425.8,129.9 L455.5,219.3 L485.2,417.8 L514.8,130.1 L544.5,130.1 L574.2,130.1 L603.8,221.3 L633.5,419.5 L663.2,149.6 L692.8,144.7 L722.5,143.1 L752.2,161.6 L781.8,345.3 L811.5,122.2 L841.2,122.2 L870.8,122.2 L900.5,206.7 L930.2,412.9" fill="none" stroke="#BB86FC" stroke-width="8" stroke-linejoin="round" stroke-linecap="round" opacity="0.12"/>
<path d="M69.8,122.2 L99.5,122.0 L129.2,122.1 L158.8,180.4 L188.5,386.7 L218.2,121.3 L247.8,121.0 L277.5,121.1 L307.2,165.1 L336.8,372.5 L366.5,129.9 L396.2,129.9 L425.8,129.9 L455.5,219.3 L485.2,417.8 L514.8,130.1 L544.5,130.1 L574.2,130.1 L603.8,221.3 L633.5,419.5 L663.2,149.6 L692.8,144.7 L722.5,143.1 L752.2,161.6 L781.8,345.3 L811.5,122.2 L841.2,122.2 L870.8,122.2 L900.5,206.7 L930.2,412.9" fill="none" stroke="#BB86FC" stroke-width="3.5" stroke-linejoin="round" stroke-linecap="round"/>
<circle cx="69.8" cy="122.2" r="6" fill="#BB86FC" opacity="0.2"/>
<circle cx="69.8" cy="122.2" r="4" fill="#BB86FC" stroke="#0d1117" stroke-width="2.5"/>
<circle cx="99.5" cy="122.0" r="6" fill="#BB86FC" opacity="0.2"/>
<circle cx="99.5" cy="122.0" r="4" fill="#BB86FC" stroke="#0d1117" stroke-width="2.5"/>
<circle cx="129.2" cy="122.1" r="6" fill="#BB86FC" opacity="0.2"/>
<circle cx="129.2" cy="122.1" r="4" fill="#BB86FC" stroke="#0d1117" stroke-width="2.5"/>
<circle cx="158.8" cy="180.4" r="6" fill="#BB86FC" opacity="0.2"/>
<circle cx="158.8" cy="180.4" r="4" fill="#BB86FC" stroke="#0d1117" stroke-width="2.5"/>
<circle cx="188.5" cy="386.7" r="6" fill="#BB86FC" opacity="0.2"/>
<circle cx="188.5" cy="386.7" r="4" fill="#BB86FC" stroke="#0d1117" stroke-width="2.5"/>
<circle cx="218.2" cy="121.3" r="6" fill="#BB86FC" opacity="0.2"/>
<circle cx="218.2" cy="121.3" r="4" fill="#BB86FC" stroke="#0d1117" stroke-width="2.5"/>
<circle cx="247.8" cy="121.0" r="6" fill="#BB86FC" opacity="0.2"/>
<circle cx="247.8" cy="121.0" r="4" fill="#BB86FC" stroke="#0d1117" stroke-width="2.5"/>
<circle cx="277.5" cy="121.1" r="6" fill="#BB86FC" opacity="0.2"/>
<circle cx="277.5" cy="121.1" r="4" fill="#BB86FC" stroke="#0d1117" stroke-width="2.5"/>
<circle cx="307.2" cy="165.1" r="6" fill="#BB86FC" opacity="0.2"/>
<circle cx="307.2" cy="165.1" r="4" fill="#BB86FC" stroke="#0d1117" stroke-width="2.5"/>
<circle cx="336.8" cy="372.5" r="6" fill="#BB86FC" opacity="0.2"/>
<circle cx="336.8" cy="372.5" r="4" fill="#BB86FC" stroke="#0d1117" stroke-width="2.5"/>
<circle cx="366.5" cy="129.9" r="6" fill="#BB86FC" opacity="0.2"/>
<circle cx="366.5" cy="129.9" r="4" fill="#BB86FC" stroke="#0d1117" stroke-width="2.5"/>
<circle cx="396.2" cy="129.9" r="6" fill="#BB86FC" opacity="0.2"/>
<circle cx="396.2" cy="129.9" r="4" fill="#BB86FC" stroke="#0d1117" stroke-width="2.5"/>
<circle cx="425.8" cy="129.9" r="6" fill="#BB86FC" opacity="0.2"/>
<circle cx="425.8" cy="129.9" r="4" fill="#BB86FC" stroke="#0d1117" stroke-width="2.5"/>
<circle cx="455.5" cy="219.3" r="6" fill="#BB86FC" opacity="0.2"/>
<circle cx="455.5" cy="219.3" r="4" fill="#BB86FC" stroke="#0d1117" stroke-width="2.5"/>
<circle cx="485.2" cy="417.8" r="6" fill="#BB86FC" opacity="0.2"/>
<circle cx="485.2" cy="417.8" r="4" fill="#BB86FC" stroke="#0d1117" stroke-width="2.5"/>
<circle cx="514.8" cy="130.1" r="6" fill="#BB86FC" opacity="0.2"/>
<circle cx="514.8" cy="130.1" r="4" fill="#BB86FC" stroke="#0d1117" stroke-width="2.5"/>
<circle cx="544.5" cy="130.1" r="6" fill="#BB86FC" opacity="0.2"/>
<circle cx="544.5" cy="130.1" r="4" fill="#BB86FC" stroke="#0d1117" stroke-width="2.5"/>
<circle cx="574.2" cy="130.1" r="6" fill="#BB86FC" opacity="0.2"/>
<circle cx="574.2" cy="130.1" r="4" fill="#BB86FC" stroke="#0d1117" stroke-width="2.5"/>
<circle cx="603.8" cy="221.3" r="6" fill="#BB86FC" opacity="0.2"/>
<circle cx="603.8" cy="221.3" r="4" fill="#BB86FC" stroke="#0d1117" stroke-width="2.5"/>
<circle cx="633.5" cy="419.5" r="6" fill="#BB86FC" opacity="0.2"/>
<circle cx="633.5" cy="419.5" r="4" fill="#BB86FC" stroke="#0d1117" stroke-width="2.5"/>
<circle cx="663.2" cy="149.6" r="6" fill="#BB86FC" opacity="0.2"/>
<circle cx="663.2" cy="149.6" r="4" fill="#BB86FC" stroke="#0d1117" stroke-width="2.5"/>
<circle cx="692.8" cy="144.7" r="6" fill="#BB86FC" opacity="0.2"/>
<circle cx="692.8" cy="144.7" r="4" fill="#BB86FC" stroke="#0d1117" stroke-width="2.5"/>
<circle cx="722.5" cy="143.1" r="6" fill="#BB86FC" opacity="0.2"/>
<circle cx="722.5" cy="143.1" r="4" fill="#BB86FC" stroke="#0d1117" stroke-width="2.5"/>
<circle cx="752.2" cy="161.6" r="6" fill="#BB86FC" opacity="0.2"/>
<circle cx="752.2" cy="161.6" r="4" fill="#BB86FC" stroke="#0d1117" stroke-width="2.5"/>
<circle cx="781.8" cy="345.3" r="6" fill="#BB86FC" opacity="0.2"/>
<circle cx="781.8" cy="345.3" r="4" fill="#BB86FC" stroke="#0d1117" stroke-width="2.5"/>
<circle cx="811.5" cy="122.2" r="6" fill="#BB86FC" opacity="0.2"/>
<circle cx="811.5" cy="122.2" r="4" fill="#BB86FC" stroke="#0d1117" stroke-width="2.5"/>
<circle cx="841.2" cy="122.2" r="6" fill="#BB86FC" opacity="0.2"/>
<circle cx="841.2" cy="122.2" r="4" fill="#BB86FC" stroke="#0d1117" stroke-width="2.5"/>
<circle cx="870.8" cy="122.2" r="6" fill="#BB86FC" opacity="0.2"/>
<circle cx="870.8" cy="122.2" r="4" fill="#BB86FC" stroke="#0d1117" stroke-width="2.5"/>
<circle cx="900.5" cy="206.7" r="6" fill="#BB86FC" opacity="0.2"/>
<circle cx="900.5" cy="206.7" r="4" fill="#BB86FC" stroke="#0d1117" stroke-width="2.5"/>
<circle cx="930.2" cy="412.9" r="6" fill="#BB86FC" opacity="0.2"/>
<circle cx="930.2" cy="412.9" r="4" fill="#BB86FC" stroke="#0d1117" stroke-width="2.5"/>
<path d="M69.8,122.0 L99.5,121.9 L129.2,122.0 L158.8,171.5 L188.5,378.0 L218.2,121.4 L247.8,121.0 L277.5,121.1 L307.2,168.4 L336.8,375.7 L366.5,129.7 L396.2,129.7 L425.8,129.7 L455.5,200.5 L485.2,399.2 L514.8,129.9 L544.5,129.9 L574.2,129.8 L603.8,197.5 L633.5,396.0 L663.2,149.2 L692.8,144.6 L722.5,143.0 L752.2,162.1 L781.8,345.9 L811.5,121.9 L841.2,121.9 L870.8,121.9 L900.5,212.0 L930.2,418.5" fill="none" stroke="#F472B6" stroke-width="8" stroke-linejoin="round" stroke-linecap="round" opacity="0.12"/>
<path d="M69.8,122.0 L99.5,121.9 L129.2,122.0 L158.8,171.5 L188.5,378.0 L218.2,121.4 L247.8,121.0 L277.5,121.1 L307.2,168.4 L336.8,375.7 L366.5,129.7 L396.2,129.7 L425.8,129.7 L455.5,200.5 L485.2,399.2 L514.8,129.9 L544.5,129.9 L574.2,129.8 L603.8,197.5 L633.5,396.0 L663.2,149.2 L692.8,144.6 L722.5,143.0 L752.2,162.1 L781.8,345.9 L811.5,121.9 L841.2,121.9 L870.8,121.9 L900.5,212.0 L930.2,418.5" fill="none" stroke="#F472B6" stroke-width="3.5" stroke-linejoin="round" stroke-linecap="round"/>
<circle cx="69.8" cy="122.0" r="6" fill="#F472B6" opacity="0.2"/>
<circle cx="69.8" cy="122.0" r="4" fill="#F472B6" stroke="#0d1117" stroke-width="2.5"/>
<circle cx="99.5" cy="121.9" r="6" fill="#F472B6" opacity="0.2"/>
<circle cx="99.5" cy="121.9" r="4" fill="#F472B6" stroke="#0d1117" stroke-width="2.5"/>
<circle cx="129.2" cy="122.0" r="6" fill="#F472B6" opacity="0.2"/>
<circle cx="129.2" cy="122.0" r="4" fill="#F472B6" stroke="#0d1117" stroke-width="2.5"/>
<circle cx="158.8" cy="171.5" r="6" fill="#F472B6" opacity="0.2"/>
<circle cx="158.8" cy="171.5" r="4" fill="#F472B6" stroke="#0d1117" stroke-width="2.5"/>
<circle cx="188.5" cy="378.0" r="6" fill="#F472B6" opacity="0.2"/>
<circle cx="188.5" cy="378.0" r="4" fill="#F472B6" stroke="#0d1117" stroke-width="2.5"/>
<circle cx="218.2" cy="121.4" r="6" fill="#F472B6" opacity="0.2"/>
<circle cx="218.2" cy="121.4" r="4" fill="#F472B6" stroke="#0d1117" stroke-width="2.5"/>
<circle cx="247.8" cy="121.0" r="6" fill="#F472B6" opacity="0.2"/>
<circle cx="247.8" cy="121.0" r="4" fill="#F472B6" stroke="#0d1117" stroke-width="2.5"/>
<circle cx="277.5" cy="121.1" r="6" fill="#F472B6" opacity="0.2"/>
<circle cx="277.5" cy="121.1" r="4" fill="#F472B6" stroke="#0d1117" stroke-width="2.5"/>
<circle cx="307.2" cy="168.4" r="6" fill="#F472B6" opacity="0.2"/>
<circle cx="307.2" cy="168.4" r="4" fill="#F472B6" stroke="#0d1117" stroke-width="2.5"/>
<circle cx="336.8" cy="375.7" r="6" fill="#F472B6" opacity="0.2"/>
<circle cx="336.8" cy="375.7" r="4" fill="#F472B6" stroke="#0d1117" stroke-width="2.5"/>
<circle cx="366.5" cy="129.7" r="6" fill="#F472B6" opacity="0.2"/>
<circle cx="366.5" cy="129.7" r="4" fill="#F472B6" stroke="#0d1117" stroke-width="2.5"/>
<circle cx="396.2" cy="129.7" r="6" fill="#F472B6" opacity="0.2"/>
<circle cx="396.2" cy="129.7" r="4" fill="#F472B6" stroke="#0d1117" stroke-width="2.5"/>
<circle cx="425.8" cy="129.7" r="6" fill="#F472B6" opacity="0.2"/>
<circle cx="425.8" cy="129.7" r="4" fill="#F472B6" stroke="#0d1117" stroke-width="2.5"/>
<circle cx="455.5" cy="200.5" r="6" fill="#F472B6" opacity="0.2"/>
<circle cx="455.5" cy="200.5" r="4" fill="#F472B6" stroke="#0d1117" stroke-width="2.5"/>
<circle cx="485.2" cy="399.2" r="6" fill="#F472B6" opacity="0.2"/>
<circle cx="485.2" cy="399.2" r="4" fill="#F472B6" stroke="#0d1117" stroke-width="2.5"/>
<circle cx="514.8" cy="129.9" r="6" fill="#F472B6" opacity="0.2"/>
<circle cx="514.8" cy="129.9" r="4" fill="#F472B6" stroke="#0d1117" stroke-width="2.5"/>
<circle cx="544.5" cy="129.9" r="6" fill="#F472B6" opacity="0.2"/>
<circle cx="544.5" cy="129.9" r="4" fill="#F472B6" stroke="#0d1117" stroke-width="2.5"/>
<circle cx="574.2" cy="129.8" r="6" fill="#F472B6" opacity="0.2"/>
<circle cx="574.2" cy="129.8" r="4" fill="#F472B6" stroke="#0d1117" stroke-width="2.5"/>
<circle cx="603.8" cy="197.5" r="6" fill="#F472B6" opacity="0.2"/>
<circle cx="603.8" cy="197.5" r="4" fill="#F472B6" stroke="#0d1117" stroke-width="2.5"/>
<circle cx="633.5" cy="396.0" r="6" fill="#F472B6" opacity="0.2"/>
<circle cx="633.5" cy="396.0" r="4" fill="#F472B6" stroke="#0d1117" stroke-width="2.5"/>
<circle cx="663.2" cy="149.2" r="6" fill="#F472B6" opacity="0.2"/>
<circle cx="663.2" cy="149.2" r="4" fill="#F472B6" stroke="#0d1117" stroke-width="2.5"/>
<circle cx="692.8" cy="144.6" r="6" fill="#F472B6" opacity="0.2"/>
<circle cx="692.8" cy="144.6" r="4" fill="#F472B6" stroke="#0d1117" stroke-width="2.5"/>
<circle cx="722.5" cy="143.0" r="6" fill="#F472B6" opacity="0.2"/>
<circle cx="722.5" cy="143.0" r="4" fill="#F472B6" stroke="#0d1117" stroke-width="2.5"/>
<circle cx="752.2" cy="162.1" r="6" fill="#F472B6" opacity="0.2"/>
<circle cx="752.2" cy="162.1" r="4" fill="#F472B6" stroke="#0d1117" stroke-width="2.5"/>
<circle cx="781.8" cy="345.9" r="6" fill="#F472B6" opacity="0.2"/>
<circle cx="781.8" cy="345.9" r="4" fill="#F472B6" stroke="#0d1117" stroke-width="2.5"/>
<circle cx="811.5" cy="121.9" r="6" fill="#F472B6" opacity="0.2"/>
<circle cx="811.5" cy="121.9" r="4" fill="#F472B6" stroke="#0d1117" stroke-width="2.5"/>
<circle cx="841.2" cy="121.9" r="6" fill="#F472B6" opacity="0.2"/>
<circle cx="841.2" cy="121.9" r="4" fill="#F472B6" stroke="#0d1117" stroke-width="2.5"/>
<circle cx="870.8" cy="121.9" r="6" fill="#F472B6" opacity="0.2"/>
<circle cx="870.8" cy="121.9" r="4" fill="#F472B6" stroke="#0d1117" stroke-width="2.5"/>
<circle cx="900.5" cy="212.0" r="6" fill="#F472B6" opacity="0.2"/>
<circle cx="900.5" cy="212.0" r="4" fill="#F472B6" stroke="#0d1117" stroke-width="2.5"/>
<circle cx="930.2" cy="418.5" r="6" fill="#F472B6" opacity="0.2"/>
<circle cx="930.2" cy="418.5" r="4" fill="#F472B6" stroke="#0d1117" stroke-width="2.5"/>
<text x="69.8" y="448" text-anchor="end" fill="#8b949e" font-size="11" transform="rotate(-30,69.8,448)">push_back</text>
<text x="99.5" y="448" text-anchor="end" fill="#8b949e" font-size="11" transform="rotate(-30,99.5,448)">push_back_mean</text>
<text x="129.2" y="448" text-anchor="end" fill="#8b949e" font-size="11" transform="rotate(-30,129.2,448)">push_back_median</text>
<text x="158.8" y="448" text-anchor="end" fill="#8b949e" font-size="11" transform="rotate(-30,158.8,448)">push_back_stddev</text>
<text x="188.5" y="448" text-anchor="end" fill="#8b949e" font-size="11" transform="rotate(-30,188.5,448)">push_back_cv</text>
<text x="218.2" y="448" text-anchor="end" fill="#8b949e" font-size="11" transform="rotate(-30,218.2,448)">push_front</text>
<text x="247.8" y="448" text-anchor="end" fill="#8b949e" font-size="11" transform="rotate(-30,247.8,448)">push_front_mean</text>
<text x="277.5" y="448" text-anchor="end" fill="#8b949e" font-size="11" transform="rotate(-30,277.5,448)">push_front_median</text>
<text x="307.2" y="448" text-anchor="end" fill="#8b949e" font-size="11" transform="rotate(-30,307.2,448)">push_front_stddev</text>
<text x="336.8" y="448" text-anchor="end" fill="#8b949e" font-size="11" transform="rotate(-30,336.8,448)">push_front_cv</text>
<text x="366.5" y="448" text-anchor="end" fill="#8b949e" font-size="11" transform="rotate(-30,366.5,448)">insert_middle</text>
<text x="396.2" y="448" text-anchor="end" fill="#8b949e" font-size="11" transform="rotate(-30,396.2,448)">insert_middle_mean</text>
<text x="425.8" y="448" text-anchor="end" fill="#8b949e" font-size="11" transform="rotate(-30,425.8,448)">insert_middle_median</text>
<text x="455.5" y="448" text-anchor="end" fill="#8b949e" font-size="11" transform="rotate(-30,455.5,448)">insert_middle_stddev</text>
<text x="485.2" y="448" text-anchor="end" fill="#8b949e" font-size="11" transform="rotate(-30,485.2,448)">insert_middle_cv</text>
<text x="514.8" y="448" text-anchor="end" fill="#8b949e" font-size="11" transform="rotate(-30,514.8,448)">erase_middle</text>
<text x="544.5" y="448" text-anchor="end" fill="#8b949e" font-size="11" transform="rotate(-30,544.5,448)">erase_middle_mean</text>
<text x="574.2" y="448" text-anchor="end" fill="#8b949e" font-size="11" transform="rotate(-30,574.2,448)">erase_middle_median</text>
<text x="603.8" y="448" text-anchor="end" fill="#8b949e" font-size="11" transform="rotate(-30,603.8,448)">erase_middle_stddev</text>
<text x="633.5" y="448" text-anchor="end" fill="#8b949e" font-size="11" transform="rotate(-30,633.5,448)">erase_middle_cv</text>
<text x="663.2" y="448" text-anchor="end" fill="#8b949e" font-size="11" transform="rotate(-30,663.2,448)">iterate</text>
<text x="692.8" y="448" text-anchor="end" fill="#8b949e" font-size="11" transform="rotate(-30,692.8,448)">iterate_mean</text>
<text x="722.5" y="448" text-anchor="end" fill="#8b949e" font-size="11" transform="rotate(-30,722.5,448)">iterate_median</text>
<text x="752.2" y="448" text-anchor="end" fill="#8b949e" font-size="11" transform="rotate(-30,752.2,448)">iterate_stddev</text>
<text x="781.8" y="448" text-anchor="end" fill="#8b949e" font-size="11" transform="rotate(-30,781.8,448)">iterate_cv</text>
<text x="811.5" y="448" text-anchor="end" fill="#8b949e" font-size="11" transform="rotate(-30,811.5,448)">clear</text>
<text x="841.2" y="448" text-anchor="end" fill="#8b949e" font-size="11" transform="rotate(-30,841.2,448)">clear_mean</text>
<text x="870.8" y="448" text-anchor="end" fill="#8b949e" font-size="11" transform="rotate(-30,870.8,448)">clear_median</text>
<text x="900.5" y="448" text-anchor="end" fill="#8b949e" font-size="11" transform="rotate(-30,900.5,448)">clear_stddev</text>
<text x="930.2" y="448" text-anchor="end" fill="#8b949e" font-size="11" transform="rotate(-30,930.2,448)">clear_cv</text>
<text x="14" y="272.5" text-anchor="middle" fill="#484f58" font-size="11" transform="rotate(-90,14,272.5)">Time (ms)</text>
<circle cx="65" cy="69" r="5" fill="#58a6ff"/>
<text x="75" y="73" fill="#c9d1d9" font-size="12">RG::LIST</text>
<circle cx="220" cy="69" r="5" fill="#FF9800"/>
<text x="230" y="73" fill="#c9d1d9" font-size="12">std::list</text>
<circle cx="375" cy="69" r="5" fill="#4CAF50"/>
<text x="385" y="73" fill="#c9d1d9" font-size="12">std::forward_list</text>
<circle cx="530" cy="69" r="5" fill="#BB86FC"/>
<text x="540" y="73" fill="#c9d1d9" font-size="12">boost::list</text>
<circle cx="685" cy="69" r="5" fill="#F472B6"/>
<text x="695" y="73" fill="#c9d1d9" font-size="12">eastl::list</text>
<text x="480.0" y="20" text-anchor="middle" fill="#58a6ff" font-size="15" font-weight="700">RG::LIST Benchmark — 2026-04-15</text>
</svg>