<svg xmlns="http://www.w3.org/2000/svg" viewBox="0 0 960 500" font-family="-apple-system,BlinkMacSystemFont,Segoe UI,sans-serif">
<rect width="960" height="500" rx="10" fill="#0d1117"/>
<rect x="55" y="115" width="890" height="315" fill="#161b22" rx="4"/>
<line x1="55" y1="423.5" x2="945" y2="423.5" stroke="#21262d"/>
<text x="47" y="427.45770567922114" text-anchor="end" fill="#484f58" font-size="10">0µs</text>
<line x1="55" y1="415.0" x2="945" y2="415.0" stroke="#21262d"/>
<text x="47" y="419.04341564395077" text-anchor="end" fill="#484f58" font-size="10">0µs</text>
<line x1="55" y1="403.9" x2="945" y2="403.9" stroke="#21262d"/>
<text x="47" y="407.920329247796" text-anchor="end" fill="#484f58" font-size="10">0µs</text>
<line x1="55" y1="395.5" x2="945" y2="395.5" stroke="#21262d"/>
<text x="47" y="399.50603921252565" text-anchor="end" fill="#484f58" font-size="10">0µs</text>
<line x1="55" y1="387.1" x2="945" y2="387.1" stroke="#21262d"/>
<text x="47" y="391.0917491772552" text-anchor="end" fill="#484f58" font-size="10">0µs</text>
<line x1="55" y1="376.0" x2="945" y2="376.0" stroke="#21262d"/>
<text x="47" y="379.9686627811005" text-anchor="end" fill="#484f58" font-size="10">0µs</text>
<line x1="55" y1="367.6" x2="945" y2="367.6" stroke="#21262d"/>
<text x="47" y="371.55437274583016" text-anchor="end" fill="#484f58" font-size="10">0µs</text>
<line x1="55" y1="359.1" x2="945" y2="359.1" stroke="#21262d"/>
<text x="47" y="363.1400827105597" text-anchor="end" fill="#484f58" font-size="10">0µs</text>
<line x1="55" y1="348.0" x2="945" y2="348.0" stroke="#21262d"/>
<text x="47" y="352.016996314405" text-anchor="end" fill="#484f58" font-size="10">0µs</text>
<line x1="55" y1="339.6" x2="945" y2="339.6" stroke="#21262d"/>
<text x="47" y="343.6027062791346" text-anchor="end" fill="#484f58" font-size="10">0µs</text>
<line x1="55" y1="331.2" x2="945" y2="331.2" stroke="#21262d"/>
<text x="47" y="335.1884162438642" text-anchor="end" fill="#484f58" font-size="10">0µs</text>
<line x1="55" y1="320.1" x2="945" y2="320.1" stroke="#21262d"/>
<text x="47" y="324.06532984770945" text-anchor="end" fill="#484f58" font-size="10">0µs</text>
<line x1="55" y1="311.7" x2="945" y2="311.7" stroke="#21262d"/>
<text x="47" y="315.6510398124391" text-anchor="end" fill="#484f58" font-size="10">0µs</text>
<line x1="55" y1="303.2" x2="945" y2="303.2" stroke="#21262d"/>
<text x="47" y="307.2367497771687" text-anchor="end" fill="#484f58" font-size="10">0µs</text>
<line x1="55" y1="292.1" x2="945" y2="292.1" stroke="#21262d"/>
<text x="47" y="296.11366338101396" text-anchor="end" fill="#484f58" font-size="10">0µs</text>
<line x1="55" y1="283.7" x2="945" y2="283.7" stroke="#21262d"/>
<text x="47" y="287.69937334574354" text-anchor="end" fill="#484f58" font-size="10">0µs</text>
<line x1="55" y1="275.3" x2="945" y2="275.3" stroke="#21262d"/>
<text x="47" y="279.28508331047317" text-anchor="end" fill="#484f58" font-size="10">0µs</text>
<line x1="55" y1="264.2" x2="945" y2="264.2" stroke="#21262d"/>
<text x="47" y="268.1619969143185" text-anchor="end" fill="#484f58" font-size="10">0µs</text>
<line x1="55" y1="255.7" x2="945" y2="255.7" stroke="#21262d"/>
<text x="47" y="259.74770687904805" text-anchor="end" fill="#484f58" font-size="10">1µs</text>
<line x1="55" y1="247.3" x2="945" y2="247.3" stroke="#21262d"/>
<text x="47" y="251.33341684377766" text-anchor="end" fill="#484f58" font-size="10">2µs</text>
<line x1="55" y1="236.2" x2="945" y2="236.2" stroke="#21262d"/>
<text x="47" y="240.21033044762294" text-anchor="end" fill="#484f58" font-size="10">5µs</text>
<line x1="55" y1="227.8" x2="945" y2="227.8" stroke="#21262d"/>
<text x="47" y="231.7960404123525" text-anchor="end" fill="#484f58" font-size="10">10µs</text>
<line x1="55" y1="219.4" x2="945" y2="219.4" stroke="#21262d"/>
<text x="47" y="223.38175037708214" text-anchor="end" fill="#484f58" font-size="10">20µs</text>
<line x1="55" y1="208.3" x2="945" y2="208.3" stroke="#21262d"/>
<text x="47" y="212.2586639809274" text-anchor="end" fill="#484f58" font-size="10">50µs</text>
<line x1="55" y1="199.8" x2="945" y2="199.8" stroke="#21262d"/>
<text x="47" y="203.84437394565703" text-anchor="end" fill="#484f58" font-size="10">100µs</text>
<line x1="55" y1="191.4" x2="945" y2="191.4" stroke="#21262d"/>
<text x="47" y="195.43008391038663" text-anchor="end" fill="#484f58" font-size="10">200µs</text>
<line x1="55" y1="180.3" x2="945" y2="180.3" stroke="#21262d"/>
<text x="47" y="184.3069975142319" text-anchor="end" fill="#484f58" font-size="10">500µs</text>
<line x1="55" y1="171.9" x2="945" y2="171.9" stroke="#21262d"/>
<text x="47" y="175.8927074789615" text-anchor="end" fill="#484f58" font-size="10">1ms</text>
<line x1="55" y1="163.5" x2="945" y2="163.5" stroke="#21262d"/>
<text x="47" y="167.47841744369111" text-anchor="end" fill="#484f58" font-size="10">2ms</text>
<line x1="55" y1="152.4" x2="945" y2="152.4" stroke="#21262d"/>
<text x="47" y="156.35533104753642" text-anchor="end" fill="#484f58" font-size="10">5ms</text>
<line x1="55" y1="143.9" x2="945" y2="143.9" stroke="#21262d"/>
<text x="47" y="147.941041012266" text-anchor="end" fill="#484f58" font-size="10">10ms</text>
<line x1="55" y1="135.5" x2="945" y2="135.5" stroke="#21262d"/>
<text x="47" y="139.52675097699557" text-anchor="end" fill="#484f58" font-size="10">20ms</text>
<line x1="55" y1="124.4" x2="945" y2="124.4" stroke="#21262d"/>
<text x="47" y="128.40366458084088" text-anchor="end" fill="#484f58" font-size="10">50ms</text>
<line x1="55" y1="116.0" x2="945" y2="116.0" stroke="#21262d"/>
<text x="47" y="119.98937454557048" text-anchor="end" fill="#484f58" font-size="10">100ms</text>
<line x1="84.7" y1="115" x2="84.7" y2="430" stroke="#30363d" stroke-width="1" stroke-dasharray="4,4"/>
<line x1="114.3" y1="115" x2="114.3" y2="430" stroke="#30363d" stroke-width="1" stroke-dasharray="4,4"/>
<line x1="144.0" y1="115" x2="144.0" y2="430" stroke="#30363d" stroke-width="1" stroke-dasharray="4,4"/>
<line x1="173.7" y1="115" x2="173.7" y2="430" stroke="#30363d" stroke-width="1" stroke-dasharray="4,4"/>
<line x1="203.3" y1="115" x2="203.3" y2="430" stroke="#30363d" stroke-width="1" stroke-dasharray="4,4"/>
<line x1="233.0" y1="115" x2="233.0" y2="430" stroke="#30363d" stroke-width="1" stroke-dasharray="4,4"/>
<line x1="262.7" y1="115" x2="262.7" y2="430" stroke="#30363d" stroke-width="1" stroke-dasharray="4,4"/>
<line x1="292.3" y1="115" x2="292.3" y2="430" stroke="#30363d" stroke-width="1" stroke-dasharray="4,4"/>
<line x1="322.0" y1="115" x2="322.0" y2="430" stroke="#30363d" stroke-width="1" stroke-dasharray="4,4"/>
<line x1="351.7" y1="115" x2="351.7" y2="430" stroke="#30363d" stroke-width="1" stroke-dasharray="4,4"/>
<line x1="381.3" y1="115" x2="381.3" y2="430" stroke="#30363d" stroke-width="1" stroke-dasharray="4,4"/>
<line x1="411.0" y1="115" x2="411.0" y2="430" stroke="#30363d" stroke-width="1" stroke-dasharray="4,4"/>
<line x1="440.7" y1="115" x2="440.7" y2="430" stroke="#30363d" stroke-width="1" stroke-dasharray="4,4"/>
<line x1="470.3" y1="115" x2="470.3" y2="430" stroke="#30363d" stroke-width="1" stroke-dasharray="4,4"/>
<line x1="500.0" y1="115" x2="500.0" y2="430" stroke="#30363d" stroke-width="1" stroke-dasharray="4,4"/>
<line x1="529.7" y1="115" x2="529.7" y2="430" stroke="#30363d" stroke-width="1" stroke-dasharray="4,4"/>
<line x1="559.3" y1="115" x2="559.3" y2="430" stroke="#30363d" stroke-width="1" stroke-dasharray="4,4"/>
<line x1="589.0" y1="115" x2="589.0" y2="430" stroke="#30363d" stroke-width="1" stroke-dasharray="4,4"/>
<line x1="618.7" y1="115" x2="618.7" y2="430" stroke="#30363d" stroke-width="1" stroke-dasharray="4,4"/>
<line x1="648.3" y1="115" x2="648.3" y2="430" stroke="#30363d" stroke-width="1" stroke-dasharray="4,4"/>
<line x1="678.0" y1="115" x2="678.0" y2="430" stroke="#30363d" stroke-width="1" stroke-dasharray="4,4"/>
<line x1="707.7" y1="115" x2="707.7" y2="430" stroke="#30363d" stroke-width="1" stroke-dasharray="4,4"/>
<line x1="737.3" y1="115" x2="737.3" y2="430" stroke="#30363d" stroke-width="1" stroke-dasharray="4,4"/>
<line x1="767.0" y1="115" x2="767.0" y2="430" stroke="#30363d" stroke-width="1" stroke-dasharray="4,4"/>
<line x1="796.7" y1="115" x2="796.7" y2="430" stroke="#30363d" stroke-width="1" stroke-dasharray="4,4"/>
<line x1="826.3" y1="115" x2="826.3" y2="430" stroke="#30363d" stroke-width="1" stroke-dasharray="4,4"/>
<line x1="856.0" y1="115" x2="856.0" y2="430" stroke="#30363d" stroke-width="1" stroke-dasharray="4,4"/>
<line x1="885.7" y1="115" x2="885.7" y2="430" stroke="#30363d" stroke-width="1" stroke-dasharray="4,4"/>
<line x1="915.3" y1="115" x2="915.3" y2="430" stroke="#30363d" stroke-width="1" stroke-dasharray="4,4"/>
<path d="M69.8,139.0 L99.5,139.1 L129.2,139.2 L158.8,194.3 L188.5,394.8 L218.2,139.3 L247.8,139.3 L277.5,139.3 L307.2,225.3 L336.8,425.7 L366.5,147.6 L396.2,147.6 L425.8,147.6 L455.5,224.4 L485.2,416.5 L514.8,132.1 L544.5,139.9 L574.2,146.7 L603.8,142.9 L633.5,342.7 L663.2,168.4 L692.8,167.6 L722.5,168.0 L752.2,197.2 L781.8,369.2 L811.5,119.9 L841.2,120.1 L870.8,120.0 L900.5,170.9 L930.2,390.4" fill="none" stroke="#58a6ff" stroke-width="8" stroke-linejoin="round" stroke-linecap="round" opacity="0.12"/>
<path d="M69.8,139.0 L99.5,139.1 L129.2,139.2 L158.8,194.3 L188.5,394.8 L218.2,139.3 L247.8,139.3 L277.5,139.3 L307.2,225.3 L336.8,425.7 L366.5,147.6 L396.2,147.6 L425.8,147.6 L455.5,224.4 L485.2,416.5 L514.8,132.1 L544.5,139.9 L574.2,146.7 L603.8,142.9 L633.5,342.7 L663.2,168.4 L692.8,167.6 L722.5,168.0 L752.2,197.2 L781.8,369.2 L811.5,119.9 L841.2,120.1 L870.8,120.0 L900.5,170.9 L930.2,390.4" fill="none" stroke="#58a6ff" stroke-width="3.5" stroke-linejoin="round" stroke-linecap="round"/>
<circle cx="69.8" cy="139.0" r="6" fill="#58a6ff" opacity="0.2"/>
<circle cx="69.8" cy="139.0" r="4" fill="#58a6ff" stroke="#0d1117" stroke-width="2.5"/>
<circle cx="99.5" cy="139.1" r="6" fill="#58a6ff" opacity="0.2"/>
<circle cx="99.5" cy="139.1" r="4" fill="#58a6ff" stroke="#0d1117" stroke-width="2.5"/>
<circle cx="129.2" cy="139.2" r="6" fill="#58a6ff" opacity="0.2"/>
<circle cx="129.2" cy="139.2" r="4" fill="#58a6ff" stroke="#0d1117" stroke-width="2.5"/>
<circle cx="158.8" cy="194.3" r="6" fill="#58a6ff" opacity="0.2"/>
<circle cx="158.8" cy="194.3" r="4" fill="#58a6ff" stroke="#0d1117" stroke-width="2.5"/>
<circle cx="188.5" cy="394.8" r="6" fill="#58a6ff" opacity="0.2"/>
<circle cx="188.5" cy="394.8" r="4" fill="#58a6ff" stroke="#0d1117" stroke-width="2.5"/>
<circle cx="218.2" cy="139.3" r="6" fill="#58a6ff" opacity="0.2"/>
<circle cx="218.2" cy="139.3" r="4" fill="#58a6ff" stroke="#0d1117" stroke-width="2.5"/>
<circle cx="247.8" cy="139.3" r="6" fill="#58a6ff" opacity="0.2"/>
<circle cx="247.8" cy="139.3" r="4" fill="#58a6ff" stroke="#0d1117" stroke-width="2.5"/>
<circle cx="277.5" cy="139.3" r="6" fill="#58a6ff" opacity="0.2"/>
<circle cx="277.5" cy="139.3" r="4" fill="#58a6ff" stroke="#0d1117" stroke-width="2.5"/>
<circle cx="307.2" cy="225.3" r="6" fill="#58a6ff" opacity="0.2"/>
<circle cx="307.2" cy="225.3" r="4" fill="#58a6ff" stroke="#0d1117" stroke-width="2.5"/>
<circle cx="336.8" cy="425.7" r="6" fill="#58a6ff" opacity="0.2"/>
<circle cx="336.8" cy="425.7" r="4" fill="#58a6ff" stroke="#0d1117" stroke-width="2.5"/>
<circle cx="366.5" cy="147.6" r="6" fill="#58a6ff" opacity="0.2"/>
<circle cx="366.5" cy="147.6" r="4" fill="#58a6ff" stroke="#0d1117" stroke-width="2.5"/>
<circle cx="396.2" cy="147.6" r="6" fill="#58a6ff" opacity="0.2"/>
<circle cx="396.2" cy="147.6" r="4" fill="#58a6ff" stroke="#0d1117" stroke-width="2.5"/>
<circle cx="425.8" cy="147.6" r="6" fill="#58a6ff" opacity="0.2"/>
<circle cx="425.8" cy="147.6" r="4" fill="#58a6ff" stroke="#0d1117" stroke-width="2.5"/>
<circle cx="455.5" cy="224.4" r="6" fill="#58a6ff" opacity="0.2"/>
<circle cx="455.5" cy="224.4" r="4" fill="#58a6ff" stroke="#0d1117" stroke-width="2.5"/>
<circle cx="485.2" cy="416.5" r="6" fill="#58a6ff" opacity="0.2"/>
<circle cx="485.2" cy="416.5" r="4" fill="#58a6ff" stroke="#0d1117" stroke-width="2.5"/>
<circle cx="514.8" cy="132.1" r="6" fill="#58a6ff" opacity="0.2"/>
<circle cx="514.8" cy="132.1" r="4" fill="#58a6ff" stroke="#0d1117" stroke-width="2.5"/>
<circle cx="544.5" cy="139.9" r="6" fill="#58a6ff" opacity="0.2"/>
<circle cx="544.5" cy="139.9" r="4" fill="#58a6ff" stroke="#0d1117" stroke-width="2.5"/>
<circle cx="574.2" cy="146.7" r="6" fill="#58a6ff" opacity="0.2"/>
<circle cx="574.2" cy="146.7" r="4" fill="#58a6ff" stroke="#0d1117" stroke-width="2.5"/>
<circle cx="603.8" cy="142.9" r="6" fill="#58a6ff" opacity="0.2"/>
<circle cx="603.8" cy="142.9" r="4" fill="#58a6ff" stroke="#0d1117" stroke-width="2.5"/>
<circle cx="633.5" cy="342.7" r="6" fill="#58a6ff" opacity="0.2"/>
<circle cx="633.5" cy="342.7" r="4" fill="#58a6ff" stroke="#0d1117" stroke-width="2.5"/>
<circle cx="663.2" cy="168.4" r="6" fill="#58a6ff" opacity="0.2"/>
<circle cx="663.2" cy="168.4" r="4" fill="#58a6ff" stroke="#0d1117" stroke-width="2.5"/>
<circle cx="692.8" cy="167.6" r="6" fill="#58a6ff" opacity="0.2"/>
<circle cx="692.8" cy="167.6" r="4" fill="#58a6ff" stroke="#0d1117" stroke-width="2.5"/>
<circle cx="722.5" cy="168.0" r="6" fill="#58a6ff" opacity="0.2"/>
<circle cx="722.5" cy="168.0" r="4" fill="#58a6ff" stroke="#0d1117" stroke-width="2.5"/>
<circle cx="752.2" cy="197.2" r="6" fill="#58a6ff" opacity="0.2"/>
<circle cx="752.2" cy="197.2" r="4" fill="#58a6ff" stroke="#0d1117" stroke-width="2.5"/>
<circle cx="781.8" cy="369.2" r="6" fill="#58a6ff" opacity="0.2"/>
<circle cx="781.8" cy="369.2" r="4" fill="#58a6ff" stroke="#0d1117" stroke-width="2.5"/>
<circle cx="811.5" cy="119.9" r="6" fill="#58a6ff" opacity="0.2"/>
<circle cx="811.5" cy="119.9" r="4" fill="#58a6ff" stroke="#0d1117" stroke-width="2.5"/>
<circle cx="841.2" cy="120.1" r="6" fill="#58a6ff" opacity="0.2"/>
<circle cx="841.2" cy="120.1" r="4" fill="#58a6ff" stroke="#0d1117" stroke-width="2.5"/>
<circle cx="870.8" cy="120.0" r="6" fill="#58a6ff" opacity="0.2"/>
<circle cx="870.8" cy="120.0" r="4" fill="#58a6ff" stroke="#0d1117" stroke-width="2.5"/>
<circle cx="900.5" cy="170.9" r="6" fill="#58a6ff" opacity="0.2"/>
<circle cx="900.5" cy="170.9" r="4" fill="#58a6ff" stroke="#0d1117" stroke-width="2.5"/>
<circle cx="930.2" cy="390.4" r="6" fill="#58a6ff" opacity="0.2"/>
<circle cx="930.2" cy="390.4" r="4" fill="#58a6ff" stroke="#0d1117" stroke-width="2.5"/>
<path d="M69.8,144.8 L99.5,144.9 L129.2,144.9 L158.8,209.4 L188.5,404.1 L218.2,144.5 L247.8,144.2 L277.5,144.5 L307.2,179.5 L336.8,375.0 L366.5,152.6 L396.2,152.5 L425.8,152.6 L455.5,214.2 L485.2,401.3 L514.8,152.7 L544.5,152.2 L574.2,152.3 L603.8,188.4 L633.5,375.9 L663.2,176.0 L692.8,176.1 L722.5,176.0 L752.2,230.5 L781.8,394.0 L811.5,144.8 L841.2,144.5 L870.8,144.4 L900.5,190.7 L930.2,385.8" fill="none" stroke="#FF9800" stroke-width="8" stroke-linejoin="round" stroke-linecap="round" opacity="0.12"/>
<path d="M69.8,144.8 L99.5,144.9 L129.2,144.9 L158.8,209.4 L188.5,404.1 L218.2,144.5 L247.8,144.2 L277.5,144.5 L307.2,179.5 L336.8,375.0 L366.5,152.6 L396.2,152.5 L425.8,152.6 L455.5,214.2 L485.2,401.3 L514.8,152.7 L544.5,152.2 L574.2,152.3 L603.8,188.4 L633.5,375.9 L663.2,176.0 L692.8,176.1 L722.5,176.0 L752.2,230.5 L781.8,394.0 L811.5,144.8 L841.2,144.5 L870.8,144.4 L900.5,190.7 L930.2,385.8" fill="none" stroke="#FF9800" stroke-width="3.5" stroke-linejoin="round" stroke-linecap="round"/>
<circle cx="69.8" cy="144.8" r="6" fill="#FF9800" opacity="0.2"/>
<circle cx="69.8" cy="144.8" r="4" fill="#FF9800" stroke="#0d1117" stroke-width="2.5"/>
<circle cx="99.5" cy="144.9" r="6" fill="#FF9800" opacity="0.2"/>
<circle cx="99.5" cy="144.9" r="4" fill="#FF9800" stroke="#0d1117" stroke-width="2.5"/>
<circle cx="129.2" cy="144.9" r="6" fill="#FF9800" opacity="0.2"/>
<circle cx="129.2" cy="144.9" r="4" fill="#FF9800" stroke="#0d1117" stroke-width="2.5"/>
<circle cx="158.8" cy="209.4" r="6" fill="#FF9800" opacity="0.2"/>
<circle cx="158.8" cy="209.4" r="4" fill="#FF9800" stroke="#0d1117" stroke-width="2.5"/>
<circle cx="188.5" cy="404.1" r="6" fill="#FF9800" opacity="0.2"/>
<circle cx="188.5" cy="404.1" r="4" fill="#FF9800" stroke="#0d1117" stroke-width="2.5"/>
<circle cx="218.2" cy="144.5" r="6" fill="#FF9800" opacity="0.2"/>
<circle cx="218.2" cy="144.5" r="4" fill="#FF9800" stroke="#0d1117" stroke-width="2.5"/>
<circle cx="247.8" cy="144.2" r="6" fill="#FF9800" opacity="0.2"/>
<circle cx="247.8" cy="144.2" r="4" fill="#FF9800" stroke="#0d1117" stroke-width="2.5"/>
<circle cx="277.5" cy="144.5" r="6" fill="#FF9800" opacity="0.2"/>
<circle cx="277.5" cy="144.5" r="4" fill="#FF9800" stroke="#0d1117" stroke-width="2.5"/>
<circle cx="307.2" cy="179.5" r="6" fill="#FF9800" opacity="0.2"/>
<circle cx="307.2" cy="179.5" r="4" fill="#FF9800" stroke="#0d1117" stroke-width="2.5"/>
<circle cx="336.8" cy="375.0" r="6" fill="#FF9800" opacity="0.2"/>
<circle cx="336.8" cy="375.0" r="4" fill="#FF9800" stroke="#0d1117" stroke-width="2.5"/>
<circle cx="366.5" cy="152.6" r="6" fill="#FF9800" opacity="0.2"/>
<circle cx="366.5" cy="152.6" r="4" fill="#FF9800" stroke="#0d1117" stroke-width="2.5"/>
<circle cx="396.2" cy="152.5" r="6" fill="#FF9800" opacity="0.2"/>
<circle cx="396.2" cy="152.5" r="4" fill="#FF9800" stroke="#0d1117" stroke-width="2.5"/>
<circle cx="425.8" cy="152.6" r="6" fill="#FF9800" opacity="0.2"/>
<circle cx="425.8" cy="152.6" r="4" fill="#FF9800" stroke="#0d1117" stroke-width="2.5"/>
<circle cx="455.5" cy="214.2" r="6" fill="#FF9800" opacity="0.2"/>
<circle cx="455.5" cy="214.2" r="4" fill="#FF9800" stroke="#0d1117" stroke-width="2.5"/>
<circle cx="485.2" cy="401.3" r="6" fill="#FF9800" opacity="0.2"/>
<circle cx="485.2" cy="401.3" r="4" fill="#FF9800" stroke="#0d1117" stroke-width="2.5"/>
<circle cx="514.8" cy="152.7" r="6" fill="#FF9800" opacity="0.2"/>
<circle cx="514.8" cy="152.7" r="4" fill="#FF9800" stroke="#0d1117" stroke-width="2.5"/>
<circle cx="544.5" cy="152.2" r="6" fill="#FF9800" opacity="0.2"/>
<circle cx="544.5" cy="152.2" r="4" fill="#FF9800" stroke="#0d1117" stroke-width="2.5"/>
<circle cx="574.2" cy="152.3" r="6" fill="#FF9800" opacity="0.2"/>
<circle cx="574.2" cy="152.3" r="4" fill="#FF9800" stroke="#0d1117" stroke-width="2.5"/>
<circle cx="603.8" cy="188.4" r="6" fill="#FF9800" opacity="0.2"/>
<circle cx="603.8" cy="188.4" r="4" fill="#FF9800" stroke="#0d1117" stroke-width="2.5"/>
<circle cx="633.5" cy="375.9" r="6" fill="#FF9800" opacity="0.2"/>
<circle cx="633.5" cy="375.9" r="4" fill="#FF9800" stroke="#0d1117" stroke-width="2.5"/>
<circle cx="663.2" cy="176.0" r="6" fill="#FF9800" opacity="0.2"/>
<circle cx="663.2" cy="176.0" r="4" fill="#FF9800" stroke="#0d1117" stroke-width="2.5"/>
<circle cx="692.8" cy="176.1" r="6" fill="#FF9800" opacity="0.2"/>
<circle cx="692.8" cy="176.1" r="4" fill="#FF9800" stroke="#0d1117" stroke-width="2.5"/>
<circle cx="722.5" cy="176.0" r="6" fill="#FF9800" opacity="0.2"/>
<circle cx="722.5" cy="176.0" r="4" fill="#FF9800" stroke="#0d1117" stroke-width="2.5"/>
<circle cx="752.2" cy="230.5" r="6" fill="#FF9800" opacity="0.2"/>
<circle cx="752.2" cy="230.5" r="4" fill="#FF9800" stroke="#0d1117" stroke-width="2.5"/>
<circle cx="781.8" cy="394.0" r="6" fill="#FF9800" opacity="0.2"/>
<circle cx="781.8" cy="394.0" r="4" fill="#FF9800" stroke="#0d1117" stroke-width="2.5"/>
<circle cx="811.5" cy="144.8" r="6" fill="#FF9800" opacity="0.2"/>
<circle cx="811.5" cy="144.8" r="4" fill="#FF9800" stroke="#0d1117" stroke-width="2.5"/>
<circle cx="841.2" cy="144.5" r="6" fill="#FF9800" opacity="0.2"/>
<circle cx="841.2" cy="144.5" r="4" fill="#FF9800" stroke="#0d1117" stroke-width="2.5"/>
<circle cx="870.8" cy="144.4" r="6" fill="#FF9800" opacity="0.2"/>
<circle cx="870.8" cy="144.4" r="4" fill="#FF9800" stroke="#0d1117" stroke-width="2.5"/>
<circle cx="900.5" cy="190.7" r="6" fill="#FF9800" opacity="0.2"/>
<circle cx="900.5" cy="190.7" r="4" fill="#FF9800" stroke="#0d1117" stroke-width="2.5"/>
<circle cx="930.2" cy="385.8" r="6" fill="#FF9800" opacity="0.2"/>
<circle cx="930.2" cy="385.8" r="4" fill="#FF9800" stroke="#0d1117" stroke-width="2.5"/>
<path d="M69.8,146.4 L99.5,146.5 L129.2,146.5 L158.8,205.5 L188.5,398.6 L218.2,144.5 L247.8,144.5 L277.5,144.6 L307.2,207.0 L336.8,402.0 L366.5,153.8 L396.2,153.7 L425.8,153.7 L455.5,206.3 L485.2,392.2 L514.8,153.9 L544.5,152.9 L574.2,153.0 L603.8,182.7 L633.5,369.4 L663.2,175.4 L692.8,175.4 L722.5,175.4 L752.2,229.7 L781.8,393.9 L811.5,146.5 L841.2,146.5 L870.8,146.5 L900.5,215.9 L930.2,409.0" fill="none" stroke="#4CAF50" stroke-width="8" stroke-linejoin="round" stroke-linecap="round" opacity="0.12"/>
<path d="M69.8,146.4 L99.5,146.5 L129.2,146.5 L158.8,205.5 L188.5,398.6 L218.2,144.5 L247.8,144.5 L277.5,144.6 L307.2,207.0 L336.8,402.0 L366.5,153.8 L396.2,153.7 L425.8,153.7 L455.5,206.3 L485.2,392.2 L514.8,153.9 L544.5,152.9 L574.2,153.0 L603.8,182.7 L633.5,369.4 L663.2,175.4 L692.8,175.4 L722.5,175.4 L752.2,229.7 L781.8,393.9 L811.5,146.5 L841.2,146.5 L870.8,146.5 L900.5,215.9 L930.2,409.0" fill="none" stroke="#4CAF50" stroke-width="3.5" stroke-linejoin="round" stroke-linecap="round"/>
<circle cx="69.8" cy="146.4" r="6" fill="#4CAF50" opacity="0.2"/>
<circle cx="69.8" cy="146.4" r="4" fill="#4CAF50" stroke="#0d1117" stroke-width="2.5"/>
<circle cx="99.5" cy="146.5" r="6" fill="#4CAF50" opacity="0.2"/>
<circle cx="99.5" cy="146.5" r="4" fill="#4CAF50" stroke="#0d1117" stroke-width="2.5"/>
<circle cx="129.2" cy="146.5" r="6" fill="#4CAF50" opacity="0.2"/>
<circle cx="129.2" cy="146.5" r="4" fill="#4CAF50" stroke="#0d1117" stroke-width="2.5"/>
<circle cx="158.8" cy="205.5" r="6" fill="#4CAF50" opacity="0.2"/>
<circle cx="158.8" cy="205.5" r="4" fill="#4CAF50" stroke="#0d1117" stroke-width="2.5"/>
<circle cx="188.5" cy="398.6" r="6" fill="#4CAF50" opacity="0.2"/>
<circle cx="188.5" cy="398.6" r="4" fill="#4CAF50" stroke="#0d1117" stroke-width="2.5"/>
<circle cx="218.2" cy="144.5" r="6" fill="#4CAF50" opacity="0.2"/>
<circle cx="218.2" cy="144.5" r="4" fill="#4CAF50" stroke="#0d1117" stroke-width="2.5"/>
<circle cx="247.8" cy="144.5" r="6" fill="#4CAF50" opacity="0.2"/>
<circle cx="247.8" cy="144.5" r="4" fill="#4CAF50" stroke="#0d1117" stroke-width="2.5"/>
<circle cx="277.5" cy="144.6" r="6" fill="#4CAF50" opacity="0.2"/>
<circle cx="277.5" cy="144.6" r="4" fill="#4CAF50" stroke="#0d1117" stroke-width="2.5"/>
<circle cx="307.2" cy="207.0" r="6" fill="#4CAF50" opacity="0.2"/>
<circle cx="307.2" cy="207.0" r="4" fill="#4CAF50" stroke="#0d1117" stroke-width="2.5"/>
<circle cx="336.8" cy="402.0" r="6" fill="#4CAF50" opacity="0.2"/>
<circle cx="336.8" cy="402.0" r="4" fill="#4CAF50" stroke="#0d1117" stroke-width="2.5"/>
<circle cx="366.5" cy="153.8" r="6" fill="#4CAF50" opacity="0.2"/>
<circle cx="366.5" cy="153.8" r="4" fill="#4CAF50" stroke="#0d1117" stroke-width="2.5"/>
<circle cx="396.2" cy="153.7" r="6" fill="#4CAF50" opacity="0.2"/>
<circle cx="396.2" cy="153.7" r="4" fill="#4CAF50" stroke="#0d1117" stroke-width="2.5"/>
<circle cx="425.8" cy="153.7" r="6" fill="#4CAF50" opacity="0.2"/>
<circle cx="425.8" cy="153.7" r="4" fill="#4CAF50" stroke="#0d1117" stroke-width="2.5"/>
<circle cx="455.5" cy="206.3" r="6" fill="#4CAF50" opacity="0.2"/>
<circle cx="455.5" cy="206.3" r="4" fill="#4CAF50" stroke="#0d1117" stroke-width="2.5"/>
<circle cx="485.2" cy="392.2" r="6" fill="#4CAF50" opacity="0.2"/>
<circle cx="485.2" cy="392.2" r="4" fill="#4CAF50" stroke="#0d1117" stroke-width="2.5"/>
<circle cx="514.8" cy="153.9" r="6" fill="#4CAF50" opacity="0.2"/>
<circle cx="514.8" cy="153.9" r="4" fill="#4CAF50" stroke="#0d1117" stroke-width="2.5"/>
<circle cx="544.5" cy="152.9" r="6" fill="#4CAF50" opacity="0.2"/>
<circle cx="544.5" cy="152.9" r="4" fill="#4CAF50" stroke="#0d1117" stroke-width="2.5"/>
<circle cx="574.2" cy="153.0" r="6" fill="#4CAF50" opacity="0.2"/>
<circle cx="574.2" cy="153.0" r="4" fill="#4CAF50" stroke="#0d1117" stroke-width="2.5"/>
<circle cx="603.8" cy="182.7" r="6" fill="#4CAF50" opacity="0.2"/>
<circle cx="603.8" cy="182.7" r="4" fill="#4CAF50" stroke="#0d1117" stroke-width="2.5"/>
<circle cx="633.5" cy="369.4" r="6" fill="#4CAF50" opacity="0.2"/>
<circle cx="633.5" cy="369.4" r="4" fill="#4CAF50" stroke="#0d1117" stroke-width="2.5"/>
<circle cx="663.2" cy="175.4" r="6" fill="#4CAF50" opacity="0.2"/>
<circle cx="663.2" cy="175.4" r="4" fill="#4CAF50" stroke="#0d1117" stroke-width="2.5"/>
<circle cx="692.8" cy="175.4" r="6" fill="#4CAF50" opacity="0.2"/>
<circle cx="692.8" cy="175.4" r="4" fill="#4CAF50" stroke="#0d1117" stroke-width="2.5"/>
<circle cx="722.5" cy="175.4" r="6" fill="#4CAF50" opacity="0.2"/>
<circle cx="722.5" cy="175.4" r="4" fill="#4CAF50" stroke="#0d1117" stroke-width="2.5"/>
<circle cx="752.2" cy="229.7" r="6" fill="#4CAF50" opacity="0.2"/>
<circle cx="752.2" cy="229.7" r="4" fill="#4CAF50" stroke="#0d1117" stroke-width="2.5"/>
<circle cx="781.8" cy="393.9" r="6" fill="#4CAF50" opacity="0.2"/>
<circle cx="781.8" cy="393.9" r="4" fill="#4CAF50" stroke="#0d1117" stroke-width="2.5"/>
<circle cx="811.5" cy="146.5" r="6" fill="#4CAF50" opacity="0.2"/>
<circle cx="811.5" cy="146.5" r="4" fill="#4CAF50" stroke="#0d1117" stroke-width="2.5"/>
<circle cx="841.2" cy="146.5" r="6" fill="#4CAF50" opacity="0.2"/>
<circle cx="841.2" cy="146.5" r="4" fill="#4CAF50" stroke="#0d1117" stroke-width="2.5"/>
<circle cx="870.8" cy="146.5" r="6" fill="#4CAF50" opacity="0.2"/>
<circle cx="870.8" cy="146.5" r="4" fill="#4CAF50" stroke="#0d1117" stroke-width="2.5"/>
<circle cx="900.5" cy="215.9" r="6" fill="#4CAF50" opacity="0.2"/>
<circle cx="900.5" cy="215.9" r="4" fill="#4CAF50" stroke="#0d1117" stroke-width="2.5"/>
<circle cx="930.2" cy="409.0" r="6" fill="#4CAF50" opacity="0.2"/>
<circle cx="930.2" cy="409.0" r="4" fill="#4CAF50" stroke="#0d1117" stroke-width="2.5"/>
<path d="M69.8,146.1 L99.5,146.2 L129.2,146.2 L158.8,209.7 L188.5,403.1 L218.2,144.7 L247.8,143.7 L277.5,144.7 L307.2,164.9 L336.8,360.8 L366.5,152.0 L396.2,151.9 L425.8,151.9 L455.5,207.2 L485.2,395.0 L514.8,154.1 L544.5,154.1 L574.2,154.1 L603.8,219.1 L633.5,404.6 L663.2,174.8 L692.8,173.0 L722.5,174.8 L752.2,190.0 L781.8,356.7 L811.5,146.3 L841.2,146.4 L870.8,146.5 L900.5,206.5 L930.2,399.7" fill="none" stroke="#BB86FC" stroke-width="8" stroke-linejoin="round" stroke-linecap="round" opacity="0.12"/>
<path d="M69.8,146.1 L99.5,146.2 L129.2,146.2 L158.8,209.7 L188.5,403.1 L218.2,144.7 L247.8,143.7 L277.5,144.7 L307.2,164.9 L336.8,360.8 L366.5,152.0 L396.2,151.9 L425.8,151.9 L455.5,207.2 L485.2,395.0 L514.8,154.1 L544.5,154.1 L574.2,154.1 L603.8,219.1 L633.5,404.6 L663.2,174.8 L692.8,173.0 L722.5,174.8 L752.2,190.0 L781.8,356.7 L811.5,146.3 L841.2,146.4 L870.8,146.5 L900.5,206.5 L930.2,399.7" fill="none" stroke="#BB86FC" stroke-width="3.5" stroke-linejoin="round" stroke-linecap="round"/>
<circle cx="69.8" cy="146.1" r="6" fill="#BB86FC" opacity="0.2"/>
<circle cx="69.8" cy="146.1" r="4" fill="#BB86FC" stroke="#0d1117" stroke-width="2.5"/>
<circle cx="99.5" cy="146.2" r="6" fill="#BB86FC" opacity="0.2"/>
<circle cx="99.5" cy="146.2" r="4" fill="#BB86FC" stroke="#0d1117" stroke-width="2.5"/>
<circle cx="129.2" cy="146.2" r="6" fill="#BB86FC" opacity="0.2"/>
<circle cx="129.2" cy="146.2" r="4" fill="#BB86FC" stroke="#0d1117" stroke-width="2.5"/>
<circle cx="158.8" cy="209.7" r="6" fill="#BB86FC" opacity="0.2"/>
<circle cx="158.8" cy="209.7" r="4" fill="#BB86FC" stroke="#0d1117" stroke-width="2.5"/>
<circle cx="188.5" cy="403.1" r="6" fill="#BB86FC" opacity="0.2"/>
<circle cx="188.5" cy="403.1" r="4" fill="#BB86FC" stroke="#0d1117" stroke-width="2.5"/>
<circle cx="218.2" cy="144.7" r="6" fill="#BB86FC" opacity="0.2"/>
<circle cx="218.2" cy="144.7" r="4" fill="#BB86FC" stroke="#0d1117" stroke-width="2.5"/>
<circle cx="247.8" cy="143.7" r="6" fill="#BB86FC" opacity="0.2"/>
<circle cx="247.8" cy="143.7" r="4" fill="#BB86FC" stroke="#0d1117" stroke-width="2.5"/>
<circle cx="277.5" cy="144.7" r="6" fill="#BB86FC" opacity="0.2"/>
<circle cx="277.5" cy="144.7" r="4" fill="#BB86FC" stroke="#0d1117" stroke-width="2.5"/>
<circle cx="307.2" cy="164.9" r="6" fill="#BB86FC" opacity="0.2"/>
<circle cx="307.2" cy="164.9" r="4" fill="#BB86FC" stroke="#0d1117" stroke-width="2.5"/>
<circle cx="336.8" cy="360.8" r="6" fill="#BB86FC" opacity="0.2"/>
<circle cx="336.8" cy="360.8" r="4" fill="#BB86FC" stroke="#0d1117" stroke-width="2.5"/>
<circle cx="366.5" cy="152.0" r="6" fill="#BB86FC" opacity="0.2"/>
<circle cx="366.5" cy="152.0" r="4" fill="#BB86FC" stroke="#0d1117" stroke-width="2.5"/>
<circle cx="396.2" cy="151.9" r="6" fill="#BB86FC" opacity="0.2"/>
<circle cx="396.2" cy="151.9" r="4" fill="#BB86FC" stroke="#0d1117" stroke-width="2.5"/>
<circle cx="425.8" cy="151.9" r="6" fill="#BB86FC" opacity="0.2"/>
<circle cx="425.8" cy="151.9" r="4" fill="#BB86FC" stroke="#0d1117" stroke-width="2.5"/>
<circle cx="455.5" cy="207.2" r="6" fill="#BB86FC" opacity="0.2"/>
<circle cx="455.5" cy="207.2" r="4" fill="#BB86FC" stroke="#0d1117" stroke-width="2.5"/>
<circle cx="485.2" cy="395.0" r="6" fill="#BB86FC" opacity="0.2"/>
<circle cx="485.2" cy="395.0" r="4" fill="#BB86FC" stroke="#0d1117" stroke-width="2.5"/>
<circle cx="514.8" cy="154.1" r="6" fill="#BB86FC" opacity="0.2"/>
<circle cx="514.8" cy="154.1" r="4" fill="#BB86FC" stroke="#0d1117" stroke-width="2.5"/>
<circle cx="544.5" cy="154.1" r="6" fill="#BB86FC" opacity="0.2"/>
<circle cx="544.5" cy="154.1" r="4" fill="#BB86FC" stroke="#0d1117" stroke-width="2.5"/>
<circle cx="574.2" cy="154.1" r="6" fill="#BB86FC" opacity="0.2"/>
<circle cx="574.2" cy="154.1" r="4" fill="#BB86FC" stroke="#0d1117" stroke-width="2.5"/>
<circle cx="603.8" cy="219.1" r="6" fill="#BB86FC" opacity="0.2"/>
<circle cx="603.8" cy="219.1" r="4" fill="#BB86FC" stroke="#0d1117" stroke-width="2.5"/>
<circle cx="633.5" cy="404.6" r="6" fill="#BB86FC" opacity="0.2"/>
<circle cx="633.5" cy="404.6" r="4" fill="#BB86FC" stroke="#0d1117" stroke-width="2.5"/>
<circle cx="663.2" cy="174.8" r="6" fill="#BB86FC" opacity="0.2"/>
<circle cx="663.2" cy="174.8" r="4" fill="#BB86FC" stroke="#0d1117" stroke-width="2.5"/>
<circle cx="692.8" cy="173.0" r="6" fill="#BB86FC" opacity="0.2"/>
<circle cx="692.8" cy="173.0" r="4" fill="#BB86FC" stroke="#0d1117" stroke-width="2.5"/>
<circle cx="722.5" cy="174.8" r="6" fill="#BB86FC" opacity="0.2"/>
<circle cx="722.5" cy="174.8" r="4" fill="#BB86FC" stroke="#0d1117" stroke-width="2.5"/>
<circle cx="752.2" cy="190.0" r="6" fill="#BB86FC" opacity="0.2"/>
<circle cx="752.2" cy="190.0" r="4" fill="#BB86FC" stroke="#0d1117" stroke-width="2.5"/>
<circle cx="781.8" cy="356.7" r="6" fill="#BB86FC" opacity="0.2"/>
<circle cx="781.8" cy="356.7" r="4" fill="#BB86FC" stroke="#0d1117" stroke-width="2.5"/>
<circle cx="811.5" cy="146.3" r="6" fill="#BB86FC" opacity="0.2"/>
<circle cx="811.5" cy="146.3" r="4" fill="#BB86FC" stroke="#0d1117" stroke-width="2.5"/>
<circle cx="841.2" cy="146.4" r="6" fill="#BB86FC" opacity="0.2"/>
<circle cx="841.2" cy="146.4" r="4" fill="#BB86FC" stroke="#0d1117" stroke-width="2.5"/>
<circle cx="870.8" cy="146.5" r="6" fill="#BB86FC" opacity="0.2"/>
<circle cx="870.8" cy="146.5" r="4" fill="#BB86FC" stroke="#0d1117" stroke-width="2.5"/>
<circle cx="900.5" cy="206.5" r="6" fill="#BB86FC" opacity="0.2"/>
<circle cx="900.5" cy="206.5" r="4" fill="#BB86FC" stroke="#0d1117" stroke-width="2.5"/>
<circle cx="930.2" cy="399.7" r="6" fill="#BB86FC" opacity="0.2"/>
<circle cx="930.2" cy="399.7" r="4" fill="#BB86FC" stroke="#0d1117" stroke-width="2.5"/>
<path d="M69.8,145.6 L99.5,145.7 L129.2,145.8 L158.8,202.6 L188.5,396.5 L218.2,144.9 L247.8,144.6 L277.5,144.5 L307.2,187.5 L336.8,382.5 L366.5,153.8 L396.2,153.5 L425.8,153.4 L455.5,198.3 L485.2,384.4 L514.8,153.9 L544.5,153.8 L574.2,153.8 L603.8,210.6 L633.5,396.4 L663.2,176.0 L692.8,175.8 L722.5,176.0 L752.2,221.1 L781.8,384.9 L811.5,145.7 L841.2,145.8 L870.8,145.8 L900.5,205.9 L930.2,399.7" fill="none" stroke="#F472B6" stroke-width="8" stroke-linejoin="round" stroke-linecap="round" opacity="0.12"/>
<path d="M69.8,145.6 L99.5,145.7 L129.2,145.8 L158.8,202.6 L188.5,396.5 L218.2,144.9 L247.8,144.6 L277.5,144.5 L307.2,187.5 L336.8,382.5 L366.5,153.8 L396.2,153.5 L425.8,153.4 L455.5,198.3 L485.2,384.4 L514.8,153.9 L544.5,153.8 L574.2,153.8 L603.8,210.6 L633.5,396.4 L663.2,176.0 L692.8,175.8 L722.5,176.0 L752.2,221.1 L781.8,384.9 L811.5,145.7 L841.2,145.8 L870.8,145.8 L900.5,205.9 L930.2,399.7" fill="none" stroke="#F472B6" stroke-width="3.5" stroke-linejoin="round" stroke-linecap="round"/>
<circle cx="69.8" cy="145.6" r="6" fill="#F472B6" opacity="0.2"/>
<circle cx="69.8" cy="145.6" r="4" fill="#F472B6" stroke="#0d1117" stroke-width="2.5"/>
<circle cx="99.5" cy="145.7" r="6" fill="#F472B6" opacity="0.2"/>
<circle cx="99.5" cy="145.7" r="4" fill="#F472B6" stroke="#0d1117" stroke-width="2.5"/>
<circle cx="129.2" cy="145.8" r="6" fill="#F472B6" opacity="0.2"/>
<circle cx="129.2" cy="145.8" r="4" fill="#F472B6" stroke="#0d1117" stroke-width="2.5"/>
<circle cx="158.8" cy="202.6" r="6" fill="#F472B6" opacity="0.2"/>
<circle cx="158.8" cy="202.6" r="4" fill="#F472B6" stroke="#0d1117" stroke-width="2.5"/>
<circle cx="188.5" cy="396.5" r="6" fill="#F472B6" opacity="0.2"/>
<circle cx="188.5" cy="396.5" r="4" fill="#F472B6" stroke="#0d1117" stroke-width="2.5"/>
<circle cx="218.2" cy="144.9" r="6" fill="#F472B6" opacity="0.2"/>
<circle cx="218.2" cy="144.9" r="4" fill="#F472B6" stroke="#0d1117" stroke-width="2.5"/>
<circle cx="247.8" cy="144.6" r="6" fill="#F472B6" opacity="0.2"/>
<circle cx="247.8" cy="144.6" r="4" fill="#F472B6" stroke="#0d1117" stroke-width="2.5"/>
<circle cx="277.5" cy="144.5" r="6" fill="#F472B6" opacity="0.2"/>
<circle cx="277.5" cy="144.5" r="4" fill="#F472B6" stroke="#0d1117" stroke-width="2.5"/>
<circle cx="307.2" cy="187.5" r="6" fill="#F472B6" opacity="0.2"/>
<circle cx="307.2" cy="187.5" r="4" fill="#F472B6" stroke="#0d1117" stroke-width="2.5"/>
<circle cx="336.8" cy="382.5" r="6" fill="#F472B6" opacity="0.2"/>
<circle cx="336.8" cy="382.5" r="4" fill="#F472B6" stroke="#0d1117" stroke-width="2.5"/>
<circle cx="366.5" cy="153.8" r="6" fill="#F472B6" opacity="0.2"/>
<circle cx="366.5" cy="153.8" r="4" fill="#F472B6" stroke="#0d1117" stroke-width="2.5"/>
<circle cx="396.2" cy="153.5" r="6" fill="#F472B6" opacity="0.2"/>
<circle cx="396.2" cy="153.5" r="4" fill="#F472B6" stroke="#0d1117" stroke-width="2.5"/>
<circle cx="425.8" cy="153.4" r="6" fill="#F472B6" opacity="0.2"/>
<circle cx="425.8" cy="153.4" r="4" fill="#F472B6" stroke="#0d1117" stroke-width="2.5"/>
<circle cx="455.5" cy="198.3" r="6" fill="#F472B6" opacity="0.2"/>
<circle cx="455.5" cy="198.3" r="4" fill="#F472B6" stroke="#0d1117" stroke-width="2.5"/>
<circle cx="485.2" cy="384.4" r="6" fill="#F472B6" opacity="0.2"/>
<circle cx="485.2" cy="384.4" r="4" fill="#F472B6" stroke="#0d1117" stroke-width="2.5"/>
<circle cx="514.8" cy="153.9" r="6" fill="#F472B6" opacity="0.2"/>
<circle cx="514.8" cy="153.9" r="4" fill="#F472B6" stroke="#0d1117" stroke-width="2.5"/>
<circle cx="544.5" cy="153.8" r="6" fill="#F472B6" opacity="0.2"/>
<circle cx="544.5" cy="153.8" r="4" fill="#F472B6" stroke="#0d1117" stroke-width="2.5"/>
<circle cx="574.2" cy="153.8" r="6" fill="#F472B6" opacity="0.2"/>
<circle cx="574.2" cy="153.8" r="4" fill="#F472B6" stroke="#0d1117" stroke-width="2.5"/>
<circle cx="603.8" cy="210.6" r="6" fill="#F472B6" opacity="0.2"/>
<circle cx="603.8" cy="210.6" r="4" fill="#F472B6" stroke="#0d1117" stroke-width="2.5"/>
<circle cx="633.5" cy="396.4" r="6" fill="#F472B6" opacity="0.2"/>
<circle cx="633.5" cy="396.4" r="4" fill="#F472B6" stroke="#0d1117" stroke-width="2.5"/>
<circle cx="663.2" cy="176.0" r="6" fill="#F472B6" opacity="0.2"/>
<circle cx="663.2" cy="176.0" r="4" fill="#F472B6" stroke="#0d1117" stroke-width="2.5"/>
<circle cx="692.8" cy="175.8" r="6" fill="#F472B6" opacity="0.2"/>
<circle cx="692.8" cy="175.8" r="4" fill="#F472B6" stroke="#0d1117" stroke-width="2.5"/>
<circle cx="722.5" cy="176.0" r="6" fill="#F472B6" opacity="0.2"/>
<circle cx="722.5" cy="176.0" r="4" fill="#F472B6" stroke="#0d1117" stroke-width="2.5"/>
<circle cx="752.2" cy="221.1" r="6" fill="#F472B6" opacity="0.2"/>
<circle cx="752.2" cy="221.1" r="4" fill="#F472B6" stroke="#0d1117" stroke-width="2.5"/>
<circle cx="781.8" cy="384.9" r="6" fill="#F472B6" opacity="0.2"/>
<circle cx="781.8" cy="384.9" r="4" fill="#F472B6" stroke="#0d1117" stroke-width="2.5"/>
<circle cx="811.5" cy="145.7" r="6" fill="#F472B6" opacity="0.2"/>
<circle cx="811.5" cy="145.7" r="4" fill="#F472B6" stroke="#0d1117" stroke-width="2.5"/>
<circle cx="841.2" cy="145.8" r="6" fill="#F472B6" opacity="0.2"/>
<circle cx="841.2" cy="145.8" r="4" fill="#F472B6" stroke="#0d1117" stroke-width="2.5"/>
<circle cx="870.8" cy="145.8" r="6" fill="#F472B6" opacity="0.2"/>
<circle cx="870.8" cy="145.8" r="4" fill="#F472B6" stroke="#0d1117" stroke-width="2.5"/>
<circle cx="900.5" cy="205.9" r="6" fill="#F472B6" opacity="0.2"/>
<circle cx="900.5" cy="205.9" r="4" fill="#F472B6" stroke="#0d1117" stroke-width="2.5"/>
<circle cx="930.2" cy="399.7" r="6" fill="#F472B6" opacity="0.2"/>
<circle cx="930.2" cy="399.7" r="4" fill="#F472B6" stroke="#0d1117" stroke-width="2.5"/>
<text x="69.8" y="448" text-anchor="end" fill="#8b949e" font-size="11" transform="rotate(-30,69.8,448)">push_back</text>
<text x="99.5" y="448" text-anchor="end" fill="#8b949e" font-size="11" transform="rotate(-30,99.5,448)">push_back_mean</text>
<text x="129.2" y="448" text-anchor="end" fill="#8b949e" font-size="11" transform="rotate(-30,129.2,448)">push_back_median</text>
<text x="158.8" y="448" text-anchor="end" fill="#8b949e" font-size="11" transform="rotate(-30,158.8,448)">push_back_stddev</text>
<text x="188.5" y="448" text-anchor="end" fill="#8b949e" font-size="11" transform="rotate(-30,188.5,448)">push_back_cv</text>
<text x="218.2" y="448" text-anchor="end" fill="#8b949e" font-size="11" transform="rotate(-30,218.2,448)">push_front</text>
<text x="247.8" y="448" text-anchor="end" fill="#8b949e" font-size="11" transform="rotate(-30,247.8,448)">push_front_mean</text>
<text x="277.5" y="448" text-anchor="end" fill="#8b949e" font-size="11" transform="rotate(-30,277.5,448)">push_front_median</text>
<text x="307.2" y="448" text-anchor="end" fill="#8b949e" font-size="11" transform="rotate(-30,307.2,448)">push_front_stddev</text>
<text x="336.8" y="448" text-anchor="end" fill="#8b949e" font-size="11" transform="rotate(-30,336.8,448)">push_front_cv</text>
<text x="366.5" y="448" text-anchor="end" fill="#8b949e" font-size="11" transform="rotate(-30,366.5,448)">insert_middle</text>
<text x="396.2" y="448" text-anchor="end" fill="#8b949e" font-size="11" transform="rotate(-30,396.2,448)">insert_middle_mean</text>
<text x="425.8" y="448" text-anchor="end" fill="#8b949e" font-size="11" transform="rotate(-30,425.8,448)">insert_middle_median</text>
<text x="455.5" y="448" text-anchor="end" fill="#8b949e" font-size="11" transform="rotate(-30,455.5,448)">insert_middle_stddev</text>
<text x="485.2" y="448" text-anchor="end" fill="#8b949e" font-size="11" transform="rotate(-30,485.2,448)">insert_middle_cv</text>
<text x="514.8" y="448" text-anchor="end" fill="#8b949e" font-size="11" transform="rotate(-30,514.8,448)">erase_middle</text>
<text x="544.5" y="448" text-anchor="end" fill="#8b949e" font-size="11" transform="rotate(-30,544.5,448)">erase_middle_mean</text>
<text x="574.2" y="448" text-anchor="end" fill="#8b949e" font-size="11" transform="rotate(-30,574.2,448)">erase_middle_median</text>
<text x="603.8" y="448" text-anchor="end" fill="#8b949e" font-size="11" transform="rotate(-30,603.8,448)">erase_middle_stddev</text>
<text x="633.5" y="448" text-anchor="end" fill="#8b949e" font-size="11" transform="rotate(-30,633.5,448)">erase_middle_cv</text>
<text x="663.2" y="448" text-anchor="end" fill="#8b949e" font-size="11" transform="rotate(-30,663.2,448)">iterate</text>
<text x="692.8" y="448" text-anchor="end" fill="#8b949e" font-size="11" transform="rotate(-30,692.8,448)">iterate_mean</text>
<text x="722.5" y="448" text-anchor="end" fill="#8b949e" font-size="11" transform="rotate(-30,722.5,448)">iterate_median</text>
<text x="752.2" y="448" text-anchor="end" fill="#8b949e" font-size="11" transform="rotate(-30,752.2,448)">iterate_stddev</text>
<text x="781.8" y="448" text-anchor="end" fill="#8b949e" font-size="11" transform="rotate(-30,781.8,448)">iterate_cv</text>
<text x="811.5" y="448" text-anchor="end" fill="#8b949e" font-size="11" transform="rotate(-30,811.5,448)">clear</text>
<text x="841.2" y="448" text-anchor="end" fill="#8b949e" font-size="11" transform="rotate(-30,841.2,448)">clear_mean</text>
<text x="870.8" y="448" text-anchor="end" fill="#8b949e" font-size="11" transform="rotate(-30,870.8,448)">clear_median</text>
<text x="900.5" y="448" text-anchor="end" fill="#8b949e" font-size="11" transform="rotate(-30,900.5,448)">clear_stddev</text>
<text x="930.2" y="448" text-anchor="end" fill="#8b949e" font-size="11" transform="rotate(-30,930.2,448)">clear_cv</text>
<text x="14" y="272.5" text-anchor="middle" fill="#484f58" font-size="11" transform="rotate(-90,14,272.5)">Time (ms)</text>
<circle cx="65" cy="69" r="5" fill="#58a6ff"/>
<text x="75" y="73" fill="#c9d1d9" font-size="12">RG::LIST</text>
<circle cx="220" cy="69" r="5" fill="#FF9800"/>
<text x="230" y="73" fill="#c9d1d9" font-size="12">std::list</text>
<circle cx="375" cy="69" r="5" fill="#4CAF50"/>
<text x="385" y="73" fill="#c9d1d9" font-size="12">std::forward_list</text>
<circle cx="530" cy="69" r="5" fill="#BB86FC"/>
<text x="540" y="73" fill="#c9d1d9" font-size="12">boost::list</text>
<circle cx="685" cy="69" r="5" fill="#F472B6"/>
<text x="695" y="73" fill="#c9d1d9" font-size="12">eastl::list</text>
<text x="480.0" y="20" text-anchor="middle" fill="#58a6ff" font-size="15" font-weight="700">RG::LIST Benchmark — 2026-05-30</text>
</svg>