<svg xmlns="http://www.w3.org/2000/svg" viewBox="0 0 960 500" font-family="-apple-system,BlinkMacSystemFont,Segoe UI,sans-serif">
<rect width="960" height="500" rx="10" fill="#0d1117"/>
<rect x="55" y="115" width="890" height="315" fill="#161b22" rx="4"/>
<line x1="55" y1="421.7" x2="945" y2="421.7" stroke="#21262d"/>
<text x="47" y="425.65524740624903" text-anchor="end" fill="#484f58" font-size="10">0µs</text>
<line x1="55" y1="412.8" x2="945" y2="412.8" stroke="#21262d"/>
<text x="47" y="416.79161927654457" text-anchor="end" fill="#484f58" font-size="10">0µs</text>
<line x1="55" y1="401.1" x2="945" y2="401.1" stroke="#21262d"/>
<text x="47" y="405.07454022925435" text-anchor="end" fill="#484f58" font-size="10">0µs</text>
<line x1="55" y1="392.2" x2="945" y2="392.2" stroke="#21262d"/>
<text x="47" y="396.2109120995499" text-anchor="end" fill="#484f58" font-size="10">0µs</text>
<line x1="55" y1="383.3" x2="945" y2="383.3" stroke="#21262d"/>
<text x="47" y="387.34728396984536" text-anchor="end" fill="#484f58" font-size="10">0µs</text>
<line x1="55" y1="371.6" x2="945" y2="371.6" stroke="#21262d"/>
<text x="47" y="375.63020492255515" text-anchor="end" fill="#484f58" font-size="10">0µs</text>
<line x1="55" y1="362.8" x2="945" y2="362.8" stroke="#21262d"/>
<text x="47" y="366.76657679285074" text-anchor="end" fill="#484f58" font-size="10">0µs</text>
<line x1="55" y1="353.9" x2="945" y2="353.9" stroke="#21262d"/>
<text x="47" y="357.9029486631462" text-anchor="end" fill="#484f58" font-size="10">0µs</text>
<line x1="55" y1="342.2" x2="945" y2="342.2" stroke="#21262d"/>
<text x="47" y="346.18586961585595" text-anchor="end" fill="#484f58" font-size="10">0µs</text>
<line x1="55" y1="333.3" x2="945" y2="333.3" stroke="#21262d"/>
<text x="47" y="337.3222414861515" text-anchor="end" fill="#484f58" font-size="10">0µs</text>
<line x1="55" y1="324.5" x2="945" y2="324.5" stroke="#21262d"/>
<text x="47" y="328.4586133564471" text-anchor="end" fill="#484f58" font-size="10">0µs</text>
<line x1="55" y1="312.7" x2="945" y2="312.7" stroke="#21262d"/>
<text x="47" y="316.7415343091568" text-anchor="end" fill="#484f58" font-size="10">0µs</text>
<line x1="55" y1="303.9" x2="945" y2="303.9" stroke="#21262d"/>
<text x="47" y="307.87790617945234" text-anchor="end" fill="#484f58" font-size="10">0µs</text>
<line x1="55" y1="295.0" x2="945" y2="295.0" stroke="#21262d"/>
<text x="47" y="299.0142780497479" text-anchor="end" fill="#484f58" font-size="10">0µs</text>
<line x1="55" y1="283.3" x2="945" y2="283.3" stroke="#21262d"/>
<text x="47" y="287.29719900245766" text-anchor="end" fill="#484f58" font-size="10">0µs</text>
<line x1="55" y1="274.4" x2="945" y2="274.4" stroke="#21262d"/>
<text x="47" y="278.4335708727532" text-anchor="end" fill="#484f58" font-size="10">0µs</text>
<line x1="55" y1="265.6" x2="945" y2="265.6" stroke="#21262d"/>
<text x="47" y="269.5699427430487" text-anchor="end" fill="#484f58" font-size="10">0µs</text>
<line x1="55" y1="253.9" x2="945" y2="253.9" stroke="#21262d"/>
<text x="47" y="257.8528636957584" text-anchor="end" fill="#484f58" font-size="10">0µs</text>
<line x1="55" y1="245.0" x2="945" y2="245.0" stroke="#21262d"/>
<text x="47" y="248.989235566054" text-anchor="end" fill="#484f58" font-size="10">1µs</text>
<line x1="55" y1="236.1" x2="945" y2="236.1" stroke="#21262d"/>
<text x="47" y="240.12560743634953" text-anchor="end" fill="#484f58" font-size="10">2µs</text>
<line x1="55" y1="224.4" x2="945" y2="224.4" stroke="#21262d"/>
<text x="47" y="228.40852838905928" text-anchor="end" fill="#484f58" font-size="10">5µs</text>
<line x1="55" y1="215.5" x2="945" y2="215.5" stroke="#21262d"/>
<text x="47" y="219.5449002593548" text-anchor="end" fill="#484f58" font-size="10">10µs</text>
<line x1="55" y1="206.7" x2="945" y2="206.7" stroke="#21262d"/>
<text x="47" y="210.68127212965032" text-anchor="end" fill="#484f58" font-size="10">20µs</text>
<line x1="55" y1="195.0" x2="945" y2="195.0" stroke="#21262d"/>
<text x="47" y="198.96419308236008" text-anchor="end" fill="#484f58" font-size="10">50µs</text>
<line x1="55" y1="186.1" x2="945" y2="186.1" stroke="#21262d"/>
<text x="47" y="190.10056495265565" text-anchor="end" fill="#484f58" font-size="10">100µs</text>
<line x1="55" y1="177.2" x2="945" y2="177.2" stroke="#21262d"/>
<text x="47" y="181.23693682295118" text-anchor="end" fill="#484f58" font-size="10">200µs</text>
<line x1="55" y1="165.5" x2="945" y2="165.5" stroke="#21262d"/>
<text x="47" y="169.5198577756609" text-anchor="end" fill="#484f58" font-size="10">500µs</text>
<line x1="55" y1="156.7" x2="945" y2="156.7" stroke="#21262d"/>
<text x="47" y="160.65622964595644" text-anchor="end" fill="#484f58" font-size="10">1ms</text>
<line x1="55" y1="147.8" x2="945" y2="147.8" stroke="#21262d"/>
<text x="47" y="151.79260151625198" text-anchor="end" fill="#484f58" font-size="10">2ms</text>
<line x1="55" y1="136.1" x2="945" y2="136.1" stroke="#21262d"/>
<text x="47" y="140.07552246896176" text-anchor="end" fill="#484f58" font-size="10">5ms</text>
<line x1="55" y1="127.2" x2="945" y2="127.2" stroke="#21262d"/>
<text x="47" y="131.21189433925724" text-anchor="end" fill="#484f58" font-size="10">10ms</text>
<line x1="55" y1="118.3" x2="945" y2="118.3" stroke="#21262d"/>
<text x="47" y="122.3482662095528" text-anchor="end" fill="#484f58" font-size="10">20ms</text>
<line x1="84.7" y1="115" x2="84.7" y2="430" stroke="#30363d" stroke-width="1" stroke-dasharray="4,4"/>
<line x1="114.3" y1="115" x2="114.3" y2="430" stroke="#30363d" stroke-width="1" stroke-dasharray="4,4"/>
<line x1="144.0" y1="115" x2="144.0" y2="430" stroke="#30363d" stroke-width="1" stroke-dasharray="4,4"/>
<line x1="173.7" y1="115" x2="173.7" y2="430" stroke="#30363d" stroke-width="1" stroke-dasharray="4,4"/>
<line x1="203.3" y1="115" x2="203.3" y2="430" stroke="#30363d" stroke-width="1" stroke-dasharray="4,4"/>
<line x1="233.0" y1="115" x2="233.0" y2="430" stroke="#30363d" stroke-width="1" stroke-dasharray="4,4"/>
<line x1="262.7" y1="115" x2="262.7" y2="430" stroke="#30363d" stroke-width="1" stroke-dasharray="4,4"/>
<line x1="292.3" y1="115" x2="292.3" y2="430" stroke="#30363d" stroke-width="1" stroke-dasharray="4,4"/>
<line x1="322.0" y1="115" x2="322.0" y2="430" stroke="#30363d" stroke-width="1" stroke-dasharray="4,4"/>
<line x1="351.7" y1="115" x2="351.7" y2="430" stroke="#30363d" stroke-width="1" stroke-dasharray="4,4"/>
<line x1="381.3" y1="115" x2="381.3" y2="430" stroke="#30363d" stroke-width="1" stroke-dasharray="4,4"/>
<line x1="411.0" y1="115" x2="411.0" y2="430" stroke="#30363d" stroke-width="1" stroke-dasharray="4,4"/>
<line x1="440.7" y1="115" x2="440.7" y2="430" stroke="#30363d" stroke-width="1" stroke-dasharray="4,4"/>
<line x1="470.3" y1="115" x2="470.3" y2="430" stroke="#30363d" stroke-width="1" stroke-dasharray="4,4"/>
<line x1="500.0" y1="115" x2="500.0" y2="430" stroke="#30363d" stroke-width="1" stroke-dasharray="4,4"/>
<line x1="529.7" y1="115" x2="529.7" y2="430" stroke="#30363d" stroke-width="1" stroke-dasharray="4,4"/>
<line x1="559.3" y1="115" x2="559.3" y2="430" stroke="#30363d" stroke-width="1" stroke-dasharray="4,4"/>
<line x1="589.0" y1="115" x2="589.0" y2="430" stroke="#30363d" stroke-width="1" stroke-dasharray="4,4"/>
<line x1="618.7" y1="115" x2="618.7" y2="430" stroke="#30363d" stroke-width="1" stroke-dasharray="4,4"/>
<line x1="648.3" y1="115" x2="648.3" y2="430" stroke="#30363d" stroke-width="1" stroke-dasharray="4,4"/>
<line x1="678.0" y1="115" x2="678.0" y2="430" stroke="#30363d" stroke-width="1" stroke-dasharray="4,4"/>
<line x1="707.7" y1="115" x2="707.7" y2="430" stroke="#30363d" stroke-width="1" stroke-dasharray="4,4"/>
<line x1="737.3" y1="115" x2="737.3" y2="430" stroke="#30363d" stroke-width="1" stroke-dasharray="4,4"/>
<line x1="767.0" y1="115" x2="767.0" y2="430" stroke="#30363d" stroke-width="1" stroke-dasharray="4,4"/>
<line x1="796.7" y1="115" x2="796.7" y2="430" stroke="#30363d" stroke-width="1" stroke-dasharray="4,4"/>
<line x1="826.3" y1="115" x2="826.3" y2="430" stroke="#30363d" stroke-width="1" stroke-dasharray="4,4"/>
<line x1="856.0" y1="115" x2="856.0" y2="430" stroke="#30363d" stroke-width="1" stroke-dasharray="4,4"/>
<line x1="885.7" y1="115" x2="885.7" y2="430" stroke="#30363d" stroke-width="1" stroke-dasharray="4,4"/>
<line x1="915.3" y1="115" x2="915.3" y2="430" stroke="#30363d" stroke-width="1" stroke-dasharray="4,4"/>
<path d="M69.8,147.0 L99.5,146.9 L129.2,147.0 L158.8,216.5 L188.5,402.9 L218.2,146.2 L247.8,147.2 L277.5,147.6 L307.2,182.2 L336.8,368.3 L366.5,160.2 L396.2,160.1 L425.8,160.2 L455.5,210.9 L485.2,384.1 L514.8,159.6 L544.5,159.3 L574.2,159.4 L603.8,207.3 L633.5,381.2 L663.2,159.6 L692.8,159.6 L722.5,159.6 L752.2,251.7 L781.8,425.4 L811.5,145.7 L841.2,146.1 L870.8,145.8 L900.5,184.8 L930.2,372.0" fill="none" stroke="#58a6ff" stroke-width="8" stroke-linejoin="round" stroke-linecap="round" opacity="0.12"/>
<path d="M69.8,147.0 L99.5,146.9 L129.2,147.0 L158.8,216.5 L188.5,402.9 L218.2,146.2 L247.8,147.2 L277.5,147.6 L307.2,182.2 L336.8,368.3 L366.5,160.2 L396.2,160.1 L425.8,160.2 L455.5,210.9 L485.2,384.1 L514.8,159.6 L544.5,159.3 L574.2,159.4 L603.8,207.3 L633.5,381.2 L663.2,159.6 L692.8,159.6 L722.5,159.6 L752.2,251.7 L781.8,425.4 L811.5,145.7 L841.2,146.1 L870.8,145.8 L900.5,184.8 L930.2,372.0" fill="none" stroke="#58a6ff" stroke-width="3.5" stroke-linejoin="round" stroke-linecap="round"/>
<circle cx="69.8" cy="147.0" r="6" fill="#58a6ff" opacity="0.2"/>
<circle cx="69.8" cy="147.0" r="4" fill="#58a6ff" stroke="#0d1117" stroke-width="2.5"/>
<circle cx="99.5" cy="146.9" r="6" fill="#58a6ff" opacity="0.2"/>
<circle cx="99.5" cy="146.9" r="4" fill="#58a6ff" stroke="#0d1117" stroke-width="2.5"/>
<circle cx="129.2" cy="147.0" r="6" fill="#58a6ff" opacity="0.2"/>
<circle cx="129.2" cy="147.0" r="4" fill="#58a6ff" stroke="#0d1117" stroke-width="2.5"/>
<circle cx="158.8" cy="216.5" r="6" fill="#58a6ff" opacity="0.2"/>
<circle cx="158.8" cy="216.5" r="4" fill="#58a6ff" stroke="#0d1117" stroke-width="2.5"/>
<circle cx="188.5" cy="402.9" r="6" fill="#58a6ff" opacity="0.2"/>
<circle cx="188.5" cy="402.9" r="4" fill="#58a6ff" stroke="#0d1117" stroke-width="2.5"/>
<circle cx="218.2" cy="146.2" r="6" fill="#58a6ff" opacity="0.2"/>
<circle cx="218.2" cy="146.2" r="4" fill="#58a6ff" stroke="#0d1117" stroke-width="2.5"/>
<circle cx="247.8" cy="147.2" r="6" fill="#58a6ff" opacity="0.2"/>
<circle cx="247.8" cy="147.2" r="4" fill="#58a6ff" stroke="#0d1117" stroke-width="2.5"/>
<circle cx="277.5" cy="147.6" r="6" fill="#58a6ff" opacity="0.2"/>
<circle cx="277.5" cy="147.6" r="4" fill="#58a6ff" stroke="#0d1117" stroke-width="2.5"/>
<circle cx="307.2" cy="182.2" r="6" fill="#58a6ff" opacity="0.2"/>
<circle cx="307.2" cy="182.2" r="4" fill="#58a6ff" stroke="#0d1117" stroke-width="2.5"/>
<circle cx="336.8" cy="368.3" r="6" fill="#58a6ff" opacity="0.2"/>
<circle cx="336.8" cy="368.3" r="4" fill="#58a6ff" stroke="#0d1117" stroke-width="2.5"/>
<circle cx="366.5" cy="160.2" r="6" fill="#58a6ff" opacity="0.2"/>
<circle cx="366.5" cy="160.2" r="4" fill="#58a6ff" stroke="#0d1117" stroke-width="2.5"/>
<circle cx="396.2" cy="160.1" r="6" fill="#58a6ff" opacity="0.2"/>
<circle cx="396.2" cy="160.1" r="4" fill="#58a6ff" stroke="#0d1117" stroke-width="2.5"/>
<circle cx="425.8" cy="160.2" r="6" fill="#58a6ff" opacity="0.2"/>
<circle cx="425.8" cy="160.2" r="4" fill="#58a6ff" stroke="#0d1117" stroke-width="2.5"/>
<circle cx="455.5" cy="210.9" r="6" fill="#58a6ff" opacity="0.2"/>
<circle cx="455.5" cy="210.9" r="4" fill="#58a6ff" stroke="#0d1117" stroke-width="2.5"/>
<circle cx="485.2" cy="384.1" r="6" fill="#58a6ff" opacity="0.2"/>
<circle cx="485.2" cy="384.1" r="4" fill="#58a6ff" stroke="#0d1117" stroke-width="2.5"/>
<circle cx="514.8" cy="159.6" r="6" fill="#58a6ff" opacity="0.2"/>
<circle cx="514.8" cy="159.6" r="4" fill="#58a6ff" stroke="#0d1117" stroke-width="2.5"/>
<circle cx="544.5" cy="159.3" r="6" fill="#58a6ff" opacity="0.2"/>
<circle cx="544.5" cy="159.3" r="4" fill="#58a6ff" stroke="#0d1117" stroke-width="2.5"/>
<circle cx="574.2" cy="159.4" r="6" fill="#58a6ff" opacity="0.2"/>
<circle cx="574.2" cy="159.4" r="4" fill="#58a6ff" stroke="#0d1117" stroke-width="2.5"/>
<circle cx="603.8" cy="207.3" r="6" fill="#58a6ff" opacity="0.2"/>
<circle cx="603.8" cy="207.3" r="4" fill="#58a6ff" stroke="#0d1117" stroke-width="2.5"/>
<circle cx="633.5" cy="381.2" r="6" fill="#58a6ff" opacity="0.2"/>
<circle cx="633.5" cy="381.2" r="4" fill="#58a6ff" stroke="#0d1117" stroke-width="2.5"/>
<circle cx="663.2" cy="159.6" r="6" fill="#58a6ff" opacity="0.2"/>
<circle cx="663.2" cy="159.6" r="4" fill="#58a6ff" stroke="#0d1117" stroke-width="2.5"/>
<circle cx="692.8" cy="159.6" r="6" fill="#58a6ff" opacity="0.2"/>
<circle cx="692.8" cy="159.6" r="4" fill="#58a6ff" stroke="#0d1117" stroke-width="2.5"/>
<circle cx="722.5" cy="159.6" r="6" fill="#58a6ff" opacity="0.2"/>
<circle cx="722.5" cy="159.6" r="4" fill="#58a6ff" stroke="#0d1117" stroke-width="2.5"/>
<circle cx="752.2" cy="251.7" r="6" fill="#58a6ff" opacity="0.2"/>
<circle cx="752.2" cy="251.7" r="4" fill="#58a6ff" stroke="#0d1117" stroke-width="2.5"/>
<circle cx="781.8" cy="425.4" r="6" fill="#58a6ff" opacity="0.2"/>
<circle cx="781.8" cy="425.4" r="4" fill="#58a6ff" stroke="#0d1117" stroke-width="2.5"/>
<circle cx="811.5" cy="145.7" r="6" fill="#58a6ff" opacity="0.2"/>
<circle cx="811.5" cy="145.7" r="4" fill="#58a6ff" stroke="#0d1117" stroke-width="2.5"/>
<circle cx="841.2" cy="146.1" r="6" fill="#58a6ff" opacity="0.2"/>
<circle cx="841.2" cy="146.1" r="4" fill="#58a6ff" stroke="#0d1117" stroke-width="2.5"/>
<circle cx="870.8" cy="145.8" r="6" fill="#58a6ff" opacity="0.2"/>
<circle cx="870.8" cy="145.8" r="4" fill="#58a6ff" stroke="#0d1117" stroke-width="2.5"/>
<circle cx="900.5" cy="184.8" r="6" fill="#58a6ff" opacity="0.2"/>
<circle cx="900.5" cy="184.8" r="4" fill="#58a6ff" stroke="#0d1117" stroke-width="2.5"/>
<circle cx="930.2" cy="372.0" r="6" fill="#58a6ff" opacity="0.2"/>
<circle cx="930.2" cy="372.0" r="4" fill="#58a6ff" stroke="#0d1117" stroke-width="2.5"/>
<path d="M69.8,121.0 L99.5,120.9 L129.2,121.0 L158.8,182.6 L188.5,395.0 L218.2,120.9 L247.8,120.4 L277.5,120.2 L307.2,164.0 L336.8,376.9 L366.5,130.2 L396.2,130.1 L425.8,130.0 L455.5,193.8 L485.2,397.0 L514.8,130.4 L544.5,130.4 L574.2,130.4 L603.8,220.6 L633.5,423.5 L663.2,159.7 L692.8,159.7 L722.5,159.7 L752.2,231.5 L781.8,405.1 L811.5,121.3 L841.2,121.2 L870.8,121.2 L900.5,183.9 L930.2,396.0" fill="none" stroke="#FF9800" stroke-width="8" stroke-linejoin="round" stroke-linecap="round" opacity="0.12"/>
<path d="M69.8,121.0 L99.5,120.9 L129.2,121.0 L158.8,182.6 L188.5,395.0 L218.2,120.9 L247.8,120.4 L277.5,120.2 L307.2,164.0 L336.8,376.9 L366.5,130.2 L396.2,130.1 L425.8,130.0 L455.5,193.8 L485.2,397.0 L514.8,130.4 L544.5,130.4 L574.2,130.4 L603.8,220.6 L633.5,423.5 L663.2,159.7 L692.8,159.7 L722.5,159.7 L752.2,231.5 L781.8,405.1 L811.5,121.3 L841.2,121.2 L870.8,121.2 L900.5,183.9 L930.2,396.0" fill="none" stroke="#FF9800" stroke-width="3.5" stroke-linejoin="round" stroke-linecap="round"/>
<circle cx="69.8" cy="121.0" r="6" fill="#FF9800" opacity="0.2"/>
<circle cx="69.8" cy="121.0" r="4" fill="#FF9800" stroke="#0d1117" stroke-width="2.5"/>
<circle cx="99.5" cy="120.9" r="6" fill="#FF9800" opacity="0.2"/>
<circle cx="99.5" cy="120.9" r="4" fill="#FF9800" stroke="#0d1117" stroke-width="2.5"/>
<circle cx="129.2" cy="121.0" r="6" fill="#FF9800" opacity="0.2"/>
<circle cx="129.2" cy="121.0" r="4" fill="#FF9800" stroke="#0d1117" stroke-width="2.5"/>
<circle cx="158.8" cy="182.6" r="6" fill="#FF9800" opacity="0.2"/>
<circle cx="158.8" cy="182.6" r="4" fill="#FF9800" stroke="#0d1117" stroke-width="2.5"/>
<circle cx="188.5" cy="395.0" r="6" fill="#FF9800" opacity="0.2"/>
<circle cx="188.5" cy="395.0" r="4" fill="#FF9800" stroke="#0d1117" stroke-width="2.5"/>
<circle cx="218.2" cy="120.9" r="6" fill="#FF9800" opacity="0.2"/>
<circle cx="218.2" cy="120.9" r="4" fill="#FF9800" stroke="#0d1117" stroke-width="2.5"/>
<circle cx="247.8" cy="120.4" r="6" fill="#FF9800" opacity="0.2"/>
<circle cx="247.8" cy="120.4" r="4" fill="#FF9800" stroke="#0d1117" stroke-width="2.5"/>
<circle cx="277.5" cy="120.2" r="6" fill="#FF9800" opacity="0.2"/>
<circle cx="277.5" cy="120.2" r="4" fill="#FF9800" stroke="#0d1117" stroke-width="2.5"/>
<circle cx="307.2" cy="164.0" r="6" fill="#FF9800" opacity="0.2"/>
<circle cx="307.2" cy="164.0" r="4" fill="#FF9800" stroke="#0d1117" stroke-width="2.5"/>
<circle cx="336.8" cy="376.9" r="6" fill="#FF9800" opacity="0.2"/>
<circle cx="336.8" cy="376.9" r="4" fill="#FF9800" stroke="#0d1117" stroke-width="2.5"/>
<circle cx="366.5" cy="130.2" r="6" fill="#FF9800" opacity="0.2"/>
<circle cx="366.5" cy="130.2" r="4" fill="#FF9800" stroke="#0d1117" stroke-width="2.5"/>
<circle cx="396.2" cy="130.1" r="6" fill="#FF9800" opacity="0.2"/>
<circle cx="396.2" cy="130.1" r="4" fill="#FF9800" stroke="#0d1117" stroke-width="2.5"/>
<circle cx="425.8" cy="130.0" r="6" fill="#FF9800" opacity="0.2"/>
<circle cx="425.8" cy="130.0" r="4" fill="#FF9800" stroke="#0d1117" stroke-width="2.5"/>
<circle cx="455.5" cy="193.8" r="6" fill="#FF9800" opacity="0.2"/>
<circle cx="455.5" cy="193.8" r="4" fill="#FF9800" stroke="#0d1117" stroke-width="2.5"/>
<circle cx="485.2" cy="397.0" r="6" fill="#FF9800" opacity="0.2"/>
<circle cx="485.2" cy="397.0" r="4" fill="#FF9800" stroke="#0d1117" stroke-width="2.5"/>
<circle cx="514.8" cy="130.4" r="6" fill="#FF9800" opacity="0.2"/>
<circle cx="514.8" cy="130.4" r="4" fill="#FF9800" stroke="#0d1117" stroke-width="2.5"/>
<circle cx="544.5" cy="130.4" r="6" fill="#FF9800" opacity="0.2"/>
<circle cx="544.5" cy="130.4" r="4" fill="#FF9800" stroke="#0d1117" stroke-width="2.5"/>
<circle cx="574.2" cy="130.4" r="6" fill="#FF9800" opacity="0.2"/>
<circle cx="574.2" cy="130.4" r="4" fill="#FF9800" stroke="#0d1117" stroke-width="2.5"/>
<circle cx="603.8" cy="220.6" r="6" fill="#FF9800" opacity="0.2"/>
<circle cx="603.8" cy="220.6" r="4" fill="#FF9800" stroke="#0d1117" stroke-width="2.5"/>
<circle cx="633.5" cy="423.5" r="6" fill="#FF9800" opacity="0.2"/>
<circle cx="633.5" cy="423.5" r="4" fill="#FF9800" stroke="#0d1117" stroke-width="2.5"/>
<circle cx="663.2" cy="159.7" r="6" fill="#FF9800" opacity="0.2"/>
<circle cx="663.2" cy="159.7" r="4" fill="#FF9800" stroke="#0d1117" stroke-width="2.5"/>
<circle cx="692.8" cy="159.7" r="6" fill="#FF9800" opacity="0.2"/>
<circle cx="692.8" cy="159.7" r="4" fill="#FF9800" stroke="#0d1117" stroke-width="2.5"/>
<circle cx="722.5" cy="159.7" r="6" fill="#FF9800" opacity="0.2"/>
<circle cx="722.5" cy="159.7" r="4" fill="#FF9800" stroke="#0d1117" stroke-width="2.5"/>
<circle cx="752.2" cy="231.5" r="6" fill="#FF9800" opacity="0.2"/>
<circle cx="752.2" cy="231.5" r="4" fill="#FF9800" stroke="#0d1117" stroke-width="2.5"/>
<circle cx="781.8" cy="405.1" r="6" fill="#FF9800" opacity="0.2"/>
<circle cx="781.8" cy="405.1" r="4" fill="#FF9800" stroke="#0d1117" stroke-width="2.5"/>
<circle cx="811.5" cy="121.3" r="6" fill="#FF9800" opacity="0.2"/>
<circle cx="811.5" cy="121.3" r="4" fill="#FF9800" stroke="#0d1117" stroke-width="2.5"/>
<circle cx="841.2" cy="121.2" r="6" fill="#FF9800" opacity="0.2"/>
<circle cx="841.2" cy="121.2" r="4" fill="#FF9800" stroke="#0d1117" stroke-width="2.5"/>
<circle cx="870.8" cy="121.2" r="6" fill="#FF9800" opacity="0.2"/>
<circle cx="870.8" cy="121.2" r="4" fill="#FF9800" stroke="#0d1117" stroke-width="2.5"/>
<circle cx="900.5" cy="183.9" r="6" fill="#FF9800" opacity="0.2"/>
<circle cx="900.5" cy="183.9" r="4" fill="#FF9800" stroke="#0d1117" stroke-width="2.5"/>
<circle cx="930.2" cy="396.0" r="6" fill="#FF9800" opacity="0.2"/>
<circle cx="930.2" cy="396.0" r="4" fill="#FF9800" stroke="#0d1117" stroke-width="2.5"/>
<path d="M69.8,121.9 L99.5,122.0 L129.2,121.9 L158.8,182.7 L188.5,394.1 L218.2,122.5 L247.8,122.4 L277.5,122.4 L307.2,189.6 L336.8,400.6 L366.5,131.1 L396.2,131.0 L425.8,131.1 L455.5,189.4 L485.2,391.7 L514.8,131.0 L544.5,131.2 L574.2,131.3 L603.8,184.2 L633.5,386.3 L663.2,159.6 L692.8,159.6 L722.5,159.6 L752.2,226.6 L781.8,400.3 L811.5,122.2 L841.2,122.2 L870.8,122.2 L900.5,194.3 L930.2,405.5" fill="none" stroke="#4CAF50" stroke-width="8" stroke-linejoin="round" stroke-linecap="round" opacity="0.12"/>
<path d="M69.8,121.9 L99.5,122.0 L129.2,121.9 L158.8,182.7 L188.5,394.1 L218.2,122.5 L247.8,122.4 L277.5,122.4 L307.2,189.6 L336.8,400.6 L366.5,131.1 L396.2,131.0 L425.8,131.1 L455.5,189.4 L485.2,391.7 L514.8,131.0 L544.5,131.2 L574.2,131.3 L603.8,184.2 L633.5,386.3 L663.2,159.6 L692.8,159.6 L722.5,159.6 L752.2,226.6 L781.8,400.3 L811.5,122.2 L841.2,122.2 L870.8,122.2 L900.5,194.3 L930.2,405.5" fill="none" stroke="#4CAF50" stroke-width="3.5" stroke-linejoin="round" stroke-linecap="round"/>
<circle cx="69.8" cy="121.9" r="6" fill="#4CAF50" opacity="0.2"/>
<circle cx="69.8" cy="121.9" r="4" fill="#4CAF50" stroke="#0d1117" stroke-width="2.5"/>
<circle cx="99.5" cy="122.0" r="6" fill="#4CAF50" opacity="0.2"/>
<circle cx="99.5" cy="122.0" r="4" fill="#4CAF50" stroke="#0d1117" stroke-width="2.5"/>
<circle cx="129.2" cy="121.9" r="6" fill="#4CAF50" opacity="0.2"/>
<circle cx="129.2" cy="121.9" r="4" fill="#4CAF50" stroke="#0d1117" stroke-width="2.5"/>
<circle cx="158.8" cy="182.7" r="6" fill="#4CAF50" opacity="0.2"/>
<circle cx="158.8" cy="182.7" r="4" fill="#4CAF50" stroke="#0d1117" stroke-width="2.5"/>
<circle cx="188.5" cy="394.1" r="6" fill="#4CAF50" opacity="0.2"/>
<circle cx="188.5" cy="394.1" r="4" fill="#4CAF50" stroke="#0d1117" stroke-width="2.5"/>
<circle cx="218.2" cy="122.5" r="6" fill="#4CAF50" opacity="0.2"/>
<circle cx="218.2" cy="122.5" r="4" fill="#4CAF50" stroke="#0d1117" stroke-width="2.5"/>
<circle cx="247.8" cy="122.4" r="6" fill="#4CAF50" opacity="0.2"/>
<circle cx="247.8" cy="122.4" r="4" fill="#4CAF50" stroke="#0d1117" stroke-width="2.5"/>
<circle cx="277.5" cy="122.4" r="6" fill="#4CAF50" opacity="0.2"/>
<circle cx="277.5" cy="122.4" r="4" fill="#4CAF50" stroke="#0d1117" stroke-width="2.5"/>
<circle cx="307.2" cy="189.6" r="6" fill="#4CAF50" opacity="0.2"/>
<circle cx="307.2" cy="189.6" r="4" fill="#4CAF50" stroke="#0d1117" stroke-width="2.5"/>
<circle cx="336.8" cy="400.6" r="6" fill="#4CAF50" opacity="0.2"/>
<circle cx="336.8" cy="400.6" r="4" fill="#4CAF50" stroke="#0d1117" stroke-width="2.5"/>
<circle cx="366.5" cy="131.1" r="6" fill="#4CAF50" opacity="0.2"/>
<circle cx="366.5" cy="131.1" r="4" fill="#4CAF50" stroke="#0d1117" stroke-width="2.5"/>
<circle cx="396.2" cy="131.0" r="6" fill="#4CAF50" opacity="0.2"/>
<circle cx="396.2" cy="131.0" r="4" fill="#4CAF50" stroke="#0d1117" stroke-width="2.5"/>
<circle cx="425.8" cy="131.1" r="6" fill="#4CAF50" opacity="0.2"/>
<circle cx="425.8" cy="131.1" r="4" fill="#4CAF50" stroke="#0d1117" stroke-width="2.5"/>
<circle cx="455.5" cy="189.4" r="6" fill="#4CAF50" opacity="0.2"/>
<circle cx="455.5" cy="189.4" r="4" fill="#4CAF50" stroke="#0d1117" stroke-width="2.5"/>
<circle cx="485.2" cy="391.7" r="6" fill="#4CAF50" opacity="0.2"/>
<circle cx="485.2" cy="391.7" r="4" fill="#4CAF50" stroke="#0d1117" stroke-width="2.5"/>
<circle cx="514.8" cy="131.0" r="6" fill="#4CAF50" opacity="0.2"/>
<circle cx="514.8" cy="131.0" r="4" fill="#4CAF50" stroke="#0d1117" stroke-width="2.5"/>
<circle cx="544.5" cy="131.2" r="6" fill="#4CAF50" opacity="0.2"/>
<circle cx="544.5" cy="131.2" r="4" fill="#4CAF50" stroke="#0d1117" stroke-width="2.5"/>
<circle cx="574.2" cy="131.3" r="6" fill="#4CAF50" opacity="0.2"/>
<circle cx="574.2" cy="131.3" r="4" fill="#4CAF50" stroke="#0d1117" stroke-width="2.5"/>
<circle cx="603.8" cy="184.2" r="6" fill="#4CAF50" opacity="0.2"/>
<circle cx="603.8" cy="184.2" r="4" fill="#4CAF50" stroke="#0d1117" stroke-width="2.5"/>
<circle cx="633.5" cy="386.3" r="6" fill="#4CAF50" opacity="0.2"/>
<circle cx="633.5" cy="386.3" r="4" fill="#4CAF50" stroke="#0d1117" stroke-width="2.5"/>
<circle cx="663.2" cy="159.6" r="6" fill="#4CAF50" opacity="0.2"/>
<circle cx="663.2" cy="159.6" r="4" fill="#4CAF50" stroke="#0d1117" stroke-width="2.5"/>
<circle cx="692.8" cy="159.6" r="6" fill="#4CAF50" opacity="0.2"/>
<circle cx="692.8" cy="159.6" r="4" fill="#4CAF50" stroke="#0d1117" stroke-width="2.5"/>
<circle cx="722.5" cy="159.6" r="6" fill="#4CAF50" opacity="0.2"/>
<circle cx="722.5" cy="159.6" r="4" fill="#4CAF50" stroke="#0d1117" stroke-width="2.5"/>
<circle cx="752.2" cy="226.6" r="6" fill="#4CAF50" opacity="0.2"/>
<circle cx="752.2" cy="226.6" r="4" fill="#4CAF50" stroke="#0d1117" stroke-width="2.5"/>
<circle cx="781.8" cy="400.3" r="6" fill="#4CAF50" opacity="0.2"/>
<circle cx="781.8" cy="400.3" r="4" fill="#4CAF50" stroke="#0d1117" stroke-width="2.5"/>
<circle cx="811.5" cy="122.2" r="6" fill="#4CAF50" opacity="0.2"/>
<circle cx="811.5" cy="122.2" r="4" fill="#4CAF50" stroke="#0d1117" stroke-width="2.5"/>
<circle cx="841.2" cy="122.2" r="6" fill="#4CAF50" opacity="0.2"/>
<circle cx="841.2" cy="122.2" r="4" fill="#4CAF50" stroke="#0d1117" stroke-width="2.5"/>
<circle cx="870.8" cy="122.2" r="6" fill="#4CAF50" opacity="0.2"/>
<circle cx="870.8" cy="122.2" r="4" fill="#4CAF50" stroke="#0d1117" stroke-width="2.5"/>
<circle cx="900.5" cy="194.3" r="6" fill="#4CAF50" opacity="0.2"/>
<circle cx="900.5" cy="194.3" r="4" fill="#4CAF50" stroke="#0d1117" stroke-width="2.5"/>
<circle cx="930.2" cy="405.5" r="6" fill="#4CAF50" opacity="0.2"/>
<circle cx="930.2" cy="405.5" r="4" fill="#4CAF50" stroke="#0d1117" stroke-width="2.5"/>
<path d="M69.8,121.8 L99.5,121.8 L129.2,121.8 L158.8,196.8 L188.5,408.4 L218.2,122.2 L247.8,122.2 L277.5,122.2 L307.2,211.5 L336.8,422.6 L366.5,131.1 L396.2,131.2 L425.8,131.2 L455.5,220.2 L485.2,422.4 L514.8,131.3 L544.5,131.3 L574.2,131.4 L603.8,210.7 L633.5,412.7 L663.2,159.7 L692.8,159.6 L722.5,159.7 L752.2,218.6 L781.8,392.3 L811.5,122.1 L841.2,122.2 L870.8,122.2 L900.5,181.3 L930.2,392.4" fill="none" stroke="#BB86FC" stroke-width="8" stroke-linejoin="round" stroke-linecap="round" opacity="0.12"/>
<path d="M69.8,121.8 L99.5,121.8 L129.2,121.8 L158.8,196.8 L188.5,408.4 L218.2,122.2 L247.8,122.2 L277.5,122.2 L307.2,211.5 L336.8,422.6 L366.5,131.1 L396.2,131.2 L425.8,131.2 L455.5,220.2 L485.2,422.4 L514.8,131.3 L544.5,131.3 L574.2,131.4 L603.8,210.7 L633.5,412.7 L663.2,159.7 L692.8,159.6 L722.5,159.7 L752.2,218.6 L781.8,392.3 L811.5,122.1 L841.2,122.2 L870.8,122.2 L900.5,181.3 L930.2,392.4" fill="none" stroke="#BB86FC" stroke-width="3.5" stroke-linejoin="round" stroke-linecap="round"/>
<circle cx="69.8" cy="121.8" r="6" fill="#BB86FC" opacity="0.2"/>
<circle cx="69.8" cy="121.8" r="4" fill="#BB86FC" stroke="#0d1117" stroke-width="2.5"/>
<circle cx="99.5" cy="121.8" r="6" fill="#BB86FC" opacity="0.2"/>
<circle cx="99.5" cy="121.8" r="4" fill="#BB86FC" stroke="#0d1117" stroke-width="2.5"/>
<circle cx="129.2" cy="121.8" r="6" fill="#BB86FC" opacity="0.2"/>
<circle cx="129.2" cy="121.8" r="4" fill="#BB86FC" stroke="#0d1117" stroke-width="2.5"/>
<circle cx="158.8" cy="196.8" r="6" fill="#BB86FC" opacity="0.2"/>
<circle cx="158.8" cy="196.8" r="4" fill="#BB86FC" stroke="#0d1117" stroke-width="2.5"/>
<circle cx="188.5" cy="408.4" r="6" fill="#BB86FC" opacity="0.2"/>
<circle cx="188.5" cy="408.4" r="4" fill="#BB86FC" stroke="#0d1117" stroke-width="2.5"/>
<circle cx="218.2" cy="122.2" r="6" fill="#BB86FC" opacity="0.2"/>
<circle cx="218.2" cy="122.2" r="4" fill="#BB86FC" stroke="#0d1117" stroke-width="2.5"/>
<circle cx="247.8" cy="122.2" r="6" fill="#BB86FC" opacity="0.2"/>
<circle cx="247.8" cy="122.2" r="4" fill="#BB86FC" stroke="#0d1117" stroke-width="2.5"/>
<circle cx="277.5" cy="122.2" r="6" fill="#BB86FC" opacity="0.2"/>
<circle cx="277.5" cy="122.2" r="4" fill="#BB86FC" stroke="#0d1117" stroke-width="2.5"/>
<circle cx="307.2" cy="211.5" r="6" fill="#BB86FC" opacity="0.2"/>
<circle cx="307.2" cy="211.5" r="4" fill="#BB86FC" stroke="#0d1117" stroke-width="2.5"/>
<circle cx="336.8" cy="422.6" r="6" fill="#BB86FC" opacity="0.2"/>
<circle cx="336.8" cy="422.6" r="4" fill="#BB86FC" stroke="#0d1117" stroke-width="2.5"/>
<circle cx="366.5" cy="131.1" r="6" fill="#BB86FC" opacity="0.2"/>
<circle cx="366.5" cy="131.1" r="4" fill="#BB86FC" stroke="#0d1117" stroke-width="2.5"/>
<circle cx="396.2" cy="131.2" r="6" fill="#BB86FC" opacity="0.2"/>
<circle cx="396.2" cy="131.2" r="4" fill="#BB86FC" stroke="#0d1117" stroke-width="2.5"/>
<circle cx="425.8" cy="131.2" r="6" fill="#BB86FC" opacity="0.2"/>
<circle cx="425.8" cy="131.2" r="4" fill="#BB86FC" stroke="#0d1117" stroke-width="2.5"/>
<circle cx="455.5" cy="220.2" r="6" fill="#BB86FC" opacity="0.2"/>
<circle cx="455.5" cy="220.2" r="4" fill="#BB86FC" stroke="#0d1117" stroke-width="2.5"/>
<circle cx="485.2" cy="422.4" r="6" fill="#BB86FC" opacity="0.2"/>
<circle cx="485.2" cy="422.4" r="4" fill="#BB86FC" stroke="#0d1117" stroke-width="2.5"/>
<circle cx="514.8" cy="131.3" r="6" fill="#BB86FC" opacity="0.2"/>
<circle cx="514.8" cy="131.3" r="4" fill="#BB86FC" stroke="#0d1117" stroke-width="2.5"/>
<circle cx="544.5" cy="131.3" r="6" fill="#BB86FC" opacity="0.2"/>
<circle cx="544.5" cy="131.3" r="4" fill="#BB86FC" stroke="#0d1117" stroke-width="2.5"/>
<circle cx="574.2" cy="131.4" r="6" fill="#BB86FC" opacity="0.2"/>
<circle cx="574.2" cy="131.4" r="4" fill="#BB86FC" stroke="#0d1117" stroke-width="2.5"/>
<circle cx="603.8" cy="210.7" r="6" fill="#BB86FC" opacity="0.2"/>
<circle cx="603.8" cy="210.7" r="4" fill="#BB86FC" stroke="#0d1117" stroke-width="2.5"/>
<circle cx="633.5" cy="412.7" r="6" fill="#BB86FC" opacity="0.2"/>
<circle cx="633.5" cy="412.7" r="4" fill="#BB86FC" stroke="#0d1117" stroke-width="2.5"/>
<circle cx="663.2" cy="159.7" r="6" fill="#BB86FC" opacity="0.2"/>
<circle cx="663.2" cy="159.7" r="4" fill="#BB86FC" stroke="#0d1117" stroke-width="2.5"/>
<circle cx="692.8" cy="159.6" r="6" fill="#BB86FC" opacity="0.2"/>
<circle cx="692.8" cy="159.6" r="4" fill="#BB86FC" stroke="#0d1117" stroke-width="2.5"/>
<circle cx="722.5" cy="159.7" r="6" fill="#BB86FC" opacity="0.2"/>
<circle cx="722.5" cy="159.7" r="4" fill="#BB86FC" stroke="#0d1117" stroke-width="2.5"/>
<circle cx="752.2" cy="218.6" r="6" fill="#BB86FC" opacity="0.2"/>
<circle cx="752.2" cy="218.6" r="4" fill="#BB86FC" stroke="#0d1117" stroke-width="2.5"/>
<circle cx="781.8" cy="392.3" r="6" fill="#BB86FC" opacity="0.2"/>
<circle cx="781.8" cy="392.3" r="4" fill="#BB86FC" stroke="#0d1117" stroke-width="2.5"/>
<circle cx="811.5" cy="122.1" r="6" fill="#BB86FC" opacity="0.2"/>
<circle cx="811.5" cy="122.1" r="4" fill="#BB86FC" stroke="#0d1117" stroke-width="2.5"/>
<circle cx="841.2" cy="122.2" r="6" fill="#BB86FC" opacity="0.2"/>
<circle cx="841.2" cy="122.2" r="4" fill="#BB86FC" stroke="#0d1117" stroke-width="2.5"/>
<circle cx="870.8" cy="122.2" r="6" fill="#BB86FC" opacity="0.2"/>
<circle cx="870.8" cy="122.2" r="4" fill="#BB86FC" stroke="#0d1117" stroke-width="2.5"/>
<circle cx="900.5" cy="181.3" r="6" fill="#BB86FC" opacity="0.2"/>
<circle cx="900.5" cy="181.3" r="4" fill="#BB86FC" stroke="#0d1117" stroke-width="2.5"/>
<circle cx="930.2" cy="392.4" r="6" fill="#BB86FC" opacity="0.2"/>
<circle cx="930.2" cy="392.4" r="4" fill="#BB86FC" stroke="#0d1117" stroke-width="2.5"/>
<path d="M69.8,122.6 L99.5,122.7 L129.2,122.7 L158.8,184.3 L188.5,394.9 L218.2,123.4 L247.8,123.4 L277.5,123.4 L307.2,200.2 L336.8,410.1 L366.5,132.1 L396.2,132.0 L425.8,132.1 L455.5,180.2 L485.2,381.6 L514.8,132.4 L544.5,132.3 L574.2,132.3 L603.8,199.0 L633.5,400.0 L663.2,159.7 L692.8,159.6 L722.5,159.6 L752.2,222.8 L781.8,396.5 L811.5,122.2 L841.2,122.6 L870.8,122.6 L900.5,168.6 L930.2,379.4" fill="none" stroke="#F472B6" stroke-width="8" stroke-linejoin="round" stroke-linecap="round" opacity="0.12"/>
<path d="M69.8,122.6 L99.5,122.7 L129.2,122.7 L158.8,184.3 L188.5,394.9 L218.2,123.4 L247.8,123.4 L277.5,123.4 L307.2,200.2 L336.8,410.1 L366.5,132.1 L396.2,132.0 L425.8,132.1 L455.5,180.2 L485.2,381.6 L514.8,132.4 L544.5,132.3 L574.2,132.3 L603.8,199.0 L633.5,400.0 L663.2,159.7 L692.8,159.6 L722.5,159.6 L752.2,222.8 L781.8,396.5 L811.5,122.2 L841.2,122.6 L870.8,122.6 L900.5,168.6 L930.2,379.4" fill="none" stroke="#F472B6" stroke-width="3.5" stroke-linejoin="round" stroke-linecap="round"/>
<circle cx="69.8" cy="122.6" r="6" fill="#F472B6" opacity="0.2"/>
<circle cx="69.8" cy="122.6" r="4" fill="#F472B6" stroke="#0d1117" stroke-width="2.5"/>
<circle cx="99.5" cy="122.7" r="6" fill="#F472B6" opacity="0.2"/>
<circle cx="99.5" cy="122.7" r="4" fill="#F472B6" stroke="#0d1117" stroke-width="2.5"/>
<circle cx="129.2" cy="122.7" r="6" fill="#F472B6" opacity="0.2"/>
<circle cx="129.2" cy="122.7" r="4" fill="#F472B6" stroke="#0d1117" stroke-width="2.5"/>
<circle cx="158.8" cy="184.3" r="6" fill="#F472B6" opacity="0.2"/>
<circle cx="158.8" cy="184.3" r="4" fill="#F472B6" stroke="#0d1117" stroke-width="2.5"/>
<circle cx="188.5" cy="394.9" r="6" fill="#F472B6" opacity="0.2"/>
<circle cx="188.5" cy="394.9" r="4" fill="#F472B6" stroke="#0d1117" stroke-width="2.5"/>
<circle cx="218.2" cy="123.4" r="6" fill="#F472B6" opacity="0.2"/>
<circle cx="218.2" cy="123.4" r="4" fill="#F472B6" stroke="#0d1117" stroke-width="2.5"/>
<circle cx="247.8" cy="123.4" r="6" fill="#F472B6" opacity="0.2"/>
<circle cx="247.8" cy="123.4" r="4" fill="#F472B6" stroke="#0d1117" stroke-width="2.5"/>
<circle cx="277.5" cy="123.4" r="6" fill="#F472B6" opacity="0.2"/>
<circle cx="277.5" cy="123.4" r="4" fill="#F472B6" stroke="#0d1117" stroke-width="2.5"/>
<circle cx="307.2" cy="200.2" r="6" fill="#F472B6" opacity="0.2"/>
<circle cx="307.2" cy="200.2" r="4" fill="#F472B6" stroke="#0d1117" stroke-width="2.5"/>
<circle cx="336.8" cy="410.1" r="6" fill="#F472B6" opacity="0.2"/>
<circle cx="336.8" cy="410.1" r="4" fill="#F472B6" stroke="#0d1117" stroke-width="2.5"/>
<circle cx="366.5" cy="132.1" r="6" fill="#F472B6" opacity="0.2"/>
<circle cx="366.5" cy="132.1" r="4" fill="#F472B6" stroke="#0d1117" stroke-width="2.5"/>
<circle cx="396.2" cy="132.0" r="6" fill="#F472B6" opacity="0.2"/>
<circle cx="396.2" cy="132.0" r="4" fill="#F472B6" stroke="#0d1117" stroke-width="2.5"/>
<circle cx="425.8" cy="132.1" r="6" fill="#F472B6" opacity="0.2"/>
<circle cx="425.8" cy="132.1" r="4" fill="#F472B6" stroke="#0d1117" stroke-width="2.5"/>
<circle cx="455.5" cy="180.2" r="6" fill="#F472B6" opacity="0.2"/>
<circle cx="455.5" cy="180.2" r="4" fill="#F472B6" stroke="#0d1117" stroke-width="2.5"/>
<circle cx="485.2" cy="381.6" r="6" fill="#F472B6" opacity="0.2"/>
<circle cx="485.2" cy="381.6" r="4" fill="#F472B6" stroke="#0d1117" stroke-width="2.5"/>
<circle cx="514.8" cy="132.4" r="6" fill="#F472B6" opacity="0.2"/>
<circle cx="514.8" cy="132.4" r="4" fill="#F472B6" stroke="#0d1117" stroke-width="2.5"/>
<circle cx="544.5" cy="132.3" r="6" fill="#F472B6" opacity="0.2"/>
<circle cx="544.5" cy="132.3" r="4" fill="#F472B6" stroke="#0d1117" stroke-width="2.5"/>
<circle cx="574.2" cy="132.3" r="6" fill="#F472B6" opacity="0.2"/>
<circle cx="574.2" cy="132.3" r="4" fill="#F472B6" stroke="#0d1117" stroke-width="2.5"/>
<circle cx="603.8" cy="199.0" r="6" fill="#F472B6" opacity="0.2"/>
<circle cx="603.8" cy="199.0" r="4" fill="#F472B6" stroke="#0d1117" stroke-width="2.5"/>
<circle cx="633.5" cy="400.0" r="6" fill="#F472B6" opacity="0.2"/>
<circle cx="633.5" cy="400.0" r="4" fill="#F472B6" stroke="#0d1117" stroke-width="2.5"/>
<circle cx="663.2" cy="159.7" r="6" fill="#F472B6" opacity="0.2"/>
<circle cx="663.2" cy="159.7" r="4" fill="#F472B6" stroke="#0d1117" stroke-width="2.5"/>
<circle cx="692.8" cy="159.6" r="6" fill="#F472B6" opacity="0.2"/>
<circle cx="692.8" cy="159.6" r="4" fill="#F472B6" stroke="#0d1117" stroke-width="2.5"/>
<circle cx="722.5" cy="159.6" r="6" fill="#F472B6" opacity="0.2"/>
<circle cx="722.5" cy="159.6" r="4" fill="#F472B6" stroke="#0d1117" stroke-width="2.5"/>
<circle cx="752.2" cy="222.8" r="6" fill="#F472B6" opacity="0.2"/>
<circle cx="752.2" cy="222.8" r="4" fill="#F472B6" stroke="#0d1117" stroke-width="2.5"/>
<circle cx="781.8" cy="396.5" r="6" fill="#F472B6" opacity="0.2"/>
<circle cx="781.8" cy="396.5" r="4" fill="#F472B6" stroke="#0d1117" stroke-width="2.5"/>
<circle cx="811.5" cy="122.2" r="6" fill="#F472B6" opacity="0.2"/>
<circle cx="811.5" cy="122.2" r="4" fill="#F472B6" stroke="#0d1117" stroke-width="2.5"/>
<circle cx="841.2" cy="122.6" r="6" fill="#F472B6" opacity="0.2"/>
<circle cx="841.2" cy="122.6" r="4" fill="#F472B6" stroke="#0d1117" stroke-width="2.5"/>
<circle cx="870.8" cy="122.6" r="6" fill="#F472B6" opacity="0.2"/>
<circle cx="870.8" cy="122.6" r="4" fill="#F472B6" stroke="#0d1117" stroke-width="2.5"/>
<circle cx="900.5" cy="168.6" r="6" fill="#F472B6" opacity="0.2"/>
<circle cx="900.5" cy="168.6" r="4" fill="#F472B6" stroke="#0d1117" stroke-width="2.5"/>
<circle cx="930.2" cy="379.4" r="6" fill="#F472B6" opacity="0.2"/>
<circle cx="930.2" cy="379.4" r="4" fill="#F472B6" stroke="#0d1117" stroke-width="2.5"/>
<text x="69.8" y="448" text-anchor="end" fill="#8b949e" font-size="11" transform="rotate(-30,69.8,448)">push_back</text>
<text x="99.5" y="448" text-anchor="end" fill="#8b949e" font-size="11" transform="rotate(-30,99.5,448)">push_back_mean</text>
<text x="129.2" y="448" text-anchor="end" fill="#8b949e" font-size="11" transform="rotate(-30,129.2,448)">push_back_median</text>
<text x="158.8" y="448" text-anchor="end" fill="#8b949e" font-size="11" transform="rotate(-30,158.8,448)">push_back_stddev</text>
<text x="188.5" y="448" text-anchor="end" fill="#8b949e" font-size="11" transform="rotate(-30,188.5,448)">push_back_cv</text>
<text x="218.2" y="448" text-anchor="end" fill="#8b949e" font-size="11" transform="rotate(-30,218.2,448)">push_front</text>
<text x="247.8" y="448" text-anchor="end" fill="#8b949e" font-size="11" transform="rotate(-30,247.8,448)">push_front_mean</text>
<text x="277.5" y="448" text-anchor="end" fill="#8b949e" font-size="11" transform="rotate(-30,277.5,448)">push_front_median</text>
<text x="307.2" y="448" text-anchor="end" fill="#8b949e" font-size="11" transform="rotate(-30,307.2,448)">push_front_stddev</text>
<text x="336.8" y="448" text-anchor="end" fill="#8b949e" font-size="11" transform="rotate(-30,336.8,448)">push_front_cv</text>
<text x="366.5" y="448" text-anchor="end" fill="#8b949e" font-size="11" transform="rotate(-30,366.5,448)">insert_middle</text>
<text x="396.2" y="448" text-anchor="end" fill="#8b949e" font-size="11" transform="rotate(-30,396.2,448)">insert_middle_mean</text>
<text x="425.8" y="448" text-anchor="end" fill="#8b949e" font-size="11" transform="rotate(-30,425.8,448)">insert_middle_median</text>
<text x="455.5" y="448" text-anchor="end" fill="#8b949e" font-size="11" transform="rotate(-30,455.5,448)">insert_middle_stddev</text>
<text x="485.2" y="448" text-anchor="end" fill="#8b949e" font-size="11" transform="rotate(-30,485.2,448)">insert_middle_cv</text>
<text x="514.8" y="448" text-anchor="end" fill="#8b949e" font-size="11" transform="rotate(-30,514.8,448)">erase_middle</text>
<text x="544.5" y="448" text-anchor="end" fill="#8b949e" font-size="11" transform="rotate(-30,544.5,448)">erase_middle_mean</text>
<text x="574.2" y="448" text-anchor="end" fill="#8b949e" font-size="11" transform="rotate(-30,574.2,448)">erase_middle_median</text>
<text x="603.8" y="448" text-anchor="end" fill="#8b949e" font-size="11" transform="rotate(-30,603.8,448)">erase_middle_stddev</text>
<text x="633.5" y="448" text-anchor="end" fill="#8b949e" font-size="11" transform="rotate(-30,633.5,448)">erase_middle_cv</text>
<text x="663.2" y="448" text-anchor="end" fill="#8b949e" font-size="11" transform="rotate(-30,663.2,448)">iterate</text>
<text x="692.8" y="448" text-anchor="end" fill="#8b949e" font-size="11" transform="rotate(-30,692.8,448)">iterate_mean</text>
<text x="722.5" y="448" text-anchor="end" fill="#8b949e" font-size="11" transform="rotate(-30,722.5,448)">iterate_median</text>
<text x="752.2" y="448" text-anchor="end" fill="#8b949e" font-size="11" transform="rotate(-30,752.2,448)">iterate_stddev</text>
<text x="781.8" y="448" text-anchor="end" fill="#8b949e" font-size="11" transform="rotate(-30,781.8,448)">iterate_cv</text>
<text x="811.5" y="448" text-anchor="end" fill="#8b949e" font-size="11" transform="rotate(-30,811.5,448)">clear</text>
<text x="841.2" y="448" text-anchor="end" fill="#8b949e" font-size="11" transform="rotate(-30,841.2,448)">clear_mean</text>
<text x="870.8" y="448" text-anchor="end" fill="#8b949e" font-size="11" transform="rotate(-30,870.8,448)">clear_median</text>
<text x="900.5" y="448" text-anchor="end" fill="#8b949e" font-size="11" transform="rotate(-30,900.5,448)">clear_stddev</text>
<text x="930.2" y="448" text-anchor="end" fill="#8b949e" font-size="11" transform="rotate(-30,930.2,448)">clear_cv</text>
<text x="14" y="272.5" text-anchor="middle" fill="#484f58" font-size="11" transform="rotate(-90,14,272.5)">Time (ms)</text>
<circle cx="65" cy="69" r="5" fill="#58a6ff"/>
<text x="75" y="73" fill="#c9d1d9" font-size="12">RG::LIST</text>
<circle cx="220" cy="69" r="5" fill="#FF9800"/>
<text x="230" y="73" fill="#c9d1d9" font-size="12">std::list</text>
<circle cx="375" cy="69" r="5" fill="#4CAF50"/>
<text x="385" y="73" fill="#c9d1d9" font-size="12">std::forward_list</text>
<circle cx="530" cy="69" r="5" fill="#BB86FC"/>
<text x="540" y="73" fill="#c9d1d9" font-size="12">boost::list</text>
<circle cx="685" cy="69" r="5" fill="#F472B6"/>
<text x="695" y="73" fill="#c9d1d9" font-size="12">eastl::list</text>
<text x="480.0" y="20" text-anchor="middle" fill="#58a6ff" font-size="15" font-weight="700">RG::LIST Benchmark — 2026-04-13</text>
</svg>