<svg xmlns="http://www.w3.org/2000/svg" viewBox="0 0 960 500" font-family="-apple-system,BlinkMacSystemFont,Segoe UI,sans-serif">
<rect width="960" height="500" rx="10" fill="#0d1117"/>
<rect x="55" y="115" width="890" height="315" fill="#161b22" rx="4"/>
<line x1="55" y1="423.4" x2="945" y2="423.4" stroke="#21262d"/>
<text x="47" y="427.3629824301216" text-anchor="end" fill="#484f58" font-size="10">0µs</text>
<line x1="55" y1="414.2" x2="945" y2="414.2" stroke="#21262d"/>
<text x="47" y="418.2448427814365" text-anchor="end" fill="#484f58" font-size="10">0µs</text>
<line x1="55" y1="402.2" x2="945" y2="402.2" stroke="#21262d"/>
<text x="47" y="406.1913178067333" text-anchor="end" fill="#484f58" font-size="10">0µs</text>
<line x1="55" y1="393.1" x2="945" y2="393.1" stroke="#21262d"/>
<text x="47" y="397.0731781580482" text-anchor="end" fill="#484f58" font-size="10">0µs</text>
<line x1="55" y1="384.0" x2="945" y2="384.0" stroke="#21262d"/>
<text x="47" y="387.95503850936313" text-anchor="end" fill="#484f58" font-size="10">0µs</text>
<line x1="55" y1="371.9" x2="945" y2="371.9" stroke="#21262d"/>
<text x="47" y="375.90151353465995" text-anchor="end" fill="#484f58" font-size="10">0µs</text>
<line x1="55" y1="362.8" x2="945" y2="362.8" stroke="#21262d"/>
<text x="47" y="366.7833738859748" text-anchor="end" fill="#484f58" font-size="10">0µs</text>
<line x1="55" y1="353.7" x2="945" y2="353.7" stroke="#21262d"/>
<text x="47" y="357.6652342372898" text-anchor="end" fill="#484f58" font-size="10">0µs</text>
<line x1="55" y1="341.6" x2="945" y2="341.6" stroke="#21262d"/>
<text x="47" y="345.61170926258654" text-anchor="end" fill="#484f58" font-size="10">0µs</text>
<line x1="55" y1="332.5" x2="945" y2="332.5" stroke="#21262d"/>
<text x="47" y="336.4935696139015" text-anchor="end" fill="#484f58" font-size="10">0µs</text>
<line x1="55" y1="323.4" x2="945" y2="323.4" stroke="#21262d"/>
<text x="47" y="327.37542996521637" text-anchor="end" fill="#484f58" font-size="10">0µs</text>
<line x1="55" y1="311.3" x2="945" y2="311.3" stroke="#21262d"/>
<text x="47" y="315.3219049905132" text-anchor="end" fill="#484f58" font-size="10">0µs</text>
<line x1="55" y1="302.2" x2="945" y2="302.2" stroke="#21262d"/>
<text x="47" y="306.2037653418281" text-anchor="end" fill="#484f58" font-size="10">0µs</text>
<line x1="55" y1="293.1" x2="945" y2="293.1" stroke="#21262d"/>
<text x="47" y="297.085625693143" text-anchor="end" fill="#484f58" font-size="10">0µs</text>
<line x1="55" y1="281.0" x2="945" y2="281.0" stroke="#21262d"/>
<text x="47" y="285.03210071843984" text-anchor="end" fill="#484f58" font-size="10">0µs</text>
<line x1="55" y1="271.9" x2="945" y2="271.9" stroke="#21262d"/>
<text x="47" y="275.91396106975475" text-anchor="end" fill="#484f58" font-size="10">0µs</text>
<line x1="55" y1="262.8" x2="945" y2="262.8" stroke="#21262d"/>
<text x="47" y="266.7958214210697" text-anchor="end" fill="#484f58" font-size="10">0µs</text>
<line x1="55" y1="250.7" x2="945" y2="250.7" stroke="#21262d"/>
<text x="47" y="254.74229644636645" text-anchor="end" fill="#484f58" font-size="10">0µs</text>
<line x1="55" y1="241.6" x2="945" y2="241.6" stroke="#21262d"/>
<text x="47" y="245.62415679768137" text-anchor="end" fill="#484f58" font-size="10">1µs</text>
<line x1="55" y1="232.5" x2="945" y2="232.5" stroke="#21262d"/>
<text x="47" y="236.50601714899628" text-anchor="end" fill="#484f58" font-size="10">2µs</text>
<line x1="55" y1="220.5" x2="945" y2="220.5" stroke="#21262d"/>
<text x="47" y="224.4524921742931" text-anchor="end" fill="#484f58" font-size="10">5µs</text>
<line x1="55" y1="211.3" x2="945" y2="211.3" stroke="#21262d"/>
<text x="47" y="215.334352525608" text-anchor="end" fill="#484f58" font-size="10">10µs</text>
<line x1="55" y1="202.2" x2="945" y2="202.2" stroke="#21262d"/>
<text x="47" y="206.2162128769229" text-anchor="end" fill="#484f58" font-size="10">20µs</text>
<line x1="55" y1="190.2" x2="945" y2="190.2" stroke="#21262d"/>
<text x="47" y="194.16268790221974" text-anchor="end" fill="#484f58" font-size="10">50µs</text>
<line x1="55" y1="181.0" x2="945" y2="181.0" stroke="#21262d"/>
<text x="47" y="185.04454825353463" text-anchor="end" fill="#484f58" font-size="10">100µs</text>
<line x1="55" y1="171.9" x2="945" y2="171.9" stroke="#21262d"/>
<text x="47" y="175.92640860484954" text-anchor="end" fill="#484f58" font-size="10">200µs</text>
<line x1="55" y1="159.9" x2="945" y2="159.9" stroke="#21262d"/>
<text x="47" y="163.87288363014636" text-anchor="end" fill="#484f58" font-size="10">500µs</text>
<line x1="55" y1="150.8" x2="945" y2="150.8" stroke="#21262d"/>
<text x="47" y="154.75474398146127" text-anchor="end" fill="#484f58" font-size="10">1ms</text>
<line x1="55" y1="141.6" x2="945" y2="141.6" stroke="#21262d"/>
<text x="47" y="145.6366043327762" text-anchor="end" fill="#484f58" font-size="10">2ms</text>
<line x1="55" y1="129.6" x2="945" y2="129.6" stroke="#21262d"/>
<text x="47" y="133.583079358073" text-anchor="end" fill="#484f58" font-size="10">5ms</text>
<line x1="55" y1="120.5" x2="945" y2="120.5" stroke="#21262d"/>
<text x="47" y="124.46493970938792" text-anchor="end" fill="#484f58" font-size="10">10ms</text>
<line x1="84.7" y1="115" x2="84.7" y2="430" stroke="#30363d" stroke-width="1" stroke-dasharray="4,4"/>
<line x1="114.3" y1="115" x2="114.3" y2="430" stroke="#30363d" stroke-width="1" stroke-dasharray="4,4"/>
<line x1="144.0" y1="115" x2="144.0" y2="430" stroke="#30363d" stroke-width="1" stroke-dasharray="4,4"/>
<line x1="173.7" y1="115" x2="173.7" y2="430" stroke="#30363d" stroke-width="1" stroke-dasharray="4,4"/>
<line x1="203.3" y1="115" x2="203.3" y2="430" stroke="#30363d" stroke-width="1" stroke-dasharray="4,4"/>
<line x1="233.0" y1="115" x2="233.0" y2="430" stroke="#30363d" stroke-width="1" stroke-dasharray="4,4"/>
<line x1="262.7" y1="115" x2="262.7" y2="430" stroke="#30363d" stroke-width="1" stroke-dasharray="4,4"/>
<line x1="292.3" y1="115" x2="292.3" y2="430" stroke="#30363d" stroke-width="1" stroke-dasharray="4,4"/>
<line x1="322.0" y1="115" x2="322.0" y2="430" stroke="#30363d" stroke-width="1" stroke-dasharray="4,4"/>
<line x1="351.7" y1="115" x2="351.7" y2="430" stroke="#30363d" stroke-width="1" stroke-dasharray="4,4"/>
<line x1="381.3" y1="115" x2="381.3" y2="430" stroke="#30363d" stroke-width="1" stroke-dasharray="4,4"/>
<line x1="411.0" y1="115" x2="411.0" y2="430" stroke="#30363d" stroke-width="1" stroke-dasharray="4,4"/>
<line x1="440.7" y1="115" x2="440.7" y2="430" stroke="#30363d" stroke-width="1" stroke-dasharray="4,4"/>
<line x1="470.3" y1="115" x2="470.3" y2="430" stroke="#30363d" stroke-width="1" stroke-dasharray="4,4"/>
<line x1="500.0" y1="115" x2="500.0" y2="430" stroke="#30363d" stroke-width="1" stroke-dasharray="4,4"/>
<line x1="529.7" y1="115" x2="529.7" y2="430" stroke="#30363d" stroke-width="1" stroke-dasharray="4,4"/>
<line x1="559.3" y1="115" x2="559.3" y2="430" stroke="#30363d" stroke-width="1" stroke-dasharray="4,4"/>
<line x1="589.0" y1="115" x2="589.0" y2="430" stroke="#30363d" stroke-width="1" stroke-dasharray="4,4"/>
<line x1="618.7" y1="115" x2="618.7" y2="430" stroke="#30363d" stroke-width="1" stroke-dasharray="4,4"/>
<line x1="648.3" y1="115" x2="648.3" y2="430" stroke="#30363d" stroke-width="1" stroke-dasharray="4,4"/>
<line x1="678.0" y1="115" x2="678.0" y2="430" stroke="#30363d" stroke-width="1" stroke-dasharray="4,4"/>
<line x1="707.7" y1="115" x2="707.7" y2="430" stroke="#30363d" stroke-width="1" stroke-dasharray="4,4"/>
<line x1="737.3" y1="115" x2="737.3" y2="430" stroke="#30363d" stroke-width="1" stroke-dasharray="4,4"/>
<line x1="767.0" y1="115" x2="767.0" y2="430" stroke="#30363d" stroke-width="1" stroke-dasharray="4,4"/>
<line x1="796.7" y1="115" x2="796.7" y2="430" stroke="#30363d" stroke-width="1" stroke-dasharray="4,4"/>
<line x1="826.3" y1="115" x2="826.3" y2="430" stroke="#30363d" stroke-width="1" stroke-dasharray="4,4"/>
<line x1="856.0" y1="115" x2="856.0" y2="430" stroke="#30363d" stroke-width="1" stroke-dasharray="4,4"/>
<line x1="885.7" y1="115" x2="885.7" y2="430" stroke="#30363d" stroke-width="1" stroke-dasharray="4,4"/>
<line x1="915.3" y1="115" x2="915.3" y2="430" stroke="#30363d" stroke-width="1" stroke-dasharray="4,4"/>
<path d="M69.8,134.6 L99.5,134.7 L129.2,134.7 L158.8,216.1 L188.5,413.9 L218.2,134.6 L247.8,134.6 L277.5,134.6 L307.2,217.6 L336.8,415.5 L366.5,142.4 L396.2,142.5 L425.8,142.6 L455.5,197.6 L485.2,387.6 L514.8,143.0 L544.5,143.0 L574.2,143.0 L603.8,235.8 L633.5,425.3 L663.2,153.6 L692.8,153.4 L722.5,153.5 L752.2,210.4 L781.8,389.5 L811.5,134.7 L841.2,134.6 L870.8,134.7 L900.5,212.4 L930.2,410.3" fill="none" stroke="#58a6ff" stroke-width="8" stroke-linejoin="round" stroke-linecap="round" opacity="0.12"/>
<path d="M69.8,134.6 L99.5,134.7 L129.2,134.7 L158.8,216.1 L188.5,413.9 L218.2,134.6 L247.8,134.6 L277.5,134.6 L307.2,217.6 L336.8,415.5 L366.5,142.4 L396.2,142.5 L425.8,142.6 L455.5,197.6 L485.2,387.6 L514.8,143.0 L544.5,143.0 L574.2,143.0 L603.8,235.8 L633.5,425.3 L663.2,153.6 L692.8,153.4 L722.5,153.5 L752.2,210.4 L781.8,389.5 L811.5,134.7 L841.2,134.6 L870.8,134.7 L900.5,212.4 L930.2,410.3" fill="none" stroke="#58a6ff" stroke-width="3.5" stroke-linejoin="round" stroke-linecap="round"/>
<circle cx="69.8" cy="134.6" r="6" fill="#58a6ff" opacity="0.2"/>
<circle cx="69.8" cy="134.6" r="4" fill="#58a6ff" stroke="#0d1117" stroke-width="2.5"/>
<circle cx="99.5" cy="134.7" r="6" fill="#58a6ff" opacity="0.2"/>
<circle cx="99.5" cy="134.7" r="4" fill="#58a6ff" stroke="#0d1117" stroke-width="2.5"/>
<circle cx="129.2" cy="134.7" r="6" fill="#58a6ff" opacity="0.2"/>
<circle cx="129.2" cy="134.7" r="4" fill="#58a6ff" stroke="#0d1117" stroke-width="2.5"/>
<circle cx="158.8" cy="216.1" r="6" fill="#58a6ff" opacity="0.2"/>
<circle cx="158.8" cy="216.1" r="4" fill="#58a6ff" stroke="#0d1117" stroke-width="2.5"/>
<circle cx="188.5" cy="413.9" r="6" fill="#58a6ff" opacity="0.2"/>
<circle cx="188.5" cy="413.9" r="4" fill="#58a6ff" stroke="#0d1117" stroke-width="2.5"/>
<circle cx="218.2" cy="134.6" r="6" fill="#58a6ff" opacity="0.2"/>
<circle cx="218.2" cy="134.6" r="4" fill="#58a6ff" stroke="#0d1117" stroke-width="2.5"/>
<circle cx="247.8" cy="134.6" r="6" fill="#58a6ff" opacity="0.2"/>
<circle cx="247.8" cy="134.6" r="4" fill="#58a6ff" stroke="#0d1117" stroke-width="2.5"/>
<circle cx="277.5" cy="134.6" r="6" fill="#58a6ff" opacity="0.2"/>
<circle cx="277.5" cy="134.6" r="4" fill="#58a6ff" stroke="#0d1117" stroke-width="2.5"/>
<circle cx="307.2" cy="217.6" r="6" fill="#58a6ff" opacity="0.2"/>
<circle cx="307.2" cy="217.6" r="4" fill="#58a6ff" stroke="#0d1117" stroke-width="2.5"/>
<circle cx="336.8" cy="415.5" r="6" fill="#58a6ff" opacity="0.2"/>
<circle cx="336.8" cy="415.5" r="4" fill="#58a6ff" stroke="#0d1117" stroke-width="2.5"/>
<circle cx="366.5" cy="142.4" r="6" fill="#58a6ff" opacity="0.2"/>
<circle cx="366.5" cy="142.4" r="4" fill="#58a6ff" stroke="#0d1117" stroke-width="2.5"/>
<circle cx="396.2" cy="142.5" r="6" fill="#58a6ff" opacity="0.2"/>
<circle cx="396.2" cy="142.5" r="4" fill="#58a6ff" stroke="#0d1117" stroke-width="2.5"/>
<circle cx="425.8" cy="142.6" r="6" fill="#58a6ff" opacity="0.2"/>
<circle cx="425.8" cy="142.6" r="4" fill="#58a6ff" stroke="#0d1117" stroke-width="2.5"/>
<circle cx="455.5" cy="197.6" r="6" fill="#58a6ff" opacity="0.2"/>
<circle cx="455.5" cy="197.6" r="4" fill="#58a6ff" stroke="#0d1117" stroke-width="2.5"/>
<circle cx="485.2" cy="387.6" r="6" fill="#58a6ff" opacity="0.2"/>
<circle cx="485.2" cy="387.6" r="4" fill="#58a6ff" stroke="#0d1117" stroke-width="2.5"/>
<circle cx="514.8" cy="143.0" r="6" fill="#58a6ff" opacity="0.2"/>
<circle cx="514.8" cy="143.0" r="4" fill="#58a6ff" stroke="#0d1117" stroke-width="2.5"/>
<circle cx="544.5" cy="143.0" r="6" fill="#58a6ff" opacity="0.2"/>
<circle cx="544.5" cy="143.0" r="4" fill="#58a6ff" stroke="#0d1117" stroke-width="2.5"/>
<circle cx="574.2" cy="143.0" r="6" fill="#58a6ff" opacity="0.2"/>
<circle cx="574.2" cy="143.0" r="4" fill="#58a6ff" stroke="#0d1117" stroke-width="2.5"/>
<circle cx="603.8" cy="235.8" r="6" fill="#58a6ff" opacity="0.2"/>
<circle cx="603.8" cy="235.8" r="4" fill="#58a6ff" stroke="#0d1117" stroke-width="2.5"/>
<circle cx="633.5" cy="425.3" r="6" fill="#58a6ff" opacity="0.2"/>
<circle cx="633.5" cy="425.3" r="4" fill="#58a6ff" stroke="#0d1117" stroke-width="2.5"/>
<circle cx="663.2" cy="153.6" r="6" fill="#58a6ff" opacity="0.2"/>
<circle cx="663.2" cy="153.6" r="4" fill="#58a6ff" stroke="#0d1117" stroke-width="2.5"/>
<circle cx="692.8" cy="153.4" r="6" fill="#58a6ff" opacity="0.2"/>
<circle cx="692.8" cy="153.4" r="4" fill="#58a6ff" stroke="#0d1117" stroke-width="2.5"/>
<circle cx="722.5" cy="153.5" r="6" fill="#58a6ff" opacity="0.2"/>
<circle cx="722.5" cy="153.5" r="4" fill="#58a6ff" stroke="#0d1117" stroke-width="2.5"/>
<circle cx="752.2" cy="210.4" r="6" fill="#58a6ff" opacity="0.2"/>
<circle cx="752.2" cy="210.4" r="4" fill="#58a6ff" stroke="#0d1117" stroke-width="2.5"/>
<circle cx="781.8" cy="389.5" r="6" fill="#58a6ff" opacity="0.2"/>
<circle cx="781.8" cy="389.5" r="4" fill="#58a6ff" stroke="#0d1117" stroke-width="2.5"/>
<circle cx="811.5" cy="134.7" r="6" fill="#58a6ff" opacity="0.2"/>
<circle cx="811.5" cy="134.7" r="4" fill="#58a6ff" stroke="#0d1117" stroke-width="2.5"/>
<circle cx="841.2" cy="134.6" r="6" fill="#58a6ff" opacity="0.2"/>
<circle cx="841.2" cy="134.6" r="4" fill="#58a6ff" stroke="#0d1117" stroke-width="2.5"/>
<circle cx="870.8" cy="134.7" r="6" fill="#58a6ff" opacity="0.2"/>
<circle cx="870.8" cy="134.7" r="4" fill="#58a6ff" stroke="#0d1117" stroke-width="2.5"/>
<circle cx="900.5" cy="212.4" r="6" fill="#58a6ff" opacity="0.2"/>
<circle cx="900.5" cy="212.4" r="4" fill="#58a6ff" stroke="#0d1117" stroke-width="2.5"/>
<circle cx="930.2" cy="410.3" r="6" fill="#58a6ff" opacity="0.2"/>
<circle cx="930.2" cy="410.3" r="4" fill="#58a6ff" stroke="#0d1117" stroke-width="2.5"/>
<path d="M69.8,122.0 L99.5,122.0 L129.2,122.0 L158.8,181.2 L188.5,391.7 L218.2,121.9 L247.8,120.4 L277.5,120.3 L307.2,153.3 L336.8,365.4 L366.5,130.2 L396.2,130.2 L425.8,130.2 L455.5,183.9 L485.2,386.2 L514.8,130.4 L544.5,130.5 L574.2,130.5 L603.8,195.6 L633.5,397.6 L663.2,152.0 L692.8,151.6 L722.5,152.0 L752.2,184.2 L781.8,365.1 L811.5,122.0 L841.2,122.1 L870.8,122.2 L900.5,184.3 L930.2,394.7" fill="none" stroke="#FF9800" stroke-width="8" stroke-linejoin="round" stroke-linecap="round" opacity="0.12"/>
<path d="M69.8,122.0 L99.5,122.0 L129.2,122.0 L158.8,181.2 L188.5,391.7 L218.2,121.9 L247.8,120.4 L277.5,120.3 L307.2,153.3 L336.8,365.4 L366.5,130.2 L396.2,130.2 L425.8,130.2 L455.5,183.9 L485.2,386.2 L514.8,130.4 L544.5,130.5 L574.2,130.5 L603.8,195.6 L633.5,397.6 L663.2,152.0 L692.8,151.6 L722.5,152.0 L752.2,184.2 L781.8,365.1 L811.5,122.0 L841.2,122.1 L870.8,122.2 L900.5,184.3 L930.2,394.7" fill="none" stroke="#FF9800" stroke-width="3.5" stroke-linejoin="round" stroke-linecap="round"/>
<circle cx="69.8" cy="122.0" r="6" fill="#FF9800" opacity="0.2"/>
<circle cx="69.8" cy="122.0" r="4" fill="#FF9800" stroke="#0d1117" stroke-width="2.5"/>
<circle cx="99.5" cy="122.0" r="6" fill="#FF9800" opacity="0.2"/>
<circle cx="99.5" cy="122.0" r="4" fill="#FF9800" stroke="#0d1117" stroke-width="2.5"/>
<circle cx="129.2" cy="122.0" r="6" fill="#FF9800" opacity="0.2"/>
<circle cx="129.2" cy="122.0" r="4" fill="#FF9800" stroke="#0d1117" stroke-width="2.5"/>
<circle cx="158.8" cy="181.2" r="6" fill="#FF9800" opacity="0.2"/>
<circle cx="158.8" cy="181.2" r="4" fill="#FF9800" stroke="#0d1117" stroke-width="2.5"/>
<circle cx="188.5" cy="391.7" r="6" fill="#FF9800" opacity="0.2"/>
<circle cx="188.5" cy="391.7" r="4" fill="#FF9800" stroke="#0d1117" stroke-width="2.5"/>
<circle cx="218.2" cy="121.9" r="6" fill="#FF9800" opacity="0.2"/>
<circle cx="218.2" cy="121.9" r="4" fill="#FF9800" stroke="#0d1117" stroke-width="2.5"/>
<circle cx="247.8" cy="120.4" r="6" fill="#FF9800" opacity="0.2"/>
<circle cx="247.8" cy="120.4" r="4" fill="#FF9800" stroke="#0d1117" stroke-width="2.5"/>
<circle cx="277.5" cy="120.3" r="6" fill="#FF9800" opacity="0.2"/>
<circle cx="277.5" cy="120.3" r="4" fill="#FF9800" stroke="#0d1117" stroke-width="2.5"/>
<circle cx="307.2" cy="153.3" r="6" fill="#FF9800" opacity="0.2"/>
<circle cx="307.2" cy="153.3" r="4" fill="#FF9800" stroke="#0d1117" stroke-width="2.5"/>
<circle cx="336.8" cy="365.4" r="6" fill="#FF9800" opacity="0.2"/>
<circle cx="336.8" cy="365.4" r="4" fill="#FF9800" stroke="#0d1117" stroke-width="2.5"/>
<circle cx="366.5" cy="130.2" r="6" fill="#FF9800" opacity="0.2"/>
<circle cx="366.5" cy="130.2" r="4" fill="#FF9800" stroke="#0d1117" stroke-width="2.5"/>
<circle cx="396.2" cy="130.2" r="6" fill="#FF9800" opacity="0.2"/>
<circle cx="396.2" cy="130.2" r="4" fill="#FF9800" stroke="#0d1117" stroke-width="2.5"/>
<circle cx="425.8" cy="130.2" r="6" fill="#FF9800" opacity="0.2"/>
<circle cx="425.8" cy="130.2" r="4" fill="#FF9800" stroke="#0d1117" stroke-width="2.5"/>
<circle cx="455.5" cy="183.9" r="6" fill="#FF9800" opacity="0.2"/>
<circle cx="455.5" cy="183.9" r="4" fill="#FF9800" stroke="#0d1117" stroke-width="2.5"/>
<circle cx="485.2" cy="386.2" r="6" fill="#FF9800" opacity="0.2"/>
<circle cx="485.2" cy="386.2" r="4" fill="#FF9800" stroke="#0d1117" stroke-width="2.5"/>
<circle cx="514.8" cy="130.4" r="6" fill="#FF9800" opacity="0.2"/>
<circle cx="514.8" cy="130.4" r="4" fill="#FF9800" stroke="#0d1117" stroke-width="2.5"/>
<circle cx="544.5" cy="130.5" r="6" fill="#FF9800" opacity="0.2"/>
<circle cx="544.5" cy="130.5" r="4" fill="#FF9800" stroke="#0d1117" stroke-width="2.5"/>
<circle cx="574.2" cy="130.5" r="6" fill="#FF9800" opacity="0.2"/>
<circle cx="574.2" cy="130.5" r="4" fill="#FF9800" stroke="#0d1117" stroke-width="2.5"/>
<circle cx="603.8" cy="195.6" r="6" fill="#FF9800" opacity="0.2"/>
<circle cx="603.8" cy="195.6" r="4" fill="#FF9800" stroke="#0d1117" stroke-width="2.5"/>
<circle cx="633.5" cy="397.6" r="6" fill="#FF9800" opacity="0.2"/>
<circle cx="633.5" cy="397.6" r="4" fill="#FF9800" stroke="#0d1117" stroke-width="2.5"/>
<circle cx="663.2" cy="152.0" r="6" fill="#FF9800" opacity="0.2"/>
<circle cx="663.2" cy="152.0" r="4" fill="#FF9800" stroke="#0d1117" stroke-width="2.5"/>
<circle cx="692.8" cy="151.6" r="6" fill="#FF9800" opacity="0.2"/>
<circle cx="692.8" cy="151.6" r="4" fill="#FF9800" stroke="#0d1117" stroke-width="2.5"/>
<circle cx="722.5" cy="152.0" r="6" fill="#FF9800" opacity="0.2"/>
<circle cx="722.5" cy="152.0" r="4" fill="#FF9800" stroke="#0d1117" stroke-width="2.5"/>
<circle cx="752.2" cy="184.2" r="6" fill="#FF9800" opacity="0.2"/>
<circle cx="752.2" cy="184.2" r="4" fill="#FF9800" stroke="#0d1117" stroke-width="2.5"/>
<circle cx="781.8" cy="365.1" r="6" fill="#FF9800" opacity="0.2"/>
<circle cx="781.8" cy="365.1" r="4" fill="#FF9800" stroke="#0d1117" stroke-width="2.5"/>
<circle cx="811.5" cy="122.0" r="6" fill="#FF9800" opacity="0.2"/>
<circle cx="811.5" cy="122.0" r="4" fill="#FF9800" stroke="#0d1117" stroke-width="2.5"/>
<circle cx="841.2" cy="122.1" r="6" fill="#FF9800" opacity="0.2"/>
<circle cx="841.2" cy="122.1" r="4" fill="#FF9800" stroke="#0d1117" stroke-width="2.5"/>
<circle cx="870.8" cy="122.2" r="6" fill="#FF9800" opacity="0.2"/>
<circle cx="870.8" cy="122.2" r="4" fill="#FF9800" stroke="#0d1117" stroke-width="2.5"/>
<circle cx="900.5" cy="184.3" r="6" fill="#FF9800" opacity="0.2"/>
<circle cx="900.5" cy="184.3" r="4" fill="#FF9800" stroke="#0d1117" stroke-width="2.5"/>
<circle cx="930.2" cy="394.7" r="6" fill="#FF9800" opacity="0.2"/>
<circle cx="930.2" cy="394.7" r="4" fill="#FF9800" stroke="#0d1117" stroke-width="2.5"/>
<path d="M69.8,123.9 L99.5,123.9 L129.2,123.9 L158.8,191.7 L188.5,400.2 L218.2,123.8 L247.8,123.0 L277.5,123.2 L307.2,165.7 L336.8,375.2 L366.5,132.3 L396.2,131.9 L425.8,132.1 L455.5,176.2 L485.2,376.8 L514.8,130.4 L544.5,127.0 L574.2,126.3 L603.8,146.2 L633.5,351.7 L663.2,153.2 L692.8,152.1 L722.5,152.2 L752.2,188.3 L781.8,368.7 L811.5,123.6 L841.2,123.8 L870.8,123.9 L900.5,172.8 L930.2,381.5" fill="none" stroke="#4CAF50" stroke-width="8" stroke-linejoin="round" stroke-linecap="round" opacity="0.12"/>
<path d="M69.8,123.9 L99.5,123.9 L129.2,123.9 L158.8,191.7 L188.5,400.2 L218.2,123.8 L247.8,123.0 L277.5,123.2 L307.2,165.7 L336.8,375.2 L366.5,132.3 L396.2,131.9 L425.8,132.1 L455.5,176.2 L485.2,376.8 L514.8,130.4 L544.5,127.0 L574.2,126.3 L603.8,146.2 L633.5,351.7 L663.2,153.2 L692.8,152.1 L722.5,152.2 L752.2,188.3 L781.8,368.7 L811.5,123.6 L841.2,123.8 L870.8,123.9 L900.5,172.8 L930.2,381.5" fill="none" stroke="#4CAF50" stroke-width="3.5" stroke-linejoin="round" stroke-linecap="round"/>
<circle cx="69.8" cy="123.9" r="6" fill="#4CAF50" opacity="0.2"/>
<circle cx="69.8" cy="123.9" r="4" fill="#4CAF50" stroke="#0d1117" stroke-width="2.5"/>
<circle cx="99.5" cy="123.9" r="6" fill="#4CAF50" opacity="0.2"/>
<circle cx="99.5" cy="123.9" r="4" fill="#4CAF50" stroke="#0d1117" stroke-width="2.5"/>
<circle cx="129.2" cy="123.9" r="6" fill="#4CAF50" opacity="0.2"/>
<circle cx="129.2" cy="123.9" r="4" fill="#4CAF50" stroke="#0d1117" stroke-width="2.5"/>
<circle cx="158.8" cy="191.7" r="6" fill="#4CAF50" opacity="0.2"/>
<circle cx="158.8" cy="191.7" r="4" fill="#4CAF50" stroke="#0d1117" stroke-width="2.5"/>
<circle cx="188.5" cy="400.2" r="6" fill="#4CAF50" opacity="0.2"/>
<circle cx="188.5" cy="400.2" r="4" fill="#4CAF50" stroke="#0d1117" stroke-width="2.5"/>
<circle cx="218.2" cy="123.8" r="6" fill="#4CAF50" opacity="0.2"/>
<circle cx="218.2" cy="123.8" r="4" fill="#4CAF50" stroke="#0d1117" stroke-width="2.5"/>
<circle cx="247.8" cy="123.0" r="6" fill="#4CAF50" opacity="0.2"/>
<circle cx="247.8" cy="123.0" r="4" fill="#4CAF50" stroke="#0d1117" stroke-width="2.5"/>
<circle cx="277.5" cy="123.2" r="6" fill="#4CAF50" opacity="0.2"/>
<circle cx="277.5" cy="123.2" r="4" fill="#4CAF50" stroke="#0d1117" stroke-width="2.5"/>
<circle cx="307.2" cy="165.7" r="6" fill="#4CAF50" opacity="0.2"/>
<circle cx="307.2" cy="165.7" r="4" fill="#4CAF50" stroke="#0d1117" stroke-width="2.5"/>
<circle cx="336.8" cy="375.2" r="6" fill="#4CAF50" opacity="0.2"/>
<circle cx="336.8" cy="375.2" r="4" fill="#4CAF50" stroke="#0d1117" stroke-width="2.5"/>
<circle cx="366.5" cy="132.3" r="6" fill="#4CAF50" opacity="0.2"/>
<circle cx="366.5" cy="132.3" r="4" fill="#4CAF50" stroke="#0d1117" stroke-width="2.5"/>
<circle cx="396.2" cy="131.9" r="6" fill="#4CAF50" opacity="0.2"/>
<circle cx="396.2" cy="131.9" r="4" fill="#4CAF50" stroke="#0d1117" stroke-width="2.5"/>
<circle cx="425.8" cy="132.1" r="6" fill="#4CAF50" opacity="0.2"/>
<circle cx="425.8" cy="132.1" r="4" fill="#4CAF50" stroke="#0d1117" stroke-width="2.5"/>
<circle cx="455.5" cy="176.2" r="6" fill="#4CAF50" opacity="0.2"/>
<circle cx="455.5" cy="176.2" r="4" fill="#4CAF50" stroke="#0d1117" stroke-width="2.5"/>
<circle cx="485.2" cy="376.8" r="6" fill="#4CAF50" opacity="0.2"/>
<circle cx="485.2" cy="376.8" r="4" fill="#4CAF50" stroke="#0d1117" stroke-width="2.5"/>
<circle cx="514.8" cy="130.4" r="6" fill="#4CAF50" opacity="0.2"/>
<circle cx="514.8" cy="130.4" r="4" fill="#4CAF50" stroke="#0d1117" stroke-width="2.5"/>
<circle cx="544.5" cy="127.0" r="6" fill="#4CAF50" opacity="0.2"/>
<circle cx="544.5" cy="127.0" r="4" fill="#4CAF50" stroke="#0d1117" stroke-width="2.5"/>
<circle cx="574.2" cy="126.3" r="6" fill="#4CAF50" opacity="0.2"/>
<circle cx="574.2" cy="126.3" r="4" fill="#4CAF50" stroke="#0d1117" stroke-width="2.5"/>
<circle cx="603.8" cy="146.2" r="6" fill="#4CAF50" opacity="0.2"/>
<circle cx="603.8" cy="146.2" r="4" fill="#4CAF50" stroke="#0d1117" stroke-width="2.5"/>
<circle cx="633.5" cy="351.7" r="6" fill="#4CAF50" opacity="0.2"/>
<circle cx="633.5" cy="351.7" r="4" fill="#4CAF50" stroke="#0d1117" stroke-width="2.5"/>
<circle cx="663.2" cy="153.2" r="6" fill="#4CAF50" opacity="0.2"/>
<circle cx="663.2" cy="153.2" r="4" fill="#4CAF50" stroke="#0d1117" stroke-width="2.5"/>
<circle cx="692.8" cy="152.1" r="6" fill="#4CAF50" opacity="0.2"/>
<circle cx="692.8" cy="152.1" r="4" fill="#4CAF50" stroke="#0d1117" stroke-width="2.5"/>
<circle cx="722.5" cy="152.2" r="6" fill="#4CAF50" opacity="0.2"/>
<circle cx="722.5" cy="152.2" r="4" fill="#4CAF50" stroke="#0d1117" stroke-width="2.5"/>
<circle cx="752.2" cy="188.3" r="6" fill="#4CAF50" opacity="0.2"/>
<circle cx="752.2" cy="188.3" r="4" fill="#4CAF50" stroke="#0d1117" stroke-width="2.5"/>
<circle cx="781.8" cy="368.7" r="6" fill="#4CAF50" opacity="0.2"/>
<circle cx="781.8" cy="368.7" r="4" fill="#4CAF50" stroke="#0d1117" stroke-width="2.5"/>
<circle cx="811.5" cy="123.6" r="6" fill="#4CAF50" opacity="0.2"/>
<circle cx="811.5" cy="123.6" r="4" fill="#4CAF50" stroke="#0d1117" stroke-width="2.5"/>
<circle cx="841.2" cy="123.8" r="6" fill="#4CAF50" opacity="0.2"/>
<circle cx="841.2" cy="123.8" r="4" fill="#4CAF50" stroke="#0d1117" stroke-width="2.5"/>
<circle cx="870.8" cy="123.9" r="6" fill="#4CAF50" opacity="0.2"/>
<circle cx="870.8" cy="123.9" r="4" fill="#4CAF50" stroke="#0d1117" stroke-width="2.5"/>
<circle cx="900.5" cy="172.8" r="6" fill="#4CAF50" opacity="0.2"/>
<circle cx="900.5" cy="172.8" r="4" fill="#4CAF50" stroke="#0d1117" stroke-width="2.5"/>
<circle cx="930.2" cy="381.5" r="6" fill="#4CAF50" opacity="0.2"/>
<circle cx="930.2" cy="381.5" r="4" fill="#4CAF50" stroke="#0d1117" stroke-width="2.5"/>
<path d="M69.8,142.5 L99.5,142.7 L129.2,142.8 L158.8,202.1 L188.5,391.9 L218.2,139.9 L247.8,140.9 L277.5,141.1 L307.2,176.9 L336.8,368.5 L366.5,149.7 L396.2,149.7 L425.8,149.7 L455.5,230.1 L485.2,412.9 L514.8,149.6 L544.5,149.6 L574.2,149.6 L603.8,227.5 L633.5,410.3 L663.2,154.5 L692.8,154.7 L722.5,154.8 L752.2,210.3 L781.8,388.1 L811.5,142.5 L841.2,142.5 L870.8,142.6 L900.5,217.0 L930.2,407.0" fill="none" stroke="#BB86FC" stroke-width="8" stroke-linejoin="round" stroke-linecap="round" opacity="0.12"/>
<path d="M69.8,142.5 L99.5,142.7 L129.2,142.8 L158.8,202.1 L188.5,391.9 L218.2,139.9 L247.8,140.9 L277.5,141.1 L307.2,176.9 L336.8,368.5 L366.5,149.7 L396.2,149.7 L425.8,149.7 L455.5,230.1 L485.2,412.9 L514.8,149.6 L544.5,149.6 L574.2,149.6 L603.8,227.5 L633.5,410.3 L663.2,154.5 L692.8,154.7 L722.5,154.8 L752.2,210.3 L781.8,388.1 L811.5,142.5 L841.2,142.5 L870.8,142.6 L900.5,217.0 L930.2,407.0" fill="none" stroke="#BB86FC" stroke-width="3.5" stroke-linejoin="round" stroke-linecap="round"/>
<circle cx="69.8" cy="142.5" r="6" fill="#BB86FC" opacity="0.2"/>
<circle cx="69.8" cy="142.5" r="4" fill="#BB86FC" stroke="#0d1117" stroke-width="2.5"/>
<circle cx="99.5" cy="142.7" r="6" fill="#BB86FC" opacity="0.2"/>
<circle cx="99.5" cy="142.7" r="4" fill="#BB86FC" stroke="#0d1117" stroke-width="2.5"/>
<circle cx="129.2" cy="142.8" r="6" fill="#BB86FC" opacity="0.2"/>
<circle cx="129.2" cy="142.8" r="4" fill="#BB86FC" stroke="#0d1117" stroke-width="2.5"/>
<circle cx="158.8" cy="202.1" r="6" fill="#BB86FC" opacity="0.2"/>
<circle cx="158.8" cy="202.1" r="4" fill="#BB86FC" stroke="#0d1117" stroke-width="2.5"/>
<circle cx="188.5" cy="391.9" r="6" fill="#BB86FC" opacity="0.2"/>
<circle cx="188.5" cy="391.9" r="4" fill="#BB86FC" stroke="#0d1117" stroke-width="2.5"/>
<circle cx="218.2" cy="139.9" r="6" fill="#BB86FC" opacity="0.2"/>
<circle cx="218.2" cy="139.9" r="4" fill="#BB86FC" stroke="#0d1117" stroke-width="2.5"/>
<circle cx="247.8" cy="140.9" r="6" fill="#BB86FC" opacity="0.2"/>
<circle cx="247.8" cy="140.9" r="4" fill="#BB86FC" stroke="#0d1117" stroke-width="2.5"/>
<circle cx="277.5" cy="141.1" r="6" fill="#BB86FC" opacity="0.2"/>
<circle cx="277.5" cy="141.1" r="4" fill="#BB86FC" stroke="#0d1117" stroke-width="2.5"/>
<circle cx="307.2" cy="176.9" r="6" fill="#BB86FC" opacity="0.2"/>
<circle cx="307.2" cy="176.9" r="4" fill="#BB86FC" stroke="#0d1117" stroke-width="2.5"/>
<circle cx="336.8" cy="368.5" r="6" fill="#BB86FC" opacity="0.2"/>
<circle cx="336.8" cy="368.5" r="4" fill="#BB86FC" stroke="#0d1117" stroke-width="2.5"/>
<circle cx="366.5" cy="149.7" r="6" fill="#BB86FC" opacity="0.2"/>
<circle cx="366.5" cy="149.7" r="4" fill="#BB86FC" stroke="#0d1117" stroke-width="2.5"/>
<circle cx="396.2" cy="149.7" r="6" fill="#BB86FC" opacity="0.2"/>
<circle cx="396.2" cy="149.7" r="4" fill="#BB86FC" stroke="#0d1117" stroke-width="2.5"/>
<circle cx="425.8" cy="149.7" r="6" fill="#BB86FC" opacity="0.2"/>
<circle cx="425.8" cy="149.7" r="4" fill="#BB86FC" stroke="#0d1117" stroke-width="2.5"/>
<circle cx="455.5" cy="230.1" r="6" fill="#BB86FC" opacity="0.2"/>
<circle cx="455.5" cy="230.1" r="4" fill="#BB86FC" stroke="#0d1117" stroke-width="2.5"/>
<circle cx="485.2" cy="412.9" r="6" fill="#BB86FC" opacity="0.2"/>
<circle cx="485.2" cy="412.9" r="4" fill="#BB86FC" stroke="#0d1117" stroke-width="2.5"/>
<circle cx="514.8" cy="149.6" r="6" fill="#BB86FC" opacity="0.2"/>
<circle cx="514.8" cy="149.6" r="4" fill="#BB86FC" stroke="#0d1117" stroke-width="2.5"/>
<circle cx="544.5" cy="149.6" r="6" fill="#BB86FC" opacity="0.2"/>
<circle cx="544.5" cy="149.6" r="4" fill="#BB86FC" stroke="#0d1117" stroke-width="2.5"/>
<circle cx="574.2" cy="149.6" r="6" fill="#BB86FC" opacity="0.2"/>
<circle cx="574.2" cy="149.6" r="4" fill="#BB86FC" stroke="#0d1117" stroke-width="2.5"/>
<circle cx="603.8" cy="227.5" r="6" fill="#BB86FC" opacity="0.2"/>
<circle cx="603.8" cy="227.5" r="4" fill="#BB86FC" stroke="#0d1117" stroke-width="2.5"/>
<circle cx="633.5" cy="410.3" r="6" fill="#BB86FC" opacity="0.2"/>
<circle cx="633.5" cy="410.3" r="4" fill="#BB86FC" stroke="#0d1117" stroke-width="2.5"/>
<circle cx="663.2" cy="154.5" r="6" fill="#BB86FC" opacity="0.2"/>
<circle cx="663.2" cy="154.5" r="4" fill="#BB86FC" stroke="#0d1117" stroke-width="2.5"/>
<circle cx="692.8" cy="154.7" r="6" fill="#BB86FC" opacity="0.2"/>
<circle cx="692.8" cy="154.7" r="4" fill="#BB86FC" stroke="#0d1117" stroke-width="2.5"/>
<circle cx="722.5" cy="154.8" r="6" fill="#BB86FC" opacity="0.2"/>
<circle cx="722.5" cy="154.8" r="4" fill="#BB86FC" stroke="#0d1117" stroke-width="2.5"/>
<circle cx="752.2" cy="210.3" r="6" fill="#BB86FC" opacity="0.2"/>
<circle cx="752.2" cy="210.3" r="4" fill="#BB86FC" stroke="#0d1117" stroke-width="2.5"/>
<circle cx="781.8" cy="388.1" r="6" fill="#BB86FC" opacity="0.2"/>
<circle cx="781.8" cy="388.1" r="4" fill="#BB86FC" stroke="#0d1117" stroke-width="2.5"/>
<circle cx="811.5" cy="142.5" r="6" fill="#BB86FC" opacity="0.2"/>
<circle cx="811.5" cy="142.5" r="4" fill="#BB86FC" stroke="#0d1117" stroke-width="2.5"/>
<circle cx="841.2" cy="142.5" r="6" fill="#BB86FC" opacity="0.2"/>
<circle cx="841.2" cy="142.5" r="4" fill="#BB86FC" stroke="#0d1117" stroke-width="2.5"/>
<circle cx="870.8" cy="142.6" r="6" fill="#BB86FC" opacity="0.2"/>
<circle cx="870.8" cy="142.6" r="4" fill="#BB86FC" stroke="#0d1117" stroke-width="2.5"/>
<circle cx="900.5" cy="217.0" r="6" fill="#BB86FC" opacity="0.2"/>
<circle cx="900.5" cy="217.0" r="4" fill="#BB86FC" stroke="#0d1117" stroke-width="2.5"/>
<circle cx="930.2" cy="407.0" r="6" fill="#BB86FC" opacity="0.2"/>
<circle cx="930.2" cy="407.0" r="4" fill="#BB86FC" stroke="#0d1117" stroke-width="2.5"/>
<path d="M69.8,123.0 L99.5,122.9 L129.2,123.0 L158.8,170.4 L188.5,380.0 L218.2,121.8 L247.8,120.9 L277.5,121.1 L307.2,154.2 L336.8,365.7 L366.5,131.5 L396.2,131.1 L425.8,131.3 L455.5,178.3 L485.2,379.6 L514.8,131.3 L544.5,131.3 L574.2,131.3 L603.8,193.5 L633.5,394.7 L663.2,152.3 L692.8,150.9 L722.5,151.5 L752.2,180.5 L781.8,362.1 L811.5,123.1 L841.2,123.1 L870.8,123.1 L900.5,199.4 L930.2,408.8" fill="none" stroke="#F472B6" stroke-width="8" stroke-linejoin="round" stroke-linecap="round" opacity="0.12"/>
<path d="M69.8,123.0 L99.5,122.9 L129.2,123.0 L158.8,170.4 L188.5,380.0 L218.2,121.8 L247.8,120.9 L277.5,121.1 L307.2,154.2 L336.8,365.7 L366.5,131.5 L396.2,131.1 L425.8,131.3 L455.5,178.3 L485.2,379.6 L514.8,131.3 L544.5,131.3 L574.2,131.3 L603.8,193.5 L633.5,394.7 L663.2,152.3 L692.8,150.9 L722.5,151.5 L752.2,180.5 L781.8,362.1 L811.5,123.1 L841.2,123.1 L870.8,123.1 L900.5,199.4 L930.2,408.8" fill="none" stroke="#F472B6" stroke-width="3.5" stroke-linejoin="round" stroke-linecap="round"/>
<circle cx="69.8" cy="123.0" r="6" fill="#F472B6" opacity="0.2"/>
<circle cx="69.8" cy="123.0" r="4" fill="#F472B6" stroke="#0d1117" stroke-width="2.5"/>
<circle cx="99.5" cy="122.9" r="6" fill="#F472B6" opacity="0.2"/>
<circle cx="99.5" cy="122.9" r="4" fill="#F472B6" stroke="#0d1117" stroke-width="2.5"/>
<circle cx="129.2" cy="123.0" r="6" fill="#F472B6" opacity="0.2"/>
<circle cx="129.2" cy="123.0" r="4" fill="#F472B6" stroke="#0d1117" stroke-width="2.5"/>
<circle cx="158.8" cy="170.4" r="6" fill="#F472B6" opacity="0.2"/>
<circle cx="158.8" cy="170.4" r="4" fill="#F472B6" stroke="#0d1117" stroke-width="2.5"/>
<circle cx="188.5" cy="380.0" r="6" fill="#F472B6" opacity="0.2"/>
<circle cx="188.5" cy="380.0" r="4" fill="#F472B6" stroke="#0d1117" stroke-width="2.5"/>
<circle cx="218.2" cy="121.8" r="6" fill="#F472B6" opacity="0.2"/>
<circle cx="218.2" cy="121.8" r="4" fill="#F472B6" stroke="#0d1117" stroke-width="2.5"/>
<circle cx="247.8" cy="120.9" r="6" fill="#F472B6" opacity="0.2"/>
<circle cx="247.8" cy="120.9" r="4" fill="#F472B6" stroke="#0d1117" stroke-width="2.5"/>
<circle cx="277.5" cy="121.1" r="6" fill="#F472B6" opacity="0.2"/>
<circle cx="277.5" cy="121.1" r="4" fill="#F472B6" stroke="#0d1117" stroke-width="2.5"/>
<circle cx="307.2" cy="154.2" r="6" fill="#F472B6" opacity="0.2"/>
<circle cx="307.2" cy="154.2" r="4" fill="#F472B6" stroke="#0d1117" stroke-width="2.5"/>
<circle cx="336.8" cy="365.7" r="6" fill="#F472B6" opacity="0.2"/>
<circle cx="336.8" cy="365.7" r="4" fill="#F472B6" stroke="#0d1117" stroke-width="2.5"/>
<circle cx="366.5" cy="131.5" r="6" fill="#F472B6" opacity="0.2"/>
<circle cx="366.5" cy="131.5" r="4" fill="#F472B6" stroke="#0d1117" stroke-width="2.5"/>
<circle cx="396.2" cy="131.1" r="6" fill="#F472B6" opacity="0.2"/>
<circle cx="396.2" cy="131.1" r="4" fill="#F472B6" stroke="#0d1117" stroke-width="2.5"/>
<circle cx="425.8" cy="131.3" r="6" fill="#F472B6" opacity="0.2"/>
<circle cx="425.8" cy="131.3" r="4" fill="#F472B6" stroke="#0d1117" stroke-width="2.5"/>
<circle cx="455.5" cy="178.3" r="6" fill="#F472B6" opacity="0.2"/>
<circle cx="455.5" cy="178.3" r="4" fill="#F472B6" stroke="#0d1117" stroke-width="2.5"/>
<circle cx="485.2" cy="379.6" r="6" fill="#F472B6" opacity="0.2"/>
<circle cx="485.2" cy="379.6" r="4" fill="#F472B6" stroke="#0d1117" stroke-width="2.5"/>
<circle cx="514.8" cy="131.3" r="6" fill="#F472B6" opacity="0.2"/>
<circle cx="514.8" cy="131.3" r="4" fill="#F472B6" stroke="#0d1117" stroke-width="2.5"/>
<circle cx="544.5" cy="131.3" r="6" fill="#F472B6" opacity="0.2"/>
<circle cx="544.5" cy="131.3" r="4" fill="#F472B6" stroke="#0d1117" stroke-width="2.5"/>
<circle cx="574.2" cy="131.3" r="6" fill="#F472B6" opacity="0.2"/>
<circle cx="574.2" cy="131.3" r="4" fill="#F472B6" stroke="#0d1117" stroke-width="2.5"/>
<circle cx="603.8" cy="193.5" r="6" fill="#F472B6" opacity="0.2"/>
<circle cx="603.8" cy="193.5" r="4" fill="#F472B6" stroke="#0d1117" stroke-width="2.5"/>
<circle cx="633.5" cy="394.7" r="6" fill="#F472B6" opacity="0.2"/>
<circle cx="633.5" cy="394.7" r="4" fill="#F472B6" stroke="#0d1117" stroke-width="2.5"/>
<circle cx="663.2" cy="152.3" r="6" fill="#F472B6" opacity="0.2"/>
<circle cx="663.2" cy="152.3" r="4" fill="#F472B6" stroke="#0d1117" stroke-width="2.5"/>
<circle cx="692.8" cy="150.9" r="6" fill="#F472B6" opacity="0.2"/>
<circle cx="692.8" cy="150.9" r="4" fill="#F472B6" stroke="#0d1117" stroke-width="2.5"/>
<circle cx="722.5" cy="151.5" r="6" fill="#F472B6" opacity="0.2"/>
<circle cx="722.5" cy="151.5" r="4" fill="#F472B6" stroke="#0d1117" stroke-width="2.5"/>
<circle cx="752.2" cy="180.5" r="6" fill="#F472B6" opacity="0.2"/>
<circle cx="752.2" cy="180.5" r="4" fill="#F472B6" stroke="#0d1117" stroke-width="2.5"/>
<circle cx="781.8" cy="362.1" r="6" fill="#F472B6" opacity="0.2"/>
<circle cx="781.8" cy="362.1" r="4" fill="#F472B6" stroke="#0d1117" stroke-width="2.5"/>
<circle cx="811.5" cy="123.1" r="6" fill="#F472B6" opacity="0.2"/>
<circle cx="811.5" cy="123.1" r="4" fill="#F472B6" stroke="#0d1117" stroke-width="2.5"/>
<circle cx="841.2" cy="123.1" r="6" fill="#F472B6" opacity="0.2"/>
<circle cx="841.2" cy="123.1" r="4" fill="#F472B6" stroke="#0d1117" stroke-width="2.5"/>
<circle cx="870.8" cy="123.1" r="6" fill="#F472B6" opacity="0.2"/>
<circle cx="870.8" cy="123.1" r="4" fill="#F472B6" stroke="#0d1117" stroke-width="2.5"/>
<circle cx="900.5" cy="199.4" r="6" fill="#F472B6" opacity="0.2"/>
<circle cx="900.5" cy="199.4" r="4" fill="#F472B6" stroke="#0d1117" stroke-width="2.5"/>
<circle cx="930.2" cy="408.8" r="6" fill="#F472B6" opacity="0.2"/>
<circle cx="930.2" cy="408.8" r="4" fill="#F472B6" stroke="#0d1117" stroke-width="2.5"/>
<text x="69.8" y="448" text-anchor="end" fill="#8b949e" font-size="11" transform="rotate(-30,69.8,448)">push_back</text>
<text x="99.5" y="448" text-anchor="end" fill="#8b949e" font-size="11" transform="rotate(-30,99.5,448)">push_back_mean</text>
<text x="129.2" y="448" text-anchor="end" fill="#8b949e" font-size="11" transform="rotate(-30,129.2,448)">push_back_median</text>
<text x="158.8" y="448" text-anchor="end" fill="#8b949e" font-size="11" transform="rotate(-30,158.8,448)">push_back_stddev</text>
<text x="188.5" y="448" text-anchor="end" fill="#8b949e" font-size="11" transform="rotate(-30,188.5,448)">push_back_cv</text>
<text x="218.2" y="448" text-anchor="end" fill="#8b949e" font-size="11" transform="rotate(-30,218.2,448)">push_front</text>
<text x="247.8" y="448" text-anchor="end" fill="#8b949e" font-size="11" transform="rotate(-30,247.8,448)">push_front_mean</text>
<text x="277.5" y="448" text-anchor="end" fill="#8b949e" font-size="11" transform="rotate(-30,277.5,448)">push_front_median</text>
<text x="307.2" y="448" text-anchor="end" fill="#8b949e" font-size="11" transform="rotate(-30,307.2,448)">push_front_stddev</text>
<text x="336.8" y="448" text-anchor="end" fill="#8b949e" font-size="11" transform="rotate(-30,336.8,448)">push_front_cv</text>
<text x="366.5" y="448" text-anchor="end" fill="#8b949e" font-size="11" transform="rotate(-30,366.5,448)">insert_middle</text>
<text x="396.2" y="448" text-anchor="end" fill="#8b949e" font-size="11" transform="rotate(-30,396.2,448)">insert_middle_mean</text>
<text x="425.8" y="448" text-anchor="end" fill="#8b949e" font-size="11" transform="rotate(-30,425.8,448)">insert_middle_median</text>
<text x="455.5" y="448" text-anchor="end" fill="#8b949e" font-size="11" transform="rotate(-30,455.5,448)">insert_middle_stddev</text>
<text x="485.2" y="448" text-anchor="end" fill="#8b949e" font-size="11" transform="rotate(-30,485.2,448)">insert_middle_cv</text>
<text x="514.8" y="448" text-anchor="end" fill="#8b949e" font-size="11" transform="rotate(-30,514.8,448)">erase_middle</text>
<text x="544.5" y="448" text-anchor="end" fill="#8b949e" font-size="11" transform="rotate(-30,544.5,448)">erase_middle_mean</text>
<text x="574.2" y="448" text-anchor="end" fill="#8b949e" font-size="11" transform="rotate(-30,574.2,448)">erase_middle_median</text>
<text x="603.8" y="448" text-anchor="end" fill="#8b949e" font-size="11" transform="rotate(-30,603.8,448)">erase_middle_stddev</text>
<text x="633.5" y="448" text-anchor="end" fill="#8b949e" font-size="11" transform="rotate(-30,633.5,448)">erase_middle_cv</text>
<text x="663.2" y="448" text-anchor="end" fill="#8b949e" font-size="11" transform="rotate(-30,663.2,448)">iterate</text>
<text x="692.8" y="448" text-anchor="end" fill="#8b949e" font-size="11" transform="rotate(-30,692.8,448)">iterate_mean</text>
<text x="722.5" y="448" text-anchor="end" fill="#8b949e" font-size="11" transform="rotate(-30,722.5,448)">iterate_median</text>
<text x="752.2" y="448" text-anchor="end" fill="#8b949e" font-size="11" transform="rotate(-30,752.2,448)">iterate_stddev</text>
<text x="781.8" y="448" text-anchor="end" fill="#8b949e" font-size="11" transform="rotate(-30,781.8,448)">iterate_cv</text>
<text x="811.5" y="448" text-anchor="end" fill="#8b949e" font-size="11" transform="rotate(-30,811.5,448)">clear</text>
<text x="841.2" y="448" text-anchor="end" fill="#8b949e" font-size="11" transform="rotate(-30,841.2,448)">clear_mean</text>
<text x="870.8" y="448" text-anchor="end" fill="#8b949e" font-size="11" transform="rotate(-30,870.8,448)">clear_median</text>
<text x="900.5" y="448" text-anchor="end" fill="#8b949e" font-size="11" transform="rotate(-30,900.5,448)">clear_stddev</text>
<text x="930.2" y="448" text-anchor="end" fill="#8b949e" font-size="11" transform="rotate(-30,930.2,448)">clear_cv</text>
<text x="14" y="272.5" text-anchor="middle" fill="#484f58" font-size="11" transform="rotate(-90,14,272.5)">Time (ms)</text>
<circle cx="65" cy="69" r="5" fill="#58a6ff"/>
<text x="75" y="73" fill="#c9d1d9" font-size="12">RG::K::LIST</text>
<circle cx="220" cy="69" r="5" fill="#FF9800"/>
<text x="230" y="73" fill="#c9d1d9" font-size="12">std::list</text>
<circle cx="375" cy="69" r="5" fill="#4CAF50"/>
<text x="385" y="73" fill="#c9d1d9" font-size="12">std::forward_list</text>
<circle cx="530" cy="69" r="5" fill="#BB86FC"/>
<text x="540" y="73" fill="#c9d1d9" font-size="12">boost::list</text>
<circle cx="685" cy="69" r="5" fill="#F472B6"/>
<text x="695" y="73" fill="#c9d1d9" font-size="12">eastl::list</text>
<text x="480.0" y="20" text-anchor="middle" fill="#58a6ff" font-size="15" font-weight="700">RG::K::LIST Benchmark — 2026-08-31</text>
</svg>