<svg xmlns="http://www.w3.org/2000/svg" viewBox="0 0 960 500" font-family="-apple-system,BlinkMacSystemFont,Segoe UI,sans-serif">
<rect width="960" height="500" rx="10" fill="#0d1117"/>
<rect x="55" y="115" width="890" height="315" fill="#161b22" rx="4"/>
<line x1="55" y1="428.0" x2="945" y2="428.0" stroke="#21262d"/>
<text x="47" y="431.9942111346358" text-anchor="end" fill="#484f58" font-size="10">0µs</text>
<line x1="55" y1="418.0" x2="945" y2="418.0" stroke="#21262d"/>
<text x="47" y="422.00837810498234" text-anchor="end" fill="#484f58" font-size="10">0µs</text>
<line x1="55" y1="404.8" x2="945" y2="404.8" stroke="#21262d"/>
<text x="47" y="408.8078248722293" text-anchor="end" fill="#484f58" font-size="10">0µs</text>
<line x1="55" y1="394.8" x2="945" y2="394.8" stroke="#21262d"/>
<text x="47" y="398.8219918425758" text-anchor="end" fill="#484f58" font-size="10">0µs</text>
<line x1="55" y1="384.8" x2="945" y2="384.8" stroke="#21262d"/>
<text x="47" y="388.83615881292235" text-anchor="end" fill="#484f58" font-size="10">0µs</text>
<line x1="55" y1="371.6" x2="945" y2="371.6" stroke="#21262d"/>
<text x="47" y="375.6356055801692" text-anchor="end" fill="#484f58" font-size="10">0µs</text>
<line x1="55" y1="361.6" x2="945" y2="361.6" stroke="#21262d"/>
<text x="47" y="365.64977255051576" text-anchor="end" fill="#484f58" font-size="10">0µs</text>
<line x1="55" y1="351.7" x2="945" y2="351.7" stroke="#21262d"/>
<text x="47" y="355.6639395208623" text-anchor="end" fill="#484f58" font-size="10">0µs</text>
<line x1="55" y1="338.5" x2="945" y2="338.5" stroke="#21262d"/>
<text x="47" y="342.46338628810923" text-anchor="end" fill="#484f58" font-size="10">0µs</text>
<line x1="55" y1="328.5" x2="945" y2="328.5" stroke="#21262d"/>
<text x="47" y="332.47755325845577" text-anchor="end" fill="#484f58" font-size="10">0µs</text>
<line x1="55" y1="318.5" x2="945" y2="318.5" stroke="#21262d"/>
<text x="47" y="322.4917202288023" text-anchor="end" fill="#484f58" font-size="10">0µs</text>
<line x1="55" y1="305.3" x2="945" y2="305.3" stroke="#21262d"/>
<text x="47" y="309.29116699604924" text-anchor="end" fill="#484f58" font-size="10">0µs</text>
<line x1="55" y1="295.3" x2="945" y2="295.3" stroke="#21262d"/>
<text x="47" y="299.3053339663958" text-anchor="end" fill="#484f58" font-size="10">0µs</text>
<line x1="55" y1="285.3" x2="945" y2="285.3" stroke="#21262d"/>
<text x="47" y="289.3195009367423" text-anchor="end" fill="#484f58" font-size="10">0µs</text>
<line x1="55" y1="272.1" x2="945" y2="272.1" stroke="#21262d"/>
<text x="47" y="276.1189477039892" text-anchor="end" fill="#484f58" font-size="10">0µs</text>
<line x1="55" y1="262.1" x2="945" y2="262.1" stroke="#21262d"/>
<text x="47" y="266.13311467433573" text-anchor="end" fill="#484f58" font-size="10">1µs</text>
<line x1="55" y1="252.1" x2="945" y2="252.1" stroke="#21262d"/>
<text x="47" y="256.14728164468227" text-anchor="end" fill="#484f58" font-size="10">2µs</text>
<line x1="55" y1="238.9" x2="945" y2="238.9" stroke="#21262d"/>
<text x="47" y="242.9467284119292" text-anchor="end" fill="#484f58" font-size="10">5µs</text>
<line x1="55" y1="229.0" x2="945" y2="229.0" stroke="#21262d"/>
<text x="47" y="232.96089538227574" text-anchor="end" fill="#484f58" font-size="10">10µs</text>
<line x1="55" y1="219.0" x2="945" y2="219.0" stroke="#21262d"/>
<text x="47" y="222.97506235262227" text-anchor="end" fill="#484f58" font-size="10">20µs</text>
<line x1="55" y1="205.8" x2="945" y2="205.8" stroke="#21262d"/>
<text x="47" y="209.77450911986918" text-anchor="end" fill="#484f58" font-size="10">50µs</text>
<line x1="55" y1="195.8" x2="945" y2="195.8" stroke="#21262d"/>
<text x="47" y="199.78867609021572" text-anchor="end" fill="#484f58" font-size="10">100µs</text>
<line x1="55" y1="185.8" x2="945" y2="185.8" stroke="#21262d"/>
<text x="47" y="189.80284306056225" text-anchor="end" fill="#484f58" font-size="10">200µs</text>
<line x1="55" y1="172.6" x2="945" y2="172.6" stroke="#21262d"/>
<text x="47" y="176.6022898278092" text-anchor="end" fill="#484f58" font-size="10">500µs</text>
<line x1="55" y1="162.6" x2="945" y2="162.6" stroke="#21262d"/>
<text x="47" y="166.61645679815572" text-anchor="end" fill="#484f58" font-size="10">1ms</text>
<line x1="55" y1="152.6" x2="945" y2="152.6" stroke="#21262d"/>
<text x="47" y="156.63062376850226" text-anchor="end" fill="#484f58" font-size="10">2ms</text>
<line x1="55" y1="139.4" x2="945" y2="139.4" stroke="#21262d"/>
<text x="47" y="143.43007053574914" text-anchor="end" fill="#484f58" font-size="10">5ms</text>
<line x1="55" y1="129.4" x2="945" y2="129.4" stroke="#21262d"/>
<text x="47" y="133.44423750609573" text-anchor="end" fill="#484f58" font-size="10">10ms</text>
<line x1="55" y1="119.5" x2="945" y2="119.5" stroke="#21262d"/>
<text x="47" y="123.45840447644225" text-anchor="end" fill="#484f58" font-size="10">20ms</text>
<line x1="84.7" y1="115" x2="84.7" y2="430" stroke="#30363d" stroke-width="1" stroke-dasharray="4,4"/>
<line x1="114.3" y1="115" x2="114.3" y2="430" stroke="#30363d" stroke-width="1" stroke-dasharray="4,4"/>
<line x1="144.0" y1="115" x2="144.0" y2="430" stroke="#30363d" stroke-width="1" stroke-dasharray="4,4"/>
<line x1="173.7" y1="115" x2="173.7" y2="430" stroke="#30363d" stroke-width="1" stroke-dasharray="4,4"/>
<line x1="203.3" y1="115" x2="203.3" y2="430" stroke="#30363d" stroke-width="1" stroke-dasharray="4,4"/>
<line x1="233.0" y1="115" x2="233.0" y2="430" stroke="#30363d" stroke-width="1" stroke-dasharray="4,4"/>
<line x1="262.7" y1="115" x2="262.7" y2="430" stroke="#30363d" stroke-width="1" stroke-dasharray="4,4"/>
<line x1="292.3" y1="115" x2="292.3" y2="430" stroke="#30363d" stroke-width="1" stroke-dasharray="4,4"/>
<line x1="322.0" y1="115" x2="322.0" y2="430" stroke="#30363d" stroke-width="1" stroke-dasharray="4,4"/>
<line x1="351.7" y1="115" x2="351.7" y2="430" stroke="#30363d" stroke-width="1" stroke-dasharray="4,4"/>
<line x1="381.3" y1="115" x2="381.3" y2="430" stroke="#30363d" stroke-width="1" stroke-dasharray="4,4"/>
<line x1="411.0" y1="115" x2="411.0" y2="430" stroke="#30363d" stroke-width="1" stroke-dasharray="4,4"/>
<line x1="440.7" y1="115" x2="440.7" y2="430" stroke="#30363d" stroke-width="1" stroke-dasharray="4,4"/>
<line x1="470.3" y1="115" x2="470.3" y2="430" stroke="#30363d" stroke-width="1" stroke-dasharray="4,4"/>
<line x1="500.0" y1="115" x2="500.0" y2="430" stroke="#30363d" stroke-width="1" stroke-dasharray="4,4"/>
<line x1="529.7" y1="115" x2="529.7" y2="430" stroke="#30363d" stroke-width="1" stroke-dasharray="4,4"/>
<line x1="559.3" y1="115" x2="559.3" y2="430" stroke="#30363d" stroke-width="1" stroke-dasharray="4,4"/>
<line x1="589.0" y1="115" x2="589.0" y2="430" stroke="#30363d" stroke-width="1" stroke-dasharray="4,4"/>
<line x1="618.7" y1="115" x2="618.7" y2="430" stroke="#30363d" stroke-width="1" stroke-dasharray="4,4"/>
<line x1="648.3" y1="115" x2="648.3" y2="430" stroke="#30363d" stroke-width="1" stroke-dasharray="4,4"/>
<line x1="678.0" y1="115" x2="678.0" y2="430" stroke="#30363d" stroke-width="1" stroke-dasharray="4,4"/>
<line x1="707.7" y1="115" x2="707.7" y2="430" stroke="#30363d" stroke-width="1" stroke-dasharray="4,4"/>
<line x1="737.3" y1="115" x2="737.3" y2="430" stroke="#30363d" stroke-width="1" stroke-dasharray="4,4"/>
<line x1="767.0" y1="115" x2="767.0" y2="430" stroke="#30363d" stroke-width="1" stroke-dasharray="4,4"/>
<line x1="796.7" y1="115" x2="796.7" y2="430" stroke="#30363d" stroke-width="1" stroke-dasharray="4,4"/>
<line x1="826.3" y1="115" x2="826.3" y2="430" stroke="#30363d" stroke-width="1" stroke-dasharray="4,4"/>
<line x1="856.0" y1="115" x2="856.0" y2="430" stroke="#30363d" stroke-width="1" stroke-dasharray="4,4"/>
<line x1="885.7" y1="115" x2="885.7" y2="430" stroke="#30363d" stroke-width="1" stroke-dasharray="4,4"/>
<line x1="915.3" y1="115" x2="915.3" y2="430" stroke="#30363d" stroke-width="1" stroke-dasharray="4,4"/>
<path d="M69.8,149.2 L99.5,148.6 L129.2,148.6 L158.8,203.0 L188.5,416.0 L218.2,148.3 L247.8,147.7 L277.5,148.1 L307.2,186.3 L336.8,400.2 L366.5,157.5 L396.2,156.0 L425.8,156.7 L455.5,182.8 L485.2,388.5 L514.8,157.9 L544.5,157.2 L574.2,157.4 L603.8,198.6 L633.5,403.0 L663.2,168.9 L692.8,167.7 L722.5,167.9 L752.2,207.2 L781.8,401.2 L811.5,149.2 L841.2,149.2 L870.8,149.3 L900.5,212.4 L930.2,424.9" fill="none" stroke="#58a6ff" stroke-width="8" stroke-linejoin="round" stroke-linecap="round" opacity="0.12"/>
<path d="M69.8,149.2 L99.5,148.6 L129.2,148.6 L158.8,203.0 L188.5,416.0 L218.2,148.3 L247.8,147.7 L277.5,148.1 L307.2,186.3 L336.8,400.2 L366.5,157.5 L396.2,156.0 L425.8,156.7 L455.5,182.8 L485.2,388.5 L514.8,157.9 L544.5,157.2 L574.2,157.4 L603.8,198.6 L633.5,403.0 L663.2,168.9 L692.8,167.7 L722.5,167.9 L752.2,207.2 L781.8,401.2 L811.5,149.2 L841.2,149.2 L870.8,149.3 L900.5,212.4 L930.2,424.9" fill="none" stroke="#58a6ff" stroke-width="3.5" stroke-linejoin="round" stroke-linecap="round"/>
<circle cx="69.8" cy="149.2" r="6" fill="#58a6ff" opacity="0.2"/>
<circle cx="69.8" cy="149.2" r="4" fill="#58a6ff" stroke="#0d1117" stroke-width="2.5"/>
<circle cx="99.5" cy="148.6" r="6" fill="#58a6ff" opacity="0.2"/>
<circle cx="99.5" cy="148.6" r="4" fill="#58a6ff" stroke="#0d1117" stroke-width="2.5"/>
<circle cx="129.2" cy="148.6" r="6" fill="#58a6ff" opacity="0.2"/>
<circle cx="129.2" cy="148.6" r="4" fill="#58a6ff" stroke="#0d1117" stroke-width="2.5"/>
<circle cx="158.8" cy="203.0" r="6" fill="#58a6ff" opacity="0.2"/>
<circle cx="158.8" cy="203.0" r="4" fill="#58a6ff" stroke="#0d1117" stroke-width="2.5"/>
<circle cx="188.5" cy="416.0" r="6" fill="#58a6ff" opacity="0.2"/>
<circle cx="188.5" cy="416.0" r="4" fill="#58a6ff" stroke="#0d1117" stroke-width="2.5"/>
<circle cx="218.2" cy="148.3" r="6" fill="#58a6ff" opacity="0.2"/>
<circle cx="218.2" cy="148.3" r="4" fill="#58a6ff" stroke="#0d1117" stroke-width="2.5"/>
<circle cx="247.8" cy="147.7" r="6" fill="#58a6ff" opacity="0.2"/>
<circle cx="247.8" cy="147.7" r="4" fill="#58a6ff" stroke="#0d1117" stroke-width="2.5"/>
<circle cx="277.5" cy="148.1" r="6" fill="#58a6ff" opacity="0.2"/>
<circle cx="277.5" cy="148.1" r="4" fill="#58a6ff" stroke="#0d1117" stroke-width="2.5"/>
<circle cx="307.2" cy="186.3" r="6" fill="#58a6ff" opacity="0.2"/>
<circle cx="307.2" cy="186.3" r="4" fill="#58a6ff" stroke="#0d1117" stroke-width="2.5"/>
<circle cx="336.8" cy="400.2" r="6" fill="#58a6ff" opacity="0.2"/>
<circle cx="336.8" cy="400.2" r="4" fill="#58a6ff" stroke="#0d1117" stroke-width="2.5"/>
<circle cx="366.5" cy="157.5" r="6" fill="#58a6ff" opacity="0.2"/>
<circle cx="366.5" cy="157.5" r="4" fill="#58a6ff" stroke="#0d1117" stroke-width="2.5"/>
<circle cx="396.2" cy="156.0" r="6" fill="#58a6ff" opacity="0.2"/>
<circle cx="396.2" cy="156.0" r="4" fill="#58a6ff" stroke="#0d1117" stroke-width="2.5"/>
<circle cx="425.8" cy="156.7" r="6" fill="#58a6ff" opacity="0.2"/>
<circle cx="425.8" cy="156.7" r="4" fill="#58a6ff" stroke="#0d1117" stroke-width="2.5"/>
<circle cx="455.5" cy="182.8" r="6" fill="#58a6ff" opacity="0.2"/>
<circle cx="455.5" cy="182.8" r="4" fill="#58a6ff" stroke="#0d1117" stroke-width="2.5"/>
<circle cx="485.2" cy="388.5" r="6" fill="#58a6ff" opacity="0.2"/>
<circle cx="485.2" cy="388.5" r="4" fill="#58a6ff" stroke="#0d1117" stroke-width="2.5"/>
<circle cx="514.8" cy="157.9" r="6" fill="#58a6ff" opacity="0.2"/>
<circle cx="514.8" cy="157.9" r="4" fill="#58a6ff" stroke="#0d1117" stroke-width="2.5"/>
<circle cx="544.5" cy="157.2" r="6" fill="#58a6ff" opacity="0.2"/>
<circle cx="544.5" cy="157.2" r="4" fill="#58a6ff" stroke="#0d1117" stroke-width="2.5"/>
<circle cx="574.2" cy="157.4" r="6" fill="#58a6ff" opacity="0.2"/>
<circle cx="574.2" cy="157.4" r="4" fill="#58a6ff" stroke="#0d1117" stroke-width="2.5"/>
<circle cx="603.8" cy="198.6" r="6" fill="#58a6ff" opacity="0.2"/>
<circle cx="603.8" cy="198.6" r="4" fill="#58a6ff" stroke="#0d1117" stroke-width="2.5"/>
<circle cx="633.5" cy="403.0" r="6" fill="#58a6ff" opacity="0.2"/>
<circle cx="633.5" cy="403.0" r="4" fill="#58a6ff" stroke="#0d1117" stroke-width="2.5"/>
<circle cx="663.2" cy="168.9" r="6" fill="#58a6ff" opacity="0.2"/>
<circle cx="663.2" cy="168.9" r="4" fill="#58a6ff" stroke="#0d1117" stroke-width="2.5"/>
<circle cx="692.8" cy="167.7" r="6" fill="#58a6ff" opacity="0.2"/>
<circle cx="692.8" cy="167.7" r="4" fill="#58a6ff" stroke="#0d1117" stroke-width="2.5"/>
<circle cx="722.5" cy="167.9" r="6" fill="#58a6ff" opacity="0.2"/>
<circle cx="722.5" cy="167.9" r="4" fill="#58a6ff" stroke="#0d1117" stroke-width="2.5"/>
<circle cx="752.2" cy="207.2" r="6" fill="#58a6ff" opacity="0.2"/>
<circle cx="752.2" cy="207.2" r="4" fill="#58a6ff" stroke="#0d1117" stroke-width="2.5"/>
<circle cx="781.8" cy="401.2" r="6" fill="#58a6ff" opacity="0.2"/>
<circle cx="781.8" cy="401.2" r="4" fill="#58a6ff" stroke="#0d1117" stroke-width="2.5"/>
<circle cx="811.5" cy="149.2" r="6" fill="#58a6ff" opacity="0.2"/>
<circle cx="811.5" cy="149.2" r="4" fill="#58a6ff" stroke="#0d1117" stroke-width="2.5"/>
<circle cx="841.2" cy="149.2" r="6" fill="#58a6ff" opacity="0.2"/>
<circle cx="841.2" cy="149.2" r="4" fill="#58a6ff" stroke="#0d1117" stroke-width="2.5"/>
<circle cx="870.8" cy="149.3" r="6" fill="#58a6ff" opacity="0.2"/>
<circle cx="870.8" cy="149.3" r="4" fill="#58a6ff" stroke="#0d1117" stroke-width="2.5"/>
<circle cx="900.5" cy="212.4" r="6" fill="#58a6ff" opacity="0.2"/>
<circle cx="900.5" cy="212.4" r="4" fill="#58a6ff" stroke="#0d1117" stroke-width="2.5"/>
<circle cx="930.2" cy="424.9" r="6" fill="#58a6ff" opacity="0.2"/>
<circle cx="930.2" cy="424.9" r="4" fill="#58a6ff" stroke="#0d1117" stroke-width="2.5"/>
<path d="M69.8,120.9 L99.5,120.8 L129.2,120.9 L158.8,181.6 L188.5,422.4 L218.2,127.2 L247.8,128.2 L277.5,128.5 L307.2,173.6 L336.8,407.0 L366.5,138.5 L396.2,138.2 L425.8,138.2 L455.5,199.9 L485.2,423.4 L514.8,134.3 L544.5,133.6 L574.2,133.7 L603.8,175.8 L633.5,403.9 L663.2,164.6 L692.8,164.5 L722.5,164.4 L752.2,210.2 L781.8,407.3 L811.5,122.6 L841.2,122.7 L870.8,122.6 L900.5,184.5 L930.2,423.5" fill="none" stroke="#FF9800" stroke-width="8" stroke-linejoin="round" stroke-linecap="round" opacity="0.12"/>
<path d="M69.8,120.9 L99.5,120.8 L129.2,120.9 L158.8,181.6 L188.5,422.4 L218.2,127.2 L247.8,128.2 L277.5,128.5 L307.2,173.6 L336.8,407.0 L366.5,138.5 L396.2,138.2 L425.8,138.2 L455.5,199.9 L485.2,423.4 L514.8,134.3 L544.5,133.6 L574.2,133.7 L603.8,175.8 L633.5,403.9 L663.2,164.6 L692.8,164.5 L722.5,164.4 L752.2,210.2 L781.8,407.3 L811.5,122.6 L841.2,122.7 L870.8,122.6 L900.5,184.5 L930.2,423.5" fill="none" stroke="#FF9800" stroke-width="3.5" stroke-linejoin="round" stroke-linecap="round"/>
<circle cx="69.8" cy="120.9" r="6" fill="#FF9800" opacity="0.2"/>
<circle cx="69.8" cy="120.9" r="4" fill="#FF9800" stroke="#0d1117" stroke-width="2.5"/>
<circle cx="99.5" cy="120.8" r="6" fill="#FF9800" opacity="0.2"/>
<circle cx="99.5" cy="120.8" r="4" fill="#FF9800" stroke="#0d1117" stroke-width="2.5"/>
<circle cx="129.2" cy="120.9" r="6" fill="#FF9800" opacity="0.2"/>
<circle cx="129.2" cy="120.9" r="4" fill="#FF9800" stroke="#0d1117" stroke-width="2.5"/>
<circle cx="158.8" cy="181.6" r="6" fill="#FF9800" opacity="0.2"/>
<circle cx="158.8" cy="181.6" r="4" fill="#FF9800" stroke="#0d1117" stroke-width="2.5"/>
<circle cx="188.5" cy="422.4" r="6" fill="#FF9800" opacity="0.2"/>
<circle cx="188.5" cy="422.4" r="4" fill="#FF9800" stroke="#0d1117" stroke-width="2.5"/>
<circle cx="218.2" cy="127.2" r="6" fill="#FF9800" opacity="0.2"/>
<circle cx="218.2" cy="127.2" r="4" fill="#FF9800" stroke="#0d1117" stroke-width="2.5"/>
<circle cx="247.8" cy="128.2" r="6" fill="#FF9800" opacity="0.2"/>
<circle cx="247.8" cy="128.2" r="4" fill="#FF9800" stroke="#0d1117" stroke-width="2.5"/>
<circle cx="277.5" cy="128.5" r="6" fill="#FF9800" opacity="0.2"/>
<circle cx="277.5" cy="128.5" r="4" fill="#FF9800" stroke="#0d1117" stroke-width="2.5"/>
<circle cx="307.2" cy="173.6" r="6" fill="#FF9800" opacity="0.2"/>
<circle cx="307.2" cy="173.6" r="4" fill="#FF9800" stroke="#0d1117" stroke-width="2.5"/>
<circle cx="336.8" cy="407.0" r="6" fill="#FF9800" opacity="0.2"/>
<circle cx="336.8" cy="407.0" r="4" fill="#FF9800" stroke="#0d1117" stroke-width="2.5"/>
<circle cx="366.5" cy="138.5" r="6" fill="#FF9800" opacity="0.2"/>
<circle cx="366.5" cy="138.5" r="4" fill="#FF9800" stroke="#0d1117" stroke-width="2.5"/>
<circle cx="396.2" cy="138.2" r="6" fill="#FF9800" opacity="0.2"/>
<circle cx="396.2" cy="138.2" r="4" fill="#FF9800" stroke="#0d1117" stroke-width="2.5"/>
<circle cx="425.8" cy="138.2" r="6" fill="#FF9800" opacity="0.2"/>
<circle cx="425.8" cy="138.2" r="4" fill="#FF9800" stroke="#0d1117" stroke-width="2.5"/>
<circle cx="455.5" cy="199.9" r="6" fill="#FF9800" opacity="0.2"/>
<circle cx="455.5" cy="199.9" r="4" fill="#FF9800" stroke="#0d1117" stroke-width="2.5"/>
<circle cx="485.2" cy="423.4" r="6" fill="#FF9800" opacity="0.2"/>
<circle cx="485.2" cy="423.4" r="4" fill="#FF9800" stroke="#0d1117" stroke-width="2.5"/>
<circle cx="514.8" cy="134.3" r="6" fill="#FF9800" opacity="0.2"/>
<circle cx="514.8" cy="134.3" r="4" fill="#FF9800" stroke="#0d1117" stroke-width="2.5"/>
<circle cx="544.5" cy="133.6" r="6" fill="#FF9800" opacity="0.2"/>
<circle cx="544.5" cy="133.6" r="4" fill="#FF9800" stroke="#0d1117" stroke-width="2.5"/>
<circle cx="574.2" cy="133.7" r="6" fill="#FF9800" opacity="0.2"/>
<circle cx="574.2" cy="133.7" r="4" fill="#FF9800" stroke="#0d1117" stroke-width="2.5"/>
<circle cx="603.8" cy="175.8" r="6" fill="#FF9800" opacity="0.2"/>
<circle cx="603.8" cy="175.8" r="4" fill="#FF9800" stroke="#0d1117" stroke-width="2.5"/>
<circle cx="633.5" cy="403.9" r="6" fill="#FF9800" opacity="0.2"/>
<circle cx="633.5" cy="403.9" r="4" fill="#FF9800" stroke="#0d1117" stroke-width="2.5"/>
<circle cx="663.2" cy="164.6" r="6" fill="#FF9800" opacity="0.2"/>
<circle cx="663.2" cy="164.6" r="4" fill="#FF9800" stroke="#0d1117" stroke-width="2.5"/>
<circle cx="692.8" cy="164.5" r="6" fill="#FF9800" opacity="0.2"/>
<circle cx="692.8" cy="164.5" r="4" fill="#FF9800" stroke="#0d1117" stroke-width="2.5"/>
<circle cx="722.5" cy="164.4" r="6" fill="#FF9800" opacity="0.2"/>
<circle cx="722.5" cy="164.4" r="4" fill="#FF9800" stroke="#0d1117" stroke-width="2.5"/>
<circle cx="752.2" cy="210.2" r="6" fill="#FF9800" opacity="0.2"/>
<circle cx="752.2" cy="210.2" r="4" fill="#FF9800" stroke="#0d1117" stroke-width="2.5"/>
<circle cx="781.8" cy="407.3" r="6" fill="#FF9800" opacity="0.2"/>
<circle cx="781.8" cy="407.3" r="4" fill="#FF9800" stroke="#0d1117" stroke-width="2.5"/>
<circle cx="811.5" cy="122.6" r="6" fill="#FF9800" opacity="0.2"/>
<circle cx="811.5" cy="122.6" r="4" fill="#FF9800" stroke="#0d1117" stroke-width="2.5"/>
<circle cx="841.2" cy="122.7" r="6" fill="#FF9800" opacity="0.2"/>
<circle cx="841.2" cy="122.7" r="4" fill="#FF9800" stroke="#0d1117" stroke-width="2.5"/>
<circle cx="870.8" cy="122.6" r="6" fill="#FF9800" opacity="0.2"/>
<circle cx="870.8" cy="122.6" r="4" fill="#FF9800" stroke="#0d1117" stroke-width="2.5"/>
<circle cx="900.5" cy="184.5" r="6" fill="#FF9800" opacity="0.2"/>
<circle cx="900.5" cy="184.5" r="4" fill="#FF9800" stroke="#0d1117" stroke-width="2.5"/>
<circle cx="930.2" cy="423.5" r="6" fill="#FF9800" opacity="0.2"/>
<circle cx="930.2" cy="423.5" r="4" fill="#FF9800" stroke="#0d1117" stroke-width="2.5"/>
<path d="M69.8,121.8 L99.5,121.8 L129.2,122.0 L158.8,172.6 L188.5,412.4 L218.2,129.9 L247.8,128.9 L277.5,129.4 L307.2,162.8 L336.8,395.6 L366.5,139.9 L396.2,139.7 L425.8,139.6 L455.5,200.4 L485.2,422.3 L514.8,134.2 L544.5,134.3 L574.2,134.4 L603.8,173.7 L633.5,401.1 L663.2,166.3 L692.8,164.7 L722.5,164.9 L752.2,202.1 L781.8,399.0 L811.5,123.5 L841.2,123.2 L870.8,123.4 L900.5,169.8 L930.2,408.2" fill="none" stroke="#4CAF50" stroke-width="8" stroke-linejoin="round" stroke-linecap="round" opacity="0.12"/>
<path d="M69.8,121.8 L99.5,121.8 L129.2,122.0 L158.8,172.6 L188.5,412.4 L218.2,129.9 L247.8,128.9 L277.5,129.4 L307.2,162.8 L336.8,395.6 L366.5,139.9 L396.2,139.7 L425.8,139.6 L455.5,200.4 L485.2,422.3 L514.8,134.2 L544.5,134.3 L574.2,134.4 L603.8,173.7 L633.5,401.1 L663.2,166.3 L692.8,164.7 L722.5,164.9 L752.2,202.1 L781.8,399.0 L811.5,123.5 L841.2,123.2 L870.8,123.4 L900.5,169.8 L930.2,408.2" fill="none" stroke="#4CAF50" stroke-width="3.5" stroke-linejoin="round" stroke-linecap="round"/>
<circle cx="69.8" cy="121.8" r="6" fill="#4CAF50" opacity="0.2"/>
<circle cx="69.8" cy="121.8" r="4" fill="#4CAF50" stroke="#0d1117" stroke-width="2.5"/>
<circle cx="99.5" cy="121.8" r="6" fill="#4CAF50" opacity="0.2"/>
<circle cx="99.5" cy="121.8" r="4" fill="#4CAF50" stroke="#0d1117" stroke-width="2.5"/>
<circle cx="129.2" cy="122.0" r="6" fill="#4CAF50" opacity="0.2"/>
<circle cx="129.2" cy="122.0" r="4" fill="#4CAF50" stroke="#0d1117" stroke-width="2.5"/>
<circle cx="158.8" cy="172.6" r="6" fill="#4CAF50" opacity="0.2"/>
<circle cx="158.8" cy="172.6" r="4" fill="#4CAF50" stroke="#0d1117" stroke-width="2.5"/>
<circle cx="188.5" cy="412.4" r="6" fill="#4CAF50" opacity="0.2"/>
<circle cx="188.5" cy="412.4" r="4" fill="#4CAF50" stroke="#0d1117" stroke-width="2.5"/>
<circle cx="218.2" cy="129.9" r="6" fill="#4CAF50" opacity="0.2"/>
<circle cx="218.2" cy="129.9" r="4" fill="#4CAF50" stroke="#0d1117" stroke-width="2.5"/>
<circle cx="247.8" cy="128.9" r="6" fill="#4CAF50" opacity="0.2"/>
<circle cx="247.8" cy="128.9" r="4" fill="#4CAF50" stroke="#0d1117" stroke-width="2.5"/>
<circle cx="277.5" cy="129.4" r="6" fill="#4CAF50" opacity="0.2"/>
<circle cx="277.5" cy="129.4" r="4" fill="#4CAF50" stroke="#0d1117" stroke-width="2.5"/>
<circle cx="307.2" cy="162.8" r="6" fill="#4CAF50" opacity="0.2"/>
<circle cx="307.2" cy="162.8" r="4" fill="#4CAF50" stroke="#0d1117" stroke-width="2.5"/>
<circle cx="336.8" cy="395.6" r="6" fill="#4CAF50" opacity="0.2"/>
<circle cx="336.8" cy="395.6" r="4" fill="#4CAF50" stroke="#0d1117" stroke-width="2.5"/>
<circle cx="366.5" cy="139.9" r="6" fill="#4CAF50" opacity="0.2"/>
<circle cx="366.5" cy="139.9" r="4" fill="#4CAF50" stroke="#0d1117" stroke-width="2.5"/>
<circle cx="396.2" cy="139.7" r="6" fill="#4CAF50" opacity="0.2"/>
<circle cx="396.2" cy="139.7" r="4" fill="#4CAF50" stroke="#0d1117" stroke-width="2.5"/>
<circle cx="425.8" cy="139.6" r="6" fill="#4CAF50" opacity="0.2"/>
<circle cx="425.8" cy="139.6" r="4" fill="#4CAF50" stroke="#0d1117" stroke-width="2.5"/>
<circle cx="455.5" cy="200.4" r="6" fill="#4CAF50" opacity="0.2"/>
<circle cx="455.5" cy="200.4" r="4" fill="#4CAF50" stroke="#0d1117" stroke-width="2.5"/>
<circle cx="485.2" cy="422.3" r="6" fill="#4CAF50" opacity="0.2"/>
<circle cx="485.2" cy="422.3" r="4" fill="#4CAF50" stroke="#0d1117" stroke-width="2.5"/>
<circle cx="514.8" cy="134.2" r="6" fill="#4CAF50" opacity="0.2"/>
<circle cx="514.8" cy="134.2" r="4" fill="#4CAF50" stroke="#0d1117" stroke-width="2.5"/>
<circle cx="544.5" cy="134.3" r="6" fill="#4CAF50" opacity="0.2"/>
<circle cx="544.5" cy="134.3" r="4" fill="#4CAF50" stroke="#0d1117" stroke-width="2.5"/>
<circle cx="574.2" cy="134.4" r="6" fill="#4CAF50" opacity="0.2"/>
<circle cx="574.2" cy="134.4" r="4" fill="#4CAF50" stroke="#0d1117" stroke-width="2.5"/>
<circle cx="603.8" cy="173.7" r="6" fill="#4CAF50" opacity="0.2"/>
<circle cx="603.8" cy="173.7" r="4" fill="#4CAF50" stroke="#0d1117" stroke-width="2.5"/>
<circle cx="633.5" cy="401.1" r="6" fill="#4CAF50" opacity="0.2"/>
<circle cx="633.5" cy="401.1" r="4" fill="#4CAF50" stroke="#0d1117" stroke-width="2.5"/>
<circle cx="663.2" cy="166.3" r="6" fill="#4CAF50" opacity="0.2"/>
<circle cx="663.2" cy="166.3" r="4" fill="#4CAF50" stroke="#0d1117" stroke-width="2.5"/>
<circle cx="692.8" cy="164.7" r="6" fill="#4CAF50" opacity="0.2"/>
<circle cx="692.8" cy="164.7" r="4" fill="#4CAF50" stroke="#0d1117" stroke-width="2.5"/>
<circle cx="722.5" cy="164.9" r="6" fill="#4CAF50" opacity="0.2"/>
<circle cx="722.5" cy="164.9" r="4" fill="#4CAF50" stroke="#0d1117" stroke-width="2.5"/>
<circle cx="752.2" cy="202.1" r="6" fill="#4CAF50" opacity="0.2"/>
<circle cx="752.2" cy="202.1" r="4" fill="#4CAF50" stroke="#0d1117" stroke-width="2.5"/>
<circle cx="781.8" cy="399.0" r="6" fill="#4CAF50" opacity="0.2"/>
<circle cx="781.8" cy="399.0" r="4" fill="#4CAF50" stroke="#0d1117" stroke-width="2.5"/>
<circle cx="811.5" cy="123.5" r="6" fill="#4CAF50" opacity="0.2"/>
<circle cx="811.5" cy="123.5" r="4" fill="#4CAF50" stroke="#0d1117" stroke-width="2.5"/>
<circle cx="841.2" cy="123.2" r="6" fill="#4CAF50" opacity="0.2"/>
<circle cx="841.2" cy="123.2" r="4" fill="#4CAF50" stroke="#0d1117" stroke-width="2.5"/>
<circle cx="870.8" cy="123.4" r="6" fill="#4CAF50" opacity="0.2"/>
<circle cx="870.8" cy="123.4" r="4" fill="#4CAF50" stroke="#0d1117" stroke-width="2.5"/>
<circle cx="900.5" cy="169.8" r="6" fill="#4CAF50" opacity="0.2"/>
<circle cx="900.5" cy="169.8" r="4" fill="#4CAF50" stroke="#0d1117" stroke-width="2.5"/>
<circle cx="930.2" cy="408.2" r="6" fill="#4CAF50" opacity="0.2"/>
<circle cx="930.2" cy="408.2" r="4" fill="#4CAF50" stroke="#0d1117" stroke-width="2.5"/>
<path d="M69.8,157.3 L99.5,155.9 L129.2,155.6 L158.8,191.2 L188.5,397.0 L218.2,149.6 L247.8,149.4 L277.5,149.4 L307.2,189.0 L336.8,401.3 L366.5,165.8 L396.2,165.6 L425.8,165.7 L455.5,224.5 L485.2,420.5 L514.8,165.7 L544.5,165.4 L574.2,165.4 L603.8,224.8 L633.5,421.1 L663.2,168.2 L692.8,168.2 L722.5,168.3 L752.2,216.8 L781.8,410.3 L811.5,157.3 L841.2,157.1 L870.8,157.2 L900.5,211.4 L930.2,415.9" fill="none" stroke="#BB86FC" stroke-width="8" stroke-linejoin="round" stroke-linecap="round" opacity="0.12"/>
<path d="M69.8,157.3 L99.5,155.9 L129.2,155.6 L158.8,191.2 L188.5,397.0 L218.2,149.6 L247.8,149.4 L277.5,149.4 L307.2,189.0 L336.8,401.3 L366.5,165.8 L396.2,165.6 L425.8,165.7 L455.5,224.5 L485.2,420.5 L514.8,165.7 L544.5,165.4 L574.2,165.4 L603.8,224.8 L633.5,421.1 L663.2,168.2 L692.8,168.2 L722.5,168.3 L752.2,216.8 L781.8,410.3 L811.5,157.3 L841.2,157.1 L870.8,157.2 L900.5,211.4 L930.2,415.9" fill="none" stroke="#BB86FC" stroke-width="3.5" stroke-linejoin="round" stroke-linecap="round"/>
<circle cx="69.8" cy="157.3" r="6" fill="#BB86FC" opacity="0.2"/>
<circle cx="69.8" cy="157.3" r="4" fill="#BB86FC" stroke="#0d1117" stroke-width="2.5"/>
<circle cx="99.5" cy="155.9" r="6" fill="#BB86FC" opacity="0.2"/>
<circle cx="99.5" cy="155.9" r="4" fill="#BB86FC" stroke="#0d1117" stroke-width="2.5"/>
<circle cx="129.2" cy="155.6" r="6" fill="#BB86FC" opacity="0.2"/>
<circle cx="129.2" cy="155.6" r="4" fill="#BB86FC" stroke="#0d1117" stroke-width="2.5"/>
<circle cx="158.8" cy="191.2" r="6" fill="#BB86FC" opacity="0.2"/>
<circle cx="158.8" cy="191.2" r="4" fill="#BB86FC" stroke="#0d1117" stroke-width="2.5"/>
<circle cx="188.5" cy="397.0" r="6" fill="#BB86FC" opacity="0.2"/>
<circle cx="188.5" cy="397.0" r="4" fill="#BB86FC" stroke="#0d1117" stroke-width="2.5"/>
<circle cx="218.2" cy="149.6" r="6" fill="#BB86FC" opacity="0.2"/>
<circle cx="218.2" cy="149.6" r="4" fill="#BB86FC" stroke="#0d1117" stroke-width="2.5"/>
<circle cx="247.8" cy="149.4" r="6" fill="#BB86FC" opacity="0.2"/>
<circle cx="247.8" cy="149.4" r="4" fill="#BB86FC" stroke="#0d1117" stroke-width="2.5"/>
<circle cx="277.5" cy="149.4" r="6" fill="#BB86FC" opacity="0.2"/>
<circle cx="277.5" cy="149.4" r="4" fill="#BB86FC" stroke="#0d1117" stroke-width="2.5"/>
<circle cx="307.2" cy="189.0" r="6" fill="#BB86FC" opacity="0.2"/>
<circle cx="307.2" cy="189.0" r="4" fill="#BB86FC" stroke="#0d1117" stroke-width="2.5"/>
<circle cx="336.8" cy="401.3" r="6" fill="#BB86FC" opacity="0.2"/>
<circle cx="336.8" cy="401.3" r="4" fill="#BB86FC" stroke="#0d1117" stroke-width="2.5"/>
<circle cx="366.5" cy="165.8" r="6" fill="#BB86FC" opacity="0.2"/>
<circle cx="366.5" cy="165.8" r="4" fill="#BB86FC" stroke="#0d1117" stroke-width="2.5"/>
<circle cx="396.2" cy="165.6" r="6" fill="#BB86FC" opacity="0.2"/>
<circle cx="396.2" cy="165.6" r="4" fill="#BB86FC" stroke="#0d1117" stroke-width="2.5"/>
<circle cx="425.8" cy="165.7" r="6" fill="#BB86FC" opacity="0.2"/>
<circle cx="425.8" cy="165.7" r="4" fill="#BB86FC" stroke="#0d1117" stroke-width="2.5"/>
<circle cx="455.5" cy="224.5" r="6" fill="#BB86FC" opacity="0.2"/>
<circle cx="455.5" cy="224.5" r="4" fill="#BB86FC" stroke="#0d1117" stroke-width="2.5"/>
<circle cx="485.2" cy="420.5" r="6" fill="#BB86FC" opacity="0.2"/>
<circle cx="485.2" cy="420.5" r="4" fill="#BB86FC" stroke="#0d1117" stroke-width="2.5"/>
<circle cx="514.8" cy="165.7" r="6" fill="#BB86FC" opacity="0.2"/>
<circle cx="514.8" cy="165.7" r="4" fill="#BB86FC" stroke="#0d1117" stroke-width="2.5"/>
<circle cx="544.5" cy="165.4" r="6" fill="#BB86FC" opacity="0.2"/>
<circle cx="544.5" cy="165.4" r="4" fill="#BB86FC" stroke="#0d1117" stroke-width="2.5"/>
<circle cx="574.2" cy="165.4" r="6" fill="#BB86FC" opacity="0.2"/>
<circle cx="574.2" cy="165.4" r="4" fill="#BB86FC" stroke="#0d1117" stroke-width="2.5"/>
<circle cx="603.8" cy="224.8" r="6" fill="#BB86FC" opacity="0.2"/>
<circle cx="603.8" cy="224.8" r="4" fill="#BB86FC" stroke="#0d1117" stroke-width="2.5"/>
<circle cx="633.5" cy="421.1" r="6" fill="#BB86FC" opacity="0.2"/>
<circle cx="633.5" cy="421.1" r="4" fill="#BB86FC" stroke="#0d1117" stroke-width="2.5"/>
<circle cx="663.2" cy="168.2" r="6" fill="#BB86FC" opacity="0.2"/>
<circle cx="663.2" cy="168.2" r="4" fill="#BB86FC" stroke="#0d1117" stroke-width="2.5"/>
<circle cx="692.8" cy="168.2" r="6" fill="#BB86FC" opacity="0.2"/>
<circle cx="692.8" cy="168.2" r="4" fill="#BB86FC" stroke="#0d1117" stroke-width="2.5"/>
<circle cx="722.5" cy="168.3" r="6" fill="#BB86FC" opacity="0.2"/>
<circle cx="722.5" cy="168.3" r="4" fill="#BB86FC" stroke="#0d1117" stroke-width="2.5"/>
<circle cx="752.2" cy="216.8" r="6" fill="#BB86FC" opacity="0.2"/>
<circle cx="752.2" cy="216.8" r="4" fill="#BB86FC" stroke="#0d1117" stroke-width="2.5"/>
<circle cx="781.8" cy="410.3" r="6" fill="#BB86FC" opacity="0.2"/>
<circle cx="781.8" cy="410.3" r="4" fill="#BB86FC" stroke="#0d1117" stroke-width="2.5"/>
<circle cx="811.5" cy="157.3" r="6" fill="#BB86FC" opacity="0.2"/>
<circle cx="811.5" cy="157.3" r="4" fill="#BB86FC" stroke="#0d1117" stroke-width="2.5"/>
<circle cx="841.2" cy="157.1" r="6" fill="#BB86FC" opacity="0.2"/>
<circle cx="841.2" cy="157.1" r="4" fill="#BB86FC" stroke="#0d1117" stroke-width="2.5"/>
<circle cx="870.8" cy="157.2" r="6" fill="#BB86FC" opacity="0.2"/>
<circle cx="870.8" cy="157.2" r="4" fill="#BB86FC" stroke="#0d1117" stroke-width="2.5"/>
<circle cx="900.5" cy="211.4" r="6" fill="#BB86FC" opacity="0.2"/>
<circle cx="900.5" cy="211.4" r="4" fill="#BB86FC" stroke="#0d1117" stroke-width="2.5"/>
<circle cx="930.2" cy="415.9" r="6" fill="#BB86FC" opacity="0.2"/>
<circle cx="930.2" cy="415.9" r="4" fill="#BB86FC" stroke="#0d1117" stroke-width="2.5"/>
<path d="M69.8,121.9 L99.5,122.1 L129.2,122.1 L158.8,184.2 L188.5,423.7 L218.2,130.8 L247.8,129.1 L277.5,129.8 L307.2,154.9 L336.8,387.5 L366.5,138.8 L396.2,140.0 L425.8,140.5 L455.5,178.6 L485.2,400.3 L514.8,134.8 L544.5,134.7 L574.2,135.0 L603.8,167.7 L633.5,394.7 L663.2,167.7 L692.8,167.1 L722.5,167.3 L752.2,212.1 L781.8,406.7 L811.5,124.7 L841.2,124.1 L870.8,124.2 L900.5,164.5 L930.2,402.1" fill="none" stroke="#F472B6" stroke-width="8" stroke-linejoin="round" stroke-linecap="round" opacity="0.12"/>
<path d="M69.8,121.9 L99.5,122.1 L129.2,122.1 L158.8,184.2 L188.5,423.7 L218.2,130.8 L247.8,129.1 L277.5,129.8 L307.2,154.9 L336.8,387.5 L366.5,138.8 L396.2,140.0 L425.8,140.5 L455.5,178.6 L485.2,400.3 L514.8,134.8 L544.5,134.7 L574.2,135.0 L603.8,167.7 L633.5,394.7 L663.2,167.7 L692.8,167.1 L722.5,167.3 L752.2,212.1 L781.8,406.7 L811.5,124.7 L841.2,124.1 L870.8,124.2 L900.5,164.5 L930.2,402.1" fill="none" stroke="#F472B6" stroke-width="3.5" stroke-linejoin="round" stroke-linecap="round"/>
<circle cx="69.8" cy="121.9" r="6" fill="#F472B6" opacity="0.2"/>
<circle cx="69.8" cy="121.9" r="4" fill="#F472B6" stroke="#0d1117" stroke-width="2.5"/>
<circle cx="99.5" cy="122.1" r="6" fill="#F472B6" opacity="0.2"/>
<circle cx="99.5" cy="122.1" r="4" fill="#F472B6" stroke="#0d1117" stroke-width="2.5"/>
<circle cx="129.2" cy="122.1" r="6" fill="#F472B6" opacity="0.2"/>
<circle cx="129.2" cy="122.1" r="4" fill="#F472B6" stroke="#0d1117" stroke-width="2.5"/>
<circle cx="158.8" cy="184.2" r="6" fill="#F472B6" opacity="0.2"/>
<circle cx="158.8" cy="184.2" r="4" fill="#F472B6" stroke="#0d1117" stroke-width="2.5"/>
<circle cx="188.5" cy="423.7" r="6" fill="#F472B6" opacity="0.2"/>
<circle cx="188.5" cy="423.7" r="4" fill="#F472B6" stroke="#0d1117" stroke-width="2.5"/>
<circle cx="218.2" cy="130.8" r="6" fill="#F472B6" opacity="0.2"/>
<circle cx="218.2" cy="130.8" r="4" fill="#F472B6" stroke="#0d1117" stroke-width="2.5"/>
<circle cx="247.8" cy="129.1" r="6" fill="#F472B6" opacity="0.2"/>
<circle cx="247.8" cy="129.1" r="4" fill="#F472B6" stroke="#0d1117" stroke-width="2.5"/>
<circle cx="277.5" cy="129.8" r="6" fill="#F472B6" opacity="0.2"/>
<circle cx="277.5" cy="129.8" r="4" fill="#F472B6" stroke="#0d1117" stroke-width="2.5"/>
<circle cx="307.2" cy="154.9" r="6" fill="#F472B6" opacity="0.2"/>
<circle cx="307.2" cy="154.9" r="4" fill="#F472B6" stroke="#0d1117" stroke-width="2.5"/>
<circle cx="336.8" cy="387.5" r="6" fill="#F472B6" opacity="0.2"/>
<circle cx="336.8" cy="387.5" r="4" fill="#F472B6" stroke="#0d1117" stroke-width="2.5"/>
<circle cx="366.5" cy="138.8" r="6" fill="#F472B6" opacity="0.2"/>
<circle cx="366.5" cy="138.8" r="4" fill="#F472B6" stroke="#0d1117" stroke-width="2.5"/>
<circle cx="396.2" cy="140.0" r="6" fill="#F472B6" opacity="0.2"/>
<circle cx="396.2" cy="140.0" r="4" fill="#F472B6" stroke="#0d1117" stroke-width="2.5"/>
<circle cx="425.8" cy="140.5" r="6" fill="#F472B6" opacity="0.2"/>
<circle cx="425.8" cy="140.5" r="4" fill="#F472B6" stroke="#0d1117" stroke-width="2.5"/>
<circle cx="455.5" cy="178.6" r="6" fill="#F472B6" opacity="0.2"/>
<circle cx="455.5" cy="178.6" r="4" fill="#F472B6" stroke="#0d1117" stroke-width="2.5"/>
<circle cx="485.2" cy="400.3" r="6" fill="#F472B6" opacity="0.2"/>
<circle cx="485.2" cy="400.3" r="4" fill="#F472B6" stroke="#0d1117" stroke-width="2.5"/>
<circle cx="514.8" cy="134.8" r="6" fill="#F472B6" opacity="0.2"/>
<circle cx="514.8" cy="134.8" r="4" fill="#F472B6" stroke="#0d1117" stroke-width="2.5"/>
<circle cx="544.5" cy="134.7" r="6" fill="#F472B6" opacity="0.2"/>
<circle cx="544.5" cy="134.7" r="4" fill="#F472B6" stroke="#0d1117" stroke-width="2.5"/>
<circle cx="574.2" cy="135.0" r="6" fill="#F472B6" opacity="0.2"/>
<circle cx="574.2" cy="135.0" r="4" fill="#F472B6" stroke="#0d1117" stroke-width="2.5"/>
<circle cx="603.8" cy="167.7" r="6" fill="#F472B6" opacity="0.2"/>
<circle cx="603.8" cy="167.7" r="4" fill="#F472B6" stroke="#0d1117" stroke-width="2.5"/>
<circle cx="633.5" cy="394.7" r="6" fill="#F472B6" opacity="0.2"/>
<circle cx="633.5" cy="394.7" r="4" fill="#F472B6" stroke="#0d1117" stroke-width="2.5"/>
<circle cx="663.2" cy="167.7" r="6" fill="#F472B6" opacity="0.2"/>
<circle cx="663.2" cy="167.7" r="4" fill="#F472B6" stroke="#0d1117" stroke-width="2.5"/>
<circle cx="692.8" cy="167.1" r="6" fill="#F472B6" opacity="0.2"/>
<circle cx="692.8" cy="167.1" r="4" fill="#F472B6" stroke="#0d1117" stroke-width="2.5"/>
<circle cx="722.5" cy="167.3" r="6" fill="#F472B6" opacity="0.2"/>
<circle cx="722.5" cy="167.3" r="4" fill="#F472B6" stroke="#0d1117" stroke-width="2.5"/>
<circle cx="752.2" cy="212.1" r="6" fill="#F472B6" opacity="0.2"/>
<circle cx="752.2" cy="212.1" r="4" fill="#F472B6" stroke="#0d1117" stroke-width="2.5"/>
<circle cx="781.8" cy="406.7" r="6" fill="#F472B6" opacity="0.2"/>
<circle cx="781.8" cy="406.7" r="4" fill="#F472B6" stroke="#0d1117" stroke-width="2.5"/>
<circle cx="811.5" cy="124.7" r="6" fill="#F472B6" opacity="0.2"/>
<circle cx="811.5" cy="124.7" r="4" fill="#F472B6" stroke="#0d1117" stroke-width="2.5"/>
<circle cx="841.2" cy="124.1" r="6" fill="#F472B6" opacity="0.2"/>
<circle cx="841.2" cy="124.1" r="4" fill="#F472B6" stroke="#0d1117" stroke-width="2.5"/>
<circle cx="870.8" cy="124.2" r="6" fill="#F472B6" opacity="0.2"/>
<circle cx="870.8" cy="124.2" r="4" fill="#F472B6" stroke="#0d1117" stroke-width="2.5"/>
<circle cx="900.5" cy="164.5" r="6" fill="#F472B6" opacity="0.2"/>
<circle cx="900.5" cy="164.5" r="4" fill="#F472B6" stroke="#0d1117" stroke-width="2.5"/>
<circle cx="930.2" cy="402.1" r="6" fill="#F472B6" opacity="0.2"/>
<circle cx="930.2" cy="402.1" r="4" fill="#F472B6" stroke="#0d1117" stroke-width="2.5"/>
<text x="69.8" y="448" text-anchor="end" fill="#8b949e" font-size="11" transform="rotate(-30,69.8,448)">push_back</text>
<text x="99.5" y="448" text-anchor="end" fill="#8b949e" font-size="11" transform="rotate(-30,99.5,448)">push_back_mean</text>
<text x="129.2" y="448" text-anchor="end" fill="#8b949e" font-size="11" transform="rotate(-30,129.2,448)">push_back_median</text>
<text x="158.8" y="448" text-anchor="end" fill="#8b949e" font-size="11" transform="rotate(-30,158.8,448)">push_back_stddev</text>
<text x="188.5" y="448" text-anchor="end" fill="#8b949e" font-size="11" transform="rotate(-30,188.5,448)">push_back_cv</text>
<text x="218.2" y="448" text-anchor="end" fill="#8b949e" font-size="11" transform="rotate(-30,218.2,448)">push_front</text>
<text x="247.8" y="448" text-anchor="end" fill="#8b949e" font-size="11" transform="rotate(-30,247.8,448)">push_front_mean</text>
<text x="277.5" y="448" text-anchor="end" fill="#8b949e" font-size="11" transform="rotate(-30,277.5,448)">push_front_median</text>
<text x="307.2" y="448" text-anchor="end" fill="#8b949e" font-size="11" transform="rotate(-30,307.2,448)">push_front_stddev</text>
<text x="336.8" y="448" text-anchor="end" fill="#8b949e" font-size="11" transform="rotate(-30,336.8,448)">push_front_cv</text>
<text x="366.5" y="448" text-anchor="end" fill="#8b949e" font-size="11" transform="rotate(-30,366.5,448)">insert_middle</text>
<text x="396.2" y="448" text-anchor="end" fill="#8b949e" font-size="11" transform="rotate(-30,396.2,448)">insert_middle_mean</text>
<text x="425.8" y="448" text-anchor="end" fill="#8b949e" font-size="11" transform="rotate(-30,425.8,448)">insert_middle_median</text>
<text x="455.5" y="448" text-anchor="end" fill="#8b949e" font-size="11" transform="rotate(-30,455.5,448)">insert_middle_stddev</text>
<text x="485.2" y="448" text-anchor="end" fill="#8b949e" font-size="11" transform="rotate(-30,485.2,448)">insert_middle_cv</text>
<text x="514.8" y="448" text-anchor="end" fill="#8b949e" font-size="11" transform="rotate(-30,514.8,448)">erase_middle</text>
<text x="544.5" y="448" text-anchor="end" fill="#8b949e" font-size="11" transform="rotate(-30,544.5,448)">erase_middle_mean</text>
<text x="574.2" y="448" text-anchor="end" fill="#8b949e" font-size="11" transform="rotate(-30,574.2,448)">erase_middle_median</text>
<text x="603.8" y="448" text-anchor="end" fill="#8b949e" font-size="11" transform="rotate(-30,603.8,448)">erase_middle_stddev</text>
<text x="633.5" y="448" text-anchor="end" fill="#8b949e" font-size="11" transform="rotate(-30,633.5,448)">erase_middle_cv</text>
<text x="663.2" y="448" text-anchor="end" fill="#8b949e" font-size="11" transform="rotate(-30,663.2,448)">iterate</text>
<text x="692.8" y="448" text-anchor="end" fill="#8b949e" font-size="11" transform="rotate(-30,692.8,448)">iterate_mean</text>
<text x="722.5" y="448" text-anchor="end" fill="#8b949e" font-size="11" transform="rotate(-30,722.5,448)">iterate_median</text>
<text x="752.2" y="448" text-anchor="end" fill="#8b949e" font-size="11" transform="rotate(-30,752.2,448)">iterate_stddev</text>
<text x="781.8" y="448" text-anchor="end" fill="#8b949e" font-size="11" transform="rotate(-30,781.8,448)">iterate_cv</text>
<text x="811.5" y="448" text-anchor="end" fill="#8b949e" font-size="11" transform="rotate(-30,811.5,448)">clear</text>
<text x="841.2" y="448" text-anchor="end" fill="#8b949e" font-size="11" transform="rotate(-30,841.2,448)">clear_mean</text>
<text x="870.8" y="448" text-anchor="end" fill="#8b949e" font-size="11" transform="rotate(-30,870.8,448)">clear_median</text>
<text x="900.5" y="448" text-anchor="end" fill="#8b949e" font-size="11" transform="rotate(-30,900.5,448)">clear_stddev</text>
<text x="930.2" y="448" text-anchor="end" fill="#8b949e" font-size="11" transform="rotate(-30,930.2,448)">clear_cv</text>
<text x="14" y="272.5" text-anchor="middle" fill="#484f58" font-size="11" transform="rotate(-90,14,272.5)">Time (ms)</text>
<circle cx="65" cy="69" r="5" fill="#58a6ff"/>
<text x="75" y="73" fill="#c9d1d9" font-size="12">RG::K::LIST</text>
<circle cx="220" cy="69" r="5" fill="#FF9800"/>
<text x="230" y="73" fill="#c9d1d9" font-size="12">std::list</text>
<circle cx="375" cy="69" r="5" fill="#4CAF50"/>
<text x="385" y="73" fill="#c9d1d9" font-size="12">std::forward_list</text>
<circle cx="530" cy="69" r="5" fill="#BB86FC"/>
<text x="540" y="73" fill="#c9d1d9" font-size="12">boost::list</text>
<circle cx="685" cy="69" r="5" fill="#F472B6"/>
<text x="695" y="73" fill="#c9d1d9" font-size="12">eastl::list</text>
<text x="480.0" y="20" text-anchor="middle" fill="#58a6ff" font-size="15" font-weight="700">RG::K::LIST Benchmark — 2026-08-31</text>
</svg>