<svg xmlns="http://www.w3.org/2000/svg" viewBox="0 0 960 500" font-family="-apple-system,BlinkMacSystemFont,Segoe UI,sans-serif">
<rect width="960" height="500" rx="10" fill="#0d1117"/>
<rect x="55" y="115" width="890" height="315" fill="#161b22" rx="4"/>
<line x1="55" y1="422.3" x2="945" y2="422.3" stroke="#21262d"/>
<text x="47" y="426.2730133062942" text-anchor="end" fill="#484f58" font-size="10">0µs</text>
<line x1="55" y1="409.8" x2="945" y2="409.8" stroke="#21262d"/>
<text x="47" y="413.81011285422653" text-anchor="end" fill="#484f58" font-size="10">0µs</text>
<line x1="55" y1="400.4" x2="945" y2="400.4" stroke="#21262d"/>
<text x="47" y="404.38229261175735" text-anchor="end" fill="#484f58" font-size="10">0µs</text>
<line x1="55" y1="391.0" x2="945" y2="391.0" stroke="#21262d"/>
<text x="47" y="394.9544723692883" text-anchor="end" fill="#484f58" font-size="10">0µs</text>
<line x1="55" y1="378.5" x2="945" y2="378.5" stroke="#21262d"/>
<text x="47" y="382.49157191722054" text-anchor="end" fill="#484f58" font-size="10">0µs</text>
<line x1="55" y1="369.1" x2="945" y2="369.1" stroke="#21262d"/>
<text x="47" y="373.0637516747514" text-anchor="end" fill="#484f58" font-size="10">0µs</text>
<line x1="55" y1="359.6" x2="945" y2="359.6" stroke="#21262d"/>
<text x="47" y="363.6359314322823" text-anchor="end" fill="#484f58" font-size="10">0µs</text>
<line x1="55" y1="347.2" x2="945" y2="347.2" stroke="#21262d"/>
<text x="47" y="351.17303098021455" text-anchor="end" fill="#484f58" font-size="10">0µs</text>
<line x1="55" y1="337.7" x2="945" y2="337.7" stroke="#21262d"/>
<text x="47" y="341.7452107377454" text-anchor="end" fill="#484f58" font-size="10">0µs</text>
<line x1="55" y1="328.3" x2="945" y2="328.3" stroke="#21262d"/>
<text x="47" y="332.3173904952763" text-anchor="end" fill="#484f58" font-size="10">0µs</text>
<line x1="55" y1="315.9" x2="945" y2="315.9" stroke="#21262d"/>
<text x="47" y="319.85449004320856" text-anchor="end" fill="#484f58" font-size="10">0µs</text>
<line x1="55" y1="306.4" x2="945" y2="306.4" stroke="#21262d"/>
<text x="47" y="310.42666980073943" text-anchor="end" fill="#484f58" font-size="10">0µs</text>
<line x1="55" y1="297.0" x2="945" y2="297.0" stroke="#21262d"/>
<text x="47" y="300.9988495582703" text-anchor="end" fill="#484f58" font-size="10">0µs</text>
<line x1="55" y1="284.5" x2="945" y2="284.5" stroke="#21262d"/>
<text x="47" y="288.5359491062026" text-anchor="end" fill="#484f58" font-size="10">0µs</text>
<line x1="55" y1="275.1" x2="945" y2="275.1" stroke="#21262d"/>
<text x="47" y="279.10812886373344" text-anchor="end" fill="#484f58" font-size="10">0µs</text>
<line x1="55" y1="265.7" x2="945" y2="265.7" stroke="#21262d"/>
<text x="47" y="269.6803086212643" text-anchor="end" fill="#484f58" font-size="10">0µs</text>
<line x1="55" y1="253.2" x2="945" y2="253.2" stroke="#21262d"/>
<text x="47" y="257.21740816919663" text-anchor="end" fill="#484f58" font-size="10">0µs</text>
<line x1="55" y1="243.8" x2="945" y2="243.8" stroke="#21262d"/>
<text x="47" y="247.78958792672748" text-anchor="end" fill="#484f58" font-size="10">1µs</text>
<line x1="55" y1="234.4" x2="945" y2="234.4" stroke="#21262d"/>
<text x="47" y="238.36176768425838" text-anchor="end" fill="#484f58" font-size="10">2µs</text>
<line x1="55" y1="221.9" x2="945" y2="221.9" stroke="#21262d"/>
<text x="47" y="225.89886723219064" text-anchor="end" fill="#484f58" font-size="10">5µs</text>
<line x1="55" y1="212.5" x2="945" y2="212.5" stroke="#21262d"/>
<text x="47" y="216.47104698972151" text-anchor="end" fill="#484f58" font-size="10">10µs</text>
<line x1="55" y1="203.0" x2="945" y2="203.0" stroke="#21262d"/>
<text x="47" y="207.0432267472524" text-anchor="end" fill="#484f58" font-size="10">20µs</text>
<line x1="55" y1="190.6" x2="945" y2="190.6" stroke="#21262d"/>
<text x="47" y="194.58032629518465" text-anchor="end" fill="#484f58" font-size="10">50µs</text>
<line x1="55" y1="181.2" x2="945" y2="181.2" stroke="#21262d"/>
<text x="47" y="185.15250605271552" text-anchor="end" fill="#484f58" font-size="10">100µs</text>
<line x1="55" y1="171.7" x2="945" y2="171.7" stroke="#21262d"/>
<text x="47" y="175.7246858102464" text-anchor="end" fill="#484f58" font-size="10">200µs</text>
<line x1="55" y1="159.3" x2="945" y2="159.3" stroke="#21262d"/>
<text x="47" y="163.26178535817868" text-anchor="end" fill="#484f58" font-size="10">500µs</text>
<line x1="55" y1="149.8" x2="945" y2="149.8" stroke="#21262d"/>
<text x="47" y="153.8339651157096" text-anchor="end" fill="#484f58" font-size="10">1ms</text>
<line x1="55" y1="140.4" x2="945" y2="140.4" stroke="#21262d"/>
<text x="47" y="144.40614487324044" text-anchor="end" fill="#484f58" font-size="10">2ms</text>
<line x1="55" y1="127.9" x2="945" y2="127.9" stroke="#21262d"/>
<text x="47" y="131.94324442117272" text-anchor="end" fill="#484f58" font-size="10">5ms</text>
<line x1="55" y1="118.5" x2="945" y2="118.5" stroke="#21262d"/>
<text x="47" y="122.5154241787036" text-anchor="end" fill="#484f58" font-size="10">10ms</text>
<line x1="84.7" y1="115" x2="84.7" y2="430" stroke="#30363d" stroke-width="1" stroke-dasharray="4,4"/>
<line x1="114.3" y1="115" x2="114.3" y2="430" stroke="#30363d" stroke-width="1" stroke-dasharray="4,4"/>
<line x1="144.0" y1="115" x2="144.0" y2="430" stroke="#30363d" stroke-width="1" stroke-dasharray="4,4"/>
<line x1="173.7" y1="115" x2="173.7" y2="430" stroke="#30363d" stroke-width="1" stroke-dasharray="4,4"/>
<line x1="203.3" y1="115" x2="203.3" y2="430" stroke="#30363d" stroke-width="1" stroke-dasharray="4,4"/>
<line x1="233.0" y1="115" x2="233.0" y2="430" stroke="#30363d" stroke-width="1" stroke-dasharray="4,4"/>
<line x1="262.7" y1="115" x2="262.7" y2="430" stroke="#30363d" stroke-width="1" stroke-dasharray="4,4"/>
<line x1="292.3" y1="115" x2="292.3" y2="430" stroke="#30363d" stroke-width="1" stroke-dasharray="4,4"/>
<line x1="322.0" y1="115" x2="322.0" y2="430" stroke="#30363d" stroke-width="1" stroke-dasharray="4,4"/>
<line x1="351.7" y1="115" x2="351.7" y2="430" stroke="#30363d" stroke-width="1" stroke-dasharray="4,4"/>
<line x1="381.3" y1="115" x2="381.3" y2="430" stroke="#30363d" stroke-width="1" stroke-dasharray="4,4"/>
<line x1="411.0" y1="115" x2="411.0" y2="430" stroke="#30363d" stroke-width="1" stroke-dasharray="4,4"/>
<line x1="440.7" y1="115" x2="440.7" y2="430" stroke="#30363d" stroke-width="1" stroke-dasharray="4,4"/>
<line x1="470.3" y1="115" x2="470.3" y2="430" stroke="#30363d" stroke-width="1" stroke-dasharray="4,4"/>
<line x1="500.0" y1="115" x2="500.0" y2="430" stroke="#30363d" stroke-width="1" stroke-dasharray="4,4"/>
<line x1="529.7" y1="115" x2="529.7" y2="430" stroke="#30363d" stroke-width="1" stroke-dasharray="4,4"/>
<line x1="559.3" y1="115" x2="559.3" y2="430" stroke="#30363d" stroke-width="1" stroke-dasharray="4,4"/>
<line x1="589.0" y1="115" x2="589.0" y2="430" stroke="#30363d" stroke-width="1" stroke-dasharray="4,4"/>
<line x1="618.7" y1="115" x2="618.7" y2="430" stroke="#30363d" stroke-width="1" stroke-dasharray="4,4"/>
<line x1="648.3" y1="115" x2="648.3" y2="430" stroke="#30363d" stroke-width="1" stroke-dasharray="4,4"/>
<line x1="678.0" y1="115" x2="678.0" y2="430" stroke="#30363d" stroke-width="1" stroke-dasharray="4,4"/>
<line x1="707.7" y1="115" x2="707.7" y2="430" stroke="#30363d" stroke-width="1" stroke-dasharray="4,4"/>
<line x1="737.3" y1="115" x2="737.3" y2="430" stroke="#30363d" stroke-width="1" stroke-dasharray="4,4"/>
<line x1="767.0" y1="115" x2="767.0" y2="430" stroke="#30363d" stroke-width="1" stroke-dasharray="4,4"/>
<line x1="796.7" y1="115" x2="796.7" y2="430" stroke="#30363d" stroke-width="1" stroke-dasharray="4,4"/>
<line x1="826.3" y1="115" x2="826.3" y2="430" stroke="#30363d" stroke-width="1" stroke-dasharray="4,4"/>
<line x1="856.0" y1="115" x2="856.0" y2="430" stroke="#30363d" stroke-width="1" stroke-dasharray="4,4"/>
<line x1="885.7" y1="115" x2="885.7" y2="430" stroke="#30363d" stroke-width="1" stroke-dasharray="4,4"/>
<line x1="915.3" y1="115" x2="915.3" y2="430" stroke="#30363d" stroke-width="1" stroke-dasharray="4,4"/>
<path d="M69.8,141.9 L99.5,141.8 L129.2,141.8 L158.8,200.2 L188.5,396.2 L218.2,142.0 L247.8,141.9 L277.5,141.9 L307.2,208.8 L336.8,404.6 L366.5,150.6 L396.2,150.6 L425.8,150.6 L455.5,232.1 L485.2,419.2 L514.8,150.7 L544.5,150.6 L574.2,150.7 L603.8,215.5 L633.5,402.7 L663.2,151.3 L692.8,151.2 L722.5,151.3 L752.2,211.2 L781.8,397.8 L811.5,142.1 L841.2,142.1 L870.8,142.1 L900.5,212.7 L930.2,408.3" fill="none" stroke="#58a6ff" stroke-width="8" stroke-linejoin="round" stroke-linecap="round" opacity="0.12"/>
<path d="M69.8,141.9 L99.5,141.8 L129.2,141.8 L158.8,200.2 L188.5,396.2 L218.2,142.0 L247.8,141.9 L277.5,141.9 L307.2,208.8 L336.8,404.6 L366.5,150.6 L396.2,150.6 L425.8,150.6 L455.5,232.1 L485.2,419.2 L514.8,150.7 L544.5,150.6 L574.2,150.7 L603.8,215.5 L633.5,402.7 L663.2,151.3 L692.8,151.2 L722.5,151.3 L752.2,211.2 L781.8,397.8 L811.5,142.1 L841.2,142.1 L870.8,142.1 L900.5,212.7 L930.2,408.3" fill="none" stroke="#58a6ff" stroke-width="3.5" stroke-linejoin="round" stroke-linecap="round"/>
<circle cx="69.8" cy="141.9" r="6" fill="#58a6ff" opacity="0.2"/>
<circle cx="69.8" cy="141.9" r="4" fill="#58a6ff" stroke="#0d1117" stroke-width="2.5"/>
<circle cx="99.5" cy="141.8" r="6" fill="#58a6ff" opacity="0.2"/>
<circle cx="99.5" cy="141.8" r="4" fill="#58a6ff" stroke="#0d1117" stroke-width="2.5"/>
<circle cx="129.2" cy="141.8" r="6" fill="#58a6ff" opacity="0.2"/>
<circle cx="129.2" cy="141.8" r="4" fill="#58a6ff" stroke="#0d1117" stroke-width="2.5"/>
<circle cx="158.8" cy="200.2" r="6" fill="#58a6ff" opacity="0.2"/>
<circle cx="158.8" cy="200.2" r="4" fill="#58a6ff" stroke="#0d1117" stroke-width="2.5"/>
<circle cx="188.5" cy="396.2" r="6" fill="#58a6ff" opacity="0.2"/>
<circle cx="188.5" cy="396.2" r="4" fill="#58a6ff" stroke="#0d1117" stroke-width="2.5"/>
<circle cx="218.2" cy="142.0" r="6" fill="#58a6ff" opacity="0.2"/>
<circle cx="218.2" cy="142.0" r="4" fill="#58a6ff" stroke="#0d1117" stroke-width="2.5"/>
<circle cx="247.8" cy="141.9" r="6" fill="#58a6ff" opacity="0.2"/>
<circle cx="247.8" cy="141.9" r="4" fill="#58a6ff" stroke="#0d1117" stroke-width="2.5"/>
<circle cx="277.5" cy="141.9" r="6" fill="#58a6ff" opacity="0.2"/>
<circle cx="277.5" cy="141.9" r="4" fill="#58a6ff" stroke="#0d1117" stroke-width="2.5"/>
<circle cx="307.2" cy="208.8" r="6" fill="#58a6ff" opacity="0.2"/>
<circle cx="307.2" cy="208.8" r="4" fill="#58a6ff" stroke="#0d1117" stroke-width="2.5"/>
<circle cx="336.8" cy="404.6" r="6" fill="#58a6ff" opacity="0.2"/>
<circle cx="336.8" cy="404.6" r="4" fill="#58a6ff" stroke="#0d1117" stroke-width="2.5"/>
<circle cx="366.5" cy="150.6" r="6" fill="#58a6ff" opacity="0.2"/>
<circle cx="366.5" cy="150.6" r="4" fill="#58a6ff" stroke="#0d1117" stroke-width="2.5"/>
<circle cx="396.2" cy="150.6" r="6" fill="#58a6ff" opacity="0.2"/>
<circle cx="396.2" cy="150.6" r="4" fill="#58a6ff" stroke="#0d1117" stroke-width="2.5"/>
<circle cx="425.8" cy="150.6" r="6" fill="#58a6ff" opacity="0.2"/>
<circle cx="425.8" cy="150.6" r="4" fill="#58a6ff" stroke="#0d1117" stroke-width="2.5"/>
<circle cx="455.5" cy="232.1" r="6" fill="#58a6ff" opacity="0.2"/>
<circle cx="455.5" cy="232.1" r="4" fill="#58a6ff" stroke="#0d1117" stroke-width="2.5"/>
<circle cx="485.2" cy="419.2" r="6" fill="#58a6ff" opacity="0.2"/>
<circle cx="485.2" cy="419.2" r="4" fill="#58a6ff" stroke="#0d1117" stroke-width="2.5"/>
<circle cx="514.8" cy="150.7" r="6" fill="#58a6ff" opacity="0.2"/>
<circle cx="514.8" cy="150.7" r="4" fill="#58a6ff" stroke="#0d1117" stroke-width="2.5"/>
<circle cx="544.5" cy="150.6" r="6" fill="#58a6ff" opacity="0.2"/>
<circle cx="544.5" cy="150.6" r="4" fill="#58a6ff" stroke="#0d1117" stroke-width="2.5"/>
<circle cx="574.2" cy="150.7" r="6" fill="#58a6ff" opacity="0.2"/>
<circle cx="574.2" cy="150.7" r="4" fill="#58a6ff" stroke="#0d1117" stroke-width="2.5"/>
<circle cx="603.8" cy="215.5" r="6" fill="#58a6ff" opacity="0.2"/>
<circle cx="603.8" cy="215.5" r="4" fill="#58a6ff" stroke="#0d1117" stroke-width="2.5"/>
<circle cx="633.5" cy="402.7" r="6" fill="#58a6ff" opacity="0.2"/>
<circle cx="633.5" cy="402.7" r="4" fill="#58a6ff" stroke="#0d1117" stroke-width="2.5"/>
<circle cx="663.2" cy="151.3" r="6" fill="#58a6ff" opacity="0.2"/>
<circle cx="663.2" cy="151.3" r="4" fill="#58a6ff" stroke="#0d1117" stroke-width="2.5"/>
<circle cx="692.8" cy="151.2" r="6" fill="#58a6ff" opacity="0.2"/>
<circle cx="692.8" cy="151.2" r="4" fill="#58a6ff" stroke="#0d1117" stroke-width="2.5"/>
<circle cx="722.5" cy="151.3" r="6" fill="#58a6ff" opacity="0.2"/>
<circle cx="722.5" cy="151.3" r="4" fill="#58a6ff" stroke="#0d1117" stroke-width="2.5"/>
<circle cx="752.2" cy="211.2" r="6" fill="#58a6ff" opacity="0.2"/>
<circle cx="752.2" cy="211.2" r="4" fill="#58a6ff" stroke="#0d1117" stroke-width="2.5"/>
<circle cx="781.8" cy="397.8" r="6" fill="#58a6ff" opacity="0.2"/>
<circle cx="781.8" cy="397.8" r="4" fill="#58a6ff" stroke="#0d1117" stroke-width="2.5"/>
<circle cx="811.5" cy="142.1" r="6" fill="#58a6ff" opacity="0.2"/>
<circle cx="811.5" cy="142.1" r="4" fill="#58a6ff" stroke="#0d1117" stroke-width="2.5"/>
<circle cx="841.2" cy="142.1" r="6" fill="#58a6ff" opacity="0.2"/>
<circle cx="841.2" cy="142.1" r="4" fill="#58a6ff" stroke="#0d1117" stroke-width="2.5"/>
<circle cx="870.8" cy="142.1" r="6" fill="#58a6ff" opacity="0.2"/>
<circle cx="870.8" cy="142.1" r="4" fill="#58a6ff" stroke="#0d1117" stroke-width="2.5"/>
<circle cx="900.5" cy="212.7" r="6" fill="#58a6ff" opacity="0.2"/>
<circle cx="900.5" cy="212.7" r="4" fill="#58a6ff" stroke="#0d1117" stroke-width="2.5"/>
<circle cx="930.2" cy="408.3" r="6" fill="#58a6ff" opacity="0.2"/>
<circle cx="930.2" cy="408.3" r="4" fill="#58a6ff" stroke="#0d1117" stroke-width="2.5"/>
<path d="M69.8,121.5 L99.5,121.3 L129.2,121.4 L158.8,177.3 L188.5,393.8 L218.2,121.1 L247.8,120.5 L277.5,120.9 L307.2,158.6 L336.8,375.9 L366.5,129.8 L396.2,129.4 L425.8,129.3 L455.5,182.2 L485.2,390.6 L514.8,129.7 L544.5,129.5 L574.2,129.4 L603.8,189.4 L633.5,397.6 L663.2,151.3 L692.8,146.9 L722.5,145.1 L752.2,166.3 L781.8,357.2 L811.5,121.3 L841.2,121.4 L870.8,121.4 L900.5,195.2 L930.2,411.6" fill="none" stroke="#FF9800" stroke-width="8" stroke-linejoin="round" stroke-linecap="round" opacity="0.12"/>
<path d="M69.8,121.5 L99.5,121.3 L129.2,121.4 L158.8,177.3 L188.5,393.8 L218.2,121.1 L247.8,120.5 L277.5,120.9 L307.2,158.6 L336.8,375.9 L366.5,129.8 L396.2,129.4 L425.8,129.3 L455.5,182.2 L485.2,390.6 L514.8,129.7 L544.5,129.5 L574.2,129.4 L603.8,189.4 L633.5,397.6 L663.2,151.3 L692.8,146.9 L722.5,145.1 L752.2,166.3 L781.8,357.2 L811.5,121.3 L841.2,121.4 L870.8,121.4 L900.5,195.2 L930.2,411.6" fill="none" stroke="#FF9800" stroke-width="3.5" stroke-linejoin="round" stroke-linecap="round"/>
<circle cx="69.8" cy="121.5" r="6" fill="#FF9800" opacity="0.2"/>
<circle cx="69.8" cy="121.5" r="4" fill="#FF9800" stroke="#0d1117" stroke-width="2.5"/>
<circle cx="99.5" cy="121.3" r="6" fill="#FF9800" opacity="0.2"/>
<circle cx="99.5" cy="121.3" r="4" fill="#FF9800" stroke="#0d1117" stroke-width="2.5"/>
<circle cx="129.2" cy="121.4" r="6" fill="#FF9800" opacity="0.2"/>
<circle cx="129.2" cy="121.4" r="4" fill="#FF9800" stroke="#0d1117" stroke-width="2.5"/>
<circle cx="158.8" cy="177.3" r="6" fill="#FF9800" opacity="0.2"/>
<circle cx="158.8" cy="177.3" r="4" fill="#FF9800" stroke="#0d1117" stroke-width="2.5"/>
<circle cx="188.5" cy="393.8" r="6" fill="#FF9800" opacity="0.2"/>
<circle cx="188.5" cy="393.8" r="4" fill="#FF9800" stroke="#0d1117" stroke-width="2.5"/>
<circle cx="218.2" cy="121.1" r="6" fill="#FF9800" opacity="0.2"/>
<circle cx="218.2" cy="121.1" r="4" fill="#FF9800" stroke="#0d1117" stroke-width="2.5"/>
<circle cx="247.8" cy="120.5" r="6" fill="#FF9800" opacity="0.2"/>
<circle cx="247.8" cy="120.5" r="4" fill="#FF9800" stroke="#0d1117" stroke-width="2.5"/>
<circle cx="277.5" cy="120.9" r="6" fill="#FF9800" opacity="0.2"/>
<circle cx="277.5" cy="120.9" r="4" fill="#FF9800" stroke="#0d1117" stroke-width="2.5"/>
<circle cx="307.2" cy="158.6" r="6" fill="#FF9800" opacity="0.2"/>
<circle cx="307.2" cy="158.6" r="4" fill="#FF9800" stroke="#0d1117" stroke-width="2.5"/>
<circle cx="336.8" cy="375.9" r="6" fill="#FF9800" opacity="0.2"/>
<circle cx="336.8" cy="375.9" r="4" fill="#FF9800" stroke="#0d1117" stroke-width="2.5"/>
<circle cx="366.5" cy="129.8" r="6" fill="#FF9800" opacity="0.2"/>
<circle cx="366.5" cy="129.8" r="4" fill="#FF9800" stroke="#0d1117" stroke-width="2.5"/>
<circle cx="396.2" cy="129.4" r="6" fill="#FF9800" opacity="0.2"/>
<circle cx="396.2" cy="129.4" r="4" fill="#FF9800" stroke="#0d1117" stroke-width="2.5"/>
<circle cx="425.8" cy="129.3" r="6" fill="#FF9800" opacity="0.2"/>
<circle cx="425.8" cy="129.3" r="4" fill="#FF9800" stroke="#0d1117" stroke-width="2.5"/>
<circle cx="455.5" cy="182.2" r="6" fill="#FF9800" opacity="0.2"/>
<circle cx="455.5" cy="182.2" r="4" fill="#FF9800" stroke="#0d1117" stroke-width="2.5"/>
<circle cx="485.2" cy="390.6" r="6" fill="#FF9800" opacity="0.2"/>
<circle cx="485.2" cy="390.6" r="4" fill="#FF9800" stroke="#0d1117" stroke-width="2.5"/>
<circle cx="514.8" cy="129.7" r="6" fill="#FF9800" opacity="0.2"/>
<circle cx="514.8" cy="129.7" r="4" fill="#FF9800" stroke="#0d1117" stroke-width="2.5"/>
<circle cx="544.5" cy="129.5" r="6" fill="#FF9800" opacity="0.2"/>
<circle cx="544.5" cy="129.5" r="4" fill="#FF9800" stroke="#0d1117" stroke-width="2.5"/>
<circle cx="574.2" cy="129.4" r="6" fill="#FF9800" opacity="0.2"/>
<circle cx="574.2" cy="129.4" r="4" fill="#FF9800" stroke="#0d1117" stroke-width="2.5"/>
<circle cx="603.8" cy="189.4" r="6" fill="#FF9800" opacity="0.2"/>
<circle cx="603.8" cy="189.4" r="4" fill="#FF9800" stroke="#0d1117" stroke-width="2.5"/>
<circle cx="633.5" cy="397.6" r="6" fill="#FF9800" opacity="0.2"/>
<circle cx="633.5" cy="397.6" r="4" fill="#FF9800" stroke="#0d1117" stroke-width="2.5"/>
<circle cx="663.2" cy="151.3" r="6" fill="#FF9800" opacity="0.2"/>
<circle cx="663.2" cy="151.3" r="4" fill="#FF9800" stroke="#0d1117" stroke-width="2.5"/>
<circle cx="692.8" cy="146.9" r="6" fill="#FF9800" opacity="0.2"/>
<circle cx="692.8" cy="146.9" r="4" fill="#FF9800" stroke="#0d1117" stroke-width="2.5"/>
<circle cx="722.5" cy="145.1" r="6" fill="#FF9800" opacity="0.2"/>
<circle cx="722.5" cy="145.1" r="4" fill="#FF9800" stroke="#0d1117" stroke-width="2.5"/>
<circle cx="752.2" cy="166.3" r="6" fill="#FF9800" opacity="0.2"/>
<circle cx="752.2" cy="166.3" r="4" fill="#FF9800" stroke="#0d1117" stroke-width="2.5"/>
<circle cx="781.8" cy="357.2" r="6" fill="#FF9800" opacity="0.2"/>
<circle cx="781.8" cy="357.2" r="4" fill="#FF9800" stroke="#0d1117" stroke-width="2.5"/>
<circle cx="811.5" cy="121.3" r="6" fill="#FF9800" opacity="0.2"/>
<circle cx="811.5" cy="121.3" r="4" fill="#FF9800" stroke="#0d1117" stroke-width="2.5"/>
<circle cx="841.2" cy="121.4" r="6" fill="#FF9800" opacity="0.2"/>
<circle cx="841.2" cy="121.4" r="4" fill="#FF9800" stroke="#0d1117" stroke-width="2.5"/>
<circle cx="870.8" cy="121.4" r="6" fill="#FF9800" opacity="0.2"/>
<circle cx="870.8" cy="121.4" r="4" fill="#FF9800" stroke="#0d1117" stroke-width="2.5"/>
<circle cx="900.5" cy="195.2" r="6" fill="#FF9800" opacity="0.2"/>
<circle cx="900.5" cy="195.2" r="4" fill="#FF9800" stroke="#0d1117" stroke-width="2.5"/>
<circle cx="930.2" cy="411.6" r="6" fill="#FF9800" opacity="0.2"/>
<circle cx="930.2" cy="411.6" r="4" fill="#FF9800" stroke="#0d1117" stroke-width="2.5"/>
<path d="M69.8,122.8 L99.5,122.8 L129.2,122.8 L158.8,203.4 L188.5,418.4 L218.2,122.7 L247.8,122.8 L277.5,122.8 L307.2,198.2 L336.8,413.2 L366.5,131.0 L396.2,131.0 L425.8,131.0 L455.5,218.4 L485.2,425.1 L514.8,130.0 L544.5,128.0 L574.2,128.1 L603.8,154.7 L633.5,364.4 L663.2,151.1 L692.8,147.4 L722.5,150.9 L752.2,159.9 L781.8,350.2 L811.5,122.8 L841.2,122.8 L870.8,122.8 L900.5,193.8 L930.2,408.8" fill="none" stroke="#4CAF50" stroke-width="8" stroke-linejoin="round" stroke-linecap="round" opacity="0.12"/>
<path d="M69.8,122.8 L99.5,122.8 L129.2,122.8 L158.8,203.4 L188.5,418.4 L218.2,122.7 L247.8,122.8 L277.5,122.8 L307.2,198.2 L336.8,413.2 L366.5,131.0 L396.2,131.0 L425.8,131.0 L455.5,218.4 L485.2,425.1 L514.8,130.0 L544.5,128.0 L574.2,128.1 L603.8,154.7 L633.5,364.4 L663.2,151.1 L692.8,147.4 L722.5,150.9 L752.2,159.9 L781.8,350.2 L811.5,122.8 L841.2,122.8 L870.8,122.8 L900.5,193.8 L930.2,408.8" fill="none" stroke="#4CAF50" stroke-width="3.5" stroke-linejoin="round" stroke-linecap="round"/>
<circle cx="69.8" cy="122.8" r="6" fill="#4CAF50" opacity="0.2"/>
<circle cx="69.8" cy="122.8" r="4" fill="#4CAF50" stroke="#0d1117" stroke-width="2.5"/>
<circle cx="99.5" cy="122.8" r="6" fill="#4CAF50" opacity="0.2"/>
<circle cx="99.5" cy="122.8" r="4" fill="#4CAF50" stroke="#0d1117" stroke-width="2.5"/>
<circle cx="129.2" cy="122.8" r="6" fill="#4CAF50" opacity="0.2"/>
<circle cx="129.2" cy="122.8" r="4" fill="#4CAF50" stroke="#0d1117" stroke-width="2.5"/>
<circle cx="158.8" cy="203.4" r="6" fill="#4CAF50" opacity="0.2"/>
<circle cx="158.8" cy="203.4" r="4" fill="#4CAF50" stroke="#0d1117" stroke-width="2.5"/>
<circle cx="188.5" cy="418.4" r="6" fill="#4CAF50" opacity="0.2"/>
<circle cx="188.5" cy="418.4" r="4" fill="#4CAF50" stroke="#0d1117" stroke-width="2.5"/>
<circle cx="218.2" cy="122.7" r="6" fill="#4CAF50" opacity="0.2"/>
<circle cx="218.2" cy="122.7" r="4" fill="#4CAF50" stroke="#0d1117" stroke-width="2.5"/>
<circle cx="247.8" cy="122.8" r="6" fill="#4CAF50" opacity="0.2"/>
<circle cx="247.8" cy="122.8" r="4" fill="#4CAF50" stroke="#0d1117" stroke-width="2.5"/>
<circle cx="277.5" cy="122.8" r="6" fill="#4CAF50" opacity="0.2"/>
<circle cx="277.5" cy="122.8" r="4" fill="#4CAF50" stroke="#0d1117" stroke-width="2.5"/>
<circle cx="307.2" cy="198.2" r="6" fill="#4CAF50" opacity="0.2"/>
<circle cx="307.2" cy="198.2" r="4" fill="#4CAF50" stroke="#0d1117" stroke-width="2.5"/>
<circle cx="336.8" cy="413.2" r="6" fill="#4CAF50" opacity="0.2"/>
<circle cx="336.8" cy="413.2" r="4" fill="#4CAF50" stroke="#0d1117" stroke-width="2.5"/>
<circle cx="366.5" cy="131.0" r="6" fill="#4CAF50" opacity="0.2"/>
<circle cx="366.5" cy="131.0" r="4" fill="#4CAF50" stroke="#0d1117" stroke-width="2.5"/>
<circle cx="396.2" cy="131.0" r="6" fill="#4CAF50" opacity="0.2"/>
<circle cx="396.2" cy="131.0" r="4" fill="#4CAF50" stroke="#0d1117" stroke-width="2.5"/>
<circle cx="425.8" cy="131.0" r="6" fill="#4CAF50" opacity="0.2"/>
<circle cx="425.8" cy="131.0" r="4" fill="#4CAF50" stroke="#0d1117" stroke-width="2.5"/>
<circle cx="455.5" cy="218.4" r="6" fill="#4CAF50" opacity="0.2"/>
<circle cx="455.5" cy="218.4" r="4" fill="#4CAF50" stroke="#0d1117" stroke-width="2.5"/>
<circle cx="485.2" cy="425.1" r="6" fill="#4CAF50" opacity="0.2"/>
<circle cx="485.2" cy="425.1" r="4" fill="#4CAF50" stroke="#0d1117" stroke-width="2.5"/>
<circle cx="514.8" cy="130.0" r="6" fill="#4CAF50" opacity="0.2"/>
<circle cx="514.8" cy="130.0" r="4" fill="#4CAF50" stroke="#0d1117" stroke-width="2.5"/>
<circle cx="544.5" cy="128.0" r="6" fill="#4CAF50" opacity="0.2"/>
<circle cx="544.5" cy="128.0" r="4" fill="#4CAF50" stroke="#0d1117" stroke-width="2.5"/>
<circle cx="574.2" cy="128.1" r="6" fill="#4CAF50" opacity="0.2"/>
<circle cx="574.2" cy="128.1" r="4" fill="#4CAF50" stroke="#0d1117" stroke-width="2.5"/>
<circle cx="603.8" cy="154.7" r="6" fill="#4CAF50" opacity="0.2"/>
<circle cx="603.8" cy="154.7" r="4" fill="#4CAF50" stroke="#0d1117" stroke-width="2.5"/>
<circle cx="633.5" cy="364.4" r="6" fill="#4CAF50" opacity="0.2"/>
<circle cx="633.5" cy="364.4" r="4" fill="#4CAF50" stroke="#0d1117" stroke-width="2.5"/>
<circle cx="663.2" cy="151.1" r="6" fill="#4CAF50" opacity="0.2"/>
<circle cx="663.2" cy="151.1" r="4" fill="#4CAF50" stroke="#0d1117" stroke-width="2.5"/>
<circle cx="692.8" cy="147.4" r="6" fill="#4CAF50" opacity="0.2"/>
<circle cx="692.8" cy="147.4" r="4" fill="#4CAF50" stroke="#0d1117" stroke-width="2.5"/>
<circle cx="722.5" cy="150.9" r="6" fill="#4CAF50" opacity="0.2"/>
<circle cx="722.5" cy="150.9" r="4" fill="#4CAF50" stroke="#0d1117" stroke-width="2.5"/>
<circle cx="752.2" cy="159.9" r="6" fill="#4CAF50" opacity="0.2"/>
<circle cx="752.2" cy="159.9" r="4" fill="#4CAF50" stroke="#0d1117" stroke-width="2.5"/>
<circle cx="781.8" cy="350.2" r="6" fill="#4CAF50" opacity="0.2"/>
<circle cx="781.8" cy="350.2" r="4" fill="#4CAF50" stroke="#0d1117" stroke-width="2.5"/>
<circle cx="811.5" cy="122.8" r="6" fill="#4CAF50" opacity="0.2"/>
<circle cx="811.5" cy="122.8" r="4" fill="#4CAF50" stroke="#0d1117" stroke-width="2.5"/>
<circle cx="841.2" cy="122.8" r="6" fill="#4CAF50" opacity="0.2"/>
<circle cx="841.2" cy="122.8" r="4" fill="#4CAF50" stroke="#0d1117" stroke-width="2.5"/>
<circle cx="870.8" cy="122.8" r="6" fill="#4CAF50" opacity="0.2"/>
<circle cx="870.8" cy="122.8" r="4" fill="#4CAF50" stroke="#0d1117" stroke-width="2.5"/>
<circle cx="900.5" cy="193.8" r="6" fill="#4CAF50" opacity="0.2"/>
<circle cx="900.5" cy="193.8" r="4" fill="#4CAF50" stroke="#0d1117" stroke-width="2.5"/>
<circle cx="930.2" cy="408.8" r="6" fill="#4CAF50" opacity="0.2"/>
<circle cx="930.2" cy="408.8" r="4" fill="#4CAF50" stroke="#0d1117" stroke-width="2.5"/>
<path d="M69.8,122.5 L99.5,122.5 L129.2,122.5 L158.8,195.2 L188.5,410.4 L218.2,121.7 L247.8,121.3 L277.5,121.3 L307.2,169.8 L336.8,386.2 L366.5,130.7 L396.2,130.6 L425.8,130.6 L455.5,201.0 L485.2,408.1 L514.8,130.9 L544.5,130.8 L574.2,130.8 L603.8,208.4 L633.5,415.3 L663.2,151.3 L692.8,147.3 L722.5,146.0 L752.2,167.5 L781.8,357.9 L811.5,122.5 L841.2,122.5 L870.8,122.5 L900.5,201.2 L930.2,416.5" fill="none" stroke="#BB86FC" stroke-width="8" stroke-linejoin="round" stroke-linecap="round" opacity="0.12"/>
<path d="M69.8,122.5 L99.5,122.5 L129.2,122.5 L158.8,195.2 L188.5,410.4 L218.2,121.7 L247.8,121.3 L277.5,121.3 L307.2,169.8 L336.8,386.2 L366.5,130.7 L396.2,130.6 L425.8,130.6 L455.5,201.0 L485.2,408.1 L514.8,130.9 L544.5,130.8 L574.2,130.8 L603.8,208.4 L633.5,415.3 L663.2,151.3 L692.8,147.3 L722.5,146.0 L752.2,167.5 L781.8,357.9 L811.5,122.5 L841.2,122.5 L870.8,122.5 L900.5,201.2 L930.2,416.5" fill="none" stroke="#BB86FC" stroke-width="3.5" stroke-linejoin="round" stroke-linecap="round"/>
<circle cx="69.8" cy="122.5" r="6" fill="#BB86FC" opacity="0.2"/>
<circle cx="69.8" cy="122.5" r="4" fill="#BB86FC" stroke="#0d1117" stroke-width="2.5"/>
<circle cx="99.5" cy="122.5" r="6" fill="#BB86FC" opacity="0.2"/>
<circle cx="99.5" cy="122.5" r="4" fill="#BB86FC" stroke="#0d1117" stroke-width="2.5"/>
<circle cx="129.2" cy="122.5" r="6" fill="#BB86FC" opacity="0.2"/>
<circle cx="129.2" cy="122.5" r="4" fill="#BB86FC" stroke="#0d1117" stroke-width="2.5"/>
<circle cx="158.8" cy="195.2" r="6" fill="#BB86FC" opacity="0.2"/>
<circle cx="158.8" cy="195.2" r="4" fill="#BB86FC" stroke="#0d1117" stroke-width="2.5"/>
<circle cx="188.5" cy="410.4" r="6" fill="#BB86FC" opacity="0.2"/>
<circle cx="188.5" cy="410.4" r="4" fill="#BB86FC" stroke="#0d1117" stroke-width="2.5"/>
<circle cx="218.2" cy="121.7" r="6" fill="#BB86FC" opacity="0.2"/>
<circle cx="218.2" cy="121.7" r="4" fill="#BB86FC" stroke="#0d1117" stroke-width="2.5"/>
<circle cx="247.8" cy="121.3" r="6" fill="#BB86FC" opacity="0.2"/>
<circle cx="247.8" cy="121.3" r="4" fill="#BB86FC" stroke="#0d1117" stroke-width="2.5"/>
<circle cx="277.5" cy="121.3" r="6" fill="#BB86FC" opacity="0.2"/>
<circle cx="277.5" cy="121.3" r="4" fill="#BB86FC" stroke="#0d1117" stroke-width="2.5"/>
<circle cx="307.2" cy="169.8" r="6" fill="#BB86FC" opacity="0.2"/>
<circle cx="307.2" cy="169.8" r="4" fill="#BB86FC" stroke="#0d1117" stroke-width="2.5"/>
<circle cx="336.8" cy="386.2" r="6" fill="#BB86FC" opacity="0.2"/>
<circle cx="336.8" cy="386.2" r="4" fill="#BB86FC" stroke="#0d1117" stroke-width="2.5"/>
<circle cx="366.5" cy="130.7" r="6" fill="#BB86FC" opacity="0.2"/>
<circle cx="366.5" cy="130.7" r="4" fill="#BB86FC" stroke="#0d1117" stroke-width="2.5"/>
<circle cx="396.2" cy="130.6" r="6" fill="#BB86FC" opacity="0.2"/>
<circle cx="396.2" cy="130.6" r="4" fill="#BB86FC" stroke="#0d1117" stroke-width="2.5"/>
<circle cx="425.8" cy="130.6" r="6" fill="#BB86FC" opacity="0.2"/>
<circle cx="425.8" cy="130.6" r="4" fill="#BB86FC" stroke="#0d1117" stroke-width="2.5"/>
<circle cx="455.5" cy="201.0" r="6" fill="#BB86FC" opacity="0.2"/>
<circle cx="455.5" cy="201.0" r="4" fill="#BB86FC" stroke="#0d1117" stroke-width="2.5"/>
<circle cx="485.2" cy="408.1" r="6" fill="#BB86FC" opacity="0.2"/>
<circle cx="485.2" cy="408.1" r="4" fill="#BB86FC" stroke="#0d1117" stroke-width="2.5"/>
<circle cx="514.8" cy="130.9" r="6" fill="#BB86FC" opacity="0.2"/>
<circle cx="514.8" cy="130.9" r="4" fill="#BB86FC" stroke="#0d1117" stroke-width="2.5"/>
<circle cx="544.5" cy="130.8" r="6" fill="#BB86FC" opacity="0.2"/>
<circle cx="544.5" cy="130.8" r="4" fill="#BB86FC" stroke="#0d1117" stroke-width="2.5"/>
<circle cx="574.2" cy="130.8" r="6" fill="#BB86FC" opacity="0.2"/>
<circle cx="574.2" cy="130.8" r="4" fill="#BB86FC" stroke="#0d1117" stroke-width="2.5"/>
<circle cx="603.8" cy="208.4" r="6" fill="#BB86FC" opacity="0.2"/>
<circle cx="603.8" cy="208.4" r="4" fill="#BB86FC" stroke="#0d1117" stroke-width="2.5"/>
<circle cx="633.5" cy="415.3" r="6" fill="#BB86FC" opacity="0.2"/>
<circle cx="633.5" cy="415.3" r="4" fill="#BB86FC" stroke="#0d1117" stroke-width="2.5"/>
<circle cx="663.2" cy="151.3" r="6" fill="#BB86FC" opacity="0.2"/>
<circle cx="663.2" cy="151.3" r="4" fill="#BB86FC" stroke="#0d1117" stroke-width="2.5"/>
<circle cx="692.8" cy="147.3" r="6" fill="#BB86FC" opacity="0.2"/>
<circle cx="692.8" cy="147.3" r="4" fill="#BB86FC" stroke="#0d1117" stroke-width="2.5"/>
<circle cx="722.5" cy="146.0" r="6" fill="#BB86FC" opacity="0.2"/>
<circle cx="722.5" cy="146.0" r="4" fill="#BB86FC" stroke="#0d1117" stroke-width="2.5"/>
<circle cx="752.2" cy="167.5" r="6" fill="#BB86FC" opacity="0.2"/>
<circle cx="752.2" cy="167.5" r="4" fill="#BB86FC" stroke="#0d1117" stroke-width="2.5"/>
<circle cx="781.8" cy="357.9" r="6" fill="#BB86FC" opacity="0.2"/>
<circle cx="781.8" cy="357.9" r="4" fill="#BB86FC" stroke="#0d1117" stroke-width="2.5"/>
<circle cx="811.5" cy="122.5" r="6" fill="#BB86FC" opacity="0.2"/>
<circle cx="811.5" cy="122.5" r="4" fill="#BB86FC" stroke="#0d1117" stroke-width="2.5"/>
<circle cx="841.2" cy="122.5" r="6" fill="#BB86FC" opacity="0.2"/>
<circle cx="841.2" cy="122.5" r="4" fill="#BB86FC" stroke="#0d1117" stroke-width="2.5"/>
<circle cx="870.8" cy="122.5" r="6" fill="#BB86FC" opacity="0.2"/>
<circle cx="870.8" cy="122.5" r="4" fill="#BB86FC" stroke="#0d1117" stroke-width="2.5"/>
<circle cx="900.5" cy="201.2" r="6" fill="#BB86FC" opacity="0.2"/>
<circle cx="900.5" cy="201.2" r="4" fill="#BB86FC" stroke="#0d1117" stroke-width="2.5"/>
<circle cx="930.2" cy="416.5" r="6" fill="#BB86FC" opacity="0.2"/>
<circle cx="930.2" cy="416.5" r="4" fill="#BB86FC" stroke="#0d1117" stroke-width="2.5"/>
<path d="M69.8,122.3 L99.5,122.2 L129.2,122.3 L158.8,176.4 L188.5,391.9 L218.2,121.8 L247.8,121.3 L277.5,121.4 L307.2,165.3 L336.8,381.7 L366.5,130.4 L396.2,130.4 L425.8,130.4 L455.5,210.7 L485.2,418.1 L514.8,130.7 L544.5,130.6 L574.2,130.5 L603.8,200.1 L633.5,407.3 L663.2,151.3 L692.8,147.2 L722.5,146.0 L752.2,167.4 L781.8,357.9 L811.5,122.1 L841.2,122.0 L870.8,122.1 L900.5,175.6 L930.2,391.4" fill="none" stroke="#F472B6" stroke-width="8" stroke-linejoin="round" stroke-linecap="round" opacity="0.12"/>
<path d="M69.8,122.3 L99.5,122.2 L129.2,122.3 L158.8,176.4 L188.5,391.9 L218.2,121.8 L247.8,121.3 L277.5,121.4 L307.2,165.3 L336.8,381.7 L366.5,130.4 L396.2,130.4 L425.8,130.4 L455.5,210.7 L485.2,418.1 L514.8,130.7 L544.5,130.6 L574.2,130.5 L603.8,200.1 L633.5,407.3 L663.2,151.3 L692.8,147.2 L722.5,146.0 L752.2,167.4 L781.8,357.9 L811.5,122.1 L841.2,122.0 L870.8,122.1 L900.5,175.6 L930.2,391.4" fill="none" stroke="#F472B6" stroke-width="3.5" stroke-linejoin="round" stroke-linecap="round"/>
<circle cx="69.8" cy="122.3" r="6" fill="#F472B6" opacity="0.2"/>
<circle cx="69.8" cy="122.3" r="4" fill="#F472B6" stroke="#0d1117" stroke-width="2.5"/>
<circle cx="99.5" cy="122.2" r="6" fill="#F472B6" opacity="0.2"/>
<circle cx="99.5" cy="122.2" r="4" fill="#F472B6" stroke="#0d1117" stroke-width="2.5"/>
<circle cx="129.2" cy="122.3" r="6" fill="#F472B6" opacity="0.2"/>
<circle cx="129.2" cy="122.3" r="4" fill="#F472B6" stroke="#0d1117" stroke-width="2.5"/>
<circle cx="158.8" cy="176.4" r="6" fill="#F472B6" opacity="0.2"/>
<circle cx="158.8" cy="176.4" r="4" fill="#F472B6" stroke="#0d1117" stroke-width="2.5"/>
<circle cx="188.5" cy="391.9" r="6" fill="#F472B6" opacity="0.2"/>
<circle cx="188.5" cy="391.9" r="4" fill="#F472B6" stroke="#0d1117" stroke-width="2.5"/>
<circle cx="218.2" cy="121.8" r="6" fill="#F472B6" opacity="0.2"/>
<circle cx="218.2" cy="121.8" r="4" fill="#F472B6" stroke="#0d1117" stroke-width="2.5"/>
<circle cx="247.8" cy="121.3" r="6" fill="#F472B6" opacity="0.2"/>
<circle cx="247.8" cy="121.3" r="4" fill="#F472B6" stroke="#0d1117" stroke-width="2.5"/>
<circle cx="277.5" cy="121.4" r="6" fill="#F472B6" opacity="0.2"/>
<circle cx="277.5" cy="121.4" r="4" fill="#F472B6" stroke="#0d1117" stroke-width="2.5"/>
<circle cx="307.2" cy="165.3" r="6" fill="#F472B6" opacity="0.2"/>
<circle cx="307.2" cy="165.3" r="4" fill="#F472B6" stroke="#0d1117" stroke-width="2.5"/>
<circle cx="336.8" cy="381.7" r="6" fill="#F472B6" opacity="0.2"/>
<circle cx="336.8" cy="381.7" r="4" fill="#F472B6" stroke="#0d1117" stroke-width="2.5"/>
<circle cx="366.5" cy="130.4" r="6" fill="#F472B6" opacity="0.2"/>
<circle cx="366.5" cy="130.4" r="4" fill="#F472B6" stroke="#0d1117" stroke-width="2.5"/>
<circle cx="396.2" cy="130.4" r="6" fill="#F472B6" opacity="0.2"/>
<circle cx="396.2" cy="130.4" r="4" fill="#F472B6" stroke="#0d1117" stroke-width="2.5"/>
<circle cx="425.8" cy="130.4" r="6" fill="#F472B6" opacity="0.2"/>
<circle cx="425.8" cy="130.4" r="4" fill="#F472B6" stroke="#0d1117" stroke-width="2.5"/>
<circle cx="455.5" cy="210.7" r="6" fill="#F472B6" opacity="0.2"/>
<circle cx="455.5" cy="210.7" r="4" fill="#F472B6" stroke="#0d1117" stroke-width="2.5"/>
<circle cx="485.2" cy="418.1" r="6" fill="#F472B6" opacity="0.2"/>
<circle cx="485.2" cy="418.1" r="4" fill="#F472B6" stroke="#0d1117" stroke-width="2.5"/>
<circle cx="514.8" cy="130.7" r="6" fill="#F472B6" opacity="0.2"/>
<circle cx="514.8" cy="130.7" r="4" fill="#F472B6" stroke="#0d1117" stroke-width="2.5"/>
<circle cx="544.5" cy="130.6" r="6" fill="#F472B6" opacity="0.2"/>
<circle cx="544.5" cy="130.6" r="4" fill="#F472B6" stroke="#0d1117" stroke-width="2.5"/>
<circle cx="574.2" cy="130.5" r="6" fill="#F472B6" opacity="0.2"/>
<circle cx="574.2" cy="130.5" r="4" fill="#F472B6" stroke="#0d1117" stroke-width="2.5"/>
<circle cx="603.8" cy="200.1" r="6" fill="#F472B6" opacity="0.2"/>
<circle cx="603.8" cy="200.1" r="4" fill="#F472B6" stroke="#0d1117" stroke-width="2.5"/>
<circle cx="633.5" cy="407.3" r="6" fill="#F472B6" opacity="0.2"/>
<circle cx="633.5" cy="407.3" r="4" fill="#F472B6" stroke="#0d1117" stroke-width="2.5"/>
<circle cx="663.2" cy="151.3" r="6" fill="#F472B6" opacity="0.2"/>
<circle cx="663.2" cy="151.3" r="4" fill="#F472B6" stroke="#0d1117" stroke-width="2.5"/>
<circle cx="692.8" cy="147.2" r="6" fill="#F472B6" opacity="0.2"/>
<circle cx="692.8" cy="147.2" r="4" fill="#F472B6" stroke="#0d1117" stroke-width="2.5"/>
<circle cx="722.5" cy="146.0" r="6" fill="#F472B6" opacity="0.2"/>
<circle cx="722.5" cy="146.0" r="4" fill="#F472B6" stroke="#0d1117" stroke-width="2.5"/>
<circle cx="752.2" cy="167.4" r="6" fill="#F472B6" opacity="0.2"/>
<circle cx="752.2" cy="167.4" r="4" fill="#F472B6" stroke="#0d1117" stroke-width="2.5"/>
<circle cx="781.8" cy="357.9" r="6" fill="#F472B6" opacity="0.2"/>
<circle cx="781.8" cy="357.9" r="4" fill="#F472B6" stroke="#0d1117" stroke-width="2.5"/>
<circle cx="811.5" cy="122.1" r="6" fill="#F472B6" opacity="0.2"/>
<circle cx="811.5" cy="122.1" r="4" fill="#F472B6" stroke="#0d1117" stroke-width="2.5"/>
<circle cx="841.2" cy="122.0" r="6" fill="#F472B6" opacity="0.2"/>
<circle cx="841.2" cy="122.0" r="4" fill="#F472B6" stroke="#0d1117" stroke-width="2.5"/>
<circle cx="870.8" cy="122.1" r="6" fill="#F472B6" opacity="0.2"/>
<circle cx="870.8" cy="122.1" r="4" fill="#F472B6" stroke="#0d1117" stroke-width="2.5"/>
<circle cx="900.5" cy="175.6" r="6" fill="#F472B6" opacity="0.2"/>
<circle cx="900.5" cy="175.6" r="4" fill="#F472B6" stroke="#0d1117" stroke-width="2.5"/>
<circle cx="930.2" cy="391.4" r="6" fill="#F472B6" opacity="0.2"/>
<circle cx="930.2" cy="391.4" r="4" fill="#F472B6" stroke="#0d1117" stroke-width="2.5"/>
<text x="69.8" y="448" text-anchor="end" fill="#8b949e" font-size="11" transform="rotate(-30,69.8,448)">push_back</text>
<text x="99.5" y="448" text-anchor="end" fill="#8b949e" font-size="11" transform="rotate(-30,99.5,448)">push_back_mean</text>
<text x="129.2" y="448" text-anchor="end" fill="#8b949e" font-size="11" transform="rotate(-30,129.2,448)">push_back_median</text>
<text x="158.8" y="448" text-anchor="end" fill="#8b949e" font-size="11" transform="rotate(-30,158.8,448)">push_back_stddev</text>
<text x="188.5" y="448" text-anchor="end" fill="#8b949e" font-size="11" transform="rotate(-30,188.5,448)">push_back_cv</text>
<text x="218.2" y="448" text-anchor="end" fill="#8b949e" font-size="11" transform="rotate(-30,218.2,448)">push_front</text>
<text x="247.8" y="448" text-anchor="end" fill="#8b949e" font-size="11" transform="rotate(-30,247.8,448)">push_front_mean</text>
<text x="277.5" y="448" text-anchor="end" fill="#8b949e" font-size="11" transform="rotate(-30,277.5,448)">push_front_median</text>
<text x="307.2" y="448" text-anchor="end" fill="#8b949e" font-size="11" transform="rotate(-30,307.2,448)">push_front_stddev</text>
<text x="336.8" y="448" text-anchor="end" fill="#8b949e" font-size="11" transform="rotate(-30,336.8,448)">push_front_cv</text>
<text x="366.5" y="448" text-anchor="end" fill="#8b949e" font-size="11" transform="rotate(-30,366.5,448)">insert_middle</text>
<text x="396.2" y="448" text-anchor="end" fill="#8b949e" font-size="11" transform="rotate(-30,396.2,448)">insert_middle_mean</text>
<text x="425.8" y="448" text-anchor="end" fill="#8b949e" font-size="11" transform="rotate(-30,425.8,448)">insert_middle_median</text>
<text x="455.5" y="448" text-anchor="end" fill="#8b949e" font-size="11" transform="rotate(-30,455.5,448)">insert_middle_stddev</text>
<text x="485.2" y="448" text-anchor="end" fill="#8b949e" font-size="11" transform="rotate(-30,485.2,448)">insert_middle_cv</text>
<text x="514.8" y="448" text-anchor="end" fill="#8b949e" font-size="11" transform="rotate(-30,514.8,448)">erase_middle</text>
<text x="544.5" y="448" text-anchor="end" fill="#8b949e" font-size="11" transform="rotate(-30,544.5,448)">erase_middle_mean</text>
<text x="574.2" y="448" text-anchor="end" fill="#8b949e" font-size="11" transform="rotate(-30,574.2,448)">erase_middle_median</text>
<text x="603.8" y="448" text-anchor="end" fill="#8b949e" font-size="11" transform="rotate(-30,603.8,448)">erase_middle_stddev</text>
<text x="633.5" y="448" text-anchor="end" fill="#8b949e" font-size="11" transform="rotate(-30,633.5,448)">erase_middle_cv</text>
<text x="663.2" y="448" text-anchor="end" fill="#8b949e" font-size="11" transform="rotate(-30,663.2,448)">iterate</text>
<text x="692.8" y="448" text-anchor="end" fill="#8b949e" font-size="11" transform="rotate(-30,692.8,448)">iterate_mean</text>
<text x="722.5" y="448" text-anchor="end" fill="#8b949e" font-size="11" transform="rotate(-30,722.5,448)">iterate_median</text>
<text x="752.2" y="448" text-anchor="end" fill="#8b949e" font-size="11" transform="rotate(-30,752.2,448)">iterate_stddev</text>
<text x="781.8" y="448" text-anchor="end" fill="#8b949e" font-size="11" transform="rotate(-30,781.8,448)">iterate_cv</text>
<text x="811.5" y="448" text-anchor="end" fill="#8b949e" font-size="11" transform="rotate(-30,811.5,448)">clear</text>
<text x="841.2" y="448" text-anchor="end" fill="#8b949e" font-size="11" transform="rotate(-30,841.2,448)">clear_mean</text>
<text x="870.8" y="448" text-anchor="end" fill="#8b949e" font-size="11" transform="rotate(-30,870.8,448)">clear_median</text>
<text x="900.5" y="448" text-anchor="end" fill="#8b949e" font-size="11" transform="rotate(-30,900.5,448)">clear_stddev</text>
<text x="930.2" y="448" text-anchor="end" fill="#8b949e" font-size="11" transform="rotate(-30,930.2,448)">clear_cv</text>
<text x="14" y="272.5" text-anchor="middle" fill="#484f58" font-size="11" transform="rotate(-90,14,272.5)">Time (ms)</text>
<circle cx="65" cy="69" r="5" fill="#58a6ff"/>
<text x="75" y="73" fill="#c9d1d9" font-size="12">RG::LIST</text>
<circle cx="220" cy="69" r="5" fill="#FF9800"/>
<text x="230" y="73" fill="#c9d1d9" font-size="12">std::list</text>
<circle cx="375" cy="69" r="5" fill="#4CAF50"/>
<text x="385" y="73" fill="#c9d1d9" font-size="12">std::forward_list</text>
<circle cx="530" cy="69" r="5" fill="#BB86FC"/>
<text x="540" y="73" fill="#c9d1d9" font-size="12">boost::list</text>
<circle cx="685" cy="69" r="5" fill="#F472B6"/>
<text x="695" y="73" fill="#c9d1d9" font-size="12">eastl::list</text>
<text x="480.0" y="20" text-anchor="middle" fill="#58a6ff" font-size="15" font-weight="700">RG::LIST Benchmark — 2026-04-13</text>
</svg>