<svg xmlns="http://www.w3.org/2000/svg" viewBox="0 0 960 500" font-family="-apple-system,BlinkMacSystemFont,Segoe UI,sans-serif">
<rect width="960" height="500" rx="10" fill="#0d1117"/>
<rect x="55" y="115" width="890" height="315" fill="#161b22" rx="4"/>
<line x1="55" y1="426.4" x2="945" y2="426.4" stroke="#21262d"/>
<text x="47" y="430.37627109021224" text-anchor="end" fill="#484f58" font-size="10">0µs</text>
<line x1="55" y1="417.1" x2="945" y2="417.1" stroke="#21262d"/>
<text x="47" y="421.11013039727027" text-anchor="end" fill="#484f58" font-size="10">0µs</text>
<line x1="55" y1="404.9" x2="945" y2="404.9" stroke="#21262d"/>
<text x="47" y="408.8609586840912" text-anchor="end" fill="#484f58" font-size="10">0µs</text>
<line x1="55" y1="395.6" x2="945" y2="395.6" stroke="#21262d"/>
<text x="47" y="399.5948179911492" text-anchor="end" fill="#484f58" font-size="10">0µs</text>
<line x1="55" y1="386.3" x2="945" y2="386.3" stroke="#21262d"/>
<text x="47" y="390.3286772982072" text-anchor="end" fill="#484f58" font-size="10">0µs</text>
<line x1="55" y1="374.1" x2="945" y2="374.1" stroke="#21262d"/>
<text x="47" y="378.0795055850282" text-anchor="end" fill="#484f58" font-size="10">0µs</text>
<line x1="55" y1="364.8" x2="945" y2="364.8" stroke="#21262d"/>
<text x="47" y="368.8133648920862" text-anchor="end" fill="#484f58" font-size="10">0µs</text>
<line x1="55" y1="355.5" x2="945" y2="355.5" stroke="#21262d"/>
<text x="47" y="359.5472241991442" text-anchor="end" fill="#484f58" font-size="10">0µs</text>
<line x1="55" y1="343.3" x2="945" y2="343.3" stroke="#21262d"/>
<text x="47" y="347.2980524859651" text-anchor="end" fill="#484f58" font-size="10">0µs</text>
<line x1="55" y1="334.0" x2="945" y2="334.0" stroke="#21262d"/>
<text x="47" y="338.03191179302314" text-anchor="end" fill="#484f58" font-size="10">0µs</text>
<line x1="55" y1="324.8" x2="945" y2="324.8" stroke="#21262d"/>
<text x="47" y="328.76577110008117" text-anchor="end" fill="#484f58" font-size="10">0µs</text>
<line x1="55" y1="312.5" x2="945" y2="312.5" stroke="#21262d"/>
<text x="47" y="316.5165993869021" text-anchor="end" fill="#484f58" font-size="10">0µs</text>
<line x1="55" y1="303.3" x2="945" y2="303.3" stroke="#21262d"/>
<text x="47" y="307.2504586939601" text-anchor="end" fill="#484f58" font-size="10">0µs</text>
<line x1="55" y1="294.0" x2="945" y2="294.0" stroke="#21262d"/>
<text x="47" y="297.98431800101815" text-anchor="end" fill="#484f58" font-size="10">0µs</text>
<line x1="55" y1="281.7" x2="945" y2="281.7" stroke="#21262d"/>
<text x="47" y="285.73514628783903" text-anchor="end" fill="#484f58" font-size="10">0µs</text>
<line x1="55" y1="272.5" x2="945" y2="272.5" stroke="#21262d"/>
<text x="47" y="276.4690055948971" text-anchor="end" fill="#484f58" font-size="10">0µs</text>
<line x1="55" y1="263.2" x2="945" y2="263.2" stroke="#21262d"/>
<text x="47" y="267.2028649019551" text-anchor="end" fill="#484f58" font-size="10">0µs</text>
<line x1="55" y1="251.0" x2="945" y2="251.0" stroke="#21262d"/>
<text x="47" y="254.95369318877604" text-anchor="end" fill="#484f58" font-size="10">0µs</text>
<line x1="55" y1="241.7" x2="945" y2="241.7" stroke="#21262d"/>
<text x="47" y="245.68755249583407" text-anchor="end" fill="#484f58" font-size="10">1µs</text>
<line x1="55" y1="232.4" x2="945" y2="232.4" stroke="#21262d"/>
<text x="47" y="236.4214118028921" text-anchor="end" fill="#484f58" font-size="10">2µs</text>
<line x1="55" y1="220.2" x2="945" y2="220.2" stroke="#21262d"/>
<text x="47" y="224.17224008971303" text-anchor="end" fill="#484f58" font-size="10">5µs</text>
<line x1="55" y1="210.9" x2="945" y2="210.9" stroke="#21262d"/>
<text x="47" y="214.90609939677105" text-anchor="end" fill="#484f58" font-size="10">10µs</text>
<line x1="55" y1="201.6" x2="945" y2="201.6" stroke="#21262d"/>
<text x="47" y="205.63995870382905" text-anchor="end" fill="#484f58" font-size="10">20µs</text>
<line x1="55" y1="189.4" x2="945" y2="189.4" stroke="#21262d"/>
<text x="47" y="193.39078699064999" text-anchor="end" fill="#484f58" font-size="10">50µs</text>
<line x1="55" y1="180.1" x2="945" y2="180.1" stroke="#21262d"/>
<text x="47" y="184.124646297708" text-anchor="end" fill="#484f58" font-size="10">100µs</text>
<line x1="55" y1="170.9" x2="945" y2="170.9" stroke="#21262d"/>
<text x="47" y="174.858505604766" text-anchor="end" fill="#484f58" font-size="10">200µs</text>
<line x1="55" y1="158.6" x2="945" y2="158.6" stroke="#21262d"/>
<text x="47" y="162.60933389158697" text-anchor="end" fill="#484f58" font-size="10">500µs</text>
<line x1="55" y1="149.3" x2="945" y2="149.3" stroke="#21262d"/>
<text x="47" y="153.34319319864497" text-anchor="end" fill="#484f58" font-size="10">1ms</text>
<line x1="55" y1="140.1" x2="945" y2="140.1" stroke="#21262d"/>
<text x="47" y="144.077052505703" text-anchor="end" fill="#484f58" font-size="10">2ms</text>
<line x1="55" y1="127.8" x2="945" y2="127.8" stroke="#21262d"/>
<text x="47" y="131.82788079252396" text-anchor="end" fill="#484f58" font-size="10">5ms</text>
<line x1="55" y1="118.6" x2="945" y2="118.6" stroke="#21262d"/>
<text x="47" y="122.56174009958195" text-anchor="end" fill="#484f58" font-size="10">10ms</text>
<line x1="84.7" y1="115" x2="84.7" y2="430" stroke="#30363d" stroke-width="1" stroke-dasharray="4,4"/>
<line x1="114.3" y1="115" x2="114.3" y2="430" stroke="#30363d" stroke-width="1" stroke-dasharray="4,4"/>
<line x1="144.0" y1="115" x2="144.0" y2="430" stroke="#30363d" stroke-width="1" stroke-dasharray="4,4"/>
<line x1="173.7" y1="115" x2="173.7" y2="430" stroke="#30363d" stroke-width="1" stroke-dasharray="4,4"/>
<line x1="203.3" y1="115" x2="203.3" y2="430" stroke="#30363d" stroke-width="1" stroke-dasharray="4,4"/>
<line x1="233.0" y1="115" x2="233.0" y2="430" stroke="#30363d" stroke-width="1" stroke-dasharray="4,4"/>
<line x1="262.7" y1="115" x2="262.7" y2="430" stroke="#30363d" stroke-width="1" stroke-dasharray="4,4"/>
<line x1="292.3" y1="115" x2="292.3" y2="430" stroke="#30363d" stroke-width="1" stroke-dasharray="4,4"/>
<line x1="322.0" y1="115" x2="322.0" y2="430" stroke="#30363d" stroke-width="1" stroke-dasharray="4,4"/>
<line x1="351.7" y1="115" x2="351.7" y2="430" stroke="#30363d" stroke-width="1" stroke-dasharray="4,4"/>
<line x1="381.3" y1="115" x2="381.3" y2="430" stroke="#30363d" stroke-width="1" stroke-dasharray="4,4"/>
<line x1="411.0" y1="115" x2="411.0" y2="430" stroke="#30363d" stroke-width="1" stroke-dasharray="4,4"/>
<line x1="440.7" y1="115" x2="440.7" y2="430" stroke="#30363d" stroke-width="1" stroke-dasharray="4,4"/>
<line x1="470.3" y1="115" x2="470.3" y2="430" stroke="#30363d" stroke-width="1" stroke-dasharray="4,4"/>
<line x1="500.0" y1="115" x2="500.0" y2="430" stroke="#30363d" stroke-width="1" stroke-dasharray="4,4"/>
<line x1="529.7" y1="115" x2="529.7" y2="430" stroke="#30363d" stroke-width="1" stroke-dasharray="4,4"/>
<line x1="559.3" y1="115" x2="559.3" y2="430" stroke="#30363d" stroke-width="1" stroke-dasharray="4,4"/>
<line x1="589.0" y1="115" x2="589.0" y2="430" stroke="#30363d" stroke-width="1" stroke-dasharray="4,4"/>
<line x1="618.7" y1="115" x2="618.7" y2="430" stroke="#30363d" stroke-width="1" stroke-dasharray="4,4"/>
<line x1="648.3" y1="115" x2="648.3" y2="430" stroke="#30363d" stroke-width="1" stroke-dasharray="4,4"/>
<line x1="678.0" y1="115" x2="678.0" y2="430" stroke="#30363d" stroke-width="1" stroke-dasharray="4,4"/>
<line x1="707.7" y1="115" x2="707.7" y2="430" stroke="#30363d" stroke-width="1" stroke-dasharray="4,4"/>
<line x1="737.3" y1="115" x2="737.3" y2="430" stroke="#30363d" stroke-width="1" stroke-dasharray="4,4"/>
<line x1="767.0" y1="115" x2="767.0" y2="430" stroke="#30363d" stroke-width="1" stroke-dasharray="4,4"/>
<line x1="796.7" y1="115" x2="796.7" y2="430" stroke="#30363d" stroke-width="1" stroke-dasharray="4,4"/>
<line x1="826.3" y1="115" x2="826.3" y2="430" stroke="#30363d" stroke-width="1" stroke-dasharray="4,4"/>
<line x1="856.0" y1="115" x2="856.0" y2="430" stroke="#30363d" stroke-width="1" stroke-dasharray="4,4"/>
<line x1="885.7" y1="115" x2="885.7" y2="430" stroke="#30363d" stroke-width="1" stroke-dasharray="4,4"/>
<line x1="915.3" y1="115" x2="915.3" y2="430" stroke="#30363d" stroke-width="1" stroke-dasharray="4,4"/>
<path d="M69.8,141.6 L99.5,141.6 L129.2,141.6 L158.8,215.0 L188.5,407.5 L218.2,141.8 L247.8,141.8 L277.5,141.8 L307.2,213.7 L336.8,405.9 L366.5,150.2 L396.2,150.2 L425.8,150.2 L455.5,241.4 L485.2,425.2 L514.8,150.0 L544.5,149.9 L574.2,150.0 L603.8,208.3 L633.5,392.4 L663.2,150.6 L692.8,150.2 L722.5,150.1 L752.2,199.3 L781.8,383.1 L811.5,142.0 L841.2,141.8 L870.8,141.8 L900.5,203.0 L930.2,395.2" fill="none" stroke="#58a6ff" stroke-width="8" stroke-linejoin="round" stroke-linecap="round" opacity="0.12"/>
<path d="M69.8,141.6 L99.5,141.6 L129.2,141.6 L158.8,215.0 L188.5,407.5 L218.2,141.8 L247.8,141.8 L277.5,141.8 L307.2,213.7 L336.8,405.9 L366.5,150.2 L396.2,150.2 L425.8,150.2 L455.5,241.4 L485.2,425.2 L514.8,150.0 L544.5,149.9 L574.2,150.0 L603.8,208.3 L633.5,392.4 L663.2,150.6 L692.8,150.2 L722.5,150.1 L752.2,199.3 L781.8,383.1 L811.5,142.0 L841.2,141.8 L870.8,141.8 L900.5,203.0 L930.2,395.2" fill="none" stroke="#58a6ff" stroke-width="3.5" stroke-linejoin="round" stroke-linecap="round"/>
<circle cx="69.8" cy="141.6" r="6" fill="#58a6ff" opacity="0.2"/>
<circle cx="69.8" cy="141.6" r="4" fill="#58a6ff" stroke="#0d1117" stroke-width="2.5"/>
<circle cx="99.5" cy="141.6" r="6" fill="#58a6ff" opacity="0.2"/>
<circle cx="99.5" cy="141.6" r="4" fill="#58a6ff" stroke="#0d1117" stroke-width="2.5"/>
<circle cx="129.2" cy="141.6" r="6" fill="#58a6ff" opacity="0.2"/>
<circle cx="129.2" cy="141.6" r="4" fill="#58a6ff" stroke="#0d1117" stroke-width="2.5"/>
<circle cx="158.8" cy="215.0" r="6" fill="#58a6ff" opacity="0.2"/>
<circle cx="158.8" cy="215.0" r="4" fill="#58a6ff" stroke="#0d1117" stroke-width="2.5"/>
<circle cx="188.5" cy="407.5" r="6" fill="#58a6ff" opacity="0.2"/>
<circle cx="188.5" cy="407.5" r="4" fill="#58a6ff" stroke="#0d1117" stroke-width="2.5"/>
<circle cx="218.2" cy="141.8" r="6" fill="#58a6ff" opacity="0.2"/>
<circle cx="218.2" cy="141.8" r="4" fill="#58a6ff" stroke="#0d1117" stroke-width="2.5"/>
<circle cx="247.8" cy="141.8" r="6" fill="#58a6ff" opacity="0.2"/>
<circle cx="247.8" cy="141.8" r="4" fill="#58a6ff" stroke="#0d1117" stroke-width="2.5"/>
<circle cx="277.5" cy="141.8" r="6" fill="#58a6ff" opacity="0.2"/>
<circle cx="277.5" cy="141.8" r="4" fill="#58a6ff" stroke="#0d1117" stroke-width="2.5"/>
<circle cx="307.2" cy="213.7" r="6" fill="#58a6ff" opacity="0.2"/>
<circle cx="307.2" cy="213.7" r="4" fill="#58a6ff" stroke="#0d1117" stroke-width="2.5"/>
<circle cx="336.8" cy="405.9" r="6" fill="#58a6ff" opacity="0.2"/>
<circle cx="336.8" cy="405.9" r="4" fill="#58a6ff" stroke="#0d1117" stroke-width="2.5"/>
<circle cx="366.5" cy="150.2" r="6" fill="#58a6ff" opacity="0.2"/>
<circle cx="366.5" cy="150.2" r="4" fill="#58a6ff" stroke="#0d1117" stroke-width="2.5"/>
<circle cx="396.2" cy="150.2" r="6" fill="#58a6ff" opacity="0.2"/>
<circle cx="396.2" cy="150.2" r="4" fill="#58a6ff" stroke="#0d1117" stroke-width="2.5"/>
<circle cx="425.8" cy="150.2" r="6" fill="#58a6ff" opacity="0.2"/>
<circle cx="425.8" cy="150.2" r="4" fill="#58a6ff" stroke="#0d1117" stroke-width="2.5"/>
<circle cx="455.5" cy="241.4" r="6" fill="#58a6ff" opacity="0.2"/>
<circle cx="455.5" cy="241.4" r="4" fill="#58a6ff" stroke="#0d1117" stroke-width="2.5"/>
<circle cx="485.2" cy="425.2" r="6" fill="#58a6ff" opacity="0.2"/>
<circle cx="485.2" cy="425.2" r="4" fill="#58a6ff" stroke="#0d1117" stroke-width="2.5"/>
<circle cx="514.8" cy="150.0" r="6" fill="#58a6ff" opacity="0.2"/>
<circle cx="514.8" cy="150.0" r="4" fill="#58a6ff" stroke="#0d1117" stroke-width="2.5"/>
<circle cx="544.5" cy="149.9" r="6" fill="#58a6ff" opacity="0.2"/>
<circle cx="544.5" cy="149.9" r="4" fill="#58a6ff" stroke="#0d1117" stroke-width="2.5"/>
<circle cx="574.2" cy="150.0" r="6" fill="#58a6ff" opacity="0.2"/>
<circle cx="574.2" cy="150.0" r="4" fill="#58a6ff" stroke="#0d1117" stroke-width="2.5"/>
<circle cx="603.8" cy="208.3" r="6" fill="#58a6ff" opacity="0.2"/>
<circle cx="603.8" cy="208.3" r="4" fill="#58a6ff" stroke="#0d1117" stroke-width="2.5"/>
<circle cx="633.5" cy="392.4" r="6" fill="#58a6ff" opacity="0.2"/>
<circle cx="633.5" cy="392.4" r="4" fill="#58a6ff" stroke="#0d1117" stroke-width="2.5"/>
<circle cx="663.2" cy="150.6" r="6" fill="#58a6ff" opacity="0.2"/>
<circle cx="663.2" cy="150.6" r="4" fill="#58a6ff" stroke="#0d1117" stroke-width="2.5"/>
<circle cx="692.8" cy="150.2" r="6" fill="#58a6ff" opacity="0.2"/>
<circle cx="692.8" cy="150.2" r="4" fill="#58a6ff" stroke="#0d1117" stroke-width="2.5"/>
<circle cx="722.5" cy="150.1" r="6" fill="#58a6ff" opacity="0.2"/>
<circle cx="722.5" cy="150.1" r="4" fill="#58a6ff" stroke="#0d1117" stroke-width="2.5"/>
<circle cx="752.2" cy="199.3" r="6" fill="#58a6ff" opacity="0.2"/>
<circle cx="752.2" cy="199.3" r="4" fill="#58a6ff" stroke="#0d1117" stroke-width="2.5"/>
<circle cx="781.8" cy="383.1" r="6" fill="#58a6ff" opacity="0.2"/>
<circle cx="781.8" cy="383.1" r="4" fill="#58a6ff" stroke="#0d1117" stroke-width="2.5"/>
<circle cx="811.5" cy="142.0" r="6" fill="#58a6ff" opacity="0.2"/>
<circle cx="811.5" cy="142.0" r="4" fill="#58a6ff" stroke="#0d1117" stroke-width="2.5"/>
<circle cx="841.2" cy="141.8" r="6" fill="#58a6ff" opacity="0.2"/>
<circle cx="841.2" cy="141.8" r="4" fill="#58a6ff" stroke="#0d1117" stroke-width="2.5"/>
<circle cx="870.8" cy="141.8" r="6" fill="#58a6ff" opacity="0.2"/>
<circle cx="870.8" cy="141.8" r="4" fill="#58a6ff" stroke="#0d1117" stroke-width="2.5"/>
<circle cx="900.5" cy="203.0" r="6" fill="#58a6ff" opacity="0.2"/>
<circle cx="900.5" cy="203.0" r="4" fill="#58a6ff" stroke="#0d1117" stroke-width="2.5"/>
<circle cx="930.2" cy="395.2" r="6" fill="#58a6ff" opacity="0.2"/>
<circle cx="930.2" cy="395.2" r="4" fill="#58a6ff" stroke="#0d1117" stroke-width="2.5"/>
<path d="M69.8,121.2 L99.5,121.1 L129.2,121.2 L158.8,183.1 L188.5,396.0 L218.2,120.7 L247.8,120.5 L277.5,120.4 L307.2,175.0 L336.8,388.5 L366.5,129.3 L396.2,129.1 L425.8,129.0 L455.5,183.3 L485.2,388.2 L514.8,129.6 L544.5,129.3 L574.2,129.3 L603.8,182.2 L633.5,386.9 L663.2,150.7 L692.8,147.2 L722.5,146.7 L752.2,167.8 L781.8,354.6 L811.5,121.1 L841.2,121.2 L870.8,121.2 L900.5,208.0 L930.2,420.9" fill="none" stroke="#FF9800" stroke-width="8" stroke-linejoin="round" stroke-linecap="round" opacity="0.12"/>
<path d="M69.8,121.2 L99.5,121.1 L129.2,121.2 L158.8,183.1 L188.5,396.0 L218.2,120.7 L247.8,120.5 L277.5,120.4 L307.2,175.0 L336.8,388.5 L366.5,129.3 L396.2,129.1 L425.8,129.0 L455.5,183.3 L485.2,388.2 L514.8,129.6 L544.5,129.3 L574.2,129.3 L603.8,182.2 L633.5,386.9 L663.2,150.7 L692.8,147.2 L722.5,146.7 L752.2,167.8 L781.8,354.6 L811.5,121.1 L841.2,121.2 L870.8,121.2 L900.5,208.0 L930.2,420.9" fill="none" stroke="#FF9800" stroke-width="3.5" stroke-linejoin="round" stroke-linecap="round"/>
<circle cx="69.8" cy="121.2" r="6" fill="#FF9800" opacity="0.2"/>
<circle cx="69.8" cy="121.2" r="4" fill="#FF9800" stroke="#0d1117" stroke-width="2.5"/>
<circle cx="99.5" cy="121.1" r="6" fill="#FF9800" opacity="0.2"/>
<circle cx="99.5" cy="121.1" r="4" fill="#FF9800" stroke="#0d1117" stroke-width="2.5"/>
<circle cx="129.2" cy="121.2" r="6" fill="#FF9800" opacity="0.2"/>
<circle cx="129.2" cy="121.2" r="4" fill="#FF9800" stroke="#0d1117" stroke-width="2.5"/>
<circle cx="158.8" cy="183.1" r="6" fill="#FF9800" opacity="0.2"/>
<circle cx="158.8" cy="183.1" r="4" fill="#FF9800" stroke="#0d1117" stroke-width="2.5"/>
<circle cx="188.5" cy="396.0" r="6" fill="#FF9800" opacity="0.2"/>
<circle cx="188.5" cy="396.0" r="4" fill="#FF9800" stroke="#0d1117" stroke-width="2.5"/>
<circle cx="218.2" cy="120.7" r="6" fill="#FF9800" opacity="0.2"/>
<circle cx="218.2" cy="120.7" r="4" fill="#FF9800" stroke="#0d1117" stroke-width="2.5"/>
<circle cx="247.8" cy="120.5" r="6" fill="#FF9800" opacity="0.2"/>
<circle cx="247.8" cy="120.5" r="4" fill="#FF9800" stroke="#0d1117" stroke-width="2.5"/>
<circle cx="277.5" cy="120.4" r="6" fill="#FF9800" opacity="0.2"/>
<circle cx="277.5" cy="120.4" r="4" fill="#FF9800" stroke="#0d1117" stroke-width="2.5"/>
<circle cx="307.2" cy="175.0" r="6" fill="#FF9800" opacity="0.2"/>
<circle cx="307.2" cy="175.0" r="4" fill="#FF9800" stroke="#0d1117" stroke-width="2.5"/>
<circle cx="336.8" cy="388.5" r="6" fill="#FF9800" opacity="0.2"/>
<circle cx="336.8" cy="388.5" r="4" fill="#FF9800" stroke="#0d1117" stroke-width="2.5"/>
<circle cx="366.5" cy="129.3" r="6" fill="#FF9800" opacity="0.2"/>
<circle cx="366.5" cy="129.3" r="4" fill="#FF9800" stroke="#0d1117" stroke-width="2.5"/>
<circle cx="396.2" cy="129.1" r="6" fill="#FF9800" opacity="0.2"/>
<circle cx="396.2" cy="129.1" r="4" fill="#FF9800" stroke="#0d1117" stroke-width="2.5"/>
<circle cx="425.8" cy="129.0" r="6" fill="#FF9800" opacity="0.2"/>
<circle cx="425.8" cy="129.0" r="4" fill="#FF9800" stroke="#0d1117" stroke-width="2.5"/>
<circle cx="455.5" cy="183.3" r="6" fill="#FF9800" opacity="0.2"/>
<circle cx="455.5" cy="183.3" r="4" fill="#FF9800" stroke="#0d1117" stroke-width="2.5"/>
<circle cx="485.2" cy="388.2" r="6" fill="#FF9800" opacity="0.2"/>
<circle cx="485.2" cy="388.2" r="4" fill="#FF9800" stroke="#0d1117" stroke-width="2.5"/>
<circle cx="514.8" cy="129.6" r="6" fill="#FF9800" opacity="0.2"/>
<circle cx="514.8" cy="129.6" r="4" fill="#FF9800" stroke="#0d1117" stroke-width="2.5"/>
<circle cx="544.5" cy="129.3" r="6" fill="#FF9800" opacity="0.2"/>
<circle cx="544.5" cy="129.3" r="4" fill="#FF9800" stroke="#0d1117" stroke-width="2.5"/>
<circle cx="574.2" cy="129.3" r="6" fill="#FF9800" opacity="0.2"/>
<circle cx="574.2" cy="129.3" r="4" fill="#FF9800" stroke="#0d1117" stroke-width="2.5"/>
<circle cx="603.8" cy="182.2" r="6" fill="#FF9800" opacity="0.2"/>
<circle cx="603.8" cy="182.2" r="4" fill="#FF9800" stroke="#0d1117" stroke-width="2.5"/>
<circle cx="633.5" cy="386.9" r="6" fill="#FF9800" opacity="0.2"/>
<circle cx="633.5" cy="386.9" r="4" fill="#FF9800" stroke="#0d1117" stroke-width="2.5"/>
<circle cx="663.2" cy="150.7" r="6" fill="#FF9800" opacity="0.2"/>
<circle cx="663.2" cy="150.7" r="4" fill="#FF9800" stroke="#0d1117" stroke-width="2.5"/>
<circle cx="692.8" cy="147.2" r="6" fill="#FF9800" opacity="0.2"/>
<circle cx="692.8" cy="147.2" r="4" fill="#FF9800" stroke="#0d1117" stroke-width="2.5"/>
<circle cx="722.5" cy="146.7" r="6" fill="#FF9800" opacity="0.2"/>
<circle cx="722.5" cy="146.7" r="4" fill="#FF9800" stroke="#0d1117" stroke-width="2.5"/>
<circle cx="752.2" cy="167.8" r="6" fill="#FF9800" opacity="0.2"/>
<circle cx="752.2" cy="167.8" r="4" fill="#FF9800" stroke="#0d1117" stroke-width="2.5"/>
<circle cx="781.8" cy="354.6" r="6" fill="#FF9800" opacity="0.2"/>
<circle cx="781.8" cy="354.6" r="4" fill="#FF9800" stroke="#0d1117" stroke-width="2.5"/>
<circle cx="811.5" cy="121.1" r="6" fill="#FF9800" opacity="0.2"/>
<circle cx="811.5" cy="121.1" r="4" fill="#FF9800" stroke="#0d1117" stroke-width="2.5"/>
<circle cx="841.2" cy="121.2" r="6" fill="#FF9800" opacity="0.2"/>
<circle cx="841.2" cy="121.2" r="4" fill="#FF9800" stroke="#0d1117" stroke-width="2.5"/>
<circle cx="870.8" cy="121.2" r="6" fill="#FF9800" opacity="0.2"/>
<circle cx="870.8" cy="121.2" r="4" fill="#FF9800" stroke="#0d1117" stroke-width="2.5"/>
<circle cx="900.5" cy="208.0" r="6" fill="#FF9800" opacity="0.2"/>
<circle cx="900.5" cy="208.0" r="4" fill="#FF9800" stroke="#0d1117" stroke-width="2.5"/>
<circle cx="930.2" cy="420.9" r="6" fill="#FF9800" opacity="0.2"/>
<circle cx="930.2" cy="420.9" r="4" fill="#FF9800" stroke="#0d1117" stroke-width="2.5"/>
<path d="M69.8,120.8 L99.5,121.0 L129.2,121.1 L158.8,178.7 L188.5,391.7 L218.2,121.5 L247.8,121.5 L277.5,121.5 L307.2,201.3 L336.8,413.8 L366.5,129.4 L396.2,129.5 L425.8,129.5 L455.5,198.0 L485.2,402.5 L514.8,128.8 L544.5,127.2 L574.2,127.3 L603.8,156.2 L633.5,363.0 L663.2,150.0 L692.8,146.9 L722.5,150.0 L752.2,160.2 L781.8,347.4 L811.5,121.3 L841.2,121.0 L870.8,121.0 L900.5,176.9 L930.2,389.9" fill="none" stroke="#4CAF50" stroke-width="8" stroke-linejoin="round" stroke-linecap="round" opacity="0.12"/>
<path d="M69.8,120.8 L99.5,121.0 L129.2,121.1 L158.8,178.7 L188.5,391.7 L218.2,121.5 L247.8,121.5 L277.5,121.5 L307.2,201.3 L336.8,413.8 L366.5,129.4 L396.2,129.5 L425.8,129.5 L455.5,198.0 L485.2,402.5 L514.8,128.8 L544.5,127.2 L574.2,127.3 L603.8,156.2 L633.5,363.0 L663.2,150.0 L692.8,146.9 L722.5,150.0 L752.2,160.2 L781.8,347.4 L811.5,121.3 L841.2,121.0 L870.8,121.0 L900.5,176.9 L930.2,389.9" fill="none" stroke="#4CAF50" stroke-width="3.5" stroke-linejoin="round" stroke-linecap="round"/>
<circle cx="69.8" cy="120.8" r="6" fill="#4CAF50" opacity="0.2"/>
<circle cx="69.8" cy="120.8" r="4" fill="#4CAF50" stroke="#0d1117" stroke-width="2.5"/>
<circle cx="99.5" cy="121.0" r="6" fill="#4CAF50" opacity="0.2"/>
<circle cx="99.5" cy="121.0" r="4" fill="#4CAF50" stroke="#0d1117" stroke-width="2.5"/>
<circle cx="129.2" cy="121.1" r="6" fill="#4CAF50" opacity="0.2"/>
<circle cx="129.2" cy="121.1" r="4" fill="#4CAF50" stroke="#0d1117" stroke-width="2.5"/>
<circle cx="158.8" cy="178.7" r="6" fill="#4CAF50" opacity="0.2"/>
<circle cx="158.8" cy="178.7" r="4" fill="#4CAF50" stroke="#0d1117" stroke-width="2.5"/>
<circle cx="188.5" cy="391.7" r="6" fill="#4CAF50" opacity="0.2"/>
<circle cx="188.5" cy="391.7" r="4" fill="#4CAF50" stroke="#0d1117" stroke-width="2.5"/>
<circle cx="218.2" cy="121.5" r="6" fill="#4CAF50" opacity="0.2"/>
<circle cx="218.2" cy="121.5" r="4" fill="#4CAF50" stroke="#0d1117" stroke-width="2.5"/>
<circle cx="247.8" cy="121.5" r="6" fill="#4CAF50" opacity="0.2"/>
<circle cx="247.8" cy="121.5" r="4" fill="#4CAF50" stroke="#0d1117" stroke-width="2.5"/>
<circle cx="277.5" cy="121.5" r="6" fill="#4CAF50" opacity="0.2"/>
<circle cx="277.5" cy="121.5" r="4" fill="#4CAF50" stroke="#0d1117" stroke-width="2.5"/>
<circle cx="307.2" cy="201.3" r="6" fill="#4CAF50" opacity="0.2"/>
<circle cx="307.2" cy="201.3" r="4" fill="#4CAF50" stroke="#0d1117" stroke-width="2.5"/>
<circle cx="336.8" cy="413.8" r="6" fill="#4CAF50" opacity="0.2"/>
<circle cx="336.8" cy="413.8" r="4" fill="#4CAF50" stroke="#0d1117" stroke-width="2.5"/>
<circle cx="366.5" cy="129.4" r="6" fill="#4CAF50" opacity="0.2"/>
<circle cx="366.5" cy="129.4" r="4" fill="#4CAF50" stroke="#0d1117" stroke-width="2.5"/>
<circle cx="396.2" cy="129.5" r="6" fill="#4CAF50" opacity="0.2"/>
<circle cx="396.2" cy="129.5" r="4" fill="#4CAF50" stroke="#0d1117" stroke-width="2.5"/>
<circle cx="425.8" cy="129.5" r="6" fill="#4CAF50" opacity="0.2"/>
<circle cx="425.8" cy="129.5" r="4" fill="#4CAF50" stroke="#0d1117" stroke-width="2.5"/>
<circle cx="455.5" cy="198.0" r="6" fill="#4CAF50" opacity="0.2"/>
<circle cx="455.5" cy="198.0" r="4" fill="#4CAF50" stroke="#0d1117" stroke-width="2.5"/>
<circle cx="485.2" cy="402.5" r="6" fill="#4CAF50" opacity="0.2"/>
<circle cx="485.2" cy="402.5" r="4" fill="#4CAF50" stroke="#0d1117" stroke-width="2.5"/>
<circle cx="514.8" cy="128.8" r="6" fill="#4CAF50" opacity="0.2"/>
<circle cx="514.8" cy="128.8" r="4" fill="#4CAF50" stroke="#0d1117" stroke-width="2.5"/>
<circle cx="544.5" cy="127.2" r="6" fill="#4CAF50" opacity="0.2"/>
<circle cx="544.5" cy="127.2" r="4" fill="#4CAF50" stroke="#0d1117" stroke-width="2.5"/>
<circle cx="574.2" cy="127.3" r="6" fill="#4CAF50" opacity="0.2"/>
<circle cx="574.2" cy="127.3" r="4" fill="#4CAF50" stroke="#0d1117" stroke-width="2.5"/>
<circle cx="603.8" cy="156.2" r="6" fill="#4CAF50" opacity="0.2"/>
<circle cx="603.8" cy="156.2" r="4" fill="#4CAF50" stroke="#0d1117" stroke-width="2.5"/>
<circle cx="633.5" cy="363.0" r="6" fill="#4CAF50" opacity="0.2"/>
<circle cx="633.5" cy="363.0" r="4" fill="#4CAF50" stroke="#0d1117" stroke-width="2.5"/>
<circle cx="663.2" cy="150.0" r="6" fill="#4CAF50" opacity="0.2"/>
<circle cx="663.2" cy="150.0" r="4" fill="#4CAF50" stroke="#0d1117" stroke-width="2.5"/>
<circle cx="692.8" cy="146.9" r="6" fill="#4CAF50" opacity="0.2"/>
<circle cx="692.8" cy="146.9" r="4" fill="#4CAF50" stroke="#0d1117" stroke-width="2.5"/>
<circle cx="722.5" cy="150.0" r="6" fill="#4CAF50" opacity="0.2"/>
<circle cx="722.5" cy="150.0" r="4" fill="#4CAF50" stroke="#0d1117" stroke-width="2.5"/>
<circle cx="752.2" cy="160.2" r="6" fill="#4CAF50" opacity="0.2"/>
<circle cx="752.2" cy="160.2" r="4" fill="#4CAF50" stroke="#0d1117" stroke-width="2.5"/>
<circle cx="781.8" cy="347.4" r="6" fill="#4CAF50" opacity="0.2"/>
<circle cx="781.8" cy="347.4" r="4" fill="#4CAF50" stroke="#0d1117" stroke-width="2.5"/>
<circle cx="811.5" cy="121.3" r="6" fill="#4CAF50" opacity="0.2"/>
<circle cx="811.5" cy="121.3" r="4" fill="#4CAF50" stroke="#0d1117" stroke-width="2.5"/>
<circle cx="841.2" cy="121.0" r="6" fill="#4CAF50" opacity="0.2"/>
<circle cx="841.2" cy="121.0" r="4" fill="#4CAF50" stroke="#0d1117" stroke-width="2.5"/>
<circle cx="870.8" cy="121.0" r="6" fill="#4CAF50" opacity="0.2"/>
<circle cx="870.8" cy="121.0" r="4" fill="#4CAF50" stroke="#0d1117" stroke-width="2.5"/>
<circle cx="900.5" cy="176.9" r="6" fill="#4CAF50" opacity="0.2"/>
<circle cx="900.5" cy="176.9" r="4" fill="#4CAF50" stroke="#0d1117" stroke-width="2.5"/>
<circle cx="930.2" cy="389.9" r="6" fill="#4CAF50" opacity="0.2"/>
<circle cx="930.2" cy="389.9" r="4" fill="#4CAF50" stroke="#0d1117" stroke-width="2.5"/>
<path d="M69.8,122.2 L99.5,122.1 L129.2,122.2 L158.8,187.2 L188.5,399.1 L218.2,121.1 L247.8,120.9 L277.5,121.0 L307.2,174.0 L336.8,387.1 L366.5,130.3 L396.2,130.2 L425.8,130.2 L455.5,206.2 L485.2,410.0 L514.8,130.6 L544.5,130.6 L574.2,130.6 L603.8,208.1 L633.5,411.5 L663.2,150.8 L692.8,147.1 L722.5,146.5 L752.2,167.5 L781.8,354.4 L811.5,122.2 L841.2,122.3 L870.8,122.2 L900.5,193.0 L930.2,404.8" fill="none" stroke="#BB86FC" stroke-width="8" stroke-linejoin="round" stroke-linecap="round" opacity="0.12"/>
<path d="M69.8,122.2 L99.5,122.1 L129.2,122.2 L158.8,187.2 L188.5,399.1 L218.2,121.1 L247.8,120.9 L277.5,121.0 L307.2,174.0 L336.8,387.1 L366.5,130.3 L396.2,130.2 L425.8,130.2 L455.5,206.2 L485.2,410.0 L514.8,130.6 L544.5,130.6 L574.2,130.6 L603.8,208.1 L633.5,411.5 L663.2,150.8 L692.8,147.1 L722.5,146.5 L752.2,167.5 L781.8,354.4 L811.5,122.2 L841.2,122.3 L870.8,122.2 L900.5,193.0 L930.2,404.8" fill="none" stroke="#BB86FC" stroke-width="3.5" stroke-linejoin="round" stroke-linecap="round"/>
<circle cx="69.8" cy="122.2" r="6" fill="#BB86FC" opacity="0.2"/>
<circle cx="69.8" cy="122.2" r="4" fill="#BB86FC" stroke="#0d1117" stroke-width="2.5"/>
<circle cx="99.5" cy="122.1" r="6" fill="#BB86FC" opacity="0.2"/>
<circle cx="99.5" cy="122.1" r="4" fill="#BB86FC" stroke="#0d1117" stroke-width="2.5"/>
<circle cx="129.2" cy="122.2" r="6" fill="#BB86FC" opacity="0.2"/>
<circle cx="129.2" cy="122.2" r="4" fill="#BB86FC" stroke="#0d1117" stroke-width="2.5"/>
<circle cx="158.8" cy="187.2" r="6" fill="#BB86FC" opacity="0.2"/>
<circle cx="158.8" cy="187.2" r="4" fill="#BB86FC" stroke="#0d1117" stroke-width="2.5"/>
<circle cx="188.5" cy="399.1" r="6" fill="#BB86FC" opacity="0.2"/>
<circle cx="188.5" cy="399.1" r="4" fill="#BB86FC" stroke="#0d1117" stroke-width="2.5"/>
<circle cx="218.2" cy="121.1" r="6" fill="#BB86FC" opacity="0.2"/>
<circle cx="218.2" cy="121.1" r="4" fill="#BB86FC" stroke="#0d1117" stroke-width="2.5"/>
<circle cx="247.8" cy="120.9" r="6" fill="#BB86FC" opacity="0.2"/>
<circle cx="247.8" cy="120.9" r="4" fill="#BB86FC" stroke="#0d1117" stroke-width="2.5"/>
<circle cx="277.5" cy="121.0" r="6" fill="#BB86FC" opacity="0.2"/>
<circle cx="277.5" cy="121.0" r="4" fill="#BB86FC" stroke="#0d1117" stroke-width="2.5"/>
<circle cx="307.2" cy="174.0" r="6" fill="#BB86FC" opacity="0.2"/>
<circle cx="307.2" cy="174.0" r="4" fill="#BB86FC" stroke="#0d1117" stroke-width="2.5"/>
<circle cx="336.8" cy="387.1" r="6" fill="#BB86FC" opacity="0.2"/>
<circle cx="336.8" cy="387.1" r="4" fill="#BB86FC" stroke="#0d1117" stroke-width="2.5"/>
<circle cx="366.5" cy="130.3" r="6" fill="#BB86FC" opacity="0.2"/>
<circle cx="366.5" cy="130.3" r="4" fill="#BB86FC" stroke="#0d1117" stroke-width="2.5"/>
<circle cx="396.2" cy="130.2" r="6" fill="#BB86FC" opacity="0.2"/>
<circle cx="396.2" cy="130.2" r="4" fill="#BB86FC" stroke="#0d1117" stroke-width="2.5"/>
<circle cx="425.8" cy="130.2" r="6" fill="#BB86FC" opacity="0.2"/>
<circle cx="425.8" cy="130.2" r="4" fill="#BB86FC" stroke="#0d1117" stroke-width="2.5"/>
<circle cx="455.5" cy="206.2" r="6" fill="#BB86FC" opacity="0.2"/>
<circle cx="455.5" cy="206.2" r="4" fill="#BB86FC" stroke="#0d1117" stroke-width="2.5"/>
<circle cx="485.2" cy="410.0" r="6" fill="#BB86FC" opacity="0.2"/>
<circle cx="485.2" cy="410.0" r="4" fill="#BB86FC" stroke="#0d1117" stroke-width="2.5"/>
<circle cx="514.8" cy="130.6" r="6" fill="#BB86FC" opacity="0.2"/>
<circle cx="514.8" cy="130.6" r="4" fill="#BB86FC" stroke="#0d1117" stroke-width="2.5"/>
<circle cx="544.5" cy="130.6" r="6" fill="#BB86FC" opacity="0.2"/>
<circle cx="544.5" cy="130.6" r="4" fill="#BB86FC" stroke="#0d1117" stroke-width="2.5"/>
<circle cx="574.2" cy="130.6" r="6" fill="#BB86FC" opacity="0.2"/>
<circle cx="574.2" cy="130.6" r="4" fill="#BB86FC" stroke="#0d1117" stroke-width="2.5"/>
<circle cx="603.8" cy="208.1" r="6" fill="#BB86FC" opacity="0.2"/>
<circle cx="603.8" cy="208.1" r="4" fill="#BB86FC" stroke="#0d1117" stroke-width="2.5"/>
<circle cx="633.5" cy="411.5" r="6" fill="#BB86FC" opacity="0.2"/>
<circle cx="633.5" cy="411.5" r="4" fill="#BB86FC" stroke="#0d1117" stroke-width="2.5"/>
<circle cx="663.2" cy="150.8" r="6" fill="#BB86FC" opacity="0.2"/>
<circle cx="663.2" cy="150.8" r="4" fill="#BB86FC" stroke="#0d1117" stroke-width="2.5"/>
<circle cx="692.8" cy="147.1" r="6" fill="#BB86FC" opacity="0.2"/>
<circle cx="692.8" cy="147.1" r="4" fill="#BB86FC" stroke="#0d1117" stroke-width="2.5"/>
<circle cx="722.5" cy="146.5" r="6" fill="#BB86FC" opacity="0.2"/>
<circle cx="722.5" cy="146.5" r="4" fill="#BB86FC" stroke="#0d1117" stroke-width="2.5"/>
<circle cx="752.2" cy="167.5" r="6" fill="#BB86FC" opacity="0.2"/>
<circle cx="752.2" cy="167.5" r="4" fill="#BB86FC" stroke="#0d1117" stroke-width="2.5"/>
<circle cx="781.8" cy="354.4" r="6" fill="#BB86FC" opacity="0.2"/>
<circle cx="781.8" cy="354.4" r="4" fill="#BB86FC" stroke="#0d1117" stroke-width="2.5"/>
<circle cx="811.5" cy="122.2" r="6" fill="#BB86FC" opacity="0.2"/>
<circle cx="811.5" cy="122.2" r="4" fill="#BB86FC" stroke="#0d1117" stroke-width="2.5"/>
<circle cx="841.2" cy="122.3" r="6" fill="#BB86FC" opacity="0.2"/>
<circle cx="841.2" cy="122.3" r="4" fill="#BB86FC" stroke="#0d1117" stroke-width="2.5"/>
<circle cx="870.8" cy="122.2" r="6" fill="#BB86FC" opacity="0.2"/>
<circle cx="870.8" cy="122.2" r="4" fill="#BB86FC" stroke="#0d1117" stroke-width="2.5"/>
<circle cx="900.5" cy="193.0" r="6" fill="#BB86FC" opacity="0.2"/>
<circle cx="900.5" cy="193.0" r="4" fill="#BB86FC" stroke="#0d1117" stroke-width="2.5"/>
<circle cx="930.2" cy="404.8" r="6" fill="#BB86FC" opacity="0.2"/>
<circle cx="930.2" cy="404.8" r="4" fill="#BB86FC" stroke="#0d1117" stroke-width="2.5"/>
<path d="M69.8,121.8 L99.5,121.7 L129.2,121.7 L158.8,181.6 L188.5,393.9 L218.2,121.1 L247.8,120.5 L277.5,120.8 L307.2,159.1 L336.8,372.6 L366.5,130.0 L396.2,130.0 L425.8,130.0 L455.5,210.2 L485.2,414.2 L514.8,130.2 L544.5,130.2 L574.2,130.2 L603.8,205.8 L633.5,409.7 L663.2,150.8 L692.8,147.1 L722.5,146.5 L752.2,167.4 L781.8,354.3 L811.5,121.8 L841.2,121.6 L870.8,121.8 L900.5,173.2 L930.2,385.6" fill="none" stroke="#F472B6" stroke-width="8" stroke-linejoin="round" stroke-linecap="round" opacity="0.12"/>
<path d="M69.8,121.8 L99.5,121.7 L129.2,121.7 L158.8,181.6 L188.5,393.9 L218.2,121.1 L247.8,120.5 L277.5,120.8 L307.2,159.1 L336.8,372.6 L366.5,130.0 L396.2,130.0 L425.8,130.0 L455.5,210.2 L485.2,414.2 L514.8,130.2 L544.5,130.2 L574.2,130.2 L603.8,205.8 L633.5,409.7 L663.2,150.8 L692.8,147.1 L722.5,146.5 L752.2,167.4 L781.8,354.3 L811.5,121.8 L841.2,121.6 L870.8,121.8 L900.5,173.2 L930.2,385.6" fill="none" stroke="#F472B6" stroke-width="3.5" stroke-linejoin="round" stroke-linecap="round"/>
<circle cx="69.8" cy="121.8" r="6" fill="#F472B6" opacity="0.2"/>
<circle cx="69.8" cy="121.8" r="4" fill="#F472B6" stroke="#0d1117" stroke-width="2.5"/>
<circle cx="99.5" cy="121.7" r="6" fill="#F472B6" opacity="0.2"/>
<circle cx="99.5" cy="121.7" r="4" fill="#F472B6" stroke="#0d1117" stroke-width="2.5"/>
<circle cx="129.2" cy="121.7" r="6" fill="#F472B6" opacity="0.2"/>
<circle cx="129.2" cy="121.7" r="4" fill="#F472B6" stroke="#0d1117" stroke-width="2.5"/>
<circle cx="158.8" cy="181.6" r="6" fill="#F472B6" opacity="0.2"/>
<circle cx="158.8" cy="181.6" r="4" fill="#F472B6" stroke="#0d1117" stroke-width="2.5"/>
<circle cx="188.5" cy="393.9" r="6" fill="#F472B6" opacity="0.2"/>
<circle cx="188.5" cy="393.9" r="4" fill="#F472B6" stroke="#0d1117" stroke-width="2.5"/>
<circle cx="218.2" cy="121.1" r="6" fill="#F472B6" opacity="0.2"/>
<circle cx="218.2" cy="121.1" r="4" fill="#F472B6" stroke="#0d1117" stroke-width="2.5"/>
<circle cx="247.8" cy="120.5" r="6" fill="#F472B6" opacity="0.2"/>
<circle cx="247.8" cy="120.5" r="4" fill="#F472B6" stroke="#0d1117" stroke-width="2.5"/>
<circle cx="277.5" cy="120.8" r="6" fill="#F472B6" opacity="0.2"/>
<circle cx="277.5" cy="120.8" r="4" fill="#F472B6" stroke="#0d1117" stroke-width="2.5"/>
<circle cx="307.2" cy="159.1" r="6" fill="#F472B6" opacity="0.2"/>
<circle cx="307.2" cy="159.1" r="4" fill="#F472B6" stroke="#0d1117" stroke-width="2.5"/>
<circle cx="336.8" cy="372.6" r="6" fill="#F472B6" opacity="0.2"/>
<circle cx="336.8" cy="372.6" r="4" fill="#F472B6" stroke="#0d1117" stroke-width="2.5"/>
<circle cx="366.5" cy="130.0" r="6" fill="#F472B6" opacity="0.2"/>
<circle cx="366.5" cy="130.0" r="4" fill="#F472B6" stroke="#0d1117" stroke-width="2.5"/>
<circle cx="396.2" cy="130.0" r="6" fill="#F472B6" opacity="0.2"/>
<circle cx="396.2" cy="130.0" r="4" fill="#F472B6" stroke="#0d1117" stroke-width="2.5"/>
<circle cx="425.8" cy="130.0" r="6" fill="#F472B6" opacity="0.2"/>
<circle cx="425.8" cy="130.0" r="4" fill="#F472B6" stroke="#0d1117" stroke-width="2.5"/>
<circle cx="455.5" cy="210.2" r="6" fill="#F472B6" opacity="0.2"/>
<circle cx="455.5" cy="210.2" r="4" fill="#F472B6" stroke="#0d1117" stroke-width="2.5"/>
<circle cx="485.2" cy="414.2" r="6" fill="#F472B6" opacity="0.2"/>
<circle cx="485.2" cy="414.2" r="4" fill="#F472B6" stroke="#0d1117" stroke-width="2.5"/>
<circle cx="514.8" cy="130.2" r="6" fill="#F472B6" opacity="0.2"/>
<circle cx="514.8" cy="130.2" r="4" fill="#F472B6" stroke="#0d1117" stroke-width="2.5"/>
<circle cx="544.5" cy="130.2" r="6" fill="#F472B6" opacity="0.2"/>
<circle cx="544.5" cy="130.2" r="4" fill="#F472B6" stroke="#0d1117" stroke-width="2.5"/>
<circle cx="574.2" cy="130.2" r="6" fill="#F472B6" opacity="0.2"/>
<circle cx="574.2" cy="130.2" r="4" fill="#F472B6" stroke="#0d1117" stroke-width="2.5"/>
<circle cx="603.8" cy="205.8" r="6" fill="#F472B6" opacity="0.2"/>
<circle cx="603.8" cy="205.8" r="4" fill="#F472B6" stroke="#0d1117" stroke-width="2.5"/>
<circle cx="633.5" cy="409.7" r="6" fill="#F472B6" opacity="0.2"/>
<circle cx="633.5" cy="409.7" r="4" fill="#F472B6" stroke="#0d1117" stroke-width="2.5"/>
<circle cx="663.2" cy="150.8" r="6" fill="#F472B6" opacity="0.2"/>
<circle cx="663.2" cy="150.8" r="4" fill="#F472B6" stroke="#0d1117" stroke-width="2.5"/>
<circle cx="692.8" cy="147.1" r="6" fill="#F472B6" opacity="0.2"/>
<circle cx="692.8" cy="147.1" r="4" fill="#F472B6" stroke="#0d1117" stroke-width="2.5"/>
<circle cx="722.5" cy="146.5" r="6" fill="#F472B6" opacity="0.2"/>
<circle cx="722.5" cy="146.5" r="4" fill="#F472B6" stroke="#0d1117" stroke-width="2.5"/>
<circle cx="752.2" cy="167.4" r="6" fill="#F472B6" opacity="0.2"/>
<circle cx="752.2" cy="167.4" r="4" fill="#F472B6" stroke="#0d1117" stroke-width="2.5"/>
<circle cx="781.8" cy="354.3" r="6" fill="#F472B6" opacity="0.2"/>
<circle cx="781.8" cy="354.3" r="4" fill="#F472B6" stroke="#0d1117" stroke-width="2.5"/>
<circle cx="811.5" cy="121.8" r="6" fill="#F472B6" opacity="0.2"/>
<circle cx="811.5" cy="121.8" r="4" fill="#F472B6" stroke="#0d1117" stroke-width="2.5"/>
<circle cx="841.2" cy="121.6" r="6" fill="#F472B6" opacity="0.2"/>
<circle cx="841.2" cy="121.6" r="4" fill="#F472B6" stroke="#0d1117" stroke-width="2.5"/>
<circle cx="870.8" cy="121.8" r="6" fill="#F472B6" opacity="0.2"/>
<circle cx="870.8" cy="121.8" r="4" fill="#F472B6" stroke="#0d1117" stroke-width="2.5"/>
<circle cx="900.5" cy="173.2" r="6" fill="#F472B6" opacity="0.2"/>
<circle cx="900.5" cy="173.2" r="4" fill="#F472B6" stroke="#0d1117" stroke-width="2.5"/>
<circle cx="930.2" cy="385.6" r="6" fill="#F472B6" opacity="0.2"/>
<circle cx="930.2" cy="385.6" r="4" fill="#F472B6" stroke="#0d1117" stroke-width="2.5"/>
<text x="69.8" y="448" text-anchor="end" fill="#8b949e" font-size="11" transform="rotate(-30,69.8,448)">push_back</text>
<text x="99.5" y="448" text-anchor="end" fill="#8b949e" font-size="11" transform="rotate(-30,99.5,448)">push_back_mean</text>
<text x="129.2" y="448" text-anchor="end" fill="#8b949e" font-size="11" transform="rotate(-30,129.2,448)">push_back_median</text>
<text x="158.8" y="448" text-anchor="end" fill="#8b949e" font-size="11" transform="rotate(-30,158.8,448)">push_back_stddev</text>
<text x="188.5" y="448" text-anchor="end" fill="#8b949e" font-size="11" transform="rotate(-30,188.5,448)">push_back_cv</text>
<text x="218.2" y="448" text-anchor="end" fill="#8b949e" font-size="11" transform="rotate(-30,218.2,448)">push_front</text>
<text x="247.8" y="448" text-anchor="end" fill="#8b949e" font-size="11" transform="rotate(-30,247.8,448)">push_front_mean</text>
<text x="277.5" y="448" text-anchor="end" fill="#8b949e" font-size="11" transform="rotate(-30,277.5,448)">push_front_median</text>
<text x="307.2" y="448" text-anchor="end" fill="#8b949e" font-size="11" transform="rotate(-30,307.2,448)">push_front_stddev</text>
<text x="336.8" y="448" text-anchor="end" fill="#8b949e" font-size="11" transform="rotate(-30,336.8,448)">push_front_cv</text>
<text x="366.5" y="448" text-anchor="end" fill="#8b949e" font-size="11" transform="rotate(-30,366.5,448)">insert_middle</text>
<text x="396.2" y="448" text-anchor="end" fill="#8b949e" font-size="11" transform="rotate(-30,396.2,448)">insert_middle_mean</text>
<text x="425.8" y="448" text-anchor="end" fill="#8b949e" font-size="11" transform="rotate(-30,425.8,448)">insert_middle_median</text>
<text x="455.5" y="448" text-anchor="end" fill="#8b949e" font-size="11" transform="rotate(-30,455.5,448)">insert_middle_stddev</text>
<text x="485.2" y="448" text-anchor="end" fill="#8b949e" font-size="11" transform="rotate(-30,485.2,448)">insert_middle_cv</text>
<text x="514.8" y="448" text-anchor="end" fill="#8b949e" font-size="11" transform="rotate(-30,514.8,448)">erase_middle</text>
<text x="544.5" y="448" text-anchor="end" fill="#8b949e" font-size="11" transform="rotate(-30,544.5,448)">erase_middle_mean</text>
<text x="574.2" y="448" text-anchor="end" fill="#8b949e" font-size="11" transform="rotate(-30,574.2,448)">erase_middle_median</text>
<text x="603.8" y="448" text-anchor="end" fill="#8b949e" font-size="11" transform="rotate(-30,603.8,448)">erase_middle_stddev</text>
<text x="633.5" y="448" text-anchor="end" fill="#8b949e" font-size="11" transform="rotate(-30,633.5,448)">erase_middle_cv</text>
<text x="663.2" y="448" text-anchor="end" fill="#8b949e" font-size="11" transform="rotate(-30,663.2,448)">iterate</text>
<text x="692.8" y="448" text-anchor="end" fill="#8b949e" font-size="11" transform="rotate(-30,692.8,448)">iterate_mean</text>
<text x="722.5" y="448" text-anchor="end" fill="#8b949e" font-size="11" transform="rotate(-30,722.5,448)">iterate_median</text>
<text x="752.2" y="448" text-anchor="end" fill="#8b949e" font-size="11" transform="rotate(-30,752.2,448)">iterate_stddev</text>
<text x="781.8" y="448" text-anchor="end" fill="#8b949e" font-size="11" transform="rotate(-30,781.8,448)">iterate_cv</text>
<text x="811.5" y="448" text-anchor="end" fill="#8b949e" font-size="11" transform="rotate(-30,811.5,448)">clear</text>
<text x="841.2" y="448" text-anchor="end" fill="#8b949e" font-size="11" transform="rotate(-30,841.2,448)">clear_mean</text>
<text x="870.8" y="448" text-anchor="end" fill="#8b949e" font-size="11" transform="rotate(-30,870.8,448)">clear_median</text>
<text x="900.5" y="448" text-anchor="end" fill="#8b949e" font-size="11" transform="rotate(-30,900.5,448)">clear_stddev</text>
<text x="930.2" y="448" text-anchor="end" fill="#8b949e" font-size="11" transform="rotate(-30,930.2,448)">clear_cv</text>
<text x="14" y="272.5" text-anchor="middle" fill="#484f58" font-size="11" transform="rotate(-90,14,272.5)">Time (ms)</text>
<circle cx="65" cy="69" r="5" fill="#58a6ff"/>
<text x="75" y="73" fill="#c9d1d9" font-size="12">RG::LIST</text>
<circle cx="220" cy="69" r="5" fill="#FF9800"/>
<text x="230" y="73" fill="#c9d1d9" font-size="12">std::list</text>
<circle cx="375" cy="69" r="5" fill="#4CAF50"/>
<text x="385" y="73" fill="#c9d1d9" font-size="12">std::forward_list</text>
<circle cx="530" cy="69" r="5" fill="#BB86FC"/>
<text x="540" y="73" fill="#c9d1d9" font-size="12">boost::list</text>
<circle cx="685" cy="69" r="5" fill="#F472B6"/>
<text x="695" y="73" fill="#c9d1d9" font-size="12">eastl::list</text>
<text x="480.0" y="20" text-anchor="middle" fill="#58a6ff" font-size="15" font-weight="700">RG::LIST Benchmark — 2026-04-14</text>
</svg>