<svg xmlns="http://www.w3.org/2000/svg" viewBox="0 0 960 500" font-family="-apple-system,BlinkMacSystemFont,Segoe UI,sans-serif">
<rect width="960" height="500" rx="10" fill="#0d1117"/>
<rect x="55" y="115" width="890" height="315" fill="#161b22" rx="4"/>
<line x1="55" y1="420.5" x2="945" y2="420.5" stroke="#21262d"/>
<text x="47" y="424.5497889559298" text-anchor="end" fill="#484f58" font-size="10">0µs</text>
<line x1="55" y1="411.8" x2="945" y2="411.8" stroke="#21262d"/>
<text x="47" y="415.75149808214576" text-anchor="end" fill="#484f58" font-size="10">0µs</text>
<line x1="55" y1="403.0" x2="945" y2="403.0" stroke="#21262d"/>
<text x="47" y="406.95320720836173" text-anchor="end" fill="#484f58" font-size="10">0µs</text>
<line x1="55" y1="391.3" x2="945" y2="391.3" stroke="#21262d"/>
<text x="47" y="395.3224993153155" text-anchor="end" fill="#484f58" font-size="10">0µs</text>
<line x1="55" y1="382.5" x2="945" y2="382.5" stroke="#21262d"/>
<text x="47" y="386.5242084415315" text-anchor="end" fill="#484f58" font-size="10">0µs</text>
<line x1="55" y1="373.7" x2="945" y2="373.7" stroke="#21262d"/>
<text x="47" y="377.72591756774744" text-anchor="end" fill="#484f58" font-size="10">0µs</text>
<line x1="55" y1="362.1" x2="945" y2="362.1" stroke="#21262d"/>
<text x="47" y="366.0952096747013" text-anchor="end" fill="#484f58" font-size="10">0µs</text>
<line x1="55" y1="353.3" x2="945" y2="353.3" stroke="#21262d"/>
<text x="47" y="357.29691880091724" text-anchor="end" fill="#484f58" font-size="10">0µs</text>
<line x1="55" y1="344.5" x2="945" y2="344.5" stroke="#21262d"/>
<text x="47" y="348.4986279271332" text-anchor="end" fill="#484f58" font-size="10">0µs</text>
<line x1="55" y1="332.9" x2="945" y2="332.9" stroke="#21262d"/>
<text x="47" y="336.867920034087" text-anchor="end" fill="#484f58" font-size="10">0µs</text>
<line x1="55" y1="324.1" x2="945" y2="324.1" stroke="#21262d"/>
<text x="47" y="328.06962916030295" text-anchor="end" fill="#484f58" font-size="10">0µs</text>
<line x1="55" y1="315.3" x2="945" y2="315.3" stroke="#21262d"/>
<text x="47" y="319.2713382865189" text-anchor="end" fill="#484f58" font-size="10">0µs</text>
<line x1="55" y1="303.6" x2="945" y2="303.6" stroke="#21262d"/>
<text x="47" y="307.64063039347275" text-anchor="end" fill="#484f58" font-size="10">0µs</text>
<line x1="55" y1="294.8" x2="945" y2="294.8" stroke="#21262d"/>
<text x="47" y="298.8423395196887" text-anchor="end" fill="#484f58" font-size="10">0µs</text>
<line x1="55" y1="286.0" x2="945" y2="286.0" stroke="#21262d"/>
<text x="47" y="290.0440486459047" text-anchor="end" fill="#484f58" font-size="10">0µs</text>
<line x1="55" y1="274.4" x2="945" y2="274.4" stroke="#21262d"/>
<text x="47" y="278.4133407528585" text-anchor="end" fill="#484f58" font-size="10">0µs</text>
<line x1="55" y1="265.6" x2="945" y2="265.6" stroke="#21262d"/>
<text x="47" y="269.6150498790745" text-anchor="end" fill="#484f58" font-size="10">0µs</text>
<line x1="55" y1="256.8" x2="945" y2="256.8" stroke="#21262d"/>
<text x="47" y="260.81675900529046" text-anchor="end" fill="#484f58" font-size="10">0µs</text>
<line x1="55" y1="245.2" x2="945" y2="245.2" stroke="#21262d"/>
<text x="47" y="249.18605111224423" text-anchor="end" fill="#484f58" font-size="10">0µs</text>
<line x1="55" y1="236.4" x2="945" y2="236.4" stroke="#21262d"/>
<text x="47" y="240.3877602384602" text-anchor="end" fill="#484f58" font-size="10">1µs</text>
<line x1="55" y1="227.6" x2="945" y2="227.6" stroke="#21262d"/>
<text x="47" y="231.58946936467618" text-anchor="end" fill="#484f58" font-size="10">2µs</text>
<line x1="55" y1="216.0" x2="945" y2="216.0" stroke="#21262d"/>
<text x="47" y="219.95876147162994" text-anchor="end" fill="#484f58" font-size="10">5µs</text>
<line x1="55" y1="207.2" x2="945" y2="207.2" stroke="#21262d"/>
<text x="47" y="211.16047059784594" text-anchor="end" fill="#484f58" font-size="10">10µs</text>
<line x1="55" y1="198.4" x2="945" y2="198.4" stroke="#21262d"/>
<text x="47" y="202.3621797240619" text-anchor="end" fill="#484f58" font-size="10">20µs</text>
<line x1="55" y1="186.7" x2="945" y2="186.7" stroke="#21262d"/>
<text x="47" y="190.7314718310157" text-anchor="end" fill="#484f58" font-size="10">50µs</text>
<line x1="55" y1="177.9" x2="945" y2="177.9" stroke="#21262d"/>
<text x="47" y="181.93318095723168" text-anchor="end" fill="#484f58" font-size="10">100µs</text>
<line x1="55" y1="169.1" x2="945" y2="169.1" stroke="#21262d"/>
<text x="47" y="173.13489008344766" text-anchor="end" fill="#484f58" font-size="10">200µs</text>
<line x1="55" y1="157.5" x2="945" y2="157.5" stroke="#21262d"/>
<text x="47" y="161.50418219040148" text-anchor="end" fill="#484f58" font-size="10">500µs</text>
<line x1="55" y1="148.7" x2="945" y2="148.7" stroke="#21262d"/>
<text x="47" y="152.70589131661742" text-anchor="end" fill="#484f58" font-size="10">1ms</text>
<line x1="55" y1="139.9" x2="945" y2="139.9" stroke="#21262d"/>
<text x="47" y="143.90760044283337" text-anchor="end" fill="#484f58" font-size="10">2ms</text>
<line x1="55" y1="128.3" x2="945" y2="128.3" stroke="#21262d"/>
<text x="47" y="132.2768925497872" text-anchor="end" fill="#484f58" font-size="10">5ms</text>
<line x1="55" y1="119.5" x2="945" y2="119.5" stroke="#21262d"/>
<text x="47" y="123.47860167600318" text-anchor="end" fill="#484f58" font-size="10">10ms</text>
<line x1="84.7" y1="115" x2="84.7" y2="430" stroke="#30363d" stroke-width="1" stroke-dasharray="4,4"/>
<line x1="114.3" y1="115" x2="114.3" y2="430" stroke="#30363d" stroke-width="1" stroke-dasharray="4,4"/>
<line x1="144.0" y1="115" x2="144.0" y2="430" stroke="#30363d" stroke-width="1" stroke-dasharray="4,4"/>
<line x1="173.7" y1="115" x2="173.7" y2="430" stroke="#30363d" stroke-width="1" stroke-dasharray="4,4"/>
<line x1="203.3" y1="115" x2="203.3" y2="430" stroke="#30363d" stroke-width="1" stroke-dasharray="4,4"/>
<line x1="233.0" y1="115" x2="233.0" y2="430" stroke="#30363d" stroke-width="1" stroke-dasharray="4,4"/>
<line x1="262.7" y1="115" x2="262.7" y2="430" stroke="#30363d" stroke-width="1" stroke-dasharray="4,4"/>
<line x1="292.3" y1="115" x2="292.3" y2="430" stroke="#30363d" stroke-width="1" stroke-dasharray="4,4"/>
<line x1="322.0" y1="115" x2="322.0" y2="430" stroke="#30363d" stroke-width="1" stroke-dasharray="4,4"/>
<line x1="351.7" y1="115" x2="351.7" y2="430" stroke="#30363d" stroke-width="1" stroke-dasharray="4,4"/>
<line x1="381.3" y1="115" x2="381.3" y2="430" stroke="#30363d" stroke-width="1" stroke-dasharray="4,4"/>
<line x1="411.0" y1="115" x2="411.0" y2="430" stroke="#30363d" stroke-width="1" stroke-dasharray="4,4"/>
<line x1="440.7" y1="115" x2="440.7" y2="430" stroke="#30363d" stroke-width="1" stroke-dasharray="4,4"/>
<line x1="470.3" y1="115" x2="470.3" y2="430" stroke="#30363d" stroke-width="1" stroke-dasharray="4,4"/>
<line x1="500.0" y1="115" x2="500.0" y2="430" stroke="#30363d" stroke-width="1" stroke-dasharray="4,4"/>
<line x1="529.7" y1="115" x2="529.7" y2="430" stroke="#30363d" stroke-width="1" stroke-dasharray="4,4"/>
<line x1="559.3" y1="115" x2="559.3" y2="430" stroke="#30363d" stroke-width="1" stroke-dasharray="4,4"/>
<line x1="589.0" y1="115" x2="589.0" y2="430" stroke="#30363d" stroke-width="1" stroke-dasharray="4,4"/>
<line x1="618.7" y1="115" x2="618.7" y2="430" stroke="#30363d" stroke-width="1" stroke-dasharray="4,4"/>
<line x1="648.3" y1="115" x2="648.3" y2="430" stroke="#30363d" stroke-width="1" stroke-dasharray="4,4"/>
<line x1="678.0" y1="115" x2="678.0" y2="430" stroke="#30363d" stroke-width="1" stroke-dasharray="4,4"/>
<line x1="707.7" y1="115" x2="707.7" y2="430" stroke="#30363d" stroke-width="1" stroke-dasharray="4,4"/>
<line x1="737.3" y1="115" x2="737.3" y2="430" stroke="#30363d" stroke-width="1" stroke-dasharray="4,4"/>
<line x1="767.0" y1="115" x2="767.0" y2="430" stroke="#30363d" stroke-width="1" stroke-dasharray="4,4"/>
<line x1="796.7" y1="115" x2="796.7" y2="430" stroke="#30363d" stroke-width="1" stroke-dasharray="4,4"/>
<line x1="826.3" y1="115" x2="826.3" y2="430" stroke="#30363d" stroke-width="1" stroke-dasharray="4,4"/>
<line x1="856.0" y1="115" x2="856.0" y2="430" stroke="#30363d" stroke-width="1" stroke-dasharray="4,4"/>
<line x1="885.7" y1="115" x2="885.7" y2="430" stroke="#30363d" stroke-width="1" stroke-dasharray="4,4"/>
<line x1="915.3" y1="115" x2="915.3" y2="430" stroke="#30363d" stroke-width="1" stroke-dasharray="4,4"/>
<path d="M69.8,137.4 L99.5,137.6 L129.2,137.4 L158.8,177.8 L188.5,364.3 L218.2,136.9 L247.8,137.0 L277.5,137.0 L307.2,188.1 L336.8,375.1 L366.5,150.3 L396.2,150.3 L425.8,150.3 L455.5,225.7 L485.2,399.5 L514.8,149.9 L544.5,149.9 L574.2,149.9 L603.8,237.1 L633.5,411.3 L663.2,154.2 L692.8,154.1 L722.5,154.1 L752.2,247.0 L781.8,417.0 L811.5,138.1 L841.2,138.0 L870.8,138.1 L900.5,184.5 L930.2,370.6" fill="none" stroke="#58a6ff" stroke-width="8" stroke-linejoin="round" stroke-linecap="round" opacity="0.12"/>
<path d="M69.8,137.4 L99.5,137.6 L129.2,137.4 L158.8,177.8 L188.5,364.3 L218.2,136.9 L247.8,137.0 L277.5,137.0 L307.2,188.1 L336.8,375.1 L366.5,150.3 L396.2,150.3 L425.8,150.3 L455.5,225.7 L485.2,399.5 L514.8,149.9 L544.5,149.9 L574.2,149.9 L603.8,237.1 L633.5,411.3 L663.2,154.2 L692.8,154.1 L722.5,154.1 L752.2,247.0 L781.8,417.0 L811.5,138.1 L841.2,138.0 L870.8,138.1 L900.5,184.5 L930.2,370.6" fill="none" stroke="#58a6ff" stroke-width="3.5" stroke-linejoin="round" stroke-linecap="round"/>
<circle cx="69.8" cy="137.4" r="6" fill="#58a6ff" opacity="0.2"/>
<circle cx="69.8" cy="137.4" r="4" fill="#58a6ff" stroke="#0d1117" stroke-width="2.5"/>
<circle cx="99.5" cy="137.6" r="6" fill="#58a6ff" opacity="0.2"/>
<circle cx="99.5" cy="137.6" r="4" fill="#58a6ff" stroke="#0d1117" stroke-width="2.5"/>
<circle cx="129.2" cy="137.4" r="6" fill="#58a6ff" opacity="0.2"/>
<circle cx="129.2" cy="137.4" r="4" fill="#58a6ff" stroke="#0d1117" stroke-width="2.5"/>
<circle cx="158.8" cy="177.8" r="6" fill="#58a6ff" opacity="0.2"/>
<circle cx="158.8" cy="177.8" r="4" fill="#58a6ff" stroke="#0d1117" stroke-width="2.5"/>
<circle cx="188.5" cy="364.3" r="6" fill="#58a6ff" opacity="0.2"/>
<circle cx="188.5" cy="364.3" r="4" fill="#58a6ff" stroke="#0d1117" stroke-width="2.5"/>
<circle cx="218.2" cy="136.9" r="6" fill="#58a6ff" opacity="0.2"/>
<circle cx="218.2" cy="136.9" r="4" fill="#58a6ff" stroke="#0d1117" stroke-width="2.5"/>
<circle cx="247.8" cy="137.0" r="6" fill="#58a6ff" opacity="0.2"/>
<circle cx="247.8" cy="137.0" r="4" fill="#58a6ff" stroke="#0d1117" stroke-width="2.5"/>
<circle cx="277.5" cy="137.0" r="6" fill="#58a6ff" opacity="0.2"/>
<circle cx="277.5" cy="137.0" r="4" fill="#58a6ff" stroke="#0d1117" stroke-width="2.5"/>
<circle cx="307.2" cy="188.1" r="6" fill="#58a6ff" opacity="0.2"/>
<circle cx="307.2" cy="188.1" r="4" fill="#58a6ff" stroke="#0d1117" stroke-width="2.5"/>
<circle cx="336.8" cy="375.1" r="6" fill="#58a6ff" opacity="0.2"/>
<circle cx="336.8" cy="375.1" r="4" fill="#58a6ff" stroke="#0d1117" stroke-width="2.5"/>
<circle cx="366.5" cy="150.3" r="6" fill="#58a6ff" opacity="0.2"/>
<circle cx="366.5" cy="150.3" r="4" fill="#58a6ff" stroke="#0d1117" stroke-width="2.5"/>
<circle cx="396.2" cy="150.3" r="6" fill="#58a6ff" opacity="0.2"/>
<circle cx="396.2" cy="150.3" r="4" fill="#58a6ff" stroke="#0d1117" stroke-width="2.5"/>
<circle cx="425.8" cy="150.3" r="6" fill="#58a6ff" opacity="0.2"/>
<circle cx="425.8" cy="150.3" r="4" fill="#58a6ff" stroke="#0d1117" stroke-width="2.5"/>
<circle cx="455.5" cy="225.7" r="6" fill="#58a6ff" opacity="0.2"/>
<circle cx="455.5" cy="225.7" r="4" fill="#58a6ff" stroke="#0d1117" stroke-width="2.5"/>
<circle cx="485.2" cy="399.5" r="6" fill="#58a6ff" opacity="0.2"/>
<circle cx="485.2" cy="399.5" r="4" fill="#58a6ff" stroke="#0d1117" stroke-width="2.5"/>
<circle cx="514.8" cy="149.9" r="6" fill="#58a6ff" opacity="0.2"/>
<circle cx="514.8" cy="149.9" r="4" fill="#58a6ff" stroke="#0d1117" stroke-width="2.5"/>
<circle cx="544.5" cy="149.9" r="6" fill="#58a6ff" opacity="0.2"/>
<circle cx="544.5" cy="149.9" r="4" fill="#58a6ff" stroke="#0d1117" stroke-width="2.5"/>
<circle cx="574.2" cy="149.9" r="6" fill="#58a6ff" opacity="0.2"/>
<circle cx="574.2" cy="149.9" r="4" fill="#58a6ff" stroke="#0d1117" stroke-width="2.5"/>
<circle cx="603.8" cy="237.1" r="6" fill="#58a6ff" opacity="0.2"/>
<circle cx="603.8" cy="237.1" r="4" fill="#58a6ff" stroke="#0d1117" stroke-width="2.5"/>
<circle cx="633.5" cy="411.3" r="6" fill="#58a6ff" opacity="0.2"/>
<circle cx="633.5" cy="411.3" r="4" fill="#58a6ff" stroke="#0d1117" stroke-width="2.5"/>
<circle cx="663.2" cy="154.2" r="6" fill="#58a6ff" opacity="0.2"/>
<circle cx="663.2" cy="154.2" r="4" fill="#58a6ff" stroke="#0d1117" stroke-width="2.5"/>
<circle cx="692.8" cy="154.1" r="6" fill="#58a6ff" opacity="0.2"/>
<circle cx="692.8" cy="154.1" r="4" fill="#58a6ff" stroke="#0d1117" stroke-width="2.5"/>
<circle cx="722.5" cy="154.1" r="6" fill="#58a6ff" opacity="0.2"/>
<circle cx="722.5" cy="154.1" r="4" fill="#58a6ff" stroke="#0d1117" stroke-width="2.5"/>
<circle cx="752.2" cy="247.0" r="6" fill="#58a6ff" opacity="0.2"/>
<circle cx="752.2" cy="247.0" r="4" fill="#58a6ff" stroke="#0d1117" stroke-width="2.5"/>
<circle cx="781.8" cy="417.0" r="6" fill="#58a6ff" opacity="0.2"/>
<circle cx="781.8" cy="417.0" r="4" fill="#58a6ff" stroke="#0d1117" stroke-width="2.5"/>
<circle cx="811.5" cy="138.1" r="6" fill="#58a6ff" opacity="0.2"/>
<circle cx="811.5" cy="138.1" r="4" fill="#58a6ff" stroke="#0d1117" stroke-width="2.5"/>
<circle cx="841.2" cy="138.0" r="6" fill="#58a6ff" opacity="0.2"/>
<circle cx="841.2" cy="138.0" r="4" fill="#58a6ff" stroke="#0d1117" stroke-width="2.5"/>
<circle cx="870.8" cy="138.1" r="6" fill="#58a6ff" opacity="0.2"/>
<circle cx="870.8" cy="138.1" r="4" fill="#58a6ff" stroke="#0d1117" stroke-width="2.5"/>
<circle cx="900.5" cy="184.5" r="6" fill="#58a6ff" opacity="0.2"/>
<circle cx="900.5" cy="184.5" r="4" fill="#58a6ff" stroke="#0d1117" stroke-width="2.5"/>
<circle cx="930.2" cy="370.6" r="6" fill="#58a6ff" opacity="0.2"/>
<circle cx="930.2" cy="370.6" r="4" fill="#58a6ff" stroke="#0d1117" stroke-width="2.5"/>
<path d="M69.8,120.2 L99.5,120.3 L129.2,120.3 L158.8,191.8 L188.5,395.7 L218.2,120.1 L247.8,120.2 L277.5,120.1 L307.2,190.9 L336.8,394.8 L366.5,128.2 L396.2,128.3 L425.8,128.3 L455.5,186.2 L485.2,381.9 L514.8,128.6 L544.5,128.6 L574.2,128.6 L603.8,230.0 L633.5,425.5 L663.2,154.2 L692.8,152.6 L722.5,154.2 L752.2,173.2 L781.8,344.7 L811.5,120.4 L841.2,120.4 L870.8,120.4 L900.5,198.7 L930.2,402.4" fill="none" stroke="#FF9800" stroke-width="8" stroke-linejoin="round" stroke-linecap="round" opacity="0.12"/>
<path d="M69.8,120.2 L99.5,120.3 L129.2,120.3 L158.8,191.8 L188.5,395.7 L218.2,120.1 L247.8,120.2 L277.5,120.1 L307.2,190.9 L336.8,394.8 L366.5,128.2 L396.2,128.3 L425.8,128.3 L455.5,186.2 L485.2,381.9 L514.8,128.6 L544.5,128.6 L574.2,128.6 L603.8,230.0 L633.5,425.5 L663.2,154.2 L692.8,152.6 L722.5,154.2 L752.2,173.2 L781.8,344.7 L811.5,120.4 L841.2,120.4 L870.8,120.4 L900.5,198.7 L930.2,402.4" fill="none" stroke="#FF9800" stroke-width="3.5" stroke-linejoin="round" stroke-linecap="round"/>
<circle cx="69.8" cy="120.2" r="6" fill="#FF9800" opacity="0.2"/>
<circle cx="69.8" cy="120.2" r="4" fill="#FF9800" stroke="#0d1117" stroke-width="2.5"/>
<circle cx="99.5" cy="120.3" r="6" fill="#FF9800" opacity="0.2"/>
<circle cx="99.5" cy="120.3" r="4" fill="#FF9800" stroke="#0d1117" stroke-width="2.5"/>
<circle cx="129.2" cy="120.3" r="6" fill="#FF9800" opacity="0.2"/>
<circle cx="129.2" cy="120.3" r="4" fill="#FF9800" stroke="#0d1117" stroke-width="2.5"/>
<circle cx="158.8" cy="191.8" r="6" fill="#FF9800" opacity="0.2"/>
<circle cx="158.8" cy="191.8" r="4" fill="#FF9800" stroke="#0d1117" stroke-width="2.5"/>
<circle cx="188.5" cy="395.7" r="6" fill="#FF9800" opacity="0.2"/>
<circle cx="188.5" cy="395.7" r="4" fill="#FF9800" stroke="#0d1117" stroke-width="2.5"/>
<circle cx="218.2" cy="120.1" r="6" fill="#FF9800" opacity="0.2"/>
<circle cx="218.2" cy="120.1" r="4" fill="#FF9800" stroke="#0d1117" stroke-width="2.5"/>
<circle cx="247.8" cy="120.2" r="6" fill="#FF9800" opacity="0.2"/>
<circle cx="247.8" cy="120.2" r="4" fill="#FF9800" stroke="#0d1117" stroke-width="2.5"/>
<circle cx="277.5" cy="120.1" r="6" fill="#FF9800" opacity="0.2"/>
<circle cx="277.5" cy="120.1" r="4" fill="#FF9800" stroke="#0d1117" stroke-width="2.5"/>
<circle cx="307.2" cy="190.9" r="6" fill="#FF9800" opacity="0.2"/>
<circle cx="307.2" cy="190.9" r="4" fill="#FF9800" stroke="#0d1117" stroke-width="2.5"/>
<circle cx="336.8" cy="394.8" r="6" fill="#FF9800" opacity="0.2"/>
<circle cx="336.8" cy="394.8" r="4" fill="#FF9800" stroke="#0d1117" stroke-width="2.5"/>
<circle cx="366.5" cy="128.2" r="6" fill="#FF9800" opacity="0.2"/>
<circle cx="366.5" cy="128.2" r="4" fill="#FF9800" stroke="#0d1117" stroke-width="2.5"/>
<circle cx="396.2" cy="128.3" r="6" fill="#FF9800" opacity="0.2"/>
<circle cx="396.2" cy="128.3" r="4" fill="#FF9800" stroke="#0d1117" stroke-width="2.5"/>
<circle cx="425.8" cy="128.3" r="6" fill="#FF9800" opacity="0.2"/>
<circle cx="425.8" cy="128.3" r="4" fill="#FF9800" stroke="#0d1117" stroke-width="2.5"/>
<circle cx="455.5" cy="186.2" r="6" fill="#FF9800" opacity="0.2"/>
<circle cx="455.5" cy="186.2" r="4" fill="#FF9800" stroke="#0d1117" stroke-width="2.5"/>
<circle cx="485.2" cy="381.9" r="6" fill="#FF9800" opacity="0.2"/>
<circle cx="485.2" cy="381.9" r="4" fill="#FF9800" stroke="#0d1117" stroke-width="2.5"/>
<circle cx="514.8" cy="128.6" r="6" fill="#FF9800" opacity="0.2"/>
<circle cx="514.8" cy="128.6" r="4" fill="#FF9800" stroke="#0d1117" stroke-width="2.5"/>
<circle cx="544.5" cy="128.6" r="6" fill="#FF9800" opacity="0.2"/>
<circle cx="544.5" cy="128.6" r="4" fill="#FF9800" stroke="#0d1117" stroke-width="2.5"/>
<circle cx="574.2" cy="128.6" r="6" fill="#FF9800" opacity="0.2"/>
<circle cx="574.2" cy="128.6" r="4" fill="#FF9800" stroke="#0d1117" stroke-width="2.5"/>
<circle cx="603.8" cy="230.0" r="6" fill="#FF9800" opacity="0.2"/>
<circle cx="603.8" cy="230.0" r="4" fill="#FF9800" stroke="#0d1117" stroke-width="2.5"/>
<circle cx="633.5" cy="425.5" r="6" fill="#FF9800" opacity="0.2"/>
<circle cx="633.5" cy="425.5" r="4" fill="#FF9800" stroke="#0d1117" stroke-width="2.5"/>
<circle cx="663.2" cy="154.2" r="6" fill="#FF9800" opacity="0.2"/>
<circle cx="663.2" cy="154.2" r="4" fill="#FF9800" stroke="#0d1117" stroke-width="2.5"/>
<circle cx="692.8" cy="152.6" r="6" fill="#FF9800" opacity="0.2"/>
<circle cx="692.8" cy="152.6" r="4" fill="#FF9800" stroke="#0d1117" stroke-width="2.5"/>
<circle cx="722.5" cy="154.2" r="6" fill="#FF9800" opacity="0.2"/>
<circle cx="722.5" cy="154.2" r="4" fill="#FF9800" stroke="#0d1117" stroke-width="2.5"/>
<circle cx="752.2" cy="173.2" r="6" fill="#FF9800" opacity="0.2"/>
<circle cx="752.2" cy="173.2" r="4" fill="#FF9800" stroke="#0d1117" stroke-width="2.5"/>
<circle cx="781.8" cy="344.7" r="6" fill="#FF9800" opacity="0.2"/>
<circle cx="781.8" cy="344.7" r="4" fill="#FF9800" stroke="#0d1117" stroke-width="2.5"/>
<circle cx="811.5" cy="120.4" r="6" fill="#FF9800" opacity="0.2"/>
<circle cx="811.5" cy="120.4" r="4" fill="#FF9800" stroke="#0d1117" stroke-width="2.5"/>
<circle cx="841.2" cy="120.4" r="6" fill="#FF9800" opacity="0.2"/>
<circle cx="841.2" cy="120.4" r="4" fill="#FF9800" stroke="#0d1117" stroke-width="2.5"/>
<circle cx="870.8" cy="120.4" r="6" fill="#FF9800" opacity="0.2"/>
<circle cx="870.8" cy="120.4" r="4" fill="#FF9800" stroke="#0d1117" stroke-width="2.5"/>
<circle cx="900.5" cy="198.7" r="6" fill="#FF9800" opacity="0.2"/>
<circle cx="900.5" cy="198.7" r="4" fill="#FF9800" stroke="#0d1117" stroke-width="2.5"/>
<circle cx="930.2" cy="402.4" r="6" fill="#FF9800" opacity="0.2"/>
<circle cx="930.2" cy="402.4" r="4" fill="#FF9800" stroke="#0d1117" stroke-width="2.5"/>
<path d="M69.8,122.2 L99.5,122.2 L129.2,122.2 L158.8,208.8 L188.5,410.7 L218.2,121.9 L247.8,122.0 L277.5,121.9 L307.2,181.3 L336.8,383.4 L366.5,130.1 L396.2,130.1 L425.8,130.1 L455.5,192.3 L485.2,386.3 L514.8,130.0 L544.5,128.9 L574.2,129.2 L603.8,158.8 L633.5,353.9 L663.2,154.1 L692.8,152.4 L722.5,154.1 L752.2,172.2 L781.8,343.8 L811.5,121.8 L841.2,121.9 L870.8,121.8 L900.5,186.2 L930.2,388.4" fill="none" stroke="#4CAF50" stroke-width="8" stroke-linejoin="round" stroke-linecap="round" opacity="0.12"/>
<path d="M69.8,122.2 L99.5,122.2 L129.2,122.2 L158.8,208.8 L188.5,410.7 L218.2,121.9 L247.8,122.0 L277.5,121.9 L307.2,181.3 L336.8,383.4 L366.5,130.1 L396.2,130.1 L425.8,130.1 L455.5,192.3 L485.2,386.3 L514.8,130.0 L544.5,128.9 L574.2,129.2 L603.8,158.8 L633.5,353.9 L663.2,154.1 L692.8,152.4 L722.5,154.1 L752.2,172.2 L781.8,343.8 L811.5,121.8 L841.2,121.9 L870.8,121.8 L900.5,186.2 L930.2,388.4" fill="none" stroke="#4CAF50" stroke-width="3.5" stroke-linejoin="round" stroke-linecap="round"/>
<circle cx="69.8" cy="122.2" r="6" fill="#4CAF50" opacity="0.2"/>
<circle cx="69.8" cy="122.2" r="4" fill="#4CAF50" stroke="#0d1117" stroke-width="2.5"/>
<circle cx="99.5" cy="122.2" r="6" fill="#4CAF50" opacity="0.2"/>
<circle cx="99.5" cy="122.2" r="4" fill="#4CAF50" stroke="#0d1117" stroke-width="2.5"/>
<circle cx="129.2" cy="122.2" r="6" fill="#4CAF50" opacity="0.2"/>
<circle cx="129.2" cy="122.2" r="4" fill="#4CAF50" stroke="#0d1117" stroke-width="2.5"/>
<circle cx="158.8" cy="208.8" r="6" fill="#4CAF50" opacity="0.2"/>
<circle cx="158.8" cy="208.8" r="4" fill="#4CAF50" stroke="#0d1117" stroke-width="2.5"/>
<circle cx="188.5" cy="410.7" r="6" fill="#4CAF50" opacity="0.2"/>
<circle cx="188.5" cy="410.7" r="4" fill="#4CAF50" stroke="#0d1117" stroke-width="2.5"/>
<circle cx="218.2" cy="121.9" r="6" fill="#4CAF50" opacity="0.2"/>
<circle cx="218.2" cy="121.9" r="4" fill="#4CAF50" stroke="#0d1117" stroke-width="2.5"/>
<circle cx="247.8" cy="122.0" r="6" fill="#4CAF50" opacity="0.2"/>
<circle cx="247.8" cy="122.0" r="4" fill="#4CAF50" stroke="#0d1117" stroke-width="2.5"/>
<circle cx="277.5" cy="121.9" r="6" fill="#4CAF50" opacity="0.2"/>
<circle cx="277.5" cy="121.9" r="4" fill="#4CAF50" stroke="#0d1117" stroke-width="2.5"/>
<circle cx="307.2" cy="181.3" r="6" fill="#4CAF50" opacity="0.2"/>
<circle cx="307.2" cy="181.3" r="4" fill="#4CAF50" stroke="#0d1117" stroke-width="2.5"/>
<circle cx="336.8" cy="383.4" r="6" fill="#4CAF50" opacity="0.2"/>
<circle cx="336.8" cy="383.4" r="4" fill="#4CAF50" stroke="#0d1117" stroke-width="2.5"/>
<circle cx="366.5" cy="130.1" r="6" fill="#4CAF50" opacity="0.2"/>
<circle cx="366.5" cy="130.1" r="4" fill="#4CAF50" stroke="#0d1117" stroke-width="2.5"/>
<circle cx="396.2" cy="130.1" r="6" fill="#4CAF50" opacity="0.2"/>
<circle cx="396.2" cy="130.1" r="4" fill="#4CAF50" stroke="#0d1117" stroke-width="2.5"/>
<circle cx="425.8" cy="130.1" r="6" fill="#4CAF50" opacity="0.2"/>
<circle cx="425.8" cy="130.1" r="4" fill="#4CAF50" stroke="#0d1117" stroke-width="2.5"/>
<circle cx="455.5" cy="192.3" r="6" fill="#4CAF50" opacity="0.2"/>
<circle cx="455.5" cy="192.3" r="4" fill="#4CAF50" stroke="#0d1117" stroke-width="2.5"/>
<circle cx="485.2" cy="386.3" r="6" fill="#4CAF50" opacity="0.2"/>
<circle cx="485.2" cy="386.3" r="4" fill="#4CAF50" stroke="#0d1117" stroke-width="2.5"/>
<circle cx="514.8" cy="130.0" r="6" fill="#4CAF50" opacity="0.2"/>
<circle cx="514.8" cy="130.0" r="4" fill="#4CAF50" stroke="#0d1117" stroke-width="2.5"/>
<circle cx="544.5" cy="128.9" r="6" fill="#4CAF50" opacity="0.2"/>
<circle cx="544.5" cy="128.9" r="4" fill="#4CAF50" stroke="#0d1117" stroke-width="2.5"/>
<circle cx="574.2" cy="129.2" r="6" fill="#4CAF50" opacity="0.2"/>
<circle cx="574.2" cy="129.2" r="4" fill="#4CAF50" stroke="#0d1117" stroke-width="2.5"/>
<circle cx="603.8" cy="158.8" r="6" fill="#4CAF50" opacity="0.2"/>
<circle cx="603.8" cy="158.8" r="4" fill="#4CAF50" stroke="#0d1117" stroke-width="2.5"/>
<circle cx="633.5" cy="353.9" r="6" fill="#4CAF50" opacity="0.2"/>
<circle cx="633.5" cy="353.9" r="4" fill="#4CAF50" stroke="#0d1117" stroke-width="2.5"/>
<circle cx="663.2" cy="154.1" r="6" fill="#4CAF50" opacity="0.2"/>
<circle cx="663.2" cy="154.1" r="4" fill="#4CAF50" stroke="#0d1117" stroke-width="2.5"/>
<circle cx="692.8" cy="152.4" r="6" fill="#4CAF50" opacity="0.2"/>
<circle cx="692.8" cy="152.4" r="4" fill="#4CAF50" stroke="#0d1117" stroke-width="2.5"/>
<circle cx="722.5" cy="154.1" r="6" fill="#4CAF50" opacity="0.2"/>
<circle cx="722.5" cy="154.1" r="4" fill="#4CAF50" stroke="#0d1117" stroke-width="2.5"/>
<circle cx="752.2" cy="172.2" r="6" fill="#4CAF50" opacity="0.2"/>
<circle cx="752.2" cy="172.2" r="4" fill="#4CAF50" stroke="#0d1117" stroke-width="2.5"/>
<circle cx="781.8" cy="343.8" r="6" fill="#4CAF50" opacity="0.2"/>
<circle cx="781.8" cy="343.8" r="4" fill="#4CAF50" stroke="#0d1117" stroke-width="2.5"/>
<circle cx="811.5" cy="121.8" r="6" fill="#4CAF50" opacity="0.2"/>
<circle cx="811.5" cy="121.8" r="4" fill="#4CAF50" stroke="#0d1117" stroke-width="2.5"/>
<circle cx="841.2" cy="121.9" r="6" fill="#4CAF50" opacity="0.2"/>
<circle cx="841.2" cy="121.9" r="4" fill="#4CAF50" stroke="#0d1117" stroke-width="2.5"/>
<circle cx="870.8" cy="121.8" r="6" fill="#4CAF50" opacity="0.2"/>
<circle cx="870.8" cy="121.8" r="4" fill="#4CAF50" stroke="#0d1117" stroke-width="2.5"/>
<circle cx="900.5" cy="186.2" r="6" fill="#4CAF50" opacity="0.2"/>
<circle cx="900.5" cy="186.2" r="4" fill="#4CAF50" stroke="#0d1117" stroke-width="2.5"/>
<circle cx="930.2" cy="388.4" r="6" fill="#4CAF50" opacity="0.2"/>
<circle cx="930.2" cy="388.4" r="4" fill="#4CAF50" stroke="#0d1117" stroke-width="2.5"/>
<path d="M69.8,122.0 L99.5,122.1 L129.2,122.1 L158.8,187.2 L188.5,389.2 L218.2,121.8 L247.8,121.7 L277.5,121.7 L307.2,178.6 L336.8,380.9 L366.5,130.1 L396.2,130.1 L425.8,130.1 L455.5,186.8 L485.2,380.8 L514.8,130.1 L544.5,130.1 L574.2,130.1 L603.8,195.0 L633.5,389.0 L663.2,153.0 L692.8,152.5 L722.5,153.0 L752.2,187.2 L781.8,358.7 L811.5,121.8 L841.2,121.8 L870.8,121.8 L900.5,197.5 L930.2,399.8" fill="none" stroke="#BB86FC" stroke-width="8" stroke-linejoin="round" stroke-linecap="round" opacity="0.12"/>
<path d="M69.8,122.0 L99.5,122.1 L129.2,122.1 L158.8,187.2 L188.5,389.2 L218.2,121.8 L247.8,121.7 L277.5,121.7 L307.2,178.6 L336.8,380.9 L366.5,130.1 L396.2,130.1 L425.8,130.1 L455.5,186.8 L485.2,380.8 L514.8,130.1 L544.5,130.1 L574.2,130.1 L603.8,195.0 L633.5,389.0 L663.2,153.0 L692.8,152.5 L722.5,153.0 L752.2,187.2 L781.8,358.7 L811.5,121.8 L841.2,121.8 L870.8,121.8 L900.5,197.5 L930.2,399.8" fill="none" stroke="#BB86FC" stroke-width="3.5" stroke-linejoin="round" stroke-linecap="round"/>
<circle cx="69.8" cy="122.0" r="6" fill="#BB86FC" opacity="0.2"/>
<circle cx="69.8" cy="122.0" r="4" fill="#BB86FC" stroke="#0d1117" stroke-width="2.5"/>
<circle cx="99.5" cy="122.1" r="6" fill="#BB86FC" opacity="0.2"/>
<circle cx="99.5" cy="122.1" r="4" fill="#BB86FC" stroke="#0d1117" stroke-width="2.5"/>
<circle cx="129.2" cy="122.1" r="6" fill="#BB86FC" opacity="0.2"/>
<circle cx="129.2" cy="122.1" r="4" fill="#BB86FC" stroke="#0d1117" stroke-width="2.5"/>
<circle cx="158.8" cy="187.2" r="6" fill="#BB86FC" opacity="0.2"/>
<circle cx="158.8" cy="187.2" r="4" fill="#BB86FC" stroke="#0d1117" stroke-width="2.5"/>
<circle cx="188.5" cy="389.2" r="6" fill="#BB86FC" opacity="0.2"/>
<circle cx="188.5" cy="389.2" r="4" fill="#BB86FC" stroke="#0d1117" stroke-width="2.5"/>
<circle cx="218.2" cy="121.8" r="6" fill="#BB86FC" opacity="0.2"/>
<circle cx="218.2" cy="121.8" r="4" fill="#BB86FC" stroke="#0d1117" stroke-width="2.5"/>
<circle cx="247.8" cy="121.7" r="6" fill="#BB86FC" opacity="0.2"/>
<circle cx="247.8" cy="121.7" r="4" fill="#BB86FC" stroke="#0d1117" stroke-width="2.5"/>
<circle cx="277.5" cy="121.7" r="6" fill="#BB86FC" opacity="0.2"/>
<circle cx="277.5" cy="121.7" r="4" fill="#BB86FC" stroke="#0d1117" stroke-width="2.5"/>
<circle cx="307.2" cy="178.6" r="6" fill="#BB86FC" opacity="0.2"/>
<circle cx="307.2" cy="178.6" r="4" fill="#BB86FC" stroke="#0d1117" stroke-width="2.5"/>
<circle cx="336.8" cy="380.9" r="6" fill="#BB86FC" opacity="0.2"/>
<circle cx="336.8" cy="380.9" r="4" fill="#BB86FC" stroke="#0d1117" stroke-width="2.5"/>
<circle cx="366.5" cy="130.1" r="6" fill="#BB86FC" opacity="0.2"/>
<circle cx="366.5" cy="130.1" r="4" fill="#BB86FC" stroke="#0d1117" stroke-width="2.5"/>
<circle cx="396.2" cy="130.1" r="6" fill="#BB86FC" opacity="0.2"/>
<circle cx="396.2" cy="130.1" r="4" fill="#BB86FC" stroke="#0d1117" stroke-width="2.5"/>
<circle cx="425.8" cy="130.1" r="6" fill="#BB86FC" opacity="0.2"/>
<circle cx="425.8" cy="130.1" r="4" fill="#BB86FC" stroke="#0d1117" stroke-width="2.5"/>
<circle cx="455.5" cy="186.8" r="6" fill="#BB86FC" opacity="0.2"/>
<circle cx="455.5" cy="186.8" r="4" fill="#BB86FC" stroke="#0d1117" stroke-width="2.5"/>
<circle cx="485.2" cy="380.8" r="6" fill="#BB86FC" opacity="0.2"/>
<circle cx="485.2" cy="380.8" r="4" fill="#BB86FC" stroke="#0d1117" stroke-width="2.5"/>
<circle cx="514.8" cy="130.1" r="6" fill="#BB86FC" opacity="0.2"/>
<circle cx="514.8" cy="130.1" r="4" fill="#BB86FC" stroke="#0d1117" stroke-width="2.5"/>
<circle cx="544.5" cy="130.1" r="6" fill="#BB86FC" opacity="0.2"/>
<circle cx="544.5" cy="130.1" r="4" fill="#BB86FC" stroke="#0d1117" stroke-width="2.5"/>
<circle cx="574.2" cy="130.1" r="6" fill="#BB86FC" opacity="0.2"/>
<circle cx="574.2" cy="130.1" r="4" fill="#BB86FC" stroke="#0d1117" stroke-width="2.5"/>
<circle cx="603.8" cy="195.0" r="6" fill="#BB86FC" opacity="0.2"/>
<circle cx="603.8" cy="195.0" r="4" fill="#BB86FC" stroke="#0d1117" stroke-width="2.5"/>
<circle cx="633.5" cy="389.0" r="6" fill="#BB86FC" opacity="0.2"/>
<circle cx="633.5" cy="389.0" r="4" fill="#BB86FC" stroke="#0d1117" stroke-width="2.5"/>
<circle cx="663.2" cy="153.0" r="6" fill="#BB86FC" opacity="0.2"/>
<circle cx="663.2" cy="153.0" r="4" fill="#BB86FC" stroke="#0d1117" stroke-width="2.5"/>
<circle cx="692.8" cy="152.5" r="6" fill="#BB86FC" opacity="0.2"/>
<circle cx="692.8" cy="152.5" r="4" fill="#BB86FC" stroke="#0d1117" stroke-width="2.5"/>
<circle cx="722.5" cy="153.0" r="6" fill="#BB86FC" opacity="0.2"/>
<circle cx="722.5" cy="153.0" r="4" fill="#BB86FC" stroke="#0d1117" stroke-width="2.5"/>
<circle cx="752.2" cy="187.2" r="6" fill="#BB86FC" opacity="0.2"/>
<circle cx="752.2" cy="187.2" r="4" fill="#BB86FC" stroke="#0d1117" stroke-width="2.5"/>
<circle cx="781.8" cy="358.7" r="6" fill="#BB86FC" opacity="0.2"/>
<circle cx="781.8" cy="358.7" r="4" fill="#BB86FC" stroke="#0d1117" stroke-width="2.5"/>
<circle cx="811.5" cy="121.8" r="6" fill="#BB86FC" opacity="0.2"/>
<circle cx="811.5" cy="121.8" r="4" fill="#BB86FC" stroke="#0d1117" stroke-width="2.5"/>
<circle cx="841.2" cy="121.8" r="6" fill="#BB86FC" opacity="0.2"/>
<circle cx="841.2" cy="121.8" r="4" fill="#BB86FC" stroke="#0d1117" stroke-width="2.5"/>
<circle cx="870.8" cy="121.8" r="6" fill="#BB86FC" opacity="0.2"/>
<circle cx="870.8" cy="121.8" r="4" fill="#BB86FC" stroke="#0d1117" stroke-width="2.5"/>
<circle cx="900.5" cy="197.5" r="6" fill="#BB86FC" opacity="0.2"/>
<circle cx="900.5" cy="197.5" r="4" fill="#BB86FC" stroke="#0d1117" stroke-width="2.5"/>
<circle cx="930.2" cy="399.8" r="6" fill="#BB86FC" opacity="0.2"/>
<circle cx="930.2" cy="399.8" r="4" fill="#BB86FC" stroke="#0d1117" stroke-width="2.5"/>
<path d="M69.8,121.4 L99.5,121.2 L129.2,121.4 L158.8,168.7 L188.5,371.6 L218.2,121.3 L247.8,121.4 L277.5,121.4 L307.2,191.8 L336.8,394.5 L366.5,129.7 L396.2,129.5 L425.8,129.5 L455.5,186.0 L485.2,380.5 L514.8,130.0 L544.5,129.9 L574.2,130.0 L603.8,194.3 L633.5,388.5 L663.2,154.2 L692.8,153.7 L722.5,154.2 L752.2,187.9 L781.8,358.3 L811.5,121.6 L841.2,121.6 L870.8,121.6 L900.5,205.6 L930.2,408.0" fill="none" stroke="#F472B6" stroke-width="8" stroke-linejoin="round" stroke-linecap="round" opacity="0.12"/>
<path d="M69.8,121.4 L99.5,121.2 L129.2,121.4 L158.8,168.7 L188.5,371.6 L218.2,121.3 L247.8,121.4 L277.5,121.4 L307.2,191.8 L336.8,394.5 L366.5,129.7 L396.2,129.5 L425.8,129.5 L455.5,186.0 L485.2,380.5 L514.8,130.0 L544.5,129.9 L574.2,130.0 L603.8,194.3 L633.5,388.5 L663.2,154.2 L692.8,153.7 L722.5,154.2 L752.2,187.9 L781.8,358.3 L811.5,121.6 L841.2,121.6 L870.8,121.6 L900.5,205.6 L930.2,408.0" fill="none" stroke="#F472B6" stroke-width="3.5" stroke-linejoin="round" stroke-linecap="round"/>
<circle cx="69.8" cy="121.4" r="6" fill="#F472B6" opacity="0.2"/>
<circle cx="69.8" cy="121.4" r="4" fill="#F472B6" stroke="#0d1117" stroke-width="2.5"/>
<circle cx="99.5" cy="121.2" r="6" fill="#F472B6" opacity="0.2"/>
<circle cx="99.5" cy="121.2" r="4" fill="#F472B6" stroke="#0d1117" stroke-width="2.5"/>
<circle cx="129.2" cy="121.4" r="6" fill="#F472B6" opacity="0.2"/>
<circle cx="129.2" cy="121.4" r="4" fill="#F472B6" stroke="#0d1117" stroke-width="2.5"/>
<circle cx="158.8" cy="168.7" r="6" fill="#F472B6" opacity="0.2"/>
<circle cx="158.8" cy="168.7" r="4" fill="#F472B6" stroke="#0d1117" stroke-width="2.5"/>
<circle cx="188.5" cy="371.6" r="6" fill="#F472B6" opacity="0.2"/>
<circle cx="188.5" cy="371.6" r="4" fill="#F472B6" stroke="#0d1117" stroke-width="2.5"/>
<circle cx="218.2" cy="121.3" r="6" fill="#F472B6" opacity="0.2"/>
<circle cx="218.2" cy="121.3" r="4" fill="#F472B6" stroke="#0d1117" stroke-width="2.5"/>
<circle cx="247.8" cy="121.4" r="6" fill="#F472B6" opacity="0.2"/>
<circle cx="247.8" cy="121.4" r="4" fill="#F472B6" stroke="#0d1117" stroke-width="2.5"/>
<circle cx="277.5" cy="121.4" r="6" fill="#F472B6" opacity="0.2"/>
<circle cx="277.5" cy="121.4" r="4" fill="#F472B6" stroke="#0d1117" stroke-width="2.5"/>
<circle cx="307.2" cy="191.8" r="6" fill="#F472B6" opacity="0.2"/>
<circle cx="307.2" cy="191.8" r="4" fill="#F472B6" stroke="#0d1117" stroke-width="2.5"/>
<circle cx="336.8" cy="394.5" r="6" fill="#F472B6" opacity="0.2"/>
<circle cx="336.8" cy="394.5" r="4" fill="#F472B6" stroke="#0d1117" stroke-width="2.5"/>
<circle cx="366.5" cy="129.7" r="6" fill="#F472B6" opacity="0.2"/>
<circle cx="366.5" cy="129.7" r="4" fill="#F472B6" stroke="#0d1117" stroke-width="2.5"/>
<circle cx="396.2" cy="129.5" r="6" fill="#F472B6" opacity="0.2"/>
<circle cx="396.2" cy="129.5" r="4" fill="#F472B6" stroke="#0d1117" stroke-width="2.5"/>
<circle cx="425.8" cy="129.5" r="6" fill="#F472B6" opacity="0.2"/>
<circle cx="425.8" cy="129.5" r="4" fill="#F472B6" stroke="#0d1117" stroke-width="2.5"/>
<circle cx="455.5" cy="186.0" r="6" fill="#F472B6" opacity="0.2"/>
<circle cx="455.5" cy="186.0" r="4" fill="#F472B6" stroke="#0d1117" stroke-width="2.5"/>
<circle cx="485.2" cy="380.5" r="6" fill="#F472B6" opacity="0.2"/>
<circle cx="485.2" cy="380.5" r="4" fill="#F472B6" stroke="#0d1117" stroke-width="2.5"/>
<circle cx="514.8" cy="130.0" r="6" fill="#F472B6" opacity="0.2"/>
<circle cx="514.8" cy="130.0" r="4" fill="#F472B6" stroke="#0d1117" stroke-width="2.5"/>
<circle cx="544.5" cy="129.9" r="6" fill="#F472B6" opacity="0.2"/>
<circle cx="544.5" cy="129.9" r="4" fill="#F472B6" stroke="#0d1117" stroke-width="2.5"/>
<circle cx="574.2" cy="130.0" r="6" fill="#F472B6" opacity="0.2"/>
<circle cx="574.2" cy="130.0" r="4" fill="#F472B6" stroke="#0d1117" stroke-width="2.5"/>
<circle cx="603.8" cy="194.3" r="6" fill="#F472B6" opacity="0.2"/>
<circle cx="603.8" cy="194.3" r="4" fill="#F472B6" stroke="#0d1117" stroke-width="2.5"/>
<circle cx="633.5" cy="388.5" r="6" fill="#F472B6" opacity="0.2"/>
<circle cx="633.5" cy="388.5" r="4" fill="#F472B6" stroke="#0d1117" stroke-width="2.5"/>
<circle cx="663.2" cy="154.2" r="6" fill="#F472B6" opacity="0.2"/>
<circle cx="663.2" cy="154.2" r="4" fill="#F472B6" stroke="#0d1117" stroke-width="2.5"/>
<circle cx="692.8" cy="153.7" r="6" fill="#F472B6" opacity="0.2"/>
<circle cx="692.8" cy="153.7" r="4" fill="#F472B6" stroke="#0d1117" stroke-width="2.5"/>
<circle cx="722.5" cy="154.2" r="6" fill="#F472B6" opacity="0.2"/>
<circle cx="722.5" cy="154.2" r="4" fill="#F472B6" stroke="#0d1117" stroke-width="2.5"/>
<circle cx="752.2" cy="187.9" r="6" fill="#F472B6" opacity="0.2"/>
<circle cx="752.2" cy="187.9" r="4" fill="#F472B6" stroke="#0d1117" stroke-width="2.5"/>
<circle cx="781.8" cy="358.3" r="6" fill="#F472B6" opacity="0.2"/>
<circle cx="781.8" cy="358.3" r="4" fill="#F472B6" stroke="#0d1117" stroke-width="2.5"/>
<circle cx="811.5" cy="121.6" r="6" fill="#F472B6" opacity="0.2"/>
<circle cx="811.5" cy="121.6" r="4" fill="#F472B6" stroke="#0d1117" stroke-width="2.5"/>
<circle cx="841.2" cy="121.6" r="6" fill="#F472B6" opacity="0.2"/>
<circle cx="841.2" cy="121.6" r="4" fill="#F472B6" stroke="#0d1117" stroke-width="2.5"/>
<circle cx="870.8" cy="121.6" r="6" fill="#F472B6" opacity="0.2"/>
<circle cx="870.8" cy="121.6" r="4" fill="#F472B6" stroke="#0d1117" stroke-width="2.5"/>
<circle cx="900.5" cy="205.6" r="6" fill="#F472B6" opacity="0.2"/>
<circle cx="900.5" cy="205.6" r="4" fill="#F472B6" stroke="#0d1117" stroke-width="2.5"/>
<circle cx="930.2" cy="408.0" r="6" fill="#F472B6" opacity="0.2"/>
<circle cx="930.2" cy="408.0" r="4" fill="#F472B6" stroke="#0d1117" stroke-width="2.5"/>
<text x="69.8" y="448" text-anchor="end" fill="#8b949e" font-size="11" transform="rotate(-30,69.8,448)">push_back</text>
<text x="99.5" y="448" text-anchor="end" fill="#8b949e" font-size="11" transform="rotate(-30,99.5,448)">push_back_mean</text>
<text x="129.2" y="448" text-anchor="end" fill="#8b949e" font-size="11" transform="rotate(-30,129.2,448)">push_back_median</text>
<text x="158.8" y="448" text-anchor="end" fill="#8b949e" font-size="11" transform="rotate(-30,158.8,448)">push_back_stddev</text>
<text x="188.5" y="448" text-anchor="end" fill="#8b949e" font-size="11" transform="rotate(-30,188.5,448)">push_back_cv</text>
<text x="218.2" y="448" text-anchor="end" fill="#8b949e" font-size="11" transform="rotate(-30,218.2,448)">push_front</text>
<text x="247.8" y="448" text-anchor="end" fill="#8b949e" font-size="11" transform="rotate(-30,247.8,448)">push_front_mean</text>
<text x="277.5" y="448" text-anchor="end" fill="#8b949e" font-size="11" transform="rotate(-30,277.5,448)">push_front_median</text>
<text x="307.2" y="448" text-anchor="end" fill="#8b949e" font-size="11" transform="rotate(-30,307.2,448)">push_front_stddev</text>
<text x="336.8" y="448" text-anchor="end" fill="#8b949e" font-size="11" transform="rotate(-30,336.8,448)">push_front_cv</text>
<text x="366.5" y="448" text-anchor="end" fill="#8b949e" font-size="11" transform="rotate(-30,366.5,448)">insert_middle</text>
<text x="396.2" y="448" text-anchor="end" fill="#8b949e" font-size="11" transform="rotate(-30,396.2,448)">insert_middle_mean</text>
<text x="425.8" y="448" text-anchor="end" fill="#8b949e" font-size="11" transform="rotate(-30,425.8,448)">insert_middle_median</text>
<text x="455.5" y="448" text-anchor="end" fill="#8b949e" font-size="11" transform="rotate(-30,455.5,448)">insert_middle_stddev</text>
<text x="485.2" y="448" text-anchor="end" fill="#8b949e" font-size="11" transform="rotate(-30,485.2,448)">insert_middle_cv</text>
<text x="514.8" y="448" text-anchor="end" fill="#8b949e" font-size="11" transform="rotate(-30,514.8,448)">erase_middle</text>
<text x="544.5" y="448" text-anchor="end" fill="#8b949e" font-size="11" transform="rotate(-30,544.5,448)">erase_middle_mean</text>
<text x="574.2" y="448" text-anchor="end" fill="#8b949e" font-size="11" transform="rotate(-30,574.2,448)">erase_middle_median</text>
<text x="603.8" y="448" text-anchor="end" fill="#8b949e" font-size="11" transform="rotate(-30,603.8,448)">erase_middle_stddev</text>
<text x="633.5" y="448" text-anchor="end" fill="#8b949e" font-size="11" transform="rotate(-30,633.5,448)">erase_middle_cv</text>
<text x="663.2" y="448" text-anchor="end" fill="#8b949e" font-size="11" transform="rotate(-30,663.2,448)">iterate</text>
<text x="692.8" y="448" text-anchor="end" fill="#8b949e" font-size="11" transform="rotate(-30,692.8,448)">iterate_mean</text>
<text x="722.5" y="448" text-anchor="end" fill="#8b949e" font-size="11" transform="rotate(-30,722.5,448)">iterate_median</text>
<text x="752.2" y="448" text-anchor="end" fill="#8b949e" font-size="11" transform="rotate(-30,752.2,448)">iterate_stddev</text>
<text x="781.8" y="448" text-anchor="end" fill="#8b949e" font-size="11" transform="rotate(-30,781.8,448)">iterate_cv</text>
<text x="811.5" y="448" text-anchor="end" fill="#8b949e" font-size="11" transform="rotate(-30,811.5,448)">clear</text>
<text x="841.2" y="448" text-anchor="end" fill="#8b949e" font-size="11" transform="rotate(-30,841.2,448)">clear_mean</text>
<text x="870.8" y="448" text-anchor="end" fill="#8b949e" font-size="11" transform="rotate(-30,870.8,448)">clear_median</text>
<text x="900.5" y="448" text-anchor="end" fill="#8b949e" font-size="11" transform="rotate(-30,900.5,448)">clear_stddev</text>
<text x="930.2" y="448" text-anchor="end" fill="#8b949e" font-size="11" transform="rotate(-30,930.2,448)">clear_cv</text>
<text x="14" y="272.5" text-anchor="middle" fill="#484f58" font-size="11" transform="rotate(-90,14,272.5)">Time (ms)</text>
<circle cx="65" cy="69" r="5" fill="#58a6ff"/>
<text x="75" y="73" fill="#c9d1d9" font-size="12">RG::LIST</text>
<circle cx="220" cy="69" r="5" fill="#FF9800"/>
<text x="230" y="73" fill="#c9d1d9" font-size="12">std::list</text>
<circle cx="375" cy="69" r="5" fill="#4CAF50"/>
<text x="385" y="73" fill="#c9d1d9" font-size="12">std::forward_list</text>
<circle cx="530" cy="69" r="5" fill="#BB86FC"/>
<text x="540" y="73" fill="#c9d1d9" font-size="12">boost::list</text>
<circle cx="685" cy="69" r="5" fill="#F472B6"/>
<text x="695" y="73" fill="#c9d1d9" font-size="12">eastl::list</text>
<text x="480.0" y="20" text-anchor="middle" fill="#58a6ff" font-size="15" font-weight="700">RG::LIST Benchmark — 2026-04-27</text>
</svg>