<svg xmlns="http://www.w3.org/2000/svg" viewBox="0 0 960 500" font-family="-apple-system,BlinkMacSystemFont,Segoe UI,sans-serif">
<rect width="960" height="500" rx="10" fill="#0d1117"/>
<rect x="55" y="115" width="890" height="315" fill="#161b22" rx="4"/>
<line x1="55" y1="425.6" x2="945" y2="425.6" stroke="#21262d"/>
<text x="47" y="429.5720211174096" text-anchor="end" fill="#484f58" font-size="10">0µs</text>
<line x1="55" y1="413.1" x2="945" y2="413.1" stroke="#21262d"/>
<text x="47" y="417.0637251650359" text-anchor="end" fill="#484f58" font-size="10">0µs</text>
<line x1="55" y1="403.6" x2="945" y2="403.6" stroke="#21262d"/>
<text x="47" y="407.60156455225354" text-anchor="end" fill="#484f58" font-size="10">0µs</text>
<line x1="55" y1="394.1" x2="945" y2="394.1" stroke="#21262d"/>
<text x="47" y="398.13940393947115" text-anchor="end" fill="#484f58" font-size="10">0µs</text>
<line x1="55" y1="381.6" x2="945" y2="381.6" stroke="#21262d"/>
<text x="47" y="385.63110798709755" text-anchor="end" fill="#484f58" font-size="10">0µs</text>
<line x1="55" y1="372.2" x2="945" y2="372.2" stroke="#21262d"/>
<text x="47" y="376.16894737431517" text-anchor="end" fill="#484f58" font-size="10">0µs</text>
<line x1="55" y1="362.7" x2="945" y2="362.7" stroke="#21262d"/>
<text x="47" y="366.7067867615328" text-anchor="end" fill="#484f58" font-size="10">0µs</text>
<line x1="55" y1="350.2" x2="945" y2="350.2" stroke="#21262d"/>
<text x="47" y="354.1984908091591" text-anchor="end" fill="#484f58" font-size="10">0µs</text>
<line x1="55" y1="340.7" x2="945" y2="340.7" stroke="#21262d"/>
<text x="47" y="344.73633019637674" text-anchor="end" fill="#484f58" font-size="10">0µs</text>
<line x1="55" y1="331.3" x2="945" y2="331.3" stroke="#21262d"/>
<text x="47" y="335.27416958359436" text-anchor="end" fill="#484f58" font-size="10">0µs</text>
<line x1="55" y1="318.8" x2="945" y2="318.8" stroke="#21262d"/>
<text x="47" y="322.76587363122076" text-anchor="end" fill="#484f58" font-size="10">0µs</text>
<line x1="55" y1="309.3" x2="945" y2="309.3" stroke="#21262d"/>
<text x="47" y="313.3037130184383" text-anchor="end" fill="#484f58" font-size="10">0µs</text>
<line x1="55" y1="299.8" x2="945" y2="299.8" stroke="#21262d"/>
<text x="47" y="303.841552405656" text-anchor="end" fill="#484f58" font-size="10">0µs</text>
<line x1="55" y1="287.3" x2="945" y2="287.3" stroke="#21262d"/>
<text x="47" y="291.33325645328233" text-anchor="end" fill="#484f58" font-size="10">0µs</text>
<line x1="55" y1="277.9" x2="945" y2="277.9" stroke="#21262d"/>
<text x="47" y="281.87109584049995" text-anchor="end" fill="#484f58" font-size="10">0µs</text>
<line x1="55" y1="268.4" x2="945" y2="268.4" stroke="#21262d"/>
<text x="47" y="272.4089352277176" text-anchor="end" fill="#484f58" font-size="10">0µs</text>
<line x1="55" y1="255.9" x2="945" y2="255.9" stroke="#21262d"/>
<text x="47" y="259.9006392753439" text-anchor="end" fill="#484f58" font-size="10">0µs</text>
<line x1="55" y1="246.4" x2="945" y2="246.4" stroke="#21262d"/>
<text x="47" y="250.43847866256155" text-anchor="end" fill="#484f58" font-size="10">1µs</text>
<line x1="55" y1="237.0" x2="945" y2="237.0" stroke="#21262d"/>
<text x="47" y="240.97631804977914" text-anchor="end" fill="#484f58" font-size="10">2µs</text>
<line x1="55" y1="224.5" x2="945" y2="224.5" stroke="#21262d"/>
<text x="47" y="228.46802209740554" text-anchor="end" fill="#484f58" font-size="10">5µs</text>
<line x1="55" y1="215.0" x2="945" y2="215.0" stroke="#21262d"/>
<text x="47" y="219.00586148462313" text-anchor="end" fill="#484f58" font-size="10">10µs</text>
<line x1="55" y1="205.5" x2="945" y2="205.5" stroke="#21262d"/>
<text x="47" y="209.54370087184077" text-anchor="end" fill="#484f58" font-size="10">20µs</text>
<line x1="55" y1="193.0" x2="945" y2="193.0" stroke="#21262d"/>
<text x="47" y="197.0354049194671" text-anchor="end" fill="#484f58" font-size="10">50µs</text>
<line x1="55" y1="183.6" x2="945" y2="183.6" stroke="#21262d"/>
<text x="47" y="187.57324430668473" text-anchor="end" fill="#484f58" font-size="10">100µs</text>
<line x1="55" y1="174.1" x2="945" y2="174.1" stroke="#21262d"/>
<text x="47" y="178.11108369390234" text-anchor="end" fill="#484f58" font-size="10">200µs</text>
<line x1="55" y1="161.6" x2="945" y2="161.6" stroke="#21262d"/>
<text x="47" y="165.60278774152872" text-anchor="end" fill="#484f58" font-size="10">500µs</text>
<line x1="55" y1="152.1" x2="945" y2="152.1" stroke="#21262d"/>
<text x="47" y="156.14062712874633" text-anchor="end" fill="#484f58" font-size="10">1ms</text>
<line x1="55" y1="142.7" x2="945" y2="142.7" stroke="#21262d"/>
<text x="47" y="146.67846651596395" text-anchor="end" fill="#484f58" font-size="10">2ms</text>
<line x1="55" y1="130.2" x2="945" y2="130.2" stroke="#21262d"/>
<text x="47" y="134.17017056359032" text-anchor="end" fill="#484f58" font-size="10">5ms</text>
<line x1="55" y1="120.7" x2="945" y2="120.7" stroke="#21262d"/>
<text x="47" y="124.70800995080793" text-anchor="end" fill="#484f58" font-size="10">10ms</text>
<line x1="84.7" y1="115" x2="84.7" y2="430" stroke="#30363d" stroke-width="1" stroke-dasharray="4,4"/>
<line x1="114.3" y1="115" x2="114.3" y2="430" stroke="#30363d" stroke-width="1" stroke-dasharray="4,4"/>
<line x1="144.0" y1="115" x2="144.0" y2="430" stroke="#30363d" stroke-width="1" stroke-dasharray="4,4"/>
<line x1="173.7" y1="115" x2="173.7" y2="430" stroke="#30363d" stroke-width="1" stroke-dasharray="4,4"/>
<line x1="203.3" y1="115" x2="203.3" y2="430" stroke="#30363d" stroke-width="1" stroke-dasharray="4,4"/>
<line x1="233.0" y1="115" x2="233.0" y2="430" stroke="#30363d" stroke-width="1" stroke-dasharray="4,4"/>
<line x1="262.7" y1="115" x2="262.7" y2="430" stroke="#30363d" stroke-width="1" stroke-dasharray="4,4"/>
<line x1="292.3" y1="115" x2="292.3" y2="430" stroke="#30363d" stroke-width="1" stroke-dasharray="4,4"/>
<line x1="322.0" y1="115" x2="322.0" y2="430" stroke="#30363d" stroke-width="1" stroke-dasharray="4,4"/>
<line x1="351.7" y1="115" x2="351.7" y2="430" stroke="#30363d" stroke-width="1" stroke-dasharray="4,4"/>
<line x1="381.3" y1="115" x2="381.3" y2="430" stroke="#30363d" stroke-width="1" stroke-dasharray="4,4"/>
<line x1="411.0" y1="115" x2="411.0" y2="430" stroke="#30363d" stroke-width="1" stroke-dasharray="4,4"/>
<line x1="440.7" y1="115" x2="440.7" y2="430" stroke="#30363d" stroke-width="1" stroke-dasharray="4,4"/>
<line x1="470.3" y1="115" x2="470.3" y2="430" stroke="#30363d" stroke-width="1" stroke-dasharray="4,4"/>
<line x1="500.0" y1="115" x2="500.0" y2="430" stroke="#30363d" stroke-width="1" stroke-dasharray="4,4"/>
<line x1="529.7" y1="115" x2="529.7" y2="430" stroke="#30363d" stroke-width="1" stroke-dasharray="4,4"/>
<line x1="559.3" y1="115" x2="559.3" y2="430" stroke="#30363d" stroke-width="1" stroke-dasharray="4,4"/>
<line x1="589.0" y1="115" x2="589.0" y2="430" stroke="#30363d" stroke-width="1" stroke-dasharray="4,4"/>
<line x1="618.7" y1="115" x2="618.7" y2="430" stroke="#30363d" stroke-width="1" stroke-dasharray="4,4"/>
<line x1="648.3" y1="115" x2="648.3" y2="430" stroke="#30363d" stroke-width="1" stroke-dasharray="4,4"/>
<line x1="678.0" y1="115" x2="678.0" y2="430" stroke="#30363d" stroke-width="1" stroke-dasharray="4,4"/>
<line x1="707.7" y1="115" x2="707.7" y2="430" stroke="#30363d" stroke-width="1" stroke-dasharray="4,4"/>
<line x1="737.3" y1="115" x2="737.3" y2="430" stroke="#30363d" stroke-width="1" stroke-dasharray="4,4"/>
<line x1="767.0" y1="115" x2="767.0" y2="430" stroke="#30363d" stroke-width="1" stroke-dasharray="4,4"/>
<line x1="796.7" y1="115" x2="796.7" y2="430" stroke="#30363d" stroke-width="1" stroke-dasharray="4,4"/>
<line x1="826.3" y1="115" x2="826.3" y2="430" stroke="#30363d" stroke-width="1" stroke-dasharray="4,4"/>
<line x1="856.0" y1="115" x2="856.0" y2="430" stroke="#30363d" stroke-width="1" stroke-dasharray="4,4"/>
<line x1="885.7" y1="115" x2="885.7" y2="430" stroke="#30363d" stroke-width="1" stroke-dasharray="4,4"/>
<line x1="915.3" y1="115" x2="915.3" y2="430" stroke="#30363d" stroke-width="1" stroke-dasharray="4,4"/>
<path d="M69.8,140.8 L99.5,140.5 L129.2,140.6 L158.8,189.0 L188.5,389.2 L218.2,139.9 L247.8,139.6 L277.5,139.5 L307.2,192.7 L336.8,393.9 L366.5,154.0 L396.2,154.1 L425.8,154.0 L455.5,236.2 L485.2,422.9 L514.8,153.0 L544.5,152.9 L574.2,153.0 L603.8,208.8 L633.5,396.7 L663.2,157.7 L692.8,157.3 L722.5,157.7 L752.2,201.4 L781.8,384.8 L811.5,139.1 L841.2,139.4 L870.8,139.1 L900.5,186.3 L930.2,387.7" fill="none" stroke="#58a6ff" stroke-width="8" stroke-linejoin="round" stroke-linecap="round" opacity="0.12"/>
<path d="M69.8,140.8 L99.5,140.5 L129.2,140.6 L158.8,189.0 L188.5,389.2 L218.2,139.9 L247.8,139.6 L277.5,139.5 L307.2,192.7 L336.8,393.9 L366.5,154.0 L396.2,154.1 L425.8,154.0 L455.5,236.2 L485.2,422.9 L514.8,153.0 L544.5,152.9 L574.2,153.0 L603.8,208.8 L633.5,396.7 L663.2,157.7 L692.8,157.3 L722.5,157.7 L752.2,201.4 L781.8,384.8 L811.5,139.1 L841.2,139.4 L870.8,139.1 L900.5,186.3 L930.2,387.7" fill="none" stroke="#58a6ff" stroke-width="3.5" stroke-linejoin="round" stroke-linecap="round"/>
<circle cx="69.8" cy="140.8" r="6" fill="#58a6ff" opacity="0.2"/>
<circle cx="69.8" cy="140.8" r="4" fill="#58a6ff" stroke="#0d1117" stroke-width="2.5"/>
<circle cx="99.5" cy="140.5" r="6" fill="#58a6ff" opacity="0.2"/>
<circle cx="99.5" cy="140.5" r="4" fill="#58a6ff" stroke="#0d1117" stroke-width="2.5"/>
<circle cx="129.2" cy="140.6" r="6" fill="#58a6ff" opacity="0.2"/>
<circle cx="129.2" cy="140.6" r="4" fill="#58a6ff" stroke="#0d1117" stroke-width="2.5"/>
<circle cx="158.8" cy="189.0" r="6" fill="#58a6ff" opacity="0.2"/>
<circle cx="158.8" cy="189.0" r="4" fill="#58a6ff" stroke="#0d1117" stroke-width="2.5"/>
<circle cx="188.5" cy="389.2" r="6" fill="#58a6ff" opacity="0.2"/>
<circle cx="188.5" cy="389.2" r="4" fill="#58a6ff" stroke="#0d1117" stroke-width="2.5"/>
<circle cx="218.2" cy="139.9" r="6" fill="#58a6ff" opacity="0.2"/>
<circle cx="218.2" cy="139.9" r="4" fill="#58a6ff" stroke="#0d1117" stroke-width="2.5"/>
<circle cx="247.8" cy="139.6" r="6" fill="#58a6ff" opacity="0.2"/>
<circle cx="247.8" cy="139.6" r="4" fill="#58a6ff" stroke="#0d1117" stroke-width="2.5"/>
<circle cx="277.5" cy="139.5" r="6" fill="#58a6ff" opacity="0.2"/>
<circle cx="277.5" cy="139.5" r="4" fill="#58a6ff" stroke="#0d1117" stroke-width="2.5"/>
<circle cx="307.2" cy="192.7" r="6" fill="#58a6ff" opacity="0.2"/>
<circle cx="307.2" cy="192.7" r="4" fill="#58a6ff" stroke="#0d1117" stroke-width="2.5"/>
<circle cx="336.8" cy="393.9" r="6" fill="#58a6ff" opacity="0.2"/>
<circle cx="336.8" cy="393.9" r="4" fill="#58a6ff" stroke="#0d1117" stroke-width="2.5"/>
<circle cx="366.5" cy="154.0" r="6" fill="#58a6ff" opacity="0.2"/>
<circle cx="366.5" cy="154.0" r="4" fill="#58a6ff" stroke="#0d1117" stroke-width="2.5"/>
<circle cx="396.2" cy="154.1" r="6" fill="#58a6ff" opacity="0.2"/>
<circle cx="396.2" cy="154.1" r="4" fill="#58a6ff" stroke="#0d1117" stroke-width="2.5"/>
<circle cx="425.8" cy="154.0" r="6" fill="#58a6ff" opacity="0.2"/>
<circle cx="425.8" cy="154.0" r="4" fill="#58a6ff" stroke="#0d1117" stroke-width="2.5"/>
<circle cx="455.5" cy="236.2" r="6" fill="#58a6ff" opacity="0.2"/>
<circle cx="455.5" cy="236.2" r="4" fill="#58a6ff" stroke="#0d1117" stroke-width="2.5"/>
<circle cx="485.2" cy="422.9" r="6" fill="#58a6ff" opacity="0.2"/>
<circle cx="485.2" cy="422.9" r="4" fill="#58a6ff" stroke="#0d1117" stroke-width="2.5"/>
<circle cx="514.8" cy="153.0" r="6" fill="#58a6ff" opacity="0.2"/>
<circle cx="514.8" cy="153.0" r="4" fill="#58a6ff" stroke="#0d1117" stroke-width="2.5"/>
<circle cx="544.5" cy="152.9" r="6" fill="#58a6ff" opacity="0.2"/>
<circle cx="544.5" cy="152.9" r="4" fill="#58a6ff" stroke="#0d1117" stroke-width="2.5"/>
<circle cx="574.2" cy="153.0" r="6" fill="#58a6ff" opacity="0.2"/>
<circle cx="574.2" cy="153.0" r="4" fill="#58a6ff" stroke="#0d1117" stroke-width="2.5"/>
<circle cx="603.8" cy="208.8" r="6" fill="#58a6ff" opacity="0.2"/>
<circle cx="603.8" cy="208.8" r="4" fill="#58a6ff" stroke="#0d1117" stroke-width="2.5"/>
<circle cx="633.5" cy="396.7" r="6" fill="#58a6ff" opacity="0.2"/>
<circle cx="633.5" cy="396.7" r="4" fill="#58a6ff" stroke="#0d1117" stroke-width="2.5"/>
<circle cx="663.2" cy="157.7" r="6" fill="#58a6ff" opacity="0.2"/>
<circle cx="663.2" cy="157.7" r="4" fill="#58a6ff" stroke="#0d1117" stroke-width="2.5"/>
<circle cx="692.8" cy="157.3" r="6" fill="#58a6ff" opacity="0.2"/>
<circle cx="692.8" cy="157.3" r="4" fill="#58a6ff" stroke="#0d1117" stroke-width="2.5"/>
<circle cx="722.5" cy="157.7" r="6" fill="#58a6ff" opacity="0.2"/>
<circle cx="722.5" cy="157.7" r="4" fill="#58a6ff" stroke="#0d1117" stroke-width="2.5"/>
<circle cx="752.2" cy="201.4" r="6" fill="#58a6ff" opacity="0.2"/>
<circle cx="752.2" cy="201.4" r="4" fill="#58a6ff" stroke="#0d1117" stroke-width="2.5"/>
<circle cx="781.8" cy="384.8" r="6" fill="#58a6ff" opacity="0.2"/>
<circle cx="781.8" cy="384.8" r="4" fill="#58a6ff" stroke="#0d1117" stroke-width="2.5"/>
<circle cx="811.5" cy="139.1" r="6" fill="#58a6ff" opacity="0.2"/>
<circle cx="811.5" cy="139.1" r="4" fill="#58a6ff" stroke="#0d1117" stroke-width="2.5"/>
<circle cx="841.2" cy="139.4" r="6" fill="#58a6ff" opacity="0.2"/>
<circle cx="841.2" cy="139.4" r="4" fill="#58a6ff" stroke="#0d1117" stroke-width="2.5"/>
<circle cx="870.8" cy="139.1" r="6" fill="#58a6ff" opacity="0.2"/>
<circle cx="870.8" cy="139.1" r="4" fill="#58a6ff" stroke="#0d1117" stroke-width="2.5"/>
<circle cx="900.5" cy="186.3" r="6" fill="#58a6ff" opacity="0.2"/>
<circle cx="900.5" cy="186.3" r="4" fill="#58a6ff" stroke="#0d1117" stroke-width="2.5"/>
<circle cx="930.2" cy="387.7" r="6" fill="#58a6ff" opacity="0.2"/>
<circle cx="930.2" cy="387.7" r="4" fill="#58a6ff" stroke="#0d1117" stroke-width="2.5"/>
<path d="M69.8,121.5 L99.5,121.5 L129.2,121.5 L158.8,205.9 L188.5,425.1 L218.2,120.7 L247.8,120.5 L277.5,120.5 L307.2,181.5 L336.8,401.7 L366.5,129.9 L396.2,130.2 L425.8,130.2 L455.5,184.0 L485.2,394.6 L514.8,130.3 L544.5,130.3 L574.2,130.3 L603.8,203.3 L633.5,413.7 L663.2,157.7 L692.8,157.8 L722.5,157.8 L752.2,225.2 L781.8,408.2 L811.5,121.6 L841.2,121.7 L870.8,121.8 L900.5,186.0 L930.2,405.0" fill="none" stroke="#FF9800" stroke-width="8" stroke-linejoin="round" stroke-linecap="round" opacity="0.12"/>
<path d="M69.8,121.5 L99.5,121.5 L129.2,121.5 L158.8,205.9 L188.5,425.1 L218.2,120.7 L247.8,120.5 L277.5,120.5 L307.2,181.5 L336.8,401.7 L366.5,129.9 L396.2,130.2 L425.8,130.2 L455.5,184.0 L485.2,394.6 L514.8,130.3 L544.5,130.3 L574.2,130.3 L603.8,203.3 L633.5,413.7 L663.2,157.7 L692.8,157.8 L722.5,157.8 L752.2,225.2 L781.8,408.2 L811.5,121.6 L841.2,121.7 L870.8,121.8 L900.5,186.0 L930.2,405.0" fill="none" stroke="#FF9800" stroke-width="3.5" stroke-linejoin="round" stroke-linecap="round"/>
<circle cx="69.8" cy="121.5" r="6" fill="#FF9800" opacity="0.2"/>
<circle cx="69.8" cy="121.5" r="4" fill="#FF9800" stroke="#0d1117" stroke-width="2.5"/>
<circle cx="99.5" cy="121.5" r="6" fill="#FF9800" opacity="0.2"/>
<circle cx="99.5" cy="121.5" r="4" fill="#FF9800" stroke="#0d1117" stroke-width="2.5"/>
<circle cx="129.2" cy="121.5" r="6" fill="#FF9800" opacity="0.2"/>
<circle cx="129.2" cy="121.5" r="4" fill="#FF9800" stroke="#0d1117" stroke-width="2.5"/>
<circle cx="158.8" cy="205.9" r="6" fill="#FF9800" opacity="0.2"/>
<circle cx="158.8" cy="205.9" r="4" fill="#FF9800" stroke="#0d1117" stroke-width="2.5"/>
<circle cx="188.5" cy="425.1" r="6" fill="#FF9800" opacity="0.2"/>
<circle cx="188.5" cy="425.1" r="4" fill="#FF9800" stroke="#0d1117" stroke-width="2.5"/>
<circle cx="218.2" cy="120.7" r="6" fill="#FF9800" opacity="0.2"/>
<circle cx="218.2" cy="120.7" r="4" fill="#FF9800" stroke="#0d1117" stroke-width="2.5"/>
<circle cx="247.8" cy="120.5" r="6" fill="#FF9800" opacity="0.2"/>
<circle cx="247.8" cy="120.5" r="4" fill="#FF9800" stroke="#0d1117" stroke-width="2.5"/>
<circle cx="277.5" cy="120.5" r="6" fill="#FF9800" opacity="0.2"/>
<circle cx="277.5" cy="120.5" r="4" fill="#FF9800" stroke="#0d1117" stroke-width="2.5"/>
<circle cx="307.2" cy="181.5" r="6" fill="#FF9800" opacity="0.2"/>
<circle cx="307.2" cy="181.5" r="4" fill="#FF9800" stroke="#0d1117" stroke-width="2.5"/>
<circle cx="336.8" cy="401.7" r="6" fill="#FF9800" opacity="0.2"/>
<circle cx="336.8" cy="401.7" r="4" fill="#FF9800" stroke="#0d1117" stroke-width="2.5"/>
<circle cx="366.5" cy="129.9" r="6" fill="#FF9800" opacity="0.2"/>
<circle cx="366.5" cy="129.9" r="4" fill="#FF9800" stroke="#0d1117" stroke-width="2.5"/>
<circle cx="396.2" cy="130.2" r="6" fill="#FF9800" opacity="0.2"/>
<circle cx="396.2" cy="130.2" r="4" fill="#FF9800" stroke="#0d1117" stroke-width="2.5"/>
<circle cx="425.8" cy="130.2" r="6" fill="#FF9800" opacity="0.2"/>
<circle cx="425.8" cy="130.2" r="4" fill="#FF9800" stroke="#0d1117" stroke-width="2.5"/>
<circle cx="455.5" cy="184.0" r="6" fill="#FF9800" opacity="0.2"/>
<circle cx="455.5" cy="184.0" r="4" fill="#FF9800" stroke="#0d1117" stroke-width="2.5"/>
<circle cx="485.2" cy="394.6" r="6" fill="#FF9800" opacity="0.2"/>
<circle cx="485.2" cy="394.6" r="4" fill="#FF9800" stroke="#0d1117" stroke-width="2.5"/>
<circle cx="514.8" cy="130.3" r="6" fill="#FF9800" opacity="0.2"/>
<circle cx="514.8" cy="130.3" r="4" fill="#FF9800" stroke="#0d1117" stroke-width="2.5"/>
<circle cx="544.5" cy="130.3" r="6" fill="#FF9800" opacity="0.2"/>
<circle cx="544.5" cy="130.3" r="4" fill="#FF9800" stroke="#0d1117" stroke-width="2.5"/>
<circle cx="574.2" cy="130.3" r="6" fill="#FF9800" opacity="0.2"/>
<circle cx="574.2" cy="130.3" r="4" fill="#FF9800" stroke="#0d1117" stroke-width="2.5"/>
<circle cx="603.8" cy="203.3" r="6" fill="#FF9800" opacity="0.2"/>
<circle cx="603.8" cy="203.3" r="4" fill="#FF9800" stroke="#0d1117" stroke-width="2.5"/>
<circle cx="633.5" cy="413.7" r="6" fill="#FF9800" opacity="0.2"/>
<circle cx="633.5" cy="413.7" r="4" fill="#FF9800" stroke="#0d1117" stroke-width="2.5"/>
<circle cx="663.2" cy="157.7" r="6" fill="#FF9800" opacity="0.2"/>
<circle cx="663.2" cy="157.7" r="4" fill="#FF9800" stroke="#0d1117" stroke-width="2.5"/>
<circle cx="692.8" cy="157.8" r="6" fill="#FF9800" opacity="0.2"/>
<circle cx="692.8" cy="157.8" r="4" fill="#FF9800" stroke="#0d1117" stroke-width="2.5"/>
<circle cx="722.5" cy="157.8" r="6" fill="#FF9800" opacity="0.2"/>
<circle cx="722.5" cy="157.8" r="4" fill="#FF9800" stroke="#0d1117" stroke-width="2.5"/>
<circle cx="752.2" cy="225.2" r="6" fill="#FF9800" opacity="0.2"/>
<circle cx="752.2" cy="225.2" r="4" fill="#FF9800" stroke="#0d1117" stroke-width="2.5"/>
<circle cx="781.8" cy="408.2" r="6" fill="#FF9800" opacity="0.2"/>
<circle cx="781.8" cy="408.2" r="4" fill="#FF9800" stroke="#0d1117" stroke-width="2.5"/>
<circle cx="811.5" cy="121.6" r="6" fill="#FF9800" opacity="0.2"/>
<circle cx="811.5" cy="121.6" r="4" fill="#FF9800" stroke="#0d1117" stroke-width="2.5"/>
<circle cx="841.2" cy="121.7" r="6" fill="#FF9800" opacity="0.2"/>
<circle cx="841.2" cy="121.7" r="4" fill="#FF9800" stroke="#0d1117" stroke-width="2.5"/>
<circle cx="870.8" cy="121.8" r="6" fill="#FF9800" opacity="0.2"/>
<circle cx="870.8" cy="121.8" r="4" fill="#FF9800" stroke="#0d1117" stroke-width="2.5"/>
<circle cx="900.5" cy="186.0" r="6" fill="#FF9800" opacity="0.2"/>
<circle cx="900.5" cy="186.0" r="4" fill="#FF9800" stroke="#0d1117" stroke-width="2.5"/>
<circle cx="930.2" cy="405.0" r="6" fill="#FF9800" opacity="0.2"/>
<circle cx="930.2" cy="405.0" r="4" fill="#FF9800" stroke="#0d1117" stroke-width="2.5"/>
<path d="M69.8,123.6 L99.5,123.6 L129.2,123.6 L158.8,195.6 L188.5,412.8 L218.2,120.9 L247.8,121.1 L277.5,121.0 L307.2,170.5 L336.8,390.1 L366.5,132.1 L396.2,131.9 L425.8,132.0 L455.5,192.7 L485.2,401.5 L514.8,131.9 L544.5,130.8 L574.2,131.1 L603.8,163.5 L633.5,373.4 L663.2,157.6 L692.8,148.7 L722.5,157.6 L752.2,151.2 L781.8,343.2 L811.5,122.9 L841.2,123.1 L870.8,123.2 L900.5,180.3 L930.2,398.0" fill="none" stroke="#4CAF50" stroke-width="8" stroke-linejoin="round" stroke-linecap="round" opacity="0.12"/>
<path d="M69.8,123.6 L99.5,123.6 L129.2,123.6 L158.8,195.6 L188.5,412.8 L218.2,120.9 L247.8,121.1 L277.5,121.0 L307.2,170.5 L336.8,390.1 L366.5,132.1 L396.2,131.9 L425.8,132.0 L455.5,192.7 L485.2,401.5 L514.8,131.9 L544.5,130.8 L574.2,131.1 L603.8,163.5 L633.5,373.4 L663.2,157.6 L692.8,148.7 L722.5,157.6 L752.2,151.2 L781.8,343.2 L811.5,122.9 L841.2,123.1 L870.8,123.2 L900.5,180.3 L930.2,398.0" fill="none" stroke="#4CAF50" stroke-width="3.5" stroke-linejoin="round" stroke-linecap="round"/>
<circle cx="69.8" cy="123.6" r="6" fill="#4CAF50" opacity="0.2"/>
<circle cx="69.8" cy="123.6" r="4" fill="#4CAF50" stroke="#0d1117" stroke-width="2.5"/>
<circle cx="99.5" cy="123.6" r="6" fill="#4CAF50" opacity="0.2"/>
<circle cx="99.5" cy="123.6" r="4" fill="#4CAF50" stroke="#0d1117" stroke-width="2.5"/>
<circle cx="129.2" cy="123.6" r="6" fill="#4CAF50" opacity="0.2"/>
<circle cx="129.2" cy="123.6" r="4" fill="#4CAF50" stroke="#0d1117" stroke-width="2.5"/>
<circle cx="158.8" cy="195.6" r="6" fill="#4CAF50" opacity="0.2"/>
<circle cx="158.8" cy="195.6" r="4" fill="#4CAF50" stroke="#0d1117" stroke-width="2.5"/>
<circle cx="188.5" cy="412.8" r="6" fill="#4CAF50" opacity="0.2"/>
<circle cx="188.5" cy="412.8" r="4" fill="#4CAF50" stroke="#0d1117" stroke-width="2.5"/>
<circle cx="218.2" cy="120.9" r="6" fill="#4CAF50" opacity="0.2"/>
<circle cx="218.2" cy="120.9" r="4" fill="#4CAF50" stroke="#0d1117" stroke-width="2.5"/>
<circle cx="247.8" cy="121.1" r="6" fill="#4CAF50" opacity="0.2"/>
<circle cx="247.8" cy="121.1" r="4" fill="#4CAF50" stroke="#0d1117" stroke-width="2.5"/>
<circle cx="277.5" cy="121.0" r="6" fill="#4CAF50" opacity="0.2"/>
<circle cx="277.5" cy="121.0" r="4" fill="#4CAF50" stroke="#0d1117" stroke-width="2.5"/>
<circle cx="307.2" cy="170.5" r="6" fill="#4CAF50" opacity="0.2"/>
<circle cx="307.2" cy="170.5" r="4" fill="#4CAF50" stroke="#0d1117" stroke-width="2.5"/>
<circle cx="336.8" cy="390.1" r="6" fill="#4CAF50" opacity="0.2"/>
<circle cx="336.8" cy="390.1" r="4" fill="#4CAF50" stroke="#0d1117" stroke-width="2.5"/>
<circle cx="366.5" cy="132.1" r="6" fill="#4CAF50" opacity="0.2"/>
<circle cx="366.5" cy="132.1" r="4" fill="#4CAF50" stroke="#0d1117" stroke-width="2.5"/>
<circle cx="396.2" cy="131.9" r="6" fill="#4CAF50" opacity="0.2"/>
<circle cx="396.2" cy="131.9" r="4" fill="#4CAF50" stroke="#0d1117" stroke-width="2.5"/>
<circle cx="425.8" cy="132.0" r="6" fill="#4CAF50" opacity="0.2"/>
<circle cx="425.8" cy="132.0" r="4" fill="#4CAF50" stroke="#0d1117" stroke-width="2.5"/>
<circle cx="455.5" cy="192.7" r="6" fill="#4CAF50" opacity="0.2"/>
<circle cx="455.5" cy="192.7" r="4" fill="#4CAF50" stroke="#0d1117" stroke-width="2.5"/>
<circle cx="485.2" cy="401.5" r="6" fill="#4CAF50" opacity="0.2"/>
<circle cx="485.2" cy="401.5" r="4" fill="#4CAF50" stroke="#0d1117" stroke-width="2.5"/>
<circle cx="514.8" cy="131.9" r="6" fill="#4CAF50" opacity="0.2"/>
<circle cx="514.8" cy="131.9" r="4" fill="#4CAF50" stroke="#0d1117" stroke-width="2.5"/>
<circle cx="544.5" cy="130.8" r="6" fill="#4CAF50" opacity="0.2"/>
<circle cx="544.5" cy="130.8" r="4" fill="#4CAF50" stroke="#0d1117" stroke-width="2.5"/>
<circle cx="574.2" cy="131.1" r="6" fill="#4CAF50" opacity="0.2"/>
<circle cx="574.2" cy="131.1" r="4" fill="#4CAF50" stroke="#0d1117" stroke-width="2.5"/>
<circle cx="603.8" cy="163.5" r="6" fill="#4CAF50" opacity="0.2"/>
<circle cx="603.8" cy="163.5" r="4" fill="#4CAF50" stroke="#0d1117" stroke-width="2.5"/>
<circle cx="633.5" cy="373.4" r="6" fill="#4CAF50" opacity="0.2"/>
<circle cx="633.5" cy="373.4" r="4" fill="#4CAF50" stroke="#0d1117" stroke-width="2.5"/>
<circle cx="663.2" cy="157.6" r="6" fill="#4CAF50" opacity="0.2"/>
<circle cx="663.2" cy="157.6" r="4" fill="#4CAF50" stroke="#0d1117" stroke-width="2.5"/>
<circle cx="692.8" cy="148.7" r="6" fill="#4CAF50" opacity="0.2"/>
<circle cx="692.8" cy="148.7" r="4" fill="#4CAF50" stroke="#0d1117" stroke-width="2.5"/>
<circle cx="722.5" cy="157.6" r="6" fill="#4CAF50" opacity="0.2"/>
<circle cx="722.5" cy="157.6" r="4" fill="#4CAF50" stroke="#0d1117" stroke-width="2.5"/>
<circle cx="752.2" cy="151.2" r="6" fill="#4CAF50" opacity="0.2"/>
<circle cx="752.2" cy="151.2" r="4" fill="#4CAF50" stroke="#0d1117" stroke-width="2.5"/>
<circle cx="781.8" cy="343.2" r="6" fill="#4CAF50" opacity="0.2"/>
<circle cx="781.8" cy="343.2" r="4" fill="#4CAF50" stroke="#0d1117" stroke-width="2.5"/>
<circle cx="811.5" cy="122.9" r="6" fill="#4CAF50" opacity="0.2"/>
<circle cx="811.5" cy="122.9" r="4" fill="#4CAF50" stroke="#0d1117" stroke-width="2.5"/>
<circle cx="841.2" cy="123.1" r="6" fill="#4CAF50" opacity="0.2"/>
<circle cx="841.2" cy="123.1" r="4" fill="#4CAF50" stroke="#0d1117" stroke-width="2.5"/>
<circle cx="870.8" cy="123.2" r="6" fill="#4CAF50" opacity="0.2"/>
<circle cx="870.8" cy="123.2" r="4" fill="#4CAF50" stroke="#0d1117" stroke-width="2.5"/>
<circle cx="900.5" cy="180.3" r="6" fill="#4CAF50" opacity="0.2"/>
<circle cx="900.5" cy="180.3" r="4" fill="#4CAF50" stroke="#0d1117" stroke-width="2.5"/>
<circle cx="930.2" cy="398.0" r="6" fill="#4CAF50" opacity="0.2"/>
<circle cx="930.2" cy="398.0" r="4" fill="#4CAF50" stroke="#0d1117" stroke-width="2.5"/>
<path d="M69.8,123.2 L99.5,123.3 L129.2,123.3 L158.8,185.6 L188.5,403.0 L218.2,121.1 L247.8,121.4 L277.5,121.1 L307.2,165.1 L336.8,384.4 L366.5,132.2 L396.2,132.0 L425.8,132.0 L455.5,190.8 L485.2,399.5 L514.8,132.1 L544.5,132.1 L574.2,132.1 L603.8,201.3 L633.5,409.9 L663.2,156.5 L692.8,156.3 L722.5,156.4 L752.2,214.5 L781.8,398.9 L811.5,123.1 L841.2,123.2 L870.8,123.2 L900.5,202.4 L930.2,420.0" fill="none" stroke="#BB86FC" stroke-width="8" stroke-linejoin="round" stroke-linecap="round" opacity="0.12"/>
<path d="M69.8,123.2 L99.5,123.3 L129.2,123.3 L158.8,185.6 L188.5,403.0 L218.2,121.1 L247.8,121.4 L277.5,121.1 L307.2,165.1 L336.8,384.4 L366.5,132.2 L396.2,132.0 L425.8,132.0 L455.5,190.8 L485.2,399.5 L514.8,132.1 L544.5,132.1 L574.2,132.1 L603.8,201.3 L633.5,409.9 L663.2,156.5 L692.8,156.3 L722.5,156.4 L752.2,214.5 L781.8,398.9 L811.5,123.1 L841.2,123.2 L870.8,123.2 L900.5,202.4 L930.2,420.0" fill="none" stroke="#BB86FC" stroke-width="3.5" stroke-linejoin="round" stroke-linecap="round"/>
<circle cx="69.8" cy="123.2" r="6" fill="#BB86FC" opacity="0.2"/>
<circle cx="69.8" cy="123.2" r="4" fill="#BB86FC" stroke="#0d1117" stroke-width="2.5"/>
<circle cx="99.5" cy="123.3" r="6" fill="#BB86FC" opacity="0.2"/>
<circle cx="99.5" cy="123.3" r="4" fill="#BB86FC" stroke="#0d1117" stroke-width="2.5"/>
<circle cx="129.2" cy="123.3" r="6" fill="#BB86FC" opacity="0.2"/>
<circle cx="129.2" cy="123.3" r="4" fill="#BB86FC" stroke="#0d1117" stroke-width="2.5"/>
<circle cx="158.8" cy="185.6" r="6" fill="#BB86FC" opacity="0.2"/>
<circle cx="158.8" cy="185.6" r="4" fill="#BB86FC" stroke="#0d1117" stroke-width="2.5"/>
<circle cx="188.5" cy="403.0" r="6" fill="#BB86FC" opacity="0.2"/>
<circle cx="188.5" cy="403.0" r="4" fill="#BB86FC" stroke="#0d1117" stroke-width="2.5"/>
<circle cx="218.2" cy="121.1" r="6" fill="#BB86FC" opacity="0.2"/>
<circle cx="218.2" cy="121.1" r="4" fill="#BB86FC" stroke="#0d1117" stroke-width="2.5"/>
<circle cx="247.8" cy="121.4" r="6" fill="#BB86FC" opacity="0.2"/>
<circle cx="247.8" cy="121.4" r="4" fill="#BB86FC" stroke="#0d1117" stroke-width="2.5"/>
<circle cx="277.5" cy="121.1" r="6" fill="#BB86FC" opacity="0.2"/>
<circle cx="277.5" cy="121.1" r="4" fill="#BB86FC" stroke="#0d1117" stroke-width="2.5"/>
<circle cx="307.2" cy="165.1" r="6" fill="#BB86FC" opacity="0.2"/>
<circle cx="307.2" cy="165.1" r="4" fill="#BB86FC" stroke="#0d1117" stroke-width="2.5"/>
<circle cx="336.8" cy="384.4" r="6" fill="#BB86FC" opacity="0.2"/>
<circle cx="336.8" cy="384.4" r="4" fill="#BB86FC" stroke="#0d1117" stroke-width="2.5"/>
<circle cx="366.5" cy="132.2" r="6" fill="#BB86FC" opacity="0.2"/>
<circle cx="366.5" cy="132.2" r="4" fill="#BB86FC" stroke="#0d1117" stroke-width="2.5"/>
<circle cx="396.2" cy="132.0" r="6" fill="#BB86FC" opacity="0.2"/>
<circle cx="396.2" cy="132.0" r="4" fill="#BB86FC" stroke="#0d1117" stroke-width="2.5"/>
<circle cx="425.8" cy="132.0" r="6" fill="#BB86FC" opacity="0.2"/>
<circle cx="425.8" cy="132.0" r="4" fill="#BB86FC" stroke="#0d1117" stroke-width="2.5"/>
<circle cx="455.5" cy="190.8" r="6" fill="#BB86FC" opacity="0.2"/>
<circle cx="455.5" cy="190.8" r="4" fill="#BB86FC" stroke="#0d1117" stroke-width="2.5"/>
<circle cx="485.2" cy="399.5" r="6" fill="#BB86FC" opacity="0.2"/>
<circle cx="485.2" cy="399.5" r="4" fill="#BB86FC" stroke="#0d1117" stroke-width="2.5"/>
<circle cx="514.8" cy="132.1" r="6" fill="#BB86FC" opacity="0.2"/>
<circle cx="514.8" cy="132.1" r="4" fill="#BB86FC" stroke="#0d1117" stroke-width="2.5"/>
<circle cx="544.5" cy="132.1" r="6" fill="#BB86FC" opacity="0.2"/>
<circle cx="544.5" cy="132.1" r="4" fill="#BB86FC" stroke="#0d1117" stroke-width="2.5"/>
<circle cx="574.2" cy="132.1" r="6" fill="#BB86FC" opacity="0.2"/>
<circle cx="574.2" cy="132.1" r="4" fill="#BB86FC" stroke="#0d1117" stroke-width="2.5"/>
<circle cx="603.8" cy="201.3" r="6" fill="#BB86FC" opacity="0.2"/>
<circle cx="603.8" cy="201.3" r="4" fill="#BB86FC" stroke="#0d1117" stroke-width="2.5"/>
<circle cx="633.5" cy="409.9" r="6" fill="#BB86FC" opacity="0.2"/>
<circle cx="633.5" cy="409.9" r="4" fill="#BB86FC" stroke="#0d1117" stroke-width="2.5"/>
<circle cx="663.2" cy="156.5" r="6" fill="#BB86FC" opacity="0.2"/>
<circle cx="663.2" cy="156.5" r="4" fill="#BB86FC" stroke="#0d1117" stroke-width="2.5"/>
<circle cx="692.8" cy="156.3" r="6" fill="#BB86FC" opacity="0.2"/>
<circle cx="692.8" cy="156.3" r="4" fill="#BB86FC" stroke="#0d1117" stroke-width="2.5"/>
<circle cx="722.5" cy="156.4" r="6" fill="#BB86FC" opacity="0.2"/>
<circle cx="722.5" cy="156.4" r="4" fill="#BB86FC" stroke="#0d1117" stroke-width="2.5"/>
<circle cx="752.2" cy="214.5" r="6" fill="#BB86FC" opacity="0.2"/>
<circle cx="752.2" cy="214.5" r="4" fill="#BB86FC" stroke="#0d1117" stroke-width="2.5"/>
<circle cx="781.8" cy="398.9" r="6" fill="#BB86FC" opacity="0.2"/>
<circle cx="781.8" cy="398.9" r="4" fill="#BB86FC" stroke="#0d1117" stroke-width="2.5"/>
<circle cx="811.5" cy="123.1" r="6" fill="#BB86FC" opacity="0.2"/>
<circle cx="811.5" cy="123.1" r="4" fill="#BB86FC" stroke="#0d1117" stroke-width="2.5"/>
<circle cx="841.2" cy="123.2" r="6" fill="#BB86FC" opacity="0.2"/>
<circle cx="841.2" cy="123.2" r="4" fill="#BB86FC" stroke="#0d1117" stroke-width="2.5"/>
<circle cx="870.8" cy="123.2" r="6" fill="#BB86FC" opacity="0.2"/>
<circle cx="870.8" cy="123.2" r="4" fill="#BB86FC" stroke="#0d1117" stroke-width="2.5"/>
<circle cx="900.5" cy="202.4" r="6" fill="#BB86FC" opacity="0.2"/>
<circle cx="900.5" cy="202.4" r="4" fill="#BB86FC" stroke="#0d1117" stroke-width="2.5"/>
<circle cx="930.2" cy="420.0" r="6" fill="#BB86FC" opacity="0.2"/>
<circle cx="930.2" cy="420.0" r="4" fill="#BB86FC" stroke="#0d1117" stroke-width="2.5"/>
<path d="M69.8,122.2 L99.5,122.5 L129.2,122.7 L158.8,173.6 L188.5,391.8 L218.2,121.6 L247.8,121.3 L277.5,121.6 L307.2,157.4 L336.8,376.9 L366.5,131.7 L396.2,131.5 L425.8,131.5 L455.5,184.2 L485.2,393.5 L514.8,131.7 L544.5,131.9 L574.2,131.9 L603.8,197.9 L633.5,406.8 L663.2,157.4 L692.8,157.3 L722.5,157.4 L752.2,221.6 L781.8,405.0 L811.5,122.6 L841.2,122.9 L870.8,123.0 L900.5,179.8 L930.2,397.6" fill="none" stroke="#F472B6" stroke-width="8" stroke-linejoin="round" stroke-linecap="round" opacity="0.12"/>
<path d="M69.8,122.2 L99.5,122.5 L129.2,122.7 L158.8,173.6 L188.5,391.8 L218.2,121.6 L247.8,121.3 L277.5,121.6 L307.2,157.4 L336.8,376.9 L366.5,131.7 L396.2,131.5 L425.8,131.5 L455.5,184.2 L485.2,393.5 L514.8,131.7 L544.5,131.9 L574.2,131.9 L603.8,197.9 L633.5,406.8 L663.2,157.4 L692.8,157.3 L722.5,157.4 L752.2,221.6 L781.8,405.0 L811.5,122.6 L841.2,122.9 L870.8,123.0 L900.5,179.8 L930.2,397.6" fill="none" stroke="#F472B6" stroke-width="3.5" stroke-linejoin="round" stroke-linecap="round"/>
<circle cx="69.8" cy="122.2" r="6" fill="#F472B6" opacity="0.2"/>
<circle cx="69.8" cy="122.2" r="4" fill="#F472B6" stroke="#0d1117" stroke-width="2.5"/>
<circle cx="99.5" cy="122.5" r="6" fill="#F472B6" opacity="0.2"/>
<circle cx="99.5" cy="122.5" r="4" fill="#F472B6" stroke="#0d1117" stroke-width="2.5"/>
<circle cx="129.2" cy="122.7" r="6" fill="#F472B6" opacity="0.2"/>
<circle cx="129.2" cy="122.7" r="4" fill="#F472B6" stroke="#0d1117" stroke-width="2.5"/>
<circle cx="158.8" cy="173.6" r="6" fill="#F472B6" opacity="0.2"/>
<circle cx="158.8" cy="173.6" r="4" fill="#F472B6" stroke="#0d1117" stroke-width="2.5"/>
<circle cx="188.5" cy="391.8" r="6" fill="#F472B6" opacity="0.2"/>
<circle cx="188.5" cy="391.8" r="4" fill="#F472B6" stroke="#0d1117" stroke-width="2.5"/>
<circle cx="218.2" cy="121.6" r="6" fill="#F472B6" opacity="0.2"/>
<circle cx="218.2" cy="121.6" r="4" fill="#F472B6" stroke="#0d1117" stroke-width="2.5"/>
<circle cx="247.8" cy="121.3" r="6" fill="#F472B6" opacity="0.2"/>
<circle cx="247.8" cy="121.3" r="4" fill="#F472B6" stroke="#0d1117" stroke-width="2.5"/>
<circle cx="277.5" cy="121.6" r="6" fill="#F472B6" opacity="0.2"/>
<circle cx="277.5" cy="121.6" r="4" fill="#F472B6" stroke="#0d1117" stroke-width="2.5"/>
<circle cx="307.2" cy="157.4" r="6" fill="#F472B6" opacity="0.2"/>
<circle cx="307.2" cy="157.4" r="4" fill="#F472B6" stroke="#0d1117" stroke-width="2.5"/>
<circle cx="336.8" cy="376.9" r="6" fill="#F472B6" opacity="0.2"/>
<circle cx="336.8" cy="376.9" r="4" fill="#F472B6" stroke="#0d1117" stroke-width="2.5"/>
<circle cx="366.5" cy="131.7" r="6" fill="#F472B6" opacity="0.2"/>
<circle cx="366.5" cy="131.7" r="4" fill="#F472B6" stroke="#0d1117" stroke-width="2.5"/>
<circle cx="396.2" cy="131.5" r="6" fill="#F472B6" opacity="0.2"/>
<circle cx="396.2" cy="131.5" r="4" fill="#F472B6" stroke="#0d1117" stroke-width="2.5"/>
<circle cx="425.8" cy="131.5" r="6" fill="#F472B6" opacity="0.2"/>
<circle cx="425.8" cy="131.5" r="4" fill="#F472B6" stroke="#0d1117" stroke-width="2.5"/>
<circle cx="455.5" cy="184.2" r="6" fill="#F472B6" opacity="0.2"/>
<circle cx="455.5" cy="184.2" r="4" fill="#F472B6" stroke="#0d1117" stroke-width="2.5"/>
<circle cx="485.2" cy="393.5" r="6" fill="#F472B6" opacity="0.2"/>
<circle cx="485.2" cy="393.5" r="4" fill="#F472B6" stroke="#0d1117" stroke-width="2.5"/>
<circle cx="514.8" cy="131.7" r="6" fill="#F472B6" opacity="0.2"/>
<circle cx="514.8" cy="131.7" r="4" fill="#F472B6" stroke="#0d1117" stroke-width="2.5"/>
<circle cx="544.5" cy="131.9" r="6" fill="#F472B6" opacity="0.2"/>
<circle cx="544.5" cy="131.9" r="4" fill="#F472B6" stroke="#0d1117" stroke-width="2.5"/>
<circle cx="574.2" cy="131.9" r="6" fill="#F472B6" opacity="0.2"/>
<circle cx="574.2" cy="131.9" r="4" fill="#F472B6" stroke="#0d1117" stroke-width="2.5"/>
<circle cx="603.8" cy="197.9" r="6" fill="#F472B6" opacity="0.2"/>
<circle cx="603.8" cy="197.9" r="4" fill="#F472B6" stroke="#0d1117" stroke-width="2.5"/>
<circle cx="633.5" cy="406.8" r="6" fill="#F472B6" opacity="0.2"/>
<circle cx="633.5" cy="406.8" r="4" fill="#F472B6" stroke="#0d1117" stroke-width="2.5"/>
<circle cx="663.2" cy="157.4" r="6" fill="#F472B6" opacity="0.2"/>
<circle cx="663.2" cy="157.4" r="4" fill="#F472B6" stroke="#0d1117" stroke-width="2.5"/>
<circle cx="692.8" cy="157.3" r="6" fill="#F472B6" opacity="0.2"/>
<circle cx="692.8" cy="157.3" r="4" fill="#F472B6" stroke="#0d1117" stroke-width="2.5"/>
<circle cx="722.5" cy="157.4" r="6" fill="#F472B6" opacity="0.2"/>
<circle cx="722.5" cy="157.4" r="4" fill="#F472B6" stroke="#0d1117" stroke-width="2.5"/>
<circle cx="752.2" cy="221.6" r="6" fill="#F472B6" opacity="0.2"/>
<circle cx="752.2" cy="221.6" r="4" fill="#F472B6" stroke="#0d1117" stroke-width="2.5"/>
<circle cx="781.8" cy="405.0" r="6" fill="#F472B6" opacity="0.2"/>
<circle cx="781.8" cy="405.0" r="4" fill="#F472B6" stroke="#0d1117" stroke-width="2.5"/>
<circle cx="811.5" cy="122.6" r="6" fill="#F472B6" opacity="0.2"/>
<circle cx="811.5" cy="122.6" r="4" fill="#F472B6" stroke="#0d1117" stroke-width="2.5"/>
<circle cx="841.2" cy="122.9" r="6" fill="#F472B6" opacity="0.2"/>
<circle cx="841.2" cy="122.9" r="4" fill="#F472B6" stroke="#0d1117" stroke-width="2.5"/>
<circle cx="870.8" cy="123.0" r="6" fill="#F472B6" opacity="0.2"/>
<circle cx="870.8" cy="123.0" r="4" fill="#F472B6" stroke="#0d1117" stroke-width="2.5"/>
<circle cx="900.5" cy="179.8" r="6" fill="#F472B6" opacity="0.2"/>
<circle cx="900.5" cy="179.8" r="4" fill="#F472B6" stroke="#0d1117" stroke-width="2.5"/>
<circle cx="930.2" cy="397.6" r="6" fill="#F472B6" opacity="0.2"/>
<circle cx="930.2" cy="397.6" r="4" fill="#F472B6" stroke="#0d1117" stroke-width="2.5"/>
<text x="69.8" y="448" text-anchor="end" fill="#8b949e" font-size="11" transform="rotate(-30,69.8,448)">push_back</text>
<text x="99.5" y="448" text-anchor="end" fill="#8b949e" font-size="11" transform="rotate(-30,99.5,448)">push_back_mean</text>
<text x="129.2" y="448" text-anchor="end" fill="#8b949e" font-size="11" transform="rotate(-30,129.2,448)">push_back_median</text>
<text x="158.8" y="448" text-anchor="end" fill="#8b949e" font-size="11" transform="rotate(-30,158.8,448)">push_back_stddev</text>
<text x="188.5" y="448" text-anchor="end" fill="#8b949e" font-size="11" transform="rotate(-30,188.5,448)">push_back_cv</text>
<text x="218.2" y="448" text-anchor="end" fill="#8b949e" font-size="11" transform="rotate(-30,218.2,448)">push_front</text>
<text x="247.8" y="448" text-anchor="end" fill="#8b949e" font-size="11" transform="rotate(-30,247.8,448)">push_front_mean</text>
<text x="277.5" y="448" text-anchor="end" fill="#8b949e" font-size="11" transform="rotate(-30,277.5,448)">push_front_median</text>
<text x="307.2" y="448" text-anchor="end" fill="#8b949e" font-size="11" transform="rotate(-30,307.2,448)">push_front_stddev</text>
<text x="336.8" y="448" text-anchor="end" fill="#8b949e" font-size="11" transform="rotate(-30,336.8,448)">push_front_cv</text>
<text x="366.5" y="448" text-anchor="end" fill="#8b949e" font-size="11" transform="rotate(-30,366.5,448)">insert_middle</text>
<text x="396.2" y="448" text-anchor="end" fill="#8b949e" font-size="11" transform="rotate(-30,396.2,448)">insert_middle_mean</text>
<text x="425.8" y="448" text-anchor="end" fill="#8b949e" font-size="11" transform="rotate(-30,425.8,448)">insert_middle_median</text>
<text x="455.5" y="448" text-anchor="end" fill="#8b949e" font-size="11" transform="rotate(-30,455.5,448)">insert_middle_stddev</text>
<text x="485.2" y="448" text-anchor="end" fill="#8b949e" font-size="11" transform="rotate(-30,485.2,448)">insert_middle_cv</text>
<text x="514.8" y="448" text-anchor="end" fill="#8b949e" font-size="11" transform="rotate(-30,514.8,448)">erase_middle</text>
<text x="544.5" y="448" text-anchor="end" fill="#8b949e" font-size="11" transform="rotate(-30,544.5,448)">erase_middle_mean</text>
<text x="574.2" y="448" text-anchor="end" fill="#8b949e" font-size="11" transform="rotate(-30,574.2,448)">erase_middle_median</text>
<text x="603.8" y="448" text-anchor="end" fill="#8b949e" font-size="11" transform="rotate(-30,603.8,448)">erase_middle_stddev</text>
<text x="633.5" y="448" text-anchor="end" fill="#8b949e" font-size="11" transform="rotate(-30,633.5,448)">erase_middle_cv</text>
<text x="663.2" y="448" text-anchor="end" fill="#8b949e" font-size="11" transform="rotate(-30,663.2,448)">iterate</text>
<text x="692.8" y="448" text-anchor="end" fill="#8b949e" font-size="11" transform="rotate(-30,692.8,448)">iterate_mean</text>
<text x="722.5" y="448" text-anchor="end" fill="#8b949e" font-size="11" transform="rotate(-30,722.5,448)">iterate_median</text>
<text x="752.2" y="448" text-anchor="end" fill="#8b949e" font-size="11" transform="rotate(-30,752.2,448)">iterate_stddev</text>
<text x="781.8" y="448" text-anchor="end" fill="#8b949e" font-size="11" transform="rotate(-30,781.8,448)">iterate_cv</text>
<text x="811.5" y="448" text-anchor="end" fill="#8b949e" font-size="11" transform="rotate(-30,811.5,448)">clear</text>
<text x="841.2" y="448" text-anchor="end" fill="#8b949e" font-size="11" transform="rotate(-30,841.2,448)">clear_mean</text>
<text x="870.8" y="448" text-anchor="end" fill="#8b949e" font-size="11" transform="rotate(-30,870.8,448)">clear_median</text>
<text x="900.5" y="448" text-anchor="end" fill="#8b949e" font-size="11" transform="rotate(-30,900.5,448)">clear_stddev</text>
<text x="930.2" y="448" text-anchor="end" fill="#8b949e" font-size="11" transform="rotate(-30,930.2,448)">clear_cv</text>
<text x="14" y="272.5" text-anchor="middle" fill="#484f58" font-size="11" transform="rotate(-90,14,272.5)">Time (ms)</text>
<circle cx="65" cy="69" r="5" fill="#58a6ff"/>
<text x="75" y="73" fill="#c9d1d9" font-size="12">RG::LIST</text>
<circle cx="220" cy="69" r="5" fill="#FF9800"/>
<text x="230" y="73" fill="#c9d1d9" font-size="12">std::list</text>
<circle cx="375" cy="69" r="5" fill="#4CAF50"/>
<text x="385" y="73" fill="#c9d1d9" font-size="12">std::forward_list</text>
<circle cx="530" cy="69" r="5" fill="#BB86FC"/>
<text x="540" y="73" fill="#c9d1d9" font-size="12">boost::list</text>
<circle cx="685" cy="69" r="5" fill="#F472B6"/>
<text x="695" y="73" fill="#c9d1d9" font-size="12">eastl::list</text>
<text x="480.0" y="20" text-anchor="middle" fill="#58a6ff" font-size="15" font-weight="700">RG::LIST Benchmark — 2026-04-13</text>
</svg>