<svg xmlns="http://www.w3.org/2000/svg" viewBox="0 0 960 500" font-family="-apple-system,BlinkMacSystemFont,Segoe UI,sans-serif">
<rect width="960" height="500" rx="10" fill="#0d1117"/>
<rect x="55" y="115" width="890" height="315" fill="#161b22" rx="4"/>
<line x1="55" y1="426.7" x2="945" y2="426.7" stroke="#21262d"/>
<text x="47" y="430.67930606151015" text-anchor="end" fill="#484f58" font-size="10">0µs</text>
<line x1="55" y1="417.3" x2="945" y2="417.3" stroke="#21262d"/>
<text x="47" y="421.26674740342094" text-anchor="end" fill="#484f58" font-size="10">0µs</text>
<line x1="55" y1="407.9" x2="945" y2="407.9" stroke="#21262d"/>
<text x="47" y="411.8541887453317" text-anchor="end" fill="#484f58" font-size="10">0µs</text>
<line x1="55" y1="395.4" x2="945" y2="395.4" stroke="#21262d"/>
<text x="47" y="399.41146301042835" text-anchor="end" fill="#484f58" font-size="10">0µs</text>
<line x1="55" y1="386.0" x2="945" y2="386.0" stroke="#21262d"/>
<text x="47" y="389.99890435233914" text-anchor="end" fill="#484f58" font-size="10">0µs</text>
<line x1="55" y1="376.6" x2="945" y2="376.6" stroke="#21262d"/>
<text x="47" y="380.5863456942499" text-anchor="end" fill="#484f58" font-size="10">0µs</text>
<line x1="55" y1="364.1" x2="945" y2="364.1" stroke="#21262d"/>
<text x="47" y="368.14361995934655" text-anchor="end" fill="#484f58" font-size="10">0µs</text>
<line x1="55" y1="354.7" x2="945" y2="354.7" stroke="#21262d"/>
<text x="47" y="358.73106130125734" text-anchor="end" fill="#484f58" font-size="10">0µs</text>
<line x1="55" y1="345.3" x2="945" y2="345.3" stroke="#21262d"/>
<text x="47" y="349.31850264316813" text-anchor="end" fill="#484f58" font-size="10">0µs</text>
<line x1="55" y1="332.9" x2="945" y2="332.9" stroke="#21262d"/>
<text x="47" y="336.87577690826475" text-anchor="end" fill="#484f58" font-size="10">0µs</text>
<line x1="55" y1="323.5" x2="945" y2="323.5" stroke="#21262d"/>
<text x="47" y="327.46321825017554" text-anchor="end" fill="#484f58" font-size="10">0µs</text>
<line x1="55" y1="314.1" x2="945" y2="314.1" stroke="#21262d"/>
<text x="47" y="318.05065959208633" text-anchor="end" fill="#484f58" font-size="10">0µs</text>
<line x1="55" y1="301.6" x2="945" y2="301.6" stroke="#21262d"/>
<text x="47" y="305.60793385718296" text-anchor="end" fill="#484f58" font-size="10">0µs</text>
<line x1="55" y1="292.2" x2="945" y2="292.2" stroke="#21262d"/>
<text x="47" y="296.19537519909375" text-anchor="end" fill="#484f58" font-size="10">0µs</text>
<line x1="55" y1="282.8" x2="945" y2="282.8" stroke="#21262d"/>
<text x="47" y="286.78281654100454" text-anchor="end" fill="#484f58" font-size="10">0µs</text>
<line x1="55" y1="270.3" x2="945" y2="270.3" stroke="#21262d"/>
<text x="47" y="274.3400908061011" text-anchor="end" fill="#484f58" font-size="10">0µs</text>
<line x1="55" y1="260.9" x2="945" y2="260.9" stroke="#21262d"/>
<text x="47" y="264.9275321480119" text-anchor="end" fill="#484f58" font-size="10">1µs</text>
<line x1="55" y1="251.5" x2="945" y2="251.5" stroke="#21262d"/>
<text x="47" y="255.51497348992274" text-anchor="end" fill="#484f58" font-size="10">2µs</text>
<line x1="55" y1="239.1" x2="945" y2="239.1" stroke="#21262d"/>
<text x="47" y="243.07224775501933" text-anchor="end" fill="#484f58" font-size="10">5µs</text>
<line x1="55" y1="229.7" x2="945" y2="229.7" stroke="#21262d"/>
<text x="47" y="233.65968909693015" text-anchor="end" fill="#484f58" font-size="10">10µs</text>
<line x1="55" y1="220.2" x2="945" y2="220.2" stroke="#21262d"/>
<text x="47" y="224.24713043884094" text-anchor="end" fill="#484f58" font-size="10">20µs</text>
<line x1="55" y1="207.8" x2="945" y2="207.8" stroke="#21262d"/>
<text x="47" y="211.8044047039375" text-anchor="end" fill="#484f58" font-size="10">50µs</text>
<line x1="55" y1="198.4" x2="945" y2="198.4" stroke="#21262d"/>
<text x="47" y="202.39184604584835" text-anchor="end" fill="#484f58" font-size="10">100µs</text>
<line x1="55" y1="189.0" x2="945" y2="189.0" stroke="#21262d"/>
<text x="47" y="192.97928738775914" text-anchor="end" fill="#484f58" font-size="10">200µs</text>
<line x1="55" y1="176.5" x2="945" y2="176.5" stroke="#21262d"/>
<text x="47" y="180.5365616528557" text-anchor="end" fill="#484f58" font-size="10">500µs</text>
<line x1="55" y1="167.1" x2="945" y2="167.1" stroke="#21262d"/>
<text x="47" y="171.12400299476656" text-anchor="end" fill="#484f58" font-size="10">1ms</text>
<line x1="55" y1="157.7" x2="945" y2="157.7" stroke="#21262d"/>
<text x="47" y="161.71144433667735" text-anchor="end" fill="#484f58" font-size="10">2ms</text>
<line x1="55" y1="145.3" x2="945" y2="145.3" stroke="#21262d"/>
<text x="47" y="149.26871860177394" text-anchor="end" fill="#484f58" font-size="10">5ms</text>
<line x1="55" y1="135.9" x2="945" y2="135.9" stroke="#21262d"/>
<text x="47" y="139.85615994368473" text-anchor="end" fill="#484f58" font-size="10">10ms</text>
<line x1="55" y1="126.4" x2="945" y2="126.4" stroke="#21262d"/>
<text x="47" y="130.44360128559552" text-anchor="end" fill="#484f58" font-size="10">20ms</text>
<line x1="84.7" y1="115" x2="84.7" y2="430" stroke="#30363d" stroke-width="1" stroke-dasharray="4,4"/>
<line x1="114.3" y1="115" x2="114.3" y2="430" stroke="#30363d" stroke-width="1" stroke-dasharray="4,4"/>
<line x1="144.0" y1="115" x2="144.0" y2="430" stroke="#30363d" stroke-width="1" stroke-dasharray="4,4"/>
<line x1="173.7" y1="115" x2="173.7" y2="430" stroke="#30363d" stroke-width="1" stroke-dasharray="4,4"/>
<line x1="203.3" y1="115" x2="203.3" y2="430" stroke="#30363d" stroke-width="1" stroke-dasharray="4,4"/>
<line x1="233.0" y1="115" x2="233.0" y2="430" stroke="#30363d" stroke-width="1" stroke-dasharray="4,4"/>
<line x1="262.7" y1="115" x2="262.7" y2="430" stroke="#30363d" stroke-width="1" stroke-dasharray="4,4"/>
<line x1="292.3" y1="115" x2="292.3" y2="430" stroke="#30363d" stroke-width="1" stroke-dasharray="4,4"/>
<line x1="322.0" y1="115" x2="322.0" y2="430" stroke="#30363d" stroke-width="1" stroke-dasharray="4,4"/>
<line x1="351.7" y1="115" x2="351.7" y2="430" stroke="#30363d" stroke-width="1" stroke-dasharray="4,4"/>
<line x1="381.3" y1="115" x2="381.3" y2="430" stroke="#30363d" stroke-width="1" stroke-dasharray="4,4"/>
<line x1="411.0" y1="115" x2="411.0" y2="430" stroke="#30363d" stroke-width="1" stroke-dasharray="4,4"/>
<line x1="440.7" y1="115" x2="440.7" y2="430" stroke="#30363d" stroke-width="1" stroke-dasharray="4,4"/>
<line x1="470.3" y1="115" x2="470.3" y2="430" stroke="#30363d" stroke-width="1" stroke-dasharray="4,4"/>
<line x1="500.0" y1="115" x2="500.0" y2="430" stroke="#30363d" stroke-width="1" stroke-dasharray="4,4"/>
<line x1="529.7" y1="115" x2="529.7" y2="430" stroke="#30363d" stroke-width="1" stroke-dasharray="4,4"/>
<line x1="559.3" y1="115" x2="559.3" y2="430" stroke="#30363d" stroke-width="1" stroke-dasharray="4,4"/>
<line x1="589.0" y1="115" x2="589.0" y2="430" stroke="#30363d" stroke-width="1" stroke-dasharray="4,4"/>
<line x1="618.7" y1="115" x2="618.7" y2="430" stroke="#30363d" stroke-width="1" stroke-dasharray="4,4"/>
<line x1="648.3" y1="115" x2="648.3" y2="430" stroke="#30363d" stroke-width="1" stroke-dasharray="4,4"/>
<line x1="678.0" y1="115" x2="678.0" y2="430" stroke="#30363d" stroke-width="1" stroke-dasharray="4,4"/>
<line x1="707.7" y1="115" x2="707.7" y2="430" stroke="#30363d" stroke-width="1" stroke-dasharray="4,4"/>
<line x1="737.3" y1="115" x2="737.3" y2="430" stroke="#30363d" stroke-width="1" stroke-dasharray="4,4"/>
<line x1="767.0" y1="115" x2="767.0" y2="430" stroke="#30363d" stroke-width="1" stroke-dasharray="4,4"/>
<line x1="796.7" y1="115" x2="796.7" y2="430" stroke="#30363d" stroke-width="1" stroke-dasharray="4,4"/>
<line x1="826.3" y1="115" x2="826.3" y2="430" stroke="#30363d" stroke-width="1" stroke-dasharray="4,4"/>
<line x1="856.0" y1="115" x2="856.0" y2="430" stroke="#30363d" stroke-width="1" stroke-dasharray="4,4"/>
<line x1="885.7" y1="115" x2="885.7" y2="430" stroke="#30363d" stroke-width="1" stroke-dasharray="4,4"/>
<line x1="915.3" y1="115" x2="915.3" y2="430" stroke="#30363d" stroke-width="1" stroke-dasharray="4,4"/>
<path d="M69.8,150.5 L99.5,150.0 L129.2,150.5 L158.8,178.0 L188.5,382.8 L218.2,149.0 L247.8,149.8 L277.5,149.0 L307.2,179.7 L336.8,384.7 L366.5,165.6 L396.2,165.3 L425.8,165.1 L455.5,219.3 L485.2,408.8 L514.8,164.6 L544.5,163.3 L574.2,163.1 L603.8,196.8 L633.5,388.3 L663.2,167.4 L692.8,167.2 L722.5,167.4 L752.2,212.5 L781.8,400.1 L811.5,147.4 L841.2,148.7 L870.8,147.4 L900.5,171.7 L930.2,377.8" fill="none" stroke="#58a6ff" stroke-width="8" stroke-linejoin="round" stroke-linecap="round" opacity="0.12"/>
<path d="M69.8,150.5 L99.5,150.0 L129.2,150.5 L158.8,178.0 L188.5,382.8 L218.2,149.0 L247.8,149.8 L277.5,149.0 L307.2,179.7 L336.8,384.7 L366.5,165.6 L396.2,165.3 L425.8,165.1 L455.5,219.3 L485.2,408.8 L514.8,164.6 L544.5,163.3 L574.2,163.1 L603.8,196.8 L633.5,388.3 L663.2,167.4 L692.8,167.2 L722.5,167.4 L752.2,212.5 L781.8,400.1 L811.5,147.4 L841.2,148.7 L870.8,147.4 L900.5,171.7 L930.2,377.8" fill="none" stroke="#58a6ff" stroke-width="3.5" stroke-linejoin="round" stroke-linecap="round"/>
<circle cx="69.8" cy="150.5" r="6" fill="#58a6ff" opacity="0.2"/>
<circle cx="69.8" cy="150.5" r="4" fill="#58a6ff" stroke="#0d1117" stroke-width="2.5"/>
<circle cx="99.5" cy="150.0" r="6" fill="#58a6ff" opacity="0.2"/>
<circle cx="99.5" cy="150.0" r="4" fill="#58a6ff" stroke="#0d1117" stroke-width="2.5"/>
<circle cx="129.2" cy="150.5" r="6" fill="#58a6ff" opacity="0.2"/>
<circle cx="129.2" cy="150.5" r="4" fill="#58a6ff" stroke="#0d1117" stroke-width="2.5"/>
<circle cx="158.8" cy="178.0" r="6" fill="#58a6ff" opacity="0.2"/>
<circle cx="158.8" cy="178.0" r="4" fill="#58a6ff" stroke="#0d1117" stroke-width="2.5"/>
<circle cx="188.5" cy="382.8" r="6" fill="#58a6ff" opacity="0.2"/>
<circle cx="188.5" cy="382.8" r="4" fill="#58a6ff" stroke="#0d1117" stroke-width="2.5"/>
<circle cx="218.2" cy="149.0" r="6" fill="#58a6ff" opacity="0.2"/>
<circle cx="218.2" cy="149.0" r="4" fill="#58a6ff" stroke="#0d1117" stroke-width="2.5"/>
<circle cx="247.8" cy="149.8" r="6" fill="#58a6ff" opacity="0.2"/>
<circle cx="247.8" cy="149.8" r="4" fill="#58a6ff" stroke="#0d1117" stroke-width="2.5"/>
<circle cx="277.5" cy="149.0" r="6" fill="#58a6ff" opacity="0.2"/>
<circle cx="277.5" cy="149.0" r="4" fill="#58a6ff" stroke="#0d1117" stroke-width="2.5"/>
<circle cx="307.2" cy="179.7" r="6" fill="#58a6ff" opacity="0.2"/>
<circle cx="307.2" cy="179.7" r="4" fill="#58a6ff" stroke="#0d1117" stroke-width="2.5"/>
<circle cx="336.8" cy="384.7" r="6" fill="#58a6ff" opacity="0.2"/>
<circle cx="336.8" cy="384.7" r="4" fill="#58a6ff" stroke="#0d1117" stroke-width="2.5"/>
<circle cx="366.5" cy="165.6" r="6" fill="#58a6ff" opacity="0.2"/>
<circle cx="366.5" cy="165.6" r="4" fill="#58a6ff" stroke="#0d1117" stroke-width="2.5"/>
<circle cx="396.2" cy="165.3" r="6" fill="#58a6ff" opacity="0.2"/>
<circle cx="396.2" cy="165.3" r="4" fill="#58a6ff" stroke="#0d1117" stroke-width="2.5"/>
<circle cx="425.8" cy="165.1" r="6" fill="#58a6ff" opacity="0.2"/>
<circle cx="425.8" cy="165.1" r="4" fill="#58a6ff" stroke="#0d1117" stroke-width="2.5"/>
<circle cx="455.5" cy="219.3" r="6" fill="#58a6ff" opacity="0.2"/>
<circle cx="455.5" cy="219.3" r="4" fill="#58a6ff" stroke="#0d1117" stroke-width="2.5"/>
<circle cx="485.2" cy="408.8" r="6" fill="#58a6ff" opacity="0.2"/>
<circle cx="485.2" cy="408.8" r="4" fill="#58a6ff" stroke="#0d1117" stroke-width="2.5"/>
<circle cx="514.8" cy="164.6" r="6" fill="#58a6ff" opacity="0.2"/>
<circle cx="514.8" cy="164.6" r="4" fill="#58a6ff" stroke="#0d1117" stroke-width="2.5"/>
<circle cx="544.5" cy="163.3" r="6" fill="#58a6ff" opacity="0.2"/>
<circle cx="544.5" cy="163.3" r="4" fill="#58a6ff" stroke="#0d1117" stroke-width="2.5"/>
<circle cx="574.2" cy="163.1" r="6" fill="#58a6ff" opacity="0.2"/>
<circle cx="574.2" cy="163.1" r="4" fill="#58a6ff" stroke="#0d1117" stroke-width="2.5"/>
<circle cx="603.8" cy="196.8" r="6" fill="#58a6ff" opacity="0.2"/>
<circle cx="603.8" cy="196.8" r="4" fill="#58a6ff" stroke="#0d1117" stroke-width="2.5"/>
<circle cx="633.5" cy="388.3" r="6" fill="#58a6ff" opacity="0.2"/>
<circle cx="633.5" cy="388.3" r="4" fill="#58a6ff" stroke="#0d1117" stroke-width="2.5"/>
<circle cx="663.2" cy="167.4" r="6" fill="#58a6ff" opacity="0.2"/>
<circle cx="663.2" cy="167.4" r="4" fill="#58a6ff" stroke="#0d1117" stroke-width="2.5"/>
<circle cx="692.8" cy="167.2" r="6" fill="#58a6ff" opacity="0.2"/>
<circle cx="692.8" cy="167.2" r="4" fill="#58a6ff" stroke="#0d1117" stroke-width="2.5"/>
<circle cx="722.5" cy="167.4" r="6" fill="#58a6ff" opacity="0.2"/>
<circle cx="722.5" cy="167.4" r="4" fill="#58a6ff" stroke="#0d1117" stroke-width="2.5"/>
<circle cx="752.2" cy="212.5" r="6" fill="#58a6ff" opacity="0.2"/>
<circle cx="752.2" cy="212.5" r="4" fill="#58a6ff" stroke="#0d1117" stroke-width="2.5"/>
<circle cx="781.8" cy="400.1" r="6" fill="#58a6ff" opacity="0.2"/>
<circle cx="781.8" cy="400.1" r="4" fill="#58a6ff" stroke="#0d1117" stroke-width="2.5"/>
<circle cx="811.5" cy="147.4" r="6" fill="#58a6ff" opacity="0.2"/>
<circle cx="811.5" cy="147.4" r="4" fill="#58a6ff" stroke="#0d1117" stroke-width="2.5"/>
<circle cx="841.2" cy="148.7" r="6" fill="#58a6ff" opacity="0.2"/>
<circle cx="841.2" cy="148.7" r="4" fill="#58a6ff" stroke="#0d1117" stroke-width="2.5"/>
<circle cx="870.8" cy="147.4" r="6" fill="#58a6ff" opacity="0.2"/>
<circle cx="870.8" cy="147.4" r="4" fill="#58a6ff" stroke="#0d1117" stroke-width="2.5"/>
<circle cx="900.5" cy="171.7" r="6" fill="#58a6ff" opacity="0.2"/>
<circle cx="900.5" cy="171.7" r="4" fill="#58a6ff" stroke="#0d1117" stroke-width="2.5"/>
<circle cx="930.2" cy="377.8" r="6" fill="#58a6ff" opacity="0.2"/>
<circle cx="930.2" cy="377.8" r="4" fill="#58a6ff" stroke="#0d1117" stroke-width="2.5"/>
<path d="M69.8,124.4 L99.5,125.0 L129.2,124.4 L158.8,158.7 L188.5,388.4 L218.2,125.0 L247.8,124.5 L277.5,124.3 L307.2,169.6 L336.8,399.8 L366.5,133.3 L396.2,134.9 L425.8,134.7 L455.5,162.4 L485.2,382.2 L514.8,134.9 L544.5,135.1 L574.2,134.9 L603.8,163.3 L633.5,383.0 L663.2,168.2 L692.8,167.6 L722.5,167.9 L752.2,207.2 L781.8,394.3 L811.5,122.3 L841.2,120.9 L870.8,120.5 L900.5,154.6 L930.2,388.4" fill="none" stroke="#FF9800" stroke-width="8" stroke-linejoin="round" stroke-linecap="round" opacity="0.12"/>
<path d="M69.8,124.4 L99.5,125.0 L129.2,124.4 L158.8,158.7 L188.5,388.4 L218.2,125.0 L247.8,124.5 L277.5,124.3 L307.2,169.6 L336.8,399.8 L366.5,133.3 L396.2,134.9 L425.8,134.7 L455.5,162.4 L485.2,382.2 L514.8,134.9 L544.5,135.1 L574.2,134.9 L603.8,163.3 L633.5,383.0 L663.2,168.2 L692.8,167.6 L722.5,167.9 L752.2,207.2 L781.8,394.3 L811.5,122.3 L841.2,120.9 L870.8,120.5 L900.5,154.6 L930.2,388.4" fill="none" stroke="#FF9800" stroke-width="3.5" stroke-linejoin="round" stroke-linecap="round"/>
<circle cx="69.8" cy="124.4" r="6" fill="#FF9800" opacity="0.2"/>
<circle cx="69.8" cy="124.4" r="4" fill="#FF9800" stroke="#0d1117" stroke-width="2.5"/>
<circle cx="99.5" cy="125.0" r="6" fill="#FF9800" opacity="0.2"/>
<circle cx="99.5" cy="125.0" r="4" fill="#FF9800" stroke="#0d1117" stroke-width="2.5"/>
<circle cx="129.2" cy="124.4" r="6" fill="#FF9800" opacity="0.2"/>
<circle cx="129.2" cy="124.4" r="4" fill="#FF9800" stroke="#0d1117" stroke-width="2.5"/>
<circle cx="158.8" cy="158.7" r="6" fill="#FF9800" opacity="0.2"/>
<circle cx="158.8" cy="158.7" r="4" fill="#FF9800" stroke="#0d1117" stroke-width="2.5"/>
<circle cx="188.5" cy="388.4" r="6" fill="#FF9800" opacity="0.2"/>
<circle cx="188.5" cy="388.4" r="4" fill="#FF9800" stroke="#0d1117" stroke-width="2.5"/>
<circle cx="218.2" cy="125.0" r="6" fill="#FF9800" opacity="0.2"/>
<circle cx="218.2" cy="125.0" r="4" fill="#FF9800" stroke="#0d1117" stroke-width="2.5"/>
<circle cx="247.8" cy="124.5" r="6" fill="#FF9800" opacity="0.2"/>
<circle cx="247.8" cy="124.5" r="4" fill="#FF9800" stroke="#0d1117" stroke-width="2.5"/>
<circle cx="277.5" cy="124.3" r="6" fill="#FF9800" opacity="0.2"/>
<circle cx="277.5" cy="124.3" r="4" fill="#FF9800" stroke="#0d1117" stroke-width="2.5"/>
<circle cx="307.2" cy="169.6" r="6" fill="#FF9800" opacity="0.2"/>
<circle cx="307.2" cy="169.6" r="4" fill="#FF9800" stroke="#0d1117" stroke-width="2.5"/>
<circle cx="336.8" cy="399.8" r="6" fill="#FF9800" opacity="0.2"/>
<circle cx="336.8" cy="399.8" r="4" fill="#FF9800" stroke="#0d1117" stroke-width="2.5"/>
<circle cx="366.5" cy="133.3" r="6" fill="#FF9800" opacity="0.2"/>
<circle cx="366.5" cy="133.3" r="4" fill="#FF9800" stroke="#0d1117" stroke-width="2.5"/>
<circle cx="396.2" cy="134.9" r="6" fill="#FF9800" opacity="0.2"/>
<circle cx="396.2" cy="134.9" r="4" fill="#FF9800" stroke="#0d1117" stroke-width="2.5"/>
<circle cx="425.8" cy="134.7" r="6" fill="#FF9800" opacity="0.2"/>
<circle cx="425.8" cy="134.7" r="4" fill="#FF9800" stroke="#0d1117" stroke-width="2.5"/>
<circle cx="455.5" cy="162.4" r="6" fill="#FF9800" opacity="0.2"/>
<circle cx="455.5" cy="162.4" r="4" fill="#FF9800" stroke="#0d1117" stroke-width="2.5"/>
<circle cx="485.2" cy="382.2" r="6" fill="#FF9800" opacity="0.2"/>
<circle cx="485.2" cy="382.2" r="4" fill="#FF9800" stroke="#0d1117" stroke-width="2.5"/>
<circle cx="514.8" cy="134.9" r="6" fill="#FF9800" opacity="0.2"/>
<circle cx="514.8" cy="134.9" r="4" fill="#FF9800" stroke="#0d1117" stroke-width="2.5"/>
<circle cx="544.5" cy="135.1" r="6" fill="#FF9800" opacity="0.2"/>
<circle cx="544.5" cy="135.1" r="4" fill="#FF9800" stroke="#0d1117" stroke-width="2.5"/>
<circle cx="574.2" cy="134.9" r="6" fill="#FF9800" opacity="0.2"/>
<circle cx="574.2" cy="134.9" r="4" fill="#FF9800" stroke="#0d1117" stroke-width="2.5"/>
<circle cx="603.8" cy="163.3" r="6" fill="#FF9800" opacity="0.2"/>
<circle cx="603.8" cy="163.3" r="4" fill="#FF9800" stroke="#0d1117" stroke-width="2.5"/>
<circle cx="633.5" cy="383.0" r="6" fill="#FF9800" opacity="0.2"/>
<circle cx="633.5" cy="383.0" r="4" fill="#FF9800" stroke="#0d1117" stroke-width="2.5"/>
<circle cx="663.2" cy="168.2" r="6" fill="#FF9800" opacity="0.2"/>
<circle cx="663.2" cy="168.2" r="4" fill="#FF9800" stroke="#0d1117" stroke-width="2.5"/>
<circle cx="692.8" cy="167.6" r="6" fill="#FF9800" opacity="0.2"/>
<circle cx="692.8" cy="167.6" r="4" fill="#FF9800" stroke="#0d1117" stroke-width="2.5"/>
<circle cx="722.5" cy="167.9" r="6" fill="#FF9800" opacity="0.2"/>
<circle cx="722.5" cy="167.9" r="4" fill="#FF9800" stroke="#0d1117" stroke-width="2.5"/>
<circle cx="752.2" cy="207.2" r="6" fill="#FF9800" opacity="0.2"/>
<circle cx="752.2" cy="207.2" r="4" fill="#FF9800" stroke="#0d1117" stroke-width="2.5"/>
<circle cx="781.8" cy="394.3" r="6" fill="#FF9800" opacity="0.2"/>
<circle cx="781.8" cy="394.3" r="4" fill="#FF9800" stroke="#0d1117" stroke-width="2.5"/>
<circle cx="811.5" cy="122.3" r="6" fill="#FF9800" opacity="0.2"/>
<circle cx="811.5" cy="122.3" r="4" fill="#FF9800" stroke="#0d1117" stroke-width="2.5"/>
<circle cx="841.2" cy="120.9" r="6" fill="#FF9800" opacity="0.2"/>
<circle cx="841.2" cy="120.9" r="4" fill="#FF9800" stroke="#0d1117" stroke-width="2.5"/>
<circle cx="870.8" cy="120.5" r="6" fill="#FF9800" opacity="0.2"/>
<circle cx="870.8" cy="120.5" r="4" fill="#FF9800" stroke="#0d1117" stroke-width="2.5"/>
<circle cx="900.5" cy="154.6" r="6" fill="#FF9800" opacity="0.2"/>
<circle cx="900.5" cy="154.6" r="4" fill="#FF9800" stroke="#0d1117" stroke-width="2.5"/>
<circle cx="930.2" cy="388.4" r="6" fill="#FF9800" opacity="0.2"/>
<circle cx="930.2" cy="388.4" r="4" fill="#FF9800" stroke="#0d1117" stroke-width="2.5"/>
<path d="M69.8,124.2 L99.5,125.3 L129.2,125.6 L158.8,159.1 L188.5,388.5 L218.2,124.8 L247.8,124.5 L277.5,124.8 L307.2,168.1 L336.8,398.3 L366.5,134.2 L396.2,133.4 L425.8,133.2 L455.5,173.4 L485.2,394.8 L514.8,134.5 L544.5,134.7 L574.2,134.7 L603.8,196.4 L633.5,416.4 L663.2,165.2 L692.8,166.1 L722.5,166.2 L752.2,203.1 L781.8,391.7 L811.5,121.7 L841.2,121.1 L870.8,121.1 L900.5,165.8 L930.2,399.4" fill="none" stroke="#4CAF50" stroke-width="8" stroke-linejoin="round" stroke-linecap="round" opacity="0.12"/>
<path d="M69.8,124.2 L99.5,125.3 L129.2,125.6 L158.8,159.1 L188.5,388.5 L218.2,124.8 L247.8,124.5 L277.5,124.8 L307.2,168.1 L336.8,398.3 L366.5,134.2 L396.2,133.4 L425.8,133.2 L455.5,173.4 L485.2,394.8 L514.8,134.5 L544.5,134.7 L574.2,134.7 L603.8,196.4 L633.5,416.4 L663.2,165.2 L692.8,166.1 L722.5,166.2 L752.2,203.1 L781.8,391.7 L811.5,121.7 L841.2,121.1 L870.8,121.1 L900.5,165.8 L930.2,399.4" fill="none" stroke="#4CAF50" stroke-width="3.5" stroke-linejoin="round" stroke-linecap="round"/>
<circle cx="69.8" cy="124.2" r="6" fill="#4CAF50" opacity="0.2"/>
<circle cx="69.8" cy="124.2" r="4" fill="#4CAF50" stroke="#0d1117" stroke-width="2.5"/>
<circle cx="99.5" cy="125.3" r="6" fill="#4CAF50" opacity="0.2"/>
<circle cx="99.5" cy="125.3" r="4" fill="#4CAF50" stroke="#0d1117" stroke-width="2.5"/>
<circle cx="129.2" cy="125.6" r="6" fill="#4CAF50" opacity="0.2"/>
<circle cx="129.2" cy="125.6" r="4" fill="#4CAF50" stroke="#0d1117" stroke-width="2.5"/>
<circle cx="158.8" cy="159.1" r="6" fill="#4CAF50" opacity="0.2"/>
<circle cx="158.8" cy="159.1" r="4" fill="#4CAF50" stroke="#0d1117" stroke-width="2.5"/>
<circle cx="188.5" cy="388.5" r="6" fill="#4CAF50" opacity="0.2"/>
<circle cx="188.5" cy="388.5" r="4" fill="#4CAF50" stroke="#0d1117" stroke-width="2.5"/>
<circle cx="218.2" cy="124.8" r="6" fill="#4CAF50" opacity="0.2"/>
<circle cx="218.2" cy="124.8" r="4" fill="#4CAF50" stroke="#0d1117" stroke-width="2.5"/>
<circle cx="247.8" cy="124.5" r="6" fill="#4CAF50" opacity="0.2"/>
<circle cx="247.8" cy="124.5" r="4" fill="#4CAF50" stroke="#0d1117" stroke-width="2.5"/>
<circle cx="277.5" cy="124.8" r="6" fill="#4CAF50" opacity="0.2"/>
<circle cx="277.5" cy="124.8" r="4" fill="#4CAF50" stroke="#0d1117" stroke-width="2.5"/>
<circle cx="307.2" cy="168.1" r="6" fill="#4CAF50" opacity="0.2"/>
<circle cx="307.2" cy="168.1" r="4" fill="#4CAF50" stroke="#0d1117" stroke-width="2.5"/>
<circle cx="336.8" cy="398.3" r="6" fill="#4CAF50" opacity="0.2"/>
<circle cx="336.8" cy="398.3" r="4" fill="#4CAF50" stroke="#0d1117" stroke-width="2.5"/>
<circle cx="366.5" cy="134.2" r="6" fill="#4CAF50" opacity="0.2"/>
<circle cx="366.5" cy="134.2" r="4" fill="#4CAF50" stroke="#0d1117" stroke-width="2.5"/>
<circle cx="396.2" cy="133.4" r="6" fill="#4CAF50" opacity="0.2"/>
<circle cx="396.2" cy="133.4" r="4" fill="#4CAF50" stroke="#0d1117" stroke-width="2.5"/>
<circle cx="425.8" cy="133.2" r="6" fill="#4CAF50" opacity="0.2"/>
<circle cx="425.8" cy="133.2" r="4" fill="#4CAF50" stroke="#0d1117" stroke-width="2.5"/>
<circle cx="455.5" cy="173.4" r="6" fill="#4CAF50" opacity="0.2"/>
<circle cx="455.5" cy="173.4" r="4" fill="#4CAF50" stroke="#0d1117" stroke-width="2.5"/>
<circle cx="485.2" cy="394.8" r="6" fill="#4CAF50" opacity="0.2"/>
<circle cx="485.2" cy="394.8" r="4" fill="#4CAF50" stroke="#0d1117" stroke-width="2.5"/>
<circle cx="514.8" cy="134.5" r="6" fill="#4CAF50" opacity="0.2"/>
<circle cx="514.8" cy="134.5" r="4" fill="#4CAF50" stroke="#0d1117" stroke-width="2.5"/>
<circle cx="544.5" cy="134.7" r="6" fill="#4CAF50" opacity="0.2"/>
<circle cx="544.5" cy="134.7" r="4" fill="#4CAF50" stroke="#0d1117" stroke-width="2.5"/>
<circle cx="574.2" cy="134.7" r="6" fill="#4CAF50" opacity="0.2"/>
<circle cx="574.2" cy="134.7" r="4" fill="#4CAF50" stroke="#0d1117" stroke-width="2.5"/>
<circle cx="603.8" cy="196.4" r="6" fill="#4CAF50" opacity="0.2"/>
<circle cx="603.8" cy="196.4" r="4" fill="#4CAF50" stroke="#0d1117" stroke-width="2.5"/>
<circle cx="633.5" cy="416.4" r="6" fill="#4CAF50" opacity="0.2"/>
<circle cx="633.5" cy="416.4" r="4" fill="#4CAF50" stroke="#0d1117" stroke-width="2.5"/>
<circle cx="663.2" cy="165.2" r="6" fill="#4CAF50" opacity="0.2"/>
<circle cx="663.2" cy="165.2" r="4" fill="#4CAF50" stroke="#0d1117" stroke-width="2.5"/>
<circle cx="692.8" cy="166.1" r="6" fill="#4CAF50" opacity="0.2"/>
<circle cx="692.8" cy="166.1" r="4" fill="#4CAF50" stroke="#0d1117" stroke-width="2.5"/>
<circle cx="722.5" cy="166.2" r="6" fill="#4CAF50" opacity="0.2"/>
<circle cx="722.5" cy="166.2" r="4" fill="#4CAF50" stroke="#0d1117" stroke-width="2.5"/>
<circle cx="752.2" cy="203.1" r="6" fill="#4CAF50" opacity="0.2"/>
<circle cx="752.2" cy="203.1" r="4" fill="#4CAF50" stroke="#0d1117" stroke-width="2.5"/>
<circle cx="781.8" cy="391.7" r="6" fill="#4CAF50" opacity="0.2"/>
<circle cx="781.8" cy="391.7" r="4" fill="#4CAF50" stroke="#0d1117" stroke-width="2.5"/>
<circle cx="811.5" cy="121.7" r="6" fill="#4CAF50" opacity="0.2"/>
<circle cx="811.5" cy="121.7" r="4" fill="#4CAF50" stroke="#0d1117" stroke-width="2.5"/>
<circle cx="841.2" cy="121.1" r="6" fill="#4CAF50" opacity="0.2"/>
<circle cx="841.2" cy="121.1" r="4" fill="#4CAF50" stroke="#0d1117" stroke-width="2.5"/>
<circle cx="870.8" cy="121.1" r="6" fill="#4CAF50" opacity="0.2"/>
<circle cx="870.8" cy="121.1" r="4" fill="#4CAF50" stroke="#0d1117" stroke-width="2.5"/>
<circle cx="900.5" cy="165.8" r="6" fill="#4CAF50" opacity="0.2"/>
<circle cx="900.5" cy="165.8" r="4" fill="#4CAF50" stroke="#0d1117" stroke-width="2.5"/>
<circle cx="930.2" cy="399.4" r="6" fill="#4CAF50" opacity="0.2"/>
<circle cx="930.2" cy="399.4" r="4" fill="#4CAF50" stroke="#0d1117" stroke-width="2.5"/>
<path d="M69.8,125.2 L99.5,125.8 L129.2,125.5 L158.8,165.2 L188.5,394.2 L218.2,121.3 L247.8,123.6 L277.5,124.3 L307.2,148.0 L336.8,379.2 L366.5,134.4 L396.2,134.5 L425.8,134.4 L455.5,204.9 L485.2,425.2 L514.8,134.6 L544.5,134.5 L574.2,134.6 L603.8,173.7 L633.5,393.9 L663.2,167.5 L692.8,167.5 L722.5,167.5 L752.2,223.2 L781.8,410.5 L811.5,124.6 L841.2,124.1 L870.8,124.0 L900.5,171.1 L930.2,401.7" fill="none" stroke="#BB86FC" stroke-width="8" stroke-linejoin="round" stroke-linecap="round" opacity="0.12"/>
<path d="M69.8,125.2 L99.5,125.8 L129.2,125.5 L158.8,165.2 L188.5,394.2 L218.2,121.3 L247.8,123.6 L277.5,124.3 L307.2,148.0 L336.8,379.2 L366.5,134.4 L396.2,134.5 L425.8,134.4 L455.5,204.9 L485.2,425.2 L514.8,134.6 L544.5,134.5 L574.2,134.6 L603.8,173.7 L633.5,393.9 L663.2,167.5 L692.8,167.5 L722.5,167.5 L752.2,223.2 L781.8,410.5 L811.5,124.6 L841.2,124.1 L870.8,124.0 L900.5,171.1 L930.2,401.7" fill="none" stroke="#BB86FC" stroke-width="3.5" stroke-linejoin="round" stroke-linecap="round"/>
<circle cx="69.8" cy="125.2" r="6" fill="#BB86FC" opacity="0.2"/>
<circle cx="69.8" cy="125.2" r="4" fill="#BB86FC" stroke="#0d1117" stroke-width="2.5"/>
<circle cx="99.5" cy="125.8" r="6" fill="#BB86FC" opacity="0.2"/>
<circle cx="99.5" cy="125.8" r="4" fill="#BB86FC" stroke="#0d1117" stroke-width="2.5"/>
<circle cx="129.2" cy="125.5" r="6" fill="#BB86FC" opacity="0.2"/>
<circle cx="129.2" cy="125.5" r="4" fill="#BB86FC" stroke="#0d1117" stroke-width="2.5"/>
<circle cx="158.8" cy="165.2" r="6" fill="#BB86FC" opacity="0.2"/>
<circle cx="158.8" cy="165.2" r="4" fill="#BB86FC" stroke="#0d1117" stroke-width="2.5"/>
<circle cx="188.5" cy="394.2" r="6" fill="#BB86FC" opacity="0.2"/>
<circle cx="188.5" cy="394.2" r="4" fill="#BB86FC" stroke="#0d1117" stroke-width="2.5"/>
<circle cx="218.2" cy="121.3" r="6" fill="#BB86FC" opacity="0.2"/>
<circle cx="218.2" cy="121.3" r="4" fill="#BB86FC" stroke="#0d1117" stroke-width="2.5"/>
<circle cx="247.8" cy="123.6" r="6" fill="#BB86FC" opacity="0.2"/>
<circle cx="247.8" cy="123.6" r="4" fill="#BB86FC" stroke="#0d1117" stroke-width="2.5"/>
<circle cx="277.5" cy="124.3" r="6" fill="#BB86FC" opacity="0.2"/>
<circle cx="277.5" cy="124.3" r="4" fill="#BB86FC" stroke="#0d1117" stroke-width="2.5"/>
<circle cx="307.2" cy="148.0" r="6" fill="#BB86FC" opacity="0.2"/>
<circle cx="307.2" cy="148.0" r="4" fill="#BB86FC" stroke="#0d1117" stroke-width="2.5"/>
<circle cx="336.8" cy="379.2" r="6" fill="#BB86FC" opacity="0.2"/>
<circle cx="336.8" cy="379.2" r="4" fill="#BB86FC" stroke="#0d1117" stroke-width="2.5"/>
<circle cx="366.5" cy="134.4" r="6" fill="#BB86FC" opacity="0.2"/>
<circle cx="366.5" cy="134.4" r="4" fill="#BB86FC" stroke="#0d1117" stroke-width="2.5"/>
<circle cx="396.2" cy="134.5" r="6" fill="#BB86FC" opacity="0.2"/>
<circle cx="396.2" cy="134.5" r="4" fill="#BB86FC" stroke="#0d1117" stroke-width="2.5"/>
<circle cx="425.8" cy="134.4" r="6" fill="#BB86FC" opacity="0.2"/>
<circle cx="425.8" cy="134.4" r="4" fill="#BB86FC" stroke="#0d1117" stroke-width="2.5"/>
<circle cx="455.5" cy="204.9" r="6" fill="#BB86FC" opacity="0.2"/>
<circle cx="455.5" cy="204.9" r="4" fill="#BB86FC" stroke="#0d1117" stroke-width="2.5"/>
<circle cx="485.2" cy="425.2" r="6" fill="#BB86FC" opacity="0.2"/>
<circle cx="485.2" cy="425.2" r="4" fill="#BB86FC" stroke="#0d1117" stroke-width="2.5"/>
<circle cx="514.8" cy="134.6" r="6" fill="#BB86FC" opacity="0.2"/>
<circle cx="514.8" cy="134.6" r="4" fill="#BB86FC" stroke="#0d1117" stroke-width="2.5"/>
<circle cx="544.5" cy="134.5" r="6" fill="#BB86FC" opacity="0.2"/>
<circle cx="544.5" cy="134.5" r="4" fill="#BB86FC" stroke="#0d1117" stroke-width="2.5"/>
<circle cx="574.2" cy="134.6" r="6" fill="#BB86FC" opacity="0.2"/>
<circle cx="574.2" cy="134.6" r="4" fill="#BB86FC" stroke="#0d1117" stroke-width="2.5"/>
<circle cx="603.8" cy="173.7" r="6" fill="#BB86FC" opacity="0.2"/>
<circle cx="603.8" cy="173.7" r="4" fill="#BB86FC" stroke="#0d1117" stroke-width="2.5"/>
<circle cx="633.5" cy="393.9" r="6" fill="#BB86FC" opacity="0.2"/>
<circle cx="633.5" cy="393.9" r="4" fill="#BB86FC" stroke="#0d1117" stroke-width="2.5"/>
<circle cx="663.2" cy="167.5" r="6" fill="#BB86FC" opacity="0.2"/>
<circle cx="663.2" cy="167.5" r="4" fill="#BB86FC" stroke="#0d1117" stroke-width="2.5"/>
<circle cx="692.8" cy="167.5" r="6" fill="#BB86FC" opacity="0.2"/>
<circle cx="692.8" cy="167.5" r="4" fill="#BB86FC" stroke="#0d1117" stroke-width="2.5"/>
<circle cx="722.5" cy="167.5" r="6" fill="#BB86FC" opacity="0.2"/>
<circle cx="722.5" cy="167.5" r="4" fill="#BB86FC" stroke="#0d1117" stroke-width="2.5"/>
<circle cx="752.2" cy="223.2" r="6" fill="#BB86FC" opacity="0.2"/>
<circle cx="752.2" cy="223.2" r="4" fill="#BB86FC" stroke="#0d1117" stroke-width="2.5"/>
<circle cx="781.8" cy="410.5" r="6" fill="#BB86FC" opacity="0.2"/>
<circle cx="781.8" cy="410.5" r="4" fill="#BB86FC" stroke="#0d1117" stroke-width="2.5"/>
<circle cx="811.5" cy="124.6" r="6" fill="#BB86FC" opacity="0.2"/>
<circle cx="811.5" cy="124.6" r="4" fill="#BB86FC" stroke="#0d1117" stroke-width="2.5"/>
<circle cx="841.2" cy="124.1" r="6" fill="#BB86FC" opacity="0.2"/>
<circle cx="841.2" cy="124.1" r="4" fill="#BB86FC" stroke="#0d1117" stroke-width="2.5"/>
<circle cx="870.8" cy="124.0" r="6" fill="#BB86FC" opacity="0.2"/>
<circle cx="870.8" cy="124.0" r="4" fill="#BB86FC" stroke="#0d1117" stroke-width="2.5"/>
<circle cx="900.5" cy="171.1" r="6" fill="#BB86FC" opacity="0.2"/>
<circle cx="900.5" cy="171.1" r="4" fill="#BB86FC" stroke="#0d1117" stroke-width="2.5"/>
<circle cx="930.2" cy="401.7" r="6" fill="#BB86FC" opacity="0.2"/>
<circle cx="930.2" cy="401.7" r="4" fill="#BB86FC" stroke="#0d1117" stroke-width="2.5"/>
<path d="M69.8,125.1 L99.5,125.2 L129.2,125.1 L158.8,174.5 L188.5,403.9 L218.2,125.2 L247.8,125.0 L277.5,125.2 L307.2,174.4 L336.8,404.1 L366.5,132.4 L396.2,131.9 L425.8,132.4 L455.5,158.9 L485.2,381.8 L514.8,135.6 L544.5,135.3 L574.2,135.6 L603.8,178.6 L633.5,398.0 L663.2,168.1 L692.8,167.8 L722.5,167.8 L752.2,217.6 L781.8,404.6 L811.5,128.3 L841.2,127.3 L870.8,127.7 L900.5,160.1 L930.2,387.5" fill="none" stroke="#F472B6" stroke-width="8" stroke-linejoin="round" stroke-linecap="round" opacity="0.12"/>
<path d="M69.8,125.1 L99.5,125.2 L129.2,125.1 L158.8,174.5 L188.5,403.9 L218.2,125.2 L247.8,125.0 L277.5,125.2 L307.2,174.4 L336.8,404.1 L366.5,132.4 L396.2,131.9 L425.8,132.4 L455.5,158.9 L485.2,381.8 L514.8,135.6 L544.5,135.3 L574.2,135.6 L603.8,178.6 L633.5,398.0 L663.2,168.1 L692.8,167.8 L722.5,167.8 L752.2,217.6 L781.8,404.6 L811.5,128.3 L841.2,127.3 L870.8,127.7 L900.5,160.1 L930.2,387.5" fill="none" stroke="#F472B6" stroke-width="3.5" stroke-linejoin="round" stroke-linecap="round"/>
<circle cx="69.8" cy="125.1" r="6" fill="#F472B6" opacity="0.2"/>
<circle cx="69.8" cy="125.1" r="4" fill="#F472B6" stroke="#0d1117" stroke-width="2.5"/>
<circle cx="99.5" cy="125.2" r="6" fill="#F472B6" opacity="0.2"/>
<circle cx="99.5" cy="125.2" r="4" fill="#F472B6" stroke="#0d1117" stroke-width="2.5"/>
<circle cx="129.2" cy="125.1" r="6" fill="#F472B6" opacity="0.2"/>
<circle cx="129.2" cy="125.1" r="4" fill="#F472B6" stroke="#0d1117" stroke-width="2.5"/>
<circle cx="158.8" cy="174.5" r="6" fill="#F472B6" opacity="0.2"/>
<circle cx="158.8" cy="174.5" r="4" fill="#F472B6" stroke="#0d1117" stroke-width="2.5"/>
<circle cx="188.5" cy="403.9" r="6" fill="#F472B6" opacity="0.2"/>
<circle cx="188.5" cy="403.9" r="4" fill="#F472B6" stroke="#0d1117" stroke-width="2.5"/>
<circle cx="218.2" cy="125.2" r="6" fill="#F472B6" opacity="0.2"/>
<circle cx="218.2" cy="125.2" r="4" fill="#F472B6" stroke="#0d1117" stroke-width="2.5"/>
<circle cx="247.8" cy="125.0" r="6" fill="#F472B6" opacity="0.2"/>
<circle cx="247.8" cy="125.0" r="4" fill="#F472B6" stroke="#0d1117" stroke-width="2.5"/>
<circle cx="277.5" cy="125.2" r="6" fill="#F472B6" opacity="0.2"/>
<circle cx="277.5" cy="125.2" r="4" fill="#F472B6" stroke="#0d1117" stroke-width="2.5"/>
<circle cx="307.2" cy="174.4" r="6" fill="#F472B6" opacity="0.2"/>
<circle cx="307.2" cy="174.4" r="4" fill="#F472B6" stroke="#0d1117" stroke-width="2.5"/>
<circle cx="336.8" cy="404.1" r="6" fill="#F472B6" opacity="0.2"/>
<circle cx="336.8" cy="404.1" r="4" fill="#F472B6" stroke="#0d1117" stroke-width="2.5"/>
<circle cx="366.5" cy="132.4" r="6" fill="#F472B6" opacity="0.2"/>
<circle cx="366.5" cy="132.4" r="4" fill="#F472B6" stroke="#0d1117" stroke-width="2.5"/>
<circle cx="396.2" cy="131.9" r="6" fill="#F472B6" opacity="0.2"/>
<circle cx="396.2" cy="131.9" r="4" fill="#F472B6" stroke="#0d1117" stroke-width="2.5"/>
<circle cx="425.8" cy="132.4" r="6" fill="#F472B6" opacity="0.2"/>
<circle cx="425.8" cy="132.4" r="4" fill="#F472B6" stroke="#0d1117" stroke-width="2.5"/>
<circle cx="455.5" cy="158.9" r="6" fill="#F472B6" opacity="0.2"/>
<circle cx="455.5" cy="158.9" r="4" fill="#F472B6" stroke="#0d1117" stroke-width="2.5"/>
<circle cx="485.2" cy="381.8" r="6" fill="#F472B6" opacity="0.2"/>
<circle cx="485.2" cy="381.8" r="4" fill="#F472B6" stroke="#0d1117" stroke-width="2.5"/>
<circle cx="514.8" cy="135.6" r="6" fill="#F472B6" opacity="0.2"/>
<circle cx="514.8" cy="135.6" r="4" fill="#F472B6" stroke="#0d1117" stroke-width="2.5"/>
<circle cx="544.5" cy="135.3" r="6" fill="#F472B6" opacity="0.2"/>
<circle cx="544.5" cy="135.3" r="4" fill="#F472B6" stroke="#0d1117" stroke-width="2.5"/>
<circle cx="574.2" cy="135.6" r="6" fill="#F472B6" opacity="0.2"/>
<circle cx="574.2" cy="135.6" r="4" fill="#F472B6" stroke="#0d1117" stroke-width="2.5"/>
<circle cx="603.8" cy="178.6" r="6" fill="#F472B6" opacity="0.2"/>
<circle cx="603.8" cy="178.6" r="4" fill="#F472B6" stroke="#0d1117" stroke-width="2.5"/>
<circle cx="633.5" cy="398.0" r="6" fill="#F472B6" opacity="0.2"/>
<circle cx="633.5" cy="398.0" r="4" fill="#F472B6" stroke="#0d1117" stroke-width="2.5"/>
<circle cx="663.2" cy="168.1" r="6" fill="#F472B6" opacity="0.2"/>
<circle cx="663.2" cy="168.1" r="4" fill="#F472B6" stroke="#0d1117" stroke-width="2.5"/>
<circle cx="692.8" cy="167.8" r="6" fill="#F472B6" opacity="0.2"/>
<circle cx="692.8" cy="167.8" r="4" fill="#F472B6" stroke="#0d1117" stroke-width="2.5"/>
<circle cx="722.5" cy="167.8" r="6" fill="#F472B6" opacity="0.2"/>
<circle cx="722.5" cy="167.8" r="4" fill="#F472B6" stroke="#0d1117" stroke-width="2.5"/>
<circle cx="752.2" cy="217.6" r="6" fill="#F472B6" opacity="0.2"/>
<circle cx="752.2" cy="217.6" r="4" fill="#F472B6" stroke="#0d1117" stroke-width="2.5"/>
<circle cx="781.8" cy="404.6" r="6" fill="#F472B6" opacity="0.2"/>
<circle cx="781.8" cy="404.6" r="4" fill="#F472B6" stroke="#0d1117" stroke-width="2.5"/>
<circle cx="811.5" cy="128.3" r="6" fill="#F472B6" opacity="0.2"/>
<circle cx="811.5" cy="128.3" r="4" fill="#F472B6" stroke="#0d1117" stroke-width="2.5"/>
<circle cx="841.2" cy="127.3" r="6" fill="#F472B6" opacity="0.2"/>
<circle cx="841.2" cy="127.3" r="4" fill="#F472B6" stroke="#0d1117" stroke-width="2.5"/>
<circle cx="870.8" cy="127.7" r="6" fill="#F472B6" opacity="0.2"/>
<circle cx="870.8" cy="127.7" r="4" fill="#F472B6" stroke="#0d1117" stroke-width="2.5"/>
<circle cx="900.5" cy="160.1" r="6" fill="#F472B6" opacity="0.2"/>
<circle cx="900.5" cy="160.1" r="4" fill="#F472B6" stroke="#0d1117" stroke-width="2.5"/>
<circle cx="930.2" cy="387.5" r="6" fill="#F472B6" opacity="0.2"/>
<circle cx="930.2" cy="387.5" r="4" fill="#F472B6" stroke="#0d1117" stroke-width="2.5"/>
<text x="69.8" y="448" text-anchor="end" fill="#8b949e" font-size="11" transform="rotate(-30,69.8,448)">push_back</text>
<text x="99.5" y="448" text-anchor="end" fill="#8b949e" font-size="11" transform="rotate(-30,99.5,448)">push_back_mean</text>
<text x="129.2" y="448" text-anchor="end" fill="#8b949e" font-size="11" transform="rotate(-30,129.2,448)">push_back_median</text>
<text x="158.8" y="448" text-anchor="end" fill="#8b949e" font-size="11" transform="rotate(-30,158.8,448)">push_back_stddev</text>
<text x="188.5" y="448" text-anchor="end" fill="#8b949e" font-size="11" transform="rotate(-30,188.5,448)">push_back_cv</text>
<text x="218.2" y="448" text-anchor="end" fill="#8b949e" font-size="11" transform="rotate(-30,218.2,448)">push_front</text>
<text x="247.8" y="448" text-anchor="end" fill="#8b949e" font-size="11" transform="rotate(-30,247.8,448)">push_front_mean</text>
<text x="277.5" y="448" text-anchor="end" fill="#8b949e" font-size="11" transform="rotate(-30,277.5,448)">push_front_median</text>
<text x="307.2" y="448" text-anchor="end" fill="#8b949e" font-size="11" transform="rotate(-30,307.2,448)">push_front_stddev</text>
<text x="336.8" y="448" text-anchor="end" fill="#8b949e" font-size="11" transform="rotate(-30,336.8,448)">push_front_cv</text>
<text x="366.5" y="448" text-anchor="end" fill="#8b949e" font-size="11" transform="rotate(-30,366.5,448)">insert_middle</text>
<text x="396.2" y="448" text-anchor="end" fill="#8b949e" font-size="11" transform="rotate(-30,396.2,448)">insert_middle_mean</text>
<text x="425.8" y="448" text-anchor="end" fill="#8b949e" font-size="11" transform="rotate(-30,425.8,448)">insert_middle_median</text>
<text x="455.5" y="448" text-anchor="end" fill="#8b949e" font-size="11" transform="rotate(-30,455.5,448)">insert_middle_stddev</text>
<text x="485.2" y="448" text-anchor="end" fill="#8b949e" font-size="11" transform="rotate(-30,485.2,448)">insert_middle_cv</text>
<text x="514.8" y="448" text-anchor="end" fill="#8b949e" font-size="11" transform="rotate(-30,514.8,448)">erase_middle</text>
<text x="544.5" y="448" text-anchor="end" fill="#8b949e" font-size="11" transform="rotate(-30,544.5,448)">erase_middle_mean</text>
<text x="574.2" y="448" text-anchor="end" fill="#8b949e" font-size="11" transform="rotate(-30,574.2,448)">erase_middle_median</text>
<text x="603.8" y="448" text-anchor="end" fill="#8b949e" font-size="11" transform="rotate(-30,603.8,448)">erase_middle_stddev</text>
<text x="633.5" y="448" text-anchor="end" fill="#8b949e" font-size="11" transform="rotate(-30,633.5,448)">erase_middle_cv</text>
<text x="663.2" y="448" text-anchor="end" fill="#8b949e" font-size="11" transform="rotate(-30,663.2,448)">iterate</text>
<text x="692.8" y="448" text-anchor="end" fill="#8b949e" font-size="11" transform="rotate(-30,692.8,448)">iterate_mean</text>
<text x="722.5" y="448" text-anchor="end" fill="#8b949e" font-size="11" transform="rotate(-30,722.5,448)">iterate_median</text>
<text x="752.2" y="448" text-anchor="end" fill="#8b949e" font-size="11" transform="rotate(-30,752.2,448)">iterate_stddev</text>
<text x="781.8" y="448" text-anchor="end" fill="#8b949e" font-size="11" transform="rotate(-30,781.8,448)">iterate_cv</text>
<text x="811.5" y="448" text-anchor="end" fill="#8b949e" font-size="11" transform="rotate(-30,811.5,448)">clear</text>
<text x="841.2" y="448" text-anchor="end" fill="#8b949e" font-size="11" transform="rotate(-30,841.2,448)">clear_mean</text>
<text x="870.8" y="448" text-anchor="end" fill="#8b949e" font-size="11" transform="rotate(-30,870.8,448)">clear_median</text>
<text x="900.5" y="448" text-anchor="end" fill="#8b949e" font-size="11" transform="rotate(-30,900.5,448)">clear_stddev</text>
<text x="930.2" y="448" text-anchor="end" fill="#8b949e" font-size="11" transform="rotate(-30,930.2,448)">clear_cv</text>
<text x="14" y="272.5" text-anchor="middle" fill="#484f58" font-size="11" transform="rotate(-90,14,272.5)">Time (ms)</text>
<circle cx="65" cy="69" r="5" fill="#58a6ff"/>
<text x="75" y="73" fill="#c9d1d9" font-size="12">RG::LIST</text>
<circle cx="220" cy="69" r="5" fill="#FF9800"/>
<text x="230" y="73" fill="#c9d1d9" font-size="12">std::list</text>
<circle cx="375" cy="69" r="5" fill="#4CAF50"/>
<text x="385" y="73" fill="#c9d1d9" font-size="12">std::forward_list</text>
<circle cx="530" cy="69" r="5" fill="#BB86FC"/>
<text x="540" y="73" fill="#c9d1d9" font-size="12">boost::list</text>
<circle cx="685" cy="69" r="5" fill="#F472B6"/>
<text x="695" y="73" fill="#c9d1d9" font-size="12">eastl::list</text>
<text x="480.0" y="20" text-anchor="middle" fill="#58a6ff" font-size="15" font-weight="700">RG::LIST Benchmark — 2026-04-13</text>
</svg>