<svg xmlns="http://www.w3.org/2000/svg" viewBox="0 0 960 500" font-family="-apple-system,BlinkMacSystemFont,Segoe UI,sans-serif">
<rect width="960" height="500" rx="10" fill="#0d1117"/>
<rect x="55" y="115" width="890" height="315" fill="#161b22" rx="4"/>
<line x1="55" y1="423.6" x2="945" y2="423.6" stroke="#21262d"/>
<text x="47" y="427.59585289316607" text-anchor="end" fill="#484f58" font-size="10">0µs</text>
<line x1="55" y1="414.5" x2="945" y2="414.5" stroke="#21262d"/>
<text x="47" y="418.4549473530028" text-anchor="end" fill="#484f58" font-size="10">0µs</text>
<line x1="55" y1="402.4" x2="945" y2="402.4" stroke="#21262d"/>
<text x="47" y="406.37132750674954" text-anchor="end" fill="#484f58" font-size="10">0µs</text>
<line x1="55" y1="393.2" x2="945" y2="393.2" stroke="#21262d"/>
<text x="47" y="397.23042196658633" text-anchor="end" fill="#484f58" font-size="10">0µs</text>
<line x1="55" y1="384.1" x2="945" y2="384.1" stroke="#21262d"/>
<text x="47" y="388.0895164264231" text-anchor="end" fill="#484f58" font-size="10">0µs</text>
<line x1="55" y1="372.0" x2="945" y2="372.0" stroke="#21262d"/>
<text x="47" y="376.0058965801698" text-anchor="end" fill="#484f58" font-size="10">0µs</text>
<line x1="55" y1="362.9" x2="945" y2="362.9" stroke="#21262d"/>
<text x="47" y="366.86499104000654" text-anchor="end" fill="#484f58" font-size="10">0µs</text>
<line x1="55" y1="353.7" x2="945" y2="353.7" stroke="#21262d"/>
<text x="47" y="357.72408549984334" text-anchor="end" fill="#484f58" font-size="10">0µs</text>
<line x1="55" y1="341.6" x2="945" y2="341.6" stroke="#21262d"/>
<text x="47" y="345.6404656535901" text-anchor="end" fill="#484f58" font-size="10">0µs</text>
<line x1="55" y1="332.5" x2="945" y2="332.5" stroke="#21262d"/>
<text x="47" y="336.4995601134268" text-anchor="end" fill="#484f58" font-size="10">0µs</text>
<line x1="55" y1="323.4" x2="945" y2="323.4" stroke="#21262d"/>
<text x="47" y="327.3586545732636" text-anchor="end" fill="#484f58" font-size="10">0µs</text>
<line x1="55" y1="311.3" x2="945" y2="311.3" stroke="#21262d"/>
<text x="47" y="315.27503472701034" text-anchor="end" fill="#484f58" font-size="10">0µs</text>
<line x1="55" y1="302.1" x2="945" y2="302.1" stroke="#21262d"/>
<text x="47" y="306.13412918684713" text-anchor="end" fill="#484f58" font-size="10">0µs</text>
<line x1="55" y1="293.0" x2="945" y2="293.0" stroke="#21262d"/>
<text x="47" y="296.9932236466839" text-anchor="end" fill="#484f58" font-size="10">0µs</text>
<line x1="55" y1="280.9" x2="945" y2="280.9" stroke="#21262d"/>
<text x="47" y="284.90960380043055" text-anchor="end" fill="#484f58" font-size="10">0µs</text>
<line x1="55" y1="271.8" x2="945" y2="271.8" stroke="#21262d"/>
<text x="47" y="275.76869826026734" text-anchor="end" fill="#484f58" font-size="10">0µs</text>
<line x1="55" y1="262.6" x2="945" y2="262.6" stroke="#21262d"/>
<text x="47" y="266.62779272010414" text-anchor="end" fill="#484f58" font-size="10">0µs</text>
<line x1="55" y1="250.5" x2="945" y2="250.5" stroke="#21262d"/>
<text x="47" y="254.54417287385087" text-anchor="end" fill="#484f58" font-size="10">0µs</text>
<line x1="55" y1="241.4" x2="945" y2="241.4" stroke="#21262d"/>
<text x="47" y="245.40326733368767" text-anchor="end" fill="#484f58" font-size="10">1µs</text>
<line x1="55" y1="232.3" x2="945" y2="232.3" stroke="#21262d"/>
<text x="47" y="236.26236179352443" text-anchor="end" fill="#484f58" font-size="10">2µs</text>
<line x1="55" y1="220.2" x2="945" y2="220.2" stroke="#21262d"/>
<text x="47" y="224.17874194727113" text-anchor="end" fill="#484f58" font-size="10">5µs</text>
<line x1="55" y1="211.0" x2="945" y2="211.0" stroke="#21262d"/>
<text x="47" y="215.0378364071079" text-anchor="end" fill="#484f58" font-size="10">10µs</text>
<line x1="55" y1="201.9" x2="945" y2="201.9" stroke="#21262d"/>
<text x="47" y="205.89693086694467" text-anchor="end" fill="#484f58" font-size="10">20µs</text>
<line x1="55" y1="189.8" x2="945" y2="189.8" stroke="#21262d"/>
<text x="47" y="193.8133110206914" text-anchor="end" fill="#484f58" font-size="10">50µs</text>
<line x1="55" y1="180.7" x2="945" y2="180.7" stroke="#21262d"/>
<text x="47" y="184.6724054805282" text-anchor="end" fill="#484f58" font-size="10">100µs</text>
<line x1="55" y1="171.5" x2="945" y2="171.5" stroke="#21262d"/>
<text x="47" y="175.53149994036497" text-anchor="end" fill="#484f58" font-size="10">200µs</text>
<line x1="55" y1="159.4" x2="945" y2="159.4" stroke="#21262d"/>
<text x="47" y="163.4478800941117" text-anchor="end" fill="#484f58" font-size="10">500µs</text>
<line x1="55" y1="150.3" x2="945" y2="150.3" stroke="#21262d"/>
<text x="47" y="154.30697455394846" text-anchor="end" fill="#484f58" font-size="10">1ms</text>
<line x1="55" y1="141.2" x2="945" y2="141.2" stroke="#21262d"/>
<text x="47" y="145.16606901378523" text-anchor="end" fill="#484f58" font-size="10">2ms</text>
<line x1="55" y1="129.1" x2="945" y2="129.1" stroke="#21262d"/>
<text x="47" y="133.08244916753193" text-anchor="end" fill="#484f58" font-size="10">5ms</text>
<line x1="55" y1="119.9" x2="945" y2="119.9" stroke="#21262d"/>
<text x="47" y="123.94154362736872" text-anchor="end" fill="#484f58" font-size="10">10ms</text>
<line x1="84.7" y1="115" x2="84.7" y2="430" stroke="#30363d" stroke-width="1" stroke-dasharray="4,4"/>
<line x1="114.3" y1="115" x2="114.3" y2="430" stroke="#30363d" stroke-width="1" stroke-dasharray="4,4"/>
<line x1="144.0" y1="115" x2="144.0" y2="430" stroke="#30363d" stroke-width="1" stroke-dasharray="4,4"/>
<line x1="173.7" y1="115" x2="173.7" y2="430" stroke="#30363d" stroke-width="1" stroke-dasharray="4,4"/>
<line x1="203.3" y1="115" x2="203.3" y2="430" stroke="#30363d" stroke-width="1" stroke-dasharray="4,4"/>
<line x1="233.0" y1="115" x2="233.0" y2="430" stroke="#30363d" stroke-width="1" stroke-dasharray="4,4"/>
<line x1="262.7" y1="115" x2="262.7" y2="430" stroke="#30363d" stroke-width="1" stroke-dasharray="4,4"/>
<line x1="292.3" y1="115" x2="292.3" y2="430" stroke="#30363d" stroke-width="1" stroke-dasharray="4,4"/>
<line x1="322.0" y1="115" x2="322.0" y2="430" stroke="#30363d" stroke-width="1" stroke-dasharray="4,4"/>
<line x1="351.7" y1="115" x2="351.7" y2="430" stroke="#30363d" stroke-width="1" stroke-dasharray="4,4"/>
<line x1="381.3" y1="115" x2="381.3" y2="430" stroke="#30363d" stroke-width="1" stroke-dasharray="4,4"/>
<line x1="411.0" y1="115" x2="411.0" y2="430" stroke="#30363d" stroke-width="1" stroke-dasharray="4,4"/>
<line x1="440.7" y1="115" x2="440.7" y2="430" stroke="#30363d" stroke-width="1" stroke-dasharray="4,4"/>
<line x1="470.3" y1="115" x2="470.3" y2="430" stroke="#30363d" stroke-width="1" stroke-dasharray="4,4"/>
<line x1="500.0" y1="115" x2="500.0" y2="430" stroke="#30363d" stroke-width="1" stroke-dasharray="4,4"/>
<line x1="529.7" y1="115" x2="529.7" y2="430" stroke="#30363d" stroke-width="1" stroke-dasharray="4,4"/>
<line x1="559.3" y1="115" x2="559.3" y2="430" stroke="#30363d" stroke-width="1" stroke-dasharray="4,4"/>
<line x1="589.0" y1="115" x2="589.0" y2="430" stroke="#30363d" stroke-width="1" stroke-dasharray="4,4"/>
<line x1="618.7" y1="115" x2="618.7" y2="430" stroke="#30363d" stroke-width="1" stroke-dasharray="4,4"/>
<line x1="648.3" y1="115" x2="648.3" y2="430" stroke="#30363d" stroke-width="1" stroke-dasharray="4,4"/>
<line x1="678.0" y1="115" x2="678.0" y2="430" stroke="#30363d" stroke-width="1" stroke-dasharray="4,4"/>
<line x1="707.7" y1="115" x2="707.7" y2="430" stroke="#30363d" stroke-width="1" stroke-dasharray="4,4"/>
<line x1="737.3" y1="115" x2="737.3" y2="430" stroke="#30363d" stroke-width="1" stroke-dasharray="4,4"/>
<line x1="767.0" y1="115" x2="767.0" y2="430" stroke="#30363d" stroke-width="1" stroke-dasharray="4,4"/>
<line x1="796.7" y1="115" x2="796.7" y2="430" stroke="#30363d" stroke-width="1" stroke-dasharray="4,4"/>
<line x1="826.3" y1="115" x2="826.3" y2="430" stroke="#30363d" stroke-width="1" stroke-dasharray="4,4"/>
<line x1="856.0" y1="115" x2="856.0" y2="430" stroke="#30363d" stroke-width="1" stroke-dasharray="4,4"/>
<line x1="885.7" y1="115" x2="885.7" y2="430" stroke="#30363d" stroke-width="1" stroke-dasharray="4,4"/>
<line x1="915.3" y1="115" x2="915.3" y2="430" stroke="#30363d" stroke-width="1" stroke-dasharray="4,4"/>
<path d="M69.8,139.3 L99.5,139.4 L129.2,139.3 L158.8,202.3 L188.5,395.4 L218.2,139.1 L247.8,139.1 L277.5,139.1 L307.2,211.4 L336.8,404.7 L366.5,150.6 L396.2,150.6 L425.8,150.6 L455.5,235.2 L485.2,417.1 L514.8,151.0 L544.5,150.9 L574.2,150.9 L603.8,227.3 L633.5,408.9 L663.2,155.7 L692.8,155.7 L722.5,155.7 L752.2,222.4 L781.8,399.2 L811.5,138.0 L841.2,138.3 L870.8,138.4 L900.5,191.8 L930.2,386.0" fill="none" stroke="#58a6ff" stroke-width="8" stroke-linejoin="round" stroke-linecap="round" opacity="0.12"/>
<path d="M69.8,139.3 L99.5,139.4 L129.2,139.3 L158.8,202.3 L188.5,395.4 L218.2,139.1 L247.8,139.1 L277.5,139.1 L307.2,211.4 L336.8,404.7 L366.5,150.6 L396.2,150.6 L425.8,150.6 L455.5,235.2 L485.2,417.1 L514.8,151.0 L544.5,150.9 L574.2,150.9 L603.8,227.3 L633.5,408.9 L663.2,155.7 L692.8,155.7 L722.5,155.7 L752.2,222.4 L781.8,399.2 L811.5,138.0 L841.2,138.3 L870.8,138.4 L900.5,191.8 L930.2,386.0" fill="none" stroke="#58a6ff" stroke-width="3.5" stroke-linejoin="round" stroke-linecap="round"/>
<circle cx="69.8" cy="139.3" r="6" fill="#58a6ff" opacity="0.2"/>
<circle cx="69.8" cy="139.3" r="4" fill="#58a6ff" stroke="#0d1117" stroke-width="2.5"/>
<circle cx="99.5" cy="139.4" r="6" fill="#58a6ff" opacity="0.2"/>
<circle cx="99.5" cy="139.4" r="4" fill="#58a6ff" stroke="#0d1117" stroke-width="2.5"/>
<circle cx="129.2" cy="139.3" r="6" fill="#58a6ff" opacity="0.2"/>
<circle cx="129.2" cy="139.3" r="4" fill="#58a6ff" stroke="#0d1117" stroke-width="2.5"/>
<circle cx="158.8" cy="202.3" r="6" fill="#58a6ff" opacity="0.2"/>
<circle cx="158.8" cy="202.3" r="4" fill="#58a6ff" stroke="#0d1117" stroke-width="2.5"/>
<circle cx="188.5" cy="395.4" r="6" fill="#58a6ff" opacity="0.2"/>
<circle cx="188.5" cy="395.4" r="4" fill="#58a6ff" stroke="#0d1117" stroke-width="2.5"/>
<circle cx="218.2" cy="139.1" r="6" fill="#58a6ff" opacity="0.2"/>
<circle cx="218.2" cy="139.1" r="4" fill="#58a6ff" stroke="#0d1117" stroke-width="2.5"/>
<circle cx="247.8" cy="139.1" r="6" fill="#58a6ff" opacity="0.2"/>
<circle cx="247.8" cy="139.1" r="4" fill="#58a6ff" stroke="#0d1117" stroke-width="2.5"/>
<circle cx="277.5" cy="139.1" r="6" fill="#58a6ff" opacity="0.2"/>
<circle cx="277.5" cy="139.1" r="4" fill="#58a6ff" stroke="#0d1117" stroke-width="2.5"/>
<circle cx="307.2" cy="211.4" r="6" fill="#58a6ff" opacity="0.2"/>
<circle cx="307.2" cy="211.4" r="4" fill="#58a6ff" stroke="#0d1117" stroke-width="2.5"/>
<circle cx="336.8" cy="404.7" r="6" fill="#58a6ff" opacity="0.2"/>
<circle cx="336.8" cy="404.7" r="4" fill="#58a6ff" stroke="#0d1117" stroke-width="2.5"/>
<circle cx="366.5" cy="150.6" r="6" fill="#58a6ff" opacity="0.2"/>
<circle cx="366.5" cy="150.6" r="4" fill="#58a6ff" stroke="#0d1117" stroke-width="2.5"/>
<circle cx="396.2" cy="150.6" r="6" fill="#58a6ff" opacity="0.2"/>
<circle cx="396.2" cy="150.6" r="4" fill="#58a6ff" stroke="#0d1117" stroke-width="2.5"/>
<circle cx="425.8" cy="150.6" r="6" fill="#58a6ff" opacity="0.2"/>
<circle cx="425.8" cy="150.6" r="4" fill="#58a6ff" stroke="#0d1117" stroke-width="2.5"/>
<circle cx="455.5" cy="235.2" r="6" fill="#58a6ff" opacity="0.2"/>
<circle cx="455.5" cy="235.2" r="4" fill="#58a6ff" stroke="#0d1117" stroke-width="2.5"/>
<circle cx="485.2" cy="417.1" r="6" fill="#58a6ff" opacity="0.2"/>
<circle cx="485.2" cy="417.1" r="4" fill="#58a6ff" stroke="#0d1117" stroke-width="2.5"/>
<circle cx="514.8" cy="151.0" r="6" fill="#58a6ff" opacity="0.2"/>
<circle cx="514.8" cy="151.0" r="4" fill="#58a6ff" stroke="#0d1117" stroke-width="2.5"/>
<circle cx="544.5" cy="150.9" r="6" fill="#58a6ff" opacity="0.2"/>
<circle cx="544.5" cy="150.9" r="4" fill="#58a6ff" stroke="#0d1117" stroke-width="2.5"/>
<circle cx="574.2" cy="150.9" r="6" fill="#58a6ff" opacity="0.2"/>
<circle cx="574.2" cy="150.9" r="4" fill="#58a6ff" stroke="#0d1117" stroke-width="2.5"/>
<circle cx="603.8" cy="227.3" r="6" fill="#58a6ff" opacity="0.2"/>
<circle cx="603.8" cy="227.3" r="4" fill="#58a6ff" stroke="#0d1117" stroke-width="2.5"/>
<circle cx="633.5" cy="408.9" r="6" fill="#58a6ff" opacity="0.2"/>
<circle cx="633.5" cy="408.9" r="4" fill="#58a6ff" stroke="#0d1117" stroke-width="2.5"/>
<circle cx="663.2" cy="155.7" r="6" fill="#58a6ff" opacity="0.2"/>
<circle cx="663.2" cy="155.7" r="4" fill="#58a6ff" stroke="#0d1117" stroke-width="2.5"/>
<circle cx="692.8" cy="155.7" r="6" fill="#58a6ff" opacity="0.2"/>
<circle cx="692.8" cy="155.7" r="4" fill="#58a6ff" stroke="#0d1117" stroke-width="2.5"/>
<circle cx="722.5" cy="155.7" r="6" fill="#58a6ff" opacity="0.2"/>
<circle cx="722.5" cy="155.7" r="4" fill="#58a6ff" stroke="#0d1117" stroke-width="2.5"/>
<circle cx="752.2" cy="222.4" r="6" fill="#58a6ff" opacity="0.2"/>
<circle cx="752.2" cy="222.4" r="4" fill="#58a6ff" stroke="#0d1117" stroke-width="2.5"/>
<circle cx="781.8" cy="399.2" r="6" fill="#58a6ff" opacity="0.2"/>
<circle cx="781.8" cy="399.2" r="4" fill="#58a6ff" stroke="#0d1117" stroke-width="2.5"/>
<circle cx="811.5" cy="138.0" r="6" fill="#58a6ff" opacity="0.2"/>
<circle cx="811.5" cy="138.0" r="4" fill="#58a6ff" stroke="#0d1117" stroke-width="2.5"/>
<circle cx="841.2" cy="138.3" r="6" fill="#58a6ff" opacity="0.2"/>
<circle cx="841.2" cy="138.3" r="4" fill="#58a6ff" stroke="#0d1117" stroke-width="2.5"/>
<circle cx="870.8" cy="138.4" r="6" fill="#58a6ff" opacity="0.2"/>
<circle cx="870.8" cy="138.4" r="4" fill="#58a6ff" stroke="#0d1117" stroke-width="2.5"/>
<circle cx="900.5" cy="191.8" r="6" fill="#58a6ff" opacity="0.2"/>
<circle cx="900.5" cy="191.8" r="4" fill="#58a6ff" stroke="#0d1117" stroke-width="2.5"/>
<circle cx="930.2" cy="386.0" r="6" fill="#58a6ff" opacity="0.2"/>
<circle cx="930.2" cy="386.0" r="4" fill="#58a6ff" stroke="#0d1117" stroke-width="2.5"/>
<path d="M69.8,120.7 L99.5,120.7 L129.2,120.7 L158.8,192.3 L188.5,404.1 L218.2,120.4 L247.8,120.3 L277.5,120.4 L307.2,181.0 L336.8,393.2 L366.5,129.1 L396.2,129.1 L425.8,129.2 L455.5,199.9 L485.2,403.3 L514.8,129.4 L544.5,129.4 L574.2,129.4 L603.8,195.3 L633.5,398.4 L663.2,155.7 L692.8,155.2 L722.5,155.7 L752.2,190.8 L781.8,368.1 L811.5,120.8 L841.2,120.8 L870.8,120.8 L900.5,184.1 L930.2,395.8" fill="none" stroke="#FF9800" stroke-width="8" stroke-linejoin="round" stroke-linecap="round" opacity="0.12"/>
<path d="M69.8,120.7 L99.5,120.7 L129.2,120.7 L158.8,192.3 L188.5,404.1 L218.2,120.4 L247.8,120.3 L277.5,120.4 L307.2,181.0 L336.8,393.2 L366.5,129.1 L396.2,129.1 L425.8,129.2 L455.5,199.9 L485.2,403.3 L514.8,129.4 L544.5,129.4 L574.2,129.4 L603.8,195.3 L633.5,398.4 L663.2,155.7 L692.8,155.2 L722.5,155.7 L752.2,190.8 L781.8,368.1 L811.5,120.8 L841.2,120.8 L870.8,120.8 L900.5,184.1 L930.2,395.8" fill="none" stroke="#FF9800" stroke-width="3.5" stroke-linejoin="round" stroke-linecap="round"/>
<circle cx="69.8" cy="120.7" r="6" fill="#FF9800" opacity="0.2"/>
<circle cx="69.8" cy="120.7" r="4" fill="#FF9800" stroke="#0d1117" stroke-width="2.5"/>
<circle cx="99.5" cy="120.7" r="6" fill="#FF9800" opacity="0.2"/>
<circle cx="99.5" cy="120.7" r="4" fill="#FF9800" stroke="#0d1117" stroke-width="2.5"/>
<circle cx="129.2" cy="120.7" r="6" fill="#FF9800" opacity="0.2"/>
<circle cx="129.2" cy="120.7" r="4" fill="#FF9800" stroke="#0d1117" stroke-width="2.5"/>
<circle cx="158.8" cy="192.3" r="6" fill="#FF9800" opacity="0.2"/>
<circle cx="158.8" cy="192.3" r="4" fill="#FF9800" stroke="#0d1117" stroke-width="2.5"/>
<circle cx="188.5" cy="404.1" r="6" fill="#FF9800" opacity="0.2"/>
<circle cx="188.5" cy="404.1" r="4" fill="#FF9800" stroke="#0d1117" stroke-width="2.5"/>
<circle cx="218.2" cy="120.4" r="6" fill="#FF9800" opacity="0.2"/>
<circle cx="218.2" cy="120.4" r="4" fill="#FF9800" stroke="#0d1117" stroke-width="2.5"/>
<circle cx="247.8" cy="120.3" r="6" fill="#FF9800" opacity="0.2"/>
<circle cx="247.8" cy="120.3" r="4" fill="#FF9800" stroke="#0d1117" stroke-width="2.5"/>
<circle cx="277.5" cy="120.4" r="6" fill="#FF9800" opacity="0.2"/>
<circle cx="277.5" cy="120.4" r="4" fill="#FF9800" stroke="#0d1117" stroke-width="2.5"/>
<circle cx="307.2" cy="181.0" r="6" fill="#FF9800" opacity="0.2"/>
<circle cx="307.2" cy="181.0" r="4" fill="#FF9800" stroke="#0d1117" stroke-width="2.5"/>
<circle cx="336.8" cy="393.2" r="6" fill="#FF9800" opacity="0.2"/>
<circle cx="336.8" cy="393.2" r="4" fill="#FF9800" stroke="#0d1117" stroke-width="2.5"/>
<circle cx="366.5" cy="129.1" r="6" fill="#FF9800" opacity="0.2"/>
<circle cx="366.5" cy="129.1" r="4" fill="#FF9800" stroke="#0d1117" stroke-width="2.5"/>
<circle cx="396.2" cy="129.1" r="6" fill="#FF9800" opacity="0.2"/>
<circle cx="396.2" cy="129.1" r="4" fill="#FF9800" stroke="#0d1117" stroke-width="2.5"/>
<circle cx="425.8" cy="129.2" r="6" fill="#FF9800" opacity="0.2"/>
<circle cx="425.8" cy="129.2" r="4" fill="#FF9800" stroke="#0d1117" stroke-width="2.5"/>
<circle cx="455.5" cy="199.9" r="6" fill="#FF9800" opacity="0.2"/>
<circle cx="455.5" cy="199.9" r="4" fill="#FF9800" stroke="#0d1117" stroke-width="2.5"/>
<circle cx="485.2" cy="403.3" r="6" fill="#FF9800" opacity="0.2"/>
<circle cx="485.2" cy="403.3" r="4" fill="#FF9800" stroke="#0d1117" stroke-width="2.5"/>
<circle cx="514.8" cy="129.4" r="6" fill="#FF9800" opacity="0.2"/>
<circle cx="514.8" cy="129.4" r="4" fill="#FF9800" stroke="#0d1117" stroke-width="2.5"/>
<circle cx="544.5" cy="129.4" r="6" fill="#FF9800" opacity="0.2"/>
<circle cx="544.5" cy="129.4" r="4" fill="#FF9800" stroke="#0d1117" stroke-width="2.5"/>
<circle cx="574.2" cy="129.4" r="6" fill="#FF9800" opacity="0.2"/>
<circle cx="574.2" cy="129.4" r="4" fill="#FF9800" stroke="#0d1117" stroke-width="2.5"/>
<circle cx="603.8" cy="195.3" r="6" fill="#FF9800" opacity="0.2"/>
<circle cx="603.8" cy="195.3" r="4" fill="#FF9800" stroke="#0d1117" stroke-width="2.5"/>
<circle cx="633.5" cy="398.4" r="6" fill="#FF9800" opacity="0.2"/>
<circle cx="633.5" cy="398.4" r="4" fill="#FF9800" stroke="#0d1117" stroke-width="2.5"/>
<circle cx="663.2" cy="155.7" r="6" fill="#FF9800" opacity="0.2"/>
<circle cx="663.2" cy="155.7" r="4" fill="#FF9800" stroke="#0d1117" stroke-width="2.5"/>
<circle cx="692.8" cy="155.2" r="6" fill="#FF9800" opacity="0.2"/>
<circle cx="692.8" cy="155.2" r="4" fill="#FF9800" stroke="#0d1117" stroke-width="2.5"/>
<circle cx="722.5" cy="155.7" r="6" fill="#FF9800" opacity="0.2"/>
<circle cx="722.5" cy="155.7" r="4" fill="#FF9800" stroke="#0d1117" stroke-width="2.5"/>
<circle cx="752.2" cy="190.8" r="6" fill="#FF9800" opacity="0.2"/>
<circle cx="752.2" cy="190.8" r="4" fill="#FF9800" stroke="#0d1117" stroke-width="2.5"/>
<circle cx="781.8" cy="368.1" r="6" fill="#FF9800" opacity="0.2"/>
<circle cx="781.8" cy="368.1" r="4" fill="#FF9800" stroke="#0d1117" stroke-width="2.5"/>
<circle cx="811.5" cy="120.8" r="6" fill="#FF9800" opacity="0.2"/>
<circle cx="811.5" cy="120.8" r="4" fill="#FF9800" stroke="#0d1117" stroke-width="2.5"/>
<circle cx="841.2" cy="120.8" r="6" fill="#FF9800" opacity="0.2"/>
<circle cx="841.2" cy="120.8" r="4" fill="#FF9800" stroke="#0d1117" stroke-width="2.5"/>
<circle cx="870.8" cy="120.8" r="6" fill="#FF9800" opacity="0.2"/>
<circle cx="870.8" cy="120.8" r="4" fill="#FF9800" stroke="#0d1117" stroke-width="2.5"/>
<circle cx="900.5" cy="184.1" r="6" fill="#FF9800" opacity="0.2"/>
<circle cx="900.5" cy="184.1" r="4" fill="#FF9800" stroke="#0d1117" stroke-width="2.5"/>
<circle cx="930.2" cy="395.8" r="6" fill="#FF9800" opacity="0.2"/>
<circle cx="930.2" cy="395.8" r="4" fill="#FF9800" stroke="#0d1117" stroke-width="2.5"/>
<path d="M69.8,122.6 L99.5,122.6 L129.2,122.6 L158.8,196.5 L188.5,406.4 L218.2,120.4 L247.8,120.7 L277.5,120.8 L307.2,172.8 L336.8,384.6 L366.5,131.2 L396.2,130.9 L425.8,130.9 L455.5,183.4 L485.2,385.0 L514.8,130.3 L544.5,129.7 L574.2,130.2 L603.8,164.6 L633.5,367.4 L663.2,155.8 L692.8,152.6 L722.5,155.7 L752.2,165.7 L781.8,345.6 L811.5,122.3 L841.2,122.4 L870.8,122.3 L900.5,199.0 L930.2,409.1" fill="none" stroke="#4CAF50" stroke-width="8" stroke-linejoin="round" stroke-linecap="round" opacity="0.12"/>
<path d="M69.8,122.6 L99.5,122.6 L129.2,122.6 L158.8,196.5 L188.5,406.4 L218.2,120.4 L247.8,120.7 L277.5,120.8 L307.2,172.8 L336.8,384.6 L366.5,131.2 L396.2,130.9 L425.8,130.9 L455.5,183.4 L485.2,385.0 L514.8,130.3 L544.5,129.7 L574.2,130.2 L603.8,164.6 L633.5,367.4 L663.2,155.8 L692.8,152.6 L722.5,155.7 L752.2,165.7 L781.8,345.6 L811.5,122.3 L841.2,122.4 L870.8,122.3 L900.5,199.0 L930.2,409.1" fill="none" stroke="#4CAF50" stroke-width="3.5" stroke-linejoin="round" stroke-linecap="round"/>
<circle cx="69.8" cy="122.6" r="6" fill="#4CAF50" opacity="0.2"/>
<circle cx="69.8" cy="122.6" r="4" fill="#4CAF50" stroke="#0d1117" stroke-width="2.5"/>
<circle cx="99.5" cy="122.6" r="6" fill="#4CAF50" opacity="0.2"/>
<circle cx="99.5" cy="122.6" r="4" fill="#4CAF50" stroke="#0d1117" stroke-width="2.5"/>
<circle cx="129.2" cy="122.6" r="6" fill="#4CAF50" opacity="0.2"/>
<circle cx="129.2" cy="122.6" r="4" fill="#4CAF50" stroke="#0d1117" stroke-width="2.5"/>
<circle cx="158.8" cy="196.5" r="6" fill="#4CAF50" opacity="0.2"/>
<circle cx="158.8" cy="196.5" r="4" fill="#4CAF50" stroke="#0d1117" stroke-width="2.5"/>
<circle cx="188.5" cy="406.4" r="6" fill="#4CAF50" opacity="0.2"/>
<circle cx="188.5" cy="406.4" r="4" fill="#4CAF50" stroke="#0d1117" stroke-width="2.5"/>
<circle cx="218.2" cy="120.4" r="6" fill="#4CAF50" opacity="0.2"/>
<circle cx="218.2" cy="120.4" r="4" fill="#4CAF50" stroke="#0d1117" stroke-width="2.5"/>
<circle cx="247.8" cy="120.7" r="6" fill="#4CAF50" opacity="0.2"/>
<circle cx="247.8" cy="120.7" r="4" fill="#4CAF50" stroke="#0d1117" stroke-width="2.5"/>
<circle cx="277.5" cy="120.8" r="6" fill="#4CAF50" opacity="0.2"/>
<circle cx="277.5" cy="120.8" r="4" fill="#4CAF50" stroke="#0d1117" stroke-width="2.5"/>
<circle cx="307.2" cy="172.8" r="6" fill="#4CAF50" opacity="0.2"/>
<circle cx="307.2" cy="172.8" r="4" fill="#4CAF50" stroke="#0d1117" stroke-width="2.5"/>
<circle cx="336.8" cy="384.6" r="6" fill="#4CAF50" opacity="0.2"/>
<circle cx="336.8" cy="384.6" r="4" fill="#4CAF50" stroke="#0d1117" stroke-width="2.5"/>
<circle cx="366.5" cy="131.2" r="6" fill="#4CAF50" opacity="0.2"/>
<circle cx="366.5" cy="131.2" r="4" fill="#4CAF50" stroke="#0d1117" stroke-width="2.5"/>
<circle cx="396.2" cy="130.9" r="6" fill="#4CAF50" opacity="0.2"/>
<circle cx="396.2" cy="130.9" r="4" fill="#4CAF50" stroke="#0d1117" stroke-width="2.5"/>
<circle cx="425.8" cy="130.9" r="6" fill="#4CAF50" opacity="0.2"/>
<circle cx="425.8" cy="130.9" r="4" fill="#4CAF50" stroke="#0d1117" stroke-width="2.5"/>
<circle cx="455.5" cy="183.4" r="6" fill="#4CAF50" opacity="0.2"/>
<circle cx="455.5" cy="183.4" r="4" fill="#4CAF50" stroke="#0d1117" stroke-width="2.5"/>
<circle cx="485.2" cy="385.0" r="6" fill="#4CAF50" opacity="0.2"/>
<circle cx="485.2" cy="385.0" r="4" fill="#4CAF50" stroke="#0d1117" stroke-width="2.5"/>
<circle cx="514.8" cy="130.3" r="6" fill="#4CAF50" opacity="0.2"/>
<circle cx="514.8" cy="130.3" r="4" fill="#4CAF50" stroke="#0d1117" stroke-width="2.5"/>
<circle cx="544.5" cy="129.7" r="6" fill="#4CAF50" opacity="0.2"/>
<circle cx="544.5" cy="129.7" r="4" fill="#4CAF50" stroke="#0d1117" stroke-width="2.5"/>
<circle cx="574.2" cy="130.2" r="6" fill="#4CAF50" opacity="0.2"/>
<circle cx="574.2" cy="130.2" r="4" fill="#4CAF50" stroke="#0d1117" stroke-width="2.5"/>
<circle cx="603.8" cy="164.6" r="6" fill="#4CAF50" opacity="0.2"/>
<circle cx="603.8" cy="164.6" r="4" fill="#4CAF50" stroke="#0d1117" stroke-width="2.5"/>
<circle cx="633.5" cy="367.4" r="6" fill="#4CAF50" opacity="0.2"/>
<circle cx="633.5" cy="367.4" r="4" fill="#4CAF50" stroke="#0d1117" stroke-width="2.5"/>
<circle cx="663.2" cy="155.8" r="6" fill="#4CAF50" opacity="0.2"/>
<circle cx="663.2" cy="155.8" r="4" fill="#4CAF50" stroke="#0d1117" stroke-width="2.5"/>
<circle cx="692.8" cy="152.6" r="6" fill="#4CAF50" opacity="0.2"/>
<circle cx="692.8" cy="152.6" r="4" fill="#4CAF50" stroke="#0d1117" stroke-width="2.5"/>
<circle cx="722.5" cy="155.7" r="6" fill="#4CAF50" opacity="0.2"/>
<circle cx="722.5" cy="155.7" r="4" fill="#4CAF50" stroke="#0d1117" stroke-width="2.5"/>
<circle cx="752.2" cy="165.7" r="6" fill="#4CAF50" opacity="0.2"/>
<circle cx="752.2" cy="165.7" r="4" fill="#4CAF50" stroke="#0d1117" stroke-width="2.5"/>
<circle cx="781.8" cy="345.6" r="6" fill="#4CAF50" opacity="0.2"/>
<circle cx="781.8" cy="345.6" r="4" fill="#4CAF50" stroke="#0d1117" stroke-width="2.5"/>
<circle cx="811.5" cy="122.3" r="6" fill="#4CAF50" opacity="0.2"/>
<circle cx="811.5" cy="122.3" r="4" fill="#4CAF50" stroke="#0d1117" stroke-width="2.5"/>
<circle cx="841.2" cy="122.4" r="6" fill="#4CAF50" opacity="0.2"/>
<circle cx="841.2" cy="122.4" r="4" fill="#4CAF50" stroke="#0d1117" stroke-width="2.5"/>
<circle cx="870.8" cy="122.3" r="6" fill="#4CAF50" opacity="0.2"/>
<circle cx="870.8" cy="122.3" r="4" fill="#4CAF50" stroke="#0d1117" stroke-width="2.5"/>
<circle cx="900.5" cy="199.0" r="6" fill="#4CAF50" opacity="0.2"/>
<circle cx="900.5" cy="199.0" r="4" fill="#4CAF50" stroke="#0d1117" stroke-width="2.5"/>
<circle cx="930.2" cy="409.1" r="6" fill="#4CAF50" opacity="0.2"/>
<circle cx="930.2" cy="409.1" r="4" fill="#4CAF50" stroke="#0d1117" stroke-width="2.5"/>
<path d="M69.8,122.6 L99.5,122.6 L129.2,122.7 L158.8,195.3 L188.5,405.2 L218.2,122.1 L247.8,122.1 L277.5,122.1 L307.2,195.0 L336.8,405.5 L366.5,130.8 L396.2,130.8 L425.8,130.8 L455.5,204.4 L485.2,406.1 L514.8,131.0 L544.5,130.9 L574.2,131.0 L603.8,200.7 L633.5,402.3 L663.2,154.5 L692.8,153.8 L722.5,154.5 L752.2,185.0 L781.8,363.7 L811.5,122.4 L841.2,122.4 L870.8,122.4 L900.5,215.2 L930.2,425.3" fill="none" stroke="#BB86FC" stroke-width="8" stroke-linejoin="round" stroke-linecap="round" opacity="0.12"/>
<path d="M69.8,122.6 L99.5,122.6 L129.2,122.7 L158.8,195.3 L188.5,405.2 L218.2,122.1 L247.8,122.1 L277.5,122.1 L307.2,195.0 L336.8,405.5 L366.5,130.8 L396.2,130.8 L425.8,130.8 L455.5,204.4 L485.2,406.1 L514.8,131.0 L544.5,130.9 L574.2,131.0 L603.8,200.7 L633.5,402.3 L663.2,154.5 L692.8,153.8 L722.5,154.5 L752.2,185.0 L781.8,363.7 L811.5,122.4 L841.2,122.4 L870.8,122.4 L900.5,215.2 L930.2,425.3" fill="none" stroke="#BB86FC" stroke-width="3.5" stroke-linejoin="round" stroke-linecap="round"/>
<circle cx="69.8" cy="122.6" r="6" fill="#BB86FC" opacity="0.2"/>
<circle cx="69.8" cy="122.6" r="4" fill="#BB86FC" stroke="#0d1117" stroke-width="2.5"/>
<circle cx="99.5" cy="122.6" r="6" fill="#BB86FC" opacity="0.2"/>
<circle cx="99.5" cy="122.6" r="4" fill="#BB86FC" stroke="#0d1117" stroke-width="2.5"/>
<circle cx="129.2" cy="122.7" r="6" fill="#BB86FC" opacity="0.2"/>
<circle cx="129.2" cy="122.7" r="4" fill="#BB86FC" stroke="#0d1117" stroke-width="2.5"/>
<circle cx="158.8" cy="195.3" r="6" fill="#BB86FC" opacity="0.2"/>
<circle cx="158.8" cy="195.3" r="4" fill="#BB86FC" stroke="#0d1117" stroke-width="2.5"/>
<circle cx="188.5" cy="405.2" r="6" fill="#BB86FC" opacity="0.2"/>
<circle cx="188.5" cy="405.2" r="4" fill="#BB86FC" stroke="#0d1117" stroke-width="2.5"/>
<circle cx="218.2" cy="122.1" r="6" fill="#BB86FC" opacity="0.2"/>
<circle cx="218.2" cy="122.1" r="4" fill="#BB86FC" stroke="#0d1117" stroke-width="2.5"/>
<circle cx="247.8" cy="122.1" r="6" fill="#BB86FC" opacity="0.2"/>
<circle cx="247.8" cy="122.1" r="4" fill="#BB86FC" stroke="#0d1117" stroke-width="2.5"/>
<circle cx="277.5" cy="122.1" r="6" fill="#BB86FC" opacity="0.2"/>
<circle cx="277.5" cy="122.1" r="4" fill="#BB86FC" stroke="#0d1117" stroke-width="2.5"/>
<circle cx="307.2" cy="195.0" r="6" fill="#BB86FC" opacity="0.2"/>
<circle cx="307.2" cy="195.0" r="4" fill="#BB86FC" stroke="#0d1117" stroke-width="2.5"/>
<circle cx="336.8" cy="405.5" r="6" fill="#BB86FC" opacity="0.2"/>
<circle cx="336.8" cy="405.5" r="4" fill="#BB86FC" stroke="#0d1117" stroke-width="2.5"/>
<circle cx="366.5" cy="130.8" r="6" fill="#BB86FC" opacity="0.2"/>
<circle cx="366.5" cy="130.8" r="4" fill="#BB86FC" stroke="#0d1117" stroke-width="2.5"/>
<circle cx="396.2" cy="130.8" r="6" fill="#BB86FC" opacity="0.2"/>
<circle cx="396.2" cy="130.8" r="4" fill="#BB86FC" stroke="#0d1117" stroke-width="2.5"/>
<circle cx="425.8" cy="130.8" r="6" fill="#BB86FC" opacity="0.2"/>
<circle cx="425.8" cy="130.8" r="4" fill="#BB86FC" stroke="#0d1117" stroke-width="2.5"/>
<circle cx="455.5" cy="204.4" r="6" fill="#BB86FC" opacity="0.2"/>
<circle cx="455.5" cy="204.4" r="4" fill="#BB86FC" stroke="#0d1117" stroke-width="2.5"/>
<circle cx="485.2" cy="406.1" r="6" fill="#BB86FC" opacity="0.2"/>
<circle cx="485.2" cy="406.1" r="4" fill="#BB86FC" stroke="#0d1117" stroke-width="2.5"/>
<circle cx="514.8" cy="131.0" r="6" fill="#BB86FC" opacity="0.2"/>
<circle cx="514.8" cy="131.0" r="4" fill="#BB86FC" stroke="#0d1117" stroke-width="2.5"/>
<circle cx="544.5" cy="130.9" r="6" fill="#BB86FC" opacity="0.2"/>
<circle cx="544.5" cy="130.9" r="4" fill="#BB86FC" stroke="#0d1117" stroke-width="2.5"/>
<circle cx="574.2" cy="131.0" r="6" fill="#BB86FC" opacity="0.2"/>
<circle cx="574.2" cy="131.0" r="4" fill="#BB86FC" stroke="#0d1117" stroke-width="2.5"/>
<circle cx="603.8" cy="200.7" r="6" fill="#BB86FC" opacity="0.2"/>
<circle cx="603.8" cy="200.7" r="4" fill="#BB86FC" stroke="#0d1117" stroke-width="2.5"/>
<circle cx="633.5" cy="402.3" r="6" fill="#BB86FC" opacity="0.2"/>
<circle cx="633.5" cy="402.3" r="4" fill="#BB86FC" stroke="#0d1117" stroke-width="2.5"/>
<circle cx="663.2" cy="154.5" r="6" fill="#BB86FC" opacity="0.2"/>
<circle cx="663.2" cy="154.5" r="4" fill="#BB86FC" stroke="#0d1117" stroke-width="2.5"/>
<circle cx="692.8" cy="153.8" r="6" fill="#BB86FC" opacity="0.2"/>
<circle cx="692.8" cy="153.8" r="4" fill="#BB86FC" stroke="#0d1117" stroke-width="2.5"/>
<circle cx="722.5" cy="154.5" r="6" fill="#BB86FC" opacity="0.2"/>
<circle cx="722.5" cy="154.5" r="4" fill="#BB86FC" stroke="#0d1117" stroke-width="2.5"/>
<circle cx="752.2" cy="185.0" r="6" fill="#BB86FC" opacity="0.2"/>
<circle cx="752.2" cy="185.0" r="4" fill="#BB86FC" stroke="#0d1117" stroke-width="2.5"/>
<circle cx="781.8" cy="363.7" r="6" fill="#BB86FC" opacity="0.2"/>
<circle cx="781.8" cy="363.7" r="4" fill="#BB86FC" stroke="#0d1117" stroke-width="2.5"/>
<circle cx="811.5" cy="122.4" r="6" fill="#BB86FC" opacity="0.2"/>
<circle cx="811.5" cy="122.4" r="4" fill="#BB86FC" stroke="#0d1117" stroke-width="2.5"/>
<circle cx="841.2" cy="122.4" r="6" fill="#BB86FC" opacity="0.2"/>
<circle cx="841.2" cy="122.4" r="4" fill="#BB86FC" stroke="#0d1117" stroke-width="2.5"/>
<circle cx="870.8" cy="122.4" r="6" fill="#BB86FC" opacity="0.2"/>
<circle cx="870.8" cy="122.4" r="4" fill="#BB86FC" stroke="#0d1117" stroke-width="2.5"/>
<circle cx="900.5" cy="215.2" r="6" fill="#BB86FC" opacity="0.2"/>
<circle cx="900.5" cy="215.2" r="4" fill="#BB86FC" stroke="#0d1117" stroke-width="2.5"/>
<circle cx="930.2" cy="425.3" r="6" fill="#BB86FC" opacity="0.2"/>
<circle cx="930.2" cy="425.3" r="4" fill="#BB86FC" stroke="#0d1117" stroke-width="2.5"/>
<path d="M69.8,121.9 L99.5,121.9 L129.2,121.9 L158.8,198.1 L188.5,408.7 L218.2,121.6 L247.8,121.5 L277.5,121.6 L307.2,180.2 L336.8,391.1 L366.5,130.7 L396.2,130.4 L425.8,130.4 L455.5,182.5 L485.2,384.6 L514.8,130.8 L544.5,130.6 L574.2,130.8 L603.8,182.1 L633.5,384.0 L663.2,155.6 L692.8,154.6 L722.5,155.6 L752.2,181.5 L781.8,359.4 L811.5,122.1 L841.2,122.1 L870.8,122.1 L900.5,201.5 L930.2,411.8" fill="none" stroke="#F472B6" stroke-width="8" stroke-linejoin="round" stroke-linecap="round" opacity="0.12"/>
<path d="M69.8,121.9 L99.5,121.9 L129.2,121.9 L158.8,198.1 L188.5,408.7 L218.2,121.6 L247.8,121.5 L277.5,121.6 L307.2,180.2 L336.8,391.1 L366.5,130.7 L396.2,130.4 L425.8,130.4 L455.5,182.5 L485.2,384.6 L514.8,130.8 L544.5,130.6 L574.2,130.8 L603.8,182.1 L633.5,384.0 L663.2,155.6 L692.8,154.6 L722.5,155.6 L752.2,181.5 L781.8,359.4 L811.5,122.1 L841.2,122.1 L870.8,122.1 L900.5,201.5 L930.2,411.8" fill="none" stroke="#F472B6" stroke-width="3.5" stroke-linejoin="round" stroke-linecap="round"/>
<circle cx="69.8" cy="121.9" r="6" fill="#F472B6" opacity="0.2"/>
<circle cx="69.8" cy="121.9" r="4" fill="#F472B6" stroke="#0d1117" stroke-width="2.5"/>
<circle cx="99.5" cy="121.9" r="6" fill="#F472B6" opacity="0.2"/>
<circle cx="99.5" cy="121.9" r="4" fill="#F472B6" stroke="#0d1117" stroke-width="2.5"/>
<circle cx="129.2" cy="121.9" r="6" fill="#F472B6" opacity="0.2"/>
<circle cx="129.2" cy="121.9" r="4" fill="#F472B6" stroke="#0d1117" stroke-width="2.5"/>
<circle cx="158.8" cy="198.1" r="6" fill="#F472B6" opacity="0.2"/>
<circle cx="158.8" cy="198.1" r="4" fill="#F472B6" stroke="#0d1117" stroke-width="2.5"/>
<circle cx="188.5" cy="408.7" r="6" fill="#F472B6" opacity="0.2"/>
<circle cx="188.5" cy="408.7" r="4" fill="#F472B6" stroke="#0d1117" stroke-width="2.5"/>
<circle cx="218.2" cy="121.6" r="6" fill="#F472B6" opacity="0.2"/>
<circle cx="218.2" cy="121.6" r="4" fill="#F472B6" stroke="#0d1117" stroke-width="2.5"/>
<circle cx="247.8" cy="121.5" r="6" fill="#F472B6" opacity="0.2"/>
<circle cx="247.8" cy="121.5" r="4" fill="#F472B6" stroke="#0d1117" stroke-width="2.5"/>
<circle cx="277.5" cy="121.6" r="6" fill="#F472B6" opacity="0.2"/>
<circle cx="277.5" cy="121.6" r="4" fill="#F472B6" stroke="#0d1117" stroke-width="2.5"/>
<circle cx="307.2" cy="180.2" r="6" fill="#F472B6" opacity="0.2"/>
<circle cx="307.2" cy="180.2" r="4" fill="#F472B6" stroke="#0d1117" stroke-width="2.5"/>
<circle cx="336.8" cy="391.1" r="6" fill="#F472B6" opacity="0.2"/>
<circle cx="336.8" cy="391.1" r="4" fill="#F472B6" stroke="#0d1117" stroke-width="2.5"/>
<circle cx="366.5" cy="130.7" r="6" fill="#F472B6" opacity="0.2"/>
<circle cx="366.5" cy="130.7" r="4" fill="#F472B6" stroke="#0d1117" stroke-width="2.5"/>
<circle cx="396.2" cy="130.4" r="6" fill="#F472B6" opacity="0.2"/>
<circle cx="396.2" cy="130.4" r="4" fill="#F472B6" stroke="#0d1117" stroke-width="2.5"/>
<circle cx="425.8" cy="130.4" r="6" fill="#F472B6" opacity="0.2"/>
<circle cx="425.8" cy="130.4" r="4" fill="#F472B6" stroke="#0d1117" stroke-width="2.5"/>
<circle cx="455.5" cy="182.5" r="6" fill="#F472B6" opacity="0.2"/>
<circle cx="455.5" cy="182.5" r="4" fill="#F472B6" stroke="#0d1117" stroke-width="2.5"/>
<circle cx="485.2" cy="384.6" r="6" fill="#F472B6" opacity="0.2"/>
<circle cx="485.2" cy="384.6" r="4" fill="#F472B6" stroke="#0d1117" stroke-width="2.5"/>
<circle cx="514.8" cy="130.8" r="6" fill="#F472B6" opacity="0.2"/>
<circle cx="514.8" cy="130.8" r="4" fill="#F472B6" stroke="#0d1117" stroke-width="2.5"/>
<circle cx="544.5" cy="130.6" r="6" fill="#F472B6" opacity="0.2"/>
<circle cx="544.5" cy="130.6" r="4" fill="#F472B6" stroke="#0d1117" stroke-width="2.5"/>
<circle cx="574.2" cy="130.8" r="6" fill="#F472B6" opacity="0.2"/>
<circle cx="574.2" cy="130.8" r="4" fill="#F472B6" stroke="#0d1117" stroke-width="2.5"/>
<circle cx="603.8" cy="182.1" r="6" fill="#F472B6" opacity="0.2"/>
<circle cx="603.8" cy="182.1" r="4" fill="#F472B6" stroke="#0d1117" stroke-width="2.5"/>
<circle cx="633.5" cy="384.0" r="6" fill="#F472B6" opacity="0.2"/>
<circle cx="633.5" cy="384.0" r="4" fill="#F472B6" stroke="#0d1117" stroke-width="2.5"/>
<circle cx="663.2" cy="155.6" r="6" fill="#F472B6" opacity="0.2"/>
<circle cx="663.2" cy="155.6" r="4" fill="#F472B6" stroke="#0d1117" stroke-width="2.5"/>
<circle cx="692.8" cy="154.6" r="6" fill="#F472B6" opacity="0.2"/>
<circle cx="692.8" cy="154.6" r="4" fill="#F472B6" stroke="#0d1117" stroke-width="2.5"/>
<circle cx="722.5" cy="155.6" r="6" fill="#F472B6" opacity="0.2"/>
<circle cx="722.5" cy="155.6" r="4" fill="#F472B6" stroke="#0d1117" stroke-width="2.5"/>
<circle cx="752.2" cy="181.5" r="6" fill="#F472B6" opacity="0.2"/>
<circle cx="752.2" cy="181.5" r="4" fill="#F472B6" stroke="#0d1117" stroke-width="2.5"/>
<circle cx="781.8" cy="359.4" r="6" fill="#F472B6" opacity="0.2"/>
<circle cx="781.8" cy="359.4" r="4" fill="#F472B6" stroke="#0d1117" stroke-width="2.5"/>
<circle cx="811.5" cy="122.1" r="6" fill="#F472B6" opacity="0.2"/>
<circle cx="811.5" cy="122.1" r="4" fill="#F472B6" stroke="#0d1117" stroke-width="2.5"/>
<circle cx="841.2" cy="122.1" r="6" fill="#F472B6" opacity="0.2"/>
<circle cx="841.2" cy="122.1" r="4" fill="#F472B6" stroke="#0d1117" stroke-width="2.5"/>
<circle cx="870.8" cy="122.1" r="6" fill="#F472B6" opacity="0.2"/>
<circle cx="870.8" cy="122.1" r="4" fill="#F472B6" stroke="#0d1117" stroke-width="2.5"/>
<circle cx="900.5" cy="201.5" r="6" fill="#F472B6" opacity="0.2"/>
<circle cx="900.5" cy="201.5" r="4" fill="#F472B6" stroke="#0d1117" stroke-width="2.5"/>
<circle cx="930.2" cy="411.8" r="6" fill="#F472B6" opacity="0.2"/>
<circle cx="930.2" cy="411.8" r="4" fill="#F472B6" stroke="#0d1117" stroke-width="2.5"/>
<text x="69.8" y="448" text-anchor="end" fill="#8b949e" font-size="11" transform="rotate(-30,69.8,448)">push_back</text>
<text x="99.5" y="448" text-anchor="end" fill="#8b949e" font-size="11" transform="rotate(-30,99.5,448)">push_back_mean</text>
<text x="129.2" y="448" text-anchor="end" fill="#8b949e" font-size="11" transform="rotate(-30,129.2,448)">push_back_median</text>
<text x="158.8" y="448" text-anchor="end" fill="#8b949e" font-size="11" transform="rotate(-30,158.8,448)">push_back_stddev</text>
<text x="188.5" y="448" text-anchor="end" fill="#8b949e" font-size="11" transform="rotate(-30,188.5,448)">push_back_cv</text>
<text x="218.2" y="448" text-anchor="end" fill="#8b949e" font-size="11" transform="rotate(-30,218.2,448)">push_front</text>
<text x="247.8" y="448" text-anchor="end" fill="#8b949e" font-size="11" transform="rotate(-30,247.8,448)">push_front_mean</text>
<text x="277.5" y="448" text-anchor="end" fill="#8b949e" font-size="11" transform="rotate(-30,277.5,448)">push_front_median</text>
<text x="307.2" y="448" text-anchor="end" fill="#8b949e" font-size="11" transform="rotate(-30,307.2,448)">push_front_stddev</text>
<text x="336.8" y="448" text-anchor="end" fill="#8b949e" font-size="11" transform="rotate(-30,336.8,448)">push_front_cv</text>
<text x="366.5" y="448" text-anchor="end" fill="#8b949e" font-size="11" transform="rotate(-30,366.5,448)">insert_middle</text>
<text x="396.2" y="448" text-anchor="end" fill="#8b949e" font-size="11" transform="rotate(-30,396.2,448)">insert_middle_mean</text>
<text x="425.8" y="448" text-anchor="end" fill="#8b949e" font-size="11" transform="rotate(-30,425.8,448)">insert_middle_median</text>
<text x="455.5" y="448" text-anchor="end" fill="#8b949e" font-size="11" transform="rotate(-30,455.5,448)">insert_middle_stddev</text>
<text x="485.2" y="448" text-anchor="end" fill="#8b949e" font-size="11" transform="rotate(-30,485.2,448)">insert_middle_cv</text>
<text x="514.8" y="448" text-anchor="end" fill="#8b949e" font-size="11" transform="rotate(-30,514.8,448)">erase_middle</text>
<text x="544.5" y="448" text-anchor="end" fill="#8b949e" font-size="11" transform="rotate(-30,544.5,448)">erase_middle_mean</text>
<text x="574.2" y="448" text-anchor="end" fill="#8b949e" font-size="11" transform="rotate(-30,574.2,448)">erase_middle_median</text>
<text x="603.8" y="448" text-anchor="end" fill="#8b949e" font-size="11" transform="rotate(-30,603.8,448)">erase_middle_stddev</text>
<text x="633.5" y="448" text-anchor="end" fill="#8b949e" font-size="11" transform="rotate(-30,633.5,448)">erase_middle_cv</text>
<text x="663.2" y="448" text-anchor="end" fill="#8b949e" font-size="11" transform="rotate(-30,663.2,448)">iterate</text>
<text x="692.8" y="448" text-anchor="end" fill="#8b949e" font-size="11" transform="rotate(-30,692.8,448)">iterate_mean</text>
<text x="722.5" y="448" text-anchor="end" fill="#8b949e" font-size="11" transform="rotate(-30,722.5,448)">iterate_median</text>
<text x="752.2" y="448" text-anchor="end" fill="#8b949e" font-size="11" transform="rotate(-30,752.2,448)">iterate_stddev</text>
<text x="781.8" y="448" text-anchor="end" fill="#8b949e" font-size="11" transform="rotate(-30,781.8,448)">iterate_cv</text>
<text x="811.5" y="448" text-anchor="end" fill="#8b949e" font-size="11" transform="rotate(-30,811.5,448)">clear</text>
<text x="841.2" y="448" text-anchor="end" fill="#8b949e" font-size="11" transform="rotate(-30,841.2,448)">clear_mean</text>
<text x="870.8" y="448" text-anchor="end" fill="#8b949e" font-size="11" transform="rotate(-30,870.8,448)">clear_median</text>
<text x="900.5" y="448" text-anchor="end" fill="#8b949e" font-size="11" transform="rotate(-30,900.5,448)">clear_stddev</text>
<text x="930.2" y="448" text-anchor="end" fill="#8b949e" font-size="11" transform="rotate(-30,930.2,448)">clear_cv</text>
<text x="14" y="272.5" text-anchor="middle" fill="#484f58" font-size="11" transform="rotate(-90,14,272.5)">Time (ms)</text>
<circle cx="65" cy="69" r="5" fill="#58a6ff"/>
<text x="75" y="73" fill="#c9d1d9" font-size="12">RG::LIST</text>
<circle cx="220" cy="69" r="5" fill="#FF9800"/>
<text x="230" y="73" fill="#c9d1d9" font-size="12">std::list</text>
<circle cx="375" cy="69" r="5" fill="#4CAF50"/>
<text x="385" y="73" fill="#c9d1d9" font-size="12">std::forward_list</text>
<circle cx="530" cy="69" r="5" fill="#BB86FC"/>
<text x="540" y="73" fill="#c9d1d9" font-size="12">boost::list</text>
<circle cx="685" cy="69" r="5" fill="#F472B6"/>
<text x="695" y="73" fill="#c9d1d9" font-size="12">eastl::list</text>
<text x="480.0" y="20" text-anchor="middle" fill="#58a6ff" font-size="15" font-weight="700">RG::LIST Benchmark — 2026-04-13</text>
</svg>