<svg xmlns="http://www.w3.org/2000/svg" viewBox="0 0 960 500" font-family="-apple-system,BlinkMacSystemFont,Segoe UI,sans-serif">
<rect width="960" height="500" rx="10" fill="#0d1117"/>
<rect x="55" y="115" width="890" height="315" fill="#161b22" rx="4"/>
<line x1="55" y1="428.2" x2="945" y2="428.2" stroke="#21262d"/>
<text x="47" y="432.1952549787153" text-anchor="end" fill="#484f58" font-size="10">0µs</text>
<line x1="55" y1="416.8" x2="945" y2="416.8" stroke="#21262d"/>
<text x="47" y="420.77935862380025" text-anchor="end" fill="#484f58" font-size="10">0µs</text>
<line x1="55" y1="408.1" x2="945" y2="408.1" stroke="#21262d"/>
<text x="47" y="412.14356640554973" text-anchor="end" fill="#484f58" font-size="10">0µs</text>
<line x1="55" y1="399.5" x2="945" y2="399.5" stroke="#21262d"/>
<text x="47" y="403.50777418729916" text-anchor="end" fill="#484f58" font-size="10">0µs</text>
<line x1="55" y1="388.1" x2="945" y2="388.1" stroke="#21262d"/>
<text x="47" y="392.0918778323841" text-anchor="end" fill="#484f58" font-size="10">0µs</text>
<line x1="55" y1="379.5" x2="945" y2="379.5" stroke="#21262d"/>
<text x="47" y="383.4560856141336" text-anchor="end" fill="#484f58" font-size="10">0µs</text>
<line x1="55" y1="370.8" x2="945" y2="370.8" stroke="#21262d"/>
<text x="47" y="374.820293395883" text-anchor="end" fill="#484f58" font-size="10">0µs</text>
<line x1="55" y1="359.4" x2="945" y2="359.4" stroke="#21262d"/>
<text x="47" y="363.404397040968" text-anchor="end" fill="#484f58" font-size="10">0µs</text>
<line x1="55" y1="350.8" x2="945" y2="350.8" stroke="#21262d"/>
<text x="47" y="354.7686048227175" text-anchor="end" fill="#484f58" font-size="10">0µs</text>
<line x1="55" y1="342.1" x2="945" y2="342.1" stroke="#21262d"/>
<text x="47" y="346.13281260446695" text-anchor="end" fill="#484f58" font-size="10">0µs</text>
<line x1="55" y1="330.7" x2="945" y2="330.7" stroke="#21262d"/>
<text x="47" y="334.7169162495519" text-anchor="end" fill="#484f58" font-size="10">0µs</text>
<line x1="55" y1="322.1" x2="945" y2="322.1" stroke="#21262d"/>
<text x="47" y="326.08112403130133" text-anchor="end" fill="#484f58" font-size="10">0µs</text>
<line x1="55" y1="313.4" x2="945" y2="313.4" stroke="#21262d"/>
<text x="47" y="317.44533181305076" text-anchor="end" fill="#484f58" font-size="10">0µs</text>
<line x1="55" y1="302.0" x2="945" y2="302.0" stroke="#21262d"/>
<text x="47" y="306.0294354581357" text-anchor="end" fill="#484f58" font-size="10">0µs</text>
<line x1="55" y1="293.4" x2="945" y2="293.4" stroke="#21262d"/>
<text x="47" y="297.39364323988525" text-anchor="end" fill="#484f58" font-size="10">0µs</text>
<line x1="55" y1="284.8" x2="945" y2="284.8" stroke="#21262d"/>
<text x="47" y="288.7578510216347" text-anchor="end" fill="#484f58" font-size="10">0µs</text>
<line x1="55" y1="273.3" x2="945" y2="273.3" stroke="#21262d"/>
<text x="47" y="277.34195466671963" text-anchor="end" fill="#484f58" font-size="10">0µs</text>
<line x1="55" y1="264.7" x2="945" y2="264.7" stroke="#21262d"/>
<text x="47" y="268.70616244846906" text-anchor="end" fill="#484f58" font-size="10">0µs</text>
<line x1="55" y1="256.1" x2="945" y2="256.1" stroke="#21262d"/>
<text x="47" y="260.07037023021854" text-anchor="end" fill="#484f58" font-size="10">0µs</text>
<line x1="55" y1="244.7" x2="945" y2="244.7" stroke="#21262d"/>
<text x="47" y="248.6544738753035" text-anchor="end" fill="#484f58" font-size="10">0µs</text>
<line x1="55" y1="236.0" x2="945" y2="236.0" stroke="#21262d"/>
<text x="47" y="240.01868165705292" text-anchor="end" fill="#484f58" font-size="10">1µs</text>
<line x1="55" y1="227.4" x2="945" y2="227.4" stroke="#21262d"/>
<text x="47" y="231.3828894388024" text-anchor="end" fill="#484f58" font-size="10">2µs</text>
<line x1="55" y1="216.0" x2="945" y2="216.0" stroke="#21262d"/>
<text x="47" y="219.96699308388736" text-anchor="end" fill="#484f58" font-size="10">5µs</text>
<line x1="55" y1="207.3" x2="945" y2="207.3" stroke="#21262d"/>
<text x="47" y="211.3312008656368" text-anchor="end" fill="#484f58" font-size="10">10µs</text>
<line x1="55" y1="198.7" x2="945" y2="198.7" stroke="#21262d"/>
<text x="47" y="202.69540864738627" text-anchor="end" fill="#484f58" font-size="10">20µs</text>
<line x1="55" y1="187.3" x2="945" y2="187.3" stroke="#21262d"/>
<text x="47" y="191.27951229247122" text-anchor="end" fill="#484f58" font-size="10">50µs</text>
<line x1="55" y1="178.6" x2="945" y2="178.6" stroke="#21262d"/>
<text x="47" y="182.64372007422065" text-anchor="end" fill="#484f58" font-size="10">100µs</text>
<line x1="55" y1="170.0" x2="945" y2="170.0" stroke="#21262d"/>
<text x="47" y="174.00792785597014" text-anchor="end" fill="#484f58" font-size="10">200µs</text>
<line x1="55" y1="158.6" x2="945" y2="158.6" stroke="#21262d"/>
<text x="47" y="162.5920315010551" text-anchor="end" fill="#484f58" font-size="10">500µs</text>
<line x1="55" y1="150.0" x2="945" y2="150.0" stroke="#21262d"/>
<text x="47" y="153.95623928280455" text-anchor="end" fill="#484f58" font-size="10">1ms</text>
<line x1="55" y1="141.3" x2="945" y2="141.3" stroke="#21262d"/>
<text x="47" y="145.320447064554" text-anchor="end" fill="#484f58" font-size="10">2ms</text>
<line x1="55" y1="129.9" x2="945" y2="129.9" stroke="#21262d"/>
<text x="47" y="133.90455070963895" text-anchor="end" fill="#484f58" font-size="10">5ms</text>
<line x1="55" y1="121.3" x2="945" y2="121.3" stroke="#21262d"/>
<text x="47" y="125.26875849138841" text-anchor="end" fill="#484f58" font-size="10">10ms</text>
<line x1="84.7" y1="115" x2="84.7" y2="430" stroke="#30363d" stroke-width="1" stroke-dasharray="4,4"/>
<line x1="114.3" y1="115" x2="114.3" y2="430" stroke="#30363d" stroke-width="1" stroke-dasharray="4,4"/>
<line x1="144.0" y1="115" x2="144.0" y2="430" stroke="#30363d" stroke-width="1" stroke-dasharray="4,4"/>
<line x1="173.7" y1="115" x2="173.7" y2="430" stroke="#30363d" stroke-width="1" stroke-dasharray="4,4"/>
<line x1="203.3" y1="115" x2="203.3" y2="430" stroke="#30363d" stroke-width="1" stroke-dasharray="4,4"/>
<line x1="233.0" y1="115" x2="233.0" y2="430" stroke="#30363d" stroke-width="1" stroke-dasharray="4,4"/>
<line x1="262.7" y1="115" x2="262.7" y2="430" stroke="#30363d" stroke-width="1" stroke-dasharray="4,4"/>
<line x1="292.3" y1="115" x2="292.3" y2="430" stroke="#30363d" stroke-width="1" stroke-dasharray="4,4"/>
<line x1="322.0" y1="115" x2="322.0" y2="430" stroke="#30363d" stroke-width="1" stroke-dasharray="4,4"/>
<line x1="351.7" y1="115" x2="351.7" y2="430" stroke="#30363d" stroke-width="1" stroke-dasharray="4,4"/>
<line x1="381.3" y1="115" x2="381.3" y2="430" stroke="#30363d" stroke-width="1" stroke-dasharray="4,4"/>
<line x1="411.0" y1="115" x2="411.0" y2="430" stroke="#30363d" stroke-width="1" stroke-dasharray="4,4"/>
<line x1="440.7" y1="115" x2="440.7" y2="430" stroke="#30363d" stroke-width="1" stroke-dasharray="4,4"/>
<line x1="470.3" y1="115" x2="470.3" y2="430" stroke="#30363d" stroke-width="1" stroke-dasharray="4,4"/>
<line x1="500.0" y1="115" x2="500.0" y2="430" stroke="#30363d" stroke-width="1" stroke-dasharray="4,4"/>
<line x1="529.7" y1="115" x2="529.7" y2="430" stroke="#30363d" stroke-width="1" stroke-dasharray="4,4"/>
<line x1="559.3" y1="115" x2="559.3" y2="430" stroke="#30363d" stroke-width="1" stroke-dasharray="4,4"/>
<line x1="589.0" y1="115" x2="589.0" y2="430" stroke="#30363d" stroke-width="1" stroke-dasharray="4,4"/>
<line x1="618.7" y1="115" x2="618.7" y2="430" stroke="#30363d" stroke-width="1" stroke-dasharray="4,4"/>
<line x1="648.3" y1="115" x2="648.3" y2="430" stroke="#30363d" stroke-width="1" stroke-dasharray="4,4"/>
<line x1="678.0" y1="115" x2="678.0" y2="430" stroke="#30363d" stroke-width="1" stroke-dasharray="4,4"/>
<line x1="707.7" y1="115" x2="707.7" y2="430" stroke="#30363d" stroke-width="1" stroke-dasharray="4,4"/>
<line x1="737.3" y1="115" x2="737.3" y2="430" stroke="#30363d" stroke-width="1" stroke-dasharray="4,4"/>
<line x1="767.0" y1="115" x2="767.0" y2="430" stroke="#30363d" stroke-width="1" stroke-dasharray="4,4"/>
<line x1="796.7" y1="115" x2="796.7" y2="430" stroke="#30363d" stroke-width="1" stroke-dasharray="4,4"/>
<line x1="826.3" y1="115" x2="826.3" y2="430" stroke="#30363d" stroke-width="1" stroke-dasharray="4,4"/>
<line x1="856.0" y1="115" x2="856.0" y2="430" stroke="#30363d" stroke-width="1" stroke-dasharray="4,4"/>
<line x1="885.7" y1="115" x2="885.7" y2="430" stroke="#30363d" stroke-width="1" stroke-dasharray="4,4"/>
<line x1="915.3" y1="115" x2="915.3" y2="430" stroke="#30363d" stroke-width="1" stroke-dasharray="4,4"/>
<path d="M69.8,142.1 L99.5,142.1 L129.2,142.1 L158.8,215.8 L188.5,395.8 L218.2,142.7 L247.8,142.7 L277.5,142.7 L307.2,231.6 L336.8,411.0 L366.5,150.2 L396.2,150.4 L425.8,150.5 L455.5,200.6 L485.2,372.3 L514.8,152.5 L544.5,152.5 L574.2,152.5 L603.8,256.0 L633.5,425.6 L663.2,153.8 L692.8,153.8 L722.5,153.8 L752.2,228.0 L781.8,396.3 L811.5,141.7 L841.2,141.7 L870.8,141.7 L900.5,219.9 L930.2,400.3" fill="none" stroke="#58a6ff" stroke-width="8" stroke-linejoin="round" stroke-linecap="round" opacity="0.12"/>
<path d="M69.8,142.1 L99.5,142.1 L129.2,142.1 L158.8,215.8 L188.5,395.8 L218.2,142.7 L247.8,142.7 L277.5,142.7 L307.2,231.6 L336.8,411.0 L366.5,150.2 L396.2,150.4 L425.8,150.5 L455.5,200.6 L485.2,372.3 L514.8,152.5 L544.5,152.5 L574.2,152.5 L603.8,256.0 L633.5,425.6 L663.2,153.8 L692.8,153.8 L722.5,153.8 L752.2,228.0 L781.8,396.3 L811.5,141.7 L841.2,141.7 L870.8,141.7 L900.5,219.9 L930.2,400.3" fill="none" stroke="#58a6ff" stroke-width="3.5" stroke-linejoin="round" stroke-linecap="round"/>
<circle cx="69.8" cy="142.1" r="6" fill="#58a6ff" opacity="0.2"/>
<circle cx="69.8" cy="142.1" r="4" fill="#58a6ff" stroke="#0d1117" stroke-width="2.5"/>
<circle cx="99.5" cy="142.1" r="6" fill="#58a6ff" opacity="0.2"/>
<circle cx="99.5" cy="142.1" r="4" fill="#58a6ff" stroke="#0d1117" stroke-width="2.5"/>
<circle cx="129.2" cy="142.1" r="6" fill="#58a6ff" opacity="0.2"/>
<circle cx="129.2" cy="142.1" r="4" fill="#58a6ff" stroke="#0d1117" stroke-width="2.5"/>
<circle cx="158.8" cy="215.8" r="6" fill="#58a6ff" opacity="0.2"/>
<circle cx="158.8" cy="215.8" r="4" fill="#58a6ff" stroke="#0d1117" stroke-width="2.5"/>
<circle cx="188.5" cy="395.8" r="6" fill="#58a6ff" opacity="0.2"/>
<circle cx="188.5" cy="395.8" r="4" fill="#58a6ff" stroke="#0d1117" stroke-width="2.5"/>
<circle cx="218.2" cy="142.7" r="6" fill="#58a6ff" opacity="0.2"/>
<circle cx="218.2" cy="142.7" r="4" fill="#58a6ff" stroke="#0d1117" stroke-width="2.5"/>
<circle cx="247.8" cy="142.7" r="6" fill="#58a6ff" opacity="0.2"/>
<circle cx="247.8" cy="142.7" r="4" fill="#58a6ff" stroke="#0d1117" stroke-width="2.5"/>
<circle cx="277.5" cy="142.7" r="6" fill="#58a6ff" opacity="0.2"/>
<circle cx="277.5" cy="142.7" r="4" fill="#58a6ff" stroke="#0d1117" stroke-width="2.5"/>
<circle cx="307.2" cy="231.6" r="6" fill="#58a6ff" opacity="0.2"/>
<circle cx="307.2" cy="231.6" r="4" fill="#58a6ff" stroke="#0d1117" stroke-width="2.5"/>
<circle cx="336.8" cy="411.0" r="6" fill="#58a6ff" opacity="0.2"/>
<circle cx="336.8" cy="411.0" r="4" fill="#58a6ff" stroke="#0d1117" stroke-width="2.5"/>
<circle cx="366.5" cy="150.2" r="6" fill="#58a6ff" opacity="0.2"/>
<circle cx="366.5" cy="150.2" r="4" fill="#58a6ff" stroke="#0d1117" stroke-width="2.5"/>
<circle cx="396.2" cy="150.4" r="6" fill="#58a6ff" opacity="0.2"/>
<circle cx="396.2" cy="150.4" r="4" fill="#58a6ff" stroke="#0d1117" stroke-width="2.5"/>
<circle cx="425.8" cy="150.5" r="6" fill="#58a6ff" opacity="0.2"/>
<circle cx="425.8" cy="150.5" r="4" fill="#58a6ff" stroke="#0d1117" stroke-width="2.5"/>
<circle cx="455.5" cy="200.6" r="6" fill="#58a6ff" opacity="0.2"/>
<circle cx="455.5" cy="200.6" r="4" fill="#58a6ff" stroke="#0d1117" stroke-width="2.5"/>
<circle cx="485.2" cy="372.3" r="6" fill="#58a6ff" opacity="0.2"/>
<circle cx="485.2" cy="372.3" r="4" fill="#58a6ff" stroke="#0d1117" stroke-width="2.5"/>
<circle cx="514.8" cy="152.5" r="6" fill="#58a6ff" opacity="0.2"/>
<circle cx="514.8" cy="152.5" r="4" fill="#58a6ff" stroke="#0d1117" stroke-width="2.5"/>
<circle cx="544.5" cy="152.5" r="6" fill="#58a6ff" opacity="0.2"/>
<circle cx="544.5" cy="152.5" r="4" fill="#58a6ff" stroke="#0d1117" stroke-width="2.5"/>
<circle cx="574.2" cy="152.5" r="6" fill="#58a6ff" opacity="0.2"/>
<circle cx="574.2" cy="152.5" r="4" fill="#58a6ff" stroke="#0d1117" stroke-width="2.5"/>
<circle cx="603.8" cy="256.0" r="6" fill="#58a6ff" opacity="0.2"/>
<circle cx="603.8" cy="256.0" r="4" fill="#58a6ff" stroke="#0d1117" stroke-width="2.5"/>
<circle cx="633.5" cy="425.6" r="6" fill="#58a6ff" opacity="0.2"/>
<circle cx="633.5" cy="425.6" r="4" fill="#58a6ff" stroke="#0d1117" stroke-width="2.5"/>
<circle cx="663.2" cy="153.8" r="6" fill="#58a6ff" opacity="0.2"/>
<circle cx="663.2" cy="153.8" r="4" fill="#58a6ff" stroke="#0d1117" stroke-width="2.5"/>
<circle cx="692.8" cy="153.8" r="6" fill="#58a6ff" opacity="0.2"/>
<circle cx="692.8" cy="153.8" r="4" fill="#58a6ff" stroke="#0d1117" stroke-width="2.5"/>
<circle cx="722.5" cy="153.8" r="6" fill="#58a6ff" opacity="0.2"/>
<circle cx="722.5" cy="153.8" r="4" fill="#58a6ff" stroke="#0d1117" stroke-width="2.5"/>
<circle cx="752.2" cy="228.0" r="6" fill="#58a6ff" opacity="0.2"/>
<circle cx="752.2" cy="228.0" r="4" fill="#58a6ff" stroke="#0d1117" stroke-width="2.5"/>
<circle cx="781.8" cy="396.3" r="6" fill="#58a6ff" opacity="0.2"/>
<circle cx="781.8" cy="396.3" r="4" fill="#58a6ff" stroke="#0d1117" stroke-width="2.5"/>
<circle cx="811.5" cy="141.7" r="6" fill="#58a6ff" opacity="0.2"/>
<circle cx="811.5" cy="141.7" r="4" fill="#58a6ff" stroke="#0d1117" stroke-width="2.5"/>
<circle cx="841.2" cy="141.7" r="6" fill="#58a6ff" opacity="0.2"/>
<circle cx="841.2" cy="141.7" r="4" fill="#58a6ff" stroke="#0d1117" stroke-width="2.5"/>
<circle cx="870.8" cy="141.7" r="6" fill="#58a6ff" opacity="0.2"/>
<circle cx="870.8" cy="141.7" r="4" fill="#58a6ff" stroke="#0d1117" stroke-width="2.5"/>
<circle cx="900.5" cy="219.9" r="6" fill="#58a6ff" opacity="0.2"/>
<circle cx="900.5" cy="219.9" r="4" fill="#58a6ff" stroke="#0d1117" stroke-width="2.5"/>
<circle cx="930.2" cy="400.3" r="6" fill="#58a6ff" opacity="0.2"/>
<circle cx="930.2" cy="400.3" r="4" fill="#58a6ff" stroke="#0d1117" stroke-width="2.5"/>
<path d="M69.8,120.7 L99.5,120.8 L129.2,120.8 L158.8,181.5 L188.5,382.8 L218.2,120.1 L247.8,120.1 L277.5,120.1 L307.2,179.4 L336.8,381.4 L366.5,128.8 L396.2,128.8 L425.8,128.8 L455.5,181.5 L485.2,374.8 L514.8,128.9 L544.5,129.1 L574.2,129.2 L603.8,183.6 L633.5,376.5 L663.2,153.9 L692.8,153.6 L722.5,153.8 L752.2,197.5 L781.8,366.0 L811.5,120.7 L841.2,120.9 L870.8,120.9 L900.5,179.3 L930.2,380.5" fill="none" stroke="#FF9800" stroke-width="8" stroke-linejoin="round" stroke-linecap="round" opacity="0.12"/>
<path d="M69.8,120.7 L99.5,120.8 L129.2,120.8 L158.8,181.5 L188.5,382.8 L218.2,120.1 L247.8,120.1 L277.5,120.1 L307.2,179.4 L336.8,381.4 L366.5,128.8 L396.2,128.8 L425.8,128.8 L455.5,181.5 L485.2,374.8 L514.8,128.9 L544.5,129.1 L574.2,129.2 L603.8,183.6 L633.5,376.5 L663.2,153.9 L692.8,153.6 L722.5,153.8 L752.2,197.5 L781.8,366.0 L811.5,120.7 L841.2,120.9 L870.8,120.9 L900.5,179.3 L930.2,380.5" fill="none" stroke="#FF9800" stroke-width="3.5" stroke-linejoin="round" stroke-linecap="round"/>
<circle cx="69.8" cy="120.7" r="6" fill="#FF9800" opacity="0.2"/>
<circle cx="69.8" cy="120.7" r="4" fill="#FF9800" stroke="#0d1117" stroke-width="2.5"/>
<circle cx="99.5" cy="120.8" r="6" fill="#FF9800" opacity="0.2"/>
<circle cx="99.5" cy="120.8" r="4" fill="#FF9800" stroke="#0d1117" stroke-width="2.5"/>
<circle cx="129.2" cy="120.8" r="6" fill="#FF9800" opacity="0.2"/>
<circle cx="129.2" cy="120.8" r="4" fill="#FF9800" stroke="#0d1117" stroke-width="2.5"/>
<circle cx="158.8" cy="181.5" r="6" fill="#FF9800" opacity="0.2"/>
<circle cx="158.8" cy="181.5" r="4" fill="#FF9800" stroke="#0d1117" stroke-width="2.5"/>
<circle cx="188.5" cy="382.8" r="6" fill="#FF9800" opacity="0.2"/>
<circle cx="188.5" cy="382.8" r="4" fill="#FF9800" stroke="#0d1117" stroke-width="2.5"/>
<circle cx="218.2" cy="120.1" r="6" fill="#FF9800" opacity="0.2"/>
<circle cx="218.2" cy="120.1" r="4" fill="#FF9800" stroke="#0d1117" stroke-width="2.5"/>
<circle cx="247.8" cy="120.1" r="6" fill="#FF9800" opacity="0.2"/>
<circle cx="247.8" cy="120.1" r="4" fill="#FF9800" stroke="#0d1117" stroke-width="2.5"/>
<circle cx="277.5" cy="120.1" r="6" fill="#FF9800" opacity="0.2"/>
<circle cx="277.5" cy="120.1" r="4" fill="#FF9800" stroke="#0d1117" stroke-width="2.5"/>
<circle cx="307.2" cy="179.4" r="6" fill="#FF9800" opacity="0.2"/>
<circle cx="307.2" cy="179.4" r="4" fill="#FF9800" stroke="#0d1117" stroke-width="2.5"/>
<circle cx="336.8" cy="381.4" r="6" fill="#FF9800" opacity="0.2"/>
<circle cx="336.8" cy="381.4" r="4" fill="#FF9800" stroke="#0d1117" stroke-width="2.5"/>
<circle cx="366.5" cy="128.8" r="6" fill="#FF9800" opacity="0.2"/>
<circle cx="366.5" cy="128.8" r="4" fill="#FF9800" stroke="#0d1117" stroke-width="2.5"/>
<circle cx="396.2" cy="128.8" r="6" fill="#FF9800" opacity="0.2"/>
<circle cx="396.2" cy="128.8" r="4" fill="#FF9800" stroke="#0d1117" stroke-width="2.5"/>
<circle cx="425.8" cy="128.8" r="6" fill="#FF9800" opacity="0.2"/>
<circle cx="425.8" cy="128.8" r="4" fill="#FF9800" stroke="#0d1117" stroke-width="2.5"/>
<circle cx="455.5" cy="181.5" r="6" fill="#FF9800" opacity="0.2"/>
<circle cx="455.5" cy="181.5" r="4" fill="#FF9800" stroke="#0d1117" stroke-width="2.5"/>
<circle cx="485.2" cy="374.8" r="6" fill="#FF9800" opacity="0.2"/>
<circle cx="485.2" cy="374.8" r="4" fill="#FF9800" stroke="#0d1117" stroke-width="2.5"/>
<circle cx="514.8" cy="128.9" r="6" fill="#FF9800" opacity="0.2"/>
<circle cx="514.8" cy="128.9" r="4" fill="#FF9800" stroke="#0d1117" stroke-width="2.5"/>
<circle cx="544.5" cy="129.1" r="6" fill="#FF9800" opacity="0.2"/>
<circle cx="544.5" cy="129.1" r="4" fill="#FF9800" stroke="#0d1117" stroke-width="2.5"/>
<circle cx="574.2" cy="129.2" r="6" fill="#FF9800" opacity="0.2"/>
<circle cx="574.2" cy="129.2" r="4" fill="#FF9800" stroke="#0d1117" stroke-width="2.5"/>
<circle cx="603.8" cy="183.6" r="6" fill="#FF9800" opacity="0.2"/>
<circle cx="603.8" cy="183.6" r="4" fill="#FF9800" stroke="#0d1117" stroke-width="2.5"/>
<circle cx="633.5" cy="376.5" r="6" fill="#FF9800" opacity="0.2"/>
<circle cx="633.5" cy="376.5" r="4" fill="#FF9800" stroke="#0d1117" stroke-width="2.5"/>
<circle cx="663.2" cy="153.9" r="6" fill="#FF9800" opacity="0.2"/>
<circle cx="663.2" cy="153.9" r="4" fill="#FF9800" stroke="#0d1117" stroke-width="2.5"/>
<circle cx="692.8" cy="153.6" r="6" fill="#FF9800" opacity="0.2"/>
<circle cx="692.8" cy="153.6" r="4" fill="#FF9800" stroke="#0d1117" stroke-width="2.5"/>
<circle cx="722.5" cy="153.8" r="6" fill="#FF9800" opacity="0.2"/>
<circle cx="722.5" cy="153.8" r="4" fill="#FF9800" stroke="#0d1117" stroke-width="2.5"/>
<circle cx="752.2" cy="197.5" r="6" fill="#FF9800" opacity="0.2"/>
<circle cx="752.2" cy="197.5" r="4" fill="#FF9800" stroke="#0d1117" stroke-width="2.5"/>
<circle cx="781.8" cy="366.0" r="6" fill="#FF9800" opacity="0.2"/>
<circle cx="781.8" cy="366.0" r="4" fill="#FF9800" stroke="#0d1117" stroke-width="2.5"/>
<circle cx="811.5" cy="120.7" r="6" fill="#FF9800" opacity="0.2"/>
<circle cx="811.5" cy="120.7" r="4" fill="#FF9800" stroke="#0d1117" stroke-width="2.5"/>
<circle cx="841.2" cy="120.9" r="6" fill="#FF9800" opacity="0.2"/>
<circle cx="841.2" cy="120.9" r="4" fill="#FF9800" stroke="#0d1117" stroke-width="2.5"/>
<circle cx="870.8" cy="120.9" r="6" fill="#FF9800" opacity="0.2"/>
<circle cx="870.8" cy="120.9" r="4" fill="#FF9800" stroke="#0d1117" stroke-width="2.5"/>
<circle cx="900.5" cy="179.3" r="6" fill="#FF9800" opacity="0.2"/>
<circle cx="900.5" cy="179.3" r="4" fill="#FF9800" stroke="#0d1117" stroke-width="2.5"/>
<circle cx="930.2" cy="380.5" r="6" fill="#FF9800" opacity="0.2"/>
<circle cx="930.2" cy="380.5" r="4" fill="#FF9800" stroke="#0d1117" stroke-width="2.5"/>
<path d="M69.8,122.7 L99.5,122.7 L129.2,122.7 L158.8,168.6 L188.5,367.9 L218.2,122.8 L247.8,122.9 L277.5,122.9 L307.2,181.9 L336.8,381.1 L366.5,130.8 L396.2,130.7 L425.8,130.7 L455.5,193.0 L485.2,384.4 L514.8,130.4 L544.5,129.8 L574.2,130.3 L603.8,162.0 L633.5,354.3 L663.2,153.8 L692.8,153.0 L722.5,153.8 L752.2,181.7 L781.8,350.8 L811.5,122.5 L841.2,122.6 L870.8,122.6 L900.5,176.3 L930.2,375.7" fill="none" stroke="#4CAF50" stroke-width="8" stroke-linejoin="round" stroke-linecap="round" opacity="0.12"/>
<path d="M69.8,122.7 L99.5,122.7 L129.2,122.7 L158.8,168.6 L188.5,367.9 L218.2,122.8 L247.8,122.9 L277.5,122.9 L307.2,181.9 L336.8,381.1 L366.5,130.8 L396.2,130.7 L425.8,130.7 L455.5,193.0 L485.2,384.4 L514.8,130.4 L544.5,129.8 L574.2,130.3 L603.8,162.0 L633.5,354.3 L663.2,153.8 L692.8,153.0 L722.5,153.8 L752.2,181.7 L781.8,350.8 L811.5,122.5 L841.2,122.6 L870.8,122.6 L900.5,176.3 L930.2,375.7" fill="none" stroke="#4CAF50" stroke-width="3.5" stroke-linejoin="round" stroke-linecap="round"/>
<circle cx="69.8" cy="122.7" r="6" fill="#4CAF50" opacity="0.2"/>
<circle cx="69.8" cy="122.7" r="4" fill="#4CAF50" stroke="#0d1117" stroke-width="2.5"/>
<circle cx="99.5" cy="122.7" r="6" fill="#4CAF50" opacity="0.2"/>
<circle cx="99.5" cy="122.7" r="4" fill="#4CAF50" stroke="#0d1117" stroke-width="2.5"/>
<circle cx="129.2" cy="122.7" r="6" fill="#4CAF50" opacity="0.2"/>
<circle cx="129.2" cy="122.7" r="4" fill="#4CAF50" stroke="#0d1117" stroke-width="2.5"/>
<circle cx="158.8" cy="168.6" r="6" fill="#4CAF50" opacity="0.2"/>
<circle cx="158.8" cy="168.6" r="4" fill="#4CAF50" stroke="#0d1117" stroke-width="2.5"/>
<circle cx="188.5" cy="367.9" r="6" fill="#4CAF50" opacity="0.2"/>
<circle cx="188.5" cy="367.9" r="4" fill="#4CAF50" stroke="#0d1117" stroke-width="2.5"/>
<circle cx="218.2" cy="122.8" r="6" fill="#4CAF50" opacity="0.2"/>
<circle cx="218.2" cy="122.8" r="4" fill="#4CAF50" stroke="#0d1117" stroke-width="2.5"/>
<circle cx="247.8" cy="122.9" r="6" fill="#4CAF50" opacity="0.2"/>
<circle cx="247.8" cy="122.9" r="4" fill="#4CAF50" stroke="#0d1117" stroke-width="2.5"/>
<circle cx="277.5" cy="122.9" r="6" fill="#4CAF50" opacity="0.2"/>
<circle cx="277.5" cy="122.9" r="4" fill="#4CAF50" stroke="#0d1117" stroke-width="2.5"/>
<circle cx="307.2" cy="181.9" r="6" fill="#4CAF50" opacity="0.2"/>
<circle cx="307.2" cy="181.9" r="4" fill="#4CAF50" stroke="#0d1117" stroke-width="2.5"/>
<circle cx="336.8" cy="381.1" r="6" fill="#4CAF50" opacity="0.2"/>
<circle cx="336.8" cy="381.1" r="4" fill="#4CAF50" stroke="#0d1117" stroke-width="2.5"/>
<circle cx="366.5" cy="130.8" r="6" fill="#4CAF50" opacity="0.2"/>
<circle cx="366.5" cy="130.8" r="4" fill="#4CAF50" stroke="#0d1117" stroke-width="2.5"/>
<circle cx="396.2" cy="130.7" r="6" fill="#4CAF50" opacity="0.2"/>
<circle cx="396.2" cy="130.7" r="4" fill="#4CAF50" stroke="#0d1117" stroke-width="2.5"/>
<circle cx="425.8" cy="130.7" r="6" fill="#4CAF50" opacity="0.2"/>
<circle cx="425.8" cy="130.7" r="4" fill="#4CAF50" stroke="#0d1117" stroke-width="2.5"/>
<circle cx="455.5" cy="193.0" r="6" fill="#4CAF50" opacity="0.2"/>
<circle cx="455.5" cy="193.0" r="4" fill="#4CAF50" stroke="#0d1117" stroke-width="2.5"/>
<circle cx="485.2" cy="384.4" r="6" fill="#4CAF50" opacity="0.2"/>
<circle cx="485.2" cy="384.4" r="4" fill="#4CAF50" stroke="#0d1117" stroke-width="2.5"/>
<circle cx="514.8" cy="130.4" r="6" fill="#4CAF50" opacity="0.2"/>
<circle cx="514.8" cy="130.4" r="4" fill="#4CAF50" stroke="#0d1117" stroke-width="2.5"/>
<circle cx="544.5" cy="129.8" r="6" fill="#4CAF50" opacity="0.2"/>
<circle cx="544.5" cy="129.8" r="4" fill="#4CAF50" stroke="#0d1117" stroke-width="2.5"/>
<circle cx="574.2" cy="130.3" r="6" fill="#4CAF50" opacity="0.2"/>
<circle cx="574.2" cy="130.3" r="4" fill="#4CAF50" stroke="#0d1117" stroke-width="2.5"/>
<circle cx="603.8" cy="162.0" r="6" fill="#4CAF50" opacity="0.2"/>
<circle cx="603.8" cy="162.0" r="4" fill="#4CAF50" stroke="#0d1117" stroke-width="2.5"/>
<circle cx="633.5" cy="354.3" r="6" fill="#4CAF50" opacity="0.2"/>
<circle cx="633.5" cy="354.3" r="4" fill="#4CAF50" stroke="#0d1117" stroke-width="2.5"/>
<circle cx="663.2" cy="153.8" r="6" fill="#4CAF50" opacity="0.2"/>
<circle cx="663.2" cy="153.8" r="4" fill="#4CAF50" stroke="#0d1117" stroke-width="2.5"/>
<circle cx="692.8" cy="153.0" r="6" fill="#4CAF50" opacity="0.2"/>
<circle cx="692.8" cy="153.0" r="4" fill="#4CAF50" stroke="#0d1117" stroke-width="2.5"/>
<circle cx="722.5" cy="153.8" r="6" fill="#4CAF50" opacity="0.2"/>
<circle cx="722.5" cy="153.8" r="4" fill="#4CAF50" stroke="#0d1117" stroke-width="2.5"/>
<circle cx="752.2" cy="181.7" r="6" fill="#4CAF50" opacity="0.2"/>
<circle cx="752.2" cy="181.7" r="4" fill="#4CAF50" stroke="#0d1117" stroke-width="2.5"/>
<circle cx="781.8" cy="350.8" r="6" fill="#4CAF50" opacity="0.2"/>
<circle cx="781.8" cy="350.8" r="4" fill="#4CAF50" stroke="#0d1117" stroke-width="2.5"/>
<circle cx="811.5" cy="122.5" r="6" fill="#4CAF50" opacity="0.2"/>
<circle cx="811.5" cy="122.5" r="4" fill="#4CAF50" stroke="#0d1117" stroke-width="2.5"/>
<circle cx="841.2" cy="122.6" r="6" fill="#4CAF50" opacity="0.2"/>
<circle cx="841.2" cy="122.6" r="4" fill="#4CAF50" stroke="#0d1117" stroke-width="2.5"/>
<circle cx="870.8" cy="122.6" r="6" fill="#4CAF50" opacity="0.2"/>
<circle cx="870.8" cy="122.6" r="4" fill="#4CAF50" stroke="#0d1117" stroke-width="2.5"/>
<circle cx="900.5" cy="176.3" r="6" fill="#4CAF50" opacity="0.2"/>
<circle cx="900.5" cy="176.3" r="4" fill="#4CAF50" stroke="#0d1117" stroke-width="2.5"/>
<circle cx="930.2" cy="375.7" r="6" fill="#4CAF50" opacity="0.2"/>
<circle cx="930.2" cy="375.7" r="4" fill="#4CAF50" stroke="#0d1117" stroke-width="2.5"/>
<path d="M69.8,122.4 L99.5,122.6 L129.2,122.5 L158.8,176.1 L188.5,375.6 L218.2,122.0 L247.8,122.1 L277.5,122.0 L307.2,167.8 L336.8,367.8 L366.5,130.7 L396.2,130.6 L425.8,130.6 L455.5,199.8 L485.2,391.2 L514.8,130.6 L544.5,130.6 L574.2,130.6 L603.8,194.1 L633.5,385.6 L663.2,152.6 L692.8,152.1 L722.5,152.6 L752.2,187.0 L781.8,357.0 L811.5,122.9 L841.2,122.9 L870.8,122.9 L900.5,189.9 L930.2,389.1" fill="none" stroke="#BB86FC" stroke-width="8" stroke-linejoin="round" stroke-linecap="round" opacity="0.12"/>
<path d="M69.8,122.4 L99.5,122.6 L129.2,122.5 L158.8,176.1 L188.5,375.6 L218.2,122.0 L247.8,122.1 L277.5,122.0 L307.2,167.8 L336.8,367.8 L366.5,130.7 L396.2,130.6 L425.8,130.6 L455.5,199.8 L485.2,391.2 L514.8,130.6 L544.5,130.6 L574.2,130.6 L603.8,194.1 L633.5,385.6 L663.2,152.6 L692.8,152.1 L722.5,152.6 L752.2,187.0 L781.8,357.0 L811.5,122.9 L841.2,122.9 L870.8,122.9 L900.5,189.9 L930.2,389.1" fill="none" stroke="#BB86FC" stroke-width="3.5" stroke-linejoin="round" stroke-linecap="round"/>
<circle cx="69.8" cy="122.4" r="6" fill="#BB86FC" opacity="0.2"/>
<circle cx="69.8" cy="122.4" r="4" fill="#BB86FC" stroke="#0d1117" stroke-width="2.5"/>
<circle cx="99.5" cy="122.6" r="6" fill="#BB86FC" opacity="0.2"/>
<circle cx="99.5" cy="122.6" r="4" fill="#BB86FC" stroke="#0d1117" stroke-width="2.5"/>
<circle cx="129.2" cy="122.5" r="6" fill="#BB86FC" opacity="0.2"/>
<circle cx="129.2" cy="122.5" r="4" fill="#BB86FC" stroke="#0d1117" stroke-width="2.5"/>
<circle cx="158.8" cy="176.1" r="6" fill="#BB86FC" opacity="0.2"/>
<circle cx="158.8" cy="176.1" r="4" fill="#BB86FC" stroke="#0d1117" stroke-width="2.5"/>
<circle cx="188.5" cy="375.6" r="6" fill="#BB86FC" opacity="0.2"/>
<circle cx="188.5" cy="375.6" r="4" fill="#BB86FC" stroke="#0d1117" stroke-width="2.5"/>
<circle cx="218.2" cy="122.0" r="6" fill="#BB86FC" opacity="0.2"/>
<circle cx="218.2" cy="122.0" r="4" fill="#BB86FC" stroke="#0d1117" stroke-width="2.5"/>
<circle cx="247.8" cy="122.1" r="6" fill="#BB86FC" opacity="0.2"/>
<circle cx="247.8" cy="122.1" r="4" fill="#BB86FC" stroke="#0d1117" stroke-width="2.5"/>
<circle cx="277.5" cy="122.0" r="6" fill="#BB86FC" opacity="0.2"/>
<circle cx="277.5" cy="122.0" r="4" fill="#BB86FC" stroke="#0d1117" stroke-width="2.5"/>
<circle cx="307.2" cy="167.8" r="6" fill="#BB86FC" opacity="0.2"/>
<circle cx="307.2" cy="167.8" r="4" fill="#BB86FC" stroke="#0d1117" stroke-width="2.5"/>
<circle cx="336.8" cy="367.8" r="6" fill="#BB86FC" opacity="0.2"/>
<circle cx="336.8" cy="367.8" r="4" fill="#BB86FC" stroke="#0d1117" stroke-width="2.5"/>
<circle cx="366.5" cy="130.7" r="6" fill="#BB86FC" opacity="0.2"/>
<circle cx="366.5" cy="130.7" r="4" fill="#BB86FC" stroke="#0d1117" stroke-width="2.5"/>
<circle cx="396.2" cy="130.6" r="6" fill="#BB86FC" opacity="0.2"/>
<circle cx="396.2" cy="130.6" r="4" fill="#BB86FC" stroke="#0d1117" stroke-width="2.5"/>
<circle cx="425.8" cy="130.6" r="6" fill="#BB86FC" opacity="0.2"/>
<circle cx="425.8" cy="130.6" r="4" fill="#BB86FC" stroke="#0d1117" stroke-width="2.5"/>
<circle cx="455.5" cy="199.8" r="6" fill="#BB86FC" opacity="0.2"/>
<circle cx="455.5" cy="199.8" r="4" fill="#BB86FC" stroke="#0d1117" stroke-width="2.5"/>
<circle cx="485.2" cy="391.2" r="6" fill="#BB86FC" opacity="0.2"/>
<circle cx="485.2" cy="391.2" r="4" fill="#BB86FC" stroke="#0d1117" stroke-width="2.5"/>
<circle cx="514.8" cy="130.6" r="6" fill="#BB86FC" opacity="0.2"/>
<circle cx="514.8" cy="130.6" r="4" fill="#BB86FC" stroke="#0d1117" stroke-width="2.5"/>
<circle cx="544.5" cy="130.6" r="6" fill="#BB86FC" opacity="0.2"/>
<circle cx="544.5" cy="130.6" r="4" fill="#BB86FC" stroke="#0d1117" stroke-width="2.5"/>
<circle cx="574.2" cy="130.6" r="6" fill="#BB86FC" opacity="0.2"/>
<circle cx="574.2" cy="130.6" r="4" fill="#BB86FC" stroke="#0d1117" stroke-width="2.5"/>
<circle cx="603.8" cy="194.1" r="6" fill="#BB86FC" opacity="0.2"/>
<circle cx="603.8" cy="194.1" r="4" fill="#BB86FC" stroke="#0d1117" stroke-width="2.5"/>
<circle cx="633.5" cy="385.6" r="6" fill="#BB86FC" opacity="0.2"/>
<circle cx="633.5" cy="385.6" r="4" fill="#BB86FC" stroke="#0d1117" stroke-width="2.5"/>
<circle cx="663.2" cy="152.6" r="6" fill="#BB86FC" opacity="0.2"/>
<circle cx="663.2" cy="152.6" r="4" fill="#BB86FC" stroke="#0d1117" stroke-width="2.5"/>
<circle cx="692.8" cy="152.1" r="6" fill="#BB86FC" opacity="0.2"/>
<circle cx="692.8" cy="152.1" r="4" fill="#BB86FC" stroke="#0d1117" stroke-width="2.5"/>
<circle cx="722.5" cy="152.6" r="6" fill="#BB86FC" opacity="0.2"/>
<circle cx="722.5" cy="152.6" r="4" fill="#BB86FC" stroke="#0d1117" stroke-width="2.5"/>
<circle cx="752.2" cy="187.0" r="6" fill="#BB86FC" opacity="0.2"/>
<circle cx="752.2" cy="187.0" r="4" fill="#BB86FC" stroke="#0d1117" stroke-width="2.5"/>
<circle cx="781.8" cy="357.0" r="6" fill="#BB86FC" opacity="0.2"/>
<circle cx="781.8" cy="357.0" r="4" fill="#BB86FC" stroke="#0d1117" stroke-width="2.5"/>
<circle cx="811.5" cy="122.9" r="6" fill="#BB86FC" opacity="0.2"/>
<circle cx="811.5" cy="122.9" r="4" fill="#BB86FC" stroke="#0d1117" stroke-width="2.5"/>
<circle cx="841.2" cy="122.9" r="6" fill="#BB86FC" opacity="0.2"/>
<circle cx="841.2" cy="122.9" r="4" fill="#BB86FC" stroke="#0d1117" stroke-width="2.5"/>
<circle cx="870.8" cy="122.9" r="6" fill="#BB86FC" opacity="0.2"/>
<circle cx="870.8" cy="122.9" r="4" fill="#BB86FC" stroke="#0d1117" stroke-width="2.5"/>
<circle cx="900.5" cy="189.9" r="6" fill="#BB86FC" opacity="0.2"/>
<circle cx="900.5" cy="189.9" r="4" fill="#BB86FC" stroke="#0d1117" stroke-width="2.5"/>
<circle cx="930.2" cy="389.1" r="6" fill="#BB86FC" opacity="0.2"/>
<circle cx="930.2" cy="389.1" r="4" fill="#BB86FC" stroke="#0d1117" stroke-width="2.5"/>
<path d="M69.8,122.0 L99.5,122.1 L129.2,122.0 L158.8,175.2 L188.5,375.2 L218.2,121.1 L247.8,121.3 L277.5,121.2 L307.2,171.0 L336.8,371.8 L366.5,130.3 L396.2,130.2 L425.8,130.2 L455.5,199.2 L485.2,391.0 L514.8,130.3 L544.5,130.3 L574.2,130.3 L603.8,199.1 L633.5,390.9 L663.2,153.9 L692.8,153.3 L722.5,153.9 L752.2,184.2 L781.8,353.0 L811.5,121.9 L841.2,122.1 L870.8,122.1 L900.5,174.6 L930.2,374.6" fill="none" stroke="#F472B6" stroke-width="8" stroke-linejoin="round" stroke-linecap="round" opacity="0.12"/>
<path d="M69.8,122.0 L99.5,122.1 L129.2,122.0 L158.8,175.2 L188.5,375.2 L218.2,121.1 L247.8,121.3 L277.5,121.2 L307.2,171.0 L336.8,371.8 L366.5,130.3 L396.2,130.2 L425.8,130.2 L455.5,199.2 L485.2,391.0 L514.8,130.3 L544.5,130.3 L574.2,130.3 L603.8,199.1 L633.5,390.9 L663.2,153.9 L692.8,153.3 L722.5,153.9 L752.2,184.2 L781.8,353.0 L811.5,121.9 L841.2,122.1 L870.8,122.1 L900.5,174.6 L930.2,374.6" fill="none" stroke="#F472B6" stroke-width="3.5" stroke-linejoin="round" stroke-linecap="round"/>
<circle cx="69.8" cy="122.0" r="6" fill="#F472B6" opacity="0.2"/>
<circle cx="69.8" cy="122.0" r="4" fill="#F472B6" stroke="#0d1117" stroke-width="2.5"/>
<circle cx="99.5" cy="122.1" r="6" fill="#F472B6" opacity="0.2"/>
<circle cx="99.5" cy="122.1" r="4" fill="#F472B6" stroke="#0d1117" stroke-width="2.5"/>
<circle cx="129.2" cy="122.0" r="6" fill="#F472B6" opacity="0.2"/>
<circle cx="129.2" cy="122.0" r="4" fill="#F472B6" stroke="#0d1117" stroke-width="2.5"/>
<circle cx="158.8" cy="175.2" r="6" fill="#F472B6" opacity="0.2"/>
<circle cx="158.8" cy="175.2" r="4" fill="#F472B6" stroke="#0d1117" stroke-width="2.5"/>
<circle cx="188.5" cy="375.2" r="6" fill="#F472B6" opacity="0.2"/>
<circle cx="188.5" cy="375.2" r="4" fill="#F472B6" stroke="#0d1117" stroke-width="2.5"/>
<circle cx="218.2" cy="121.1" r="6" fill="#F472B6" opacity="0.2"/>
<circle cx="218.2" cy="121.1" r="4" fill="#F472B6" stroke="#0d1117" stroke-width="2.5"/>
<circle cx="247.8" cy="121.3" r="6" fill="#F472B6" opacity="0.2"/>
<circle cx="247.8" cy="121.3" r="4" fill="#F472B6" stroke="#0d1117" stroke-width="2.5"/>
<circle cx="277.5" cy="121.2" r="6" fill="#F472B6" opacity="0.2"/>
<circle cx="277.5" cy="121.2" r="4" fill="#F472B6" stroke="#0d1117" stroke-width="2.5"/>
<circle cx="307.2" cy="171.0" r="6" fill="#F472B6" opacity="0.2"/>
<circle cx="307.2" cy="171.0" r="4" fill="#F472B6" stroke="#0d1117" stroke-width="2.5"/>
<circle cx="336.8" cy="371.8" r="6" fill="#F472B6" opacity="0.2"/>
<circle cx="336.8" cy="371.8" r="4" fill="#F472B6" stroke="#0d1117" stroke-width="2.5"/>
<circle cx="366.5" cy="130.3" r="6" fill="#F472B6" opacity="0.2"/>
<circle cx="366.5" cy="130.3" r="4" fill="#F472B6" stroke="#0d1117" stroke-width="2.5"/>
<circle cx="396.2" cy="130.2" r="6" fill="#F472B6" opacity="0.2"/>
<circle cx="396.2" cy="130.2" r="4" fill="#F472B6" stroke="#0d1117" stroke-width="2.5"/>
<circle cx="425.8" cy="130.2" r="6" fill="#F472B6" opacity="0.2"/>
<circle cx="425.8" cy="130.2" r="4" fill="#F472B6" stroke="#0d1117" stroke-width="2.5"/>
<circle cx="455.5" cy="199.2" r="6" fill="#F472B6" opacity="0.2"/>
<circle cx="455.5" cy="199.2" r="4" fill="#F472B6" stroke="#0d1117" stroke-width="2.5"/>
<circle cx="485.2" cy="391.0" r="6" fill="#F472B6" opacity="0.2"/>
<circle cx="485.2" cy="391.0" r="4" fill="#F472B6" stroke="#0d1117" stroke-width="2.5"/>
<circle cx="514.8" cy="130.3" r="6" fill="#F472B6" opacity="0.2"/>
<circle cx="514.8" cy="130.3" r="4" fill="#F472B6" stroke="#0d1117" stroke-width="2.5"/>
<circle cx="544.5" cy="130.3" r="6" fill="#F472B6" opacity="0.2"/>
<circle cx="544.5" cy="130.3" r="4" fill="#F472B6" stroke="#0d1117" stroke-width="2.5"/>
<circle cx="574.2" cy="130.3" r="6" fill="#F472B6" opacity="0.2"/>
<circle cx="574.2" cy="130.3" r="4" fill="#F472B6" stroke="#0d1117" stroke-width="2.5"/>
<circle cx="603.8" cy="199.1" r="6" fill="#F472B6" opacity="0.2"/>
<circle cx="603.8" cy="199.1" r="4" fill="#F472B6" stroke="#0d1117" stroke-width="2.5"/>
<circle cx="633.5" cy="390.9" r="6" fill="#F472B6" opacity="0.2"/>
<circle cx="633.5" cy="390.9" r="4" fill="#F472B6" stroke="#0d1117" stroke-width="2.5"/>
<circle cx="663.2" cy="153.9" r="6" fill="#F472B6" opacity="0.2"/>
<circle cx="663.2" cy="153.9" r="4" fill="#F472B6" stroke="#0d1117" stroke-width="2.5"/>
<circle cx="692.8" cy="153.3" r="6" fill="#F472B6" opacity="0.2"/>
<circle cx="692.8" cy="153.3" r="4" fill="#F472B6" stroke="#0d1117" stroke-width="2.5"/>
<circle cx="722.5" cy="153.9" r="6" fill="#F472B6" opacity="0.2"/>
<circle cx="722.5" cy="153.9" r="4" fill="#F472B6" stroke="#0d1117" stroke-width="2.5"/>
<circle cx="752.2" cy="184.2" r="6" fill="#F472B6" opacity="0.2"/>
<circle cx="752.2" cy="184.2" r="4" fill="#F472B6" stroke="#0d1117" stroke-width="2.5"/>
<circle cx="781.8" cy="353.0" r="6" fill="#F472B6" opacity="0.2"/>
<circle cx="781.8" cy="353.0" r="4" fill="#F472B6" stroke="#0d1117" stroke-width="2.5"/>
<circle cx="811.5" cy="121.9" r="6" fill="#F472B6" opacity="0.2"/>
<circle cx="811.5" cy="121.9" r="4" fill="#F472B6" stroke="#0d1117" stroke-width="2.5"/>
<circle cx="841.2" cy="122.1" r="6" fill="#F472B6" opacity="0.2"/>
<circle cx="841.2" cy="122.1" r="4" fill="#F472B6" stroke="#0d1117" stroke-width="2.5"/>
<circle cx="870.8" cy="122.1" r="6" fill="#F472B6" opacity="0.2"/>
<circle cx="870.8" cy="122.1" r="4" fill="#F472B6" stroke="#0d1117" stroke-width="2.5"/>
<circle cx="900.5" cy="174.6" r="6" fill="#F472B6" opacity="0.2"/>
<circle cx="900.5" cy="174.6" r="4" fill="#F472B6" stroke="#0d1117" stroke-width="2.5"/>
<circle cx="930.2" cy="374.6" r="6" fill="#F472B6" opacity="0.2"/>
<circle cx="930.2" cy="374.6" r="4" fill="#F472B6" stroke="#0d1117" stroke-width="2.5"/>
<text x="69.8" y="448" text-anchor="end" fill="#8b949e" font-size="11" transform="rotate(-30,69.8,448)">push_back</text>
<text x="99.5" y="448" text-anchor="end" fill="#8b949e" font-size="11" transform="rotate(-30,99.5,448)">push_back_mean</text>
<text x="129.2" y="448" text-anchor="end" fill="#8b949e" font-size="11" transform="rotate(-30,129.2,448)">push_back_median</text>
<text x="158.8" y="448" text-anchor="end" fill="#8b949e" font-size="11" transform="rotate(-30,158.8,448)">push_back_stddev</text>
<text x="188.5" y="448" text-anchor="end" fill="#8b949e" font-size="11" transform="rotate(-30,188.5,448)">push_back_cv</text>
<text x="218.2" y="448" text-anchor="end" fill="#8b949e" font-size="11" transform="rotate(-30,218.2,448)">push_front</text>
<text x="247.8" y="448" text-anchor="end" fill="#8b949e" font-size="11" transform="rotate(-30,247.8,448)">push_front_mean</text>
<text x="277.5" y="448" text-anchor="end" fill="#8b949e" font-size="11" transform="rotate(-30,277.5,448)">push_front_median</text>
<text x="307.2" y="448" text-anchor="end" fill="#8b949e" font-size="11" transform="rotate(-30,307.2,448)">push_front_stddev</text>
<text x="336.8" y="448" text-anchor="end" fill="#8b949e" font-size="11" transform="rotate(-30,336.8,448)">push_front_cv</text>
<text x="366.5" y="448" text-anchor="end" fill="#8b949e" font-size="11" transform="rotate(-30,366.5,448)">insert_middle</text>
<text x="396.2" y="448" text-anchor="end" fill="#8b949e" font-size="11" transform="rotate(-30,396.2,448)">insert_middle_mean</text>
<text x="425.8" y="448" text-anchor="end" fill="#8b949e" font-size="11" transform="rotate(-30,425.8,448)">insert_middle_median</text>
<text x="455.5" y="448" text-anchor="end" fill="#8b949e" font-size="11" transform="rotate(-30,455.5,448)">insert_middle_stddev</text>
<text x="485.2" y="448" text-anchor="end" fill="#8b949e" font-size="11" transform="rotate(-30,485.2,448)">insert_middle_cv</text>
<text x="514.8" y="448" text-anchor="end" fill="#8b949e" font-size="11" transform="rotate(-30,514.8,448)">erase_middle</text>
<text x="544.5" y="448" text-anchor="end" fill="#8b949e" font-size="11" transform="rotate(-30,544.5,448)">erase_middle_mean</text>
<text x="574.2" y="448" text-anchor="end" fill="#8b949e" font-size="11" transform="rotate(-30,574.2,448)">erase_middle_median</text>
<text x="603.8" y="448" text-anchor="end" fill="#8b949e" font-size="11" transform="rotate(-30,603.8,448)">erase_middle_stddev</text>
<text x="633.5" y="448" text-anchor="end" fill="#8b949e" font-size="11" transform="rotate(-30,633.5,448)">erase_middle_cv</text>
<text x="663.2" y="448" text-anchor="end" fill="#8b949e" font-size="11" transform="rotate(-30,663.2,448)">iterate</text>
<text x="692.8" y="448" text-anchor="end" fill="#8b949e" font-size="11" transform="rotate(-30,692.8,448)">iterate_mean</text>
<text x="722.5" y="448" text-anchor="end" fill="#8b949e" font-size="11" transform="rotate(-30,722.5,448)">iterate_median</text>
<text x="752.2" y="448" text-anchor="end" fill="#8b949e" font-size="11" transform="rotate(-30,752.2,448)">iterate_stddev</text>
<text x="781.8" y="448" text-anchor="end" fill="#8b949e" font-size="11" transform="rotate(-30,781.8,448)">iterate_cv</text>
<text x="811.5" y="448" text-anchor="end" fill="#8b949e" font-size="11" transform="rotate(-30,811.5,448)">clear</text>
<text x="841.2" y="448" text-anchor="end" fill="#8b949e" font-size="11" transform="rotate(-30,841.2,448)">clear_mean</text>
<text x="870.8" y="448" text-anchor="end" fill="#8b949e" font-size="11" transform="rotate(-30,870.8,448)">clear_median</text>
<text x="900.5" y="448" text-anchor="end" fill="#8b949e" font-size="11" transform="rotate(-30,900.5,448)">clear_stddev</text>
<text x="930.2" y="448" text-anchor="end" fill="#8b949e" font-size="11" transform="rotate(-30,930.2,448)">clear_cv</text>
<text x="14" y="272.5" text-anchor="middle" fill="#484f58" font-size="11" transform="rotate(-90,14,272.5)">Time (ms)</text>
<circle cx="65" cy="69" r="5" fill="#58a6ff"/>
<text x="75" y="73" fill="#c9d1d9" font-size="12">RG::LIST</text>
<circle cx="220" cy="69" r="5" fill="#FF9800"/>
<text x="230" y="73" fill="#c9d1d9" font-size="12">std::list</text>
<circle cx="375" cy="69" r="5" fill="#4CAF50"/>
<text x="385" y="73" fill="#c9d1d9" font-size="12">std::forward_list</text>
<circle cx="530" cy="69" r="5" fill="#BB86FC"/>
<text x="540" y="73" fill="#c9d1d9" font-size="12">boost::list</text>
<circle cx="685" cy="69" r="5" fill="#F472B6"/>
<text x="695" y="73" fill="#c9d1d9" font-size="12">eastl::list</text>
<text x="480.0" y="20" text-anchor="middle" fill="#58a6ff" font-size="15" font-weight="700">RG::LIST Benchmark — 2026-04-12</text>
</svg>