<svg xmlns="http://www.w3.org/2000/svg" viewBox="0 0 960 500" font-family="-apple-system,BlinkMacSystemFont,Segoe UI,sans-serif">
<rect width="960" height="500" rx="10" fill="#0d1117"/>
<rect x="55" y="115" width="890" height="315" fill="#161b22" rx="4"/>
<line x1="55" y1="429.6" x2="945" y2="429.6" stroke="#21262d"/>
<text x="47" y="433.60385008558194" text-anchor="end" fill="#484f58" font-size="10">0µs</text>
<line x1="55" y1="418.1" x2="945" y2="418.1" stroke="#21262d"/>
<text x="47" y="422.13966785631766" text-anchor="end" fill="#484f58" font-size="10">0µs</text>
<line x1="55" y1="409.5" x2="945" y2="409.5" stroke="#21262d"/>
<text x="47" y="413.46734878419664" text-anchor="end" fill="#484f58" font-size="10">0µs</text>
<line x1="55" y1="400.8" x2="945" y2="400.8" stroke="#21262d"/>
<text x="47" y="404.79502971207563" text-anchor="end" fill="#484f58" font-size="10">0µs</text>
<line x1="55" y1="389.3" x2="945" y2="389.3" stroke="#21262d"/>
<text x="47" y="393.33084748281135" text-anchor="end" fill="#484f58" font-size="10">0µs</text>
<line x1="55" y1="380.7" x2="945" y2="380.7" stroke="#21262d"/>
<text x="47" y="384.65852841069034" text-anchor="end" fill="#484f58" font-size="10">0µs</text>
<line x1="55" y1="372.0" x2="945" y2="372.0" stroke="#21262d"/>
<text x="47" y="375.9862093385693" text-anchor="end" fill="#484f58" font-size="10">0µs</text>
<line x1="55" y1="360.5" x2="945" y2="360.5" stroke="#21262d"/>
<text x="47" y="364.52202710930504" text-anchor="end" fill="#484f58" font-size="10">0µs</text>
<line x1="55" y1="351.8" x2="945" y2="351.8" stroke="#21262d"/>
<text x="47" y="355.849708037184" text-anchor="end" fill="#484f58" font-size="10">0µs</text>
<line x1="55" y1="343.2" x2="945" y2="343.2" stroke="#21262d"/>
<text x="47" y="347.17738896506296" text-anchor="end" fill="#484f58" font-size="10">0µs</text>
<line x1="55" y1="331.7" x2="945" y2="331.7" stroke="#21262d"/>
<text x="47" y="335.71320673579874" text-anchor="end" fill="#484f58" font-size="10">0µs</text>
<line x1="55" y1="323.0" x2="945" y2="323.0" stroke="#21262d"/>
<text x="47" y="327.04088766367767" text-anchor="end" fill="#484f58" font-size="10">0µs</text>
<line x1="55" y1="314.4" x2="945" y2="314.4" stroke="#21262d"/>
<text x="47" y="318.36856859155665" text-anchor="end" fill="#484f58" font-size="10">0µs</text>
<line x1="55" y1="302.9" x2="945" y2="302.9" stroke="#21262d"/>
<text x="47" y="306.90438636229237" text-anchor="end" fill="#484f58" font-size="10">0µs</text>
<line x1="55" y1="294.2" x2="945" y2="294.2" stroke="#21262d"/>
<text x="47" y="298.23206729017136" text-anchor="end" fill="#484f58" font-size="10">0µs</text>
<line x1="55" y1="285.6" x2="945" y2="285.6" stroke="#21262d"/>
<text x="47" y="289.55974821805034" text-anchor="end" fill="#484f58" font-size="10">0µs</text>
<line x1="55" y1="274.1" x2="945" y2="274.1" stroke="#21262d"/>
<text x="47" y="278.0955659887861" text-anchor="end" fill="#484f58" font-size="10">0µs</text>
<line x1="55" y1="265.4" x2="945" y2="265.4" stroke="#21262d"/>
<text x="47" y="269.42324691666505" text-anchor="end" fill="#484f58" font-size="10">0µs</text>
<line x1="55" y1="256.8" x2="945" y2="256.8" stroke="#21262d"/>
<text x="47" y="260.75092784454404" text-anchor="end" fill="#484f58" font-size="10">0µs</text>
<line x1="55" y1="245.3" x2="945" y2="245.3" stroke="#21262d"/>
<text x="47" y="249.28674561527976" text-anchor="end" fill="#484f58" font-size="10">0µs</text>
<line x1="55" y1="236.6" x2="945" y2="236.6" stroke="#21262d"/>
<text x="47" y="240.61442654315874" text-anchor="end" fill="#484f58" font-size="10">1µs</text>
<line x1="55" y1="227.9" x2="945" y2="227.9" stroke="#21262d"/>
<text x="47" y="231.9421074710377" text-anchor="end" fill="#484f58" font-size="10">2µs</text>
<line x1="55" y1="216.5" x2="945" y2="216.5" stroke="#21262d"/>
<text x="47" y="220.47792524177345" text-anchor="end" fill="#484f58" font-size="10">5µs</text>
<line x1="55" y1="207.8" x2="945" y2="207.8" stroke="#21262d"/>
<text x="47" y="211.80560616965244" text-anchor="end" fill="#484f58" font-size="10">10µs</text>
<line x1="55" y1="199.1" x2="945" y2="199.1" stroke="#21262d"/>
<text x="47" y="203.1332870975314" text-anchor="end" fill="#484f58" font-size="10">20µs</text>
<line x1="55" y1="187.7" x2="945" y2="187.7" stroke="#21262d"/>
<text x="47" y="191.66910486826708" text-anchor="end" fill="#484f58" font-size="10">50µs</text>
<line x1="55" y1="179.0" x2="945" y2="179.0" stroke="#21262d"/>
<text x="47" y="182.99678579614607" text-anchor="end" fill="#484f58" font-size="10">100µs</text>
<line x1="55" y1="170.3" x2="945" y2="170.3" stroke="#21262d"/>
<text x="47" y="174.32446672402506" text-anchor="end" fill="#484f58" font-size="10">200µs</text>
<line x1="55" y1="158.9" x2="945" y2="158.9" stroke="#21262d"/>
<text x="47" y="162.8602844947608" text-anchor="end" fill="#484f58" font-size="10">500µs</text>
<line x1="55" y1="150.2" x2="945" y2="150.2" stroke="#21262d"/>
<text x="47" y="154.18796542263976" text-anchor="end" fill="#484f58" font-size="10">1ms</text>
<line x1="55" y1="141.5" x2="945" y2="141.5" stroke="#21262d"/>
<text x="47" y="145.51564635051875" text-anchor="end" fill="#484f58" font-size="10">2ms</text>
<line x1="55" y1="130.1" x2="945" y2="130.1" stroke="#21262d"/>
<text x="47" y="134.0514641212545" text-anchor="end" fill="#484f58" font-size="10">5ms</text>
<line x1="55" y1="121.4" x2="945" y2="121.4" stroke="#21262d"/>
<text x="47" y="125.37914504913347" text-anchor="end" fill="#484f58" font-size="10">10ms</text>
<line x1="84.7" y1="115" x2="84.7" y2="430" stroke="#30363d" stroke-width="1" stroke-dasharray="4,4"/>
<line x1="114.3" y1="115" x2="114.3" y2="430" stroke="#30363d" stroke-width="1" stroke-dasharray="4,4"/>
<line x1="144.0" y1="115" x2="144.0" y2="430" stroke="#30363d" stroke-width="1" stroke-dasharray="4,4"/>
<line x1="173.7" y1="115" x2="173.7" y2="430" stroke="#30363d" stroke-width="1" stroke-dasharray="4,4"/>
<line x1="203.3" y1="115" x2="203.3" y2="430" stroke="#30363d" stroke-width="1" stroke-dasharray="4,4"/>
<line x1="233.0" y1="115" x2="233.0" y2="430" stroke="#30363d" stroke-width="1" stroke-dasharray="4,4"/>
<line x1="262.7" y1="115" x2="262.7" y2="430" stroke="#30363d" stroke-width="1" stroke-dasharray="4,4"/>
<line x1="292.3" y1="115" x2="292.3" y2="430" stroke="#30363d" stroke-width="1" stroke-dasharray="4,4"/>
<line x1="322.0" y1="115" x2="322.0" y2="430" stroke="#30363d" stroke-width="1" stroke-dasharray="4,4"/>
<line x1="351.7" y1="115" x2="351.7" y2="430" stroke="#30363d" stroke-width="1" stroke-dasharray="4,4"/>
<line x1="381.3" y1="115" x2="381.3" y2="430" stroke="#30363d" stroke-width="1" stroke-dasharray="4,4"/>
<line x1="411.0" y1="115" x2="411.0" y2="430" stroke="#30363d" stroke-width="1" stroke-dasharray="4,4"/>
<line x1="440.7" y1="115" x2="440.7" y2="430" stroke="#30363d" stroke-width="1" stroke-dasharray="4,4"/>
<line x1="470.3" y1="115" x2="470.3" y2="430" stroke="#30363d" stroke-width="1" stroke-dasharray="4,4"/>
<line x1="500.0" y1="115" x2="500.0" y2="430" stroke="#30363d" stroke-width="1" stroke-dasharray="4,4"/>
<line x1="529.7" y1="115" x2="529.7" y2="430" stroke="#30363d" stroke-width="1" stroke-dasharray="4,4"/>
<line x1="559.3" y1="115" x2="559.3" y2="430" stroke="#30363d" stroke-width="1" stroke-dasharray="4,4"/>
<line x1="589.0" y1="115" x2="589.0" y2="430" stroke="#30363d" stroke-width="1" stroke-dasharray="4,4"/>
<line x1="618.7" y1="115" x2="618.7" y2="430" stroke="#30363d" stroke-width="1" stroke-dasharray="4,4"/>
<line x1="648.3" y1="115" x2="648.3" y2="430" stroke="#30363d" stroke-width="1" stroke-dasharray="4,4"/>
<line x1="678.0" y1="115" x2="678.0" y2="430" stroke="#30363d" stroke-width="1" stroke-dasharray="4,4"/>
<line x1="707.7" y1="115" x2="707.7" y2="430" stroke="#30363d" stroke-width="1" stroke-dasharray="4,4"/>
<line x1="737.3" y1="115" x2="737.3" y2="430" stroke="#30363d" stroke-width="1" stroke-dasharray="4,4"/>
<line x1="767.0" y1="115" x2="767.0" y2="430" stroke="#30363d" stroke-width="1" stroke-dasharray="4,4"/>
<line x1="796.7" y1="115" x2="796.7" y2="430" stroke="#30363d" stroke-width="1" stroke-dasharray="4,4"/>
<line x1="826.3" y1="115" x2="826.3" y2="430" stroke="#30363d" stroke-width="1" stroke-dasharray="4,4"/>
<line x1="856.0" y1="115" x2="856.0" y2="430" stroke="#30363d" stroke-width="1" stroke-dasharray="4,4"/>
<line x1="885.7" y1="115" x2="885.7" y2="430" stroke="#30363d" stroke-width="1" stroke-dasharray="4,4"/>
<line x1="915.3" y1="115" x2="915.3" y2="430" stroke="#30363d" stroke-width="1" stroke-dasharray="4,4"/>
<path d="M69.8,142.8 L99.5,142.8 L129.2,142.8 L158.8,208.3 L188.5,388.5 L218.2,142.6 L247.8,142.8 L277.5,142.8 L307.2,198.0 L336.8,378.3 L366.5,151.9 L396.2,151.9 L425.8,151.9 L455.5,254.4 L485.2,425.5 L514.8,151.7 L544.5,151.6 L574.2,151.6 L603.8,246.2 L633.5,417.6 L663.2,154.0 L692.8,154.0 L722.5,154.0 L752.2,247.5 L781.8,416.5 L811.5,142.4 L841.2,142.4 L870.8,142.4 L900.5,225.0 L930.2,405.7" fill="none" stroke="#58a6ff" stroke-width="8" stroke-linejoin="round" stroke-linecap="round" opacity="0.12"/>
<path d="M69.8,142.8 L99.5,142.8 L129.2,142.8 L158.8,208.3 L188.5,388.5 L218.2,142.6 L247.8,142.8 L277.5,142.8 L307.2,198.0 L336.8,378.3 L366.5,151.9 L396.2,151.9 L425.8,151.9 L455.5,254.4 L485.2,425.5 L514.8,151.7 L544.5,151.6 L574.2,151.6 L603.8,246.2 L633.5,417.6 L663.2,154.0 L692.8,154.0 L722.5,154.0 L752.2,247.5 L781.8,416.5 L811.5,142.4 L841.2,142.4 L870.8,142.4 L900.5,225.0 L930.2,405.7" fill="none" stroke="#58a6ff" stroke-width="3.5" stroke-linejoin="round" stroke-linecap="round"/>
<circle cx="69.8" cy="142.8" r="6" fill="#58a6ff" opacity="0.2"/>
<circle cx="69.8" cy="142.8" r="4" fill="#58a6ff" stroke="#0d1117" stroke-width="2.5"/>
<circle cx="99.5" cy="142.8" r="6" fill="#58a6ff" opacity="0.2"/>
<circle cx="99.5" cy="142.8" r="4" fill="#58a6ff" stroke="#0d1117" stroke-width="2.5"/>
<circle cx="129.2" cy="142.8" r="6" fill="#58a6ff" opacity="0.2"/>
<circle cx="129.2" cy="142.8" r="4" fill="#58a6ff" stroke="#0d1117" stroke-width="2.5"/>
<circle cx="158.8" cy="208.3" r="6" fill="#58a6ff" opacity="0.2"/>
<circle cx="158.8" cy="208.3" r="4" fill="#58a6ff" stroke="#0d1117" stroke-width="2.5"/>
<circle cx="188.5" cy="388.5" r="6" fill="#58a6ff" opacity="0.2"/>
<circle cx="188.5" cy="388.5" r="4" fill="#58a6ff" stroke="#0d1117" stroke-width="2.5"/>
<circle cx="218.2" cy="142.6" r="6" fill="#58a6ff" opacity="0.2"/>
<circle cx="218.2" cy="142.6" r="4" fill="#58a6ff" stroke="#0d1117" stroke-width="2.5"/>
<circle cx="247.8" cy="142.8" r="6" fill="#58a6ff" opacity="0.2"/>
<circle cx="247.8" cy="142.8" r="4" fill="#58a6ff" stroke="#0d1117" stroke-width="2.5"/>
<circle cx="277.5" cy="142.8" r="6" fill="#58a6ff" opacity="0.2"/>
<circle cx="277.5" cy="142.8" r="4" fill="#58a6ff" stroke="#0d1117" stroke-width="2.5"/>
<circle cx="307.2" cy="198.0" r="6" fill="#58a6ff" opacity="0.2"/>
<circle cx="307.2" cy="198.0" r="4" fill="#58a6ff" stroke="#0d1117" stroke-width="2.5"/>
<circle cx="336.8" cy="378.3" r="6" fill="#58a6ff" opacity="0.2"/>
<circle cx="336.8" cy="378.3" r="4" fill="#58a6ff" stroke="#0d1117" stroke-width="2.5"/>
<circle cx="366.5" cy="151.9" r="6" fill="#58a6ff" opacity="0.2"/>
<circle cx="366.5" cy="151.9" r="4" fill="#58a6ff" stroke="#0d1117" stroke-width="2.5"/>
<circle cx="396.2" cy="151.9" r="6" fill="#58a6ff" opacity="0.2"/>
<circle cx="396.2" cy="151.9" r="4" fill="#58a6ff" stroke="#0d1117" stroke-width="2.5"/>
<circle cx="425.8" cy="151.9" r="6" fill="#58a6ff" opacity="0.2"/>
<circle cx="425.8" cy="151.9" r="4" fill="#58a6ff" stroke="#0d1117" stroke-width="2.5"/>
<circle cx="455.5" cy="254.4" r="6" fill="#58a6ff" opacity="0.2"/>
<circle cx="455.5" cy="254.4" r="4" fill="#58a6ff" stroke="#0d1117" stroke-width="2.5"/>
<circle cx="485.2" cy="425.5" r="6" fill="#58a6ff" opacity="0.2"/>
<circle cx="485.2" cy="425.5" r="4" fill="#58a6ff" stroke="#0d1117" stroke-width="2.5"/>
<circle cx="514.8" cy="151.7" r="6" fill="#58a6ff" opacity="0.2"/>
<circle cx="514.8" cy="151.7" r="4" fill="#58a6ff" stroke="#0d1117" stroke-width="2.5"/>
<circle cx="544.5" cy="151.6" r="6" fill="#58a6ff" opacity="0.2"/>
<circle cx="544.5" cy="151.6" r="4" fill="#58a6ff" stroke="#0d1117" stroke-width="2.5"/>
<circle cx="574.2" cy="151.6" r="6" fill="#58a6ff" opacity="0.2"/>
<circle cx="574.2" cy="151.6" r="4" fill="#58a6ff" stroke="#0d1117" stroke-width="2.5"/>
<circle cx="603.8" cy="246.2" r="6" fill="#58a6ff" opacity="0.2"/>
<circle cx="603.8" cy="246.2" r="4" fill="#58a6ff" stroke="#0d1117" stroke-width="2.5"/>
<circle cx="633.5" cy="417.6" r="6" fill="#58a6ff" opacity="0.2"/>
<circle cx="633.5" cy="417.6" r="4" fill="#58a6ff" stroke="#0d1117" stroke-width="2.5"/>
<circle cx="663.2" cy="154.0" r="6" fill="#58a6ff" opacity="0.2"/>
<circle cx="663.2" cy="154.0" r="4" fill="#58a6ff" stroke="#0d1117" stroke-width="2.5"/>
<circle cx="692.8" cy="154.0" r="6" fill="#58a6ff" opacity="0.2"/>
<circle cx="692.8" cy="154.0" r="4" fill="#58a6ff" stroke="#0d1117" stroke-width="2.5"/>
<circle cx="722.5" cy="154.0" r="6" fill="#58a6ff" opacity="0.2"/>
<circle cx="722.5" cy="154.0" r="4" fill="#58a6ff" stroke="#0d1117" stroke-width="2.5"/>
<circle cx="752.2" cy="247.5" r="6" fill="#58a6ff" opacity="0.2"/>
<circle cx="752.2" cy="247.5" r="4" fill="#58a6ff" stroke="#0d1117" stroke-width="2.5"/>
<circle cx="781.8" cy="416.5" r="6" fill="#58a6ff" opacity="0.2"/>
<circle cx="781.8" cy="416.5" r="4" fill="#58a6ff" stroke="#0d1117" stroke-width="2.5"/>
<circle cx="811.5" cy="142.4" r="6" fill="#58a6ff" opacity="0.2"/>
<circle cx="811.5" cy="142.4" r="4" fill="#58a6ff" stroke="#0d1117" stroke-width="2.5"/>
<circle cx="841.2" cy="142.4" r="6" fill="#58a6ff" opacity="0.2"/>
<circle cx="841.2" cy="142.4" r="4" fill="#58a6ff" stroke="#0d1117" stroke-width="2.5"/>
<circle cx="870.8" cy="142.4" r="6" fill="#58a6ff" opacity="0.2"/>
<circle cx="870.8" cy="142.4" r="4" fill="#58a6ff" stroke="#0d1117" stroke-width="2.5"/>
<circle cx="900.5" cy="225.0" r="6" fill="#58a6ff" opacity="0.2"/>
<circle cx="900.5" cy="225.0" r="4" fill="#58a6ff" stroke="#0d1117" stroke-width="2.5"/>
<circle cx="930.2" cy="405.7" r="6" fill="#58a6ff" opacity="0.2"/>
<circle cx="930.2" cy="405.7" r="4" fill="#58a6ff" stroke="#0d1117" stroke-width="2.5"/>
<path d="M69.8,120.4 L99.5,120.7 L129.2,120.9 L158.8,166.4 L188.5,368.7 L218.2,120.1 L247.8,120.1 L277.5,120.1 L307.2,165.3 L336.8,368.2 L366.5,128.8 L396.2,128.9 L425.8,128.8 L455.5,181.2 L485.2,375.4 L514.8,129.1 L544.5,129.1 L574.2,129.1 L603.8,172.7 L633.5,366.6 L663.2,154.1 L692.8,154.0 L722.5,154.1 L752.2,201.6 L781.8,370.6 L811.5,120.9 L841.2,120.9 L870.8,120.9 L900.5,187.2 L930.2,389.3" fill="none" stroke="#FF9800" stroke-width="8" stroke-linejoin="round" stroke-linecap="round" opacity="0.12"/>
<path d="M69.8,120.4 L99.5,120.7 L129.2,120.9 L158.8,166.4 L188.5,368.7 L218.2,120.1 L247.8,120.1 L277.5,120.1 L307.2,165.3 L336.8,368.2 L366.5,128.8 L396.2,128.9 L425.8,128.8 L455.5,181.2 L485.2,375.4 L514.8,129.1 L544.5,129.1 L574.2,129.1 L603.8,172.7 L633.5,366.6 L663.2,154.1 L692.8,154.0 L722.5,154.1 L752.2,201.6 L781.8,370.6 L811.5,120.9 L841.2,120.9 L870.8,120.9 L900.5,187.2 L930.2,389.3" fill="none" stroke="#FF9800" stroke-width="3.5" stroke-linejoin="round" stroke-linecap="round"/>
<circle cx="69.8" cy="120.4" r="6" fill="#FF9800" opacity="0.2"/>
<circle cx="69.8" cy="120.4" r="4" fill="#FF9800" stroke="#0d1117" stroke-width="2.5"/>
<circle cx="99.5" cy="120.7" r="6" fill="#FF9800" opacity="0.2"/>
<circle cx="99.5" cy="120.7" r="4" fill="#FF9800" stroke="#0d1117" stroke-width="2.5"/>
<circle cx="129.2" cy="120.9" r="6" fill="#FF9800" opacity="0.2"/>
<circle cx="129.2" cy="120.9" r="4" fill="#FF9800" stroke="#0d1117" stroke-width="2.5"/>
<circle cx="158.8" cy="166.4" r="6" fill="#FF9800" opacity="0.2"/>
<circle cx="158.8" cy="166.4" r="4" fill="#FF9800" stroke="#0d1117" stroke-width="2.5"/>
<circle cx="188.5" cy="368.7" r="6" fill="#FF9800" opacity="0.2"/>
<circle cx="188.5" cy="368.7" r="4" fill="#FF9800" stroke="#0d1117" stroke-width="2.5"/>
<circle cx="218.2" cy="120.1" r="6" fill="#FF9800" opacity="0.2"/>
<circle cx="218.2" cy="120.1" r="4" fill="#FF9800" stroke="#0d1117" stroke-width="2.5"/>
<circle cx="247.8" cy="120.1" r="6" fill="#FF9800" opacity="0.2"/>
<circle cx="247.8" cy="120.1" r="4" fill="#FF9800" stroke="#0d1117" stroke-width="2.5"/>
<circle cx="277.5" cy="120.1" r="6" fill="#FF9800" opacity="0.2"/>
<circle cx="277.5" cy="120.1" r="4" fill="#FF9800" stroke="#0d1117" stroke-width="2.5"/>
<circle cx="307.2" cy="165.3" r="6" fill="#FF9800" opacity="0.2"/>
<circle cx="307.2" cy="165.3" r="4" fill="#FF9800" stroke="#0d1117" stroke-width="2.5"/>
<circle cx="336.8" cy="368.2" r="6" fill="#FF9800" opacity="0.2"/>
<circle cx="336.8" cy="368.2" r="4" fill="#FF9800" stroke="#0d1117" stroke-width="2.5"/>
<circle cx="366.5" cy="128.8" r="6" fill="#FF9800" opacity="0.2"/>
<circle cx="366.5" cy="128.8" r="4" fill="#FF9800" stroke="#0d1117" stroke-width="2.5"/>
<circle cx="396.2" cy="128.9" r="6" fill="#FF9800" opacity="0.2"/>
<circle cx="396.2" cy="128.9" r="4" fill="#FF9800" stroke="#0d1117" stroke-width="2.5"/>
<circle cx="425.8" cy="128.8" r="6" fill="#FF9800" opacity="0.2"/>
<circle cx="425.8" cy="128.8" r="4" fill="#FF9800" stroke="#0d1117" stroke-width="2.5"/>
<circle cx="455.5" cy="181.2" r="6" fill="#FF9800" opacity="0.2"/>
<circle cx="455.5" cy="181.2" r="4" fill="#FF9800" stroke="#0d1117" stroke-width="2.5"/>
<circle cx="485.2" cy="375.4" r="6" fill="#FF9800" opacity="0.2"/>
<circle cx="485.2" cy="375.4" r="4" fill="#FF9800" stroke="#0d1117" stroke-width="2.5"/>
<circle cx="514.8" cy="129.1" r="6" fill="#FF9800" opacity="0.2"/>
<circle cx="514.8" cy="129.1" r="4" fill="#FF9800" stroke="#0d1117" stroke-width="2.5"/>
<circle cx="544.5" cy="129.1" r="6" fill="#FF9800" opacity="0.2"/>
<circle cx="544.5" cy="129.1" r="4" fill="#FF9800" stroke="#0d1117" stroke-width="2.5"/>
<circle cx="574.2" cy="129.1" r="6" fill="#FF9800" opacity="0.2"/>
<circle cx="574.2" cy="129.1" r="4" fill="#FF9800" stroke="#0d1117" stroke-width="2.5"/>
<circle cx="603.8" cy="172.7" r="6" fill="#FF9800" opacity="0.2"/>
<circle cx="603.8" cy="172.7" r="4" fill="#FF9800" stroke="#0d1117" stroke-width="2.5"/>
<circle cx="633.5" cy="366.6" r="6" fill="#FF9800" opacity="0.2"/>
<circle cx="633.5" cy="366.6" r="4" fill="#FF9800" stroke="#0d1117" stroke-width="2.5"/>
<circle cx="663.2" cy="154.1" r="6" fill="#FF9800" opacity="0.2"/>
<circle cx="663.2" cy="154.1" r="4" fill="#FF9800" stroke="#0d1117" stroke-width="2.5"/>
<circle cx="692.8" cy="154.0" r="6" fill="#FF9800" opacity="0.2"/>
<circle cx="692.8" cy="154.0" r="4" fill="#FF9800" stroke="#0d1117" stroke-width="2.5"/>
<circle cx="722.5" cy="154.1" r="6" fill="#FF9800" opacity="0.2"/>
<circle cx="722.5" cy="154.1" r="4" fill="#FF9800" stroke="#0d1117" stroke-width="2.5"/>
<circle cx="752.2" cy="201.6" r="6" fill="#FF9800" opacity="0.2"/>
<circle cx="752.2" cy="201.6" r="4" fill="#FF9800" stroke="#0d1117" stroke-width="2.5"/>
<circle cx="781.8" cy="370.6" r="6" fill="#FF9800" opacity="0.2"/>
<circle cx="781.8" cy="370.6" r="4" fill="#FF9800" stroke="#0d1117" stroke-width="2.5"/>
<circle cx="811.5" cy="120.9" r="6" fill="#FF9800" opacity="0.2"/>
<circle cx="811.5" cy="120.9" r="4" fill="#FF9800" stroke="#0d1117" stroke-width="2.5"/>
<circle cx="841.2" cy="120.9" r="6" fill="#FF9800" opacity="0.2"/>
<circle cx="841.2" cy="120.9" r="4" fill="#FF9800" stroke="#0d1117" stroke-width="2.5"/>
<circle cx="870.8" cy="120.9" r="6" fill="#FF9800" opacity="0.2"/>
<circle cx="870.8" cy="120.9" r="4" fill="#FF9800" stroke="#0d1117" stroke-width="2.5"/>
<circle cx="900.5" cy="187.2" r="6" fill="#FF9800" opacity="0.2"/>
<circle cx="900.5" cy="187.2" r="4" fill="#FF9800" stroke="#0d1117" stroke-width="2.5"/>
<circle cx="930.2" cy="389.3" r="6" fill="#FF9800" opacity="0.2"/>
<circle cx="930.2" cy="389.3" r="4" fill="#FF9800" stroke="#0d1117" stroke-width="2.5"/>
<path d="M69.8,122.7 L99.5,122.6 L129.2,122.7 L158.8,173.6 L188.5,374.0 L218.2,120.5 L247.8,120.7 L277.5,120.5 L307.2,162.4 L336.8,364.8 L366.5,130.7 L396.2,130.3 L425.8,130.2 L455.5,177.4 L485.2,370.1 L514.8,129.5 L544.5,129.1 L574.2,129.5 L603.8,162.8 L633.5,356.8 L663.2,154.0 L692.8,153.7 L722.5,154.0 L752.2,195.0 L781.8,364.3 L811.5,122.9 L841.2,122.6 L870.8,122.7 L900.5,171.0 L930.2,371.4" fill="none" stroke="#4CAF50" stroke-width="8" stroke-linejoin="round" stroke-linecap="round" opacity="0.12"/>
<path d="M69.8,122.7 L99.5,122.6 L129.2,122.7 L158.8,173.6 L188.5,374.0 L218.2,120.5 L247.8,120.7 L277.5,120.5 L307.2,162.4 L336.8,364.8 L366.5,130.7 L396.2,130.3 L425.8,130.2 L455.5,177.4 L485.2,370.1 L514.8,129.5 L544.5,129.1 L574.2,129.5 L603.8,162.8 L633.5,356.8 L663.2,154.0 L692.8,153.7 L722.5,154.0 L752.2,195.0 L781.8,364.3 L811.5,122.9 L841.2,122.6 L870.8,122.7 L900.5,171.0 L930.2,371.4" fill="none" stroke="#4CAF50" stroke-width="3.5" stroke-linejoin="round" stroke-linecap="round"/>
<circle cx="69.8" cy="122.7" r="6" fill="#4CAF50" opacity="0.2"/>
<circle cx="69.8" cy="122.7" r="4" fill="#4CAF50" stroke="#0d1117" stroke-width="2.5"/>
<circle cx="99.5" cy="122.6" r="6" fill="#4CAF50" opacity="0.2"/>
<circle cx="99.5" cy="122.6" r="4" fill="#4CAF50" stroke="#0d1117" stroke-width="2.5"/>
<circle cx="129.2" cy="122.7" r="6" fill="#4CAF50" opacity="0.2"/>
<circle cx="129.2" cy="122.7" r="4" fill="#4CAF50" stroke="#0d1117" stroke-width="2.5"/>
<circle cx="158.8" cy="173.6" r="6" fill="#4CAF50" opacity="0.2"/>
<circle cx="158.8" cy="173.6" r="4" fill="#4CAF50" stroke="#0d1117" stroke-width="2.5"/>
<circle cx="188.5" cy="374.0" r="6" fill="#4CAF50" opacity="0.2"/>
<circle cx="188.5" cy="374.0" r="4" fill="#4CAF50" stroke="#0d1117" stroke-width="2.5"/>
<circle cx="218.2" cy="120.5" r="6" fill="#4CAF50" opacity="0.2"/>
<circle cx="218.2" cy="120.5" r="4" fill="#4CAF50" stroke="#0d1117" stroke-width="2.5"/>
<circle cx="247.8" cy="120.7" r="6" fill="#4CAF50" opacity="0.2"/>
<circle cx="247.8" cy="120.7" r="4" fill="#4CAF50" stroke="#0d1117" stroke-width="2.5"/>
<circle cx="277.5" cy="120.5" r="6" fill="#4CAF50" opacity="0.2"/>
<circle cx="277.5" cy="120.5" r="4" fill="#4CAF50" stroke="#0d1117" stroke-width="2.5"/>
<circle cx="307.2" cy="162.4" r="6" fill="#4CAF50" opacity="0.2"/>
<circle cx="307.2" cy="162.4" r="4" fill="#4CAF50" stroke="#0d1117" stroke-width="2.5"/>
<circle cx="336.8" cy="364.8" r="6" fill="#4CAF50" opacity="0.2"/>
<circle cx="336.8" cy="364.8" r="4" fill="#4CAF50" stroke="#0d1117" stroke-width="2.5"/>
<circle cx="366.5" cy="130.7" r="6" fill="#4CAF50" opacity="0.2"/>
<circle cx="366.5" cy="130.7" r="4" fill="#4CAF50" stroke="#0d1117" stroke-width="2.5"/>
<circle cx="396.2" cy="130.3" r="6" fill="#4CAF50" opacity="0.2"/>
<circle cx="396.2" cy="130.3" r="4" fill="#4CAF50" stroke="#0d1117" stroke-width="2.5"/>
<circle cx="425.8" cy="130.2" r="6" fill="#4CAF50" opacity="0.2"/>
<circle cx="425.8" cy="130.2" r="4" fill="#4CAF50" stroke="#0d1117" stroke-width="2.5"/>
<circle cx="455.5" cy="177.4" r="6" fill="#4CAF50" opacity="0.2"/>
<circle cx="455.5" cy="177.4" r="4" fill="#4CAF50" stroke="#0d1117" stroke-width="2.5"/>
<circle cx="485.2" cy="370.1" r="6" fill="#4CAF50" opacity="0.2"/>
<circle cx="485.2" cy="370.1" r="4" fill="#4CAF50" stroke="#0d1117" stroke-width="2.5"/>
<circle cx="514.8" cy="129.5" r="6" fill="#4CAF50" opacity="0.2"/>
<circle cx="514.8" cy="129.5" r="4" fill="#4CAF50" stroke="#0d1117" stroke-width="2.5"/>
<circle cx="544.5" cy="129.1" r="6" fill="#4CAF50" opacity="0.2"/>
<circle cx="544.5" cy="129.1" r="4" fill="#4CAF50" stroke="#0d1117" stroke-width="2.5"/>
<circle cx="574.2" cy="129.5" r="6" fill="#4CAF50" opacity="0.2"/>
<circle cx="574.2" cy="129.5" r="4" fill="#4CAF50" stroke="#0d1117" stroke-width="2.5"/>
<circle cx="603.8" cy="162.8" r="6" fill="#4CAF50" opacity="0.2"/>
<circle cx="603.8" cy="162.8" r="4" fill="#4CAF50" stroke="#0d1117" stroke-width="2.5"/>
<circle cx="633.5" cy="356.8" r="6" fill="#4CAF50" opacity="0.2"/>
<circle cx="633.5" cy="356.8" r="4" fill="#4CAF50" stroke="#0d1117" stroke-width="2.5"/>
<circle cx="663.2" cy="154.0" r="6" fill="#4CAF50" opacity="0.2"/>
<circle cx="663.2" cy="154.0" r="4" fill="#4CAF50" stroke="#0d1117" stroke-width="2.5"/>
<circle cx="692.8" cy="153.7" r="6" fill="#4CAF50" opacity="0.2"/>
<circle cx="692.8" cy="153.7" r="4" fill="#4CAF50" stroke="#0d1117" stroke-width="2.5"/>
<circle cx="722.5" cy="154.0" r="6" fill="#4CAF50" opacity="0.2"/>
<circle cx="722.5" cy="154.0" r="4" fill="#4CAF50" stroke="#0d1117" stroke-width="2.5"/>
<circle cx="752.2" cy="195.0" r="6" fill="#4CAF50" opacity="0.2"/>
<circle cx="752.2" cy="195.0" r="4" fill="#4CAF50" stroke="#0d1117" stroke-width="2.5"/>
<circle cx="781.8" cy="364.3" r="6" fill="#4CAF50" opacity="0.2"/>
<circle cx="781.8" cy="364.3" r="4" fill="#4CAF50" stroke="#0d1117" stroke-width="2.5"/>
<circle cx="811.5" cy="122.9" r="6" fill="#4CAF50" opacity="0.2"/>
<circle cx="811.5" cy="122.9" r="4" fill="#4CAF50" stroke="#0d1117" stroke-width="2.5"/>
<circle cx="841.2" cy="122.6" r="6" fill="#4CAF50" opacity="0.2"/>
<circle cx="841.2" cy="122.6" r="4" fill="#4CAF50" stroke="#0d1117" stroke-width="2.5"/>
<circle cx="870.8" cy="122.7" r="6" fill="#4CAF50" opacity="0.2"/>
<circle cx="870.8" cy="122.7" r="4" fill="#4CAF50" stroke="#0d1117" stroke-width="2.5"/>
<circle cx="900.5" cy="171.0" r="6" fill="#4CAF50" opacity="0.2"/>
<circle cx="900.5" cy="171.0" r="4" fill="#4CAF50" stroke="#0d1117" stroke-width="2.5"/>
<circle cx="930.2" cy="371.4" r="6" fill="#4CAF50" opacity="0.2"/>
<circle cx="930.2" cy="371.4" r="4" fill="#4CAF50" stroke="#0d1117" stroke-width="2.5"/>
<path d="M69.8,122.7 L99.5,122.4 L129.2,122.2 L158.8,170.7 L188.5,371.3 L218.2,122.1 L247.8,121.4 L277.5,121.7 L307.2,154.2 L336.8,355.9 L366.5,130.5 L396.2,130.5 L425.8,130.5 L455.5,189.6 L485.2,382.1 L514.8,130.8 L544.5,130.8 L574.2,130.8 L603.8,200.6 L633.5,392.8 L663.2,152.8 L692.8,152.8 L722.5,152.8 L752.2,208.0 L781.8,378.3 L811.5,122.8 L841.2,122.7 L870.8,122.8 L900.5,174.2 L930.2,374.5" fill="none" stroke="#BB86FC" stroke-width="8" stroke-linejoin="round" stroke-linecap="round" opacity="0.12"/>
<path d="M69.8,122.7 L99.5,122.4 L129.2,122.2 L158.8,170.7 L188.5,371.3 L218.2,122.1 L247.8,121.4 L277.5,121.7 L307.2,154.2 L336.8,355.9 L366.5,130.5 L396.2,130.5 L425.8,130.5 L455.5,189.6 L485.2,382.1 L514.8,130.8 L544.5,130.8 L574.2,130.8 L603.8,200.6 L633.5,392.8 L663.2,152.8 L692.8,152.8 L722.5,152.8 L752.2,208.0 L781.8,378.3 L811.5,122.8 L841.2,122.7 L870.8,122.8 L900.5,174.2 L930.2,374.5" fill="none" stroke="#BB86FC" stroke-width="3.5" stroke-linejoin="round" stroke-linecap="round"/>
<circle cx="69.8" cy="122.7" r="6" fill="#BB86FC" opacity="0.2"/>
<circle cx="69.8" cy="122.7" r="4" fill="#BB86FC" stroke="#0d1117" stroke-width="2.5"/>
<circle cx="99.5" cy="122.4" r="6" fill="#BB86FC" opacity="0.2"/>
<circle cx="99.5" cy="122.4" r="4" fill="#BB86FC" stroke="#0d1117" stroke-width="2.5"/>
<circle cx="129.2" cy="122.2" r="6" fill="#BB86FC" opacity="0.2"/>
<circle cx="129.2" cy="122.2" r="4" fill="#BB86FC" stroke="#0d1117" stroke-width="2.5"/>
<circle cx="158.8" cy="170.7" r="6" fill="#BB86FC" opacity="0.2"/>
<circle cx="158.8" cy="170.7" r="4" fill="#BB86FC" stroke="#0d1117" stroke-width="2.5"/>
<circle cx="188.5" cy="371.3" r="6" fill="#BB86FC" opacity="0.2"/>
<circle cx="188.5" cy="371.3" r="4" fill="#BB86FC" stroke="#0d1117" stroke-width="2.5"/>
<circle cx="218.2" cy="122.1" r="6" fill="#BB86FC" opacity="0.2"/>
<circle cx="218.2" cy="122.1" r="4" fill="#BB86FC" stroke="#0d1117" stroke-width="2.5"/>
<circle cx="247.8" cy="121.4" r="6" fill="#BB86FC" opacity="0.2"/>
<circle cx="247.8" cy="121.4" r="4" fill="#BB86FC" stroke="#0d1117" stroke-width="2.5"/>
<circle cx="277.5" cy="121.7" r="6" fill="#BB86FC" opacity="0.2"/>
<circle cx="277.5" cy="121.7" r="4" fill="#BB86FC" stroke="#0d1117" stroke-width="2.5"/>
<circle cx="307.2" cy="154.2" r="6" fill="#BB86FC" opacity="0.2"/>
<circle cx="307.2" cy="154.2" r="4" fill="#BB86FC" stroke="#0d1117" stroke-width="2.5"/>
<circle cx="336.8" cy="355.9" r="6" fill="#BB86FC" opacity="0.2"/>
<circle cx="336.8" cy="355.9" r="4" fill="#BB86FC" stroke="#0d1117" stroke-width="2.5"/>
<circle cx="366.5" cy="130.5" r="6" fill="#BB86FC" opacity="0.2"/>
<circle cx="366.5" cy="130.5" r="4" fill="#BB86FC" stroke="#0d1117" stroke-width="2.5"/>
<circle cx="396.2" cy="130.5" r="6" fill="#BB86FC" opacity="0.2"/>
<circle cx="396.2" cy="130.5" r="4" fill="#BB86FC" stroke="#0d1117" stroke-width="2.5"/>
<circle cx="425.8" cy="130.5" r="6" fill="#BB86FC" opacity="0.2"/>
<circle cx="425.8" cy="130.5" r="4" fill="#BB86FC" stroke="#0d1117" stroke-width="2.5"/>
<circle cx="455.5" cy="189.6" r="6" fill="#BB86FC" opacity="0.2"/>
<circle cx="455.5" cy="189.6" r="4" fill="#BB86FC" stroke="#0d1117" stroke-width="2.5"/>
<circle cx="485.2" cy="382.1" r="6" fill="#BB86FC" opacity="0.2"/>
<circle cx="485.2" cy="382.1" r="4" fill="#BB86FC" stroke="#0d1117" stroke-width="2.5"/>
<circle cx="514.8" cy="130.8" r="6" fill="#BB86FC" opacity="0.2"/>
<circle cx="514.8" cy="130.8" r="4" fill="#BB86FC" stroke="#0d1117" stroke-width="2.5"/>
<circle cx="544.5" cy="130.8" r="6" fill="#BB86FC" opacity="0.2"/>
<circle cx="544.5" cy="130.8" r="4" fill="#BB86FC" stroke="#0d1117" stroke-width="2.5"/>
<circle cx="574.2" cy="130.8" r="6" fill="#BB86FC" opacity="0.2"/>
<circle cx="574.2" cy="130.8" r="4" fill="#BB86FC" stroke="#0d1117" stroke-width="2.5"/>
<circle cx="603.8" cy="200.6" r="6" fill="#BB86FC" opacity="0.2"/>
<circle cx="603.8" cy="200.6" r="4" fill="#BB86FC" stroke="#0d1117" stroke-width="2.5"/>
<circle cx="633.5" cy="392.8" r="6" fill="#BB86FC" opacity="0.2"/>
<circle cx="633.5" cy="392.8" r="4" fill="#BB86FC" stroke="#0d1117" stroke-width="2.5"/>
<circle cx="663.2" cy="152.8" r="6" fill="#BB86FC" opacity="0.2"/>
<circle cx="663.2" cy="152.8" r="4" fill="#BB86FC" stroke="#0d1117" stroke-width="2.5"/>
<circle cx="692.8" cy="152.8" r="6" fill="#BB86FC" opacity="0.2"/>
<circle cx="692.8" cy="152.8" r="4" fill="#BB86FC" stroke="#0d1117" stroke-width="2.5"/>
<circle cx="722.5" cy="152.8" r="6" fill="#BB86FC" opacity="0.2"/>
<circle cx="722.5" cy="152.8" r="4" fill="#BB86FC" stroke="#0d1117" stroke-width="2.5"/>
<circle cx="752.2" cy="208.0" r="6" fill="#BB86FC" opacity="0.2"/>
<circle cx="752.2" cy="208.0" r="4" fill="#BB86FC" stroke="#0d1117" stroke-width="2.5"/>
<circle cx="781.8" cy="378.3" r="6" fill="#BB86FC" opacity="0.2"/>
<circle cx="781.8" cy="378.3" r="4" fill="#BB86FC" stroke="#0d1117" stroke-width="2.5"/>
<circle cx="811.5" cy="122.8" r="6" fill="#BB86FC" opacity="0.2"/>
<circle cx="811.5" cy="122.8" r="4" fill="#BB86FC" stroke="#0d1117" stroke-width="2.5"/>
<circle cx="841.2" cy="122.7" r="6" fill="#BB86FC" opacity="0.2"/>
<circle cx="841.2" cy="122.7" r="4" fill="#BB86FC" stroke="#0d1117" stroke-width="2.5"/>
<circle cx="870.8" cy="122.8" r="6" fill="#BB86FC" opacity="0.2"/>
<circle cx="870.8" cy="122.8" r="4" fill="#BB86FC" stroke="#0d1117" stroke-width="2.5"/>
<circle cx="900.5" cy="174.2" r="6" fill="#BB86FC" opacity="0.2"/>
<circle cx="900.5" cy="174.2" r="4" fill="#BB86FC" stroke="#0d1117" stroke-width="2.5"/>
<circle cx="930.2" cy="374.5" r="6" fill="#BB86FC" opacity="0.2"/>
<circle cx="930.2" cy="374.5" r="4" fill="#BB86FC" stroke="#0d1117" stroke-width="2.5"/>
<path d="M69.8,122.4 L99.5,122.0 L129.2,121.8 L158.8,165.4 L188.5,366.5 L218.2,121.6 L247.8,121.4 L277.5,121.6 L307.2,157.8 L336.8,359.4 L366.5,129.6 L396.2,129.9 L425.8,129.9 L455.5,180.4 L485.2,373.6 L514.8,130.3 L544.5,130.0 L574.2,129.8 L603.8,176.6 L633.5,369.6 L663.2,154.1 L692.8,154.0 L722.5,154.1 L752.2,201.7 L781.8,370.8 L811.5,121.7 L841.2,121.8 L870.8,121.7 L900.5,167.1 L930.2,368.3" fill="none" stroke="#F472B6" stroke-width="8" stroke-linejoin="round" stroke-linecap="round" opacity="0.12"/>
<path d="M69.8,122.4 L99.5,122.0 L129.2,121.8 L158.8,165.4 L188.5,366.5 L218.2,121.6 L247.8,121.4 L277.5,121.6 L307.2,157.8 L336.8,359.4 L366.5,129.6 L396.2,129.9 L425.8,129.9 L455.5,180.4 L485.2,373.6 L514.8,130.3 L544.5,130.0 L574.2,129.8 L603.8,176.6 L633.5,369.6 L663.2,154.1 L692.8,154.0 L722.5,154.1 L752.2,201.7 L781.8,370.8 L811.5,121.7 L841.2,121.8 L870.8,121.7 L900.5,167.1 L930.2,368.3" fill="none" stroke="#F472B6" stroke-width="3.5" stroke-linejoin="round" stroke-linecap="round"/>
<circle cx="69.8" cy="122.4" r="6" fill="#F472B6" opacity="0.2"/>
<circle cx="69.8" cy="122.4" r="4" fill="#F472B6" stroke="#0d1117" stroke-width="2.5"/>
<circle cx="99.5" cy="122.0" r="6" fill="#F472B6" opacity="0.2"/>
<circle cx="99.5" cy="122.0" r="4" fill="#F472B6" stroke="#0d1117" stroke-width="2.5"/>
<circle cx="129.2" cy="121.8" r="6" fill="#F472B6" opacity="0.2"/>
<circle cx="129.2" cy="121.8" r="4" fill="#F472B6" stroke="#0d1117" stroke-width="2.5"/>
<circle cx="158.8" cy="165.4" r="6" fill="#F472B6" opacity="0.2"/>
<circle cx="158.8" cy="165.4" r="4" fill="#F472B6" stroke="#0d1117" stroke-width="2.5"/>
<circle cx="188.5" cy="366.5" r="6" fill="#F472B6" opacity="0.2"/>
<circle cx="188.5" cy="366.5" r="4" fill="#F472B6" stroke="#0d1117" stroke-width="2.5"/>
<circle cx="218.2" cy="121.6" r="6" fill="#F472B6" opacity="0.2"/>
<circle cx="218.2" cy="121.6" r="4" fill="#F472B6" stroke="#0d1117" stroke-width="2.5"/>
<circle cx="247.8" cy="121.4" r="6" fill="#F472B6" opacity="0.2"/>
<circle cx="247.8" cy="121.4" r="4" fill="#F472B6" stroke="#0d1117" stroke-width="2.5"/>
<circle cx="277.5" cy="121.6" r="6" fill="#F472B6" opacity="0.2"/>
<circle cx="277.5" cy="121.6" r="4" fill="#F472B6" stroke="#0d1117" stroke-width="2.5"/>
<circle cx="307.2" cy="157.8" r="6" fill="#F472B6" opacity="0.2"/>
<circle cx="307.2" cy="157.8" r="4" fill="#F472B6" stroke="#0d1117" stroke-width="2.5"/>
<circle cx="336.8" cy="359.4" r="6" fill="#F472B6" opacity="0.2"/>
<circle cx="336.8" cy="359.4" r="4" fill="#F472B6" stroke="#0d1117" stroke-width="2.5"/>
<circle cx="366.5" cy="129.6" r="6" fill="#F472B6" opacity="0.2"/>
<circle cx="366.5" cy="129.6" r="4" fill="#F472B6" stroke="#0d1117" stroke-width="2.5"/>
<circle cx="396.2" cy="129.9" r="6" fill="#F472B6" opacity="0.2"/>
<circle cx="396.2" cy="129.9" r="4" fill="#F472B6" stroke="#0d1117" stroke-width="2.5"/>
<circle cx="425.8" cy="129.9" r="6" fill="#F472B6" opacity="0.2"/>
<circle cx="425.8" cy="129.9" r="4" fill="#F472B6" stroke="#0d1117" stroke-width="2.5"/>
<circle cx="455.5" cy="180.4" r="6" fill="#F472B6" opacity="0.2"/>
<circle cx="455.5" cy="180.4" r="4" fill="#F472B6" stroke="#0d1117" stroke-width="2.5"/>
<circle cx="485.2" cy="373.6" r="6" fill="#F472B6" opacity="0.2"/>
<circle cx="485.2" cy="373.6" r="4" fill="#F472B6" stroke="#0d1117" stroke-width="2.5"/>
<circle cx="514.8" cy="130.3" r="6" fill="#F472B6" opacity="0.2"/>
<circle cx="514.8" cy="130.3" r="4" fill="#F472B6" stroke="#0d1117" stroke-width="2.5"/>
<circle cx="544.5" cy="130.0" r="6" fill="#F472B6" opacity="0.2"/>
<circle cx="544.5" cy="130.0" r="4" fill="#F472B6" stroke="#0d1117" stroke-width="2.5"/>
<circle cx="574.2" cy="129.8" r="6" fill="#F472B6" opacity="0.2"/>
<circle cx="574.2" cy="129.8" r="4" fill="#F472B6" stroke="#0d1117" stroke-width="2.5"/>
<circle cx="603.8" cy="176.6" r="6" fill="#F472B6" opacity="0.2"/>
<circle cx="603.8" cy="176.6" r="4" fill="#F472B6" stroke="#0d1117" stroke-width="2.5"/>
<circle cx="633.5" cy="369.6" r="6" fill="#F472B6" opacity="0.2"/>
<circle cx="633.5" cy="369.6" r="4" fill="#F472B6" stroke="#0d1117" stroke-width="2.5"/>
<circle cx="663.2" cy="154.1" r="6" fill="#F472B6" opacity="0.2"/>
<circle cx="663.2" cy="154.1" r="4" fill="#F472B6" stroke="#0d1117" stroke-width="2.5"/>
<circle cx="692.8" cy="154.0" r="6" fill="#F472B6" opacity="0.2"/>
<circle cx="692.8" cy="154.0" r="4" fill="#F472B6" stroke="#0d1117" stroke-width="2.5"/>
<circle cx="722.5" cy="154.1" r="6" fill="#F472B6" opacity="0.2"/>
<circle cx="722.5" cy="154.1" r="4" fill="#F472B6" stroke="#0d1117" stroke-width="2.5"/>
<circle cx="752.2" cy="201.7" r="6" fill="#F472B6" opacity="0.2"/>
<circle cx="752.2" cy="201.7" r="4" fill="#F472B6" stroke="#0d1117" stroke-width="2.5"/>
<circle cx="781.8" cy="370.8" r="6" fill="#F472B6" opacity="0.2"/>
<circle cx="781.8" cy="370.8" r="4" fill="#F472B6" stroke="#0d1117" stroke-width="2.5"/>
<circle cx="811.5" cy="121.7" r="6" fill="#F472B6" opacity="0.2"/>
<circle cx="811.5" cy="121.7" r="4" fill="#F472B6" stroke="#0d1117" stroke-width="2.5"/>
<circle cx="841.2" cy="121.8" r="6" fill="#F472B6" opacity="0.2"/>
<circle cx="841.2" cy="121.8" r="4" fill="#F472B6" stroke="#0d1117" stroke-width="2.5"/>
<circle cx="870.8" cy="121.7" r="6" fill="#F472B6" opacity="0.2"/>
<circle cx="870.8" cy="121.7" r="4" fill="#F472B6" stroke="#0d1117" stroke-width="2.5"/>
<circle cx="900.5" cy="167.1" r="6" fill="#F472B6" opacity="0.2"/>
<circle cx="900.5" cy="167.1" r="4" fill="#F472B6" stroke="#0d1117" stroke-width="2.5"/>
<circle cx="930.2" cy="368.3" r="6" fill="#F472B6" opacity="0.2"/>
<circle cx="930.2" cy="368.3" r="4" fill="#F472B6" stroke="#0d1117" stroke-width="2.5"/>
<text x="69.8" y="448" text-anchor="end" fill="#8b949e" font-size="11" transform="rotate(-30,69.8,448)">push_back</text>
<text x="99.5" y="448" text-anchor="end" fill="#8b949e" font-size="11" transform="rotate(-30,99.5,448)">push_back_mean</text>
<text x="129.2" y="448" text-anchor="end" fill="#8b949e" font-size="11" transform="rotate(-30,129.2,448)">push_back_median</text>
<text x="158.8" y="448" text-anchor="end" fill="#8b949e" font-size="11" transform="rotate(-30,158.8,448)">push_back_stddev</text>
<text x="188.5" y="448" text-anchor="end" fill="#8b949e" font-size="11" transform="rotate(-30,188.5,448)">push_back_cv</text>
<text x="218.2" y="448" text-anchor="end" fill="#8b949e" font-size="11" transform="rotate(-30,218.2,448)">push_front</text>
<text x="247.8" y="448" text-anchor="end" fill="#8b949e" font-size="11" transform="rotate(-30,247.8,448)">push_front_mean</text>
<text x="277.5" y="448" text-anchor="end" fill="#8b949e" font-size="11" transform="rotate(-30,277.5,448)">push_front_median</text>
<text x="307.2" y="448" text-anchor="end" fill="#8b949e" font-size="11" transform="rotate(-30,307.2,448)">push_front_stddev</text>
<text x="336.8" y="448" text-anchor="end" fill="#8b949e" font-size="11" transform="rotate(-30,336.8,448)">push_front_cv</text>
<text x="366.5" y="448" text-anchor="end" fill="#8b949e" font-size="11" transform="rotate(-30,366.5,448)">insert_middle</text>
<text x="396.2" y="448" text-anchor="end" fill="#8b949e" font-size="11" transform="rotate(-30,396.2,448)">insert_middle_mean</text>
<text x="425.8" y="448" text-anchor="end" fill="#8b949e" font-size="11" transform="rotate(-30,425.8,448)">insert_middle_median</text>
<text x="455.5" y="448" text-anchor="end" fill="#8b949e" font-size="11" transform="rotate(-30,455.5,448)">insert_middle_stddev</text>
<text x="485.2" y="448" text-anchor="end" fill="#8b949e" font-size="11" transform="rotate(-30,485.2,448)">insert_middle_cv</text>
<text x="514.8" y="448" text-anchor="end" fill="#8b949e" font-size="11" transform="rotate(-30,514.8,448)">erase_middle</text>
<text x="544.5" y="448" text-anchor="end" fill="#8b949e" font-size="11" transform="rotate(-30,544.5,448)">erase_middle_mean</text>
<text x="574.2" y="448" text-anchor="end" fill="#8b949e" font-size="11" transform="rotate(-30,574.2,448)">erase_middle_median</text>
<text x="603.8" y="448" text-anchor="end" fill="#8b949e" font-size="11" transform="rotate(-30,603.8,448)">erase_middle_stddev</text>
<text x="633.5" y="448" text-anchor="end" fill="#8b949e" font-size="11" transform="rotate(-30,633.5,448)">erase_middle_cv</text>
<text x="663.2" y="448" text-anchor="end" fill="#8b949e" font-size="11" transform="rotate(-30,663.2,448)">iterate</text>
<text x="692.8" y="448" text-anchor="end" fill="#8b949e" font-size="11" transform="rotate(-30,692.8,448)">iterate_mean</text>
<text x="722.5" y="448" text-anchor="end" fill="#8b949e" font-size="11" transform="rotate(-30,722.5,448)">iterate_median</text>
<text x="752.2" y="448" text-anchor="end" fill="#8b949e" font-size="11" transform="rotate(-30,752.2,448)">iterate_stddev</text>
<text x="781.8" y="448" text-anchor="end" fill="#8b949e" font-size="11" transform="rotate(-30,781.8,448)">iterate_cv</text>
<text x="811.5" y="448" text-anchor="end" fill="#8b949e" font-size="11" transform="rotate(-30,811.5,448)">clear</text>
<text x="841.2" y="448" text-anchor="end" fill="#8b949e" font-size="11" transform="rotate(-30,841.2,448)">clear_mean</text>
<text x="870.8" y="448" text-anchor="end" fill="#8b949e" font-size="11" transform="rotate(-30,870.8,448)">clear_median</text>
<text x="900.5" y="448" text-anchor="end" fill="#8b949e" font-size="11" transform="rotate(-30,900.5,448)">clear_stddev</text>
<text x="930.2" y="448" text-anchor="end" fill="#8b949e" font-size="11" transform="rotate(-30,930.2,448)">clear_cv</text>
<text x="14" y="272.5" text-anchor="middle" fill="#484f58" font-size="11" transform="rotate(-90,14,272.5)">Time (ms)</text>
<circle cx="65" cy="69" r="5" fill="#58a6ff"/>
<text x="75" y="73" fill="#c9d1d9" font-size="12">RG::LIST</text>
<circle cx="220" cy="69" r="5" fill="#FF9800"/>
<text x="230" y="73" fill="#c9d1d9" font-size="12">std::list</text>
<circle cx="375" cy="69" r="5" fill="#4CAF50"/>
<text x="385" y="73" fill="#c9d1d9" font-size="12">std::forward_list</text>
<circle cx="530" cy="69" r="5" fill="#BB86FC"/>
<text x="540" y="73" fill="#c9d1d9" font-size="12">boost::list</text>
<circle cx="685" cy="69" r="5" fill="#F472B6"/>
<text x="695" y="73" fill="#c9d1d9" font-size="12">eastl::list</text>
<text x="480.0" y="20" text-anchor="middle" fill="#58a6ff" font-size="15" font-weight="700">RG::LIST Benchmark — 2026-04-12</text>
</svg>