<svg xmlns="http://www.w3.org/2000/svg" viewBox="0 0 960 500" font-family="-apple-system,BlinkMacSystemFont,Segoe UI,sans-serif">
<rect width="960" height="500" rx="10" fill="#0d1117"/>
<rect x="55" y="115" width="890" height="315" fill="#161b22" rx="4"/>
<line x1="55" y1="427.1" x2="945" y2="427.1" stroke="#21262d"/>
<text x="47" y="431.1210412605997" text-anchor="end" fill="#484f58" font-size="10">0µs</text>
<line x1="55" y1="418.2" x2="945" y2="418.2" stroke="#21262d"/>
<text x="47" y="422.20532186821964" text-anchor="end" fill="#484f58" font-size="10">0µs</text>
<line x1="55" y1="406.4" x2="945" y2="406.4" stroke="#21262d"/>
<text x="47" y="410.4193819173003" text-anchor="end" fill="#484f58" font-size="10">0µs</text>
<line x1="55" y1="397.5" x2="945" y2="397.5" stroke="#21262d"/>
<text x="47" y="401.50366252492023" text-anchor="end" fill="#484f58" font-size="10">0µs</text>
<line x1="55" y1="388.6" x2="945" y2="388.6" stroke="#21262d"/>
<text x="47" y="392.58794313254015" text-anchor="end" fill="#484f58" font-size="10">0µs</text>
<line x1="55" y1="376.8" x2="945" y2="376.8" stroke="#21262d"/>
<text x="47" y="380.8020031816208" text-anchor="end" fill="#484f58" font-size="10">0µs</text>
<line x1="55" y1="367.9" x2="945" y2="367.9" stroke="#21262d"/>
<text x="47" y="371.8862837892408" text-anchor="end" fill="#484f58" font-size="10">0µs</text>
<line x1="55" y1="359.0" x2="945" y2="359.0" stroke="#21262d"/>
<text x="47" y="362.97056439686065" text-anchor="end" fill="#484f58" font-size="10">0µs</text>
<line x1="55" y1="347.2" x2="945" y2="347.2" stroke="#21262d"/>
<text x="47" y="351.1846244459414" text-anchor="end" fill="#484f58" font-size="10">0µs</text>
<line x1="55" y1="338.3" x2="945" y2="338.3" stroke="#21262d"/>
<text x="47" y="342.2689050535613" text-anchor="end" fill="#484f58" font-size="10">0µs</text>
<line x1="55" y1="329.4" x2="945" y2="329.4" stroke="#21262d"/>
<text x="47" y="333.3531856611812" text-anchor="end" fill="#484f58" font-size="10">0µs</text>
<line x1="55" y1="317.6" x2="945" y2="317.6" stroke="#21262d"/>
<text x="47" y="321.5672457102619" text-anchor="end" fill="#484f58" font-size="10">0µs</text>
<line x1="55" y1="308.7" x2="945" y2="308.7" stroke="#21262d"/>
<text x="47" y="312.65152631788175" text-anchor="end" fill="#484f58" font-size="10">0µs</text>
<line x1="55" y1="299.7" x2="945" y2="299.7" stroke="#21262d"/>
<text x="47" y="303.7358069255017" text-anchor="end" fill="#484f58" font-size="10">0µs</text>
<line x1="55" y1="287.9" x2="945" y2="287.9" stroke="#21262d"/>
<text x="47" y="291.9498669745824" text-anchor="end" fill="#484f58" font-size="10">0µs</text>
<line x1="55" y1="279.0" x2="945" y2="279.0" stroke="#21262d"/>
<text x="47" y="283.0341475822023" text-anchor="end" fill="#484f58" font-size="10">0µs</text>
<line x1="55" y1="270.1" x2="945" y2="270.1" stroke="#21262d"/>
<text x="47" y="274.1184281898222" text-anchor="end" fill="#484f58" font-size="10">0µs</text>
<line x1="55" y1="258.3" x2="945" y2="258.3" stroke="#21262d"/>
<text x="47" y="262.3324882389029" text-anchor="end" fill="#484f58" font-size="10">0µs</text>
<line x1="55" y1="249.4" x2="945" y2="249.4" stroke="#21262d"/>
<text x="47" y="253.4167688465228" text-anchor="end" fill="#484f58" font-size="10">1µs</text>
<line x1="55" y1="240.5" x2="945" y2="240.5" stroke="#21262d"/>
<text x="47" y="244.50104945414273" text-anchor="end" fill="#484f58" font-size="10">2µs</text>
<line x1="55" y1="228.7" x2="945" y2="228.7" stroke="#21262d"/>
<text x="47" y="232.71510950322337" text-anchor="end" fill="#484f58" font-size="10">5µs</text>
<line x1="55" y1="219.8" x2="945" y2="219.8" stroke="#21262d"/>
<text x="47" y="223.7993901108433" text-anchor="end" fill="#484f58" font-size="10">10µs</text>
<line x1="55" y1="210.9" x2="945" y2="210.9" stroke="#21262d"/>
<text x="47" y="214.88367071846324" text-anchor="end" fill="#484f58" font-size="10">20µs</text>
<line x1="55" y1="199.1" x2="945" y2="199.1" stroke="#21262d"/>
<text x="47" y="203.0977307675439" text-anchor="end" fill="#484f58" font-size="10">50µs</text>
<line x1="55" y1="190.2" x2="945" y2="190.2" stroke="#21262d"/>
<text x="47" y="194.18201137516382" text-anchor="end" fill="#484f58" font-size="10">100µs</text>
<line x1="55" y1="181.3" x2="945" y2="181.3" stroke="#21262d"/>
<text x="47" y="185.26629198278374" text-anchor="end" fill="#484f58" font-size="10">200µs</text>
<line x1="55" y1="169.5" x2="945" y2="169.5" stroke="#21262d"/>
<text x="47" y="173.4803520318644" text-anchor="end" fill="#484f58" font-size="10">500µs</text>
<line x1="55" y1="160.6" x2="945" y2="160.6" stroke="#21262d"/>
<text x="47" y="164.5646326394843" text-anchor="end" fill="#484f58" font-size="10">1ms</text>
<line x1="55" y1="151.6" x2="945" y2="151.6" stroke="#21262d"/>
<text x="47" y="155.64891324710425" text-anchor="end" fill="#484f58" font-size="10">2ms</text>
<line x1="55" y1="139.9" x2="945" y2="139.9" stroke="#21262d"/>
<text x="47" y="143.86297329618492" text-anchor="end" fill="#484f58" font-size="10">5ms</text>
<line x1="55" y1="130.9" x2="945" y2="130.9" stroke="#21262d"/>
<text x="47" y="134.94725390380484" text-anchor="end" fill="#484f58" font-size="10">10ms</text>
<line x1="55" y1="122.0" x2="945" y2="122.0" stroke="#21262d"/>
<text x="47" y="126.03153451142475" text-anchor="end" fill="#484f58" font-size="10">20ms</text>
<line x1="84.7" y1="115" x2="84.7" y2="430" stroke="#30363d" stroke-width="1" stroke-dasharray="4,4"/>
<line x1="114.3" y1="115" x2="114.3" y2="430" stroke="#30363d" stroke-width="1" stroke-dasharray="4,4"/>
<line x1="144.0" y1="115" x2="144.0" y2="430" stroke="#30363d" stroke-width="1" stroke-dasharray="4,4"/>
<line x1="173.7" y1="115" x2="173.7" y2="430" stroke="#30363d" stroke-width="1" stroke-dasharray="4,4"/>
<line x1="203.3" y1="115" x2="203.3" y2="430" stroke="#30363d" stroke-width="1" stroke-dasharray="4,4"/>
<line x1="233.0" y1="115" x2="233.0" y2="430" stroke="#30363d" stroke-width="1" stroke-dasharray="4,4"/>
<line x1="262.7" y1="115" x2="262.7" y2="430" stroke="#30363d" stroke-width="1" stroke-dasharray="4,4"/>
<line x1="292.3" y1="115" x2="292.3" y2="430" stroke="#30363d" stroke-width="1" stroke-dasharray="4,4"/>
<line x1="322.0" y1="115" x2="322.0" y2="430" stroke="#30363d" stroke-width="1" stroke-dasharray="4,4"/>
<line x1="351.7" y1="115" x2="351.7" y2="430" stroke="#30363d" stroke-width="1" stroke-dasharray="4,4"/>
<line x1="381.3" y1="115" x2="381.3" y2="430" stroke="#30363d" stroke-width="1" stroke-dasharray="4,4"/>
<line x1="411.0" y1="115" x2="411.0" y2="430" stroke="#30363d" stroke-width="1" stroke-dasharray="4,4"/>
<line x1="440.7" y1="115" x2="440.7" y2="430" stroke="#30363d" stroke-width="1" stroke-dasharray="4,4"/>
<line x1="470.3" y1="115" x2="470.3" y2="430" stroke="#30363d" stroke-width="1" stroke-dasharray="4,4"/>
<line x1="500.0" y1="115" x2="500.0" y2="430" stroke="#30363d" stroke-width="1" stroke-dasharray="4,4"/>
<line x1="529.7" y1="115" x2="529.7" y2="430" stroke="#30363d" stroke-width="1" stroke-dasharray="4,4"/>
<line x1="559.3" y1="115" x2="559.3" y2="430" stroke="#30363d" stroke-width="1" stroke-dasharray="4,4"/>
<line x1="589.0" y1="115" x2="589.0" y2="430" stroke="#30363d" stroke-width="1" stroke-dasharray="4,4"/>
<line x1="618.7" y1="115" x2="618.7" y2="430" stroke="#30363d" stroke-width="1" stroke-dasharray="4,4"/>
<line x1="648.3" y1="115" x2="648.3" y2="430" stroke="#30363d" stroke-width="1" stroke-dasharray="4,4"/>
<line x1="678.0" y1="115" x2="678.0" y2="430" stroke="#30363d" stroke-width="1" stroke-dasharray="4,4"/>
<line x1="707.7" y1="115" x2="707.7" y2="430" stroke="#30363d" stroke-width="1" stroke-dasharray="4,4"/>
<line x1="737.3" y1="115" x2="737.3" y2="430" stroke="#30363d" stroke-width="1" stroke-dasharray="4,4"/>
<line x1="767.0" y1="115" x2="767.0" y2="430" stroke="#30363d" stroke-width="1" stroke-dasharray="4,4"/>
<line x1="796.7" y1="115" x2="796.7" y2="430" stroke="#30363d" stroke-width="1" stroke-dasharray="4,4"/>
<line x1="826.3" y1="115" x2="826.3" y2="430" stroke="#30363d" stroke-width="1" stroke-dasharray="4,4"/>
<line x1="856.0" y1="115" x2="856.0" y2="430" stroke="#30363d" stroke-width="1" stroke-dasharray="4,4"/>
<line x1="885.7" y1="115" x2="885.7" y2="430" stroke="#30363d" stroke-width="1" stroke-dasharray="4,4"/>
<line x1="915.3" y1="115" x2="915.3" y2="430" stroke="#30363d" stroke-width="1" stroke-dasharray="4,4"/>
<path d="M69.8,146.4 L99.5,146.7 L129.2,146.8 L158.8,197.7 L188.5,389.3 L218.2,152.7 L247.8,152.6 L277.5,152.7 L307.2,209.3 L336.8,394.9 L366.5,165.6 L396.2,165.1 L425.8,165.1 L455.5,208.3 L485.2,381.5 L514.8,165.8 L544.5,165.8 L574.2,165.8 L603.8,220.8 L633.5,393.2 L663.2,163.4 L692.8,163.0 L722.5,163.0 L752.2,208.7 L781.8,383.9 L811.5,152.0 L841.2,152.8 L870.8,153.1 L900.5,189.6 L930.2,375.1" fill="none" stroke="#58a6ff" stroke-width="8" stroke-linejoin="round" stroke-linecap="round" opacity="0.12"/>
<path d="M69.8,146.4 L99.5,146.7 L129.2,146.8 L158.8,197.7 L188.5,389.3 L218.2,152.7 L247.8,152.6 L277.5,152.7 L307.2,209.3 L336.8,394.9 L366.5,165.6 L396.2,165.1 L425.8,165.1 L455.5,208.3 L485.2,381.5 L514.8,165.8 L544.5,165.8 L574.2,165.8 L603.8,220.8 L633.5,393.2 L663.2,163.4 L692.8,163.0 L722.5,163.0 L752.2,208.7 L781.8,383.9 L811.5,152.0 L841.2,152.8 L870.8,153.1 L900.5,189.6 L930.2,375.1" fill="none" stroke="#58a6ff" stroke-width="3.5" stroke-linejoin="round" stroke-linecap="round"/>
<circle cx="69.8" cy="146.4" r="6" fill="#58a6ff" opacity="0.2"/>
<circle cx="69.8" cy="146.4" r="4" fill="#58a6ff" stroke="#0d1117" stroke-width="2.5"/>
<circle cx="99.5" cy="146.7" r="6" fill="#58a6ff" opacity="0.2"/>
<circle cx="99.5" cy="146.7" r="4" fill="#58a6ff" stroke="#0d1117" stroke-width="2.5"/>
<circle cx="129.2" cy="146.8" r="6" fill="#58a6ff" opacity="0.2"/>
<circle cx="129.2" cy="146.8" r="4" fill="#58a6ff" stroke="#0d1117" stroke-width="2.5"/>
<circle cx="158.8" cy="197.7" r="6" fill="#58a6ff" opacity="0.2"/>
<circle cx="158.8" cy="197.7" r="4" fill="#58a6ff" stroke="#0d1117" stroke-width="2.5"/>
<circle cx="188.5" cy="389.3" r="6" fill="#58a6ff" opacity="0.2"/>
<circle cx="188.5" cy="389.3" r="4" fill="#58a6ff" stroke="#0d1117" stroke-width="2.5"/>
<circle cx="218.2" cy="152.7" r="6" fill="#58a6ff" opacity="0.2"/>
<circle cx="218.2" cy="152.7" r="4" fill="#58a6ff" stroke="#0d1117" stroke-width="2.5"/>
<circle cx="247.8" cy="152.6" r="6" fill="#58a6ff" opacity="0.2"/>
<circle cx="247.8" cy="152.6" r="4" fill="#58a6ff" stroke="#0d1117" stroke-width="2.5"/>
<circle cx="277.5" cy="152.7" r="6" fill="#58a6ff" opacity="0.2"/>
<circle cx="277.5" cy="152.7" r="4" fill="#58a6ff" stroke="#0d1117" stroke-width="2.5"/>
<circle cx="307.2" cy="209.3" r="6" fill="#58a6ff" opacity="0.2"/>
<circle cx="307.2" cy="209.3" r="4" fill="#58a6ff" stroke="#0d1117" stroke-width="2.5"/>
<circle cx="336.8" cy="394.9" r="6" fill="#58a6ff" opacity="0.2"/>
<circle cx="336.8" cy="394.9" r="4" fill="#58a6ff" stroke="#0d1117" stroke-width="2.5"/>
<circle cx="366.5" cy="165.6" r="6" fill="#58a6ff" opacity="0.2"/>
<circle cx="366.5" cy="165.6" r="4" fill="#58a6ff" stroke="#0d1117" stroke-width="2.5"/>
<circle cx="396.2" cy="165.1" r="6" fill="#58a6ff" opacity="0.2"/>
<circle cx="396.2" cy="165.1" r="4" fill="#58a6ff" stroke="#0d1117" stroke-width="2.5"/>
<circle cx="425.8" cy="165.1" r="6" fill="#58a6ff" opacity="0.2"/>
<circle cx="425.8" cy="165.1" r="4" fill="#58a6ff" stroke="#0d1117" stroke-width="2.5"/>
<circle cx="455.5" cy="208.3" r="6" fill="#58a6ff" opacity="0.2"/>
<circle cx="455.5" cy="208.3" r="4" fill="#58a6ff" stroke="#0d1117" stroke-width="2.5"/>
<circle cx="485.2" cy="381.5" r="6" fill="#58a6ff" opacity="0.2"/>
<circle cx="485.2" cy="381.5" r="4" fill="#58a6ff" stroke="#0d1117" stroke-width="2.5"/>
<circle cx="514.8" cy="165.8" r="6" fill="#58a6ff" opacity="0.2"/>
<circle cx="514.8" cy="165.8" r="4" fill="#58a6ff" stroke="#0d1117" stroke-width="2.5"/>
<circle cx="544.5" cy="165.8" r="6" fill="#58a6ff" opacity="0.2"/>
<circle cx="544.5" cy="165.8" r="4" fill="#58a6ff" stroke="#0d1117" stroke-width="2.5"/>
<circle cx="574.2" cy="165.8" r="6" fill="#58a6ff" opacity="0.2"/>
<circle cx="574.2" cy="165.8" r="4" fill="#58a6ff" stroke="#0d1117" stroke-width="2.5"/>
<circle cx="603.8" cy="220.8" r="6" fill="#58a6ff" opacity="0.2"/>
<circle cx="603.8" cy="220.8" r="4" fill="#58a6ff" stroke="#0d1117" stroke-width="2.5"/>
<circle cx="633.5" cy="393.2" r="6" fill="#58a6ff" opacity="0.2"/>
<circle cx="633.5" cy="393.2" r="4" fill="#58a6ff" stroke="#0d1117" stroke-width="2.5"/>
<circle cx="663.2" cy="163.4" r="6" fill="#58a6ff" opacity="0.2"/>
<circle cx="663.2" cy="163.4" r="4" fill="#58a6ff" stroke="#0d1117" stroke-width="2.5"/>
<circle cx="692.8" cy="163.0" r="6" fill="#58a6ff" opacity="0.2"/>
<circle cx="692.8" cy="163.0" r="4" fill="#58a6ff" stroke="#0d1117" stroke-width="2.5"/>
<circle cx="722.5" cy="163.0" r="6" fill="#58a6ff" opacity="0.2"/>
<circle cx="722.5" cy="163.0" r="4" fill="#58a6ff" stroke="#0d1117" stroke-width="2.5"/>
<circle cx="752.2" cy="208.7" r="6" fill="#58a6ff" opacity="0.2"/>
<circle cx="752.2" cy="208.7" r="4" fill="#58a6ff" stroke="#0d1117" stroke-width="2.5"/>
<circle cx="781.8" cy="383.9" r="6" fill="#58a6ff" opacity="0.2"/>
<circle cx="781.8" cy="383.9" r="4" fill="#58a6ff" stroke="#0d1117" stroke-width="2.5"/>
<circle cx="811.5" cy="152.0" r="6" fill="#58a6ff" opacity="0.2"/>
<circle cx="811.5" cy="152.0" r="4" fill="#58a6ff" stroke="#0d1117" stroke-width="2.5"/>
<circle cx="841.2" cy="152.8" r="6" fill="#58a6ff" opacity="0.2"/>
<circle cx="841.2" cy="152.8" r="4" fill="#58a6ff" stroke="#0d1117" stroke-width="2.5"/>
<circle cx="870.8" cy="153.1" r="6" fill="#58a6ff" opacity="0.2"/>
<circle cx="870.8" cy="153.1" r="4" fill="#58a6ff" stroke="#0d1117" stroke-width="2.5"/>
<circle cx="900.5" cy="189.6" r="6" fill="#58a6ff" opacity="0.2"/>
<circle cx="900.5" cy="189.6" r="4" fill="#58a6ff" stroke="#0d1117" stroke-width="2.5"/>
<circle cx="930.2" cy="375.1" r="6" fill="#58a6ff" opacity="0.2"/>
<circle cx="930.2" cy="375.1" r="4" fill="#58a6ff" stroke="#0d1117" stroke-width="2.5"/>
<path d="M69.8,120.5 L99.5,120.2 L129.2,120.4 L158.8,164.0 L188.5,382.1 L218.2,127.8 L247.8,127.7 L277.5,127.7 L307.2,192.6 L336.8,403.1 L366.5,136.1 L396.2,136.2 L425.8,136.2 L455.5,188.9 L485.2,390.9 L514.8,137.0 L544.5,136.7 L574.2,136.8 L603.8,183.4 L633.5,384.9 L663.2,163.6 L692.8,163.8 L722.5,163.7 L752.2,215.0 L781.8,389.5 L811.5,127.6 L841.2,127.3 L870.8,127.5 L900.5,171.4 L930.2,382.4" fill="none" stroke="#FF9800" stroke-width="8" stroke-linejoin="round" stroke-linecap="round" opacity="0.12"/>
<path d="M69.8,120.5 L99.5,120.2 L129.2,120.4 L158.8,164.0 L188.5,382.1 L218.2,127.8 L247.8,127.7 L277.5,127.7 L307.2,192.6 L336.8,403.1 L366.5,136.1 L396.2,136.2 L425.8,136.2 L455.5,188.9 L485.2,390.9 L514.8,137.0 L544.5,136.7 L574.2,136.8 L603.8,183.4 L633.5,384.9 L663.2,163.6 L692.8,163.8 L722.5,163.7 L752.2,215.0 L781.8,389.5 L811.5,127.6 L841.2,127.3 L870.8,127.5 L900.5,171.4 L930.2,382.4" fill="none" stroke="#FF9800" stroke-width="3.5" stroke-linejoin="round" stroke-linecap="round"/>
<circle cx="69.8" cy="120.5" r="6" fill="#FF9800" opacity="0.2"/>
<circle cx="69.8" cy="120.5" r="4" fill="#FF9800" stroke="#0d1117" stroke-width="2.5"/>
<circle cx="99.5" cy="120.2" r="6" fill="#FF9800" opacity="0.2"/>
<circle cx="99.5" cy="120.2" r="4" fill="#FF9800" stroke="#0d1117" stroke-width="2.5"/>
<circle cx="129.2" cy="120.4" r="6" fill="#FF9800" opacity="0.2"/>
<circle cx="129.2" cy="120.4" r="4" fill="#FF9800" stroke="#0d1117" stroke-width="2.5"/>
<circle cx="158.8" cy="164.0" r="6" fill="#FF9800" opacity="0.2"/>
<circle cx="158.8" cy="164.0" r="4" fill="#FF9800" stroke="#0d1117" stroke-width="2.5"/>
<circle cx="188.5" cy="382.1" r="6" fill="#FF9800" opacity="0.2"/>
<circle cx="188.5" cy="382.1" r="4" fill="#FF9800" stroke="#0d1117" stroke-width="2.5"/>
<circle cx="218.2" cy="127.8" r="6" fill="#FF9800" opacity="0.2"/>
<circle cx="218.2" cy="127.8" r="4" fill="#FF9800" stroke="#0d1117" stroke-width="2.5"/>
<circle cx="247.8" cy="127.7" r="6" fill="#FF9800" opacity="0.2"/>
<circle cx="247.8" cy="127.7" r="4" fill="#FF9800" stroke="#0d1117" stroke-width="2.5"/>
<circle cx="277.5" cy="127.7" r="6" fill="#FF9800" opacity="0.2"/>
<circle cx="277.5" cy="127.7" r="4" fill="#FF9800" stroke="#0d1117" stroke-width="2.5"/>
<circle cx="307.2" cy="192.6" r="6" fill="#FF9800" opacity="0.2"/>
<circle cx="307.2" cy="192.6" r="4" fill="#FF9800" stroke="#0d1117" stroke-width="2.5"/>
<circle cx="336.8" cy="403.1" r="6" fill="#FF9800" opacity="0.2"/>
<circle cx="336.8" cy="403.1" r="4" fill="#FF9800" stroke="#0d1117" stroke-width="2.5"/>
<circle cx="366.5" cy="136.1" r="6" fill="#FF9800" opacity="0.2"/>
<circle cx="366.5" cy="136.1" r="4" fill="#FF9800" stroke="#0d1117" stroke-width="2.5"/>
<circle cx="396.2" cy="136.2" r="6" fill="#FF9800" opacity="0.2"/>
<circle cx="396.2" cy="136.2" r="4" fill="#FF9800" stroke="#0d1117" stroke-width="2.5"/>
<circle cx="425.8" cy="136.2" r="6" fill="#FF9800" opacity="0.2"/>
<circle cx="425.8" cy="136.2" r="4" fill="#FF9800" stroke="#0d1117" stroke-width="2.5"/>
<circle cx="455.5" cy="188.9" r="6" fill="#FF9800" opacity="0.2"/>
<circle cx="455.5" cy="188.9" r="4" fill="#FF9800" stroke="#0d1117" stroke-width="2.5"/>
<circle cx="485.2" cy="390.9" r="6" fill="#FF9800" opacity="0.2"/>
<circle cx="485.2" cy="390.9" r="4" fill="#FF9800" stroke="#0d1117" stroke-width="2.5"/>
<circle cx="514.8" cy="137.0" r="6" fill="#FF9800" opacity="0.2"/>
<circle cx="514.8" cy="137.0" r="4" fill="#FF9800" stroke="#0d1117" stroke-width="2.5"/>
<circle cx="544.5" cy="136.7" r="6" fill="#FF9800" opacity="0.2"/>
<circle cx="544.5" cy="136.7" r="4" fill="#FF9800" stroke="#0d1117" stroke-width="2.5"/>
<circle cx="574.2" cy="136.8" r="6" fill="#FF9800" opacity="0.2"/>
<circle cx="574.2" cy="136.8" r="4" fill="#FF9800" stroke="#0d1117" stroke-width="2.5"/>
<circle cx="603.8" cy="183.4" r="6" fill="#FF9800" opacity="0.2"/>
<circle cx="603.8" cy="183.4" r="4" fill="#FF9800" stroke="#0d1117" stroke-width="2.5"/>
<circle cx="633.5" cy="384.9" r="6" fill="#FF9800" opacity="0.2"/>
<circle cx="633.5" cy="384.9" r="4" fill="#FF9800" stroke="#0d1117" stroke-width="2.5"/>
<circle cx="663.2" cy="163.6" r="6" fill="#FF9800" opacity="0.2"/>
<circle cx="663.2" cy="163.6" r="4" fill="#FF9800" stroke="#0d1117" stroke-width="2.5"/>
<circle cx="692.8" cy="163.8" r="6" fill="#FF9800" opacity="0.2"/>
<circle cx="692.8" cy="163.8" r="4" fill="#FF9800" stroke="#0d1117" stroke-width="2.5"/>
<circle cx="722.5" cy="163.7" r="6" fill="#FF9800" opacity="0.2"/>
<circle cx="722.5" cy="163.7" r="4" fill="#FF9800" stroke="#0d1117" stroke-width="2.5"/>
<circle cx="752.2" cy="215.0" r="6" fill="#FF9800" opacity="0.2"/>
<circle cx="752.2" cy="215.0" r="4" fill="#FF9800" stroke="#0d1117" stroke-width="2.5"/>
<circle cx="781.8" cy="389.5" r="6" fill="#FF9800" opacity="0.2"/>
<circle cx="781.8" cy="389.5" r="4" fill="#FF9800" stroke="#0d1117" stroke-width="2.5"/>
<circle cx="811.5" cy="127.6" r="6" fill="#FF9800" opacity="0.2"/>
<circle cx="811.5" cy="127.6" r="4" fill="#FF9800" stroke="#0d1117" stroke-width="2.5"/>
<circle cx="841.2" cy="127.3" r="6" fill="#FF9800" opacity="0.2"/>
<circle cx="841.2" cy="127.3" r="4" fill="#FF9800" stroke="#0d1117" stroke-width="2.5"/>
<circle cx="870.8" cy="127.5" r="6" fill="#FF9800" opacity="0.2"/>
<circle cx="870.8" cy="127.5" r="4" fill="#FF9800" stroke="#0d1117" stroke-width="2.5"/>
<circle cx="900.5" cy="171.4" r="6" fill="#FF9800" opacity="0.2"/>
<circle cx="900.5" cy="171.4" r="4" fill="#FF9800" stroke="#0d1117" stroke-width="2.5"/>
<circle cx="930.2" cy="382.4" r="6" fill="#FF9800" opacity="0.2"/>
<circle cx="930.2" cy="382.4" r="4" fill="#FF9800" stroke="#0d1117" stroke-width="2.5"/>
<path d="M69.8,121.7 L99.5,121.7 L129.2,121.7 L158.8,188.2 L188.5,404.8 L218.2,129.4 L247.8,129.5 L277.5,129.4 L307.2,189.8 L336.8,398.6 L366.5,137.9 L396.2,137.7 L425.8,137.6 L455.5,192.1 L485.2,392.7 L514.8,138.1 L544.5,138.2 L574.2,138.1 L603.8,204.7 L633.5,404.8 L663.2,162.7 L692.8,163.1 L722.5,163.3 L752.2,207.7 L781.8,382.9 L811.5,129.9 L841.2,129.7 L870.8,129.9 L900.5,177.2 L930.2,385.7" fill="none" stroke="#4CAF50" stroke-width="8" stroke-linejoin="round" stroke-linecap="round" opacity="0.12"/>
<path d="M69.8,121.7 L99.5,121.7 L129.2,121.7 L158.8,188.2 L188.5,404.8 L218.2,129.4 L247.8,129.5 L277.5,129.4 L307.2,189.8 L336.8,398.6 L366.5,137.9 L396.2,137.7 L425.8,137.6 L455.5,192.1 L485.2,392.7 L514.8,138.1 L544.5,138.2 L574.2,138.1 L603.8,204.7 L633.5,404.8 L663.2,162.7 L692.8,163.1 L722.5,163.3 L752.2,207.7 L781.8,382.9 L811.5,129.9 L841.2,129.7 L870.8,129.9 L900.5,177.2 L930.2,385.7" fill="none" stroke="#4CAF50" stroke-width="3.5" stroke-linejoin="round" stroke-linecap="round"/>
<circle cx="69.8" cy="121.7" r="6" fill="#4CAF50" opacity="0.2"/>
<circle cx="69.8" cy="121.7" r="4" fill="#4CAF50" stroke="#0d1117" stroke-width="2.5"/>
<circle cx="99.5" cy="121.7" r="6" fill="#4CAF50" opacity="0.2"/>
<circle cx="99.5" cy="121.7" r="4" fill="#4CAF50" stroke="#0d1117" stroke-width="2.5"/>
<circle cx="129.2" cy="121.7" r="6" fill="#4CAF50" opacity="0.2"/>
<circle cx="129.2" cy="121.7" r="4" fill="#4CAF50" stroke="#0d1117" stroke-width="2.5"/>
<circle cx="158.8" cy="188.2" r="6" fill="#4CAF50" opacity="0.2"/>
<circle cx="158.8" cy="188.2" r="4" fill="#4CAF50" stroke="#0d1117" stroke-width="2.5"/>
<circle cx="188.5" cy="404.8" r="6" fill="#4CAF50" opacity="0.2"/>
<circle cx="188.5" cy="404.8" r="4" fill="#4CAF50" stroke="#0d1117" stroke-width="2.5"/>
<circle cx="218.2" cy="129.4" r="6" fill="#4CAF50" opacity="0.2"/>
<circle cx="218.2" cy="129.4" r="4" fill="#4CAF50" stroke="#0d1117" stroke-width="2.5"/>
<circle cx="247.8" cy="129.5" r="6" fill="#4CAF50" opacity="0.2"/>
<circle cx="247.8" cy="129.5" r="4" fill="#4CAF50" stroke="#0d1117" stroke-width="2.5"/>
<circle cx="277.5" cy="129.4" r="6" fill="#4CAF50" opacity="0.2"/>
<circle cx="277.5" cy="129.4" r="4" fill="#4CAF50" stroke="#0d1117" stroke-width="2.5"/>
<circle cx="307.2" cy="189.8" r="6" fill="#4CAF50" opacity="0.2"/>
<circle cx="307.2" cy="189.8" r="4" fill="#4CAF50" stroke="#0d1117" stroke-width="2.5"/>
<circle cx="336.8" cy="398.6" r="6" fill="#4CAF50" opacity="0.2"/>
<circle cx="336.8" cy="398.6" r="4" fill="#4CAF50" stroke="#0d1117" stroke-width="2.5"/>
<circle cx="366.5" cy="137.9" r="6" fill="#4CAF50" opacity="0.2"/>
<circle cx="366.5" cy="137.9" r="4" fill="#4CAF50" stroke="#0d1117" stroke-width="2.5"/>
<circle cx="396.2" cy="137.7" r="6" fill="#4CAF50" opacity="0.2"/>
<circle cx="396.2" cy="137.7" r="4" fill="#4CAF50" stroke="#0d1117" stroke-width="2.5"/>
<circle cx="425.8" cy="137.6" r="6" fill="#4CAF50" opacity="0.2"/>
<circle cx="425.8" cy="137.6" r="4" fill="#4CAF50" stroke="#0d1117" stroke-width="2.5"/>
<circle cx="455.5" cy="192.1" r="6" fill="#4CAF50" opacity="0.2"/>
<circle cx="455.5" cy="192.1" r="4" fill="#4CAF50" stroke="#0d1117" stroke-width="2.5"/>
<circle cx="485.2" cy="392.7" r="6" fill="#4CAF50" opacity="0.2"/>
<circle cx="485.2" cy="392.7" r="4" fill="#4CAF50" stroke="#0d1117" stroke-width="2.5"/>
<circle cx="514.8" cy="138.1" r="6" fill="#4CAF50" opacity="0.2"/>
<circle cx="514.8" cy="138.1" r="4" fill="#4CAF50" stroke="#0d1117" stroke-width="2.5"/>
<circle cx="544.5" cy="138.2" r="6" fill="#4CAF50" opacity="0.2"/>
<circle cx="544.5" cy="138.2" r="4" fill="#4CAF50" stroke="#0d1117" stroke-width="2.5"/>
<circle cx="574.2" cy="138.1" r="6" fill="#4CAF50" opacity="0.2"/>
<circle cx="574.2" cy="138.1" r="4" fill="#4CAF50" stroke="#0d1117" stroke-width="2.5"/>
<circle cx="603.8" cy="204.7" r="6" fill="#4CAF50" opacity="0.2"/>
<circle cx="603.8" cy="204.7" r="4" fill="#4CAF50" stroke="#0d1117" stroke-width="2.5"/>
<circle cx="633.5" cy="404.8" r="6" fill="#4CAF50" opacity="0.2"/>
<circle cx="633.5" cy="404.8" r="4" fill="#4CAF50" stroke="#0d1117" stroke-width="2.5"/>
<circle cx="663.2" cy="162.7" r="6" fill="#4CAF50" opacity="0.2"/>
<circle cx="663.2" cy="162.7" r="4" fill="#4CAF50" stroke="#0d1117" stroke-width="2.5"/>
<circle cx="692.8" cy="163.1" r="6" fill="#4CAF50" opacity="0.2"/>
<circle cx="692.8" cy="163.1" r="4" fill="#4CAF50" stroke="#0d1117" stroke-width="2.5"/>
<circle cx="722.5" cy="163.3" r="6" fill="#4CAF50" opacity="0.2"/>
<circle cx="722.5" cy="163.3" r="4" fill="#4CAF50" stroke="#0d1117" stroke-width="2.5"/>
<circle cx="752.2" cy="207.7" r="6" fill="#4CAF50" opacity="0.2"/>
<circle cx="752.2" cy="207.7" r="4" fill="#4CAF50" stroke="#0d1117" stroke-width="2.5"/>
<circle cx="781.8" cy="382.9" r="6" fill="#4CAF50" opacity="0.2"/>
<circle cx="781.8" cy="382.9" r="4" fill="#4CAF50" stroke="#0d1117" stroke-width="2.5"/>
<circle cx="811.5" cy="129.9" r="6" fill="#4CAF50" opacity="0.2"/>
<circle cx="811.5" cy="129.9" r="4" fill="#4CAF50" stroke="#0d1117" stroke-width="2.5"/>
<circle cx="841.2" cy="129.7" r="6" fill="#4CAF50" opacity="0.2"/>
<circle cx="841.2" cy="129.7" r="4" fill="#4CAF50" stroke="#0d1117" stroke-width="2.5"/>
<circle cx="870.8" cy="129.9" r="6" fill="#4CAF50" opacity="0.2"/>
<circle cx="870.8" cy="129.9" r="4" fill="#4CAF50" stroke="#0d1117" stroke-width="2.5"/>
<circle cx="900.5" cy="177.2" r="6" fill="#4CAF50" opacity="0.2"/>
<circle cx="900.5" cy="177.2" r="4" fill="#4CAF50" stroke="#0d1117" stroke-width="2.5"/>
<circle cx="930.2" cy="385.7" r="6" fill="#4CAF50" opacity="0.2"/>
<circle cx="930.2" cy="385.7" r="4" fill="#4CAF50" stroke="#0d1117" stroke-width="2.5"/>
<path d="M69.8,128.2 L99.5,128.3 L129.2,128.3 L158.8,184.7 L188.5,394.7 L218.2,129.0 L247.8,129.1 L277.5,129.0 L307.2,181.5 L336.8,390.6 L366.5,137.7 L396.2,137.7 L425.8,137.7 L455.5,206.6 L485.2,407.1 L514.8,138.3 L544.5,138.3 L574.2,138.3 L603.8,206.8 L633.5,406.7 L663.2,162.9 L692.8,162.8 L722.5,162.8 L752.2,221.9 L781.8,397.4 L811.5,129.8 L841.2,129.8 L870.8,129.8 L900.5,194.6 L930.2,403.1" fill="none" stroke="#BB86FC" stroke-width="8" stroke-linejoin="round" stroke-linecap="round" opacity="0.12"/>
<path d="M69.8,128.2 L99.5,128.3 L129.2,128.3 L158.8,184.7 L188.5,394.7 L218.2,129.0 L247.8,129.1 L277.5,129.0 L307.2,181.5 L336.8,390.6 L366.5,137.7 L396.2,137.7 L425.8,137.7 L455.5,206.6 L485.2,407.1 L514.8,138.3 L544.5,138.3 L574.2,138.3 L603.8,206.8 L633.5,406.7 L663.2,162.9 L692.8,162.8 L722.5,162.8 L752.2,221.9 L781.8,397.4 L811.5,129.8 L841.2,129.8 L870.8,129.8 L900.5,194.6 L930.2,403.1" fill="none" stroke="#BB86FC" stroke-width="3.5" stroke-linejoin="round" stroke-linecap="round"/>
<circle cx="69.8" cy="128.2" r="6" fill="#BB86FC" opacity="0.2"/>
<circle cx="69.8" cy="128.2" r="4" fill="#BB86FC" stroke="#0d1117" stroke-width="2.5"/>
<circle cx="99.5" cy="128.3" r="6" fill="#BB86FC" opacity="0.2"/>
<circle cx="99.5" cy="128.3" r="4" fill="#BB86FC" stroke="#0d1117" stroke-width="2.5"/>
<circle cx="129.2" cy="128.3" r="6" fill="#BB86FC" opacity="0.2"/>
<circle cx="129.2" cy="128.3" r="4" fill="#BB86FC" stroke="#0d1117" stroke-width="2.5"/>
<circle cx="158.8" cy="184.7" r="6" fill="#BB86FC" opacity="0.2"/>
<circle cx="158.8" cy="184.7" r="4" fill="#BB86FC" stroke="#0d1117" stroke-width="2.5"/>
<circle cx="188.5" cy="394.7" r="6" fill="#BB86FC" opacity="0.2"/>
<circle cx="188.5" cy="394.7" r="4" fill="#BB86FC" stroke="#0d1117" stroke-width="2.5"/>
<circle cx="218.2" cy="129.0" r="6" fill="#BB86FC" opacity="0.2"/>
<circle cx="218.2" cy="129.0" r="4" fill="#BB86FC" stroke="#0d1117" stroke-width="2.5"/>
<circle cx="247.8" cy="129.1" r="6" fill="#BB86FC" opacity="0.2"/>
<circle cx="247.8" cy="129.1" r="4" fill="#BB86FC" stroke="#0d1117" stroke-width="2.5"/>
<circle cx="277.5" cy="129.0" r="6" fill="#BB86FC" opacity="0.2"/>
<circle cx="277.5" cy="129.0" r="4" fill="#BB86FC" stroke="#0d1117" stroke-width="2.5"/>
<circle cx="307.2" cy="181.5" r="6" fill="#BB86FC" opacity="0.2"/>
<circle cx="307.2" cy="181.5" r="4" fill="#BB86FC" stroke="#0d1117" stroke-width="2.5"/>
<circle cx="336.8" cy="390.6" r="6" fill="#BB86FC" opacity="0.2"/>
<circle cx="336.8" cy="390.6" r="4" fill="#BB86FC" stroke="#0d1117" stroke-width="2.5"/>
<circle cx="366.5" cy="137.7" r="6" fill="#BB86FC" opacity="0.2"/>
<circle cx="366.5" cy="137.7" r="4" fill="#BB86FC" stroke="#0d1117" stroke-width="2.5"/>
<circle cx="396.2" cy="137.7" r="6" fill="#BB86FC" opacity="0.2"/>
<circle cx="396.2" cy="137.7" r="4" fill="#BB86FC" stroke="#0d1117" stroke-width="2.5"/>
<circle cx="425.8" cy="137.7" r="6" fill="#BB86FC" opacity="0.2"/>
<circle cx="425.8" cy="137.7" r="4" fill="#BB86FC" stroke="#0d1117" stroke-width="2.5"/>
<circle cx="455.5" cy="206.6" r="6" fill="#BB86FC" opacity="0.2"/>
<circle cx="455.5" cy="206.6" r="4" fill="#BB86FC" stroke="#0d1117" stroke-width="2.5"/>
<circle cx="485.2" cy="407.1" r="6" fill="#BB86FC" opacity="0.2"/>
<circle cx="485.2" cy="407.1" r="4" fill="#BB86FC" stroke="#0d1117" stroke-width="2.5"/>
<circle cx="514.8" cy="138.3" r="6" fill="#BB86FC" opacity="0.2"/>
<circle cx="514.8" cy="138.3" r="4" fill="#BB86FC" stroke="#0d1117" stroke-width="2.5"/>
<circle cx="544.5" cy="138.3" r="6" fill="#BB86FC" opacity="0.2"/>
<circle cx="544.5" cy="138.3" r="4" fill="#BB86FC" stroke="#0d1117" stroke-width="2.5"/>
<circle cx="574.2" cy="138.3" r="6" fill="#BB86FC" opacity="0.2"/>
<circle cx="574.2" cy="138.3" r="4" fill="#BB86FC" stroke="#0d1117" stroke-width="2.5"/>
<circle cx="603.8" cy="206.8" r="6" fill="#BB86FC" opacity="0.2"/>
<circle cx="603.8" cy="206.8" r="4" fill="#BB86FC" stroke="#0d1117" stroke-width="2.5"/>
<circle cx="633.5" cy="406.7" r="6" fill="#BB86FC" opacity="0.2"/>
<circle cx="633.5" cy="406.7" r="4" fill="#BB86FC" stroke="#0d1117" stroke-width="2.5"/>
<circle cx="663.2" cy="162.9" r="6" fill="#BB86FC" opacity="0.2"/>
<circle cx="663.2" cy="162.9" r="4" fill="#BB86FC" stroke="#0d1117" stroke-width="2.5"/>
<circle cx="692.8" cy="162.8" r="6" fill="#BB86FC" opacity="0.2"/>
<circle cx="692.8" cy="162.8" r="4" fill="#BB86FC" stroke="#0d1117" stroke-width="2.5"/>
<circle cx="722.5" cy="162.8" r="6" fill="#BB86FC" opacity="0.2"/>
<circle cx="722.5" cy="162.8" r="4" fill="#BB86FC" stroke="#0d1117" stroke-width="2.5"/>
<circle cx="752.2" cy="221.9" r="6" fill="#BB86FC" opacity="0.2"/>
<circle cx="752.2" cy="221.9" r="4" fill="#BB86FC" stroke="#0d1117" stroke-width="2.5"/>
<circle cx="781.8" cy="397.4" r="6" fill="#BB86FC" opacity="0.2"/>
<circle cx="781.8" cy="397.4" r="4" fill="#BB86FC" stroke="#0d1117" stroke-width="2.5"/>
<circle cx="811.5" cy="129.8" r="6" fill="#BB86FC" opacity="0.2"/>
<circle cx="811.5" cy="129.8" r="4" fill="#BB86FC" stroke="#0d1117" stroke-width="2.5"/>
<circle cx="841.2" cy="129.8" r="6" fill="#BB86FC" opacity="0.2"/>
<circle cx="841.2" cy="129.8" r="4" fill="#BB86FC" stroke="#0d1117" stroke-width="2.5"/>
<circle cx="870.8" cy="129.8" r="6" fill="#BB86FC" opacity="0.2"/>
<circle cx="870.8" cy="129.8" r="4" fill="#BB86FC" stroke="#0d1117" stroke-width="2.5"/>
<circle cx="900.5" cy="194.6" r="6" fill="#BB86FC" opacity="0.2"/>
<circle cx="900.5" cy="194.6" r="4" fill="#BB86FC" stroke="#0d1117" stroke-width="2.5"/>
<circle cx="930.2" cy="403.1" r="6" fill="#BB86FC" opacity="0.2"/>
<circle cx="930.2" cy="403.1" r="4" fill="#BB86FC" stroke="#0d1117" stroke-width="2.5"/>
<path d="M69.8,130.0 L99.5,129.6 L129.2,130.0 L158.8,167.8 L188.5,376.5 L218.2,129.4 L247.8,129.4 L277.5,129.4 L307.2,203.2 L336.8,412.1 L366.5,139.3 L396.2,139.1 L425.8,139.1 L455.5,199.9 L485.2,399.0 L514.8,139.4 L544.5,139.3 L574.2,139.4 L603.8,204.4 L633.5,403.3 L663.2,163.9 L692.8,163.7 L722.5,163.8 L752.2,218.0 L781.8,392.5 L811.5,130.7 L841.2,130.7 L870.8,130.7 L900.5,217.8 L930.2,425.4" fill="none" stroke="#F472B6" stroke-width="8" stroke-linejoin="round" stroke-linecap="round" opacity="0.12"/>
<path d="M69.8,130.0 L99.5,129.6 L129.2,130.0 L158.8,167.8 L188.5,376.5 L218.2,129.4 L247.8,129.4 L277.5,129.4 L307.2,203.2 L336.8,412.1 L366.5,139.3 L396.2,139.1 L425.8,139.1 L455.5,199.9 L485.2,399.0 L514.8,139.4 L544.5,139.3 L574.2,139.4 L603.8,204.4 L633.5,403.3 L663.2,163.9 L692.8,163.7 L722.5,163.8 L752.2,218.0 L781.8,392.5 L811.5,130.7 L841.2,130.7 L870.8,130.7 L900.5,217.8 L930.2,425.4" fill="none" stroke="#F472B6" stroke-width="3.5" stroke-linejoin="round" stroke-linecap="round"/>
<circle cx="69.8" cy="130.0" r="6" fill="#F472B6" opacity="0.2"/>
<circle cx="69.8" cy="130.0" r="4" fill="#F472B6" stroke="#0d1117" stroke-width="2.5"/>
<circle cx="99.5" cy="129.6" r="6" fill="#F472B6" opacity="0.2"/>
<circle cx="99.5" cy="129.6" r="4" fill="#F472B6" stroke="#0d1117" stroke-width="2.5"/>
<circle cx="129.2" cy="130.0" r="6" fill="#F472B6" opacity="0.2"/>
<circle cx="129.2" cy="130.0" r="4" fill="#F472B6" stroke="#0d1117" stroke-width="2.5"/>
<circle cx="158.8" cy="167.8" r="6" fill="#F472B6" opacity="0.2"/>
<circle cx="158.8" cy="167.8" r="4" fill="#F472B6" stroke="#0d1117" stroke-width="2.5"/>
<circle cx="188.5" cy="376.5" r="6" fill="#F472B6" opacity="0.2"/>
<circle cx="188.5" cy="376.5" r="4" fill="#F472B6" stroke="#0d1117" stroke-width="2.5"/>
<circle cx="218.2" cy="129.4" r="6" fill="#F472B6" opacity="0.2"/>
<circle cx="218.2" cy="129.4" r="4" fill="#F472B6" stroke="#0d1117" stroke-width="2.5"/>
<circle cx="247.8" cy="129.4" r="6" fill="#F472B6" opacity="0.2"/>
<circle cx="247.8" cy="129.4" r="4" fill="#F472B6" stroke="#0d1117" stroke-width="2.5"/>
<circle cx="277.5" cy="129.4" r="6" fill="#F472B6" opacity="0.2"/>
<circle cx="277.5" cy="129.4" r="4" fill="#F472B6" stroke="#0d1117" stroke-width="2.5"/>
<circle cx="307.2" cy="203.2" r="6" fill="#F472B6" opacity="0.2"/>
<circle cx="307.2" cy="203.2" r="4" fill="#F472B6" stroke="#0d1117" stroke-width="2.5"/>
<circle cx="336.8" cy="412.1" r="6" fill="#F472B6" opacity="0.2"/>
<circle cx="336.8" cy="412.1" r="4" fill="#F472B6" stroke="#0d1117" stroke-width="2.5"/>
<circle cx="366.5" cy="139.3" r="6" fill="#F472B6" opacity="0.2"/>
<circle cx="366.5" cy="139.3" r="4" fill="#F472B6" stroke="#0d1117" stroke-width="2.5"/>
<circle cx="396.2" cy="139.1" r="6" fill="#F472B6" opacity="0.2"/>
<circle cx="396.2" cy="139.1" r="4" fill="#F472B6" stroke="#0d1117" stroke-width="2.5"/>
<circle cx="425.8" cy="139.1" r="6" fill="#F472B6" opacity="0.2"/>
<circle cx="425.8" cy="139.1" r="4" fill="#F472B6" stroke="#0d1117" stroke-width="2.5"/>
<circle cx="455.5" cy="199.9" r="6" fill="#F472B6" opacity="0.2"/>
<circle cx="455.5" cy="199.9" r="4" fill="#F472B6" stroke="#0d1117" stroke-width="2.5"/>
<circle cx="485.2" cy="399.0" r="6" fill="#F472B6" opacity="0.2"/>
<circle cx="485.2" cy="399.0" r="4" fill="#F472B6" stroke="#0d1117" stroke-width="2.5"/>
<circle cx="514.8" cy="139.4" r="6" fill="#F472B6" opacity="0.2"/>
<circle cx="514.8" cy="139.4" r="4" fill="#F472B6" stroke="#0d1117" stroke-width="2.5"/>
<circle cx="544.5" cy="139.3" r="6" fill="#F472B6" opacity="0.2"/>
<circle cx="544.5" cy="139.3" r="4" fill="#F472B6" stroke="#0d1117" stroke-width="2.5"/>
<circle cx="574.2" cy="139.4" r="6" fill="#F472B6" opacity="0.2"/>
<circle cx="574.2" cy="139.4" r="4" fill="#F472B6" stroke="#0d1117" stroke-width="2.5"/>
<circle cx="603.8" cy="204.4" r="6" fill="#F472B6" opacity="0.2"/>
<circle cx="603.8" cy="204.4" r="4" fill="#F472B6" stroke="#0d1117" stroke-width="2.5"/>
<circle cx="633.5" cy="403.3" r="6" fill="#F472B6" opacity="0.2"/>
<circle cx="633.5" cy="403.3" r="4" fill="#F472B6" stroke="#0d1117" stroke-width="2.5"/>
<circle cx="663.2" cy="163.9" r="6" fill="#F472B6" opacity="0.2"/>
<circle cx="663.2" cy="163.9" r="4" fill="#F472B6" stroke="#0d1117" stroke-width="2.5"/>
<circle cx="692.8" cy="163.7" r="6" fill="#F472B6" opacity="0.2"/>
<circle cx="692.8" cy="163.7" r="4" fill="#F472B6" stroke="#0d1117" stroke-width="2.5"/>
<circle cx="722.5" cy="163.8" r="6" fill="#F472B6" opacity="0.2"/>
<circle cx="722.5" cy="163.8" r="4" fill="#F472B6" stroke="#0d1117" stroke-width="2.5"/>
<circle cx="752.2" cy="218.0" r="6" fill="#F472B6" opacity="0.2"/>
<circle cx="752.2" cy="218.0" r="4" fill="#F472B6" stroke="#0d1117" stroke-width="2.5"/>
<circle cx="781.8" cy="392.5" r="6" fill="#F472B6" opacity="0.2"/>
<circle cx="781.8" cy="392.5" r="4" fill="#F472B6" stroke="#0d1117" stroke-width="2.5"/>
<circle cx="811.5" cy="130.7" r="6" fill="#F472B6" opacity="0.2"/>
<circle cx="811.5" cy="130.7" r="4" fill="#F472B6" stroke="#0d1117" stroke-width="2.5"/>
<circle cx="841.2" cy="130.7" r="6" fill="#F472B6" opacity="0.2"/>
<circle cx="841.2" cy="130.7" r="4" fill="#F472B6" stroke="#0d1117" stroke-width="2.5"/>
<circle cx="870.8" cy="130.7" r="6" fill="#F472B6" opacity="0.2"/>
<circle cx="870.8" cy="130.7" r="4" fill="#F472B6" stroke="#0d1117" stroke-width="2.5"/>
<circle cx="900.5" cy="217.8" r="6" fill="#F472B6" opacity="0.2"/>
<circle cx="900.5" cy="217.8" r="4" fill="#F472B6" stroke="#0d1117" stroke-width="2.5"/>
<circle cx="930.2" cy="425.4" r="6" fill="#F472B6" opacity="0.2"/>
<circle cx="930.2" cy="425.4" r="4" fill="#F472B6" stroke="#0d1117" stroke-width="2.5"/>
<text x="69.8" y="448" text-anchor="end" fill="#8b949e" font-size="11" transform="rotate(-30,69.8,448)">push_back</text>
<text x="99.5" y="448" text-anchor="end" fill="#8b949e" font-size="11" transform="rotate(-30,99.5,448)">push_back_mean</text>
<text x="129.2" y="448" text-anchor="end" fill="#8b949e" font-size="11" transform="rotate(-30,129.2,448)">push_back_median</text>
<text x="158.8" y="448" text-anchor="end" fill="#8b949e" font-size="11" transform="rotate(-30,158.8,448)">push_back_stddev</text>
<text x="188.5" y="448" text-anchor="end" fill="#8b949e" font-size="11" transform="rotate(-30,188.5,448)">push_back_cv</text>
<text x="218.2" y="448" text-anchor="end" fill="#8b949e" font-size="11" transform="rotate(-30,218.2,448)">push_front</text>
<text x="247.8" y="448" text-anchor="end" fill="#8b949e" font-size="11" transform="rotate(-30,247.8,448)">push_front_mean</text>
<text x="277.5" y="448" text-anchor="end" fill="#8b949e" font-size="11" transform="rotate(-30,277.5,448)">push_front_median</text>
<text x="307.2" y="448" text-anchor="end" fill="#8b949e" font-size="11" transform="rotate(-30,307.2,448)">push_front_stddev</text>
<text x="336.8" y="448" text-anchor="end" fill="#8b949e" font-size="11" transform="rotate(-30,336.8,448)">push_front_cv</text>
<text x="366.5" y="448" text-anchor="end" fill="#8b949e" font-size="11" transform="rotate(-30,366.5,448)">insert_middle</text>
<text x="396.2" y="448" text-anchor="end" fill="#8b949e" font-size="11" transform="rotate(-30,396.2,448)">insert_middle_mean</text>
<text x="425.8" y="448" text-anchor="end" fill="#8b949e" font-size="11" transform="rotate(-30,425.8,448)">insert_middle_median</text>
<text x="455.5" y="448" text-anchor="end" fill="#8b949e" font-size="11" transform="rotate(-30,455.5,448)">insert_middle_stddev</text>
<text x="485.2" y="448" text-anchor="end" fill="#8b949e" font-size="11" transform="rotate(-30,485.2,448)">insert_middle_cv</text>
<text x="514.8" y="448" text-anchor="end" fill="#8b949e" font-size="11" transform="rotate(-30,514.8,448)">erase_middle</text>
<text x="544.5" y="448" text-anchor="end" fill="#8b949e" font-size="11" transform="rotate(-30,544.5,448)">erase_middle_mean</text>
<text x="574.2" y="448" text-anchor="end" fill="#8b949e" font-size="11" transform="rotate(-30,574.2,448)">erase_middle_median</text>
<text x="603.8" y="448" text-anchor="end" fill="#8b949e" font-size="11" transform="rotate(-30,603.8,448)">erase_middle_stddev</text>
<text x="633.5" y="448" text-anchor="end" fill="#8b949e" font-size="11" transform="rotate(-30,633.5,448)">erase_middle_cv</text>
<text x="663.2" y="448" text-anchor="end" fill="#8b949e" font-size="11" transform="rotate(-30,663.2,448)">iterate</text>
<text x="692.8" y="448" text-anchor="end" fill="#8b949e" font-size="11" transform="rotate(-30,692.8,448)">iterate_mean</text>
<text x="722.5" y="448" text-anchor="end" fill="#8b949e" font-size="11" transform="rotate(-30,722.5,448)">iterate_median</text>
<text x="752.2" y="448" text-anchor="end" fill="#8b949e" font-size="11" transform="rotate(-30,752.2,448)">iterate_stddev</text>
<text x="781.8" y="448" text-anchor="end" fill="#8b949e" font-size="11" transform="rotate(-30,781.8,448)">iterate_cv</text>
<text x="811.5" y="448" text-anchor="end" fill="#8b949e" font-size="11" transform="rotate(-30,811.5,448)">clear</text>
<text x="841.2" y="448" text-anchor="end" fill="#8b949e" font-size="11" transform="rotate(-30,841.2,448)">clear_mean</text>
<text x="870.8" y="448" text-anchor="end" fill="#8b949e" font-size="11" transform="rotate(-30,870.8,448)">clear_median</text>
<text x="900.5" y="448" text-anchor="end" fill="#8b949e" font-size="11" transform="rotate(-30,900.5,448)">clear_stddev</text>
<text x="930.2" y="448" text-anchor="end" fill="#8b949e" font-size="11" transform="rotate(-30,930.2,448)">clear_cv</text>
<text x="14" y="272.5" text-anchor="middle" fill="#484f58" font-size="11" transform="rotate(-90,14,272.5)">Time (ms)</text>
<circle cx="65" cy="69" r="5" fill="#58a6ff"/>
<text x="75" y="73" fill="#c9d1d9" font-size="12">RG::LIST</text>
<circle cx="220" cy="69" r="5" fill="#FF9800"/>
<text x="230" y="73" fill="#c9d1d9" font-size="12">std::list</text>
<circle cx="375" cy="69" r="5" fill="#4CAF50"/>
<text x="385" y="73" fill="#c9d1d9" font-size="12">std::forward_list</text>
<circle cx="530" cy="69" r="5" fill="#BB86FC"/>
<text x="540" y="73" fill="#c9d1d9" font-size="12">boost::list</text>
<circle cx="685" cy="69" r="5" fill="#F472B6"/>
<text x="695" y="73" fill="#c9d1d9" font-size="12">eastl::list</text>
<text x="480.0" y="20" text-anchor="middle" fill="#58a6ff" font-size="15" font-weight="700">RG::LIST Benchmark — 2026-04-12</text>
</svg>