<svg xmlns="http://www.w3.org/2000/svg" viewBox="0 0 960 500" font-family="-apple-system,BlinkMacSystemFont,Segoe UI,sans-serif">
<rect width="960" height="500" rx="10" fill="#0d1117"/>
<rect x="55" y="115" width="890" height="315" fill="#161b22" rx="4"/>
<line x1="55" y1="422.2" x2="945" y2="422.2" stroke="#21262d"/>
<text x="47" y="426.24180485469566" text-anchor="end" fill="#484f58" font-size="10">500µs</text>
<line x1="55" y1="358.9" x2="945" y2="358.9" stroke="#21262d"/>
<text x="47" y="362.94580286472865" text-anchor="end" fill="#484f58" font-size="10">1ms</text>
<line x1="55" y1="295.6" x2="945" y2="295.6" stroke="#21262d"/>
<text x="47" y="299.64980087476175" text-anchor="end" fill="#484f58" font-size="10">2ms</text>
<line x1="55" y1="212.0" x2="945" y2="212.0" stroke="#21262d"/>
<text x="47" y="215.977037550178" text-anchor="end" fill="#484f58" font-size="10">5ms</text>
<line x1="55" y1="148.7" x2="945" y2="148.7" stroke="#21262d"/>
<text x="47" y="152.68103556021106" text-anchor="end" fill="#484f58" font-size="10">10ms</text>
<line x1="203.3" y1="115" x2="203.3" y2="430" stroke="#30363d" stroke-width="1" stroke-dasharray="4,4"/>
<line x1="351.7" y1="115" x2="351.7" y2="430" stroke="#30363d" stroke-width="1" stroke-dasharray="4,4"/>
<line x1="500.0" y1="115" x2="500.0" y2="430" stroke="#30363d" stroke-width="1" stroke-dasharray="4,4"/>
<line x1="648.3" y1="115" x2="648.3" y2="430" stroke="#30363d" stroke-width="1" stroke-dasharray="4,4"/>
<line x1="796.7" y1="115" x2="796.7" y2="430" stroke="#30363d" stroke-width="1" stroke-dasharray="4,4"/>
<path d="M129.2,279.5 L277.5,272.5 L425.8,364.6 L574.2,361.7 L722.5,397.4 L870.8,276.9" fill="none" stroke="#58a6ff" stroke-width="8" stroke-linejoin="round" stroke-linecap="round" opacity="0.12"/>
<path d="M129.2,279.5 L277.5,272.5 L425.8,364.6 L574.2,361.7 L722.5,397.4 L870.8,276.9" fill="none" stroke="#58a6ff" stroke-width="3.5" stroke-linejoin="round" stroke-linecap="round"/>
<circle cx="129.2" cy="279.5" r="6" fill="#58a6ff" opacity="0.2"/>
<circle cx="129.2" cy="279.5" r="4" fill="#58a6ff" stroke="#0d1117" stroke-width="2.5"/>
<circle cx="277.5" cy="272.5" r="6" fill="#58a6ff" opacity="0.2"/>
<circle cx="277.5" cy="272.5" r="4" fill="#58a6ff" stroke="#0d1117" stroke-width="2.5"/>
<circle cx="425.8" cy="364.6" r="6" fill="#58a6ff" opacity="0.2"/>
<circle cx="425.8" cy="364.6" r="4" fill="#58a6ff" stroke="#0d1117" stroke-width="2.5"/>
<circle cx="574.2" cy="361.7" r="6" fill="#58a6ff" opacity="0.2"/>
<circle cx="574.2" cy="361.7" r="4" fill="#58a6ff" stroke="#0d1117" stroke-width="2.5"/>
<circle cx="722.5" cy="397.4" r="6" fill="#58a6ff" opacity="0.2"/>
<circle cx="722.5" cy="397.4" r="4" fill="#58a6ff" stroke="#0d1117" stroke-width="2.5"/>
<circle cx="870.8" cy="276.9" r="6" fill="#58a6ff" opacity="0.2"/>
<circle cx="870.8" cy="276.9" r="4" fill="#58a6ff" stroke="#0d1117" stroke-width="2.5"/>
<path d="M129.2,155.0 L277.5,152.0 L425.8,214.0 L574.2,214.1 L722.5,362.5 L870.8,155.6" fill="none" stroke="#FF9800" stroke-width="8" stroke-linejoin="round" stroke-linecap="round" opacity="0.12"/>
<path d="M129.2,155.0 L277.5,152.0 L425.8,214.0 L574.2,214.1 L722.5,362.5 L870.8,155.6" fill="none" stroke="#FF9800" stroke-width="3.5" stroke-linejoin="round" stroke-linecap="round"/>
<circle cx="129.2" cy="155.0" r="6" fill="#FF9800" opacity="0.2"/>
<circle cx="129.2" cy="155.0" r="4" fill="#FF9800" stroke="#0d1117" stroke-width="2.5"/>
<circle cx="277.5" cy="152.0" r="6" fill="#FF9800" opacity="0.2"/>
<circle cx="277.5" cy="152.0" r="4" fill="#FF9800" stroke="#0d1117" stroke-width="2.5"/>
<circle cx="425.8" cy="214.0" r="6" fill="#FF9800" opacity="0.2"/>
<circle cx="425.8" cy="214.0" r="4" fill="#FF9800" stroke="#0d1117" stroke-width="2.5"/>
<circle cx="574.2" cy="214.1" r="6" fill="#FF9800" opacity="0.2"/>
<circle cx="574.2" cy="214.1" r="4" fill="#FF9800" stroke="#0d1117" stroke-width="2.5"/>
<circle cx="722.5" cy="362.5" r="6" fill="#FF9800" opacity="0.2"/>
<circle cx="722.5" cy="362.5" r="4" fill="#FF9800" stroke="#0d1117" stroke-width="2.5"/>
<circle cx="870.8" cy="155.6" r="6" fill="#FF9800" opacity="0.2"/>
<circle cx="870.8" cy="155.6" r="4" fill="#FF9800" stroke="#0d1117" stroke-width="2.5"/>
<path d="M129.2,169.0 L277.5,163.3 L425.8,227.6 L574.2,220.3 L722.5,352.4 L870.8,166.5" fill="none" stroke="#4CAF50" stroke-width="8" stroke-linejoin="round" stroke-linecap="round" opacity="0.12"/>
<path d="M129.2,169.0 L277.5,163.3 L425.8,227.6 L574.2,220.3 L722.5,352.4 L870.8,166.5" fill="none" stroke="#4CAF50" stroke-width="3.5" stroke-linejoin="round" stroke-linecap="round"/>
<circle cx="129.2" cy="169.0" r="6" fill="#4CAF50" opacity="0.2"/>
<circle cx="129.2" cy="169.0" r="4" fill="#4CAF50" stroke="#0d1117" stroke-width="2.5"/>
<circle cx="277.5" cy="163.3" r="6" fill="#4CAF50" opacity="0.2"/>
<circle cx="277.5" cy="163.3" r="4" fill="#4CAF50" stroke="#0d1117" stroke-width="2.5"/>
<circle cx="425.8" cy="227.6" r="6" fill="#4CAF50" opacity="0.2"/>
<circle cx="425.8" cy="227.6" r="4" fill="#4CAF50" stroke="#0d1117" stroke-width="2.5"/>
<circle cx="574.2" cy="220.3" r="6" fill="#4CAF50" opacity="0.2"/>
<circle cx="574.2" cy="220.3" r="4" fill="#4CAF50" stroke="#0d1117" stroke-width="2.5"/>
<circle cx="722.5" cy="352.4" r="6" fill="#4CAF50" opacity="0.2"/>
<circle cx="722.5" cy="352.4" r="4" fill="#4CAF50" stroke="#0d1117" stroke-width="2.5"/>
<circle cx="870.8" cy="166.5" r="6" fill="#4CAF50" opacity="0.2"/>
<circle cx="870.8" cy="166.5" r="4" fill="#4CAF50" stroke="#0d1117" stroke-width="2.5"/>
<path d="M129.2,167.4 L277.5,160.7 L425.8,226.0 L574.2,211.4 L722.5,276.8 L870.8,165.1" fill="none" stroke="#BB86FC" stroke-width="8" stroke-linejoin="round" stroke-linecap="round" opacity="0.12"/>
<path d="M129.2,167.4 L277.5,160.7 L425.8,226.0 L574.2,211.4 L722.5,276.8 L870.8,165.1" fill="none" stroke="#BB86FC" stroke-width="3.5" stroke-linejoin="round" stroke-linecap="round"/>
<circle cx="129.2" cy="167.4" r="6" fill="#BB86FC" opacity="0.2"/>
<circle cx="129.2" cy="167.4" r="4" fill="#BB86FC" stroke="#0d1117" stroke-width="2.5"/>
<circle cx="277.5" cy="160.7" r="6" fill="#BB86FC" opacity="0.2"/>
<circle cx="277.5" cy="160.7" r="4" fill="#BB86FC" stroke="#0d1117" stroke-width="2.5"/>
<circle cx="425.8" cy="226.0" r="6" fill="#BB86FC" opacity="0.2"/>
<circle cx="425.8" cy="226.0" r="4" fill="#BB86FC" stroke="#0d1117" stroke-width="2.5"/>
<circle cx="574.2" cy="211.4" r="6" fill="#BB86FC" opacity="0.2"/>
<circle cx="574.2" cy="211.4" r="4" fill="#BB86FC" stroke="#0d1117" stroke-width="2.5"/>
<circle cx="722.5" cy="276.8" r="6" fill="#BB86FC" opacity="0.2"/>
<circle cx="722.5" cy="276.8" r="4" fill="#BB86FC" stroke="#0d1117" stroke-width="2.5"/>
<circle cx="870.8" cy="165.1" r="6" fill="#BB86FC" opacity="0.2"/>
<circle cx="870.8" cy="165.1" r="4" fill="#BB86FC" stroke="#0d1117" stroke-width="2.5"/>
<path d="M129.2,162.8 L277.5,158.2 L425.8,223.5 L574.2,207.5 L722.5,373.8 L870.8,162.0" fill="none" stroke="#F472B6" stroke-width="8" stroke-linejoin="round" stroke-linecap="round" opacity="0.12"/>
<path d="M129.2,162.8 L277.5,158.2 L425.8,223.5 L574.2,207.5 L722.5,373.8 L870.8,162.0" fill="none" stroke="#F472B6" stroke-width="3.5" stroke-linejoin="round" stroke-linecap="round"/>
<circle cx="129.2" cy="162.8" r="6" fill="#F472B6" opacity="0.2"/>
<circle cx="129.2" cy="162.8" r="4" fill="#F472B6" stroke="#0d1117" stroke-width="2.5"/>
<circle cx="277.5" cy="158.2" r="6" fill="#F472B6" opacity="0.2"/>
<circle cx="277.5" cy="158.2" r="4" fill="#F472B6" stroke="#0d1117" stroke-width="2.5"/>
<circle cx="425.8" cy="223.5" r="6" fill="#F472B6" opacity="0.2"/>
<circle cx="425.8" cy="223.5" r="4" fill="#F472B6" stroke="#0d1117" stroke-width="2.5"/>
<circle cx="574.2" cy="207.5" r="6" fill="#F472B6" opacity="0.2"/>
<circle cx="574.2" cy="207.5" r="4" fill="#F472B6" stroke="#0d1117" stroke-width="2.5"/>
<circle cx="722.5" cy="373.8" r="6" fill="#F472B6" opacity="0.2"/>
<circle cx="722.5" cy="373.8" r="4" fill="#F472B6" stroke="#0d1117" stroke-width="2.5"/>
<circle cx="870.8" cy="162.0" r="6" fill="#F472B6" opacity="0.2"/>
<circle cx="870.8" cy="162.0" r="4" fill="#F472B6" stroke="#0d1117" stroke-width="2.5"/>
<text x="129.2" y="448" text-anchor="end" fill="#8b949e" font-size="11" transform="rotate(-30,129.2,448)">push_back</text>
<text x="277.5" y="448" text-anchor="end" fill="#8b949e" font-size="11" transform="rotate(-30,277.5,448)">push_front</text>
<text x="425.8" y="448" text-anchor="end" fill="#8b949e" font-size="11" transform="rotate(-30,425.8,448)">insert_middle</text>
<text x="574.2" y="448" text-anchor="end" fill="#8b949e" font-size="11" transform="rotate(-30,574.2,448)">erase_middle</text>
<text x="722.5" y="448" text-anchor="end" fill="#8b949e" font-size="11" transform="rotate(-30,722.5,448)">iterate</text>
<text x="870.8" y="448" text-anchor="end" fill="#8b949e" font-size="11" transform="rotate(-30,870.8,448)">clear</text>
<text x="14" y="272.5" text-anchor="middle" fill="#484f58" font-size="11" transform="rotate(-90,14,272.5)">Time (ms)</text>
<circle cx="65" cy="69" r="5" fill="#58a6ff"/>
<text x="75" y="73" fill="#c9d1d9" font-size="12">RG::LIST</text>
<circle cx="220" cy="69" r="5" fill="#FF9800"/>
<text x="230" y="73" fill="#c9d1d9" font-size="12">std::list</text>
<circle cx="375" cy="69" r="5" fill="#4CAF50"/>
<text x="385" y="73" fill="#c9d1d9" font-size="12">std::forward_list</text>
<circle cx="530" cy="69" r="5" fill="#BB86FC"/>
<text x="540" y="73" fill="#c9d1d9" font-size="12">boost::list</text>
<circle cx="685" cy="69" r="5" fill="#F472B6"/>
<text x="695" y="73" fill="#c9d1d9" font-size="12">eastl::list</text>
<text x="480.0" y="20" text-anchor="middle" fill="#58a6ff" font-size="15" font-weight="700">RG::LIST Benchmark — 2026-04-27</text>
</svg>