<svg xmlns="http://www.w3.org/2000/svg" viewBox="0 0 960 500" font-family="-apple-system,BlinkMacSystemFont,Segoe UI,sans-serif">
<rect width="960" height="500" rx="10" fill="#0d1117"/>
<rect x="55" y="115" width="890" height="315" fill="#161b22" rx="4"/>
<line x1="55" y1="386.5" x2="945" y2="386.5" stroke="#21262d"/>
<text x="47" y="390.47132743966733" text-anchor="end" fill="#484f58" font-size="10">1ms</text>
<line x1="55" y1="312.3" x2="945" y2="312.3" stroke="#21262d"/>
<text x="47" y="316.2833251206225" text-anchor="end" fill="#484f58" font-size="10">2ms</text>
<line x1="55" y1="214.2" x2="945" y2="214.2" stroke="#21262d"/>
<text x="47" y="218.21212055150852" text-anchor="end" fill="#484f58" font-size="10">5ms</text>
<line x1="55" y1="140.0" x2="945" y2="140.0" stroke="#21262d"/>
<text x="47" y="144.02411823246374" text-anchor="end" fill="#484f58" font-size="10">10ms</text>
<line x1="203.3" y1="115" x2="203.3" y2="430" stroke="#30363d" stroke-width="1" stroke-dasharray="4,4"/>
<line x1="351.7" y1="115" x2="351.7" y2="430" stroke="#30363d" stroke-width="1" stroke-dasharray="4,4"/>
<line x1="500.0" y1="115" x2="500.0" y2="430" stroke="#30363d" stroke-width="1" stroke-dasharray="4,4"/>
<line x1="648.3" y1="115" x2="648.3" y2="430" stroke="#30363d" stroke-width="1" stroke-dasharray="4,4"/>
<line x1="796.7" y1="115" x2="796.7" y2="430" stroke="#30363d" stroke-width="1" stroke-dasharray="4,4"/>
<path d="M129.2,321.3 L277.5,326.8 L425.8,391.8 L574.2,391.0 L722.5,390.6 L870.8,326.0" fill="none" stroke="#58a6ff" stroke-width="8" stroke-linejoin="round" stroke-linecap="round" opacity="0.12"/>
<path d="M129.2,321.3 L277.5,326.8 L425.8,391.8 L574.2,391.0 L722.5,390.6 L870.8,326.0" fill="none" stroke="#58a6ff" stroke-width="3.5" stroke-linejoin="round" stroke-linecap="round"/>
<circle cx="129.2" cy="321.3" r="6" fill="#58a6ff" opacity="0.2"/>
<circle cx="129.2" cy="321.3" r="4" fill="#58a6ff" stroke="#0d1117" stroke-width="2.5"/>
<circle cx="277.5" cy="326.8" r="6" fill="#58a6ff" opacity="0.2"/>
<circle cx="277.5" cy="326.8" r="4" fill="#58a6ff" stroke="#0d1117" stroke-width="2.5"/>
<circle cx="425.8" cy="391.8" r="6" fill="#58a6ff" opacity="0.2"/>
<circle cx="425.8" cy="391.8" r="4" fill="#58a6ff" stroke="#0d1117" stroke-width="2.5"/>
<circle cx="574.2" cy="391.0" r="6" fill="#58a6ff" opacity="0.2"/>
<circle cx="574.2" cy="391.0" r="4" fill="#58a6ff" stroke="#0d1117" stroke-width="2.5"/>
<circle cx="722.5" cy="390.6" r="6" fill="#58a6ff" opacity="0.2"/>
<circle cx="722.5" cy="390.6" r="4" fill="#58a6ff" stroke="#0d1117" stroke-width="2.5"/>
<circle cx="870.8" cy="326.0" r="6" fill="#58a6ff" opacity="0.2"/>
<circle cx="870.8" cy="326.0" r="4" fill="#58a6ff" stroke="#0d1117" stroke-width="2.5"/>
<path d="M129.2,161.6 L277.5,159.7 L425.8,225.9 L574.2,226.0 L722.5,367.6 L870.8,162.9" fill="none" stroke="#FF9800" stroke-width="8" stroke-linejoin="round" stroke-linecap="round" opacity="0.12"/>
<path d="M129.2,161.6 L277.5,159.7 L425.8,225.9 L574.2,226.0 L722.5,367.6 L870.8,162.9" fill="none" stroke="#FF9800" stroke-width="3.5" stroke-linejoin="round" stroke-linecap="round"/>
<circle cx="129.2" cy="161.6" r="6" fill="#FF9800" opacity="0.2"/>
<circle cx="129.2" cy="161.6" r="4" fill="#FF9800" stroke="#0d1117" stroke-width="2.5"/>
<circle cx="277.5" cy="159.7" r="6" fill="#FF9800" opacity="0.2"/>
<circle cx="277.5" cy="159.7" r="4" fill="#FF9800" stroke="#0d1117" stroke-width="2.5"/>
<circle cx="425.8" cy="225.9" r="6" fill="#FF9800" opacity="0.2"/>
<circle cx="425.8" cy="225.9" r="4" fill="#FF9800" stroke="#0d1117" stroke-width="2.5"/>
<circle cx="574.2" cy="226.0" r="6" fill="#FF9800" opacity="0.2"/>
<circle cx="574.2" cy="226.0" r="4" fill="#FF9800" stroke="#0d1117" stroke-width="2.5"/>
<circle cx="722.5" cy="367.6" r="6" fill="#FF9800" opacity="0.2"/>
<circle cx="722.5" cy="367.6" r="4" fill="#FF9800" stroke="#0d1117" stroke-width="2.5"/>
<circle cx="870.8" cy="162.9" r="6" fill="#FF9800" opacity="0.2"/>
<circle cx="870.8" cy="162.9" r="4" fill="#FF9800" stroke="#0d1117" stroke-width="2.5"/>
<path d="M129.2,173.3 L277.5,161.2 L425.8,233.8 L574.2,212.9 L722.5,351.8 L870.8,170.4" fill="none" stroke="#4CAF50" stroke-width="8" stroke-linejoin="round" stroke-linecap="round" opacity="0.12"/>
<path d="M129.2,173.3 L277.5,161.2 L425.8,233.8 L574.2,212.9 L722.5,351.8 L870.8,170.4" fill="none" stroke="#4CAF50" stroke-width="3.5" stroke-linejoin="round" stroke-linecap="round"/>
<circle cx="129.2" cy="173.3" r="6" fill="#4CAF50" opacity="0.2"/>
<circle cx="129.2" cy="173.3" r="4" fill="#4CAF50" stroke="#0d1117" stroke-width="2.5"/>
<circle cx="277.5" cy="161.2" r="6" fill="#4CAF50" opacity="0.2"/>
<circle cx="277.5" cy="161.2" r="4" fill="#4CAF50" stroke="#0d1117" stroke-width="2.5"/>
<circle cx="425.8" cy="233.8" r="6" fill="#4CAF50" opacity="0.2"/>
<circle cx="425.8" cy="233.8" r="4" fill="#4CAF50" stroke="#0d1117" stroke-width="2.5"/>
<circle cx="574.2" cy="212.9" r="6" fill="#4CAF50" opacity="0.2"/>
<circle cx="574.2" cy="212.9" r="4" fill="#4CAF50" stroke="#0d1117" stroke-width="2.5"/>
<circle cx="722.5" cy="351.8" r="6" fill="#4CAF50" opacity="0.2"/>
<circle cx="722.5" cy="351.8" r="4" fill="#4CAF50" stroke="#0d1117" stroke-width="2.5"/>
<circle cx="870.8" cy="170.4" r="6" fill="#4CAF50" opacity="0.2"/>
<circle cx="870.8" cy="170.4" r="4" fill="#4CAF50" stroke="#0d1117" stroke-width="2.5"/>
<path d="M129.2,169.5 L277.5,158.4 L425.8,230.5 L574.2,203.7 L722.5,374.2 L870.8,171.0" fill="none" stroke="#BB86FC" stroke-width="8" stroke-linejoin="round" stroke-linecap="round" opacity="0.12"/>
<path d="M129.2,169.5 L277.5,158.4 L425.8,230.5 L574.2,203.7 L722.5,374.2 L870.8,171.0" fill="none" stroke="#BB86FC" stroke-width="3.5" stroke-linejoin="round" stroke-linecap="round"/>
<circle cx="129.2" cy="169.5" r="6" fill="#BB86FC" opacity="0.2"/>
<circle cx="129.2" cy="169.5" r="4" fill="#BB86FC" stroke="#0d1117" stroke-width="2.5"/>
<circle cx="277.5" cy="158.4" r="6" fill="#BB86FC" opacity="0.2"/>
<circle cx="277.5" cy="158.4" r="4" fill="#BB86FC" stroke="#0d1117" stroke-width="2.5"/>
<circle cx="425.8" cy="230.5" r="6" fill="#BB86FC" opacity="0.2"/>
<circle cx="425.8" cy="230.5" r="4" fill="#BB86FC" stroke="#0d1117" stroke-width="2.5"/>
<circle cx="574.2" cy="203.7" r="6" fill="#BB86FC" opacity="0.2"/>
<circle cx="574.2" cy="203.7" r="4" fill="#BB86FC" stroke="#0d1117" stroke-width="2.5"/>
<circle cx="722.5" cy="374.2" r="6" fill="#BB86FC" opacity="0.2"/>
<circle cx="722.5" cy="374.2" r="4" fill="#BB86FC" stroke="#0d1117" stroke-width="2.5"/>
<circle cx="870.8" cy="171.0" r="6" fill="#BB86FC" opacity="0.2"/>
<circle cx="870.8" cy="171.0" r="4" fill="#BB86FC" stroke="#0d1117" stroke-width="2.5"/>
<path d="M129.2,168.0 L277.5,160.8 L425.8,228.4 L574.2,201.8 L722.5,376.6 L870.8,166.1" fill="none" stroke="#F472B6" stroke-width="8" stroke-linejoin="round" stroke-linecap="round" opacity="0.12"/>
<path d="M129.2,168.0 L277.5,160.8 L425.8,228.4 L574.2,201.8 L722.5,376.6 L870.8,166.1" fill="none" stroke="#F472B6" stroke-width="3.5" stroke-linejoin="round" stroke-linecap="round"/>
<circle cx="129.2" cy="168.0" r="6" fill="#F472B6" opacity="0.2"/>
<circle cx="129.2" cy="168.0" r="4" fill="#F472B6" stroke="#0d1117" stroke-width="2.5"/>
<circle cx="277.5" cy="160.8" r="6" fill="#F472B6" opacity="0.2"/>
<circle cx="277.5" cy="160.8" r="4" fill="#F472B6" stroke="#0d1117" stroke-width="2.5"/>
<circle cx="425.8" cy="228.4" r="6" fill="#F472B6" opacity="0.2"/>
<circle cx="425.8" cy="228.4" r="4" fill="#F472B6" stroke="#0d1117" stroke-width="2.5"/>
<circle cx="574.2" cy="201.8" r="6" fill="#F472B6" opacity="0.2"/>
<circle cx="574.2" cy="201.8" r="4" fill="#F472B6" stroke="#0d1117" stroke-width="2.5"/>
<circle cx="722.5" cy="376.6" r="6" fill="#F472B6" opacity="0.2"/>
<circle cx="722.5" cy="376.6" r="4" fill="#F472B6" stroke="#0d1117" stroke-width="2.5"/>
<circle cx="870.8" cy="166.1" r="6" fill="#F472B6" opacity="0.2"/>
<circle cx="870.8" cy="166.1" r="4" fill="#F472B6" stroke="#0d1117" stroke-width="2.5"/>
<text x="129.2" y="448" text-anchor="end" fill="#8b949e" font-size="11" transform="rotate(-30,129.2,448)">push_back</text>
<text x="277.5" y="448" text-anchor="end" fill="#8b949e" font-size="11" transform="rotate(-30,277.5,448)">push_front</text>
<text x="425.8" y="448" text-anchor="end" fill="#8b949e" font-size="11" transform="rotate(-30,425.8,448)">insert_middle</text>
<text x="574.2" y="448" text-anchor="end" fill="#8b949e" font-size="11" transform="rotate(-30,574.2,448)">erase_middle</text>
<text x="722.5" y="448" text-anchor="end" fill="#8b949e" font-size="11" transform="rotate(-30,722.5,448)">iterate</text>
<text x="870.8" y="448" text-anchor="end" fill="#8b949e" font-size="11" transform="rotate(-30,870.8,448)">clear</text>
<text x="14" y="272.5" text-anchor="middle" fill="#484f58" font-size="11" transform="rotate(-90,14,272.5)">Time (ms)</text>
<circle cx="65" cy="69" r="5" fill="#58a6ff"/>
<text x="75" y="73" fill="#c9d1d9" font-size="12">RG::LIST</text>
<circle cx="220" cy="69" r="5" fill="#FF9800"/>
<text x="230" y="73" fill="#c9d1d9" font-size="12">std::list</text>
<circle cx="375" cy="69" r="5" fill="#4CAF50"/>
<text x="385" y="73" fill="#c9d1d9" font-size="12">std::forward_list</text>
<circle cx="530" cy="69" r="5" fill="#BB86FC"/>
<text x="540" y="73" fill="#c9d1d9" font-size="12">boost::list</text>
<circle cx="685" cy="69" r="5" fill="#F472B6"/>
<text x="695" y="73" fill="#c9d1d9" font-size="12">eastl::list</text>
<text x="480.0" y="20" text-anchor="middle" fill="#58a6ff" font-size="15" font-weight="700">RG::LIST Benchmark — 2026-04-15</text>
</svg>