<svg xmlns="http://www.w3.org/2000/svg" viewBox="0 0 960 500" font-family="-apple-system,BlinkMacSystemFont,Segoe UI,sans-serif">
<rect width="960" height="500" rx="10" fill="#0d1117"/>
<rect x="55" y="115" width="890" height="315" fill="#161b22" rx="4"/>
<line x1="55" y1="423.6" x2="945" y2="423.6" stroke="#21262d"/>
<text x="47" y="427.57309147725425" text-anchor="end" fill="#484f58" font-size="10">500µs</text>
<line x1="55" y1="360.9" x2="945" y2="360.9" stroke="#21262d"/>
<text x="47" y="364.90734125914116" text-anchor="end" fill="#484f58" font-size="10">1ms</text>
<line x1="55" y1="298.2" x2="945" y2="298.2" stroke="#21262d"/>
<text x="47" y="302.2415910410281" text-anchor="end" fill="#484f58" font-size="10">2ms</text>
<line x1="55" y1="215.4" x2="945" y2="215.4" stroke="#21262d"/>
<text x="47" y="219.40197524051058" text-anchor="end" fill="#484f58" font-size="10">5ms</text>
<line x1="55" y1="152.7" x2="945" y2="152.7" stroke="#21262d"/>
<text x="47" y="156.73622502239746" text-anchor="end" fill="#484f58" font-size="10">10ms</text>
<line x1="203.3" y1="115" x2="203.3" y2="430" stroke="#30363d" stroke-width="1" stroke-dasharray="4,4"/>
<line x1="351.7" y1="115" x2="351.7" y2="430" stroke="#30363d" stroke-width="1" stroke-dasharray="4,4"/>
<line x1="500.0" y1="115" x2="500.0" y2="430" stroke="#30363d" stroke-width="1" stroke-dasharray="4,4"/>
<line x1="648.3" y1="115" x2="648.3" y2="430" stroke="#30363d" stroke-width="1" stroke-dasharray="4,4"/>
<line x1="796.7" y1="115" x2="796.7" y2="430" stroke="#30363d" stroke-width="1" stroke-dasharray="4,4"/>
<path d="M129.2,288.3 L277.5,283.6 L425.8,363.4 L574.2,359.3 L722.5,397.8 L870.8,280.8" fill="none" stroke="#58a6ff" stroke-width="8" stroke-linejoin="round" stroke-linecap="round" opacity="0.12"/>
<path d="M129.2,288.3 L277.5,283.6 L425.8,363.4 L574.2,359.3 L722.5,397.8 L870.8,280.8" fill="none" stroke="#58a6ff" stroke-width="3.5" stroke-linejoin="round" stroke-linecap="round"/>
<circle cx="129.2" cy="288.3" r="6" fill="#58a6ff" opacity="0.2"/>
<circle cx="129.2" cy="288.3" r="4" fill="#58a6ff" stroke="#0d1117" stroke-width="2.5"/>
<circle cx="277.5" cy="283.6" r="6" fill="#58a6ff" opacity="0.2"/>
<circle cx="277.5" cy="283.6" r="4" fill="#58a6ff" stroke="#0d1117" stroke-width="2.5"/>
<circle cx="425.8" cy="363.4" r="6" fill="#58a6ff" opacity="0.2"/>
<circle cx="425.8" cy="363.4" r="4" fill="#58a6ff" stroke="#0d1117" stroke-width="2.5"/>
<circle cx="574.2" cy="359.3" r="6" fill="#58a6ff" opacity="0.2"/>
<circle cx="574.2" cy="359.3" r="4" fill="#58a6ff" stroke="#0d1117" stroke-width="2.5"/>
<circle cx="722.5" cy="397.8" r="6" fill="#58a6ff" opacity="0.2"/>
<circle cx="722.5" cy="397.8" r="4" fill="#58a6ff" stroke="#0d1117" stroke-width="2.5"/>
<circle cx="870.8" cy="280.8" r="6" fill="#58a6ff" opacity="0.2"/>
<circle cx="870.8" cy="280.8" r="4" fill="#58a6ff" stroke="#0d1117" stroke-width="2.5"/>
<path d="M129.2,157.1 L277.5,156.2 L425.8,215.6 L574.2,217.0 L722.5,365.1 L870.8,159.9" fill="none" stroke="#FF9800" stroke-width="8" stroke-linejoin="round" stroke-linecap="round" opacity="0.12"/>
<path d="M129.2,157.1 L277.5,156.2 L425.8,215.6 L574.2,217.0 L722.5,365.1 L870.8,159.9" fill="none" stroke="#FF9800" stroke-width="3.5" stroke-linejoin="round" stroke-linecap="round"/>
<circle cx="129.2" cy="157.1" r="6" fill="#FF9800" opacity="0.2"/>
<circle cx="129.2" cy="157.1" r="4" fill="#FF9800" stroke="#0d1117" stroke-width="2.5"/>
<circle cx="277.5" cy="156.2" r="6" fill="#FF9800" opacity="0.2"/>
<circle cx="277.5" cy="156.2" r="4" fill="#FF9800" stroke="#0d1117" stroke-width="2.5"/>
<circle cx="425.8" cy="215.6" r="6" fill="#FF9800" opacity="0.2"/>
<circle cx="425.8" cy="215.6" r="4" fill="#FF9800" stroke="#0d1117" stroke-width="2.5"/>
<circle cx="574.2" cy="217.0" r="6" fill="#FF9800" opacity="0.2"/>
<circle cx="574.2" cy="217.0" r="4" fill="#FF9800" stroke="#0d1117" stroke-width="2.5"/>
<circle cx="722.5" cy="365.1" r="6" fill="#FF9800" opacity="0.2"/>
<circle cx="722.5" cy="365.1" r="4" fill="#FF9800" stroke="#0d1117" stroke-width="2.5"/>
<circle cx="870.8" cy="159.9" r="6" fill="#FF9800" opacity="0.2"/>
<circle cx="870.8" cy="159.9" r="4" fill="#FF9800" stroke="#0d1117" stroke-width="2.5"/>
<path d="M129.2,172.5 L277.5,160.8 L425.8,230.9 L574.2,222.7 L722.5,360.1 L870.8,170.9" fill="none" stroke="#4CAF50" stroke-width="8" stroke-linejoin="round" stroke-linecap="round" opacity="0.12"/>
<path d="M129.2,172.5 L277.5,160.8 L425.8,230.9 L574.2,222.7 L722.5,360.1 L870.8,170.9" fill="none" stroke="#4CAF50" stroke-width="3.5" stroke-linejoin="round" stroke-linecap="round"/>
<circle cx="129.2" cy="172.5" r="6" fill="#4CAF50" opacity="0.2"/>
<circle cx="129.2" cy="172.5" r="4" fill="#4CAF50" stroke="#0d1117" stroke-width="2.5"/>
<circle cx="277.5" cy="160.8" r="6" fill="#4CAF50" opacity="0.2"/>
<circle cx="277.5" cy="160.8" r="4" fill="#4CAF50" stroke="#0d1117" stroke-width="2.5"/>
<circle cx="425.8" cy="230.9" r="6" fill="#4CAF50" opacity="0.2"/>
<circle cx="425.8" cy="230.9" r="4" fill="#4CAF50" stroke="#0d1117" stroke-width="2.5"/>
<circle cx="574.2" cy="222.7" r="6" fill="#4CAF50" opacity="0.2"/>
<circle cx="574.2" cy="222.7" r="4" fill="#4CAF50" stroke="#0d1117" stroke-width="2.5"/>
<circle cx="722.5" cy="360.1" r="6" fill="#4CAF50" opacity="0.2"/>
<circle cx="722.5" cy="360.1" r="4" fill="#4CAF50" stroke="#0d1117" stroke-width="2.5"/>
<circle cx="870.8" cy="170.9" r="6" fill="#4CAF50" opacity="0.2"/>
<circle cx="870.8" cy="170.9" r="4" fill="#4CAF50" stroke="#0d1117" stroke-width="2.5"/>
<path d="M129.2,171.2 L277.5,158.3 L425.8,228.6 L574.2,212.3 L722.5,349.0 L870.8,168.9" fill="none" stroke="#BB86FC" stroke-width="8" stroke-linejoin="round" stroke-linecap="round" opacity="0.12"/>
<path d="M129.2,171.2 L277.5,158.3 L425.8,228.6 L574.2,212.3 L722.5,349.0 L870.8,168.9" fill="none" stroke="#BB86FC" stroke-width="3.5" stroke-linejoin="round" stroke-linecap="round"/>
<circle cx="129.2" cy="171.2" r="6" fill="#BB86FC" opacity="0.2"/>
<circle cx="129.2" cy="171.2" r="4" fill="#BB86FC" stroke="#0d1117" stroke-width="2.5"/>
<circle cx="277.5" cy="158.3" r="6" fill="#BB86FC" opacity="0.2"/>
<circle cx="277.5" cy="158.3" r="4" fill="#BB86FC" stroke="#0d1117" stroke-width="2.5"/>
<circle cx="425.8" cy="228.6" r="6" fill="#BB86FC" opacity="0.2"/>
<circle cx="425.8" cy="228.6" r="4" fill="#BB86FC" stroke="#0d1117" stroke-width="2.5"/>
<circle cx="574.2" cy="212.3" r="6" fill="#BB86FC" opacity="0.2"/>
<circle cx="574.2" cy="212.3" r="4" fill="#BB86FC" stroke="#0d1117" stroke-width="2.5"/>
<circle cx="722.5" cy="349.0" r="6" fill="#BB86FC" opacity="0.2"/>
<circle cx="722.5" cy="349.0" r="4" fill="#BB86FC" stroke="#0d1117" stroke-width="2.5"/>
<circle cx="870.8" cy="168.9" r="6" fill="#BB86FC" opacity="0.2"/>
<circle cx="870.8" cy="168.9" r="4" fill="#BB86FC" stroke="#0d1117" stroke-width="2.5"/>
<path d="M129.2,165.0 L277.5,151.7 L425.8,226.7 L574.2,207.7 L722.5,377.4 L870.8,167.1" fill="none" stroke="#F472B6" stroke-width="8" stroke-linejoin="round" stroke-linecap="round" opacity="0.12"/>
<path d="M129.2,165.0 L277.5,151.7 L425.8,226.7 L574.2,207.7 L722.5,377.4 L870.8,167.1" fill="none" stroke="#F472B6" stroke-width="3.5" stroke-linejoin="round" stroke-linecap="round"/>
<circle cx="129.2" cy="165.0" r="6" fill="#F472B6" opacity="0.2"/>
<circle cx="129.2" cy="165.0" r="4" fill="#F472B6" stroke="#0d1117" stroke-width="2.5"/>
<circle cx="277.5" cy="151.7" r="6" fill="#F472B6" opacity="0.2"/>
<circle cx="277.5" cy="151.7" r="4" fill="#F472B6" stroke="#0d1117" stroke-width="2.5"/>
<circle cx="425.8" cy="226.7" r="6" fill="#F472B6" opacity="0.2"/>
<circle cx="425.8" cy="226.7" r="4" fill="#F472B6" stroke="#0d1117" stroke-width="2.5"/>
<circle cx="574.2" cy="207.7" r="6" fill="#F472B6" opacity="0.2"/>
<circle cx="574.2" cy="207.7" r="4" fill="#F472B6" stroke="#0d1117" stroke-width="2.5"/>
<circle cx="722.5" cy="377.4" r="6" fill="#F472B6" opacity="0.2"/>
<circle cx="722.5" cy="377.4" r="4" fill="#F472B6" stroke="#0d1117" stroke-width="2.5"/>
<circle cx="870.8" cy="167.1" r="6" fill="#F472B6" opacity="0.2"/>
<circle cx="870.8" cy="167.1" r="4" fill="#F472B6" stroke="#0d1117" stroke-width="2.5"/>
<text x="129.2" y="448" text-anchor="end" fill="#8b949e" font-size="11" transform="rotate(-30,129.2,448)">push_back</text>
<text x="277.5" y="448" text-anchor="end" fill="#8b949e" font-size="11" transform="rotate(-30,277.5,448)">push_front</text>
<text x="425.8" y="448" text-anchor="end" fill="#8b949e" font-size="11" transform="rotate(-30,425.8,448)">insert_middle</text>
<text x="574.2" y="448" text-anchor="end" fill="#8b949e" font-size="11" transform="rotate(-30,574.2,448)">erase_middle</text>
<text x="722.5" y="448" text-anchor="end" fill="#8b949e" font-size="11" transform="rotate(-30,722.5,448)">iterate</text>
<text x="870.8" y="448" text-anchor="end" fill="#8b949e" font-size="11" transform="rotate(-30,870.8,448)">clear</text>
<text x="14" y="272.5" text-anchor="middle" fill="#484f58" font-size="11" transform="rotate(-90,14,272.5)">Time (ms)</text>
<circle cx="65" cy="69" r="5" fill="#58a6ff"/>
<text x="75" y="73" fill="#c9d1d9" font-size="12">RG::LIST</text>
<circle cx="220" cy="69" r="5" fill="#FF9800"/>
<text x="230" y="73" fill="#c9d1d9" font-size="12">std::list</text>
<circle cx="375" cy="69" r="5" fill="#4CAF50"/>
<text x="385" y="73" fill="#c9d1d9" font-size="12">std::forward_list</text>
<circle cx="530" cy="69" r="5" fill="#BB86FC"/>
<text x="540" y="73" fill="#c9d1d9" font-size="12">boost::list</text>
<circle cx="685" cy="69" r="5" fill="#F472B6"/>
<text x="695" y="73" fill="#c9d1d9" font-size="12">eastl::list</text>
<text x="480.0" y="20" text-anchor="middle" fill="#58a6ff" font-size="15" font-weight="700">RG::LIST Benchmark — 2026-04-15</text>
</svg>