<svg xmlns="http://www.w3.org/2000/svg" viewBox="0 0 960 500" font-family="-apple-system,BlinkMacSystemFont,Segoe UI,sans-serif">
<rect width="960" height="500" rx="10" fill="#0d1117"/>
<rect x="55" y="115" width="890" height="315" fill="#161b22" rx="4"/>
<line x1="55" y1="384.6" x2="945" y2="384.6" stroke="#21262d"/>
<text x="47" y="388.60365487793405" text-anchor="end" fill="#484f58" font-size="10">1ms</text>
<line x1="55" y1="315.7" x2="945" y2="315.7" stroke="#21262d"/>
<text x="47" y="319.7388782925589" text-anchor="end" fill="#484f58" font-size="10">2ms</text>
<line x1="55" y1="224.7" x2="945" y2="224.7" stroke="#21262d"/>
<text x="47" y="228.70459537621014" text-anchor="end" fill="#484f58" font-size="10">5ms</text>
<line x1="55" y1="155.8" x2="945" y2="155.8" stroke="#21262d"/>
<text x="47" y="159.83981879083507" text-anchor="end" fill="#484f58" font-size="10">10ms</text>
<line x1="203.3" y1="115" x2="203.3" y2="430" stroke="#30363d" stroke-width="1" stroke-dasharray="4,4"/>
<line x1="351.7" y1="115" x2="351.7" y2="430" stroke="#30363d" stroke-width="1" stroke-dasharray="4,4"/>
<line x1="500.0" y1="115" x2="500.0" y2="430" stroke="#30363d" stroke-width="1" stroke-dasharray="4,4"/>
<line x1="648.3" y1="115" x2="648.3" y2="430" stroke="#30363d" stroke-width="1" stroke-dasharray="4,4"/>
<line x1="796.7" y1="115" x2="796.7" y2="430" stroke="#30363d" stroke-width="1" stroke-dasharray="4,4"/>
<path d="M129.2,328.1 L277.5,329.2 L425.8,390.5 L574.2,385.8 L722.5,394.6 L870.8,330.5" fill="none" stroke="#58a6ff" stroke-width="8" stroke-linejoin="round" stroke-linecap="round" opacity="0.12"/>
<path d="M129.2,328.1 L277.5,329.2 L425.8,390.5 L574.2,385.8 L722.5,394.6 L870.8,330.5" fill="none" stroke="#58a6ff" stroke-width="3.5" stroke-linejoin="round" stroke-linecap="round"/>
<circle cx="129.2" cy="328.1" r="6" fill="#58a6ff" opacity="0.2"/>
<circle cx="129.2" cy="328.1" r="4" fill="#58a6ff" stroke="#0d1117" stroke-width="2.5"/>
<circle cx="277.5" cy="329.2" r="6" fill="#58a6ff" opacity="0.2"/>
<circle cx="277.5" cy="329.2" r="4" fill="#58a6ff" stroke="#0d1117" stroke-width="2.5"/>
<circle cx="425.8" cy="390.5" r="6" fill="#58a6ff" opacity="0.2"/>
<circle cx="425.8" cy="390.5" r="4" fill="#58a6ff" stroke="#0d1117" stroke-width="2.5"/>
<circle cx="574.2" cy="385.8" r="6" fill="#58a6ff" opacity="0.2"/>
<circle cx="574.2" cy="385.8" r="4" fill="#58a6ff" stroke="#0d1117" stroke-width="2.5"/>
<circle cx="722.5" cy="394.6" r="6" fill="#58a6ff" opacity="0.2"/>
<circle cx="722.5" cy="394.6" r="4" fill="#58a6ff" stroke="#0d1117" stroke-width="2.5"/>
<circle cx="870.8" cy="330.5" r="6" fill="#58a6ff" opacity="0.2"/>
<circle cx="870.8" cy="330.5" r="4" fill="#58a6ff" stroke="#0d1117" stroke-width="2.5"/>
<path d="M129.2,176.3 L277.5,173.0 L425.8,235.4 L574.2,235.3 L722.5,358.7 L870.8,176.8" fill="none" stroke="#FF9800" stroke-width="8" stroke-linejoin="round" stroke-linecap="round" opacity="0.12"/>
<path d="M129.2,176.3 L277.5,173.0 L425.8,235.4 L574.2,235.3 L722.5,358.7 L870.8,176.8" fill="none" stroke="#FF9800" stroke-width="3.5" stroke-linejoin="round" stroke-linecap="round"/>
<circle cx="129.2" cy="176.3" r="6" fill="#FF9800" opacity="0.2"/>
<circle cx="129.2" cy="176.3" r="4" fill="#FF9800" stroke="#0d1117" stroke-width="2.5"/>
<circle cx="277.5" cy="173.0" r="6" fill="#FF9800" opacity="0.2"/>
<circle cx="277.5" cy="173.0" r="4" fill="#FF9800" stroke="#0d1117" stroke-width="2.5"/>
<circle cx="425.8" cy="235.4" r="6" fill="#FF9800" opacity="0.2"/>
<circle cx="425.8" cy="235.4" r="4" fill="#FF9800" stroke="#0d1117" stroke-width="2.5"/>
<circle cx="574.2" cy="235.3" r="6" fill="#FF9800" opacity="0.2"/>
<circle cx="574.2" cy="235.3" r="4" fill="#FF9800" stroke="#0d1117" stroke-width="2.5"/>
<circle cx="722.5" cy="358.7" r="6" fill="#FF9800" opacity="0.2"/>
<circle cx="722.5" cy="358.7" r="4" fill="#FF9800" stroke="#0d1117" stroke-width="2.5"/>
<circle cx="870.8" cy="176.8" r="6" fill="#FF9800" opacity="0.2"/>
<circle cx="870.8" cy="176.8" r="4" fill="#FF9800" stroke="#0d1117" stroke-width="2.5"/>
<path d="M129.2,185.5 L277.5,173.3 L425.8,242.9 L574.2,222.5 L722.5,325.1 L870.8,185.7" fill="none" stroke="#4CAF50" stroke-width="8" stroke-linejoin="round" stroke-linecap="round" opacity="0.12"/>
<path d="M129.2,185.5 L277.5,173.3 L425.8,242.9 L574.2,222.5 L722.5,325.1 L870.8,185.7" fill="none" stroke="#4CAF50" stroke-width="3.5" stroke-linejoin="round" stroke-linecap="round"/>
<circle cx="129.2" cy="185.5" r="6" fill="#4CAF50" opacity="0.2"/>
<circle cx="129.2" cy="185.5" r="4" fill="#4CAF50" stroke="#0d1117" stroke-width="2.5"/>
<circle cx="277.5" cy="173.3" r="6" fill="#4CAF50" opacity="0.2"/>
<circle cx="277.5" cy="173.3" r="4" fill="#4CAF50" stroke="#0d1117" stroke-width="2.5"/>
<circle cx="425.8" cy="242.9" r="6" fill="#4CAF50" opacity="0.2"/>
<circle cx="425.8" cy="242.9" r="4" fill="#4CAF50" stroke="#0d1117" stroke-width="2.5"/>
<circle cx="574.2" cy="222.5" r="6" fill="#4CAF50" opacity="0.2"/>
<circle cx="574.2" cy="222.5" r="4" fill="#4CAF50" stroke="#0d1117" stroke-width="2.5"/>
<circle cx="722.5" cy="325.1" r="6" fill="#4CAF50" opacity="0.2"/>
<circle cx="722.5" cy="325.1" r="4" fill="#4CAF50" stroke="#0d1117" stroke-width="2.5"/>
<circle cx="870.8" cy="185.7" r="6" fill="#4CAF50" opacity="0.2"/>
<circle cx="870.8" cy="185.7" r="4" fill="#4CAF50" stroke="#0d1117" stroke-width="2.5"/>
<path d="M129.2,181.8 L277.5,155.3 L425.8,238.8 L574.2,213.3 L722.5,344.8 L870.8,180.4" fill="none" stroke="#BB86FC" stroke-width="8" stroke-linejoin="round" stroke-linecap="round" opacity="0.12"/>
<path d="M129.2,181.8 L277.5,155.3 L425.8,238.8 L574.2,213.3 L722.5,344.8 L870.8,180.4" fill="none" stroke="#BB86FC" stroke-width="3.5" stroke-linejoin="round" stroke-linecap="round"/>
<circle cx="129.2" cy="181.8" r="6" fill="#BB86FC" opacity="0.2"/>
<circle cx="129.2" cy="181.8" r="4" fill="#BB86FC" stroke="#0d1117" stroke-width="2.5"/>
<circle cx="277.5" cy="155.3" r="6" fill="#BB86FC" opacity="0.2"/>
<circle cx="277.5" cy="155.3" r="4" fill="#BB86FC" stroke="#0d1117" stroke-width="2.5"/>
<circle cx="425.8" cy="238.8" r="6" fill="#BB86FC" opacity="0.2"/>
<circle cx="425.8" cy="238.8" r="4" fill="#BB86FC" stroke="#0d1117" stroke-width="2.5"/>
<circle cx="574.2" cy="213.3" r="6" fill="#BB86FC" opacity="0.2"/>
<circle cx="574.2" cy="213.3" r="4" fill="#BB86FC" stroke="#0d1117" stroke-width="2.5"/>
<circle cx="722.5" cy="344.8" r="6" fill="#BB86FC" opacity="0.2"/>
<circle cx="722.5" cy="344.8" r="4" fill="#BB86FC" stroke="#0d1117" stroke-width="2.5"/>
<circle cx="870.8" cy="180.4" r="6" fill="#BB86FC" opacity="0.2"/>
<circle cx="870.8" cy="180.4" r="4" fill="#BB86FC" stroke="#0d1117" stroke-width="2.5"/>
<path d="M129.2,180.4 L277.5,161.7 L425.8,237.2 L574.2,212.5 L722.5,359.9 L870.8,179.9" fill="none" stroke="#F472B6" stroke-width="8" stroke-linejoin="round" stroke-linecap="round" opacity="0.12"/>
<path d="M129.2,180.4 L277.5,161.7 L425.8,237.2 L574.2,212.5 L722.5,359.9 L870.8,179.9" fill="none" stroke="#F472B6" stroke-width="3.5" stroke-linejoin="round" stroke-linecap="round"/>
<circle cx="129.2" cy="180.4" r="6" fill="#F472B6" opacity="0.2"/>
<circle cx="129.2" cy="180.4" r="4" fill="#F472B6" stroke="#0d1117" stroke-width="2.5"/>
<circle cx="277.5" cy="161.7" r="6" fill="#F472B6" opacity="0.2"/>
<circle cx="277.5" cy="161.7" r="4" fill="#F472B6" stroke="#0d1117" stroke-width="2.5"/>
<circle cx="425.8" cy="237.2" r="6" fill="#F472B6" opacity="0.2"/>
<circle cx="425.8" cy="237.2" r="4" fill="#F472B6" stroke="#0d1117" stroke-width="2.5"/>
<circle cx="574.2" cy="212.5" r="6" fill="#F472B6" opacity="0.2"/>
<circle cx="574.2" cy="212.5" r="4" fill="#F472B6" stroke="#0d1117" stroke-width="2.5"/>
<circle cx="722.5" cy="359.9" r="6" fill="#F472B6" opacity="0.2"/>
<circle cx="722.5" cy="359.9" r="4" fill="#F472B6" stroke="#0d1117" stroke-width="2.5"/>
<circle cx="870.8" cy="179.9" r="6" fill="#F472B6" opacity="0.2"/>
<circle cx="870.8" cy="179.9" r="4" fill="#F472B6" stroke="#0d1117" stroke-width="2.5"/>
<text x="129.2" y="448" text-anchor="end" fill="#8b949e" font-size="11" transform="rotate(-30,129.2,448)">push_back</text>
<text x="277.5" y="448" text-anchor="end" fill="#8b949e" font-size="11" transform="rotate(-30,277.5,448)">push_front</text>
<text x="425.8" y="448" text-anchor="end" fill="#8b949e" font-size="11" transform="rotate(-30,425.8,448)">insert_middle</text>
<text x="574.2" y="448" text-anchor="end" fill="#8b949e" font-size="11" transform="rotate(-30,574.2,448)">erase_middle</text>
<text x="722.5" y="448" text-anchor="end" fill="#8b949e" font-size="11" transform="rotate(-30,722.5,448)">iterate</text>
<text x="870.8" y="448" text-anchor="end" fill="#8b949e" font-size="11" transform="rotate(-30,870.8,448)">clear</text>
<text x="14" y="272.5" text-anchor="middle" fill="#484f58" font-size="11" transform="rotate(-90,14,272.5)">Time (ms)</text>
<circle cx="65" cy="69" r="5" fill="#58a6ff"/>
<text x="75" y="73" fill="#c9d1d9" font-size="12">RG::LIST</text>
<circle cx="220" cy="69" r="5" fill="#FF9800"/>
<text x="230" y="73" fill="#c9d1d9" font-size="12">std::list</text>
<circle cx="375" cy="69" r="5" fill="#4CAF50"/>
<text x="385" y="73" fill="#c9d1d9" font-size="12">std::forward_list</text>
<circle cx="530" cy="69" r="5" fill="#BB86FC"/>
<text x="540" y="73" fill="#c9d1d9" font-size="12">boost::list</text>
<circle cx="685" cy="69" r="5" fill="#F472B6"/>
<text x="695" y="73" fill="#c9d1d9" font-size="12">eastl::list</text>
<text x="480.0" y="20" text-anchor="middle" fill="#58a6ff" font-size="15" font-weight="700">RG::LIST Benchmark — 2026-04-13</text>
</svg>